<svg width="60" height="60" viewBox="0 0 60 60" fill="none" xmlns="http://www.w3.org/2000/svg">
<path d="M30.6602 14.5059C31.9438 13.378 34 14.2599 34 15.9385V44.0626C33.999 45.7401 31.9435 46.622 30.6602 45.4953L22.1299 38.0001H11.5C10.6719 38.0001 10.0005 37.3281 10 36.5001V23.5001C10 22.6716 10.6716 22.0001 11.5 22.0001H22.1309L30.6602 14.5059ZM44.1631 18.1582C44.5783 17.9534 44.9994 17.9476 45.4268 18.1397C45.8543 18.3319 46.1786 18.6455 46.3984 19.0811C47.2535 20.7723 47.9011 22.5275 48.3408 24.3467C48.7806 26.1661 49 28.0372 49 29.9591C49 31.8807 48.7742 33.7704 48.3223 35.628C47.8703 37.4858 47.2164 39.261 46.3613 40.9523C46.1415 41.3877 45.8234 41.6948 45.4082 41.8742C44.9931 42.0533 44.5782 42.0408 44.1631 41.8361C43.8211 41.6567 43.5763 41.3813 43.4297 41.0099C43.2831 40.6383 43.3075 40.2854 43.5029 39.9523C44.3579 38.4406 44.9992 36.8521 45.4268 35.1866C45.8543 33.521 46.0684 31.8034 46.0684 30.0352C46.0683 28.2674 45.8479 26.5445 45.4082 24.8663C44.9685 23.1879 44.3218 21.5795 43.4668 20.042C43.2714 19.7091 43.2526 19.3568 43.4111 18.9854C43.5699 18.6138 43.8211 18.3376 44.1631 18.1582ZM39.9482 22.6553C40.3636 22.5016 40.761 22.5208 41.1396 22.7129C41.5183 22.9051 41.7929 23.2197 41.9639 23.6553C42.3791 24.6546 42.6781 25.6858 42.8613 26.7491C43.0446 27.8125 43.1367 28.8828 43.1367 29.9591C43.1367 31.0608 43.0392 32.1438 42.8438 33.2071C42.6483 34.2703 42.3429 35.3142 41.9277 36.339C41.7567 36.7746 41.4812 37.0949 41.1025 37.2999C40.7239 37.5049 40.3273 37.5307 39.9121 37.3771C39.5456 37.2233 39.2828 36.9605 39.124 36.589C38.9653 36.2175 38.9589 35.852 39.1055 35.4933C39.4718 34.6223 39.7465 33.7193 39.9297 32.7843C40.1129 31.8491 40.2051 30.9071 40.2051 29.9591C40.2051 29.0109 40.1129 28.0749 39.9297 27.1524C39.7465 26.2301 39.4719 25.3331 39.1055 24.462C38.959 24.1033 38.9716 23.7512 39.1426 23.4053C39.3136 23.0594 39.5818 22.8091 39.9482 22.6553Z" fill="#262626"/>
</svg>
