<svg width="60" height="60" viewBox="0 0 60 60" fill="none" xmlns="http://www.w3.org/2000/svg">
<path d="M51 40C51.5523 40 52 40.4477 52 41V45C52 45.5523 51.5523 46 51 46H9C8.44772 46 8 45.5523 8 45V41C8 40.4477 8.44772 40 9 40H51ZM15 26C15.5523 26 16 26.4477 16 27V33C16 33.5523 15.5523 34 15 34H9C8.44772 34 8 33.5523 8 33V27C8 26.4477 8.44772 26 9 26H15ZM27 26C27.5523 26 28 26.4477 28 27V33C28 33.5523 27.5523 34 27 34H21C20.4477 34 20 33.5523 20 33V27C20 26.4477 20.4477 26 21 26H27ZM39 26C39.5523 26 40 26.4477 40 27V33C40 33.5523 39.5523 34 39 34H33C32.4477 34 32 33.5523 32 33V27C32 26.4477 32.4477 26 33 26H39ZM51 26C51.5523 26 52 26.4477 52 27V33C52 33.5523 51.5523 34 51 34H45C44.4477 34 44 33.5523 44 33V27C44 26.4477 44.4477 26 45 26H51ZM15 14C15.5523 14 16 14.4477 16 15V21C16 21.5523 15.5523 22 15 22H9C8.44772 22 8 21.5523 8 21V15C8 14.4477 8.44772 14 9 14H15ZM27 14C27.5523 14 28 14.4477 28 15V21C28 21.5523 27.5523 22 27 22H21C20.4477 22 20 21.5523 20 21V15C20 14.4477 20.4477 14 21 14H27ZM39 14C39.5523 14 40 14.4477 40 15V21C40 21.5523 39.5523 22 39 22H33C32.4477 22 32 21.5523 32 21V15C32 14.4477 32.4477 14 33 14H39ZM51 14C51.5523 14 52 14.4477 52 15V21C52 21.5523 51.5523 22 51 22H45C44.4477 22 44 21.5523 44 21V15C44 14.4477 44.4477 14 45 14H51Z" fill="white"/>
</svg>
