<svg width="160" height="80" viewBox="0 0 160 80" fill="none" xmlns="http://www.w3.org/2000/svg">
<rect width="160" height="80" rx="10" fill="white"/>
<!-- <path d="M76.5547 23.8828V47.0859H72.6523V35.4492H67.0273V32.2852H72.6523V23.8828H76.5547ZM77.3633 51.832V54.9961H55.707V45.0469H59.6094V51.832H77.3633ZM61.6133 30.2109C61.6133 34.043 64.1797 37.9805 69.1016 39.5977L67.1328 42.7266C63.582 41.5137 61.0684 39.1055 59.6797 36.082C58.2734 39.4395 55.6191 42.0938 51.875 43.3945L49.8711 40.2305C54.9336 38.5781 57.6406 34.3945 57.6406 30.1758V29.332H51.0312V26.168H68.1875V29.332H61.6133V30.2109ZM90.7578 33.5508C90.7578 38.4727 92.7969 43.4297 97.2266 45.8203L95.0469 48.7031C92.0938 47.1387 90.0898 44.3438 88.9648 41.0039C87.8398 44.6074 85.8359 47.6836 82.8477 49.4414L80.5625 46.4883C85.0625 43.8867 87.0664 38.5781 87.0664 33.5508V32.5664H81.6523V29.4023H87.0664V24.9727H90.7578V29.4023H96.0664V32.5664H90.7578V33.5508ZM108.406 23.8477V55.6289H104.68V23.8477H108.406ZM101.938 24.4453V54.082H98.2461V39.2812H94.0977V36.0469H98.2461V24.4453H101.938Z" fill="black"/> -->
<path d="M25 5H10C7.23858 5 5 7.23858 5 10V25L15 15L25 5Z" fill="black"/>
</svg>
