<svg width="200" height="60" viewBox="0 0 200 60" fill="none" xmlns="http://www.w3.org/2000/svg">
<rect x="1" y="1" width="198" height="58" rx="9" fill="white"/>
<rect x="1" y="1" width="198" height="58" rx="9" stroke="#5D5D5D" stroke-width="2"/>
<mask id="mask0_473_11825" style="mask-type:alpha" maskUnits="userSpaceOnUse" x="10" y="10" width="40" height="40">
<rect x="10" y="10" width="40" height="40" fill="#D9D9D9"/>
</mask>
<g mask="url(#mask0_473_11825)">
<path d="M21.3333 44.5C20.4166 44.5 19.6319 44.1736 18.9791 43.5208C18.3263 42.8681 17.9999 42.0833 17.9999 41.1667V19.5H17.3333C16.781 19.5 16.3333 19.0523 16.3333 18.5V17.1667C16.3333 16.6144 16.781 16.1667 17.3333 16.1667H24.6666V14.5H34.6666V16.1667H41.9999C42.5522 16.1667 42.9999 16.6144 42.9999 17.1667V18.5C42.9999 19.0523 42.5522 19.5 41.9999 19.5H41.3333V41.1667C41.3333 42.0833 41.0069 42.8681 40.3541 43.5208C39.7013 44.1736 38.9166 44.5 37.9999 44.5H21.3333ZM37.9999 21.5C37.9999 20.3954 37.1045 19.5 35.9999 19.5H23.3333C22.2287 19.5 21.3333 20.3954 21.3333 21.5V39.1667C21.3333 40.2712 22.2287 41.1667 23.3333 41.1667H35.9999C37.1045 41.1667 37.9999 40.2712 37.9999 39.1667V21.5ZM24.6666 36.8333C24.6666 37.3856 25.1143 37.8333 25.6666 37.8333H26.9999C27.5522 37.8333 27.9999 37.3856 27.9999 36.8333V23.8333C27.9999 23.281 27.5522 22.8333 26.9999 22.8333H25.6666C25.1143 22.8333 24.6666 23.281 24.6666 23.8333V36.8333ZM31.3333 36.8333C31.3333 37.3856 31.781 37.8333 32.3333 37.8333H33.6666C34.2189 37.8333 34.6666 37.3856 34.6666 36.8333V23.8333C34.6666 23.281 34.2189 22.8333 33.6666 22.8333H32.3333C31.781 22.8333 31.3333 23.281 31.3333 23.8333V36.8333Z" fill="#3D3D3D"/>
</g>
<path d="M85.1953 14.0234V37.0859H81.8555V25.2383H75.8438V22.5312H81.8555V14.0234H85.1953ZM86.0391 42.1133V44.8203H64.7344V35.0117H68.0742V42.1133H86.0391ZM70.2188 20.3867C70.2188 24.3242 73.0664 28.2617 77.8125 29.8438L76.0898 32.5156C72.5566 31.2676 69.9375 28.7363 68.5664 25.625C67.1953 29.0879 64.4355 31.8828 60.6914 33.2188L58.9688 30.5117C63.8203 28.8594 66.8086 24.7109 66.8086 20.3867V19.1562H59.9883V16.4141H76.9688V19.1562H70.2188V20.3867ZM99.4688 23.6562C99.4688 28.6133 101.754 33.6758 106.113 35.9961L104.25 38.457C101.209 36.8398 99.082 33.8164 97.957 30.2305C96.8145 34.0801 94.7051 37.3848 91.6641 39.1953L89.6953 36.6641C94.0547 34.1328 96.3047 28.7539 96.3398 23.6562V22.3906H90.6445V19.6484H96.3398V15.1133H99.4688V19.6484H105.059V22.3906H99.4688V23.6562ZM117.082 13.9883V45.4883H113.883V13.9883H117.082ZM110.684 14.6562V43.9062H107.52V29.0352H102.984V26.2578H107.52V14.6562H110.684ZM132.094 19.0156C132.094 23.1289 134.977 26.9609 139.758 28.543L138.035 31.1445C134.484 29.9668 131.865 27.4531 130.512 24.2891C129.123 27.752 126.434 30.4062 122.707 31.707L120.984 29.0703C125.941 27.3828 128.789 23.3047 128.789 18.7344V15.6055H132.094V19.0156ZM145.91 13.9883V22.1094H150.48V24.9219H145.91V33.0781H142.57V13.9883H145.91ZM145.91 34.5195V45.4883H142.57V37.2266H125.098V34.5195H145.91ZM179.309 13.9883V45.4883H176.109V13.9883H179.309ZM172.91 14.6562V43.9062H169.746V27.875H164.859V25.1328H169.746V14.6562H172.91ZM161.766 22.7773C161.766 28.1562 163.945 33.5352 168.375 36.1016L166.371 38.5625C163.365 36.7695 161.291 33.5879 160.219 29.7734C159.076 33.8867 156.932 37.3848 153.855 39.3008L151.816 36.8047C156.281 34.0977 158.566 28.3672 158.566 22.7773V20.2461H152.766V17.5391H167.18V20.2461H161.766V22.7773Z" fill="#3D3D3D"/>
</svg>
