<svg width="60" height="60" viewBox="0 0 60 60" fill="none" xmlns="http://www.w3.org/2000/svg">
<path d="M46.7977 15C47.9023 15 48.7977 15.8954 48.7977 17V43C48.7977 44.1046 47.9023 45 46.7977 45H22.7597C22.1521 45 21.5777 44.7234 21.1981 44.249L10.7977 31.249C10.2136 30.5187 10.2136 29.4813 10.7977 28.751L21.1981 15.751C21.5777 15.2766 22.1521 15 22.7597 15H46.7977ZM39.2528 24.5449C38.7256 24.0178 37.8698 24.0177 37.3427 24.5449L33.7977 28.0898L30.2528 24.5449C29.7256 24.0178 28.8698 24.0177 28.3427 24.5449C27.8157 25.0721 27.8156 25.9279 28.3427 26.4551L31.8876 30L28.3427 33.5449C27.8157 34.0721 27.8156 34.9279 28.3427 35.4551C28.8698 35.9822 29.7256 35.9821 30.2528 35.4551L33.7977 31.9102L37.3427 35.4551C37.8698 35.9822 38.7256 35.9821 39.2528 35.4551C39.78 34.9279 39.78 34.0721 39.2528 33.5449L35.7079 30L39.2528 26.4551C39.78 25.9279 39.78 25.0721 39.2528 24.5449Z" fill="#3D3D3D"/>
</svg>
