<svg width="36" height="36" viewBox="0 0 36 36" fill="none" xmlns="http://www.w3.org/2000/svg">
<path d="M5.40002 13.6016C5.40002 13.0493 5.84774 12.6016 6.40002 12.6016H10.8V23.4016H6.40003C5.84774 23.4016 5.40002 22.9538 5.40002 22.4016V13.6016Z" fill="white"/>
<path d="M10.8 12.6008L18.2266 7.4022C18.8894 6.93826 19.8 7.41241 19.8 8.22144V27.7801C19.8 28.5891 18.8894 29.0633 18.2266 28.5994L10.8 23.4008V12.6008Z" fill="white"/>
<path d="M22.6111 23.0793C22.3494 22.9746 22.1619 22.7958 22.0485 22.5429C21.9351 22.29 21.9308 22.0414 22.0354 21.7972C22.2971 21.2041 22.4933 20.5892 22.6242 19.9525C22.755 19.3159 22.8204 18.6748 22.8204 18.0294C22.8204 17.384 22.755 16.7473 22.6242 16.1194C22.4933 15.4914 22.2971 14.8809 22.0354 14.2878C21.9308 14.0436 21.9395 13.8037 22.0616 13.5683C22.1837 13.3328 22.3756 13.1627 22.6372 13.058C22.9338 12.9534 23.2172 12.9665 23.4876 13.0973C23.758 13.2281 23.9542 13.4418 24.0763 13.7383C24.3729 14.4186 24.5865 15.1207 24.7174 15.8446C24.8482 16.5685 24.9136 17.2968 24.9136 18.0294C24.9136 18.7795 24.8438 19.5165 24.7043 20.2404C24.5647 20.9643 24.3467 21.6751 24.0502 22.3728C23.9281 22.6694 23.7318 22.8874 23.4614 23.027C23.1911 23.1665 22.9076 23.1839 22.6111 23.0793ZM25.6462 26.1144C25.402 25.9923 25.2276 25.8048 25.1229 25.5519C25.0183 25.299 25.0357 25.0591 25.1753 24.8324C25.7858 23.8032 26.2437 22.7217 26.5489 21.5879C26.8542 20.454 27.0068 19.2853 27.0068 18.0817C27.0068 16.8781 26.8498 15.7051 26.5358 14.5625C26.2219 13.42 25.7596 12.3254 25.1491 11.2788C25.0095 11.052 24.9965 10.8122 25.1098 10.5593C25.2232 10.3063 25.402 10.1188 25.6462 9.99671C25.9428 9.85716 26.2437 9.8528 26.5489 9.98363C26.8542 10.1145 27.0853 10.3281 27.2423 10.6247C27.8528 11.7759 28.3151 12.9708 28.6291 14.2093C28.943 15.4478 29.1 16.7212 29.1 18.0294C29.1 19.3377 28.9387 20.6241 28.616 21.8888C28.2933 23.1534 27.8267 24.3614 27.2161 25.5126C27.0591 25.8092 26.8324 26.0185 26.5358 26.1406C26.2393 26.2627 25.9428 26.254 25.6462 26.1144Z" fill="white"/>
</svg>
