<svg width="34" height="34" viewBox="0 0 34 34" fill="none" xmlns="http://www.w3.org/2000/svg">
<path d="M22.6641 33.4141C21.8831 34.195 20.617 34.195 19.8359 33.4141L4.83594 18.4141C4.78716 18.3653 4.74093 18.315 4.69824 18.2627C4.65547 18.2103 4.61576 18.1561 4.5791 18.1006C4.54243 18.045 4.50906 17.9879 4.47852 17.9297C4.38705 17.7556 4.32272 17.5709 4.28613 17.3818C4.27393 17.3188 4.26488 17.2552 4.25879 17.1914C4.24662 17.0641 4.24664 16.9359 4.25879 16.8086C4.27098 16.6811 4.29542 16.5544 4.33203 16.4307C4.40525 16.1831 4.5273 15.9469 4.69824 15.7373C4.74093 15.685 4.78716 15.6347 4.83594 15.5859L19.8359 0.585938C20.617 -0.19492 21.8831 -0.195045 22.6641 0.585938C23.4449 1.36693 23.4449 2.63304 22.6641 3.41406L9.07812 17L22.6641 30.5859C23.445 31.367 23.4451 32.6331 22.6641 33.4141Z" fill="#4F4F4F"/>
</svg>
