<svg width="60" height="60" viewBox="0 0 60 60" fill="none" xmlns="http://www.w3.org/2000/svg">
<circle cx="36.3203" cy="13.5195" r="5" fill="#D1D1D1"/>
<path d="M32.8232 20.0752C33.3302 19.9289 33.8819 19.9121 34.4287 20.0586C36.0289 20.4875 36.9786 22.1331 36.5498 23.7334L33.4434 35.3242C33.3543 35.6566 33.21 35.9588 33.0273 36.2285C32.496 37.0701 31.5601 37.6309 30.4912 37.6309H20.2275L17.2061 42.8652C16.3776 44.3001 14.5423 44.7923 13.1074 43.9639C11.6727 43.1354 11.1814 41.3001 12.0098 39.8652L15.8369 33.2344C15.901 33.1127 15.9741 32.9968 16.0537 32.8857C16.0898 32.8345 16.1272 32.7847 16.166 32.7363C16.176 32.7241 16.1862 32.7122 16.1963 32.7002C16.238 32.6499 16.2827 32.6027 16.3271 32.5557C16.3506 32.5312 16.3742 32.507 16.3984 32.4834C17.0257 31.8639 17.891 31.5588 18.7549 31.6309H28.2217L29.6729 26.2129L21.6719 28.3574C20.3078 28.7227 18.9057 27.9138 18.54 26.5498C18.1745 25.1855 18.9844 23.7825 20.3486 23.417L32.7949 20.082C32.8043 20.0795 32.8138 20.0776 32.8232 20.0752Z" fill="#D1D1D1"/>
<path d="M39.2067 23.8359C39.4607 22.9057 40.5033 22.4345 41.312 22.9598C45.5679 25.7247 48.3828 30.5204 48.3828 35.9736C48.3825 44.5381 41.4396 51.4814 32.875 51.4814C27.5621 51.4814 22.8733 48.8092 20.0786 44.7359C19.7927 44.3192 19.7901 43.7755 20.0428 43.3379C20.6089 42.3576 22.0997 42.4223 22.7667 43.3369C25.0407 46.4548 28.7204 48.4814 32.875 48.4814C39.7827 48.4814 45.3825 42.8813 45.3828 35.9736C45.3828 31.6785 43.2174 27.8893 39.9191 25.6373C39.3326 25.2369 39.0196 24.521 39.2067 23.8359Z" fill="#D1D1D1"/>
</svg>
