<svg width="70" height="70" viewBox="0 0 70 70" fill="none" xmlns="http://www.w3.org/2000/svg">
<g clip-path="url(#clip0_59_35974)">
<mask id="mask0_59_35974" style="mask-type:alpha" maskUnits="userSpaceOnUse" x="0" y="0" width="70" height="70">
<rect width="70" height="70" fill="#D9D9D9"/>
</mask>
<g mask="url(#mask0_59_35974)">
<path d="M35.0003 46.666C38.6462 46.666 41.7451 45.39 44.2972 42.8379C46.8493 40.2858 48.1253 37.1868 48.1253 33.541C48.1253 29.8952 46.8493 26.7962 44.2972 24.2441C41.7451 21.6921 38.6462 20.416 35.0003 20.416C31.3545 20.416 28.2555 21.6921 25.7034 24.2441C23.1514 26.7962 21.8753 29.8952 21.8753 33.541C21.8753 37.1868 23.1514 40.2858 25.7034 42.8379C28.2555 45.39 31.3545 46.666 35.0003 46.666ZM35.0003 41.416C32.8128 41.416 30.9535 40.6504 29.4222 39.1191C27.891 37.5879 27.1253 35.7285 27.1253 33.541C27.1253 31.3535 27.891 29.4941 29.4222 27.9629C30.9535 26.4316 32.8128 25.666 35.0003 25.666C37.1878 25.666 39.0472 26.4316 40.5784 27.9629C42.1097 29.4941 42.8753 31.3535 42.8753 33.541C42.8753 35.7285 42.1097 37.5879 40.5784 39.1191C39.0472 40.6504 37.1878 41.416 35.0003 41.416ZM35.0003 55.416C27.9031 55.416 21.4378 53.4351 15.6045 49.4733C9.77116 45.5115 5.54199 40.2007 2.91699 33.541C5.54199 26.8813 9.77116 21.5705 15.6045 17.6087C21.4378 13.6469 27.9031 11.666 35.0003 11.666C42.0975 11.666 48.5628 13.6469 54.3962 17.6087C60.2295 21.5705 64.4587 26.8813 67.0837 33.541C64.4587 40.2007 60.2295 45.5115 54.3962 49.4733C48.5628 53.4351 42.0975 55.416 35.0003 55.416Z" fill="#5D5D5D"/>
</g>
</g>
<defs>
<clipPath id="clip0_59_35974">
<rect width="70" height="70" fill="white"/>
</clipPath>
</defs>
</svg>
