<svg width="60" height="60" viewBox="0 0 60 60" fill="none" xmlns="http://www.w3.org/2000/svg">
<path d="M46.7975 15C47.9021 15 48.7975 15.8954 48.7975 17V43C48.7975 44.1046 47.9021 45 46.7975 45H22.7594C22.1518 45 21.5774 44.7234 21.1979 44.249L10.7975 31.249C10.2133 30.5187 10.2133 29.4813 10.7975 28.751L21.1979 15.751C21.5774 15.2766 22.1518 15 22.7594 15H46.7975ZM39.2526 24.5449C38.7254 24.0178 37.8696 24.0177 37.3424 24.5449L33.7975 28.0898L30.2526 24.5449C29.7254 24.0178 28.8696 24.0177 28.3424 24.5449C27.8154 25.0721 27.8154 25.9279 28.3424 26.4551L31.8873 30L28.3424 33.5449C27.8154 34.0721 27.8154 34.9279 28.3424 35.4551C28.8696 35.9822 29.7253 35.9821 30.2526 35.4551L33.7975 31.9102L37.3424 35.4551C37.8696 35.9822 38.7253 35.9821 39.2526 35.4551C39.7798 34.9279 39.7798 34.0721 39.2526 33.5449L35.7077 30L39.2526 26.4551C39.7798 25.9279 39.7798 25.0721 39.2526 24.5449Z" fill="#3D3D3D"/>
</svg>
