<svg width="50" height="50" viewBox="0 0 50 50" fill="none" xmlns="http://www.w3.org/2000/svg">
<path d="M14.9536 11.5125L16.6076 10.5831C18.1516 9.71137 20.1 10.2024 21.1547 11.73L23.2546 14.7669C24.1703 16.0916 24.0428 17.7536 23.0979 19.2096C21.8142 21.1866 20.8201 22.6018 20.8201 22.6018C21.384 24.446 22.3249 26.153 23.5833 27.6144C25.0519 29.3537 26.4693 30.2843 28.0618 31.1786C28.0618 31.1786 29.6369 30.4481 31.7878 29.5017C33.2238 28.871 34.6739 28.5457 35.8064 29.6433L38.4456 32.1984C39.0851 32.8233 39.4901 33.6492 39.5926 34.5374C39.6952 35.4256 39.4891 36.3221 39.0089 37.0763L37.9477 38.7009C37.445 39.4848 36.7361 40.1153 35.8989 40.5232C35.0616 40.9311 34.1283 41.1006 33.201 41.0133C28.7614 40.5748 23.7085 37.3047 18.8828 31.6066C14.0518 25.8954 12.1068 20.8914 12.2099 16.1972C12.2524 14.2222 13.3162 12.4337 14.9536 11.5125Z" fill="white"/>
</svg>
