<svg width="34" height="34" viewBox="0 0 34 34" fill="none" xmlns="http://www.w3.org/2000/svg">
<path d="M33.4141 22.6641C34.195 21.8831 34.195 20.617 33.4141 19.8359L18.4141 4.83594C18.2675 4.68938 18.104 4.57006 17.9297 4.47852C17.7556 4.38706 17.5709 4.32272 17.3818 4.28613C17.3188 4.27393 17.2552 4.26488 17.1914 4.25879C17.0641 4.24662 16.9359 4.24664 16.8086 4.25879C16.6811 4.27098 16.5544 4.29542 16.4307 4.33203C16.1831 4.40525 15.9469 4.5273 15.7373 4.69824C15.685 4.74093 15.6347 4.78716 15.5859 4.83594L0.585939 19.8359C-0.194918 20.617 -0.195044 21.8831 0.585939 22.6641C1.36693 23.4449 2.63304 23.4449 3.41406 22.6641L17 9.07813L30.5859 22.6641C31.367 23.445 32.6331 23.4451 33.4141 22.6641Z" fill="black"/>
</svg>
