<svg width="240" height="80" viewBox="0 0 240 80" fill="none" xmlns="http://www.w3.org/2000/svg">
<rect x="1" y="1" width="238" height="78" rx="9" fill="white"/>
<rect x="1" y="1" width="238" height="78" rx="9" stroke="black" stroke-width="2"/>
<path d="M41 20C50.3888 20 58 27.6112 58 37C58 41.5312 56.2258 45.647 53.3359 48.6943L61.7373 57.0957C62.4207 57.7791 62.4206 58.8869 61.7373 59.5703C61.0539 60.2537 59.9461 60.2537 59.2627 59.5703L50.6719 50.9805C47.9262 52.8836 44.5938 54 41 54C31.6112 54 24 46.3888 24 37C24 27.6112 31.6112 20 41 20ZM41 23.5C33.5442 23.5 27.5 29.5442 27.5 37C27.5 44.4558 33.5442 50.5 41 50.5C48.4558 50.5 54.5 44.4558 54.5 37C54.5 29.5442 48.4558 23.5 41 23.5ZM41 28.25C41.9665 28.25 42.75 29.0335 42.75 30V35.25H48C48.9665 35.25 49.75 36.0335 49.75 37C49.75 37.9665 48.9665 38.75 48 38.75H42.75V44C42.75 44.9665 41.9665 45.75 41 45.75C40.0335 45.75 39.25 44.9665 39.25 44V38.75H34C33.0335 38.75 32.25 37.9665 32.25 37C32.25 36.0335 33.0335 35.25 34 35.25H39.25V30C39.25 29.0335 40.0335 28.25 41 28.25Z" fill="black"/>
<!-- <path d="M133.389 38.7891V41.9531H104.385V38.7891H116.9V35.8359H108.041V25.1133H129.768V28.2422H111.908V32.6719H130.119V35.8359H120.803V38.7891H133.389ZM130.189 52.1133V55.2422H107.936V44.4492H129.943V47.5781H111.803V52.1133H130.189ZM164.537 48.5977V51.7969H135.498V48.5977H148.014V42.4102H138.697V25.957H142.6V31.1602H157.33V25.957H161.232V42.4102H151.881V48.5977H164.537ZM142.6 39.2461H157.33V34.2891H142.6V39.2461ZM193.154 23.8477V55.6289H189.217V23.8477H193.154ZM183.662 27.2227C183.662 36.6797 180.006 44.7305 168.861 50.0039L166.822 46.875C175.137 42.9199 179.004 37.541 179.689 30.3164H168.439V27.2227H183.662Z" fill="black"/> -->
<path d="M208 8H226C229.314 8 232 10.6863 232 14V32L220 20L208 8Z" fill="black"/>
</svg>
