<svg width="244" height="84" viewBox="0 0 244 84" fill="none" xmlns="http://www.w3.org/2000/svg">
<g filter="url(#filter0_di_547_13565)">
<rect x="2" y="1" width="240" height="80" rx="10" fill="white" shape-rendering="crispEdges"/>
<rect x="3" y="2" width="238" height="78" rx="9" stroke="#3D3D3D" stroke-width="2" shape-rendering="crispEdges"/>
<path d="M67 20C68.1046 20 69 20.8954 69 22V60C69 61.0357 68.2128 61.887 67.2041 61.9893L67 62H25L24.7959 61.9893C23.8543 61.8938 23.1062 61.1457 23.0107 60.2041L23 60V22C23 20.8954 23.8954 20 25 20H67ZM26 59H66V23H26V59ZM62 42C63.1046 42 64 42.8954 64 44V55C64 56.1046 63.1046 57 62 57H30C28.8954 57 28 56.1046 28 55V44C28 42.8954 28.8954 42 30 42H62ZM46 25.5C46.8284 25.5 47.5 26.1716 47.5 27V36L51.0996 33.2998C51.7623 32.8028 52.7031 32.937 53.2002 33.5996C53.6971 34.2623 53.5629 35.2031 52.9004 35.7002L46.9004 40.2002L46.7979 40.2705C46.2759 40.5986 45.5996 40.5751 45.0996 40.2002L39.0996 35.7002C38.437 35.2031 38.3029 34.2623 38.7998 33.5996C39.2969 32.937 40.2377 32.8028 40.9004 33.2998L44.5 36V27C44.5 26.1716 45.1716 25.5 46 25.5Z" fill="#3D3D3D"/>
<!-- <path d="M115.684 24.9531V32.4062H120.254V35.2188H115.684V42.6367H112.344V24.9531H115.684ZM95.7148 26.6406V37.6797C99.9863 37.6445 104.451 37.3105 109.285 36.3086L109.707 39.0508C104.398 40.1406 99.582 40.4922 94.9414 40.4922H92.375V26.6406H95.7148ZM116.176 44.1484V46.8555H107.527C107.809 49.9668 111.957 52.9375 117.477 53.7812L116.141 56.3477C111.412 55.5918 107.527 53.3066 105.734 50.2656C103.959 53.3242 100.057 55.5039 95.3281 56.2773L93.9922 53.7461C99.5469 52.9375 103.643 50.0195 103.977 46.8555H95.2578V44.1484H116.176ZM150.77 41.4414V44.1133H122.047V41.4414H150.77ZM147.535 53.1133V55.8203H125.668V46.6797H129.043V53.1133H147.535ZM136.391 26.043C143.211 26.0078 147.641 28.3984 147.641 32.3359C147.641 36.3086 143.211 38.6992 136.391 38.7344C129.535 38.6992 125.141 36.3086 125.141 32.3359C125.141 28.3984 129.535 26.0078 136.391 26.043ZM136.391 28.7148C131.574 28.7148 128.551 30.0859 128.586 32.3359C128.551 34.6562 131.574 35.9922 136.391 35.9922C141.207 35.9922 144.195 34.6562 144.195 32.3359C144.195 30.0859 141.207 28.7148 136.391 28.7148ZM177.84 24.9883V38.1719H182.586V40.9844H177.84V56.4883H174.5V24.9883H177.84ZM152.773 47.9102C155.252 47.9102 158.135 47.9102 161.141 47.8047V44.6055C157.59 44.1133 155.27 41.9688 155.305 38.9102C155.27 35.3594 158.328 33.0039 162.828 33.0039C167.293 33.0039 170.387 35.3594 170.422 38.9102C170.387 41.9688 168.031 44.1309 164.48 44.6406V47.6641C167.275 47.5586 170.088 47.3301 172.707 46.9609L172.918 49.4219C166.098 50.6523 158.715 50.6875 153.301 50.6875L152.773 47.9102ZM172.25 28.7148V31.3867H153.371V28.7148H161.141V25.0586H164.48V28.7148H172.25ZM162.828 35.6055C160.191 35.6055 158.434 36.9062 158.434 38.9102C158.434 40.9141 160.191 42.1445 162.828 42.1445C165.465 42.1445 167.223 40.9141 167.223 38.9102C167.223 36.9062 165.465 35.6055 162.828 35.6055ZM200.34 27.6602V30.332H207.195V25.0234H210.535V47.9805H207.195V39.8242H200.34V42.5664H185.715V27.6602H200.34ZM189.02 30.3672V39.9297H197.07V30.3672H189.02ZM211.238 53.1133V55.8203H189.969V45.8711H193.344V53.1133H211.238ZM200.34 37.082H207.195V33.0742H200.34V37.082Z" fill="#3D3D3D"/> -->
</g>
<defs>
<filter id="filter0_di_547_13565" x="0" y="0" width="244" height="84" filterUnits="userSpaceOnUse" color-interpolation-filters="sRGB">
<feFlood flood-opacity="0" result="BackgroundImageFix"/>
<feColorMatrix in="SourceAlpha" type="matrix" values="0 0 0 0 0 0 0 0 0 0 0 0 0 0 0 0 0 0 127 0" result="hardAlpha"/>
<feOffset dy="1"/>
<feGaussianBlur stdDeviation="1"/>
<feComposite in2="hardAlpha" operator="out"/>
<feColorMatrix type="matrix" values="0 0 0 0 0 0 0 0 0 0 0 0 0 0 0 0 0 0 0.2 0"/>
<feBlend mode="normal" in2="BackgroundImageFix" result="effect1_dropShadow_547_13565"/>
<feBlend mode="normal" in="SourceGraphic" in2="effect1_dropShadow_547_13565" result="shape"/>
<feColorMatrix in="SourceAlpha" type="matrix" values="0 0 0 0 0 0 0 0 0 0 0 0 0 0 0 0 0 0 127 0" result="hardAlpha"/>
<feOffset dy="-5"/>
<feComposite in2="hardAlpha" operator="arithmetic" k2="-1" k3="1"/>
<feColorMatrix type="matrix" values="0 0 0 0 0 0 0 0 0 0 0 0 0 0 0 0 0 0 0.25 0"/>
<feBlend mode="normal" in2="shape" result="effect2_innerShadow_547_13565"/>
</filter>
</defs>
</svg>
