<svg width="240" height="80" viewBox="0 0 240 80" fill="none" xmlns="http://www.w3.org/2000/svg">
<rect x="1" y="1" width="238" height="78" rx="9" fill="white"/>
<rect x="1" y="1" width="238" height="78" rx="9" stroke="black" stroke-width="2"/>
<path d="M66 23C67.1046 23 68 23.8954 68 25V55C68 56.1046 67.1046 57 66 57H23C21.8954 57 21 56.1046 21 55V25C21 23.8954 21.8954 23 23 23H66ZM24 26V54H44V39.0039C42.4235 42.1153 39.7519 44.7937 35.5938 46.832L33.7998 44.3916C39.1661 41.7022 42.0428 38.091 42.6406 33.0361H35.0957V30.4463H44V26H24ZM48.8662 50.7412H52.1396V39.4355H55.4375V36.8213H52.1396V28.1299H48.8662V50.7412ZM44.002 38.9961C45.3466 36.4078 45.9141 33.5203 45.9258 30.4463H44.002V38.9961Z" fill="black"/>
<!-- <path d="M130.33 26.7656V29.8242C130.295 33.7617 130.295 38.1914 129.064 44.8359L125.127 44.4141C126.357 38.2266 126.357 33.709 126.393 29.8945H107.408V26.7656H130.33ZM133.354 48.3164V51.5156H104.385V48.3164H115.072V37.2773H118.939V48.3164H133.354ZM162.85 23.8477V55.6289H159.123V39.4219H155.537V54.0117H151.951V24.4453H155.537V36.293H159.123V23.8477H162.85ZM148.365 27.6094V30.7734H140.42V44.9062C143.883 44.8711 146.73 44.6953 149.947 44.0977L150.229 47.2969C146.396 48.0703 143.057 48.1758 138.627 48.2109H136.482V27.6094H148.365ZM193.049 23.8477V55.6641H189.111V23.8477H193.049ZM172.201 26.4492V34.3945H179.9V26.4492H183.768V48.1758H168.299V26.4492H172.201ZM172.201 44.9766H179.9V37.4531H172.201V44.9766Z" fill="black"/> -->
<path d="M208 8H226C229.314 8 232 10.6863 232 14V32L220 20L208 8Z" fill="black"/>
</svg>
