<svg width="244" height="84" viewBox="0 0 244 84" fill="none" xmlns="http://www.w3.org/2000/svg">
<g filter="url(#filter0_d_547_13575)">
<rect x="2" y="1" width="240" height="80" rx="10" fill="#3D3D3D" shape-rendering="crispEdges"/>
<path d="M67 20C68.1046 20 69 20.8954 69 22V60C69 61.0357 68.2128 61.887 67.2041 61.9893L67 62H25L24.7959 61.9893C23.8543 61.8938 23.1062 61.1457 23.0107 60.2041L23 60V22C23 20.8954 23.8954 20 25 20H67ZM26 59H66V23H26V59ZM62 42C63.1046 42 64 42.8954 64 44V55C64 56.1046 63.1046 57 62 57H30C28.8954 57 28 56.1046 28 55V44C28 42.8954 28.8954 42 30 42H62ZM46 25.5C46.8284 25.5 47.5 26.1716 47.5 27V36L51.0996 33.2998C51.7623 32.8028 52.7031 32.937 53.2002 33.5996C53.6971 34.2623 53.5629 35.2031 52.9004 35.7002L46.9004 40.2002L46.7979 40.2705C46.2759 40.5986 45.5996 40.5751 45.0996 40.2002L39.0996 35.7002C38.437 35.2031 38.3029 34.2623 38.7998 33.5996C39.2969 32.937 40.2377 32.8028 40.9004 33.2998L44.5 36V27C44.5 26.1716 45.1716 25.5 46 25.5Z" fill="white"/>
<!-- <path d="M115.895 24.8477V32.0898H120.324V35.3242H115.895V42.4609H111.992V24.8477H115.895ZM96.1367 26.4648V37.3281C100.215 37.293 104.504 36.9414 109.145 35.9922L109.602 39.1914C104.328 40.2812 99.4414 40.5977 94.8359 40.5977H92.1992V26.4648H96.1367ZM116.352 43.8672V46.9961H107.844C108.23 49.7734 111.887 52.6738 117.688 53.4648L116.176 56.418C111.271 55.7148 107.545 53.5352 105.77 50.6523C103.941 53.5352 100.232 55.6445 95.3281 56.3477L93.7812 53.3945C99.6348 52.6562 103.221 49.8613 103.625 46.9961H95.082V43.8672H116.352ZM150.91 41.2656V44.3945H121.941V41.2656H150.91ZM147.641 52.832V55.9961H125.527V46.75H129.43V52.832H147.641ZM136.391 25.8672C143.316 25.8672 147.816 28.293 147.852 32.3008C147.816 36.3438 143.316 38.8047 136.391 38.8047C129.465 38.8047 124.93 36.3438 124.93 32.3008C124.93 28.293 129.465 25.8672 136.391 25.8672ZM136.391 28.9961C131.785 28.9961 128.973 30.1914 129.008 32.3008C128.973 34.4453 131.785 35.6406 136.391 35.6055C141.031 35.6406 143.809 34.4453 143.809 32.3008C143.809 30.1914 141.031 28.9961 136.391 28.9961ZM178.191 24.8477V37.9609H182.656V41.2305H178.191V56.6289H174.254V24.8477H178.191ZM152.668 47.8047C155.076 47.8047 157.871 47.8047 160.789 47.7344V44.7461C157.326 44.166 155.059 41.9863 155.094 39.0156C155.059 35.4297 158.223 33.0391 162.793 33.0391C167.293 33.0391 170.492 35.4297 170.527 39.0156C170.492 42.0039 168.189 44.1836 164.727 44.7461V47.5938C167.398 47.4531 170.07 47.2422 172.566 46.8906L172.812 49.7383C165.992 50.9688 158.645 51.0391 153.23 51.0391L152.668 47.8047ZM172.215 28.5039V31.5977H153.266V28.5039H160.789V24.9883H164.727V28.5039H172.215ZM162.793 36.0273C160.367 36.0625 158.785 37.1523 158.785 39.0156C158.785 40.8438 160.367 41.9336 162.793 41.8984C165.184 41.9336 166.766 40.8438 166.766 39.0156C166.766 37.1523 165.184 36.0625 162.793 36.0273ZM200.48 27.5195V30.0508H206.879V24.8828H210.781V48.0156H206.879V40H200.48V42.7422H185.539V27.5195H200.48ZM189.441 30.6133V39.6836H196.613V30.6133H189.441ZM211.484 52.832V55.9961H189.828V45.8711H193.801V52.832H211.484ZM200.48 36.8711H206.879V33.25H200.48V36.8711Z" fill="white"/> -->
</g>
<path d="M210 9H228C231.314 9 234 11.6863 234 15V33L222 21L210 9Z" fill="white"/>
<defs>
<filter id="filter0_d_547_13575" x="0" y="0" width="244" height="84" filterUnits="userSpaceOnUse" color-interpolation-filters="sRGB">
<feFlood flood-opacity="0" result="BackgroundImageFix"/>
<feColorMatrix in="SourceAlpha" type="matrix" values="0 0 0 0 0 0 0 0 0 0 0 0 0 0 0 0 0 0 127 0" result="hardAlpha"/>
<feOffset dy="1"/>
<feGaussianBlur stdDeviation="1"/>
<feComposite in2="hardAlpha" operator="out"/>
<feColorMatrix type="matrix" values="0 0 0 0 0 0 0 0 0 0 0 0 0 0 0 0 0 0 0.2 0"/>
<feBlend mode="normal" in2="BackgroundImageFix" result="effect1_dropShadow_547_13575"/>
<feBlend mode="normal" in="SourceGraphic" in2="effect1_dropShadow_547_13575" result="shape"/>
</filter>
</defs>
</svg>
