<svg width="183" height="55" viewBox="0 0 183 55" fill="none" xmlns="http://www.w3.org/2000/svg">
<g clip-path="url(#clip0_421_1290)">
<path d="M176.487 55H6.48614C2.90942 55 0 52.0497 0 48.4227V6.57726C0 2.9503 2.90942 0 6.48614 0H176.487C180.064 0 182.973 2.9503 182.973 6.57726V48.3957C182.973 52.0226 180.064 54.9729 176.487 54.9729V55Z" fill="#A6A6A6"/>
<path d="M181.746 48.504C181.746 51.4272 179.423 53.782 176.541 53.782H6.45957C3.57684 53.782 1.25464 51.4272 1.25464 48.504V6.4961C1.25464 3.59994 3.60353 1.24512 6.45957 1.24512H176.541C179.423 1.24512 181.746 3.59994 181.746 6.52317V48.504Z" fill="black"/>
<path d="M40.8921 27.2024C40.8654 22.7635 44.4688 20.6252 44.6289 20.5169C42.5737 17.4854 39.3973 17.0794 38.2763 17.0523C35.6071 16.7817 33.0179 18.6764 31.6567 18.6764C30.2954 18.6764 28.1867 17.0794 25.9179 17.1335C23.0085 17.1877 20.3126 18.8929 18.8178 21.5184C15.7483 26.9047 18.0438 34.8353 20.9799 39.1931C22.4479 41.3314 24.1829 43.7133 26.425 43.6321C28.6405 43.5509 29.4412 42.1975 32.1104 42.1975C34.7796 42.1975 35.527 43.6321 37.8225 43.5779C40.1981 43.5509 41.6661 41.4396 43.1075 39.2743C44.8158 36.8383 45.4831 34.4293 45.5098 34.294C45.4564 34.294 40.9188 32.5076 40.8654 27.2024H40.8921Z" fill="white"/>
<path d="M36.5679 14.1831C37.7424 12.6945 38.5698 10.6374 38.3296 8.55322C36.6213 8.63442 34.4593 9.74417 33.2315 11.2328C32.1371 12.5321 31.1495 14.6433 31.4164 16.6462C33.3382 16.7816 35.3134 15.6718 36.5679 14.1831Z" fill="white"/>
<path d="M72.7623 43.3073H69.6927L68.0111 37.9209H62.1389L60.5374 43.3073H57.5479L63.3667 25.01H66.9434L72.789 43.3073H72.7623ZM67.504 35.7014L65.9825 30.9377C65.8224 30.4505 65.5287 29.2866 65.075 27.5002H65.0216C64.8348 28.2851 64.5678 29.4219 64.1675 30.9377L62.6727 35.7014H67.5306H67.504Z" fill="white"/>
<path d="M87.7099 36.5674C87.7099 38.814 87.1226 40.5733 85.9215 41.8996C84.8538 43.0635 83.5192 43.6319 81.9444 43.6319C80.2361 43.6319 79.0083 43.0093 78.2609 41.7643H78.2075V48.7205H75.3248V34.5103C75.3248 33.1028 75.2981 31.6412 75.218 30.1796H77.7537L77.9139 32.2638H77.9673C78.9282 30.6939 80.3963 29.9089 82.3448 29.9089C83.8929 29.9089 85.1474 30.5315 86.1884 31.7495C87.2027 32.9946 87.7365 34.5915 87.7365 36.6215L87.7099 36.5674ZM84.747 36.6757C84.747 35.4035 84.4534 34.3208 83.8929 33.5088C83.279 32.6427 82.4248 32.2096 81.3839 32.2096C80.6632 32.2096 80.0226 32.4532 79.4353 32.9404C78.8481 33.4276 78.4744 34.0502 78.2876 34.8351C78.2075 35.187 78.1541 35.4847 78.1541 35.7283V37.9207C78.1541 38.8681 78.4477 39.6801 79.035 40.3568C79.6222 41.0064 80.3696 41.3582 81.3038 41.3582C82.3981 41.3582 83.2523 40.9252 83.8395 40.0861C84.4534 39.247 84.747 38.1102 84.747 36.7298V36.6757Z" fill="white"/>
<path d="M102.657 36.5674C102.657 38.814 102.07 40.5733 100.869 41.8996C99.8013 43.0635 98.4667 43.6319 96.8919 43.6319C95.1836 43.6319 93.9558 43.0093 93.2084 41.7643H93.155V48.7205H90.2723V34.5103C90.2723 33.1028 90.2456 31.6412 90.1655 30.1796H92.7013L92.8614 32.2638H92.9148C93.8757 30.6939 95.3438 29.9089 97.2923 29.9089C98.8137 29.9089 100.095 30.5315 101.136 31.7495C102.15 32.9946 102.684 34.5915 102.684 36.6215L102.657 36.5674ZM99.7213 36.6757C99.7213 35.4035 99.4276 34.3208 98.8671 33.5088C98.2532 32.6427 97.399 32.2096 96.3581 32.2096C95.6374 32.2096 94.9968 32.4532 94.4095 32.9404C93.8223 33.4276 93.4486 34.0502 93.2618 34.8351C93.1817 35.187 93.1283 35.4847 93.1283 35.7283V37.9207C93.1283 38.8681 93.422 39.6801 94.0092 40.3568C94.5964 41.0064 95.3438 41.3582 96.278 41.3582C97.3724 41.3582 98.2265 40.9252 98.8137 40.0861C99.4276 39.247 99.7213 38.1102 99.7213 36.7298V36.6757Z" fill="white"/>
<path d="M119.393 38.1915C119.393 39.7343 118.859 41.0065 117.792 41.9809C116.617 43.0365 114.989 43.5778 112.88 43.5778C110.932 43.5778 109.384 43.1989 108.209 42.441L108.877 40.005C110.158 40.7899 111.546 41.1689 113.067 41.1689C114.162 41.1689 114.989 40.9253 115.603 40.411C116.217 39.9238 116.51 39.2471 116.51 38.4081C116.51 37.6772 116.27 37.0276 115.763 36.5404C115.256 36.0262 114.428 35.566 113.281 35.133C110.131 33.942 108.556 32.1827 108.556 29.882C108.556 28.3662 109.117 27.1482 110.211 26.1738C111.305 25.2265 112.774 24.7393 114.615 24.7393C116.27 24.7393 117.631 25.037 118.699 25.6054L117.978 27.9873C116.964 27.4189 115.816 27.1482 114.535 27.1482C113.521 27.1482 112.72 27.3918 112.16 27.9061C111.679 28.3662 111.439 28.9076 111.439 29.5572C111.439 30.288 111.706 30.8834 112.266 31.3436C112.747 31.7767 113.628 32.2368 114.882 32.7511C116.43 33.3736 117.578 34.1315 118.299 34.9706C119.019 35.8096 119.393 36.8923 119.393 38.1374V38.1915Z" fill="white"/>
<path d="M128.949 32.3181H125.773V38.733C125.773 40.357 126.333 41.169 127.454 41.169C127.961 41.169 128.388 41.1149 128.735 41.0337L128.815 43.2531C128.255 43.4697 127.508 43.5779 126.573 43.5779C125.426 43.5779 124.545 43.2261 123.904 42.5223C123.264 41.8186 122.943 40.6277 122.943 38.9766V32.3181H121.048V30.1257H122.943V27.7167L125.773 26.8506V30.1257H128.949V32.3181Z" fill="white"/>
<path d="M143.309 36.6217C143.309 38.6517 142.749 40.3028 141.601 41.602C140.4 42.9554 138.825 43.605 136.823 43.605C134.821 43.605 133.38 42.9554 132.259 41.6832C131.138 40.4111 130.55 38.7871 130.55 36.8112C130.55 34.8353 131.138 33.103 132.312 31.8038C133.486 30.5046 135.061 29.855 137.036 29.855C139.012 29.855 140.48 30.5046 141.627 31.7767C142.722 33.0218 143.282 34.6458 143.282 36.5946L143.309 36.6217ZM140.32 36.7029C140.32 35.4849 140.053 34.4564 139.545 33.5631C138.932 32.5075 138.077 31.9933 136.956 31.9933C135.835 31.9933 134.901 32.5075 134.314 33.5631C133.807 34.4293 133.54 35.4849 133.54 36.757C133.54 38.0292 133.807 39.0036 134.314 39.8968C134.928 40.9524 135.809 41.4667 136.93 41.4667C138.051 41.4667 138.905 40.9254 139.519 39.8697C140.053 38.9765 140.32 37.9209 140.32 36.7029Z" fill="white"/>
<path d="M152.705 32.697C152.411 32.6429 152.117 32.6158 151.797 32.6158C150.783 32.6158 150.009 32.9947 149.448 33.7797C148.968 34.4564 148.727 35.3496 148.727 36.3781V43.3072H145.845V34.2669C145.845 32.7511 145.845 31.3707 145.765 30.1257H148.274L148.38 32.6429H148.461C148.754 31.7767 149.235 31.073 149.902 30.5587C150.543 30.0986 151.236 29.855 151.984 29.855C152.251 29.855 152.491 29.855 152.705 29.9091V32.697Z" fill="white"/>
<path d="M165.65 36.1074C165.65 36.6217 165.624 37.0818 165.543 37.4337H156.869C156.895 38.7329 157.322 39.7344 158.123 40.411C158.844 41.0336 159.805 41.3313 160.952 41.3313C162.234 41.3313 163.408 41.1148 164.449 40.7088L164.903 42.7388C163.675 43.2801 162.207 43.5508 160.552 43.5508C158.523 43.5508 156.949 42.9553 155.801 41.7373C154.653 40.5464 154.066 38.9224 154.066 36.8923C154.066 34.8623 154.6 33.2383 155.667 31.9391C156.788 30.5316 158.31 29.8279 160.205 29.8279C162.1 29.8279 163.488 30.5316 164.449 31.9391C165.223 33.0488 165.597 34.4563 165.597 36.0803L165.65 36.1074ZM162.874 35.3495C162.874 34.4834 162.714 33.7255 162.314 33.103C161.807 32.291 161.033 31.885 160.018 31.885C159.084 31.885 158.31 32.291 157.723 33.0759C157.242 33.6985 156.949 34.4563 156.869 35.3495H162.901H162.874Z" fill="white"/>
<path d="M66.5432 13.777C66.5432 15.401 66.0628 16.619 65.1019 17.431C64.221 18.1889 62.9665 18.5678 61.3383 18.5678C60.5376 18.5678 59.8436 18.5407 59.2563 18.4595V9.60866C60.0037 9.47332 60.8312 9.41919 61.712 9.41919C63.2601 9.41919 64.4346 9.77106 65.2353 10.4477C66.1162 11.2327 66.5699 12.3154 66.5699 13.777H66.5432ZM65.0485 13.804C65.0485 12.7484 64.7816 11.9635 64.221 11.3951C63.6605 10.8267 62.8865 10.556 61.8188 10.556C61.365 10.556 60.9913 10.5831 60.671 10.6643V17.3769C60.8579 17.3769 61.1782 17.4039 61.6319 17.4039C62.7263 17.4039 63.5538 17.1062 64.141 16.4837C64.7282 15.8611 65.0218 14.9679 65.0218 13.804H65.0485Z" fill="white"/>
<path d="M74.4975 15.1845C74.4975 16.186 74.2039 16.998 73.6433 17.6476C73.0561 18.2972 72.282 18.622 71.2944 18.622C70.3068 18.622 69.6128 18.2972 69.0523 17.6746C68.4918 17.0521 68.2249 16.2401 68.2249 15.2928C68.2249 14.3454 68.5185 13.4793 69.079 12.8297C69.6395 12.1801 70.4136 11.8823 71.4012 11.8823C72.3888 11.8823 73.0828 12.2071 73.67 12.8297C74.2039 13.4522 74.4975 14.2371 74.4975 15.2116V15.1845ZM73.0027 15.2386C73.0027 14.6432 72.8693 14.1289 72.629 13.6958C72.3354 13.1815 71.9083 12.9109 71.3478 12.9109C70.7873 12.9109 70.3335 13.1815 70.0399 13.6958C69.7997 14.1289 69.6662 14.6432 69.6662 15.2657C69.6662 15.8882 69.7997 16.3754 70.0399 16.8085C70.3602 17.3228 70.7873 17.5934 71.3211 17.5934C71.855 17.5934 72.282 17.3228 72.6023 16.8085C72.8693 16.3754 73.0027 15.8612 73.0027 15.2657V15.2386Z" fill="white"/>
<path d="M85.1208 11.9905L83.1189 18.4595H81.811L80.9836 15.6445C80.77 14.9408 80.6099 14.237 80.4764 13.5604C80.343 14.2641 80.1828 14.9678 79.9693 15.6445L79.0884 18.4595H77.7805L75.9121 11.9905H77.3802L78.1008 15.0761C78.2877 15.8069 78.4212 16.5107 78.5279 17.1603C78.6347 16.6189 78.7948 15.9152 79.0618 15.1032L79.9693 12.0175H81.117L81.9979 15.049C82.2114 15.7798 82.3716 16.5107 82.505 17.1873H82.5317C82.6385 16.5107 82.7719 15.8069 82.9588 15.049L83.7329 12.0175H85.1208V11.9905Z" fill="white"/>
<path d="M92.4878 18.4867H91.0731V14.7785C91.0731 13.6417 90.646 13.0733 89.7919 13.0733C89.3648 13.0733 89.0178 13.2357 88.7776 13.5334C88.5374 13.8311 88.3772 14.2101 88.3772 14.6432V18.4867H86.9626V13.8582C86.9626 13.2898 86.9626 12.6673 86.9092 12.0177H88.1637L88.2171 13.0191H88.2438C88.4039 12.6943 88.6442 12.4507 88.9911 12.2342C89.3648 11.9906 89.7919 11.8823 90.2724 11.8823C90.8596 11.8823 91.3667 12.0718 91.7671 12.4778C92.2476 12.965 92.5145 13.6687 92.5145 14.6161V18.4867H92.4878Z" fill="white"/>
<path d="M96.4115 18.4866H94.9968V9.04028H96.4115V18.4866Z" fill="white"/>
<path d="M104.766 15.1845C104.766 16.186 104.472 16.998 103.912 17.6476C103.325 18.2972 102.551 18.622 101.563 18.622C100.575 18.622 99.8814 18.2972 99.3209 17.6746C98.7603 17.0521 98.4934 16.2401 98.4934 15.2928C98.4934 14.3454 98.787 13.4793 99.3475 12.8297C99.9081 12.1801 100.682 11.8823 101.67 11.8823C102.657 11.8823 103.351 12.2071 103.939 12.8297C104.472 13.4522 104.766 14.2371 104.766 15.2116V15.1845ZM103.298 15.2386C103.298 14.6432 103.164 14.1289 102.924 13.6958C102.631 13.1815 102.204 12.9109 101.643 12.9109C101.083 12.9109 100.629 13.1815 100.335 13.6958C100.068 14.1289 99.9615 14.6432 99.9615 15.2657C99.9615 15.8882 100.095 16.3754 100.335 16.8085C100.629 17.3228 101.083 17.5934 101.616 17.5934C102.15 17.5934 102.577 17.3228 102.898 16.8085C103.164 16.3754 103.298 15.8612 103.298 15.2657V15.2386Z" fill="white"/>
<path d="M111.653 18.4866H110.371L110.265 17.7287H110.238C109.811 18.3242 109.17 18.622 108.369 18.622C107.756 18.622 107.275 18.4325 106.901 18.0265C106.581 17.6746 106.394 17.2415 106.394 16.7002C106.394 15.9153 106.715 15.2927 107.382 14.8867C108.049 14.4807 108.957 14.2642 110.131 14.2642V14.1559C110.131 13.2898 109.677 12.8838 108.797 12.8838C108.156 12.8838 107.622 13.0462 107.142 13.371L106.848 12.4236C107.435 12.0447 108.183 11.8552 109.037 11.8552C110.718 11.8552 111.546 12.7484 111.546 14.5349V16.9167C111.546 17.5663 111.573 18.0806 111.653 18.4596V18.4866ZM110.185 16.2401V15.2386C108.61 15.2386 107.836 15.6446 107.836 16.5378C107.836 16.8626 107.916 17.1333 108.103 17.2957C108.289 17.4581 108.53 17.5393 108.797 17.5393C109.117 17.5393 109.41 17.431 109.677 17.2415C109.944 17.0521 110.104 16.7814 110.158 16.4837C110.158 16.4025 110.158 16.3213 110.158 16.2401H110.185Z" fill="white"/>
<path d="M119.714 18.4866H118.459L118.379 17.4581H118.352C117.952 18.243 117.258 18.649 116.297 18.649C115.523 18.649 114.882 18.3513 114.375 17.7288C113.868 17.1062 113.601 16.3213 113.601 15.3469C113.601 14.2913 113.868 13.4522 114.429 12.8026C114.962 12.2071 115.63 11.8823 116.404 11.8823C117.258 11.8823 117.872 12.18 118.192 12.7755H118.219V9.04028H119.633V16.7544C119.633 17.3769 119.633 17.9724 119.687 18.5137L119.714 18.4866ZM118.245 15.7529V14.6702C118.245 14.4807 118.245 14.3454 118.192 14.2101C118.112 13.8582 117.952 13.5605 117.685 13.3439C117.418 13.1003 117.098 12.9921 116.724 12.9921C116.19 12.9921 115.79 13.2086 115.47 13.6417C115.176 14.0747 115.016 14.6161 115.016 15.2927C115.016 15.9694 115.149 16.4566 115.443 16.8626C115.763 17.2957 116.164 17.5122 116.697 17.5122C117.151 17.5122 117.525 17.3228 117.818 16.9709C118.085 16.6461 118.219 16.2401 118.219 15.7799L118.245 15.7529Z" fill="white"/>
<path d="M131.885 15.1845C131.885 16.186 131.618 16.998 131.031 17.6476C130.444 18.2972 129.67 18.622 128.682 18.622C127.695 18.622 127.001 18.2972 126.44 17.6746C125.879 17.0521 125.613 16.2401 125.613 15.2928C125.613 14.3454 125.906 13.4793 126.467 12.8297C127.054 12.1801 127.801 11.8823 128.789 11.8823C129.776 11.8823 130.47 12.2071 131.058 12.8297C131.592 13.4522 131.885 14.2371 131.885 15.2116V15.1845ZM130.417 15.2386C130.417 14.6432 130.284 14.1289 130.043 13.6958C129.75 13.1815 129.323 12.9109 128.762 12.9109C128.202 12.9109 127.748 13.1815 127.454 13.6958C127.214 14.1289 127.081 14.6432 127.081 15.2657C127.081 15.8882 127.214 16.3754 127.454 16.8085C127.775 17.3228 128.202 17.5934 128.736 17.5934C129.269 17.5934 129.696 17.3228 130.017 16.8085C130.284 16.3754 130.417 15.8612 130.417 15.2657V15.2386Z" fill="white"/>
<path d="M139.519 18.4867H138.104V14.7785C138.104 13.6417 137.677 13.0733 136.823 13.0733C136.396 13.0733 136.049 13.2357 135.809 13.5334C135.542 13.8582 135.408 14.2101 135.408 14.6432V18.4867H133.994V13.8582C133.994 13.2898 133.994 12.6673 133.94 12.0177H135.195L135.248 13.0191H135.275C135.435 12.6943 135.702 12.4507 136.022 12.2342C136.396 11.9906 136.85 11.8823 137.304 11.8823C137.891 11.8823 138.398 12.0718 138.798 12.4778C139.279 12.965 139.546 13.6687 139.546 14.6161V18.4867H139.519Z" fill="white"/>
<path d="M149.075 13.0731H147.5V16.2129C147.5 17.0249 147.767 17.4039 148.327 17.4039C148.568 17.4039 148.781 17.4039 148.968 17.3497V18.4324C148.728 18.5407 148.354 18.5948 147.9 18.5948C147.34 18.5948 146.913 18.4324 146.592 18.0805C146.272 17.7287 146.112 17.1603 146.112 16.3482V13.0731H145.178V11.9905H146.112V10.7995L147.5 10.3665V11.9905H149.075V13.0731Z" fill="white"/>
<path d="M156.602 18.4866H155.187V14.8055C155.187 13.6417 154.76 13.0733 153.906 13.0733C153.239 13.0733 152.785 13.3981 152.545 14.0747C152.491 14.2101 152.465 14.3995 152.465 14.589V18.4866H151.05V9.04028H152.465V12.9379C152.918 12.2342 153.559 11.8823 154.387 11.8823C154.974 11.8823 155.454 12.0718 155.855 12.4778C156.335 12.965 156.575 13.6958 156.575 14.6431V18.4866H156.602Z" fill="white"/>
<path d="M164.343 14.9409C164.343 15.1845 164.343 15.4281 164.289 15.5905H160.019C160.019 16.2401 160.232 16.7273 160.632 17.0521C160.979 17.3498 161.46 17.5122 162.02 17.5122C162.661 17.5122 163.222 17.404 163.755 17.2145L163.969 18.216C163.355 18.4867 162.661 18.622 161.834 18.622C160.846 18.622 160.072 18.3243 159.511 17.7288C158.951 17.1333 158.657 16.3484 158.657 15.3469C158.657 14.3454 158.924 13.5605 159.458 12.9109C160.019 12.2071 160.739 11.8823 161.7 11.8823C162.661 11.8823 163.328 12.2342 163.782 12.9109C164.156 13.4522 164.343 14.1559 164.343 14.9409ZM163.008 14.562C163.008 14.1289 162.928 13.777 162.741 13.4522C162.501 13.0462 162.127 12.8567 161.62 12.8567C161.166 12.8567 160.766 13.0462 160.499 13.4522C160.259 13.777 160.125 14.1289 160.072 14.562H163.035H163.008Z" fill="white"/>
</g>
<defs>
<clipPath id="clip0_421_1290">
<rect width="183" height="55" fill="white"/>
</clipPath>
</defs>
</svg>
