<svg width="32" height="32" viewBox="0 0 32 32" fill="none" xmlns="http://www.w3.org/2000/svg">
<g clip-path="url(#clip0_487_3455)">
<path d="M27.536 17.75C26.6914 23.3629 21.8485 27.6667 16 27.6667C9.55654 27.6667 4.33337 22.4435 4.33337 16C4.33337 9.55654 9.55654 4.33337 16 4.33337C20.7834 4.33337 24.8959 7.21271 26.696 11.3334" stroke="#3D3D3D" stroke-width="3" stroke-linecap="round" stroke-linejoin="round"/>
<path d="M26 10L28.1464 7.85355C28.4614 7.53857 29 7.76165 29 8.20711V12.5C29 12.7761 28.7761 13 28.5 13H24.2071C23.7617 13 23.5386 12.4614 23.8536 12.1464L26 10Z" fill="#3D3D3D"/>
</g>
<path fill-rule="evenodd" clip-rule="evenodd" d="M12.5156 10.1249C12.8335 9.94893 13.2222 9.95967 13.5303 10.1522L21.5303 15.1522C21.8224 15.335 22 15.6553 22 15.9999C21.9999 16.3445 21.8224 16.6648 21.5303 16.8476L13.5303 21.8476C13.2222 22.0401 12.8335 22.0509 12.5156 21.8749C12.1978 21.6986 12 21.3634 12 20.9999V10.9999L12.0088 10.8651C12.0509 10.5552 12.2376 10.2791 12.5156 10.1249Z" fill="#3D3D3D"/>
<defs>
<clipPath id="clip0_487_3455">
<rect width="28" height="28" fill="white" transform="translate(2 2)"/>
</clipPath>
</defs>
</svg>
