<svg width="90" height="90" viewBox="0 0 90 90" fill="none" xmlns="http://www.w3.org/2000/svg">
<path d="M26.9166 20.7217L29.8939 19.0488C32.6731 17.4797 36.1801 18.3636 38.0787 21.1132L41.8584 26.5796C43.5068 28.9641 43.2772 31.9557 41.5763 34.5765C39.2658 38.1351 37.4765 40.6825 37.4765 40.6825C38.4914 44.0021 40.1851 47.0746 42.4501 49.7051C45.0936 52.8359 47.6449 54.5109 50.5114 56.1207C50.5114 56.1207 53.3466 54.8057 57.2182 53.1023C59.8031 51.967 62.4133 51.3815 64.4517 53.3572L69.2022 57.9564C70.3533 59.0812 71.0823 60.5678 71.2669 62.1666C71.4516 63.7653 71.0805 65.3789 70.2161 66.7365L68.3061 69.6608C67.4011 71.0719 66.1252 72.2068 64.6182 72.941C63.1111 73.6751 61.431 73.9804 59.7621 73.8232C51.7707 73.0339 42.6755 67.1476 33.9892 56.8912C25.2935 46.611 21.7925 37.6037 21.978 29.1542C22.0544 25.5991 23.9693 22.3799 26.9166 20.7217Z" fill="white"/>
</svg>
