<svg width="170" height="170" viewBox="0 0 170 170" fill="none" xmlns="http://www.w3.org/2000/svg">
<g clip-path="url(#clip0_419_1088)">
<path d="M139.159 45.6825L161.718 68.5108C161.99 68.7859 161.99 69.2337 161.718 69.5088L159.748 71.503L136.2 47.6767L138.171 45.6825C138.443 45.4074 138.886 45.4074 139.157 45.6825H139.159Z" fill="white"/>
<path d="M136.235 47.7102C144.073 55.6411 151.91 63.5703 159.746 71.5012C146.519 87.1762 133.29 102.853 120.064 118.528C119.107 119.658 117.652 119.917 116.838 119.094L89.1685 91.0958C88.3548 90.2724 88.6127 88.8001 89.7278 87.8321C105.23 74.4581 120.733 61.0842 136.235 47.7102Z" fill="white"/>
<path d="M151.492 81.8495C139.743 85.0074 134.203 90.2671 131.325 94.6804C128.52 98.9826 128.279 102.428 123.58 108.1C119.253 113.325 116.873 113.524 113.784 117.376C111.059 120.774 108.158 126.543 108.358 136.735C108.358 136.735 108.684 143.079 111.836 146.623C112.904 147.824 113.841 147.959 114.096 147.986C115.493 148.132 116.635 147.095 116.971 146.79C120.081 143.966 120.534 135.037 117.614 128.106C117.075 126.827 116.053 124.733 116.722 122.439C117.304 120.443 118.886 119.304 119.323 118.974C122.074 116.893 128.293 109.87 140.253 94.5323C143.999 90.3041 147.746 86.0777 151.492 81.8495Z" fill="#9E9E9E"/>
<path d="M136.286 46.3914L161.049 71.4501L120.792 119.157C120.078 120 119.114 120.506 118.147 120.543C117.382 120.573 116.676 120.302 116.161 119.78L88.4908 91.7817C87.9751 91.2598 87.7067 90.5457 87.7363 89.7717C87.7729 88.7931 88.273 87.818 89.1042 87.0969L136.286 46.3914ZM158.443 71.5542L136.183 49.0291L90.3517 88.5709C89.9318 88.9359 89.6704 89.412 89.653 89.8457C89.6443 90.0802 89.7088 90.2706 89.8482 90.4099L117.516 118.408C117.654 118.547 117.842 118.614 118.074 118.605C118.502 118.59 118.975 118.323 119.335 117.897L158.443 71.5542Z" fill="#494949"/>
<path d="M94.1919 89.9744L117.893 113.958C118.131 114.199 118.131 114.589 117.893 114.83C117.654 115.072 117.269 115.072 117.03 114.83L93.3294 90.8455C93.0907 90.6039 93.0907 90.2142 93.3294 89.9727C93.5681 89.7311 93.9532 89.7311 94.1919 89.9727V89.9744Z" fill="#494949"/>
<path d="M139.835 44.9966L162.394 67.8249C163.039 68.4773 163.039 69.5405 162.394 70.1947L159.746 72.8748L134.846 47.6767L137.495 44.9966C138.14 44.3442 139.19 44.3442 139.837 44.9966H139.835ZM160.854 69.008L138.666 46.5553L137.558 47.6767L159.748 70.1312L160.856 69.0098L160.854 69.008Z" fill="#494949"/>
<path d="M97.6419 107.37L90.6931 107.878L86.9399 114.458L86.4485 115.441L91.1984 122.28L92.1306 122.481L98.4608 122.121L99.6335 121.8L102.833 115.391L102.897 113.884L99.1125 107.845C99.1125 107.845 97.661 107.014 97.6436 107.367L97.6419 107.37Z" fill="white"/>
<path d="M90.9685 122.761C90.6095 122.576 90.2959 122.299 90.0694 121.949L86.5967 116.581C86.1402 115.876 86.0896 114.97 86.466 114.219L89.3236 108.492C89.6982 107.739 90.4492 107.243 91.2804 107.196L97.6106 106.836C98.4418 106.788 99.2433 107.197 99.6981 107.903L103.171 113.27C103.627 113.975 103.678 114.882 103.301 115.633L100.444 121.36C100.069 122.112 99.3182 122.608 98.4871 122.656L92.1568 123.015C91.7386 123.038 91.3291 122.948 90.9685 122.761ZM98.3215 108.042C98.1229 107.94 97.8981 107.89 97.6699 107.903L91.3396 108.262C90.8831 108.289 90.4736 108.56 90.268 108.973L87.4104 114.7C87.2048 115.113 87.2327 115.608 87.4819 115.994L90.9545 121.361C91.2037 121.748 91.6428 121.971 92.0993 121.947L98.4296 121.587C98.8861 121.561 99.2956 121.289 99.5012 120.876L102.359 115.15C102.564 114.737 102.536 114.242 102.287 113.855L98.8146 108.488C98.6909 108.296 98.5184 108.144 98.3215 108.042Z" fill="#9E9E9E"/>
<path d="M90.3726 110.371L87.6736 115.298C87.6597 115.324 87.6614 115.356 87.6788 115.381L90.9006 119.801C90.9563 119.878 91.0748 119.801 91.0278 119.716L88.5204 115.287C88.5082 115.266 88.5082 115.241 88.5169 115.22L90.5103 110.436C90.5469 110.347 90.4214 110.287 90.3744 110.371H90.3726Z" fill="#9E9E9E"/>
<path d="M101.273 115.969L98.9367 121.083C98.9245 121.109 98.8983 121.127 98.8687 121.127L93.441 121.106C93.347 121.106 93.3382 120.963 93.4323 120.952L98.4453 120.385C98.468 120.383 98.4889 120.369 98.5011 120.348L101.141 115.895C101.19 115.813 101.313 115.88 101.273 115.968V115.969Z" fill="#9E9E9E"/>
<path d="M100.961 114.719L95.1434 114.51C95.1121 114.51 95.0842 114.525 95.0702 114.554C95.0842 114.525 95.0807 114.492 95.0615 114.467L91.4599 109.841C91.3972 109.761 91.277 109.848 91.3292 109.932L94.1781 114.54C94.1921 114.561 94.1938 114.587 94.1851 114.61L92.3294 119.663C92.2945 119.759 92.4287 119.819 92.474 119.729C92.4287 119.819 92.5559 119.894 92.6117 119.81L95.5459 115.31C95.5599 115.289 95.5825 115.277 95.6069 115.275L100.963 114.882C101.064 114.875 101.061 114.725 100.96 114.721L100.961 114.719Z" fill="#C6C6C6"/>
<path d="M102.054 137.844L106.464 140.582L111.545 138.256L112.263 137.879L112.324 131.671L111.848 131.14L107.875 128.583L107.03 128.263L102.357 130.728L101.672 131.609L101.371 136.911C101.371 136.911 101.892 138.048 102.054 137.844Z" fill="white"/>
<path d="M112.667 131.48C112.805 131.748 112.874 132.054 112.862 132.366L112.66 137.126C112.634 137.752 112.277 138.32 111.728 138.609L107.553 140.811C107.004 141.101 106.339 141.072 105.818 140.736L101.845 138.177C101.322 137.84 101.015 137.244 101.042 136.618L101.244 131.858C101.27 131.232 101.627 130.664 102.176 130.375L106.351 128.173C106.9 127.884 107.565 127.912 108.086 128.248L112.059 130.805C112.32 130.974 112.529 131.209 112.669 131.479L112.667 131.48ZM101.932 137.139C102.009 137.287 102.122 137.415 102.265 137.507L106.238 140.064C106.523 140.247 106.887 140.263 107.189 140.104L111.364 137.902C111.663 137.743 111.86 137.431 111.874 137.089L112.076 132.329C112.09 131.987 111.923 131.659 111.636 131.475L107.663 128.919C107.377 128.735 107.013 128.719 106.711 128.878L102.537 131.08C102.237 131.239 102.04 131.551 102.026 131.893L101.824 136.654C101.817 136.825 101.855 136.991 101.93 137.139H101.932Z" fill="#9E9E9E"/>
<path d="M107.724 139.217L111.461 137.428C111.481 137.419 111.494 137.398 111.493 137.377L111.44 133.297C111.44 133.226 111.334 133.221 111.327 133.291L110.946 137.063C110.944 137.08 110.933 137.096 110.919 137.105L107.67 139.119C107.609 139.156 107.659 139.249 107.724 139.217Z" fill="#9E9E9E"/>
<path d="M103.544 131.063L107.142 129.001C107.161 128.991 107.184 128.991 107.203 129.005L110.468 131.396C110.526 131.438 110.468 131.526 110.407 131.493L107.14 129.638C107.125 129.629 107.107 129.629 107.091 129.636L103.594 131.167C103.528 131.195 103.483 131.1 103.546 131.064L103.544 131.063Z" fill="#9E9E9E"/>
<path d="M103.197 131.953L106.617 134.63C106.635 134.644 106.661 134.645 106.68 134.635C106.659 134.645 106.647 134.667 106.649 134.691L106.842 139.062C106.846 139.138 106.955 139.138 106.961 139.062L107.213 135.033C107.213 135.014 107.224 134.998 107.239 134.988L110.522 132.752C110.583 132.709 110.527 132.614 110.461 132.65C110.527 132.614 110.482 132.514 110.412 132.54L106.717 133.97C106.699 133.977 106.68 133.975 106.664 133.965L103.265 131.854C103.2 131.816 103.139 131.907 103.199 131.953H103.197Z" fill="#C6C6C6"/>
<path d="M117.4 100.772L114.826 103.512L115.685 107.492L115.84 108.061L120.163 109.038L120.604 108.777L122.986 106.323L123.336 105.767L122.318 102.058L121.806 101.437L118.152 100.425C118.152 100.425 117.281 100.626 117.4 100.772Z" fill="white"/>
<path d="M120.243 109.312C120.034 109.37 119.813 109.373 119.597 109.317L116.305 108.456C115.873 108.344 115.53 108.003 115.41 107.568L114.5 104.253C114.38 103.817 114.5 103.347 114.814 103.024L117.196 100.57C117.509 100.247 117.971 100.116 118.403 100.229L121.695 101.09C122.127 101.203 122.47 101.543 122.59 101.978L123.5 105.293C123.62 105.729 123.5 106.199 123.186 106.522L120.804 108.977C120.648 109.139 120.452 109.252 120.243 109.31V109.312ZM117.91 100.79C117.795 100.822 117.689 100.883 117.602 100.973L115.22 103.428C115.049 103.604 114.983 103.861 115.047 104.101L115.957 107.416C116.023 107.654 116.21 107.841 116.446 107.903L119.738 108.763C119.975 108.825 120.229 108.754 120.4 108.576L122.782 106.122C122.953 105.946 123.019 105.688 122.954 105.448L122.045 102.134C121.979 101.895 121.792 101.709 121.555 101.647L118.264 100.786C118.145 100.756 118.023 100.758 117.91 100.79Z" fill="#9E9E9E"/>
<path d="M115.589 104.616L116.276 107.555C116.279 107.571 116.291 107.584 116.307 107.585L119.161 108.162C119.212 108.173 119.229 108.099 119.182 108.083L116.609 107.243C116.596 107.24 116.588 107.229 116.582 107.219L115.666 104.595C115.649 104.546 115.577 104.569 115.589 104.62V104.616Z" fill="#9E9E9E"/>
<path d="M121.907 102.855L122.805 105.734C122.81 105.75 122.805 105.766 122.794 105.776L120.635 107.751C120.597 107.786 120.543 107.732 120.578 107.693L122.362 105.637C122.371 105.628 122.374 105.614 122.371 105.602L121.829 102.872C121.818 102.821 121.892 102.804 121.907 102.853V102.855Z" fill="#9E9E9E"/>
<path d="M121.337 102.474L118.957 104.516C118.945 104.526 118.94 104.544 118.943 104.56C118.938 104.544 118.926 104.531 118.908 104.528L115.83 104.01C115.777 104.001 115.76 104.078 115.81 104.094L118.583 104.881C118.595 104.884 118.605 104.893 118.611 104.905L119.677 107.587C119.698 107.638 119.771 107.612 119.757 107.559C119.771 107.612 119.849 107.594 119.841 107.541L119.4 104.685C119.398 104.671 119.402 104.658 119.41 104.648L121.393 102.535C121.43 102.497 121.376 102.437 121.334 102.472L121.337 102.474Z" fill="#C6C6C6"/>
<path d="M119.902 126.399C120.207 127.185 120.587 128.382 120.73 129.876C120.932 131.986 120.5 133.002 121.184 133.647C121.9 134.321 123.458 134.233 124.319 133.385C125.26 132.455 124.981 130.997 124.911 130.631C124.331 127.603 120.151 126.462 119.902 126.399Z" fill="#9E9E9E"/>
<path d="M109.315 113.974C108.928 114.494 108.4 115.301 107.987 116.38C107.403 117.904 107.517 118.748 106.875 119.083C106.206 119.432 105.067 119.039 104.603 118.23C104.096 117.343 104.603 116.319 104.729 116.061C105.781 113.937 109.118 113.968 109.317 113.974H109.315Z" fill="#9E9E9E"/>
</g>
<g clip-path="url(#clip1_419_1088)">
<path d="M53.9064 53.6858C53.6279 41.5329 43.6621 31.7296 31.4421 31.7296C19.222 31.7296 9.25619 41.5329 8.97772 53.6858C7.81507 54.198 7 55.3586 7 56.7083V57.5112H55.8841V56.7083C55.8841 55.3586 55.0691 54.198 53.9064 53.6858ZM31.4421 33.3374C42.6803 33.3374 51.8738 42.2666 52.2966 53.4033H10.5875C11.0103 42.2666 20.2038 33.3374 31.4421 33.3374ZM8.81105 55.9034C9.09765 55.3729 9.66068 55.0111 10.305 55.0111H52.5791C53.2234 55.0111 53.7865 55.3729 54.0731 55.9034H8.81105Z" fill="#494949"/>
<path d="M31.4421 34.7664C29.1737 34.7664 27.3342 35.1119 27.3342 35.5408C27.3342 35.9697 29.1737 36.3152 31.4421 36.3152C33.7105 36.3152 35.55 35.9676 35.55 35.5408C35.55 35.1139 33.7105 34.7664 31.4421 34.7664Z" fill="#494949"/>
</g>
<g clip-path="url(#clip2_419_1088)">
<path d="M53.1978 73.3114H52.5993V69.9622C52.6187 69.8984 52.6316 69.8303 52.6402 69.7643V69.7601C52.7306 68.9132 52.3151 67.894 46.2092 66.5109C42.3833 65.6449 37.2657 64.8534 31.7971 64.2874C29.0262 64.0001 26.3306 63.7873 23.8353 63.6554C23.3229 63.6277 22.8234 63.6065 22.3303 63.5852C22.2593 63.5831 22.1818 63.5788 22.1107 63.5746C20.5541 63.5107 19.1052 63.4873 17.7789 63.498C17.5981 63.498 17.4086 63.498 17.232 63.5001C17.2105 63.5001 17.1933 63.5001 17.1718 63.5001H17.1524C16.8531 63.5043 16.5732 63.5128 16.2998 63.5214C16.1254 63.5277 15.9618 63.5341 15.7982 63.5405C15.5958 63.549 15.3912 63.5575 15.2018 63.5682C15.0963 63.5746 15.0037 63.5809 14.9025 63.5873C14.7109 63.6001 14.5236 63.6129 14.347 63.6277C14.2566 63.6363 14.1726 63.6448 14.0865 63.6512C13.9207 63.666 13.7593 63.6831 13.6086 63.7001C13.5181 63.7107 13.4342 63.7214 13.348 63.732C13.2232 63.749 13.0983 63.7661 12.982 63.7831C12.8787 63.798 12.7818 63.815 12.6871 63.832C12.6117 63.8448 12.5364 63.8597 12.4675 63.8724C12.3404 63.898 12.2199 63.9235 12.1079 63.949C12.0864 63.9533 12.067 63.9597 12.0455 63.9639C10.5621 64.3278 10.3123 64.8512 10.2585 65.3534V65.364C10.2499 65.447 10.252 65.53 10.2585 65.6109L10.2542 73.305H10.1853C8.77723 73.305 7.63184 74.437 7.63184 75.8286V80.4714H55.7535V75.8286C55.7535 74.437 54.6081 73.305 53.2 73.305L53.1978 73.3114ZM15.3589 65.2427C15.4946 65.2364 15.6216 65.2279 15.7637 65.2215C15.9036 65.2151 16.0587 65.2108 16.2051 65.2066C16.4074 65.2002 16.6077 65.1938 16.823 65.1874C16.9543 65.1853 17.0964 65.1832 17.232 65.181C17.4796 65.1768 17.7294 65.1747 17.9899 65.1725C18.1255 65.1725 18.2676 65.1725 18.4076 65.1725C18.681 65.1725 18.9609 65.1725 19.2494 65.1789C19.4044 65.1789 19.5637 65.1832 19.7252 65.1853C20.003 65.1896 20.2871 65.1959 20.5778 65.2044C20.7737 65.2087 20.974 65.2151 21.1763 65.2215C21.4261 65.23 21.6844 65.2385 21.9428 65.2491C22.2076 65.2598 22.4724 65.2704 22.748 65.2832C22.9267 65.2917 23.1097 65.3002 23.2927 65.3108C23.6717 65.33 24.0506 65.3491 24.4446 65.3725C24.4575 65.3725 24.4704 65.3725 24.4855 65.3747C26.5588 65.4981 28.8539 65.6832 31.3449 65.9428C41.3542 66.9833 48.0177 68.5387 49.9468 69.492C47.8584 70.0282 41.0119 70.1814 31.0048 69.1409C20.9955 68.1004 14.3341 66.545 12.4029 65.5917C13.0036 65.4364 14.0112 65.3172 15.3589 65.2449V65.2427ZM11.9551 67.2152C12.9282 67.6514 14.4009 68.1068 16.6077 68.6111C20.3819 69.4728 25.4328 70.2558 30.8261 70.8155C35.6832 71.3197 40.3057 71.59 44.0046 71.59C44.4136 71.59 44.8119 71.5857 45.1973 71.5793C48.1835 71.5283 49.9102 71.2963 50.892 70.9304V73.3092H11.9551V67.2131V67.2152ZM54.0483 78.7968H9.3327V75.8371C9.3327 75.3732 9.71378 74.9966 10.1831 74.9966H53.1978C53.6672 74.9966 54.0483 75.3732 54.0483 75.8371V78.7968Z" fill="#494949"/>
<path d="M20.2584 65.5514C18.4649 65.5514 17.0095 65.8642 17.0095 66.2493C17.0095 66.6344 18.4628 66.9472 20.2584 66.9472C22.054 66.9472 23.5073 66.6344 23.5073 66.2493C23.5073 65.8642 22.054 65.5514 20.2584 65.5514Z" fill="#494949"/>
</g>
<g clip-path="url(#clip3_419_1088)">
<path d="M50.9955 113.19L50.8606 113.178C45.0269 112.157 39.0641 111.611 33.1411 111.556C26.5655 111.498 19.9442 112.041 13.4598 113.178L13.3249 113.19C13.0571 113.19 12.3688 113.132 11.7658 112.597C11.3353 112.215 11.0596 111.689 10.9882 111.118L8.59003 91.6383C8.50672 90.9674 8.715 90.2925 9.16131 89.7848C9.58779 89.299 10.1948 89.0123 10.8355 88.9884C17.7781 87.5291 24.8933 86.7825 31.9847 86.7705C39.1911 86.7705 46.4293 87.5052 53.4889 88.9884C53.8162 89.0043 54.572 89.1178 55.1591 89.7848C55.6074 90.2925 55.8157 90.9694 55.7304 91.6403L53.3302 111.12C53.1854 112.3 52.1817 113.192 50.9955 113.192V113.19ZM32.1731 109.979C32.5024 109.979 32.8297 109.979 33.157 109.983C39.1395 110.037 45.1598 110.586 51.0531 111.613C51.424 111.588 51.7295 111.299 51.7751 110.925L54.1753 91.4452C54.203 91.2183 54.1356 90.9993 53.9828 90.826C53.7567 90.5672 53.4314 90.5612 53.3957 90.5612L53.233 90.5453C46.2587 89.074 39.0721 88.3374 31.9866 88.3453C24.9786 88.3573 17.9447 89.0979 11.0854 90.5453L10.9247 90.5612C10.6966 90.5612 10.4883 90.6568 10.3356 90.828C10.1849 90.9993 10.1174 91.2183 10.1452 91.4452L12.5453 110.927C12.5691 111.118 12.6604 111.293 12.8052 111.42C12.9738 111.57 13.1682 111.607 13.2694 111.615C19.4959 110.53 25.8514 109.981 32.1691 109.981L32.1731 109.979Z" fill="#494949"/>
<path d="M50.1965 109.601L49.3852 109.457C46.3979 108.928 43.3451 108.543 40.3122 108.316C37.7335 108.123 35.1151 108.042 32.5344 108.072C32.1238 108.084 31.745 107.727 31.741 107.293C31.737 106.859 32.0842 106.503 32.5166 106.497C35.1429 106.467 37.8069 106.55 40.4292 106.746C43.24 106.955 46.0686 107.297 48.8476 107.765L50.8372 92.0684C50.8927 91.6364 51.2855 91.3318 51.7139 91.3855C52.1444 91.4413 52.4478 91.8355 52.3943 92.2655L50.1984 109.599L50.1965 109.601Z" fill="#494949"/>
</g>
<g clip-path="url(#clip4_419_1088)">
<path d="M105.167 31.7295L81.6252 40.2415C80.9449 40.0095 80.2203 40.3283 79.7979 40.679C79.729 40.7357 79.6318 40.8242 79.5381 40.9376C79.1546 41.0137 78.7959 41.2387 78.5803 41.4335C78.3965 41.6 78.165 41.8869 78.036 42.2146C77.732 42.335 77.4334 42.5511 77.2231 42.8026C77.1029 42.946 76.8996 43.2276 76.8166 43.5889C76.4649 43.782 76.214 44.099 76.092 44.2779C75.9984 44.4143 75.705 44.8783 75.6873 45.3919C75.4063 45.6488 75.2508 45.9817 75.1943 46.1199C75.143 46.2456 74.9893 46.6654 75.0405 47.1029C74.9168 47.2286 74.8337 47.3526 74.7913 47.4199C74.5333 47.8255 74.4662 48.2718 74.6075 48.642C74.6111 48.6508 74.6146 48.6614 74.6181 48.6703C74.4821 48.8563 74.2629 49.2388 74.3018 49.7525C74.3248 50.0606 74.4397 50.3529 74.634 50.6026L64.9584 137.699L64.8718 138.489L70.0216 139.058L79.7202 51.0418C79.9552 50.886 80.1355 50.6593 80.2344 50.3954C80.314 50.1846 80.3369 49.9473 80.3033 49.7188C80.3369 49.6798 80.3687 49.6373 80.397 49.5948C80.579 49.3185 80.648 48.9608 80.5861 48.6225C80.6374 48.5552 80.6833 48.4843 80.7222 48.4117C80.7699 48.3249 80.807 48.2364 80.8353 48.1478C80.9431 48.0699 81.0438 47.976 81.1322 47.868C81.3177 47.6431 81.4379 47.3774 81.475 47.1135C81.7101 46.9417 81.8903 46.7008 81.9822 46.4316C82.2243 46.3271 82.4329 46.1429 82.5654 45.9091C82.8075 45.8755 83.1698 45.7603 83.4402 45.4026C83.5268 45.2875 83.5939 45.1599 83.6381 45.0218L106.662 36.701L106.929 36.6036L105.167 31.7295ZM80.9572 42.5351C80.8565 42.2783 80.7734 42.0109 80.7098 41.7399C80.7416 41.7045 80.777 41.6708 80.8158 41.6425C80.8424 41.623 80.8795 41.5947 80.9378 41.5699C80.989 41.5486 81.0421 41.5344 81.0986 41.5309C81.3036 41.7417 81.4909 41.9684 81.6588 42.2075C82.1095 42.8522 82.417 43.5854 82.5707 44.3877C82.5583 44.4231 82.5389 44.4533 82.5124 44.4763C82.4806 44.5064 82.447 44.5188 82.3975 44.5365C82.3622 44.5489 82.3251 44.5595 82.2862 44.5648C81.7012 43.9662 81.2541 43.2825 80.9608 42.5334L80.9572 42.5351ZM80.4924 46.111C80.4624 46.1287 80.4306 46.1341 80.4094 46.1341C79.8792 45.8223 79.395 45.4398 78.9708 44.9988C78.6174 44.6304 78.3081 44.2212 78.0466 43.782C78.0537 43.7483 78.066 43.7147 78.0819 43.6846C78.1402 43.5748 78.2339 43.5252 78.2693 43.5057C78.3011 43.488 78.3329 43.4756 78.3682 43.465C78.7641 43.7519 79.1317 44.0778 79.4639 44.4338C79.8969 44.8978 80.2715 45.4185 80.5773 45.9782C80.5737 46.003 80.5667 46.026 80.5543 46.0473C80.5331 46.0845 80.503 46.1039 80.4924 46.111ZM78.0678 46.1925C77.6914 45.9463 77.3344 45.6665 77.0021 45.3601C76.9809 45.3122 76.9474 45.2042 76.988 45.0838C77.0269 44.9722 77.1099 44.9137 77.1365 44.896C77.2124 44.8429 77.2884 44.8252 77.345 44.8216C77.755 45.0661 78.1579 45.33 78.5449 45.6063C79.0857 45.9924 79.6088 46.4139 80.1019 46.8584C80.1054 46.885 80.1019 46.9133 80.0966 46.9399C80.0895 46.9665 80.0718 47.0196 80.0241 47.0621C80.0029 47.0816 79.9764 47.0975 79.9481 47.1082C79.2819 46.8832 78.6492 46.5768 78.066 46.1943L78.0678 46.1925ZM66.6232 137.085L76.145 51.3128C76.4614 51.4085 76.7865 51.4758 77.1153 51.5112C77.4316 51.5466 77.7515 51.5519 78.0696 51.5307L68.6201 137.304L66.6232 137.085ZM77.3609 50.507C76.6982 50.4432 76.0549 50.2643 75.4505 49.9756C75.4116 49.8924 75.3922 49.8021 75.394 49.7135C75.394 49.6692 75.3957 49.5683 75.4576 49.4585C75.4894 49.4018 75.5318 49.3504 75.5831 49.3097C76.1062 49.5488 76.6575 49.7294 77.2231 49.8446C77.7974 49.9615 78.3859 50.011 78.9726 49.9933C79.0044 50.027 79.0274 50.0659 79.0398 50.1085C79.061 50.1828 79.0468 50.2448 79.0345 50.2962C79.0239 50.3422 79.0062 50.3865 78.9815 50.4273C78.4477 50.5318 77.9034 50.5601 77.3627 50.5087L77.3609 50.507ZM77.087 49.0015C76.5709 48.8208 76.0796 48.5747 75.6219 48.2718C75.6149 48.2169 75.6184 48.162 75.629 48.1071C75.6396 48.0593 75.6643 47.9849 75.7174 47.914C75.7527 47.868 75.7934 47.829 75.8411 47.7989C76.3818 47.9707 76.9209 48.146 77.4422 48.3214C78.0254 48.518 78.6209 48.7234 79.2112 48.9342C79.2253 48.9962 79.2289 49.0599 79.2218 49.1219C79.2165 49.168 79.2024 49.2176 79.1847 49.2654C79.1705 49.3008 79.1546 49.3345 79.1334 49.3681C78.4318 49.3557 77.7426 49.2317 77.0834 49.0015H77.087ZM77.8151 47.7086C77.2124 47.4571 76.6734 47.0958 76.2087 46.6335C76.2034 46.5963 76.2051 46.5591 76.2122 46.5237C76.2175 46.4954 76.2316 46.4334 76.2811 46.3802C76.3271 46.3306 76.3836 46.3112 76.419 46.3041C76.9951 46.5024 77.5641 46.738 78.112 47.0054C78.6298 47.2587 79.1405 47.5439 79.6283 47.8556C79.6283 47.8751 79.6283 47.8981 79.6212 47.9247C79.6177 47.9406 79.6106 47.9813 79.5841 48.0221C79.5682 48.0469 79.547 48.0681 79.524 48.0876C78.9337 48.0628 78.3594 47.9353 77.8151 47.7086ZM79.9835 43.991C79.6777 43.5571 79.4321 43.0824 79.2536 42.5812C79.273 42.5493 79.296 42.521 79.3208 42.4926C79.3455 42.4661 79.3932 42.4147 79.471 42.3775C79.5081 42.3598 79.547 42.3456 79.5894 42.3385C79.9923 42.7034 80.3528 43.1143 80.6639 43.5606C80.9979 44.037 81.2736 44.5524 81.4839 45.0926C81.468 45.1281 81.4485 45.1599 81.422 45.1865C81.4079 45.2024 81.3778 45.2308 81.3301 45.2573C81.3001 45.2733 81.27 45.2857 81.2364 45.2928C80.754 44.9244 80.3316 44.4869 79.9835 43.991ZM104.9 35.6508L83.4349 43.4101C83.3218 43.0364 83.1981 42.6821 83.0638 42.3545C82.956 42.0906 82.8358 41.8231 82.6962 41.5415L104.216 33.761L104.898 35.6508H104.9Z" fill="#494949"/>
</g>
<defs>
<clipPath id="clip0_419_1088">
<rect width="76.6618" height="103.493" fill="white" transform="translate(86.217 44.5065)"/>
</clipPath>
<clipPath id="clip1_419_1088">
<rect width="48.8841" height="25.7815" fill="white" transform="translate(7 31.7296)"/>
</clipPath>
<clipPath id="clip2_419_1088">
<rect width="48.1216" height="16.9841" fill="white" transform="translate(7.62891 63.496)"/>
</clipPath>
<clipPath id="clip3_419_1088">
<rect width="47.1781" height="26.4197" fill="white" transform="translate(8.57251 86.7705)"/>
</clipPath>
<clipPath id="clip4_419_1088">
<rect width="42.0567" height="107.327" fill="white" transform="translate(64.8718 31.7295)"/>
</clipPath>
</defs>
</svg>
