<svg width="230" height="80" viewBox="0 0 230 80" fill="none" xmlns="http://www.w3.org/2000/svg">
<g clip-path="url(#clip0_883_3)">
<path d="M116.411 35.297L119.02 36.2057C125.252 38.44 129.346 43.0689 128.919 49.9428C128.438 57.5009 122.483 61.916 112.787 61.916C108.051 61.916 103.315 60.9539 100.44 58.6661C98.4192 57.0198 97.4571 54.1441 99.0606 51.696C99.8624 50.5201 101.402 49.8359 102.845 49.7824C104.705 49.729 105.614 50.5842 106.619 51.1187C107.848 51.8671 109.494 52.4978 113.118 52.4978C116.048 52.4978 117.801 51.4822 117.854 49.141C117.908 47.1205 114.391 45.5704 109.975 44.1914C109.12 43.9241 108.062 43.4965 107.42 43.2292C99.3813 39.8725 97.6281 32.5816 99.4348 26.9906C101.295 21.2926 106.512 17.9893 113.803 17.9893C119.34 17.9893 121.949 19.0583 123.916 20.1166C126.364 21.4423 128.064 24.1042 127.273 26.6592C126.578 28.84 124.718 29.6952 122.697 29.6952C121.895 29.6952 120.73 29.3745 120.249 29.0003C118.977 28.1451 117.106 27.4075 113.91 27.4075C111.355 27.4075 109.815 28.4231 109.762 30.6039C109.708 32.5709 112.156 33.8538 116.411 35.2863V35.297Z" fill="url(#paint0_linear_883_3)"/>
<path d="M147.766 56.4854L142.389 37.0503L139.941 61.0074H129.881L134.35 23.3666C134.67 20.1167 137.546 18.2566 139.941 18.0428C142.496 17.829 146.066 18.898 147.018 22.4044L153.464 46.7892L159.9 22.4044C160.862 18.8873 164.422 17.829 166.977 18.0428C169.371 18.2566 172.247 20.1167 172.568 23.3666L177.036 61.0074H166.977L164.582 36.8899L159.151 56.4854C158.617 58.292 155.474 59.0938 153.453 59.0938C151.433 59.0938 148.29 58.292 147.755 56.4854H147.766Z" fill="url(#paint1_linear_883_3)"/>
<path d="M199.785 18C187.513 18 177.571 27.9421 177.571 40.2146C177.571 52.4872 187.513 62.4292 199.785 62.4292C212.058 62.4292 222 52.4872 222 40.2146C222 27.9421 212.058 18 199.785 18ZM199.785 49.7397C194.526 49.7397 190.26 45.4743 190.26 40.2253C190.26 34.9763 194.526 30.7002 199.785 30.7002C205.045 30.7002 209.3 34.9656 209.3 40.2253C209.3 45.485 205.034 49.7397 199.785 49.7397Z" fill="url(#paint2_linear_883_3)"/>
<path d="M75.1356 18.3101C69.01 18.3101 63.4617 20.7902 59.4528 24.8098C59.4528 24.8098 59.4528 24.8098 59.4421 24.8205C59.4421 24.8205 59.4314 24.8205 59.4207 24.8419L36.9068 47.1955H36.8961C33.1865 50.9157 27.1572 50.9157 23.4583 47.2061C19.7487 43.4966 19.7487 37.4672 23.4583 33.7683C27.1679 30.0588 33.1972 30.0588 36.8961 33.7683C39.3763 36.2378 43.3852 36.2378 45.8546 33.7683C48.3348 31.2882 48.3348 27.2793 45.8546 24.8098C37.2061 16.1613 23.1376 16.1613 14.4891 24.8098C5.84056 33.4583 5.84056 47.5269 14.4891 56.1754C18.808 60.4943 24.4953 62.6644 30.1719 62.6644C35.8484 62.6644 41.525 60.505 45.844 56.1861L54.2359 47.8476C57.272 56.4747 65.4715 62.6644 75.1356 62.6644C75.5632 62.6644 75.9801 62.6217 76.397 62.6003C88.0496 61.9375 97.3074 52.3055 97.3074 40.4819C97.3074 28.6583 87.3868 18.3101 75.1356 18.3101ZM76.397 49.9001C75.9801 49.9536 75.5632 49.9963 75.1356 49.9963C69.8866 49.9963 65.6318 45.7416 65.6318 40.4926C65.6318 37.9376 66.6474 35.6178 68.2937 33.9073C70.0256 32.1113 72.4416 30.9888 75.1356 30.9888C80.3846 30.9888 84.6393 35.2436 84.6393 40.4926C84.6393 45.314 81.0474 49.2801 76.397 49.9001Z" fill="url(#paint3_linear_883_3)"/>
<path d="M75.1356 50.0284C69.8866 50.0284 65.6319 45.7737 65.6319 40.5247C65.6319 37.9697 66.6474 35.6499 68.2938 33.9394L68.2617 33.9073L54.2252 47.8583C57.2613 56.4961 65.4608 62.6965 75.1356 62.6965C75.5632 62.6965 75.9801 62.6538 76.3971 62.6324V49.9322C75.9801 49.9857 75.5632 50.0284 75.1356 50.0284Z" fill="url(#paint4_linear_883_3)"/>
</g>
<defs>
<linearGradient id="paint0_linear_883_3" x1="224.384" y1="39.958" x2="107.046" y2="39.958" gradientUnits="userSpaceOnUse">
<stop stop-color="#9CC940"/>
<stop offset="0.53" stop-color="#54BEBA"/>
<stop offset="1" stop-color="#2D9AD7"/>
</linearGradient>
<linearGradient id="paint1_linear_883_3" x1="224.384" y1="39.5197" x2="107.046" y2="39.5197" gradientUnits="userSpaceOnUse">
<stop stop-color="#9CC940"/>
<stop offset="0.53" stop-color="#54BEBA"/>
<stop offset="1" stop-color="#2D9AD7"/>
</linearGradient>
<linearGradient id="paint2_linear_883_3" x1="224.384" y1="40.2253" x2="107.046" y2="40.2253" gradientUnits="userSpaceOnUse">
<stop stop-color="#9CC940"/>
<stop offset="0.53" stop-color="#54BEBA"/>
<stop offset="1" stop-color="#2D9AD7"/>
</linearGradient>
<linearGradient id="paint3_linear_883_3" x1="8.00001" y1="40.4926" x2="97.3181" y2="40.4926" gradientUnits="userSpaceOnUse">
<stop stop-color="#9CC940"/>
<stop offset="0.53" stop-color="#54BEBA"/>
<stop offset="1" stop-color="#2D9AD7"/>
</linearGradient>
<linearGradient id="paint4_linear_883_3" x1="60.586" y1="39.926" x2="71.2229" y2="59.7246" gradientUnits="userSpaceOnUse">
<stop stop-color="#419996"/>
<stop offset="0.8" stop-color="#2D9AD7" stop-opacity="0"/>
</linearGradient>
<clipPath id="clip0_883_3">
<rect width="214" height="44.7072" fill="white" transform="translate(8 18)"/>
</clipPath>
</defs>
</svg>
