<svg width="290" height="320" viewBox="0 0 290 320" fill="none" xmlns="http://www.w3.org/2000/svg">
<g clip-path="url(#clip0_295_536)">
<path d="M158.918 276.739C152.048 275.974 147.885 280.695 147.885 280.695C128.296 295.879 110.054 258.666 116.05 255.025C118.04 253.812 120.31 256.494 120.31 256.494C114.714 246.141 125.007 247.743 126.281 252.464C123.672 246.772 125.383 244.369 127.167 243.677C129.595 242.73 131.512 244.684 133.394 247.791C135.226 250.826 138.163 252.464 140.931 253.253C143.71 254.054 146.72 253.642 149.038 251.785" fill="#FDD108"/>
<path d="M138.212 285.405C136.003 285.405 133.77 284.907 131.561 283.9C121.536 279.36 114.241 265.694 113.816 258.654C113.646 255.814 114.63 254.613 115.479 254.091C116.292 253.593 117.13 253.532 117.919 253.702C117.336 251.736 117.445 250.195 118.259 249.09C119.084 247.961 120.54 247.488 122.24 247.804C122.774 247.901 123.344 248.083 123.902 248.35C123.769 247.148 123.902 246.08 124.254 245.17C124.728 244.005 125.614 243.119 126.767 242.67C130.651 241.14 133.224 245.413 134.328 247.233C136.137 250.231 139.086 251.59 141.234 252.209C143.819 252.95 146.417 252.488 148.359 250.947C148.832 250.571 149.524 250.644 149.9 251.117C150.276 251.59 150.204 252.27 149.73 252.646C147.23 254.649 143.917 255.244 140.64 254.309C138.115 253.581 134.644 251.954 132.471 248.362C130.068 244.381 128.648 244.284 127.58 244.696C127.167 244.854 126.609 245.218 126.293 245.983C125.954 246.808 125.808 248.325 126.827 250.947C127.046 251.323 127.216 251.736 127.337 252.173C127.483 252.719 127.192 253.29 126.657 253.484C126.123 253.678 125.529 253.423 125.298 252.913C125.14 252.573 125.007 252.246 124.873 251.93C124.206 250.874 122.931 250.134 121.851 249.94C121.451 249.867 120.48 249.758 120.031 250.364C119.788 250.692 119.169 252.076 121.281 255.972C121.548 256.469 121.402 257.076 120.929 257.392C120.468 257.707 119.836 257.623 119.484 257.198C119.472 257.186 117.749 255.256 116.62 255.948C116.147 256.227 115.916 257.186 116.001 258.509C116.402 265.099 123.49 277.819 132.459 281.897C137.496 284.179 142.436 283.499 147.145 279.87C147.788 279.178 152.121 274.869 159.039 275.634C159.634 275.695 160.071 276.241 160.01 276.836C159.95 277.43 159.391 277.867 158.809 277.807C152.607 277.127 148.869 281.229 148.711 281.399C148.662 281.448 148.614 281.496 148.565 281.533C145.264 284.094 141.768 285.38 138.224 285.38L138.212 285.405Z" fill="#005321"/>
<path d="M229.302 204.28C224.823 206.221 223.451 209.438 223.197 212.181C222.99 214.451 223.573 216.732 224.738 218.699C242.361 248.544 233.513 266.41 231.28 271.034C229.86 273.959 227.882 276.836 224.981 279.821C194.079 311.669 116.693 286.509 145.786 229.1C148.419 223.918 150.106 219.196 151.15 215.434C152.51 210.567 152.595 205.42 151.417 200.505L229.289 204.28H229.302Z" fill="#FDD108"/>
<path d="M188.921 294.859C176.517 294.859 164.271 291.157 155.022 284.555C146.502 278.474 128.466 260.863 144.803 228.602C147.06 224.136 148.844 219.609 150.094 215.142C151.405 210.469 151.49 205.493 150.349 200.76C150.264 200.42 150.349 200.068 150.568 199.813C150.786 199.558 151.126 199.4 151.466 199.425L229.338 203.199C229.848 203.224 230.273 203.6 230.358 204.097C230.443 204.595 230.188 205.093 229.714 205.299C226.389 206.743 224.556 209.086 224.265 212.29C224.083 214.244 224.58 216.332 225.66 218.152C237.482 238.166 239.715 256.093 232.287 271.435C230.697 274.724 228.573 277.685 225.745 280.598C217.322 289.276 205.027 294.325 191.118 294.823C190.378 294.847 189.637 294.859 188.897 294.859H188.921ZM152.801 201.67C153.687 206.331 153.493 211.173 152.218 215.737C150.932 220.349 149.099 225.01 146.769 229.598C131.185 260.341 148.25 277.03 156.309 282.783C179.042 298.998 209.761 293.949 224.204 279.069C226.862 276.326 228.853 273.546 230.309 270.561C237.434 255.838 235.237 238.616 223.804 219.257C222.481 217.011 221.898 214.535 222.116 212.084C222.311 209.996 223.136 207.338 225.685 205.202L152.801 201.67Z" fill="#005321"/>
<path d="M147.898 243.349C147.181 246.129 146.987 249.017 147.145 251.918C148.905 282.164 217.383 285.04 213.523 243.301C211.29 219.123 159.865 197.24 147.898 243.349Z" fill="#FFFCD1"/>
<path d="M156.418 223.711C154.706 231.552 156.442 237.536 157.037 240.521C157.267 241.662 158.032 244.332 155.119 245.498C152.777 246.432 150.543 244.26 150.543 244.26C150.543 244.26 152.619 252.792 148.007 253.29C144.159 253.702 142.157 247.913 142.157 247.913C142.157 247.913 142.254 253.812 138.515 251.87C134.449 249.758 132.762 237.305 137.654 227.559C140.494 221.903 146.526 215.628 146.526 215.628C155.653 204.935 148.492 200.517 148.492 200.517L167.608 194.631" fill="#FDD108"/>
<path d="M147.594 254.406C145.361 254.406 143.722 252.828 142.654 251.263C142.363 251.942 141.938 252.561 141.307 252.95C140.664 253.35 139.571 253.654 138.006 252.84C133.163 250.328 131.622 237.135 136.671 227.073C139.547 221.344 145.482 215.13 145.737 214.875C148.917 211.149 150.41 207.714 149.997 204.971C149.645 202.58 147.97 201.476 147.897 201.439C147.533 201.209 147.339 200.796 147.4 200.371C147.461 199.947 147.752 199.595 148.152 199.473L167.268 193.587C167.851 193.405 168.458 193.732 168.628 194.315C168.81 194.898 168.482 195.504 167.9 195.674L150.556 201.015C151.211 201.828 151.878 203.017 152.121 204.595C152.655 208.03 151.041 211.987 147.327 216.344C147.23 216.453 141.331 222.619 138.6 228.056C133.758 237.705 135.882 249.309 138.989 250.911C139.353 251.093 139.838 251.287 140.13 251.105C140.737 250.729 141.04 249.029 141.028 247.937C141.028 247.403 141.404 246.942 141.926 246.845C142.46 246.748 142.97 247.051 143.152 247.561C143.164 247.609 144.924 252.513 147.849 252.209C148.432 252.149 148.844 251.906 149.16 251.457C150.349 249.77 149.767 245.874 149.439 244.526C149.33 244.053 149.536 243.556 149.961 243.325C150.386 243.082 150.92 243.155 151.259 243.495C151.272 243.507 153.032 245.158 154.67 244.502C156.418 243.81 156.296 242.5 155.969 240.995L155.92 240.752C155.859 240.412 155.775 240.048 155.677 239.635C154.949 236.285 153.723 230.678 155.301 223.505C155.435 222.91 156.005 222.546 156.6 222.667C157.195 222.801 157.559 223.384 157.437 223.966C155.969 230.678 157.122 235.994 157.814 239.174C157.911 239.599 157.996 239.987 158.056 240.339L158.105 240.558C158.372 241.808 159.064 245.109 155.471 246.553C154.185 247.063 152.947 246.881 151.963 246.493C152.158 248.423 152.133 251.044 150.944 252.743C150.264 253.702 149.269 254.285 148.067 254.406C147.897 254.43 147.715 254.43 147.546 254.43L147.594 254.406Z" fill="#005321"/>
<path d="M203.292 226.005C204.299 233.384 187.21 243.288 191.118 248.264C192.405 249.903 194.213 250.206 196.373 249.223C193.473 258.132 200.015 258.642 200.015 258.642C204.712 259.297 205.804 256.117 205.804 256.117C205.792 256.142 205.78 256.166 205.768 256.19C204.615 258.266 205.306 261.106 208.28 260.839C217.383 260.05 219.106 236.37 219.106 236.37" fill="#FDD108"/>
<path d="M207.904 261.943C206.532 261.943 205.428 261.385 204.76 260.353C204.53 259.989 204.36 259.589 204.263 259.164C203.182 259.686 201.738 259.977 199.869 259.71C199.82 259.71 197.162 259.479 195.609 257.149C194.541 255.547 194.274 253.423 194.82 250.813C193.024 251.068 191.446 250.425 190.268 248.92C187.708 245.643 191.519 241.443 195.572 237.001C198.886 233.36 202.648 229.221 202.224 226.126C202.139 225.532 202.563 224.973 203.158 224.9C203.765 224.816 204.311 225.24 204.384 225.835C204.942 229.95 200.998 234.283 197.175 238.482C193.922 242.062 190.548 245.752 191.98 247.573C192.587 248.337 193.643 249.248 195.924 248.216C196.313 248.034 196.786 248.107 197.102 248.398C197.429 248.689 197.551 249.138 197.417 249.551C196.507 252.343 196.507 254.539 197.417 255.911C198.376 257.367 200.051 257.537 200.124 257.537C203 257.938 204.166 256.773 204.59 256.117C204.663 255.96 204.736 255.802 204.821 255.644C205.1 255.146 205.719 254.916 206.241 255.134C206.763 255.365 207.03 255.911 206.848 256.445C206.775 256.651 206.666 256.882 206.52 257.125C206.253 257.841 206.265 258.642 206.593 259.139C206.884 259.589 207.418 259.783 208.183 259.722C214.883 259.139 217.553 242.584 218.014 236.261C218.05 235.678 218.572 235.229 219.143 235.254C219.725 235.278 220.199 235.751 220.199 236.346C220.199 236.589 218.572 261.021 208.377 261.907C208.219 261.919 208.062 261.931 207.904 261.931V261.943Z" fill="#005321"/>
<path d="M275.787 130.789H261.502C251.088 99.1958 229.642 82.3372 197.879 82.3372C171.65 82.3372 152.91 97.4602 140.275 130.789H124.667C124.655 92.9087 157.498 62.0924 197.866 62.0924C238.235 62.0924 275.787 92.9087 275.787 130.789Z" fill="#9CCA54"/>
<path d="M276.879 131.881H260.713L260.47 131.129C250.032 99.4749 228.974 83.4295 197.878 83.4295C171.626 83.4295 153.638 98.601 141.295 131.177L141.028 131.881H123.575V130.789C123.562 92.3139 156.903 61 197.866 61C217.65 61 237.628 68.4401 252.678 81.4148C268.286 94.8628 276.879 112.401 276.879 130.801V131.893V131.881ZM262.278 129.696H274.67C273.954 94.1345 238.368 63.1847 197.854 63.1847C157.34 63.1847 126.378 92.9208 125.759 129.696H139.511C152.048 97.096 171.152 81.2448 197.866 81.2448C229.314 81.2448 251.573 97.9941 262.278 129.696Z" fill="#005321"/>
<path d="M268.468 132.889H266.284C266.284 99.9847 233.756 71.1224 196.677 71.1224C159.598 71.1224 131.33 98.8316 131.33 132.889H129.146C129.146 97.6301 159.44 68.9377 196.677 68.9377C233.914 68.9377 268.468 98.8195 268.468 132.889Z" fill="#005321"/>
<path d="M130.238 110.641C130.238 110.641 112.506 104.002 105.757 127.536C97.4068 156.714 119.46 163.341 119.46 163.341L130.226 110.641H130.238Z" fill="#9CCA54"/>
<path d="M119.472 164.433C119.363 164.433 119.266 164.421 119.157 164.385C118.926 164.312 96.1567 157.102 104.713 127.233C107.092 118.931 111.073 113.323 116.559 110.568C123.55 107.036 130.347 109.512 130.626 109.622C131.136 109.816 131.427 110.338 131.318 110.86L120.552 163.559C120.492 163.863 120.31 164.118 120.043 164.275C119.873 164.372 119.679 164.433 119.484 164.433H119.472ZM124.655 110.872C122.555 110.872 120.031 111.248 117.506 112.522C112.603 115.01 109.01 120.157 106.813 127.827C99.8585 152.102 114.35 160.076 118.659 161.86L128.976 111.394C128.065 111.163 126.536 110.872 124.667 110.872H124.655Z" fill="#005321"/>
<path d="M104.289 140.11C110.054 119.999 123.842 121.929 127.726 122.912L130.238 110.641C130.238 110.641 112.505 104.002 105.757 127.536C104.216 132.925 103.706 137.537 103.912 141.482C104.034 141.033 104.155 140.571 104.289 140.11Z" fill="white"/>
<path d="M119.472 164.433C119.363 164.433 119.266 164.421 119.157 164.385C118.926 164.312 96.1567 157.102 104.713 127.233C107.092 118.931 111.073 113.323 116.559 110.568C123.55 107.036 130.347 109.512 130.626 109.622C131.136 109.816 131.427 110.338 131.318 110.86L120.552 163.559C120.492 163.863 120.31 164.118 120.043 164.275C119.873 164.372 119.679 164.433 119.484 164.433H119.472ZM124.655 110.872C122.555 110.872 120.031 111.248 117.506 112.522C112.603 115.01 109.01 120.157 106.813 127.827C99.8585 152.102 114.35 160.076 118.659 161.86L128.976 111.394C128.065 111.163 126.536 110.872 124.667 110.872H124.655Z" fill="#005321"/>
<path d="M138.71 114.294L129.146 165.38C129.146 165.38 129.097 165.38 129 165.404C122.215 166.63 115.758 162.006 114.69 155.185C113.307 146.409 112.87 130.607 122.834 115.265C125.881 110.58 129.024 110.046 131.634 110.981L138.722 114.282L138.71 114.294Z" fill="#9CCA54"/>
<path d="M126.791 166.703C124.048 166.703 121.378 165.853 119.096 164.227C116.122 162.115 114.18 158.971 113.61 155.367C112.287 146.98 111.619 130.546 121.912 114.683C125.541 109.1 129.4 109.027 131.998 109.961L139.171 113.299C139.62 113.505 139.875 114.003 139.778 114.489L130.214 165.574C130.129 166.011 129.789 166.351 129.364 166.448L129.194 166.484C128.393 166.63 127.592 166.703 126.791 166.703ZM129.498 111.673C127.471 111.673 125.565 113.056 123.732 115.86C113.828 131.117 114.484 146.943 115.758 155.015C116.232 158.025 117.87 160.671 120.358 162.43C122.664 164.069 125.444 164.761 128.223 164.409L137.484 114.901L131.173 111.964C130.614 111.758 130.056 111.661 129.51 111.661L129.498 111.673Z" fill="#005321"/>
<path d="M135.299 113.663C117.106 122.56 120.079 164.239 123.247 156.544L131.306 157.903L147.509 121.625L135.299 113.663Z" fill="#9CCA54"/>
<path d="M131.306 158.996C131.306 158.996 131.185 158.996 131.124 158.984L123.842 157.746C123.417 158.352 122.919 158.632 122.312 158.571C121.002 158.425 120.528 156.714 120.237 155.039C118.623 145.803 120.589 119.635 134.814 112.68C135.153 112.51 135.566 112.535 135.894 112.741L148.104 120.703C148.553 120.994 148.723 121.577 148.504 122.062L132.301 158.34C132.119 158.741 131.731 158.984 131.306 158.984V158.996ZM123.247 155.452C123.247 155.452 123.368 155.452 123.429 155.464L130.651 156.69L146.126 122.038L135.226 114.926C128.247 118.7 124.983 127.597 123.465 134.479C121.402 143.848 121.79 152.733 122.567 155.67C122.761 155.524 122.992 155.439 123.235 155.439L123.247 155.452Z" fill="#005321"/>
<path d="M213.73 211.016C240.334 208.333 258.2 196.33 258.686 174.908C258.844 167.783 252.848 169.774 250.226 164.627C245.274 154.918 249.498 143.751 248.903 133.568C248.114 120.047 237.737 108.748 224.192 108.444C216.242 108.262 209.093 111.891 204.481 117.656C203.534 118.846 202.09 119.526 200.573 119.477C195.281 119.295 183.253 118.907 179.576 119.077C175.934 119.246 174.344 116.661 172.208 113.7C167.863 107.704 161.176 104.051 153.201 103.869C139.656 103.565 129.182 112.935 127.847 126.42C127.276 132.221 128.235 136.882 130.25 140.559C123.829 148.218 119.242 158.644 119.023 168.414C118.55 189.533 133.915 200.153 157.182 205.967" fill="#FDD108"/>
<path d="M213.73 212.108C213.171 212.108 212.698 211.683 212.649 211.125C212.589 210.53 213.026 209.984 213.633 209.923C241.536 207.107 257.156 194.667 257.606 174.871C257.678 171.4 256.258 170.635 254.098 169.482C252.423 168.584 250.517 167.565 249.267 165.113C245.869 158.449 246.597 151.191 247.301 144.176C247.665 140.499 248.017 137.027 247.823 133.617C247.034 120.169 236.875 109.804 224.18 109.512C216.837 109.355 209.943 112.559 205.343 118.324C204.178 119.78 202.381 120.618 200.536 120.545C195.463 120.363 183.29 119.975 179.624 120.145C175.619 120.327 173.75 117.705 171.747 114.913L171.322 114.319C167.062 108.444 160.617 105.107 153.177 104.937C140.178 104.657 130.226 113.505 128.939 126.492C128.417 131.76 129.182 136.299 131.221 139.989C131.439 140.389 131.391 140.875 131.1 141.215C124.436 149.165 120.322 159.323 120.128 168.39C119.715 186.802 131.573 198.393 157.462 204.862C158.044 205.008 158.408 205.602 158.251 206.185C158.093 206.768 157.522 207.12 156.928 206.974C129.886 200.214 117.494 187.931 117.943 168.329C118.149 158.996 122.264 148.594 128.963 140.365C126.973 136.408 126.245 131.663 126.779 126.262C128.162 112.316 138.71 102.728 152.558 102.728C152.789 102.728 153.007 102.728 153.238 102.728C161.37 102.91 168.434 106.563 173.106 113.008L173.543 113.615C175.582 116.455 176.881 118.057 179.539 117.936C183.277 117.766 195.536 118.154 200.634 118.336C201.774 118.385 202.915 117.851 203.656 116.928C208.693 110.629 216.242 107.109 224.253 107.303C238.089 107.619 249.17 118.858 250.032 133.459C250.238 137.039 249.862 140.766 249.498 144.358C248.818 151.058 248.126 157.988 251.234 164.081C252.18 165.926 253.625 166.703 255.154 167.516C257.387 168.718 259.924 170.065 259.815 174.883C259.341 195.614 242.604 209.159 213.875 212.059C213.839 212.059 213.802 212.059 213.766 212.059L213.73 212.108Z" fill="#005321"/>
<path d="M167.608 109.779L167.912 109.172C163.919 105.908 158.882 104.002 153.177 103.868C139.632 103.565 129.158 112.935 127.823 126.419C127.713 127.524 127.665 128.592 127.665 129.624L130.238 132.889C142.411 102.618 167.608 109.779 167.608 109.779Z" fill="white"/>
<path d="M213.73 212.108C213.171 212.108 212.698 211.683 212.649 211.125C212.589 210.53 213.026 209.984 213.633 209.923C241.536 207.107 257.156 194.667 257.606 174.871C257.678 171.4 256.258 170.635 254.098 169.482C252.423 168.584 250.517 167.564 249.267 165.113C245.869 158.449 246.597 151.228 247.301 144.249C247.653 140.741 248.017 137.124 247.823 133.714C247.046 120.436 236.657 109.804 224.18 109.524C216.837 109.367 209.943 112.571 205.343 118.336C204.178 119.792 202.381 120.63 200.536 120.557C195.463 120.375 183.29 119.987 179.624 120.157C175.619 120.339 173.75 117.717 171.747 114.925L171.322 114.331C167.062 108.456 160.617 105.119 153.177 104.949C140.178 104.67 130.226 113.518 128.939 126.504C128.417 131.772 129.182 136.311 131.221 140.001C131.439 140.401 131.391 140.887 131.1 141.227C124.436 149.177 120.322 159.335 120.128 168.402C119.715 186.814 131.573 198.405 157.462 204.874C158.044 205.02 158.408 205.615 158.251 206.197C158.093 206.78 157.522 207.132 156.928 206.986C129.886 200.226 117.494 187.943 117.943 168.341C118.149 159.008 122.264 148.606 128.963 140.377C126.973 136.42 126.245 131.675 126.779 126.274C128.162 112.328 138.71 102.74 152.558 102.74C152.789 102.74 153.007 102.74 153.238 102.74C161.37 102.922 168.434 106.575 173.106 113.02L173.543 113.627C175.582 116.467 176.881 118.069 179.539 117.948C183.277 117.778 195.536 118.166 200.634 118.348C201.774 118.397 202.915 117.863 203.656 116.94C208.693 110.641 216.242 107.121 224.253 107.315C237.858 107.619 249.182 119.149 250.032 133.556C250.238 137.137 249.862 140.851 249.498 144.443C248.794 151.422 248.126 158 251.234 164.093C252.18 165.938 253.625 166.715 255.154 167.528C257.387 168.73 259.924 170.077 259.815 174.895C259.341 195.626 242.604 209.171 213.875 212.072C213.839 212.072 213.802 212.072 213.766 212.072L213.73 212.108Z" fill="#005321"/>
<path d="M193.448 174.786C192.72 174.786 191.968 174.762 191.154 174.713C187.61 174.507 156.648 172.65 151.442 170.744C150.677 170.562 145.555 169.154 143.164 163.851C142.921 163.304 143.164 162.649 143.71 162.406C144.256 162.151 144.912 162.406 145.155 162.952C147.23 167.552 151.939 168.62 151.988 168.633C152.036 168.633 152.097 168.657 152.146 168.681C155.944 170.138 179.394 171.837 191.264 172.529C191.264 172.529 191.264 172.529 191.276 172.529C202.928 173.196 204.7 168.475 204.724 168.426C204.918 167.868 205.537 167.552 206.095 167.734C206.666 167.916 206.981 168.511 206.799 169.082C206.727 169.324 204.906 174.774 193.436 174.774L193.448 174.786Z" fill="#005321"/>
<mask id="mask0_295_536" style="mask-type:luminance" maskUnits="userSpaceOnUse" x="126" y="121" width="111" height="36">
<path d="M131.197 121.528L231.778 128.276C237.033 128.434 236.378 134.818 236.378 134.818C236.378 142.695 233.732 150.754 226.146 154.323C220.733 156.872 214.519 156.714 208.705 155.925C203.267 155.197 198.376 153.194 194.019 149.844C191.179 147.672 188.678 145.099 186.494 142.283C184.928 140.256 183.824 137.962 182.343 135.923C181.141 134.272 178.884 133.75 176.93 133.775C173.094 133.884 170.74 136.712 170.74 136.712C163.724 144.953 152.036 150.572 141.052 149.347C134.935 148.667 130.311 145.912 127.92 140.147C125.941 135.377 125.674 129.466 126.973 124.453C128.563 120.97 131.197 121.516 131.197 121.516V121.528Z" fill="white"/>
</mask>
<g mask="url(#mask0_295_536)">
<path d="M131.197 121.528L231.778 128.276C237.033 128.434 236.378 134.818 236.378 134.818C236.378 142.695 233.732 150.754 226.146 154.323C220.733 156.872 214.519 156.714 208.705 155.925C203.267 155.197 198.376 153.194 194.019 149.844C191.179 147.672 188.678 145.099 186.494 142.283C184.928 140.256 183.824 137.962 182.343 135.923C181.141 134.272 178.884 133.75 176.93 133.775C173.094 133.884 170.74 136.712 170.74 136.712C163.724 144.953 152.036 150.572 141.052 149.347C134.935 148.667 130.311 145.912 127.92 140.147C125.941 135.377 125.674 129.466 126.973 124.453C128.563 120.97 131.197 121.516 131.197 121.516V121.528Z" fill="#28333B"/>
<path d="M175.121 111.879L112.008 150.378L116.911 158.34L180.037 119.841L175.121 111.879Z" fill="#3F6A75"/>
<path d="M163.809 105.895L98.8147 145.535L102.092 150.852L167.099 111.211L163.809 105.895Z" fill="#3F6A75"/>
</g>
<path d="M215.502 157.539C213.038 157.539 210.683 157.296 208.571 157.017C202.94 156.265 197.83 154.141 193.363 150.73C190.572 148.594 187.974 145.985 185.644 142.962C184.758 141.809 184.018 140.596 183.302 139.406C182.695 138.411 182.124 137.464 181.481 136.566C180.34 135 177.913 134.855 176.966 134.867C173.786 134.952 171.711 137.282 171.601 137.416C163.955 146.409 151.648 151.641 140.967 150.439C134.061 149.662 129.34 146.349 126.937 140.571C124.922 135.704 124.546 129.575 125.941 124.186L126.002 124.004C127.774 120.132 130.748 120.339 131.342 120.436L231.875 127.184C233.525 127.233 234.885 127.84 235.868 128.968C237.834 131.226 237.494 134.77 237.482 134.928C237.482 140.559 236.086 150.852 226.631 155.318C223.027 157.017 219.155 157.539 215.514 157.539H215.502ZM177.075 132.694C179.806 132.694 182.039 133.641 183.241 135.292C183.945 136.263 184.564 137.294 185.159 138.278C185.875 139.455 186.554 140.571 187.368 141.627C189.589 144.492 192.053 146.98 194.686 148.995C198.898 152.223 203.534 154.141 208.863 154.857C213.79 155.524 220.162 155.949 225.685 153.34C234.059 149.395 235.297 140.05 235.297 134.818C235.297 134.685 235.552 131.942 234.217 130.4C233.635 129.745 232.834 129.405 231.753 129.369L130.99 122.596C130.784 122.56 129.158 122.39 128.017 124.83C126.767 129.757 127.106 135.328 128.939 139.734C131.039 144.783 135.044 147.575 141.186 148.266C151.175 149.383 162.729 144.455 169.914 136.008L169.951 136.044C170.849 134.806 173.628 132.779 176.905 132.682C176.966 132.682 177.015 132.682 177.075 132.682V132.694Z" fill="#28333B"/>
<path d="M139.822 162.598C140.186 158.896 137.149 155.567 133.04 155.164C128.93 154.76 125.304 157.434 124.941 161.137C124.577 164.839 127.613 168.168 131.723 168.571C135.832 168.975 139.458 166.301 139.822 162.598Z" fill="#F8C6B5"/>
<path d="M132.544 169.701C132.241 169.701 131.937 169.689 131.622 169.652C129.364 169.434 127.313 168.426 125.856 166.824C124.364 165.186 123.66 163.134 123.866 161.023C124.072 158.923 125.165 157.042 126.949 155.719C128.697 154.432 130.906 153.85 133.163 154.068C137.86 154.529 141.343 158.401 140.931 162.698C140.53 166.715 136.877 169.701 132.556 169.701H132.544ZM132.216 156.216C130.76 156.216 129.364 156.653 128.235 157.491C126.961 158.437 126.172 159.76 126.026 161.241C125.881 162.722 126.39 164.178 127.459 165.356C128.563 166.557 130.104 167.322 131.828 167.48C135.311 167.819 138.431 165.586 138.734 162.491C139.037 159.396 136.428 156.593 132.932 156.253C132.69 156.228 132.447 156.216 132.216 156.216Z" fill="#E56C66"/>
<path d="M237.717 172.192C237.951 168.156 232.357 164.551 225.223 164.138C218.089 163.725 212.117 166.662 211.884 170.698C211.65 174.733 217.244 178.338 224.378 178.751C231.512 179.164 237.484 176.227 237.717 172.192Z" fill="#F8C6B5"/>
<path d="M225.709 179.884C225.248 179.884 224.787 179.872 224.313 179.847C216.461 179.398 210.525 175.344 210.792 170.635C210.926 168.268 212.589 166.193 215.477 164.773C218.16 163.45 221.643 162.843 225.284 163.049C233.137 163.499 239.072 167.552 238.805 172.262C238.672 174.628 237.009 176.704 234.12 178.124C231.778 179.277 228.84 179.884 225.721 179.884H225.709ZM223.876 165.186C221.085 165.186 218.487 165.72 216.448 166.727C214.3 167.783 213.062 169.215 212.977 170.757C212.783 174.131 218.038 177.286 224.447 177.663C227.712 177.857 230.807 177.323 233.161 176.158C235.31 175.102 236.548 173.67 236.633 172.128C236.827 168.754 231.571 165.598 225.163 165.222C224.738 165.198 224.301 165.186 223.876 165.186Z" fill="#E56C66"/>
<path d="M261.769 119.538L259.098 176L254.426 175.429C240.346 174.167 237.846 120.339 258.674 119.659L261.756 119.538H261.769Z" fill="#9CCA54"/>
<path d="M259.098 177.092C259.098 177.092 259.013 177.092 258.965 177.092L254.292 176.522C248.139 175.976 241.852 165.271 242.386 146.519C242.956 126.286 251.161 118.822 258.649 118.579L261.732 118.457C262.036 118.457 262.339 118.567 262.545 118.785C262.764 119.004 262.873 119.295 262.861 119.61L260.191 176.073C260.179 176.376 260.033 176.655 259.802 176.862C259.608 177.031 259.353 177.116 259.098 177.116V177.092ZM260.628 120.679L258.734 120.751C248.818 121.079 244.91 134.867 244.582 146.579C244.17 161.362 248.636 173.815 254.535 174.349L258.067 174.774L260.628 120.679Z" fill="#005321"/>
<path d="M269.852 119.319L268.942 176.886C268.942 176.886 263.844 176.619 260.506 176.182C257.605 175.794 255.057 173.9 253.794 171.109C253.273 169.956 252.848 168.875 252.641 168.22C245.917 146.968 251.877 120.594 260.992 119.562L269.84 119.319H269.852Z" fill="#9CCA54"/>
<path d="M268.942 177.978C268.942 177.978 268.905 177.978 268.881 177.978C268.675 177.978 263.698 177.699 260.361 177.262C257.047 176.825 254.219 174.689 252.799 171.558C252.277 170.392 251.828 169.276 251.598 168.548C246.221 151.556 248.879 131.833 254.426 123.3C256.307 120.412 258.528 118.749 260.87 118.482L269.816 118.239C270.119 118.227 270.398 118.348 270.617 118.555C270.823 118.761 270.944 119.052 270.944 119.343L270.034 176.91C270.034 177.201 269.901 177.493 269.682 177.687C269.476 177.881 269.209 177.978 268.942 177.978ZM268.735 120.448L261.028 120.654C259.45 120.836 257.763 122.159 256.258 124.49C250.991 132.609 248.503 151.507 253.685 167.892C253.892 168.535 254.316 169.591 254.802 170.66C255.906 173.099 258.091 174.762 260.652 175.102C262.958 175.405 266.187 175.636 267.874 175.733L268.747 120.448H268.735Z" fill="#005321"/>
<path d="M258.176 144.225C260.397 119.137 267.558 119.319 267.558 119.319C279.343 117.923 283.251 128.628 283.251 128.628L280.351 168.548C280.205 173.5 275.799 175.624 273.153 176.57C273.153 176.57 268.201 177.335 265.835 176.485C265.835 176.485 255.579 173.682 258.176 144.212V144.225Z" fill="#9CCA54"/>
<path d="M269.039 177.99C267.764 177.99 266.454 177.881 265.458 177.529C265.106 177.444 254.413 174.422 257.084 144.14C259.256 119.598 266.308 118.288 267.485 118.239C279.95 116.807 284.235 128.155 284.283 128.264C284.332 128.41 284.356 128.568 284.344 128.713L281.443 168.633C281.358 171.436 279.914 175.308 273.53 177.602C273.469 177.626 273.396 177.638 273.323 177.651C272.996 177.699 271.066 177.99 269.039 177.99ZM267.546 120.412C267.546 120.412 261.32 121.091 259.268 144.322C256.805 172.213 266.041 175.417 266.138 175.442C267.886 176.061 271.503 175.709 272.886 175.502C277.025 173.997 279.173 171.643 279.258 168.511L282.147 128.798C281.54 127.342 277.717 119.222 267.692 120.399C267.643 120.399 267.607 120.399 267.546 120.399V120.412Z" fill="#005321"/>
<path d="M286.189 150.111C287.196 137.379 284.186 126.82 280.763 126.517C277.341 126.213 273.76 136.287 272.753 149.007C271.745 161.739 273.7 172.31 277.11 172.614C280.521 172.917 285.181 162.831 286.189 150.099V150.111Z" fill="#9CCA54"/>
<path d="M277.28 173.718C277.195 173.718 277.11 173.718 277.025 173.718C272.255 173.293 270.726 160.925 271.673 148.934C272.534 138.083 275.229 129.005 278.397 126.335C279.186 125.667 280.011 125.364 280.873 125.436C285.375 125.837 288.313 137.185 287.293 150.208C286.504 160.209 283.324 169.676 279.732 172.699C278.919 173.39 278.093 173.73 277.28 173.73V173.718ZM280.618 127.609C280.387 127.609 280.108 127.742 279.805 127.997C277.523 129.927 274.743 137.792 273.845 149.104C272.777 162.515 275.132 171.351 277.219 171.533C277.486 171.558 277.887 171.376 278.312 171.024C280.982 168.778 284.259 160.658 285.096 150.026C286.152 136.675 282.778 127.791 280.666 127.609C280.654 127.609 280.63 127.609 280.618 127.609Z" fill="#005321"/>
<path d="M210.829 268.097C209.518 278.899 209.639 289.252 216.873 293.719C225.017 298.756 232.057 291.862 239.254 279.858C250.445 261.167 244.145 257.841 243.09 257.343C238.125 254.989 234.909 261.519 234.909 261.519C234.909 261.519 238.247 254.066 232.057 252.549C226.304 251.141 224.823 258.933 224.823 258.933C224.823 258.933 226.085 252.695 221.279 251.882C220.818 251.809 212.965 250.486 210.829 268.121V268.097Z" fill="#FDD108"/>
<path d="M222.25 296.474C220.259 296.474 218.269 295.867 216.303 294.653C208.28 289.689 208.486 278.377 209.749 267.976C210.707 260.074 212.916 254.795 216.315 252.258C218.682 250.486 220.866 250.692 221.473 250.789C222.978 251.044 224.143 251.76 224.944 252.925C225.236 253.338 225.454 253.787 225.612 254.248C226.146 253.459 226.826 252.719 227.675 252.173C229.047 251.299 230.612 251.056 232.324 251.481C234.229 251.942 235.564 252.95 236.293 254.455C236.742 255.365 236.9 256.348 236.912 257.307C238.647 255.911 240.941 255.122 243.563 256.36C244.995 257.04 246.027 258.29 246.536 259.989C247.847 264.334 245.723 271.216 240.201 280.428C234.399 290.126 229.581 294.981 224.592 296.207C223.816 296.401 223.027 296.486 222.25 296.486V296.474ZM220.624 252.901C219.992 252.901 218.864 253.059 217.614 253.993C215.623 255.474 213.014 259.152 211.921 268.218C210.744 277.94 210.477 288.463 217.456 292.784C219.713 294.18 221.874 294.592 224.083 294.058C228.391 293.002 232.919 288.317 238.332 279.287C244.801 268.497 245.226 263.169 244.449 260.608C244.109 259.504 243.502 258.739 242.628 258.314C238.708 256.445 236.014 261.761 235.904 261.98C235.637 262.514 234.994 262.732 234.46 262.477C233.926 262.222 233.683 261.591 233.926 261.045C233.938 261.009 235.431 257.61 234.339 255.377C233.89 254.467 233.064 253.884 231.814 253.581C230.685 253.302 229.726 253.435 228.865 253.981C226.692 255.377 225.94 258.921 225.903 259.091V259.103C225.782 259.698 225.211 260.074 224.617 259.953C224.022 259.831 223.646 259.261 223.755 258.678C223.755 258.678 223.755 258.678 223.755 258.654C223.779 258.496 224.277 255.778 223.136 254.115C222.675 253.447 222.019 253.059 221.097 252.901C221.024 252.889 220.854 252.865 220.624 252.865V252.901Z" fill="#005321"/>
<path d="M281.443 154.177L280.933 158.547C281.953 158.971 283.13 156.168 283.616 152.09C284.113 147.866 283.664 143.885 282.62 143.193C282.098 142.853 281.528 143.399 281.018 144.552L278.19 150.997C277.729 152.077 277.207 151.738 277.049 150.245C276.879 148.764 277.134 146.676 277.596 145.608C278.057 144.54 278.579 144.88 278.736 146.361C278.846 147.356 279.185 147.575 279.501 146.858C279.817 146.142 279.974 144.759 279.865 143.764C279.477 140.292 277.778 139.406 276.685 141.894C275.593 144.395 274.962 149.262 275.35 152.721C275.544 154.456 276.503 155.609 276.989 155.937C277.474 156.265 278.045 155.828 278.591 154.578L279.647 152.175L281.407 148.157C281.625 147.635 281.88 147.38 282.111 147.538C282.56 147.829 282.742 149.541 282.535 151.349C282.341 153.012 281.868 154.177 281.455 154.129" fill="white"/>
<mask id="mask1_295_536" style="mask-type:luminance" maskUnits="userSpaceOnUse" x="279" y="148" width="3" height="11">
<path d="M281.334 154.129C280.885 153.837 280.703 152.126 280.909 150.318C281.018 149.432 281.188 148.691 281.407 148.194L279.647 152.211C279.55 155.355 279.999 157.964 280.824 158.498C280.86 158.522 280.897 158.534 280.933 158.547L281.443 154.165C281.443 154.165 281.37 154.153 281.334 154.129Z" fill="white"/>
</mask>
<g mask="url(#mask1_295_536)">
<path d="M279.552 148.175L279.551 148.77L281.444 148.773L281.445 148.178L279.552 148.175Z" fill="white"/>
<path d="M281.455 155.063H279.55V148.776H281.455V155.063Z" fill="white"/>
<path d="M279.554 155.059L279.548 158.543L281.441 158.546L281.447 155.063L279.554 155.059Z" fill="white"/>
</g>
</g>
<g clip-path="url(#clip1_295_536)">
<path d="M10.1457 52.3343C10.1457 52.3343 9.57161 58.2714 13.5901 60.5224C17.6087 62.7734 18.6813 62.7583 18.6813 62.7583C6.79188 70.2968 14.2246 74.8743 14.2246 74.8743C8.99753 100.179 19.2704 106.554 27.9722 108.79C44.4995 113.02 55.3465 101.478 55.3465 101.478C64.0785 99.8918 66.2841 90.2534 66.2841 90.2534C72.6443 100.677 85.6063 106.056 99.3236 101.523C105.487 99.4839 109.234 92.0814 109.234 92.0814C109.234 92.0814 116.561 89.7398 119.023 79.5877C124.613 56.4586 103.599 49.3582 103.599 49.3582C108.479 46.095 108.69 40.3694 108.69 40.3694C112.467 25.1866 105.412 10.2909 93.3563 5.01846C80.3792 -0.661855 69.2452 3.77967 66.4352 9.42977C56.7213 10.0643 55.7695 18.0711 55.7695 18.0711C55.7695 18.0711 47.8684 5.77382 32.7763 12.557C32.7763 12.557 22.9717 8.28162 12.7139 19.8991C11.7773 20.9566 -3.81339 38.5867 10.1608 52.3343H10.1457Z" fill="white"/>
<path d="M64.2597 89.2262C64.2597 89.2262 67.5229 101.554 54.289 109.334C47.5511 113.292 45.9196 119.924 50.6028 124.335C55.6637 129.109 63.8367 125.997 67.6135 120.831C71.6019 115.362 72.9615 103.185 68.7164 90.4499C64.0482 76.4908 64.2748 89.2111 64.2748 89.2111L64.2597 89.2262Z" fill="#008651"/>
<path d="M56.6608 128.067C53.9717 128.067 51.5546 127.13 49.6511 125.333C47.3699 123.172 46.2973 120.408 46.6145 117.537C47.0224 113.957 49.5604 110.543 53.5789 108.171C65.7252 101.04 63.0361 90.042 62.9303 89.5737C62.9001 89.468 62.885 89.3622 62.885 89.2565C62.7793 82.987 64.3655 82.6999 65.0453 82.5942C66.7827 82.292 68.0215 84.1804 69.9703 90.042C74.6686 104.107 72.5989 116.283 68.6711 121.646C66.118 125.151 61.8275 127.644 57.7485 128.022C57.3709 128.052 57.0083 128.067 56.6457 128.067H56.6608ZM65.6043 89.0752C65.9518 90.737 68.0064 102.853 54.9688 110.512C51.6905 112.446 49.636 115.105 49.3187 117.839C49.0921 119.879 49.8475 121.782 51.5093 123.353C53.5034 125.242 55.8904 125.453 57.5068 125.317C60.8455 125.015 64.3655 122.946 66.4956 120.045C70.1214 115.075 71.6019 103.472 67.4021 90.9031C66.6769 88.7428 66.1179 87.3832 65.7252 86.5372C65.6496 87.2925 65.6043 88.199 65.6043 89.0903V89.0752Z" fill="#005321"/>
<path d="M20.7358 105.889C26.96 112.446 37.5049 109.515 37.5049 109.515C47.7173 111.404 55.3314 101.478 55.3314 101.478C63.3986 99.1818 66.269 90.2534 66.269 90.2534C78.0829 107.657 96.4532 102.324 96.4532 102.324C106.62 99.9221 109.219 92.0814 109.219 92.0814C117.347 88.9542 119.084 79.2101 119.537 76.944C123.465 57.0175 103.569 49.3582 103.569 49.3582C108.448 46.095 108.66 40.3694 108.66 40.3694C115.488 16.3489 95.0936 1.06039 79.6389 1.99703C70.1969 2.57111 66.4352 9.42979 66.4352 9.42979C58.1866 11.0009 55.7695 18.0711 55.7695 18.0711C55.7695 18.0711 46.0555 10.3211 38.7285 17.074C38.7285 17.074 28.7124 15.3367 21.9595 20.0955C8.57451 29.5073 7.84936 43.693 11.8075 52.153C11.8075 52.153 4.46534 53.3465 13.5901 60.5224C16.959 62.0634 21.6725 62.3353 25.6306 62.5015C26.25 62.5317 26.3859 63.3777 25.8119 63.6194C17.0194 67.23 17.3367 71.6111 20.1618 75.0102C20.1618 75.0102 8.3479 92.8217 20.7509 105.874L20.7358 105.889Z" fill="#3FB266"/>
<path d="M37.4293 68.1364C33.3805 68.212 30.1627 71.5507 30.2382 75.5843C30.3138 79.633 33.6525 82.8509 37.6861 82.7753C41.7348 82.6998 44.9527 79.3611 44.8771 75.3275C44.8016 71.2787 41.4629 68.0609 37.4293 68.1364Z" fill="#F8C6B5"/>
<path d="M37.5502 84.4523C35.2085 84.4523 33.0029 83.561 31.3109 81.9294C29.5887 80.2676 28.6067 78.0166 28.5765 75.6146C28.5312 73.2125 29.4225 70.9464 31.0994 69.2091C32.7612 67.4869 35.0122 66.5049 37.4142 66.4596C42.324 66.3538 46.4785 70.327 46.5541 75.2973C46.6447 80.2525 42.6715 84.3616 37.7163 84.4372C37.6559 84.4372 37.6106 84.4372 37.5502 84.4372V84.4523ZM37.5653 69.7983C37.5653 69.7983 37.5048 69.7983 37.4595 69.7983C35.9488 69.8285 34.5287 70.4328 33.4863 71.5205C32.4288 72.6082 31.8698 74.0434 31.9001 75.5541C31.9303 77.0648 32.5346 78.4849 33.6223 79.5273C34.71 80.5848 36.2207 81.1287 37.6559 81.1136C40.7831 81.0532 43.2758 78.4698 43.2305 75.3577C43.1701 72.2759 40.6471 69.7983 37.5653 69.7983Z" fill="#E56C66"/>
<path d="M88.9904 60.9454C84.9417 61.0209 81.7239 64.3596 81.7994 68.3933C81.8749 72.442 85.2136 75.6598 89.2473 75.5843C93.296 75.5088 96.5138 72.1701 96.4383 68.1364C96.3628 64.0877 93.0241 60.8699 88.9904 60.9454Z" fill="#F8C6B5"/>
<path d="M89.1263 77.2613C86.7847 77.2613 84.5791 76.3699 82.8871 74.7383C81.1648 73.0766 80.1829 70.8256 80.1526 68.4235C80.1073 66.0215 80.9987 63.7554 82.6756 62.0181C84.3525 60.2807 86.5883 59.3139 88.9904 59.2685C93.9002 59.1477 98.0547 63.136 98.1302 68.1063C98.2209 73.0614 94.2477 77.1706 89.3076 77.2461C89.2472 77.2461 89.2019 77.2461 89.1414 77.2461L89.1263 77.2613ZM89.0206 62.6072C87.5099 62.6375 86.0898 63.2417 85.0474 64.3295C83.9899 65.4172 83.4309 66.8524 83.4611 68.3631C83.4913 69.8738 84.0956 71.2939 85.1834 72.3363C86.2711 73.3938 87.6912 73.9528 89.217 73.9226C92.3442 73.8621 94.8369 71.2788 94.7764 68.1667C94.716 65.0395 92.1629 62.577 89.0206 62.6072Z" fill="#E56C66"/>
<path d="M61.329 65.9308C59.8636 65.9308 58.4133 65.5078 57.1745 64.7071C56.54 64.2992 56.3587 63.4683 56.7666 62.8338C57.1745 62.1993 58.0054 62.018 58.6399 62.4259C59.637 63.0755 60.8456 63.3324 62.0088 63.1662C63.1872 63 64.2598 62.4259 65.0454 61.5346C65.5439 60.9756 66.405 60.9152 66.964 61.4138C67.523 61.9123 67.5834 62.7734 67.0849 63.3324C65.8612 64.7071 64.1994 65.6136 62.3865 65.8553C62.0391 65.9006 61.6765 65.9308 61.329 65.9308Z" fill="#005321"/>
<path d="M49.9986 63.7252C50.4065 66.6711 49.4094 68.3933 47.9138 68.5897C46.4182 68.7861 44.9981 67.4264 44.5751 64.4805C44.1672 61.5346 45.1643 59.8124 46.6599 59.616C48.1555 59.4045 49.5756 60.7793 49.9986 63.7252Z" fill="#005321"/>
<path d="M78.0073 59.3894C78.385 62.1994 77.4786 63.8309 76.1038 64.0424C74.7291 64.2539 73.4299 62.9245 73.0522 60.1146C72.6745 57.3046 73.5809 55.673 74.9557 55.4615C76.3304 55.2651 77.6297 56.5795 78.0073 59.3894Z" fill="#005321"/>
<path d="M35.2388 111.086C32.8518 111.086 30.3138 110.799 27.6247 110.104C13.711 106.539 8.83135 95.1936 12.7139 75.4333C11.8528 74.6477 10.5687 73.137 10.5687 70.9465C10.5687 68.3782 12.2758 65.7647 15.7202 63.1511C14.9649 62.8037 14.0585 62.3353 12.9254 61.7008C9.01264 59.5103 8.7256 54.6458 8.75582 52.8631C-4.96154 38.6925 9.91907 20.9869 11.6866 18.9927C21.0531 8.40254 30.0721 10.2305 32.7159 11.0916C44.3635 6.10625 52.0229 11.9074 55.2256 15.2612C56.3889 12.6024 59.1535 8.79533 65.6043 8.11551C69.1243 2.37476 80.3943 -2.1423 93.9001 3.74952C106.862 9.41473 113.796 25.2169 110.035 40.5507C109.974 41.4269 109.491 45.6872 106.167 48.9806C111.576 51.6545 125.036 60.4167 120.338 79.8748C118.087 89.1809 111.999 92.3836 110.171 93.1541C108.917 95.5863 105.019 101.04 99.7466 102.777C87.0415 106.977 74.1097 103.14 66.6769 93.2296C65.3173 96.4021 62.2354 101.388 55.981 102.702C54.0775 104.545 46.4786 111.041 35.2388 111.041V111.086ZM18.787 61.3987C19.3913 61.3987 19.8596 61.7915 20.0258 62.3656C20.2071 62.9547 19.905 63.5741 19.3913 63.9065C14.3304 67.1092 13.2729 69.4811 13.2729 70.9162C13.2729 72.6536 14.9045 73.7262 14.9196 73.7262C15.3879 74.0283 15.6447 74.6024 15.5239 75.1463C10.4176 99.8768 20.3582 105.436 28.2744 107.461C43.729 111.419 54.1379 100.723 54.3192 100.542C54.5156 100.33 54.7724 100.179 55.0746 100.134C62.7944 98.7286 64.8489 90.2988 64.9245 89.9362C65.0453 89.3924 65.4835 88.9845 66.0273 88.9089C66.5712 88.8183 67.115 89.0751 67.4021 89.5434C73.7924 100.043 86.4372 104.333 98.8553 100.224C104.4 98.3963 107.95 91.5376 107.98 91.4621C108.146 91.1448 108.433 90.888 108.781 90.7822C109.038 90.6916 115.428 88.4859 117.664 79.2554C122.876 57.6521 103.931 50.9143 103.116 50.6423C102.632 50.4762 102.27 50.0381 102.209 49.5395C102.149 49.0259 102.375 48.5273 102.798 48.2252C107.013 45.4001 107.285 40.3543 107.285 40.309C107.285 40.2184 107.3 40.1277 107.33 40.0371C110.835 25.942 104.581 11.424 92.7822 6.25732C80.4698 0.879145 70.0911 5.06385 67.6287 10.019C67.4172 10.4571 66.9791 10.7442 66.4956 10.7744C58.0809 11.3182 57.1292 17.9352 57.0989 18.2222C57.0234 18.7963 56.6004 19.2495 56.0414 19.3855C55.4825 19.5064 54.9084 19.2797 54.5911 18.7963C54.289 18.3431 47.098 7.58675 33.3051 13.7958C32.9425 13.962 32.5497 13.9469 32.2022 13.7958C31.7339 13.5994 23.0775 10.1852 13.6959 20.7905C12.0945 22.6033 -1.60774 38.8738 11.0672 51.3675C11.3543 51.6545 11.5053 52.0624 11.46 52.4703C11.46 52.4703 11.037 57.5615 14.2095 59.3441C17.6087 61.2476 18.6813 61.3987 18.7266 61.3987C18.7266 61.3987 18.7417 61.3987 18.7568 61.3987H18.787Z" fill="#005321"/>
</g>
<defs>
<clipPath id="clip0_295_536">
<rect width="188.673" height="235.474" fill="white" transform="translate(98.8147 61)"/>
</clipPath>
<clipPath id="clip1_295_536">
<rect width="118.305" height="127.067" fill="white" transform="translate(3 1)"/>
</clipPath>
</defs>
</svg>
