<svg width="188" height="59" viewBox="0 0 188 59" fill="none" xmlns="http://www.w3.org/2000/svg">
<path d="M181.035 57.1485H6.96499C3.12602 57.1485 0 54.0447 0 50.233V8.76687C0 4.95515 3.12602 1.85132 6.96499 1.85132H181.035C184.874 1.85132 188 4.95515 188 8.76687V50.233C188 54.0447 184.874 57.1485 181.035 57.1485Z" fill="black"/>
<path d="M181.035 2.94038C184.271 2.94038 186.876 5.55413 186.876 8.73964V50.2057C186.876 53.4185 184.243 56.005 181.035 56.005H6.96499C3.72929 56.005 1.12427 53.3912 1.12427 50.2057V8.76687C1.12427 5.55413 3.72929 2.94038 6.96499 2.94038H181.035ZM181.035 1.85132H6.96499C3.12602 1.85132 0 4.95515 0 8.76687V50.233C0 54.0447 3.12602 57.1485 6.96499 57.1485H181.035C184.874 57.1485 188 54.0447 188 50.233V8.76687C188 4.95515 184.874 1.85132 181.035 1.85132Z" fill="#A7A6A6"/>
<path d="M66.0305 16.0093C66.0305 17.18 65.674 18.0785 64.9885 18.7864C64.1932 19.6032 63.1786 20.0116 61.9173 20.0116C60.6559 20.0116 59.6961 19.6032 58.8461 18.7591C57.996 17.9151 57.5847 16.9077 57.5847 15.6825C57.5847 14.4573 57.996 13.4227 58.8461 12.6059C59.6961 11.7619 60.7107 11.3535 61.9173 11.3535C62.5205 11.3535 63.0964 11.4624 63.6448 11.7075C64.1932 11.9525 64.632 12.252 64.961 12.6332L64.2207 13.3683C63.6722 12.7148 62.9044 12.3881 61.9447 12.3881C61.0672 12.3881 60.2994 12.6876 59.6687 13.3138C59.038 13.94 58.709 14.7296 58.709 15.7098C58.709 16.6899 59.038 17.4795 59.6687 18.1057C60.2994 18.7319 61.0672 19.0314 61.9447 19.0314C62.877 19.0314 63.6448 18.7319 64.2755 18.1057C64.6868 17.6973 64.9062 17.1528 64.9885 16.4177H61.9447V15.4103H66.003C66.0305 15.6281 66.0579 15.8459 66.0579 16.0365" fill="white"/>
<path d="M66.0303 16.0093H65.8932C65.8932 17.1528 65.5641 18.024 64.906 18.6775C64.1382 19.4671 63.1785 19.8482 61.9445 19.8755C60.7654 19.8755 59.7782 19.4671 58.983 18.6775C58.1604 17.8607 57.7491 16.8805 57.7491 15.6826C57.7491 14.4846 58.1604 13.5044 58.983 12.6876C59.8057 11.8708 60.7928 11.4897 61.9445 11.4897C62.5204 11.4897 63.0688 11.5986 63.6172 11.8164C64.1382 12.0342 64.5495 12.3337 64.8786 12.7149L64.9883 12.6332L64.8786 12.5243L64.1382 13.2594L64.2479 13.3683L64.3576 13.2866C63.7817 12.606 62.9591 12.252 61.9719 12.252C61.067 12.252 60.2718 12.5787 59.5863 13.2049C58.9282 13.8312 58.5717 14.6752 58.5717 15.7098C58.5717 16.7172 58.9008 17.5612 59.5863 18.1874C60.2444 18.8136 61.067 19.1403 61.9719 19.1403C62.9317 19.1403 63.7543 18.8136 64.4124 18.1602C64.8512 17.7246 65.098 17.1256 65.1528 16.3905V16.2271H62.109V15.5192H66.0303V15.3831H65.8932C65.9206 15.6281 65.948 15.8187 65.948 16.0093H66.2222C66.2222 15.7915 66.2222 15.5737 66.1674 15.3558V15.2469H61.8348V16.5266H65.0157V16.3905H64.8786C64.8237 17.0711 64.6044 17.5884 64.2205 17.9696C63.6172 18.5686 62.8768 18.8681 61.9719 18.8681C61.1219 18.8681 60.4089 18.5686 59.7782 17.9968C59.175 17.3978 58.8733 16.6627 58.8733 15.7098C58.8733 14.7569 59.175 13.9945 59.7782 13.4228C60.4089 12.8238 61.1219 12.5515 61.9719 12.5515C62.9043 12.5515 63.6172 12.851 64.1656 13.4772L64.2753 13.5861L65.1254 12.7421L65.2076 12.6604L65.1254 12.5515C64.7963 12.1431 64.3302 11.8164 63.7543 11.5986C63.2059 11.3535 62.6026 11.2446 61.9719 11.2446C60.738 11.2446 59.6686 11.6803 58.7911 12.5243C57.9136 13.3683 57.4749 14.4574 57.4749 15.7098C57.4749 16.9622 57.9136 18.0513 58.7911 18.8953C59.6686 19.7393 60.738 20.1749 61.9719 20.1749C63.2607 20.1749 64.3302 19.7393 65.1528 18.8953C65.8658 18.1874 66.2222 17.2072 66.2222 16.0365H66.0851" fill="white"/>
<path d="M72.4469 12.5515H68.6353V15.1652H72.0904V16.1726H68.6353V18.8136H72.4469V19.821H67.5659V11.5168H72.4469V12.5515Z" fill="white"/>
<path d="M72.4468 12.5514V12.4152H68.4981V15.3012H71.9258V16.0364H68.4981V18.9496H72.3097V19.6847H67.7029V11.6529H72.3097V12.5514H72.4468V12.4152V12.5514H72.5839V11.3806H67.4287V19.957H72.5839V18.6773H68.7724V16.3086H72.2274V15.029H68.7724V12.6875H72.5839V12.5514H72.4468Z" fill="white"/>
<path d="M76.9715 19.821H75.9021V12.5515H73.5713V11.5168H79.3023V12.5515H76.9715V19.821Z" fill="white"/>
<path d="M76.9714 19.8209V19.6847H76.0391V12.4152H73.7083V11.6529H79.1651V12.4152H76.8343V19.8209H76.9714V19.6847V19.8209H77.1085V12.6875H79.4393V11.3806H73.4341V12.6875H75.7649V19.957H77.1085V19.8209H76.9714Z" fill="white"/>
<path d="M84.5396 11.5168H83.4702V19.821H84.5396V11.5168Z" fill="white"/>
<path d="M83.4704 19.8209H83.6075V11.6529H84.4027V19.6847H83.4704V19.8209H83.6075H83.4704V19.957H84.6769V11.3806H83.3333V19.957H83.4704V19.8209Z" fill="white"/>
<path d="M89.311 19.821H88.2415V12.5515H85.8833V11.5168H91.6418V12.5515H89.311V19.821Z" fill="white"/>
<path d="M89.3109 19.8209V19.6847H88.3785V12.4152H86.0203V11.6529H91.5045V12.4152H89.1737V19.8209H89.3109V19.6847V19.8209H89.448V12.6875H91.7788V11.3806H85.7461V12.6875H88.0769V19.957H89.448V19.8209H89.3109Z" fill="white"/>
<path d="M102.501 18.7591C101.678 19.6032 100.663 20.0116 99.4294 20.0116C98.1954 20.0116 97.1809 19.6032 96.3582 18.7591C95.5356 17.9151 95.1243 16.9077 95.1243 15.6825C95.1243 14.4573 95.5356 13.45 96.3582 12.6059C97.1809 11.7619 98.1954 11.3535 99.4294 11.3535C100.663 11.3535 101.651 11.7619 102.473 12.6059C103.296 13.45 103.707 14.4846 103.707 15.6825C103.707 16.8805 103.296 17.9151 102.473 18.7591M97.1809 18.0513C97.8115 18.6775 98.5519 18.977 99.4568 18.977C100.362 18.977 101.102 18.6775 101.733 18.0513C102.363 17.425 102.665 16.6355 102.665 15.6825C102.665 14.7296 102.363 13.9128 101.733 13.3138C101.13 12.6876 100.362 12.3881 99.4568 12.3881C98.5519 12.3881 97.8115 12.6876 97.1809 13.3138C96.5776 13.94 96.2485 14.7296 96.2485 15.6825C96.2485 16.6355 96.5502 17.4523 97.1809 18.0513Z" fill="white"/>
<path d="M102.501 18.759L102.391 18.6501C101.596 19.4669 100.608 19.8753 99.4294 19.8753C98.2503 19.8753 97.2631 19.4669 96.4679 18.6501C95.6727 17.8333 95.2888 16.8532 95.2888 15.6824C95.2888 14.5117 95.6727 13.5043 96.4679 12.7147C97.2631 11.898 98.2503 11.4896 99.4294 11.4896C100.608 11.4896 101.596 11.898 102.391 12.7147C103.186 13.5315 103.597 14.5117 103.597 15.6824C103.597 16.8532 103.214 17.8606 102.418 18.6501L102.61 18.8407C103.46 17.9695 103.872 16.9076 103.872 15.6824C103.872 14.4572 103.433 13.3682 102.61 12.5242C101.76 11.6529 100.691 11.2173 99.4568 11.2173C98.1954 11.2173 97.126 11.6529 96.3034 12.5242C95.4533 13.3954 95.042 14.4572 95.042 15.7097C95.042 16.9621 95.4533 18.0239 96.3034 18.868C97.1534 19.7392 98.2229 20.1748 99.4568 20.1748C100.718 20.1748 101.788 19.7392 102.61 18.868L102.501 18.759ZM97.1808 18.0512L97.0712 18.1601C97.7019 18.8135 98.5245 19.1402 99.4294 19.1402C100.362 19.1402 101.157 18.8135 101.788 18.1601C102.418 17.5066 102.747 16.6898 102.747 15.6824C102.747 14.6751 102.418 13.8583 101.788 13.2048C101.157 12.5514 100.334 12.2247 99.4294 12.2247C98.4971 12.2247 97.7019 12.5514 97.0712 13.2048C96.4405 13.8583 96.1114 14.6751 96.1114 15.6824C96.1114 16.6898 96.4405 17.5066 97.0712 18.1601L97.2631 17.9695C96.6598 17.3705 96.3856 16.6081 96.3856 15.6824C96.3856 14.7567 96.6873 13.9944 97.2631 13.3954C97.8664 12.7964 98.5793 12.4969 99.4294 12.4969C100.279 12.4969 101.02 12.7964 101.596 13.3954C102.172 13.9944 102.473 14.7567 102.473 15.6824C102.473 16.6081 102.172 17.3705 101.596 17.9695C100.992 18.5685 100.279 18.868 99.4294 18.868C98.5793 18.868 97.8664 18.5685 97.2631 17.9695L97.1534 18.0784L97.1808 18.0512Z" fill="white"/>
<path d="M105.243 19.821V11.5168H106.559L110.617 17.9695H110.645L110.617 16.3904V11.5168H111.687V19.821H110.562L106.312 13.0688H106.257L106.312 14.6479V19.821H105.243Z" fill="white"/>
<path d="M105.243 19.8209H105.38V11.6529H106.477L110.535 18.1328H110.809L110.754 16.3903V11.6529H111.55V19.6847H110.645L106.395 12.9053H106.12L106.175 14.6478V19.6847H105.243V19.8209H105.38H105.243V19.957H106.449V14.6478L106.395 13.0414L106.257 13.0687V13.2048H106.312V13.0687L106.203 13.1231L110.48 19.957H111.824V11.3806H110.48V16.3903L110.508 17.9967L110.645 17.9694V17.8333H110.617V17.9694L110.727 17.915L106.614 11.3806H105.106V19.957H105.243V19.8209Z" fill="white"/>
<path d="M94.8775 31.9367C91.6144 31.9367 88.9271 34.4143 88.9271 37.8177C88.9271 41.221 91.587 43.6986 94.8775 43.6986C98.1681 43.6986 100.828 41.1938 100.828 37.8177C100.828 34.4416 98.1681 31.9367 94.8775 31.9367ZM94.8775 41.3571C93.0952 41.3571 91.5322 39.8869 91.5322 37.7904C91.5322 35.694 93.0952 34.2238 94.8775 34.2238C96.6599 34.2238 98.2229 35.6668 98.2229 37.7904C98.2229 39.9141 96.6873 41.3571 94.8775 41.3571ZM81.9073 31.9367C78.6167 31.9367 75.9569 34.4143 75.9569 37.8177C75.9569 41.221 78.6167 43.6986 81.9073 43.6986C85.1978 43.6986 87.8577 41.1938 87.8577 37.8177C87.8577 34.4416 85.1978 31.9367 81.9073 31.9367ZM81.9073 41.3571C80.1249 41.3571 78.5619 39.8869 78.5619 37.7904C78.5619 35.694 80.1249 34.2238 81.9073 34.2238C83.6897 34.2238 85.2527 35.6668 85.2527 37.7904C85.2527 39.9141 83.7171 41.3571 81.9073 41.3571ZM66.4966 33.7337V36.2385H72.5018C72.3099 37.6543 71.8437 38.6617 71.1308 39.3696C70.2533 40.2408 68.8822 41.1938 66.4966 41.1938C62.7947 41.1938 59.888 38.2261 59.888 34.5505C59.888 30.8749 62.7947 27.9072 66.4966 27.9072C68.4983 27.9072 69.9516 28.6968 71.0211 29.6769L72.8034 27.9072C71.2953 26.4914 69.2935 25.4023 66.4966 25.4023C61.4236 25.4023 57.1733 29.5136 57.1733 34.5505C57.1733 39.5874 61.4236 43.6714 66.4966 43.6714C69.2387 43.6714 71.2953 42.7729 72.9131 41.1121C74.5858 39.4513 75.0794 37.137 75.0794 35.2856C75.0794 34.7138 75.0246 34.1693 74.9423 33.7337H66.4966ZM129.593 35.6668C129.099 34.3599 127.591 31.9367 124.52 31.9367C121.449 31.9367 118.926 34.3327 118.926 37.8177C118.926 41.1121 121.449 43.6986 124.794 43.6986C127.509 43.6986 129.072 42.0378 129.73 41.0849L127.701 39.7508C127.043 40.7309 126.11 41.3843 124.794 41.3843C123.478 41.3843 122.518 40.7854 121.915 39.6146L129.84 36.3747L129.565 35.694L129.593 35.6668ZM121.504 37.6271C121.421 35.3673 123.286 34.1965 124.602 34.1965C125.644 34.1965 126.522 34.7138 126.796 35.449L121.504 37.6271ZM115.06 43.3174H117.665V26.0286H115.06V43.3174ZM110.809 33.2436H110.727C110.151 32.5629 109.027 31.9367 107.601 31.9367C104.64 31.9367 101.925 34.5232 101.925 37.8449C101.925 41.1665 104.64 43.6986 107.601 43.6986C109.027 43.6986 110.124 43.0724 110.727 42.3645H110.809V43.2085C110.809 45.4683 109.603 46.6663 107.656 46.6663C106.065 46.6663 105.078 45.5228 104.667 44.5699L102.391 45.4956C103.049 47.0475 104.777 48.9806 107.628 48.9806C110.672 48.9806 113.25 47.2108 113.25 42.8546V32.2907H110.782V33.2436H110.809ZM107.82 41.3571C106.038 41.3571 104.53 39.8597 104.53 37.8177C104.53 35.7757 106.038 34.2238 107.82 34.2238C109.603 34.2238 110.974 35.7484 110.974 37.8177C110.974 39.8869 109.575 41.3571 107.82 41.3571ZM141.768 26.0558H135.543V43.3447H138.148V36.7831H141.768C144.647 36.7831 147.471 34.7138 147.471 31.4194C147.471 28.125 144.647 26.0558 141.768 26.0558ZM141.85 34.3871H138.148V28.4517H141.85C143.797 28.4517 144.894 30.0581 144.894 31.4194C144.894 32.7807 143.797 34.3871 141.85 34.3871ZM157.892 31.8823C155.999 31.8823 154.053 32.6991 153.257 34.5232L155.561 35.4762C156.054 34.5232 156.959 34.1965 157.946 34.1965C159.29 34.1965 160.661 34.9861 160.689 36.4291V36.6197C160.222 36.3474 159.208 35.9663 157.974 35.9663C155.478 35.9663 152.956 37.3276 152.956 39.8597C152.956 42.1739 154.985 43.6714 157.288 43.6714C159.043 43.6714 160.003 42.8818 160.606 41.9833H160.689V43.3174H163.184V36.7014C163.184 33.6248 160.88 31.9095 157.892 31.9095V31.8823ZM157.59 41.3571C156.74 41.3571 155.561 40.9487 155.561 39.8869C155.561 38.5528 157.041 38.0355 158.303 38.0355C159.455 38.0355 159.976 38.2805 160.689 38.6072C160.497 40.2136 159.098 41.3299 157.59 41.3299V41.3571ZM172.315 32.2634L169.326 39.7508H169.244L166.145 32.2634H163.348L167.983 42.7457L165.35 48.5722H168.065L175.222 32.2634H172.343H172.315ZM148.925 43.3174H151.53V26.0286H148.925V43.3174Z" fill="white"/>
<path d="M14.5333 12.2792C14.122 12.7148 13.9026 13.3683 13.9026 14.2123V44.7605C13.9026 45.6045 14.1494 46.2852 14.5333 46.6936L14.643 46.8025L31.8909 29.677V29.2686L14.643 12.1431L14.5333 12.252" fill="#5AC9F4"/>
<mask id="mask0_421_1255" style="mask-type:luminance" maskUnits="userSpaceOnUse" x="31" y="23" width="16" height="13">
<path d="M37.6219 35.4217L31.8909 29.7041V29.2957L37.6493 23.5781L44.5869 27.4988C46.5338 28.5878 46.5338 30.3848 44.5869 31.4738L37.7864 35.3128L37.6493 35.3945" fill="white"/>
</mask>
<g mask="url(#mask0_421_1255)">
<path d="M46.4795 23.605H31.864V35.4213H46.4795V23.605Z" fill="url(#paint0_linear_421_1255)"/>
</g>
<mask id="mask1_421_1255" style="mask-type:luminance" maskUnits="userSpaceOnUse" x="14" y="29" width="24" height="19">
<path d="M37.7592 35.3402L31.891 29.5137L14.5608 46.7209C15.1915 47.4015 16.2609 47.4832 17.44 46.8026L37.7592 35.3402Z" fill="white"/>
</mask>
<g mask="url(#mask1_421_1255)">
<path d="M26.1717 17.9558L5.5022 38.4785L26.1717 59.0013L46.8411 38.4785L26.1717 17.9558Z" fill="url(#paint1_linear_421_1255)"/>
</g>
<mask id="mask2_421_1255" style="mask-type:luminance" maskUnits="userSpaceOnUse" x="14" y="11" width="24" height="19">
<path d="M37.7592 23.66L17.44 12.1976C16.2609 11.5169 15.1915 11.5986 14.5608 12.2792L31.891 29.4864L37.7592 23.66Z" fill="white"/>
</mask>
<g mask="url(#mask2_421_1255)">
<path d="M26.1529 -0.00540461L5.4834 20.5173L26.1529 41.0401L46.8223 20.5173L26.1529 -0.00540461Z" fill="url(#paint2_linear_421_1255)"/>
</g>
<defs>
<linearGradient id="paint0_linear_421_1255" x1="43.6464" y1="29.6651" x2="9.83105" y2="29.6651" gradientUnits="userSpaceOnUse">
<stop stop-color="#FEE000"/>
<stop offset="0.4" stop-color="#FBBD0D"/>
<stop offset="0.77" stop-color="#F9A417"/>
<stop offset="1" stop-color="#F99B1B"/>
</linearGradient>
<linearGradient id="paint1_linear_421_1255" x1="33.5669" y1="31.4885" x2="1.99119" y2="63.2899" gradientUnits="userSpaceOnUse">
<stop stop-color="#EF4547"/>
<stop offset="1" stop-color="#C6176D"/>
</linearGradient>
<linearGradient id="paint2_linear_421_1255" x1="1.75126" y1="-4.16848" x2="27.0286" y2="21.2896" gradientUnits="userSpaceOnUse">
<stop stop-color="#269E6F"/>
<stop offset="0.05" stop-color="#2BA06E"/>
<stop offset="0.47" stop-color="#52B26A"/>
<stop offset="0.8" stop-color="#6BBC68"/>
<stop offset="1" stop-color="#74C168"/>
</linearGradient>
</defs>
</svg>
