<svg width="60" height="60" viewBox="0 0 60 60" fill="none" xmlns="http://www.w3.org/2000/svg">
<path d="M24.6123 10C24.6123 8.89543 25.4789 8 26.5478 8H34.2897C35.3587 8 36.2252 8.89543 36.2252 10V12C36.2252 13.1046 35.3587 14 34.2897 14H26.5478C25.4789 14 24.6123 13.1046 24.6123 12V10Z" fill="black"/>
<path d="M30.4194 16C40.0398 16 47.8387 24.0589 47.8387 34C47.8387 43.9411 40.0398 52 30.4194 52C20.7989 52 13 43.9411 13 34C13 24.0589 20.7989 16 30.4194 16ZM30.4194 20.5C29.6177 20.5 28.9677 21.1716 28.9677 22V34.0498C28.9687 34.0773 28.9711 34.1046 28.9734 34.1318C28.9743 34.142 28.9752 34.152 28.9762 34.1621C28.98 34.1978 28.9851 34.2333 28.9914 34.2686C28.994 34.2836 28.9968 34.2986 28.9999 34.3135C29.0067 34.3463 29.0146 34.3789 29.0235 34.4111C29.0275 34.4258 29.0313 34.4406 29.0358 34.4551C29.0744 34.5801 29.1293 34.6994 29.1983 34.8105C29.2052 34.8216 29.2119 34.8329 29.2191 34.8438C29.2386 34.8733 29.2599 34.9015 29.2815 34.9297C29.2887 34.9391 29.2958 34.9487 29.3032 34.958C29.3568 35.0247 29.4165 35.0865 29.4819 35.1436C29.4882 35.1491 29.4944 35.1547 29.5008 35.1602C29.5223 35.1783 29.5442 35.1959 29.5669 35.2129C29.5865 35.2276 29.6062 35.2421 29.6264 35.2559C29.6422 35.2664 29.6584 35.2761 29.6746 35.2861C29.6988 35.3011 29.7233 35.3156 29.7484 35.3291C29.7555 35.3329 29.762 35.3381 29.7692 35.3418L37.5111 39.3418C38.2281 39.7123 39.1003 39.4118 39.4589 38.6709C39.8174 37.9299 39.5267 37.0287 38.8096 36.6582L31.871 33.0732V22C31.871 21.1716 31.2211 20.5 30.4194 20.5Z" fill="black"/>
</svg>
