<svg width="40" height="40" viewBox="0 0 40 40" fill="none" xmlns="http://www.w3.org/2000/svg">
<path d="M22 22.5227C22 23.6272 21.1046 24.5227 20 24.5227C18.8954 24.5227 18 23.6272 18 22.5227L18 11.0125C18 9.90788 18.8954 9.01245 20 9.01245C21.1046 9.01245 22 9.90788 22 11.0125L22 22.5227Z" fill="#F8DA29"/>
<path d="M22 29.0536C22 30.1581 21.1046 31.0536 20 31.0536C18.8954 31.0536 18 30.1581 18 29.0536L18 28.9719C18 27.8674 18.8954 26.9719 20 26.9719C21.1046 26.9719 22 27.8674 22 28.9719L22 29.0536Z" fill="#F8DA29"/>
<circle cx="20" cy="20" r="18" stroke="#F8DA29" stroke-width="4"/>
</svg>
