<svg width="160" height="160" viewBox="0 0 160 160" fill="none" xmlns="http://www.w3.org/2000/svg">
<circle cx="80" cy="80" r="80" fill="white"/>
<path d="M73.9949 122.182L80.5514 129.396L70.0787 129.362L59.1408 117.162L70.1458 104.864L80.6184 104.898L74.0232 112.054L92.8989 112.087L106.687 39.2902C110.838 38.6699 116.179 39.7544 116.113 44.8478L102.885 118.141C102.44 120.448 100.422 122.159 98.0666 122.221L74.0758 122.203L73.9949 122.182Z" fill="#2D9AD7"/>
<path d="M77.2017 54.6053L83.787 46.8408L52.7136 46.7442L60.8807 104.201L50.7531 104.172L41.3723 42.8391C40.6206 40.472 43.6491 36.6057 45.9022 36.603L83.8959 36.7347L77.3397 29.5204L87.8124 29.5545L99.3969 41.9276L87.7553 54.661L77.2826 54.6269L77.2017 54.6053Z" fill="#2D9AD7"/>
</svg>
