<svg width="150" height="150" viewBox="0 0 150 150" fill="none" xmlns="http://www.w3.org/2000/svg">
<rect x="15" y="35" width="120" height="76" rx="3" fill="black" stroke="#5D5D5D" stroke-width="4"/>
<mask id="mask0_989_2158" style="mask-type:luminance" maskUnits="userSpaceOnUse" x="29" y="50" width="92" height="22">
<path d="M29 50.0002H120.928V72H29V50.0002Z" fill="white"/>
</mask>
<g mask="url(#mask0_989_2158)">
<path d="M32.3421 71.8906C30.56 71.8906 29.1104 70.4605 29.1104 68.7019V53.2979C29.1104 51.5403 30.56 50.1102 32.3421 50.1102H47.949C49.7311 50.1102 51.1808 51.5403 51.1808 53.2979V68.7019C51.1808 70.4605 49.7311 71.8906 47.949 71.8906H32.3421Z" fill="#5D5D5D"/>
<path d="M47.9493 50.2201C49.67 50.2201 51.0704 51.6021 51.0704 53.3002V68.7C51.0704 70.3984 49.67 71.7801 47.9493 71.7801H32.3439C30.6232 71.7801 29.2234 70.3984 29.2234 68.7V53.3002C29.2234 51.6021 30.6232 50.2201 32.3439 50.2201H47.9493ZM47.9493 50.0002H32.3439C30.4974 50.0002 29 51.4774 29 53.3002V68.7C29 70.5223 30.4974 72 32.3439 72H47.9493C49.7959 72 51.2932 70.5223 51.2932 68.7V53.3002C51.2932 51.4774 49.7959 50.0002 47.9493 50.0002Z" fill="#5D5D5D"/>
<path d="M38.4355 58.3983V67.4487C38.4355 68.3775 39.2005 69.1406 40.1432 69.1406C41.0864 69.1406 41.8529 68.3775 41.8529 67.4487V58.3227C41.8529 55.3249 40.2438 53.7406 37.1977 53.7406H34.4415C33.5004 53.7406 32.7344 54.497 32.7344 55.4284C32.7344 56.3587 33.5004 57.1203 34.4415 57.1203H37.1154C37.7576 57.1203 38.4355 57.543 38.4355 58.3983Z" fill="black"/>
<path d="M45.843 53.7408H43.096C42.1772 53.7408 41.3865 53.8873 40.7354 54.1687C41.6563 54.8802 42.2236 55.947 42.3992 57.3477C42.6284 57.1985 42.8972 57.1195 43.1717 57.1205H45.843C46.2979 57.1206 46.7343 56.9424 47.0561 56.6252C47.378 56.3079 47.5591 55.8775 47.5596 55.4286C47.5596 54.4968 46.7941 53.7408 45.843 53.7408Z" fill="black"/>
<path d="M77.9055 65.6852C77.9055 66.5203 78.3737 67.0352 79.2378 67.0352C80.0834 67.0352 80.5875 66.5203 80.5875 65.6852V61.0666C80.5875 58.9349 79.2013 58.0641 77.5453 58.0641C76.1772 58.0641 75.1511 58.5795 74.5393 59.6277C74.2512 58.7393 73.5311 58.0641 72.343 58.0641C71.1193 58.0641 70.3449 58.5971 69.9313 59.4322C69.8773 58.7926 69.3912 58.2064 68.6169 58.2064C67.8071 58.2064 67.2852 58.6685 67.2852 59.5744V65.6852C67.2852 66.5203 67.789 67.0352 68.6355 67.0352C69.4809 67.0352 69.9669 66.5203 69.9669 65.6852V61.8306C69.9669 60.9068 70.4891 60.3205 71.2992 60.3205C72.1094 60.3205 72.6316 60.9243 72.6316 61.688V65.6852C72.6316 66.5203 73.0991 67.0352 73.9455 67.0352C74.791 67.0352 75.2416 66.5203 75.2416 65.6852V61.8306C75.2416 60.9068 75.763 60.3205 76.5733 60.3205C77.3833 60.3205 77.9055 60.9243 77.9055 61.688V65.6852Z" fill="#5D5D5D"/>
<path d="M84.6286 62.6297C84.6286 61.3683 85.3128 60.2673 86.5365 60.2673C87.7429 60.2673 88.4452 61.3683 88.4452 62.6297C88.4452 63.8914 87.7429 64.9925 86.5365 64.9925C85.3128 64.9925 84.6286 63.8914 84.6286 62.6297ZM81.9463 62.6297C81.9463 65.3836 83.7467 67.1953 86.5365 67.1953C89.3268 67.1953 91.1267 65.3836 91.1267 62.6297C91.1267 59.8761 89.3268 58.0647 86.5365 58.0647C83.7467 58.0647 81.9463 59.8761 81.9463 62.6297Z" fill="#5D5D5D"/>
<path d="M92.4854 65.6852C92.4854 66.5203 93.0075 67.0352 93.8535 67.0352C94.6994 67.0352 95.2033 66.5203 95.2033 65.6852V61.7589C95.2033 60.9243 95.8697 60.3381 96.6975 60.3381C97.5797 60.3381 98.1915 60.9776 98.1915 61.7773V65.6852C98.1915 66.5203 98.6956 67.0352 99.5416 67.0352C100.388 67.0352 100.91 66.5203 100.91 65.6852V61.4573C100.91 59.4322 99.6496 58.0641 97.5797 58.0641C96.518 58.0641 95.5095 58.5795 95.1317 59.4146C95.0777 58.7926 94.6635 58.2064 93.8176 58.2064C92.9714 58.2064 92.4854 58.7393 92.4854 59.5744V65.6852Z" fill="#5D5D5D"/>
<path d="M104.807 61.546C104.807 60.7109 105.689 60.0714 106.697 60.0714C107.705 60.0714 108.587 60.7109 108.587 61.546H104.807ZM110.369 66.1111C110.909 65.6141 111.161 64.9213 110.711 64.4238C110.279 63.9088 109.541 63.9266 109.037 64.3532C108.461 64.8147 107.885 65.1342 106.949 65.1342C105.743 65.1342 104.807 64.2999 104.807 63.3047H109.685C110.675 63.3047 111.017 62.8608 111.017 61.8836C111.017 59.9115 109.451 58.0644 106.697 58.0644C103.997 58.0644 102.269 59.9648 102.269 62.5762C102.269 65.2768 103.906 67.1953 106.949 67.1953C108.317 67.1953 109.541 66.8756 110.369 66.1111Z" fill="#5D5D5D"/>
<path d="M114.528 59.075C114.222 58.3289 113.484 57.9734 112.728 58.3113C111.972 58.6487 111.702 59.2882 112.062 60.0876L115.14 66.731L114.87 67.3887C114.618 68.0284 114.312 68.6855 113.664 68.6855C113.448 68.6855 113.196 68.6322 112.998 68.5965C112.44 68.49 111.9 68.7745 111.738 69.3605C111.576 69.947 111.918 70.4975 112.44 70.7107C112.908 70.9062 113.358 70.9238 113.808 70.9238C115.645 70.9238 116.364 69.5915 117.21 67.7796L120.774 60.0876C121.134 59.2882 120.864 58.6487 120.108 58.3113C119.352 57.9734 118.615 58.3289 118.308 59.075L116.418 63.4983L114.528 59.075Z" fill="#5D5D5D"/>
<path d="M61.3249 65.5427C61.3249 66.4313 61.9192 67.0352 62.8192 67.0352C63.7191 67.0352 64.295 66.4313 64.295 65.5427V56.4121H67.2112C68.0755 56.4121 68.7589 55.9681 68.7589 55.0797C68.7589 54.2092 68.0755 53.7648 67.2112 53.7648H58.4266C57.5448 53.7648 56.8789 54.2092 56.8789 55.0797C56.8789 55.9681 57.5448 56.4121 58.4266 56.4121H61.3249V65.5427Z" fill="#5D5D5D"/>
</g>
<g clip-path="url(#clip0_989_2158)">
<mask id="mask1_989_2158" style="mask-type:luminance" maskUnits="userSpaceOnUse" x="44" y="81" width="62" height="19">
<path d="M44 81H106V100H44V81Z" fill="white"/>
</mask>
<g mask="url(#mask1_989_2158)">
<path d="M80.971 97.3478L85.2028 81.5903H92.7679L89.3671 94.2682H98.3859L96.9616 99.573H82.6064C81.12 99.573 80.5778 98.8309 80.9748 97.3473L80.971 97.3478ZM61.8043 93.1402C59.7899 94.031 56.5338 94.7144 54.3154 94.664C50.9353 94.5874 48.5749 93.5294 48.5347 92.8345C48.5129 92.4274 48.8844 92.0637 49.3325 92.0897C49.6643 92.1076 49.9699 92.3329 50.2245 92.4209C52.097 93.2493 54.348 93.5039 56.6719 93.1586C61.7749 92.2021 63.363 89.908 63.8003 87.5889C64.6052 83.2726 61.0755 80.8178 57.0145 81.0106C51.3758 81.2776 46.4658 84.6873 44.6374 90.3189C42.5027 96.5759 45.9448 100.161 51.6418 100.161C56.5082 100.161 59.1633 99.1176 60.2962 98.7468L61.8005 93.1402H61.8043ZM56.8976 87.2246C56.4935 88.7338 55.9692 89.9552 54.9528 89.9552C53.9363 89.9552 54.0717 88.7338 54.4758 87.2246C54.8799 85.716 55.4112 84.4941 56.4206 84.4941C57.4295 84.4941 57.3017 85.716 56.8976 87.2246ZM73.0339 94.2671H80.1666L78.7417 99.5719H63.5708C61.7168 99.5719 61.3817 98.3136 62.8241 96.7762L72.3383 86.6248H65.5782L66.9291 81.5892H81.5502C83.4042 81.5892 83.7393 82.847 82.2969 84.385L73.0339 94.2671Z" fill="#5D5D5D"/>
</g>
</g>
<defs>
<clipPath id="clip0_989_2158">
<rect width="62" height="19" fill="white" transform="translate(44 81)"/>
</clipPath>
</defs>
</svg>
