<svg width="160" height="160" viewBox="0 0 160 160" fill="none" xmlns="http://www.w3.org/2000/svg">
<path d="M33.3333 45.7397V114.208L68.6667 126.499V32.9389L33.3333 45.7397ZM74 126.499L73.9896 126.839C73.7742 130.325 70.2717 132.703 66.9141 131.535L31.5807 119.246C29.5706 118.547 28.1824 116.726 28.0169 114.63L28 114.208V45.7397C28.0002 43.6355 29.2357 41.7429 31.1289 40.8842L31.5169 40.7254L66.8503 27.9246C70.3275 26.6649 74 29.2405 74 32.9389V126.499Z" fill="#4D321F"/>
<path d="M140.234 58.9485C140.234 67.9799 138.157 75.1957 134.062 80.4112C129.118 86.708 121.307 90.1052 110.825 90.5252V101.432C110.825 102.869 109.107 103.647 107.99 102.715L81.9391 80.9902C81.132 80.3171 81.132 79.0958 81.9391 78.4227L107.99 56.6974C109.107 55.7659 110.825 56.5439 110.825 57.9812V68.8031C117.189 68.6353 121.995 67.7346 125.822 66.0064C129.957 64.1387 132.956 61.3476 136.19 57.732L137.22 56.5786C138.267 55.408 140.234 56.1331 140.234 57.6892V58.9485Z" fill="#4D321F"/>
<path d="M109.333 41.333C111.542 41.333 113.333 43.124 113.333 45.333V52.3408C111.639 51.1155 109.416 50.6563 107.333 51.1875V47.333H34V112.666H107.333V108.225C109.416 108.756 111.638 108.296 113.333 107.07V114.666C113.333 116.875 111.542 118.666 109.333 118.666H32C29.7909 118.666 28 116.875 28 114.666V45.333C28.0002 43.124 29.791 41.333 32 41.333H109.333ZM108.208 56.543C109.317 55.866 110.827 56.6339 110.827 57.9814V68.8027C111.691 68.78 112.525 68.7414 113.333 68.6914V90.3613C112.515 90.4349 111.68 90.4912 110.827 90.5254V101.432C110.827 102.869 109.109 103.647 107.992 102.716L107.333 102.166V57.2461L107.992 56.6973L108.208 56.543Z" fill="#4D321F"/>
<path d="M66.8496 28.3236C70.3269 27.0637 74 29.6397 74 33.3382V126.898C74 130.567 70.3808 133.14 66.915 131.935L31.5811 119.645C29.4371 118.899 28 116.878 28 114.608V46.14C28 43.895 29.4059 41.8901 31.5166 41.1253L66.8496 28.3236ZM64.5 75.0003C62.567 75.0003 61 77.2389 61 80.0003C61.0001 82.7616 62.5671 85.0003 64.5 85.0003C66.4329 85.0003 67.9999 82.7616 68 80.0003C68 77.2389 66.433 75.0003 64.5 75.0003Z" fill="#4D321F"/>
</svg>
