<svg width="150" height="150" viewBox="0 0 150 150" fill="none" xmlns="http://www.w3.org/2000/svg">
<mask id="path-1-inside-1_3486_5115" fill="white">
<path d="M38 18C38 12.4772 42.4772 8 48 8H102C107.523 8 112 12.4772 112 18V132C112 137.523 107.523 142 102 142H48C42.4772 142 38 137.523 38 132V18Z"/>
</mask>
<path d="M34 18C34 10.268 40.268 4 48 4H102C109.732 4 116 10.268 116 18H108C108 14.6863 105.314 12 102 12H48C44.6863 12 42 14.6863 42 18H34ZM116 132C116 138.075 111.075 143 105 143H45C38.9249 143 34 138.075 34 132H42C42 136.971 44.6863 141 48 141H102C105.314 141 108 136.971 108 132H116ZM45 143C38.9249 143 34 138.075 34 132V18C34 10.268 40.268 4 48 4V12C44.6863 12 42 14.6863 42 18V132C42 136.971 44.6863 141 48 141L45 143ZM102 4C109.732 4 116 10.268 116 18V132C116 138.075 111.075 143 105 143L102 141C105.314 141 108 136.971 108 132V18C108 14.6863 105.314 12 102 12V4Z" fill="black" mask="url(#path-1-inside-1_3486_5115)"/>
<path d="M102 8C107.523 8 112 12.4772 112 18V22H38V18C38 12.4772 42.4772 8 48 8H102ZM67 14C66.4477 14 66 14.4477 66 15C66 15.5523 66.4477 16 67 16H83C83.5523 16 84 15.5523 84 15C84 14.4477 83.5523 14 83 14H67Z" fill="black"/>
<path d="M112 126V131C112 136.523 107.523 141 102 141H48C42.4772 141 38 136.523 38 131V126H112ZM75 129C72.2386 129 70 131.239 70 134C70 136.761 72.2386 139 75 139C77.7614 139 80 136.761 80 134C80 131.239 77.7614 129 75 129Z" fill="black"/>
<path d="M63.0312 84L64.6094 87.9463C64.8708 88.5999 65.708 88.7859 66.2217 88.3047L70.8135 84H91V87H72L68.2734 90.4932C66.2187 92.4192 62.8702 91.6754 61.8242 89.0605L61 87H59V84H63.0312ZM93 82V64C93 62.8954 92.1046 62 91 62H59C57.8954 62 57 62.8954 57 64V82C57 83.1046 57.8954 84 59 84V87L58.7432 86.9932C56.1862 86.8638 54.1362 84.8138 54.0068 82.2568L54 82V64C54 61.2386 56.2386 59 59 59H91L91.2568 59.0068C93.8989 59.1405 96 61.3247 96 64V82C96 84.7614 93.7614 87 91 87V84C92.1046 84 93 83.1046 93 82Z" fill="black"/>
<path d="M65 70C66.6569 70 68 71.3431 68 73C68 74.6569 66.6569 76 65 76C63.3431 76 62 74.6569 62 73C62 71.3431 63.3431 70 65 70ZM75 70C76.6569 70 78 71.3431 78 73C78 74.6569 76.6569 76 75 76C73.3431 76 72 74.6569 72 73C72 71.3431 73.3431 70 75 70ZM85 70C86.6569 70 88 71.3431 88 73C88 74.6569 86.6569 76 85 76C83.3431 76 82 74.6569 82 73C82 71.3431 83.3431 70 85 70Z" fill="black"/>
</svg>
