<svg width="205" height="205" viewBox="0 0 205 205" fill="none" xmlns="http://www.w3.org/2000/svg">
<path d="M102.5 0C159.109 0 205 45.8908 205 102.5C205 159.109 159.109 205 102.5 205C45.8908 205 0 159.109 0 102.5C0 45.8908 45.8908 0 102.5 0ZM153.856 75.5508C150.847 72.3162 145.785 72.1339 142.551 75.1436L90.4521 123.616L60.8984 96.5957C57.6377 93.6144 52.577 93.8409 49.5957 97.1016C46.6147 100.362 46.841 105.423 50.1016 108.404L85.1016 140.404C88.1776 143.217 92.8978 143.195 95.9492 140.356L153.449 86.8564C156.684 83.8468 156.866 78.7854 153.856 75.5508Z" fill="url(#paint0_linear_287_52132)"/>
<defs>
<linearGradient id="paint0_linear_287_52132" x1="43.5" y1="20" x2="152.5" y2="190" gradientUnits="userSpaceOnUse">
<stop stop-color="#F8DA29"/>
<stop offset="1" stop-color="#E7BE0B"/>
</linearGradient>
</defs>
</svg>
