<svg width="360" height="94" viewBox="0 0 360 94" fill="none" xmlns="http://www.w3.org/2000/svg">
<mask id="mask0_287_51548" style="mask-type:alpha" maskUnits="userSpaceOnUse" x="10" y="19" width="336" height="57">
<path d="M331.686 24.9425H334.399V26.1416H331.686V24.9425ZM325.555 28.3989H326.559C327.393 28.3989 328.127 28.393 328.761 28.3812C329.407 28.3577 330.012 28.3166 330.576 28.2578C331.14 28.1873 331.709 28.0932 332.285 27.9756L332.443 29.1395C331.833 29.2688 331.24 29.3688 330.664 29.4393C330.088 29.4981 329.472 29.5392 328.814 29.5627C328.168 29.5745 327.416 29.5804 326.559 29.5804H325.555V28.3989ZM325.555 21.9799H331.58V23.179H326.964V29.0866H325.555V21.9799ZM326.524 25.1188H330.946V26.2651H326.524V25.1188ZM336.866 20.9395H338.257V30.5327H336.866V20.9395ZM333.782 21.2216H335.174V30.3916H333.782V21.2216ZM327.792 31.2909H338.257V36.6871H327.792V31.2909ZM336.83 32.4725H329.237V35.488H336.83V32.4725Z" fill="#6F6F6F"/>
<path d="M315.358 22.0332H316.644V23.2676C316.644 23.9612 316.521 24.6196 316.274 25.2427C316.04 25.8658 315.711 26.4477 315.288 26.9885C314.877 27.5176 314.395 27.9937 313.843 28.4169C313.303 28.8401 312.721 29.1987 312.099 29.4926C311.488 29.7865 310.866 30.0099 310.231 30.1627L309.579 28.9459C310.132 28.8284 310.684 28.6462 311.236 28.3993C311.799 28.1524 312.328 27.8526 312.821 27.4999C313.315 27.1355 313.749 26.7299 314.125 26.2831C314.513 25.8364 314.812 25.3603 315.024 24.8547C315.247 24.3375 315.358 23.8084 315.358 23.2676V22.0332ZM315.64 22.0332H316.891V23.2676C316.891 23.8084 317.003 24.3375 317.226 24.8547C317.449 25.3603 317.748 25.8364 318.124 26.2831C318.512 26.7299 318.952 27.1355 319.446 27.4999C319.939 27.8526 320.462 28.1583 321.014 28.4169C321.578 28.6638 322.141 28.8401 322.705 28.9459L322.036 30.1627C321.401 30.0099 320.779 29.7865 320.168 29.4926C319.557 29.1987 318.976 28.8401 318.424 28.4169C317.884 27.9937 317.402 27.5176 316.979 26.9885C316.556 26.4477 316.227 25.8658 315.993 25.2427C315.758 24.6196 315.64 23.9612 315.64 23.2676V22.0332ZM308.98 33.5309H323.427V34.7477H308.98V33.5309Z" fill="#6F6F6F"/>
<path d="M297.32 22.3149H298.536V25.1717C298.536 26.0887 298.419 26.9822 298.184 27.8522C297.96 28.7104 297.637 29.5157 297.215 30.2681C296.803 31.0088 296.316 31.6671 295.752 32.2432C295.2 32.8075 294.595 33.2543 293.938 33.5834L293.039 32.3666C293.638 32.0962 294.196 31.7083 294.713 31.2028C295.23 30.6972 295.682 30.1271 296.069 29.4922C296.457 28.8456 296.762 28.152 296.986 27.4113C297.209 26.6707 297.32 25.9242 297.32 25.1717V22.3149ZM297.567 22.3149H298.783V25.1717C298.783 25.9006 298.888 26.6178 299.1 27.3232C299.323 28.0285 299.628 28.6987 300.016 29.3335C300.415 29.9566 300.867 30.5091 301.372 30.9911C301.889 31.4614 302.441 31.8317 303.029 32.1021L302.148 33.266C301.502 32.9603 300.903 32.5312 300.351 31.9787C299.799 31.4261 299.311 30.7913 298.888 30.0742C298.477 29.357 298.154 28.5811 297.919 27.7464C297.684 26.9117 297.567 26.0535 297.567 25.1717V22.3149ZM304.702 20.9395H306.165V36.9164H304.702V20.9395Z" fill="#6F6F6F"/>
<path d="M277.836 22.456H279.228V26.3356H282.575V22.456H283.932V32.9133H277.836V22.456ZM279.228 27.5171V31.7142H282.575V27.5171H279.228ZM289.411 20.9395H290.821V36.8987H289.411V20.9395ZM286.856 27.2526H289.922V28.4694H286.856V27.2526ZM285.87 21.2745H287.262V36.0875H285.87V21.2745Z" fill="#6F6F6F"/>
<path d="M262.102 28.5752H263.106C263.951 28.5752 264.691 28.5693 265.326 28.5575C265.972 28.534 266.577 28.4929 267.14 28.4341C267.704 28.3635 268.28 28.2695 268.867 28.1519L269.026 29.3511C268.415 29.4686 267.816 29.5627 267.228 29.6332C266.653 29.692 266.036 29.7332 265.379 29.7567C264.721 29.7802 263.963 29.7919 263.106 29.7919H262.102V28.5752ZM262.102 22.1033H268.25V23.3024H263.511V29.2276H262.102V22.1033ZM263.071 25.2775H268.074V26.4237H263.071V25.2775ZM273.448 20.957H274.84V30.6208H273.448V20.957ZM270.875 25.1012H273.871V26.3003H270.875V25.1012ZM269.924 21.2568H271.298V30.515H269.924V21.2568ZM264.163 31.4496H274.84V36.8987H273.395V32.6487H264.163V31.4496Z" fill="#6F6F6F"/>
<path d="M257.155 20.957H258.617V32.5958H257.155V20.957ZM248.381 35.3468H259.11V36.546H248.381V35.3468ZM248.381 31.4143H249.843V35.7524H248.381V31.4143ZM250.072 22.068C250.871 22.068 251.581 22.2326 252.204 22.5618C252.826 22.891 253.32 23.3553 253.684 23.9549C254.048 24.5427 254.23 25.2187 254.23 25.9829C254.23 26.747 254.048 27.4289 253.684 28.0285C253.32 28.6163 252.826 29.0807 252.204 29.4216C251.581 29.7508 250.871 29.9154 250.072 29.9154C249.285 29.9154 248.574 29.7508 247.94 29.4216C247.318 29.0807 246.824 28.6163 246.46 28.0285C246.096 27.4289 245.914 26.747 245.914 25.9829C245.914 25.2187 246.096 24.5427 246.46 23.9549C246.824 23.3553 247.318 22.891 247.94 22.5618C248.574 22.2326 249.285 22.068 250.072 22.068ZM250.072 23.3377C249.555 23.3377 249.091 23.4494 248.68 23.6728C248.269 23.8961 247.94 24.2077 247.694 24.6074C247.459 25.0071 247.341 25.4656 247.341 25.9829C247.341 26.5119 247.459 26.9763 247.694 27.376C247.94 27.764 248.269 28.0696 248.68 28.293C249.091 28.5164 249.555 28.6281 250.072 28.6281C250.589 28.6281 251.053 28.5164 251.464 28.293C251.887 28.0696 252.216 27.764 252.45 27.376C252.685 26.9763 252.803 26.5119 252.803 25.9829C252.803 25.4656 252.685 25.0071 252.45 24.6074C252.216 24.2077 251.887 23.8961 251.464 23.6728C251.053 23.4494 250.589 23.3377 250.072 23.3377Z" fill="#6F6F6F"/>
<path d="M229.688 30.1977H244.134V31.3969H229.688V30.1977ZM236.153 30.9384H237.598V36.8812H236.153V30.9384ZM231.537 21.8213H242.285V28.0463H231.537V21.8213ZM240.84 23.0028H232.964V26.8824H240.84V23.0028Z" fill="#6F6F6F"/>
<path d="M201.806 42.6641H208.361L199.157 55.1839V66.7221H193.1V55.2872L183.758 42.6641H190.244L195.991 50.4653L201.806 42.6641Z" fill="black"/>
<path d="M183.446 50.0003C183.446 51.3665 183.131 52.595 182.5 53.6857C181.869 54.7763 180.911 55.6489 179.627 56.3033C178.353 56.9462 176.776 57.2677 174.895 57.2677H170.525V66.7221H164.469V42.6641H174.603C177.378 42.6641 179.546 43.307 181.106 44.5928C182.666 45.8672 183.446 47.6697 183.446 50.0003ZM177.252 50.0003C177.252 48.8752 176.937 48.0601 176.306 47.5549C175.687 47.0497 174.689 46.7972 173.312 46.7972H170.525V53.1518H173.553C176.019 53.1518 177.252 52.1013 177.252 50.0003Z" fill="black"/>
<path d="M161.579 50.0003C161.579 51.3665 161.264 52.595 160.633 53.6857C160.002 54.7763 159.044 55.6489 157.759 56.3033C156.486 56.9462 154.909 57.2677 153.028 57.2677H148.658V66.7221H142.602V42.6641H152.735C155.511 42.6641 157.679 43.307 159.239 44.5928C160.799 45.8672 161.579 47.6697 161.579 50.0003ZM155.385 50.0003C155.385 48.8752 155.07 48.0601 154.439 47.5549C153.819 47.0497 152.822 46.7972 151.445 46.7972H148.658V53.1518H151.686C154.152 53.1518 155.385 52.1013 155.385 50.0003Z" fill="black"/>
<path d="M134.516 66.7224L132.194 61.1772H121.871L119.565 66.7224H113.371L123.832 42.6299H130.146L140.71 66.7224H134.516ZM127.015 48.554L123.453 57.3024H130.594L127.015 48.554Z" fill="black"/>
<path d="M105.437 51.9808V42.6641H111.493V66.7221H105.437V57.0266H93.8063V66.7221H87.75V42.6641H93.8063V51.9808H105.437Z" fill="black"/>
<path d="M340.564 49.3631C340.564 50.7753 340.22 51.9865 339.531 52.9968C338.855 54.0071 337.857 54.7706 336.538 55.2872C337.318 55.7809 337.971 56.3262 338.499 56.9233C339.027 57.5088 339.841 58.6339 340.942 60.2986L345.175 66.7221H341.08L337.277 60.798C336.153 59.007 335.167 57.8015 334.318 57.1816C333.469 56.5616 332.575 56.2516 331.634 56.2516H330.086V66.7221H326.645V42.6641H333.269C334.794 42.6641 336.107 42.974 337.209 43.594C338.31 44.2025 339.141 45.0176 339.703 46.0394C340.277 47.0612 340.564 48.1691 340.564 49.3631ZM337.037 49.3631C337.037 48.1921 336.687 47.2908 335.987 46.6594C335.299 46.0165 334.307 45.695 333.01 45.695H330.086V53.2207H332.305C333.762 53.2207 334.915 52.9509 335.763 52.4113C336.612 51.8602 337.037 50.8442 337.037 49.3631Z" fill="black"/>
<path d="M312.418 45.7294V53.0657H322.259V56.1483H312.418V63.6223H322.93V66.7221H308.977V42.6641H322.603V45.7294H312.418Z" fill="black"/>
<path d="M300.147 42.6641H304.448L294.022 54.0645L307.012 66.7221H302.298L290.03 54.8395V66.7221H286.555V42.6641H290.03V53.6684L300.147 42.6641Z" fill="black"/>
<path d="M282.772 44.3349V47.9514C279.939 46.3556 277.169 45.5576 274.462 45.5576C272.581 45.5576 270.918 45.9882 269.472 46.8492C268.027 47.7103 266.909 48.8469 266.117 50.259C265.337 51.6597 264.947 53.1637 264.947 54.771C264.947 56.3668 265.326 57.8594 266.083 59.2485C266.852 60.6377 267.953 61.7514 269.386 62.5895C270.82 63.4161 272.501 63.8294 274.428 63.8294C277.456 63.8294 280.323 62.9339 283.03 61.1429V64.9315C280.392 66.3322 277.479 67.0325 274.29 67.0325C271.491 67.0325 269.117 66.4241 267.167 65.2071C265.217 63.9786 263.76 62.4287 262.797 60.5573C261.833 58.6745 261.352 56.7342 261.352 54.7366C261.352 52.4289 261.931 50.3279 263.089 48.4336C264.259 46.5393 265.842 45.0525 267.838 43.9733C269.834 42.8941 272.007 42.3545 274.359 42.3545C277.054 42.3545 279.859 43.0146 282.772 44.3349Z" fill="black"/>
<path d="M258.872 54.6677C258.872 56.849 258.35 58.8869 257.306 60.7812C256.263 62.6756 254.743 64.191 252.747 65.3276C250.751 66.4642 248.411 67.0325 245.727 67.0325C243.261 67.0325 241.065 66.4757 239.138 65.3621C237.222 64.2484 235.725 62.7559 234.647 60.8846C233.58 59.0132 233.047 56.9753 233.047 54.771C233.047 52.6241 233.552 50.6035 234.561 48.7091C235.57 46.8033 237.044 45.2706 238.983 44.1111C240.921 42.94 243.232 42.3545 245.916 42.3545C248.405 42.3545 250.636 42.8998 252.609 43.9905C254.582 45.0812 256.119 46.568 257.22 48.4508C258.321 50.3337 258.872 52.406 258.872 54.6677ZM236.608 54.771C236.608 56.4817 237.021 58.0258 237.847 59.4035C238.684 60.7812 239.809 61.8604 241.219 62.6411C242.63 63.4103 244.162 63.7949 245.813 63.7949C247.568 63.7949 249.163 63.4505 250.596 62.7617C252.03 62.0613 253.171 61.0281 254.02 59.6618C254.88 58.2841 255.311 56.6079 255.311 54.6332C255.311 53.1981 254.955 51.786 254.244 50.3968C253.533 49.0076 252.472 47.8595 251.061 46.9526C249.65 46.0456 247.97 45.5921 246.02 45.5921C244.093 45.5921 242.418 45.9997 240.996 46.8148C239.573 47.6299 238.484 48.7321 237.727 50.1213C236.981 51.499 236.608 53.0489 236.608 54.771Z" fill="black"/>
<path d="M233.766 63.5879V66.7221H219.469V42.6641H222.944V63.5879H233.766Z" fill="black"/>
<path d="M32.5498 20.2871C34.075 19.5447 35.8211 19.383 37.458 19.833L63.291 26.9346C66.3004 27.7619 68.3847 30.4828 68.3848 33.585V56.3477C68.3847 58.7165 67.1612 60.9197 65.1445 62.1836L46.0723 74.1357C44.3188 75.2346 42.1625 75.4979 40.1934 74.8535L15.2764 66.6992C12.4283 65.7671 10.5039 63.1236 10.5039 60.1445V35.3213C10.504 32.6877 12.0131 30.2838 14.3936 29.125L32.5498 20.2871ZM14.3633 61.5059L22.8525 64.5264V57.9346L29.7979 60.5479V66.791L39.8311 70.5654V46.4082L29.7979 42.6338V50.3584L22.8525 47.7461V40.3691L14.3633 37.3496V61.5059ZM59.1191 46.543C59.1188 44.8098 57.1682 43.7346 55.625 44.6172L55.2188 44.8506C53.8103 45.6561 52.9464 47.1202 52.9463 48.7021V49.6855C52.9465 50.9117 53.9224 51.8068 55.04 51.9141L52.9453 60.5234L58.7334 57.166L57.0244 51.2686C58.3265 50.4443 59.119 49.04 59.1191 47.5264V46.543Z" fill="#F68121"/>
</mask>
<g mask="url(#mask0_287_51548)">
<rect width="360" height="94" fill="white"/>
</g>
</svg>
