<svg width="360" height="94" viewBox="0 0 360 94" fill="none" xmlns="http://www.w3.org/2000/svg">
<path d="M331.686 24.943H334.399V26.1421H331.686V24.943ZM325.555 28.3994H326.559C327.393 28.3994 328.127 28.3935 328.761 28.3817C329.407 28.3582 330.012 28.3171 330.576 28.2583C331.14 28.1877 331.709 28.0937 332.285 27.9761L332.443 29.14C331.833 29.2693 331.24 29.3693 330.664 29.4398C330.088 29.4986 329.472 29.5397 328.814 29.5632C328.168 29.575 327.416 29.5809 326.559 29.5809H325.555V28.3994ZM325.555 21.9804H331.58V23.1795H326.964V29.0871H325.555V21.9804ZM326.524 25.1193H330.946V26.2656H326.524V25.1193ZM336.866 20.9399H338.257V30.5331H336.866V20.9399ZM333.782 21.2221H335.174V30.3921H333.782V21.2221ZM327.792 31.2914H338.257V36.6876H327.792V31.2914ZM336.83 32.4729H329.237V35.4884H336.83V32.4729Z" fill="#6F6F6F"/>
<path d="M315.358 22.0332H316.644V23.2676C316.644 23.9612 316.521 24.6196 316.274 25.2427C316.04 25.8658 315.711 26.4477 315.288 26.9885C314.877 27.5176 314.395 27.9937 313.843 28.4169C313.303 28.8401 312.721 29.1987 312.099 29.4926C311.488 29.7865 310.866 30.0099 310.231 30.1627L309.579 28.9459C310.132 28.8284 310.684 28.6462 311.236 28.3993C311.799 28.1524 312.328 27.8526 312.821 27.4999C313.315 27.1355 313.749 26.7299 314.125 26.2831C314.513 25.8364 314.812 25.3603 315.024 24.8547C315.247 24.3375 315.358 23.8084 315.358 23.2676V22.0332ZM315.64 22.0332H316.891V23.2676C316.891 23.8084 317.003 24.3375 317.226 24.8547C317.449 25.3603 317.748 25.8364 318.124 26.2831C318.512 26.7299 318.952 27.1355 319.446 27.4999C319.939 27.8526 320.462 28.1583 321.014 28.4169C321.578 28.6638 322.141 28.8401 322.705 28.9459L322.036 30.1627C321.401 30.0099 320.779 29.7865 320.168 29.4926C319.557 29.1987 318.976 28.8401 318.424 28.4169C317.884 27.9937 317.402 27.5176 316.979 26.9885C316.556 26.4477 316.227 25.8658 315.993 25.2427C315.758 24.6196 315.64 23.9612 315.64 23.2676V22.0332ZM308.98 33.5309H323.427V34.7477H308.98V33.5309Z" fill="#6F6F6F"/>
<path d="M297.32 22.3154H298.536V25.1722C298.536 26.0892 298.419 26.9827 298.184 27.8527C297.96 28.7109 297.637 29.5162 297.215 30.2686C296.803 31.0093 296.316 31.6676 295.752 32.2437C295.2 32.808 294.595 33.2547 293.938 33.5839L293.039 32.3671C293.638 32.0967 294.196 31.7088 294.713 31.2033C295.23 30.6977 295.682 30.1275 296.069 29.4927C296.457 28.8461 296.762 28.1525 296.986 27.4118C297.209 26.6712 297.32 25.9246 297.32 25.1722V22.3154ZM297.567 22.3154H298.783V25.1722C298.783 25.9011 298.888 26.6183 299.1 27.3236C299.323 28.029 299.628 28.6991 300.016 29.334C300.415 29.9571 300.867 30.5096 301.372 30.9916C301.889 31.4619 302.441 31.8322 303.029 32.1026L302.148 33.2665C301.502 32.9608 300.903 32.5317 300.351 31.9792C299.799 31.4266 299.311 30.7918 298.888 30.0746C298.477 29.3575 298.154 28.5816 297.919 27.7469C297.684 26.9122 297.567 26.054 297.567 25.1722V22.3154ZM304.702 20.9399H306.165V36.9168H304.702V20.9399Z" fill="#6F6F6F"/>
<path d="M277.836 22.4565H279.228V26.3361H282.575V22.4565H283.932V32.9138H277.836V22.4565ZM279.228 27.5176V31.7147H282.575V27.5176H279.228ZM289.411 20.9399H290.821V36.8992H289.411V20.9399ZM286.856 27.2531H289.922V28.4699H286.856V27.2531ZM285.87 21.275H287.262V36.088H285.87V21.275Z" fill="#6F6F6F"/>
<path d="M262.102 28.5752H263.106C263.951 28.5752 264.691 28.5693 265.326 28.5575C265.972 28.534 266.577 28.4929 267.14 28.4341C267.704 28.3635 268.28 28.2695 268.867 28.1519L269.026 29.3511C268.415 29.4686 267.816 29.5627 267.228 29.6332C266.653 29.692 266.036 29.7332 265.379 29.7567C264.721 29.7802 263.963 29.7919 263.106 29.7919H262.102V28.5752ZM262.102 22.1033H268.25V23.3024H263.511V29.2276H262.102V22.1033ZM263.071 25.2775H268.074V26.4237H263.071V25.2775ZM273.448 20.957H274.84V30.6208H273.448V20.957ZM270.875 25.1012H273.871V26.3003H270.875V25.1012ZM269.924 21.2568H271.298V30.515H269.924V21.2568ZM264.163 31.4496H274.84V36.8987H273.395V32.6487H264.163V31.4496Z" fill="#6F6F6F"/>
<path d="M257.155 20.957H258.617V32.5958H257.155V20.957ZM248.381 35.3468H259.11V36.546H248.381V35.3468ZM248.381 31.4143H249.843V35.7524H248.381V31.4143ZM250.072 22.068C250.871 22.068 251.581 22.2326 252.204 22.5618C252.826 22.891 253.32 23.3553 253.684 23.9549C254.048 24.5427 254.23 25.2187 254.23 25.9829C254.23 26.747 254.048 27.4289 253.684 28.0285C253.32 28.6163 252.826 29.0807 252.204 29.4216C251.581 29.7508 250.871 29.9154 250.072 29.9154C249.285 29.9154 248.574 29.7508 247.94 29.4216C247.318 29.0807 246.824 28.6163 246.46 28.0285C246.096 27.4289 245.914 26.747 245.914 25.9829C245.914 25.2187 246.096 24.5427 246.46 23.9549C246.824 23.3553 247.318 22.891 247.94 22.5618C248.574 22.2326 249.285 22.068 250.072 22.068ZM250.072 23.3377C249.555 23.3377 249.091 23.4494 248.68 23.6728C248.269 23.8961 247.94 24.2077 247.694 24.6074C247.459 25.0071 247.341 25.4656 247.341 25.9829C247.341 26.5119 247.459 26.9763 247.694 27.376C247.94 27.764 248.269 28.0696 248.68 28.293C249.091 28.5164 249.555 28.6281 250.072 28.6281C250.589 28.6281 251.053 28.5164 251.464 28.293C251.887 28.0696 252.216 27.764 252.45 27.376C252.685 26.9763 252.803 26.5119 252.803 25.9829C252.803 25.4656 252.685 25.0071 252.45 24.6074C252.216 24.2077 251.887 23.8961 251.464 23.6728C251.053 23.4494 250.589 23.3377 250.072 23.3377Z" fill="#6F6F6F"/>
<path d="M229.688 30.1977H244.134V31.3969H229.688V30.1977ZM236.153 30.9384H237.598V36.8812H236.153V30.9384ZM231.537 21.8213H242.285V28.0463H231.537V21.8213ZM240.84 23.0028H232.964V26.8824H240.84V23.0028Z" fill="#6F6F6F"/>
<path d="M201.806 42.6648H208.361L199.157 55.1846V66.7229H193.1V55.288L183.758 42.6648H190.244L195.991 50.466L201.806 42.6648Z" fill="black"/>
<path d="M183.446 50.001C183.446 51.3673 183.131 52.5957 182.5 53.6864C181.869 54.7771 180.911 55.6496 179.627 56.304C178.353 56.9469 176.776 57.2684 174.895 57.2684H170.525V66.7229H164.469V42.6648H174.603C177.378 42.6648 179.546 43.3077 181.106 44.5936C182.666 45.8679 183.446 47.6704 183.446 50.001ZM177.252 50.001C177.252 48.8759 176.937 48.0608 176.306 47.5556C175.687 47.0505 174.689 46.7979 173.312 46.7979H170.525V53.1525H173.553C176.019 53.1525 177.252 52.102 177.252 50.001Z" fill="black"/>
<path d="M161.579 50.001C161.579 51.3673 161.264 52.5957 160.633 53.6864C160.002 54.7771 159.044 55.6496 157.759 56.304C156.486 56.9469 154.909 57.2684 153.028 57.2684H148.658V66.7229H142.602V42.6648H152.735C155.511 42.6648 157.679 43.3077 159.239 44.5936C160.799 45.8679 161.579 47.6704 161.579 50.001ZM155.385 50.001C155.385 48.8759 155.07 48.0608 154.439 47.5556C153.819 47.0505 152.822 46.7979 151.445 46.7979H148.658V53.1525H151.686C154.152 53.1525 155.385 52.102 155.385 50.001Z" fill="black"/>
<path d="M134.516 66.7231L132.194 61.1779H121.871L119.565 66.7231H113.371L123.832 42.6306H130.146L140.71 66.7231H134.516ZM127.015 48.5547L123.453 57.3031H130.594L127.015 48.5547Z" fill="black"/>
<path d="M105.437 51.9817V42.665H111.493V66.7231H105.437V57.0276H93.8063V66.7231H87.75V42.665H93.8063V51.9817H105.437Z" fill="black"/>
<path d="M340.564 49.3641C340.564 50.7762 340.22 51.9875 339.531 52.9978C338.855 54.0081 337.857 54.7716 336.538 55.2882C337.318 55.7819 337.971 56.3272 338.499 56.9242C339.027 57.5098 339.841 58.6349 340.942 60.2996L345.175 66.7231H341.08L337.277 60.799C336.153 59.008 335.167 57.8025 334.318 57.1825C333.469 56.5626 332.575 56.2526 331.634 56.2526H330.086V66.7231H326.645V42.665H333.269C334.794 42.665 336.107 42.975 337.209 43.595C338.31 44.2035 339.141 45.0186 339.703 46.0404C340.277 47.0622 340.564 48.1701 340.564 49.3641ZM337.037 49.3641C337.037 48.1931 336.687 47.2918 335.987 46.6604C335.299 46.0174 334.307 45.696 333.01 45.696H330.086V53.2217H332.305C333.762 53.2217 334.915 52.9519 335.763 52.4123C336.612 51.8612 337.037 50.8451 337.037 49.3641Z" fill="black"/>
<path d="M312.418 45.7304V53.0667H322.259V56.1493H312.418V63.6233H322.93V66.7231H308.977V42.665H322.603V45.7304H312.418Z" fill="black"/>
<path d="M300.147 42.665H304.448L294.022 54.0655L307.012 66.7231H302.298L290.03 54.8405V66.7231H286.555V42.665H290.03V53.6694L300.147 42.665Z" fill="black"/>
<path d="M282.772 44.3354V47.9519C279.939 46.356 277.169 45.5581 274.462 45.5581C272.581 45.5581 270.918 45.9887 269.472 46.8497C268.027 47.7108 266.909 48.8474 266.117 50.2595C265.337 51.6602 264.947 53.1642 264.947 54.7715C264.947 56.3673 265.326 57.8598 266.083 59.249C266.852 60.6382 267.953 61.7518 269.386 62.5899C270.82 63.4166 272.501 63.8299 274.428 63.8299C277.456 63.8299 280.323 62.9344 283.03 61.1434V64.932C280.392 66.3327 277.479 67.033 274.29 67.033C271.491 67.033 269.117 66.4245 267.167 65.2076C265.217 63.9791 263.76 62.4292 262.797 60.5578C261.833 58.675 261.352 56.7347 261.352 54.7371C261.352 52.4294 261.931 50.3284 263.089 48.4341C264.259 46.5397 265.842 45.053 267.838 43.9738C269.834 42.8946 272.007 42.355 274.359 42.355C277.054 42.355 279.859 43.0151 282.772 44.3354Z" fill="black"/>
<path d="M258.872 54.6682C258.872 56.8495 258.35 58.8874 257.306 60.7817C256.263 62.6761 254.743 64.1915 252.747 65.3281C250.751 66.4647 248.411 67.033 245.727 67.033C243.261 67.033 241.065 66.4762 239.138 65.3626C237.222 64.2489 235.725 62.7564 234.647 60.885C233.58 59.0137 233.047 56.9758 233.047 54.7715C233.047 52.6246 233.552 50.604 234.561 48.7096C235.57 46.8038 237.044 45.2711 238.983 44.1115C240.921 42.9405 243.232 42.355 245.916 42.355C248.405 42.355 250.636 42.9003 252.609 43.991C254.582 45.0817 256.119 46.5684 257.22 48.4513C258.321 50.3342 258.872 52.4064 258.872 54.6682ZM236.608 54.7715C236.608 56.4821 237.021 58.0263 237.847 59.404C238.684 60.7817 239.809 61.8609 241.219 62.6416C242.63 63.4108 244.162 63.7954 245.813 63.7954C247.568 63.7954 249.163 63.451 250.596 62.7622C252.03 62.0618 253.171 61.0286 254.02 59.6623C254.88 58.2846 255.311 56.6084 255.311 54.6337C255.311 53.1986 254.955 51.7865 254.244 50.3973C253.533 49.0081 252.472 47.86 251.061 46.9531C249.65 46.0461 247.97 45.5926 246.02 45.5926C244.093 45.5926 242.418 46.0001 240.996 46.8153C239.573 47.6304 238.484 48.7326 237.727 50.1218C236.981 51.4995 236.608 53.0494 236.608 54.7715Z" fill="black"/>
<path d="M233.766 63.5889V66.7231H219.469V42.665H222.944V63.5889H233.766Z" fill="black"/>
<path d="M10.5039 35.3215C10.5039 32.6878 12.0129 30.2838 14.3935 29.125L32.5496 20.2869C34.0748 19.5444 35.821 19.3829 37.458 19.8329L63.291 26.9347C66.3005 27.7621 68.3843 30.4829 68.3843 33.5852V56.3475C68.3843 58.7165 67.1611 60.9199 65.1442 62.1838L46.0719 74.1356C44.3184 75.2345 42.1624 75.4977 40.1933 74.8532L15.2765 66.6988C12.4283 65.7667 10.5039 63.124 10.5039 60.1449V35.3215Z" fill="#F68121"/>
<path d="M22.8524 40.3692V47.7457L29.7981 50.3583V42.6339L39.8307 46.4084V70.5651L29.7981 66.7906V60.548L22.8524 57.9346V64.5259L14.3633 61.5063V37.3496L22.8524 40.3692Z" fill="white"/>
<path d="M55.6253 44.6175C57.1686 43.7349 59.1191 44.8104 59.1192 46.5437V47.5271C59.1191 49.0408 58.3269 50.4445 57.0248 51.2688L58.7334 57.1661L52.9453 60.5238L55.0405 51.915C53.9225 51.8079 52.9461 50.9122 52.9461 49.6857V48.703C52.9461 47.1209 53.8097 45.6562 55.2183 44.8506L55.6253 44.6175Z" fill="white"/>
</svg>
