<svg width="158" height="158" viewBox="0 0 158 158" fill="none" xmlns="http://www.w3.org/2000/svg">
<g clip-path="url(#clip0_2794_61737)">
<path d="M80.4623 157.017C87.6451 153.742 94.4322 149.885 100.641 145.548C106.645 141.357 112.264 136.615 117.332 131.442C126.923 121.671 134.92 110.04 141.102 96.8709C151.985 73.6853 157.506 45.356 157.506 12.6654V9.99033L154.924 9.2689C152.323 8.54152 142.572 5.99716 126.427 3.70844C110.563 1.45779 94.6026 0.316406 78.9969 0.316406C63.3866 0.316406 47.4262 1.45779 31.5591 3.70844C15.4146 5.99716 5.67237 8.54152 3.0653 9.2689L0.484375 9.99033V12.6654C0.484375 45.356 6.00231 73.6853 16.8876 96.8709C23.0661 110.04 31.066 121.671 40.656 131.442C45.7312 136.615 51.3451 141.357 57.3452 145.548C63.5557 149.885 70.3441 153.742 77.5316 157.017L78.9969 157.685L80.4623 157.017Z" fill="#FCC700"/>
<path d="M78.9945 153.805C136.125 127.745 153.975 71.0894 153.975 12.6657C143.883 9.85358 114.278 3.8457 78.9945 3.8457C43.7048 3.8457 14.0987 9.85358 4.01562 12.6657C4.01562 71.0894 21.866 127.745 78.9945 153.805Z" fill="#003478"/>
<path d="M148.34 25.4078C149.932 23.7157 150.364 21.9322 150.358 20.459C150.358 18.496 149.582 17.0624 149.564 17.0763C146.494 20.6005 131.923 34.4974 110.59 36.366V34.3816C110.59 34.263 110.533 34.2264 110.43 34.2264H87.5042C87.34 33.1459 87.2001 32.1189 87.0796 31.1997L87.0754 31.1967V31.1905V31.1892C87.0754 31.1724 87.0357 30.9289 87.0357 30.9289C86.7177 28.6326 86.4407 26.6361 85.9979 25.4507C87.0036 24.737 87.8484 23.7356 88.4372 22.5456C88.9958 21.4408 89.2939 20.2233 89.2863 19.1309V18.8949L89.0901 19.018C88.7995 19.1962 88.0371 19.4929 88.0311 19.4944C86.949 19.8993 84.9981 20.3315 81.889 20.1078C80.2228 19.9875 78.733 19.9571 77.4486 20.0088C76.117 20.0697 75.0533 20.2203 74.2727 20.47C73.4142 20.7346 72.7388 21.0832 72.203 21.5367C71.7404 21.9216 71.4846 22.3081 71.3175 22.5745C69.9782 22.4893 68.2557 22.6505 67.0091 22.9808C66.1722 23.2015 65.5513 23.5895 65.1268 24.1602C64.6992 24.7294 64.4831 25.4612 64.4709 26.3835V26.3895C64.4709 26.9344 64.591 27.855 64.9275 28.8108C65.364 30.0539 66.0458 31.0735 66.9558 31.8466L67.1415 32.0047L67.1735 31.763C67.1871 31.7021 67.4095 30.2685 69.546 30.2108C69.7468 30.2108 70.1059 30.2152 70.2687 30.2184C70.7466 30.2381 71.0951 30.3554 71.2609 30.5546C71.4118 30.7464 71.4541 31.0767 71.3813 31.5376C71.3813 31.5803 71.1894 32.6805 70.8409 33.8523L70.835 33.8554V33.86C70.8273 33.8814 70.7876 34.0152 70.73 34.2267H47.561C47.459 34.2267 47.4011 34.2633 47.4011 34.3819V36.3663C26.066 34.4978 11.4968 20.6008 8.42407 17.0766C8.40587 17.0627 7.63281 18.4963 7.63281 20.4594C7.63281 21.9325 8.0574 23.716 9.65678 25.4081C9.65678 25.4081 9.66141 25.4142 9.67498 25.4371C9.03463 27.0166 8.1656 31.2868 12.4174 34.8689C12.3383 35.2708 12.2698 35.8885 12.2698 36.5307C12.2698 38.6642 13.0458 41.828 16.9826 44.4713C16.9826 44.4713 17.2566 44.6568 17.4346 44.7695C17.3708 45.6035 17.4757 51.7788 26.3247 53.9626C27.1951 56.5055 29.6254 59.73 35.5815 60.1287C37.257 62.8573 39.6675 64.2466 42.9547 64.2146C43.7383 65.4336 45.2692 66.4167 47.0893 66.8595C48.2945 67.1411 49.521 67.1715 50.717 66.9385C51.0975 67.2354 51.7974 67.6462 52.7092 68.0023C52.7092 68.0023 52.7139 68.0055 52.7303 68.0084C51.668 68.7783 51.1491 69.7281 50.7901 70.8313C50.2103 72.6087 50.2103 74.2887 52.0744 76.7236C52.7029 77.594 53.0576 78.3305 53.2492 79.1904C53.4395 80.0288 53.4776 80.9892 53.4776 82.3695C53.4776 83.2382 53.6556 84.0523 54.0041 84.7889C54.3525 85.5146 54.8655 86.148 55.4999 86.606C55.8652 86.8751 56.2822 87.0852 56.7266 87.2345C56.4526 87.6147 56.2455 88.0317 56.1042 88.4669C55.8652 89.2065 55.8119 90.0193 55.9642 90.8105C56.1088 91.6124 56.4463 92.3732 56.9609 93.078C57.7691 94.192 58.3062 94.9938 58.6411 95.7808C58.9892 96.5932 59.1414 97.395 59.1371 98.4696C59.0686 101.537 60.0561 102.898 61.5582 103.99C63.0709 105.086 64.667 105.608 67.5692 104.591C68.5885 104.258 69.3937 104.15 70.2686 104.232C71.1271 104.313 72.0524 104.575 73.3642 104.999C74.1888 105.272 75.0211 105.351 75.8263 105.249C76.6311 105.138 77.386 104.843 78.0207 104.389C78.3903 104.121 78.7176 103.791 78.9976 103.411C79.2792 103.791 79.6065 104.121 79.9762 104.389C80.6046 104.843 81.3654 105.138 82.1643 105.249C82.9694 105.351 83.7974 105.272 84.6237 104.999C85.9398 104.575 86.8651 104.313 87.7189 104.232C88.5969 104.15 89.4063 104.258 90.4216 104.591C93.3236 105.608 94.92 105.086 96.4327 103.99C97.9404 102.898 98.9282 101.537 98.8551 98.4696C98.8551 97.395 99.0013 96.5932 99.3498 95.7808C99.6907 94.9938 100.223 94.192 101.036 93.078C101.544 92.3732 101.877 91.6124 102.031 90.8105C102.179 90.0193 102.125 89.2065 101.888 88.4669C101.751 88.0317 101.544 87.6147 101.264 87.2345C101.715 87.0852 102.125 86.8751 102.495 86.6027C103.125 86.148 103.644 85.5146 103.986 84.7889C104.341 84.0523 104.512 83.2382 104.512 82.3695C104.519 80.9892 104.556 80.0288 104.743 79.1904C104.93 78.3305 105.288 77.594 105.922 76.7236C107.777 74.2887 107.777 72.6087 107.2 70.8313C106.841 69.7281 106.318 68.7783 105.266 68.0084C105.271 68.0053 105.28 68.0023 105.28 68.0023C106.199 67.6462 106.889 67.2354 107.269 66.9385C108.474 67.1715 109.702 67.1411 110.9 66.8595C112.718 66.4167 114.257 65.4336 115.036 64.2146C118.323 64.2466 120.732 62.8573 122.407 60.1287C128.362 59.73 130.798 56.5055 131.67 53.9626C140.51 51.7788 140.62 45.6035 140.558 44.7695C140.733 44.6568 141.013 44.4713 141.013 44.4713C144.945 41.828 145.721 38.6642 145.721 36.5307C145.721 35.8885 145.648 35.2708 145.575 34.8689C149.824 31.2868 148.956 27.0166 148.322 25.4371C148.326 25.4142 148.34 25.4078 148.34 25.4078ZM67.9389 44.5334C66.227 44.3598 62.599 43.6477 59.7974 40.665C59.1554 39.9803 58.3916 39.2757 57.6897 38.74C59.0108 38.8588 66.5967 39.5435 69.3497 39.7839C68.9479 41.2524 68.4684 42.8609 67.9389 44.5334ZM98.1992 40.665C95.3979 43.6477 91.7606 44.3598 90.0471 44.5334C89.5222 42.8579 89.0414 41.2463 88.6472 39.7839C91.3939 39.5435 98.9799 38.8588 100.301 38.74C99.5934 39.2757 98.8415 39.9803 98.1992 40.665Z" fill="#A05D13"/>
<path d="M114.651 49.119H105.109L105.14 49.0581L109.878 38.7832L114.651 49.119Z" fill="#FCC700"/>
<path d="M118.253 43.7467C116.832 44.2442 115.313 44.4909 113.803 44.5745L112.281 41.3362C115.812 40.8568 119.158 40.1159 122.292 39.2012C122.145 40.2512 121.464 42.6266 118.253 43.7467Z" fill="#FCC700"/>
<path d="M119.188 44.5605C118.673 46.6653 117.537 48.0911 115.799 48.8231L114.297 45.6167C115.767 45.5178 117.244 45.253 118.642 44.7675C118.83 44.7052 119.007 44.6337 119.188 44.5605Z" fill="#FCC700"/>
<path d="M94.2088 66.4628C94.2088 66.3106 94.1678 66.1767 94.0599 66.0702C93.9547 65.9621 93.8286 65.915 93.684 65.915C93.6214 65.915 93.5635 65.9226 93.5059 65.9378C93.4311 65.9653 93.355 66.0093 93.3004 66.0702L88.0883 71.3752C87.7156 70.9825 87.3152 70.6142 86.8906 70.2657L91.5534 64.0386C92.211 63.1286 93.1846 62.4834 94.1936 62.4727C95.2817 62.4758 96.2725 62.9507 97.0274 63.9718C97.8762 65.1466 98.5688 66.0201 99.3677 66.7094C97.6876 67.8827 93.5119 70.7984 89.6953 73.469C89.3878 72.9714 89.0533 72.4967 88.6863 72.0493L94.0599 66.8403C94.1678 66.7384 94.224 66.5967 94.2088 66.4628Z" fill="#FCC700"/>
<path d="M87.8531 61.6811C87.8031 61.5471 87.7194 61.4375 87.5883 61.3735C87.4546 61.3081 87.313 61.3037 87.1684 61.3509C87.036 61.3842 86.9218 61.4801 86.8596 61.611L83.5602 68.3297C83.0278 68.1195 82.4662 67.9461 81.9062 67.8093C83.2604 63.3503 84.7443 58.4809 85.3423 56.5254C86.2355 57.0701 87.2872 57.4551 88.6658 57.9009C89.8724 58.3103 90.6273 59.0941 90.9684 60.1348C91.2742 61.0997 90.9575 62.2212 90.297 63.1281L85.8172 69.4922C85.3635 69.1909 84.8783 68.9247 84.3852 68.6902L87.8213 62.1011C87.8683 62.025 87.8792 61.9427 87.8792 61.859C87.8792 61.7981 87.8745 61.7418 87.8531 61.6811Z" fill="#FCC700"/>
<path d="M70.1731 62.1011L73.6095 68.6902C73.1148 68.9247 72.6369 69.1909 72.1759 69.4922L67.6988 63.1281C67.0369 62.2212 66.7265 61.0997 67.0323 60.1348C67.3655 59.0941 68.1234 58.3103 69.3256 57.9009C70.703 57.4551 71.759 57.0701 72.6581 56.5254C73.2564 58.4809 74.731 63.3503 76.0898 67.8093C75.5223 67.9461 74.9729 68.1195 74.4358 68.3297L71.1348 61.611C71.0772 61.4801 70.9571 61.3843 70.8231 61.3509C70.6861 61.3037 70.5368 61.3081 70.4061 61.3735C70.2721 61.4375 70.1884 61.5471 70.146 61.6811C70.1199 61.7418 70.1156 61.7981 70.1156 61.859C70.1156 61.9427 70.1308 62.025 70.1731 62.1011Z" fill="#FCC700"/>
<path d="M63.9409 66.8403L69.3156 72.0493C68.9459 72.4967 68.6097 72.9714 68.3052 73.469C64.4856 70.7984 60.3129 67.8827 58.6328 66.7094C59.4304 66.0201 60.1227 65.1466 60.9748 63.9718C61.7267 62.9507 62.7175 62.4758 63.8086 62.4727C64.8172 62.4834 65.7869 63.1286 66.4471 64.0386L71.1129 70.2657C70.6913 70.6142 70.2849 70.9825 69.9106 71.3752L64.7064 66.0702C64.6514 66.0093 64.5753 65.9653 64.4946 65.9378C64.437 65.9226 64.3791 65.915 64.3212 65.915C64.1766 65.915 64.0412 65.9621 63.9409 66.0702C63.8387 66.1767 63.7871 66.3106 63.7871 66.4628C63.7811 66.5967 63.8387 66.7383 63.9409 66.8403Z" fill="#FCC700"/>
<path d="M103.961 42.9991C104.971 42.3402 106.085 41.9324 107.248 41.8184L106.333 43.7555C105.408 43.5197 104.6 43.2533 103.961 42.9991Z" fill="#FCC700"/>
<path d="M105.885 44.7211L104.724 47.1697C103.302 46.456 102.155 45.7407 101.531 45.3299C101.589 45.2584 101.641 45.1882 101.698 45.1138C102.097 44.604 102.536 44.1367 102.998 43.7305C103.709 44.0561 104.703 44.4061 105.885 44.7211Z" fill="#FCC700"/>
<path d="M100.656 44.3258C98.521 47.1837 94.9876 49.0722 91.629 49.4009C91.27 48.2883 90.9 47.1806 90.5469 46.088C92.507 45.8749 96.2872 45.0303 99.3883 41.7235C101.318 39.6676 103.819 37.9451 107.414 37.9633C107.965 37.9664 108.524 37.9557 109.074 37.9375L107.831 40.5777C105.396 40.5914 102.688 41.6125 100.656 44.3258Z" fill="#FCC700"/>
<path d="M93.4255 61.07C93.2111 61.1034 93.0039 61.1567 92.7908 61.2235C92.7227 61.251 92.6449 61.2768 92.5717 61.3028C92.5765 61.2235 92.581 61.1491 92.581 61.0715C92.581 60.6103 92.5125 60.1644 92.3742 59.7429C92.359 59.7169 92.3527 59.6912 92.3438 59.6653C92.5446 59.4051 92.7501 59.09 92.9311 58.6914C93.1532 59.5541 93.3206 60.3561 93.4255 61.07Z" fill="#FCC700"/>
<path d="M91.9415 58.7944C91.4011 57.9179 90.5642 57.2178 89.5234 56.7888C89.7197 56.6397 90.9266 55.629 91.3905 53.5215C91.8519 54.9246 92.2761 56.2804 92.6279 57.5329C92.4363 58.0473 92.1818 58.4717 91.9415 58.7944Z" fill="#FCC700"/>
<path d="M87.6563 52.1053C88.2162 51.5558 89.2163 50.2883 89.58 48.1198C89.5859 48.1121 89.5906 48.1075 89.5906 48.1016C89.9162 49.077 90.2465 50.057 90.5691 51.0386L90.5873 51.0948C90.6892 51.3993 90.7912 51.7142 90.8994 52.0261C90.8338 54.1308 89.7246 55.5048 89.2742 55.7987C88.8311 55.5079 87.7463 54.1627 87.6563 52.1053Z" fill="#FCC700"/>
<path d="M88.7146 56.5042C87.7132 56.1769 86.9372 55.8773 86.2812 55.5166C86.6357 55.1178 86.9947 54.567 87.2429 53.8457C87.6189 55.2305 88.3036 56.0902 88.7146 56.5042Z" fill="#FCC700"/>
<path d="M89.2884 47.1636C89.1819 47.2839 89.0816 47.3721 89.0025 47.43C88.5733 47.1607 87.5583 45.9738 87.3359 44.1126C87.4746 43.997 87.7605 43.7261 88.065 43.2969C88.4469 44.5448 88.8592 45.8444 89.2884 47.1636Z" fill="#FCC700"/>
<path d="M88.7962 48.4415V48.4429C88.3319 50.1291 87.4509 51.1699 87.0581 51.4242C86.6335 51.1517 85.6354 49.9526 85.375 48.0214C85.6977 47.7415 86.4677 46.9517 86.9304 45.5547C87.5224 47.5254 88.726 48.3988 88.7962 48.4415Z" fill="#FCC700"/>
<path d="M85.0234 47.1298C84.617 46.8649 83.6917 45.7404 83.4531 43.9995C83.8363 43.6464 84.6034 42.7867 85.0234 41.3105C85.4404 42.7867 86.2075 43.6464 86.5877 43.9995C86.3551 45.7404 85.4222 46.8649 85.0234 47.1298Z" fill="#FCC700"/>
<path d="M83.0204 43.1778C82.6203 42.9175 81.6997 41.8081 81.4531 40.0947C81.838 39.7416 82.6021 38.8757 83.0204 37.4102C83.4361 38.8757 84.1952 39.7416 84.5758 40.0947C84.3339 41.8081 83.4145 42.9175 83.0204 43.1778Z" fill="#FCC700"/>
<path d="M82.5721 43.9995C82.3365 45.7404 81.4112 46.8649 81.0018 47.1298C80.606 46.8649 79.6701 45.7404 79.4375 43.9995C79.8177 43.6464 80.5862 42.7867 81.0018 41.3105C81.4218 42.7867 82.1918 43.6464 82.5721 43.9995Z" fill="#FCC700"/>
<path d="M78.9972 43.1778C78.5971 42.9175 77.6761 41.8081 77.4375 40.0947C77.8177 39.7416 78.5785 38.8757 78.9972 37.4102C79.4095 38.8757 80.1779 39.7416 80.5569 40.0947C80.309 41.8081 79.3989 42.9175 78.9972 43.1778Z" fill="#FCC700"/>
<path d="M78.5568 43.9995C78.3208 45.7404 77.3926 46.8649 76.9892 47.1298C76.5874 46.8649 75.6578 45.7404 75.4219 43.9995C75.8024 43.6464 76.5692 42.7867 76.9892 41.3105C77.4091 42.7867 78.1825 43.6464 78.5568 43.9995Z" fill="#FCC700"/>
<path d="M74.9802 43.1778C74.5828 42.9175 73.6668 41.8081 73.4219 40.0947C73.8008 39.7416 74.5662 38.8757 74.9802 37.4102C75.3926 38.8757 76.1626 39.7416 76.5429 40.0947C76.2934 41.8081 75.382 42.9175 74.9802 43.1778Z" fill="#FCC700"/>
<path d="M74.5471 43.9995C74.3022 45.7404 73.3769 46.8649 72.9765 47.1298C72.5705 46.8649 71.6435 45.7404 71.4062 43.9995C71.7865 43.6464 72.5595 42.7867 72.9765 41.3105C73.3875 42.7867 74.1636 43.6464 74.5471 43.9995Z" fill="#FCC700"/>
<path d="M72.6054 48.0215C72.3436 49.9526 71.3498 51.1518 70.9252 51.4243C70.5294 51.17 69.6485 50.1292 69.1875 48.4429V48.4416C69.262 48.3989 70.4672 47.5254 71.0546 45.5547C71.5156 46.9517 72.281 47.7415 72.6054 48.0215Z" fill="#FCC700"/>
<path d="M65.4146 61.3028C65.3356 61.2768 65.267 61.251 65.1926 61.2235C64.9824 61.1567 64.774 61.1034 64.5625 61.07C64.6644 60.3561 64.8378 59.5541 65.0496 58.6914C65.2366 59.09 65.4451 59.4051 65.643 59.6653C65.6295 59.6911 65.6218 59.7169 65.6172 59.7429C65.4772 60.1644 65.4087 60.6103 65.4087 61.0715C65.4087 61.1491 65.4087 61.2235 65.4146 61.3028Z" fill="#FCC700"/>
<path d="M65.3672 57.5329C65.7173 56.2804 66.1495 54.9246 66.6045 53.5215C67.0685 55.629 68.28 56.6397 68.4716 56.7888C67.4309 57.2178 66.5939 57.9179 66.0552 58.7944C65.8133 58.4717 65.5638 58.0473 65.3672 57.5329Z" fill="#FCC700"/>
<path d="M67.0938 52.0261C67.1957 51.7142 67.2963 51.3993 67.4059 51.0948L67.424 51.0386C67.7467 50.057 68.0723 49.08 68.395 48.1016C68.4009 48.1075 68.4072 48.1121 68.4072 48.1198C68.7692 50.2883 69.7753 51.5558 70.3289 52.1053C70.2392 54.1627 69.1558 55.5079 68.7113 55.7987C68.2626 55.5048 67.1563 54.1308 67.0938 52.0261Z" fill="#FCC700"/>
<path d="M70.7464 53.8457C70.993 54.567 71.3537 55.1178 71.7127 55.5166C71.0479 55.8773 70.2748 56.1769 69.2734 56.5042C69.6845 56.0902 70.3705 55.2305 70.7464 53.8457Z" fill="#FCC700"/>
<path d="M68.9967 47.43C68.9129 47.3721 68.8186 47.2839 68.7031 47.1636C69.137 45.8444 69.5477 44.5448 69.9279 43.2969C70.234 43.7261 70.5199 43.997 70.6586 44.1126C70.4365 45.9738 69.4212 47.1607 68.9967 47.43Z" fill="#FCC700"/>
<path d="M58.5952 41.7235C61.698 45.0303 65.4782 45.8749 67.4397 46.088C67.0912 47.1806 66.7215 48.2946 66.3516 49.4009C62.9992 49.0721 59.4659 47.1837 57.3337 44.3258C55.3021 41.6125 52.5875 40.5914 50.1542 40.5777L48.9062 37.9375C49.4678 37.9557 50.0185 37.9663 50.5712 37.9633C54.1684 37.9451 56.6685 39.6676 58.5952 41.7235Z" fill="#FCC700"/>
<path d="M54.0368 42.9991C53.3978 43.2533 52.5896 43.5197 51.6644 43.7555L50.75 41.8184C51.9185 41.9324 53.0281 42.3402 54.0368 42.9991Z" fill="#FCC700"/>
<path d="M54.9946 43.7305C55.4619 44.1367 55.8987 44.604 56.2988 45.1138C56.3551 45.1882 56.413 45.2584 56.4709 45.3299C55.8425 45.7407 54.6935 46.456 53.2738 47.1697L52.1172 44.7211C53.2996 44.4061 54.2871 44.0561 54.9946 43.7305Z" fill="#FCC700"/>
<path d="M54.2698 49.2949L53.7327 48.1491C55.3185 47.3471 56.5556 46.5497 57.1552 46.1387C57.6268 46.6501 58.1076 47.1219 58.6159 47.5494C57.3865 49.0196 53.4908 53.1268 48.4554 53.0612C45.5806 53.0232 44.1046 51.6156 43.3984 50.5793C44.5107 51.1485 46.1587 51.7359 48.1175 51.7359C51.2782 51.7359 53.5484 50.2703 54.1907 49.7377C54.3976 49.5567 54.3354 49.4288 54.2698 49.2949Z" fill="#FCC700"/>
<path d="M59.4563 48.1953C59.9964 48.5818 60.5689 48.9287 61.1547 49.2255C60.4441 50.5616 57.7186 55.1147 53.1941 55.8772C50.4812 56.3337 49.0975 54.9397 48.5469 54.1499C54.1773 54.1637 58.2236 49.7307 59.4563 48.1953Z" fill="#FCC700"/>
<path d="M62.1005 49.6582C62.7349 49.9215 63.4001 50.1285 64.0924 50.2913C63.5858 51.816 62.1078 55.5521 59.4816 57.0722C57.033 58.4768 55.2006 57.4862 54.2969 56.7313C58.917 55.4728 61.4658 50.9411 62.1005 49.6582Z" fill="#FCC700"/>
<path d="M60.0611 57.9845C63.1444 56.2178 64.6677 52.0421 65.1469 50.502C65.4163 50.543 65.681 50.5796 65.9626 50.6146C65.1317 53.0981 64.3235 55.5162 63.7513 57.6284C62.187 58.9127 60.3974 58.549 59.5469 58.2585C59.7186 58.1762 59.8877 58.0849 60.0611 57.9845Z" fill="#FCC700"/>
<path d="M72.5455 54.9682C71.975 54.5299 71.3267 53.6549 71.1562 52.4268C71.2688 52.3524 72.3996 51.4787 72.9913 49.5645C73.6154 51.3419 74.6896 52.1606 74.7581 52.2048L74.8782 52.2869C74.5559 52.6292 74.2438 53.031 73.9271 53.4845C73.4708 54.1099 73.0326 54.5847 72.5455 54.9682Z" fill="#FCC700"/>
<path d="M73.3125 48.0489C73.6352 47.7766 74.5237 46.8908 74.985 45.2656C75.449 46.8908 76.3379 47.7766 76.6605 48.0489C76.3256 49.8004 75.3911 50.9297 74.985 51.1959C74.5816 50.9297 73.6457 49.8004 73.3125 48.0489Z" fill="#FCC700"/>
<path d="M77.0965 49.2246C77.3112 49.7831 77.5714 50.2412 77.8255 50.6033C77.3933 50.6764 76.9323 50.8132 76.468 51.0477C76.3419 51.1116 76.2185 51.1847 76.0938 51.2653C76.4469 50.7828 76.8274 50.1133 77.0965 49.2246Z" fill="#FCC700"/>
<path d="M77.4375 47.9546C77.8177 47.6 78.5832 46.7356 79.0018 45.2656C79.4142 46.7356 80.1872 47.6 80.5678 47.9546C80.2193 49.2497 79.568 50.149 79.16 50.5157C79.1021 50.508 79.0551 50.508 79.0018 50.508C78.9499 50.508 78.8952 50.508 78.842 50.5157C78.4356 50.149 77.7751 49.2497 77.4375 47.9546Z" fill="#FCC700"/>
<path d="M80.9074 49.2246C81.1751 50.1133 81.557 50.7828 81.9071 51.2653C81.7778 51.1847 81.6576 51.1116 81.5312 51.0477C81.0669 50.8132 80.6122 50.6764 80.1797 50.6033C80.4249 50.2412 80.6926 49.7831 80.9074 49.2246Z" fill="#FCC700"/>
<path d="M81.3438 48.0489C81.6605 47.7766 82.5536 46.8908 83.0176 45.2656C83.4743 46.8908 84.3675 47.7766 84.6855 48.0489C84.3493 49.8004 83.4164 50.9297 83.0176 51.1959C82.6112 50.9297 81.674 49.8004 81.3438 48.0489Z" fill="#FCC700"/>
<path d="M83.2284 52.2048C83.2999 52.1606 84.3698 51.3419 84.9982 49.5645C85.5916 51.4787 86.7177 52.3524 86.8332 52.4268C86.6631 53.6549 86.0132 54.5299 85.4423 54.9682C84.9572 54.5847 84.5157 54.1099 84.0623 53.4845C83.7503 53.031 83.4339 52.6292 83.1172 52.2869L83.2284 52.2048Z" fill="#FCC700"/>
<path d="M92.0391 50.6146C92.3144 50.5796 92.5838 50.543 92.8472 50.502C93.3294 52.0421 94.8573 56.2178 97.9343 57.9845C98.1123 58.0849 98.2827 58.1762 98.4532 58.2585C97.604 58.549 95.8084 58.9127 94.2441 57.6284C93.6719 55.5162 92.8697 53.0981 92.0391 50.6146Z" fill="#FCC700"/>
<path d="M93.8984 50.2913C94.5954 50.1285 95.2526 49.9215 95.8873 49.6582C96.5297 50.9411 99.0725 55.4728 103.688 56.7313C102.789 57.4862 100.962 58.4768 98.5063 57.0722C95.8797 55.5521 94.4034 51.816 93.8984 50.2913Z" fill="#FCC700"/>
<path d="M96.8438 49.2255C97.4295 48.9287 97.9957 48.5818 98.5358 48.1953C99.7655 49.7307 103.813 54.1636 109.445 54.1499C108.896 54.9397 107.511 56.3337 104.796 55.8772C100.274 55.1147 97.5453 50.5616 96.8438 49.2255Z" fill="#FCC700"/>
<path d="M99.375 47.5494C99.8803 47.1219 100.37 46.6501 100.833 46.1387C101.443 46.5497 102.673 47.3471 104.259 48.1491L103.718 49.2949C103.656 49.4288 103.601 49.5567 103.802 49.7377C104.441 50.2703 106.715 51.7359 109.872 51.7359C111.834 51.7359 113.482 51.1485 114.591 50.5793C113.89 51.6156 112.411 53.0232 109.538 53.0612C104.499 53.1268 100.609 49.0196 99.375 47.5494Z" fill="#FCC700"/>
<path d="M109.155 35.7305V36.4517C109.155 36.4517 92.5253 37.7985 88.2368 38.1729C88.0528 37.3952 87.9036 36.6693 87.7987 36.0166V36.0135V36.0029C87.7805 35.9147 87.7682 35.8219 87.75 35.7306L109.155 35.7305Z" fill="#FCC700"/>
<path d="M87.7714 42.3115C87.5066 42.7604 87.2157 43.0556 87.0288 43.1774C86.6283 42.9171 85.7183 41.8076 85.4688 40.0943C85.7732 39.8035 86.3057 39.1918 86.6757 38.2012C86.9603 39.4475 87.3405 40.8369 87.7714 42.3115Z" fill="#FCC700"/>
<path d="M70.3223 28.6892H70.3175C70.1305 28.6816 69.75 28.6816 69.5491 28.6816C69.19 28.6816 67.539 28.7166 67.0747 29.7088C66.7461 29.2218 66.4844 28.7029 66.3033 28.155C66.113 27.5721 66.0078 26.965 66.0078 26.3958C66.0184 25.8054 66.1312 25.3794 66.3503 25.0764C66.5681 24.7935 66.9119 24.5926 67.405 24.4586C68.5295 24.1619 70.1411 24.0204 71.3206 24.1071L71.3265 24.1117H71.3371L71.716 24.1361C72.2958 24.1589 73.8998 25.0764 74.8784 26.5997C74.8784 26.5997 78.3144 25.9607 80.6399 23.6933C80.6399 23.6933 76.3116 24.1392 72.7263 23.6278C72.6688 23.6201 72.5424 23.5669 72.6125 23.4148C72.6125 23.4148 72.626 23.3736 72.6625 23.3235C72.6625 23.3188 72.6625 23.3159 72.6625 23.3159C72.9487 22.8837 73.3915 22.3449 74.7308 21.9264H74.7384C75.3791 21.7241 76.3438 21.5886 77.5232 21.5414C78.742 21.4866 80.1756 21.5171 81.7873 21.6357C84.2159 21.8108 86.0162 21.6069 87.3006 21.3086C86.9309 22.2781 86.2522 23.4315 85.0178 24.2746H85.0072V24.2776L84.572 24.5789L84.1081 24.9016L84.3301 25.4235L84.528 25.8998C84.9251 26.8936 85.2068 28.8627 85.5231 31.1378L85.5595 31.4057C85.7515 32.833 85.9841 34.5298 86.2915 36.2631C86.2915 36.2982 86.2963 36.3286 86.3021 36.3589C86.2124 37.9629 85.4212 39.0022 85.033 39.2686H85.0072C84.5399 38.955 83.4154 37.5292 83.3972 35.3682H83.2953H82.7324H82.6288C82.6103 37.5292 81.4858 38.955 81.0201 39.2686H80.999C80.5241 38.955 79.4026 37.5292 79.3814 35.3682H79.2824H78.7146H78.6156C78.6007 37.5292 77.4729 38.955 77.0043 39.2686H76.9785C76.5159 38.955 75.3867 37.5292 75.3652 35.3682H75.2709H74.7004H74.5984C74.5816 37.5292 73.4571 38.955 72.9852 39.2686H72.9699C72.5897 39.0113 71.8395 38.0314 71.7071 36.5141C71.9596 35.5082 72.2882 34.3533 72.3094 34.2863C72.6946 32.9928 72.8909 31.8347 72.8985 31.7844V31.78C73.0431 30.8654 72.8908 30.1258 72.4405 29.5811C71.9914 29.0331 71.2641 28.7226 70.3223 28.6892Z" fill="#FCC700"/>
<path d="M72.5305 40.0943C72.281 41.8076 71.3663 42.9171 70.9692 43.1774C70.7852 43.0556 70.4989 42.7604 70.2266 42.3115C70.6647 40.8369 71.039 39.4475 71.3253 38.2012C71.6949 39.1918 72.2247 39.8035 72.5305 40.0943Z" fill="#FCC700"/>
<path d="M48.8438 35.7305H70.3234C70.2156 36.1489 70.1103 36.5796 70.0329 36.9357V36.9419V36.9465C69.9505 37.3405 69.8625 37.7483 69.7602 38.1729C65.288 37.7849 48.8438 36.4517 48.8438 36.4517V35.7305Z" fill="#FCC700"/>
<path d="M48.1193 38.7832L52.8671 49.0581L52.8976 49.119H43.3516L48.1193 38.7832Z" fill="#FCC700"/>
<path d="M39.3554 44.7675C40.7449 45.253 42.2272 45.5178 43.7018 45.6167L42.1951 48.8231C40.4544 48.0911 39.319 46.6653 38.8047 44.5605C38.9811 44.6337 39.1667 44.7052 39.3554 44.7675Z" fill="#FCC700"/>
<path d="M35.7031 39.2012C38.844 40.1159 42.1874 40.8568 45.7118 41.3362L44.1991 44.5745C42.6821 44.4909 41.1665 44.2442 39.7435 43.7467C36.5354 42.6266 35.8477 40.2512 35.7031 39.2012Z" fill="#FCC700"/>
<path d="M9.19918 20.0586C18.1121 29.1314 33.3266 36.8469 47.3389 37.8496L46.228 40.2281C27.6489 37.9745 14.6225 28.083 10.5517 24.1386C9.07442 22.7097 8.90399 20.987 9.19918 20.0586Z" fill="#FCC700"/>
<path d="M10.9506 26.1953C14.8235 29.6527 23.2142 35.3335 34.5241 38.8426C34.5711 39.5305 34.8514 41.4433 36.4736 43.0321C29.0654 42.125 18.9472 38.5961 13.4296 33.7554C9.99788 30.7529 10.3844 27.7581 10.9506 26.1953Z" fill="#FCC700"/>
<path d="M13.783 35.6797C20.153 40.598 30.44 43.631 37.5788 44.2367C37.8191 45.4997 38.294 46.8145 39.1782 47.9087C32.7244 48.4031 24.0564 47.3898 17.811 43.2002C13.8041 40.5053 13.588 37.2837 13.783 35.6797Z" fill="#FCC700"/>
<path d="M24.9319 52.0998C21.6418 50.8474 19.3332 48.627 19 45.3887C25.5878 48.9695 34.0365 49.5417 40.1828 48.9071C40.6303 49.2662 41.1601 49.5842 41.7687 49.8322C41.8583 50.0894 42.3011 51.214 43.4078 52.2489C40.9787 52.9991 32.7538 55.0839 24.9319 52.0998Z" fill="#FCC700"/>
<path d="M36.2225 58.6696C32.068 58.5174 29.3488 57.0762 28.125 54.3569C36.2881 56.0688 43.5391 53.4088 44.4475 53.0527C45.1765 53.5078 46.0803 53.8806 47.2064 54.048C47.2551 54.1575 47.6036 54.8712 48.3495 55.5789C46.9434 56.3915 42.1224 58.8872 36.2225 58.6696Z" fill="#FCC700"/>
<path d="M37.2422 59.9611C42.9061 59.8591 47.7714 57.301 49.2947 56.2891C50.1802 56.8202 51.3961 57.1884 52.9984 56.9936C53.1765 57.1854 53.4488 57.444 53.8053 57.7119C52.5679 58.9095 49.3023 61.667 44.7096 62.4674C41.2567 63.067 38.8978 62.2346 37.2422 59.9611Z" fill="#FCC700"/>
<path d="M47.6061 65.4529C46.375 65.2945 45.2475 64.5794 44.5625 63.8169C49.9375 63.0849 53.5443 59.6823 54.7949 58.3203C55.6884 58.7631 56.8569 59.0416 58.2342 58.7236C58.406 58.9077 58.7349 59.1071 59.1671 59.2699C57.9162 60.9941 53.5913 66.2029 47.6061 65.4529Z" fill="#FCC700"/>
<path d="M52.5 66.2232C56.7167 64.7502 59.5531 60.8317 60.3659 59.5793C61.2773 59.707 62.3501 59.6446 63.3727 59.1699C63.2132 59.8622 63.0911 60.5059 63.0242 61.0994C61.813 61.3292 60.7021 62.0642 59.888 63.1828C58.3115 65.3514 57.4623 66.2993 55.3486 66.9872C55.3364 66.9887 55.3149 66.9948 55.3043 66.9963C54.0855 66.9231 53.142 66.5626 52.5 66.2232Z" fill="#FCC700"/>
<path d="M53.3117 75.8359C51.6802 73.5943 51.9406 72.4271 52.3013 71.3192C52.6558 70.2129 53.132 69.1203 55.7725 68.2635C56.5773 68.0003 57.2332 67.6943 57.81 67.3262C59.3485 68.3853 63.8194 71.4502 67.8749 74.2289C67.636 74.6977 67.4182 75.1861 67.2359 75.6898L57.2167 72.3144C56.9215 72.2186 56.5912 72.3783 56.4876 72.6798C56.3933 72.9856 56.5591 73.3082 56.8635 73.4087L66.9496 76.5647C66.8037 77.076 66.6955 77.5951 66.6118 78.1246C61.7041 77.9846 56.2808 77.8385 54.4087 77.7867C54.1608 77.1492 53.8064 76.5176 53.3117 75.8359Z" fill="#FCC700"/>
<path d="M56.4122 85.2398C55.5297 84.5978 55.0108 83.6361 54.9939 82.3623C54.9939 80.9182 54.9529 79.798 54.7109 78.7754C56.7607 78.8105 61.8511 78.9048 66.5093 78.9915C66.4835 79.3247 66.4712 79.6567 66.4712 79.9959C66.4712 80.2441 66.4788 80.486 66.491 80.7325L59.0815 81.7885C58.9415 81.8097 58.8168 81.8934 58.733 82.0063C58.6477 82.1264 58.6066 82.2647 58.6324 82.4123C58.6477 82.5586 58.7268 82.6711 58.8485 82.7611C58.8929 82.7975 58.9505 82.8233 58.9978 82.8445C59.0815 82.8703 59.1652 82.8783 59.2519 82.8597L66.5778 81.6257C66.6522 82.1691 66.7558 82.7075 66.8958 83.2357L59.4604 85.5307C58.3938 85.8745 57.231 85.8272 56.4122 85.2398Z" fill="#FCC700"/>
<path d="M58.1849 92.1861C57.4512 91.1483 57.3036 90.0678 57.6402 89.0271C57.9565 88.0683 58.8696 87.3469 59.9365 86.9938L67.3003 84.4844C67.4966 85.002 67.7279 85.4993 67.9867 85.9742L61.3363 89.2825C61.2572 89.3192 61.1993 89.3769 61.1477 89.447C61.1113 89.4897 61.0838 89.5443 61.0656 89.6039C61.0275 89.7376 61.0275 89.8792 61.0974 90.0099C61.1689 90.141 61.2787 90.226 61.42 90.278C61.5541 90.328 61.7063 90.3144 61.834 90.2488L68.4477 86.7506C68.7597 87.2374 69.1079 87.703 69.4825 88.1445C65.7661 90.9521 61.7 94.0244 60.0672 95.2588C59.6611 94.2892 59.0433 93.3533 58.1849 92.1861Z" fill="#FCC700"/>
<path d="M69.3056 102.705C68.6209 102.744 67.9084 102.883 67.1036 103.144C64.4711 104.004 63.4409 103.391 62.5004 102.711C61.5599 102.023 60.665 101.236 60.665 98.4664C60.665 97.6143 60.5767 96.9005 60.4062 96.2356C61.8868 95.0976 66.1906 91.7889 70.0863 88.791C70.4622 89.1686 70.8517 89.5217 71.2717 89.855L64.9642 98.3403C64.7739 98.5945 64.8301 98.9565 65.0902 99.1422C65.3444 99.3341 65.7097 99.2656 65.8924 99.0221L72.0219 90.395C72.4587 90.6919 72.9197 90.9583 73.3946 91.2002C71.7466 95.8292 69.9324 100.938 69.3056 102.705Z" fill="#FCC700"/>
<path d="M78.2261 100.284C78.2261 101.412 77.8197 102.497 77.0073 103.097C76.1184 103.737 75.0472 103.937 73.8357 103.556C72.46 103.103 71.3828 102.801 70.3281 102.718C71.0022 100.777 72.6609 95.9674 74.1841 91.5604C74.7169 91.7884 75.2692 91.9698 75.8325 92.1174L74.5541 99.4902C74.5283 99.6318 74.5588 99.7807 74.6484 99.8889C74.7368 100.009 74.8552 100.088 75.0015 100.111C75.1491 100.14 75.2831 100.1 75.3957 100.015C75.4536 99.9833 75.49 99.9406 75.5204 99.8919C75.5737 99.8251 75.6101 99.7443 75.6253 99.6636L76.7118 92.3106C77.2429 92.4109 77.7893 92.4764 78.3386 92.5052L78.2261 100.284Z" fill="#FCC700"/>
<path d="M78.9995 56.3289C78.6769 56.3289 78.4227 56.5906 78.4227 56.9055L78.5352 67.4804C77.9965 67.5003 77.4716 67.5504 76.9497 67.6371C75.5635 62.9256 74.0247 57.7274 73.4922 55.9271C74.0247 55.4905 74.5148 54.9593 75.0155 54.2791C76.6469 52.0314 77.8307 51.9219 78.9995 51.9219C80.1621 51.9219 81.3538 52.0314 82.9773 54.2791C83.4767 54.9593 83.9681 55.4905 84.4993 55.9271C83.9681 57.7274 82.4372 62.9256 81.0417 67.6371C80.5274 67.5504 79.9933 67.5003 79.4562 67.4804L79.5717 56.9055C79.5717 56.5906 79.3176 56.3289 78.9995 56.3289Z" fill="#FCC700"/>
<path d="M84.1652 103.556C82.954 103.937 81.8765 103.737 80.9939 103.097C80.1751 102.497 79.7688 101.412 79.7688 100.285L79.6562 92.5054C80.2116 92.4765 80.752 92.411 81.2844 92.3108L82.3742 99.6637C82.3877 99.7445 82.4212 99.8252 82.4685 99.892C82.5112 99.9407 82.5476 99.9834 82.5979 100.015C82.718 100.101 82.8491 100.14 82.9904 100.111C83.1456 100.088 83.2584 100.009 83.3465 99.8891C83.4365 99.7809 83.4729 99.6319 83.4471 99.4903L82.167 92.1175C82.7319 91.9699 83.2766 91.7886 83.8108 91.5605C85.334 95.9675 86.9926 100.778 87.6591 102.718C86.6137 102.802 85.5408 103.103 84.1652 103.556Z" fill="#FCC700"/>
<path d="M97.336 98.4664C97.3407 101.236 96.4411 102.023 95.501 102.711C94.5542 103.391 93.5346 104.004 90.8961 103.144C90.0939 102.883 89.3804 102.744 88.6954 102.705C88.0745 100.938 86.2531 95.8292 84.6094 91.2002C85.0872 90.9583 85.5485 90.6919 85.985 90.395L92.1056 99.0221C92.2913 99.2656 92.652 99.3341 92.9137 99.1422C93.1725 98.9565 93.2228 98.5945 93.0415 98.3403L86.7293 89.855C87.1463 89.5217 87.5451 89.1686 87.9193 88.791C91.8151 91.7889 96.1095 95.0976 97.6007 96.2356C97.4243 96.9005 97.3406 97.6143 97.336 98.4664Z" fill="#FCC700"/>
<path d="M99.8133 92.1861C98.9611 93.3533 98.3433 94.2892 97.9339 95.2588C96.2981 94.0244 92.2379 90.9521 88.5156 88.1445C88.8945 87.703 89.2387 87.2374 89.5567 86.7506L96.1687 90.2488C96.2981 90.3144 96.4503 90.3279 96.5764 90.278C96.7151 90.226 96.8306 90.141 96.9007 90.0099C96.9692 89.8792 96.9769 89.7376 96.9325 89.6039C96.919 89.5443 96.8885 89.4897 96.8521 89.447C96.8034 89.3768 96.7409 89.3193 96.6648 89.2825L90.0118 85.9742C90.2719 85.4993 90.5002 85.0019 90.7041 84.4844L98.0616 86.9938C99.1269 87.3469 100.039 88.0683 100.355 89.0271C100.695 90.0678 100.553 91.1483 99.8133 92.1861Z" fill="#FCC700"/>
<path d="M102.997 82.3623C102.989 83.6361 102.47 84.5978 101.582 85.2398C100.765 85.8272 99.5944 85.8745 98.5304 85.5307L91.0938 83.2357C91.2427 82.7075 91.3433 82.1691 91.4207 81.6257L98.7406 82.8597C98.8286 82.8783 98.9123 82.8703 98.9914 82.8445C99.0493 82.8233 99.1026 82.7975 99.1512 82.7611C99.2671 82.6711 99.3399 82.5586 99.3614 82.4123C99.3872 82.2647 99.3398 82.1264 99.2624 82.0063C99.1833 81.8934 99.0569 81.8097 98.9123 81.7885L91.5028 80.7325C91.515 80.486 91.5213 80.2441 91.5213 79.9959C91.5213 79.6566 91.5074 79.3247 91.4846 78.9915C96.1474 78.9048 101.233 78.8105 103.283 78.7754C103.043 79.798 102.997 80.9182 102.997 82.3623Z" fill="#FCC700"/>
<path d="M104.688 75.8359C104.194 76.5176 103.842 77.1492 103.591 77.7867C101.719 77.8385 96.3005 77.9846 91.3835 78.1246C91.3104 77.5951 91.1949 77.076 91.0503 76.5647L101.143 73.4087C101.44 73.3082 101.611 72.9856 101.512 72.6798C101.415 72.3783 101.085 72.2186 100.787 72.3144L90.764 75.6898C90.5787 75.1861 90.3639 74.6977 90.125 74.2289C94.1743 71.4502 98.6468 68.3853 100.192 67.3262C100.768 67.6943 101.429 68.0003 102.234 68.2635C104.873 69.1203 105.34 70.2129 105.703 71.3192C106.058 72.4271 106.323 73.5943 104.688 75.8359Z" fill="#FCC700"/>
<path d="M102.687 66.9963C102.675 66.9947 102.657 66.9886 102.643 66.9872C100.536 66.2993 99.679 65.3514 98.1008 63.1796C97.288 62.0642 96.1787 61.3292 94.9675 61.0994C94.8944 60.5059 94.7772 59.8622 94.625 59.1699C95.6386 59.6446 96.7191 59.707 97.6246 59.5793C98.4357 60.8317 101.28 64.7502 105.49 66.2232C104.851 66.5626 103.913 66.9231 102.687 66.9963Z" fill="#FCC700"/>
<path d="M110.395 65.4529C104.405 66.2029 100.087 60.9941 98.8359 59.2699C99.2635 59.1071 99.5908 58.9077 99.7688 58.7236C101.14 59.0416 102.307 58.7631 103.2 58.3203C104.451 59.6823 108.059 63.0849 113.434 63.8169C112.756 64.5794 111.617 65.2945 110.395 65.4529Z" fill="#FCC700"/>
<path d="M113.287 62.4674C108.7 61.667 105.425 58.9095 104.195 57.7119C104.553 57.444 104.818 57.1854 104.997 56.9936C106.6 57.1884 107.811 56.8202 108.708 56.2891C110.223 57.301 115.09 59.8591 120.752 59.9611C119.104 62.2346 116.739 63.067 113.287 62.4674Z" fill="#FCC700"/>
<path d="M121.762 58.6696C115.863 58.8872 111.039 56.3915 109.641 55.5789C110.39 54.8712 110.733 54.1575 110.78 54.048C111.905 53.8806 112.818 53.5078 113.541 53.0527C114.451 53.4088 121.699 56.0688 129.863 54.3569C128.64 57.0762 125.916 58.5174 121.762 58.6696Z" fill="#FCC700"/>
<path d="M133.07 52.0998C125.241 55.0839 117.01 52.9991 114.594 52.2489C115.692 51.214 116.139 50.0894 116.227 49.8322C116.835 49.5842 117.359 49.2662 117.818 48.9071C123.957 49.5417 132.409 48.9695 139.001 45.3887C138.662 48.627 136.353 50.8474 133.07 52.0998Z" fill="#FCC700"/>
<path d="M140.18 43.2002C133.941 47.3898 125.263 48.4031 118.812 47.9087C119.7 46.8145 120.172 45.4997 120.418 44.2367C127.551 43.631 137.836 40.598 144.206 35.6797C144.403 37.2837 144.188 40.5053 140.18 43.2002Z" fill="#FCC700"/>
<path d="M144.569 33.7554C139.043 38.5961 128.933 42.125 121.516 43.0321C123.142 41.4433 123.418 39.5305 123.471 38.8426C134.773 35.3335 143.172 29.6527 147.045 26.1953C147.608 27.7581 148 30.7529 144.569 33.7554Z" fill="#FCC700"/>
<path d="M147.443 24.1386C143.366 28.083 130.348 37.9745 111.766 40.2281L110.656 37.8496C124.67 36.8469 139.889 29.1314 148.792 20.0586C149.092 20.987 148.919 22.7097 147.443 24.1386Z" fill="#FCC700"/>
<path d="M79.0005 68.8594C75.1322 68.8594 71.7326 70.8286 69.7344 73.8189C68.0255 76.3784 68.7178 79.8329 71.2822 81.5388C73.837 83.2431 77.2945 82.5538 79.0005 79.9957C80.7081 77.4331 84.1593 76.7436 86.7204 78.4481C89.2772 80.1572 89.9678 83.6144 88.2619 86.1741C89.4473 84.4043 90.1336 82.2814 90.1336 79.9957C90.1336 73.8447 85.1485 68.8594 79.0005 68.8594Z" fill="#C60C30"/>
<path d="M86.7171 78.4476C84.156 76.7431 80.7048 77.4326 78.9972 79.9952C77.2912 82.5533 73.8337 83.2426 71.2789 81.5383C68.7145 79.8324 68.0222 76.3779 69.7311 73.8184C68.5517 75.585 67.8594 77.7079 67.8594 79.9952C67.8594 86.1462 72.8462 91.13 78.9972 91.13C82.8611 91.13 86.2667 89.1639 88.2586 86.1736C89.9645 83.6139 89.2739 80.1567 86.7171 78.4476Z" fill="#003478"/>
<path d="M116.32 88.4666V92.501C116.32 93.23 116.911 93.8251 117.641 93.8251H128.843V91.6168H118.968V90.5773H128.673V85.3105H116.32V87.5155H126.02V88.4666H116.32Z" fill="white"/>
<path d="M128.668 78.824V76.1777H126.016V84.5612H128.668V81.0292H130.87V78.824H128.668Z" fill="white"/>
<path d="M41.0732 77.593H38.4297V79.7081H41.0732V81.1189H38.4297V83.2371H41.0732V85.004H43.718V76.1777H41.0732V77.593Z" fill="white"/>
<path d="M37.7167 84.4688C34.3171 84.4688 31.9844 86.7409 31.9844 89.5439C31.9844 92.3456 34.3171 94.619 37.7167 94.619C41.1118 94.619 43.4524 92.3456 43.4524 89.5439C43.4524 86.7409 41.1118 84.4688 37.7167 84.4688ZM37.7167 92.3197C35.8298 92.3197 34.7175 91.0778 34.7175 89.5439C34.7175 88.0084 35.8298 86.7651 37.7167 86.7651C39.6037 86.7651 40.7176 88.0084 40.7176 89.5439C40.7176 91.0778 39.6037 92.3197 37.7167 92.3197Z" fill="white"/>
<path d="M119.277 81.323C120.144 82.6986 121.559 83.8112 123.884 84.5813L124.875 82.6242C124.875 82.6242 121.877 81.7796 120.909 78.8243H124.254V76.7091H120.639V75.2969H117.902V76.7091H114.288V78.8243H117.633C116.665 81.7796 113.672 82.6242 113.672 82.6242L114.655 84.5813C116.983 83.8112 118.399 82.6986 119.277 81.323Z" fill="white"/>
<path d="M37.6404 77.3938C37.6404 76.843 37.1977 76.3986 36.6516 76.3986H29.076V78.6082H34.5816C34.3262 79.6872 33.2397 82.2741 28.5312 83.2374L29.1415 85.2994C36.0182 84.0515 37.6404 79.8864 37.6404 77.3938Z" fill="white"/>
<path d="M65.6859 109.426C61.8802 109.426 58.7969 112.509 58.7969 116.315C58.7969 120.124 61.8802 123.21 65.6859 123.21C69.4919 123.21 72.5795 120.124 72.5795 116.315C72.5795 112.509 69.4919 109.426 65.6859 109.426ZM65.6859 120.451C63.5024 120.451 61.7322 118.601 61.7322 116.315C61.7322 114.031 63.5024 112.178 65.6859 112.178C67.8667 112.178 69.6365 114.031 69.6365 116.315C69.6365 118.601 67.8667 120.451 65.6859 120.451Z" fill="white"/>
<path d="M81.4861 122.931V120.359H77.0711V109.699H74.1328V122.931H81.4861Z" fill="white"/>
<path d="M83.6875 122.931H86.6291V109.699H83.6875V122.931Z" fill="white"/>
<path d="M101.703 109.699V122.931H109.79V120.359H104.646V117.532H109.425V114.954H104.646V112.27H109.609V109.699H101.703Z" fill="white"/>
<path d="M48.4062 109.699V122.931H51.3509V119.259H52.9989C55.6361 119.259 57.7832 117.117 57.7832 114.478C57.7832 111.841 55.6361 109.699 52.9989 109.699H48.4062ZM52.6293 116.68H51.3509V112.27H52.6293C53.8557 112.27 54.8385 113.264 54.8385 114.478C54.8385 115.697 53.8557 116.68 52.6293 116.68Z" fill="white"/>
<path d="M95.0889 112.178C96.369 112.178 97.4144 112.827 98.0597 113.818L100.138 112.072C99.0518 110.462 97.288 109.426 95.0889 109.426C91.2832 109.426 88.1953 112.509 88.1953 116.315C88.1953 120.124 91.2832 123.21 95.0889 123.21C97.288 123.21 99.0518 122.169 100.138 120.559L98.0597 118.813C97.4144 119.81 96.369 120.451 95.0889 120.451C92.9055 120.451 91.1356 118.601 91.1356 116.315C91.1356 114.031 92.9055 112.178 95.0889 112.178Z" fill="white"/>
</g>
<defs>
<clipPath id="clip0_2794_61737">
<rect width="158" height="158" fill="white"/>
</clipPath>
</defs>
</svg>
