<svg width="200" height="200" viewBox="0 0 200 200" fill="none" xmlns="http://www.w3.org/2000/svg">
<path d="M78.4618 40.3707C82.7992 38.9262 87.3799 41.8803 87.3799 46.1217V55.7479H131.454C134.209 55.7479 136.443 57.802 136.444 60.3353V68.3744C134.33 66.9684 131.557 66.4399 128.959 67.0484V62.629H87.3799V137.556H128.959V132.463C131.558 133.071 134.33 132.544 136.444 131.138V139.85C136.444 142.383 134.21 144.437 131.454 144.437H87.3799V153.879C87.3797 158.087 82.8652 161.038 78.5422 159.655L34.467 145.561C31.947 144.755 30.2105 142.65 30.0183 140.232C30.007 140.106 30 139.978 30 139.85V60.3353C30.0002 59.2994 30.3737 58.3436 31.0038 57.5757C31.6864 56.566 32.6848 55.7418 33.903 55.2338L34.3866 55.0512L78.4618 40.3707ZM166.241 73.2329C167.546 71.8903 170 72.7216 170 74.5063V75.9499C170 86.3074 167.409 94.5832 162.301 100.565C156.394 107.481 147.208 111.345 134.955 112.082C134.911 112.085 134.867 112.088 134.823 112.09C134.658 112.1 134.493 112.11 134.326 112.118C133.992 112.136 133.655 112.152 133.315 112.164V124.672C133.315 124.723 133.313 124.774 133.309 124.824C133.301 124.924 133.285 125.021 133.262 125.114C133.168 125.489 132.956 125.808 132.673 126.055C132.638 126.086 132.601 126.116 132.564 126.145C132.489 126.202 132.41 126.253 132.327 126.3C132.121 126.419 131.892 126.506 131.654 126.557C131.559 126.577 131.462 126.592 131.364 126.601C131.315 126.605 131.266 126.607 131.216 126.608C131.035 126.613 130.853 126.596 130.672 126.557C130.508 126.522 130.345 126.469 130.188 126.395C130.047 126.328 129.91 126.245 129.779 126.145L129.262 125.748L97.2835 101.229C96.2767 100.457 96.2767 99.0563 97.2835 98.2844L129.043 73.9328L129.779 73.3684L129.784 73.365C129.937 73.2484 130.099 73.1561 130.266 73.085C130.286 73.0765 130.306 73.0672 130.326 73.0593C130.45 73.0108 130.576 72.975 130.704 72.9495C130.713 72.9475 130.723 72.9446 130.733 72.9428C131.146 72.8657 131.568 72.9059 131.949 73.0402C131.952 73.0414 131.955 73.0424 131.958 73.0436C132.118 73.1007 132.269 73.1752 132.41 73.2642C132.421 73.2708 132.432 73.2765 132.442 73.2833C132.506 73.3254 132.567 73.3715 132.626 73.4199C132.636 73.4283 132.646 73.437 132.656 73.4457C132.715 73.4958 132.771 73.5485 132.823 73.6047C132.83 73.6124 132.837 73.6204 132.844 73.6282C132.892 73.6821 132.938 73.7383 132.98 73.7973C132.997 73.8206 133.014 73.8439 133.029 73.8679C133.034 73.8756 133.039 73.8836 133.044 73.8914C133.062 73.92 133.079 73.9491 133.095 73.9788C133.102 73.9914 133.109 74.004 133.116 74.0168C133.13 74.0454 133.144 74.0747 133.157 74.1042C133.163 74.1169 133.169 74.1295 133.174 74.1423C133.185 74.168 133.195 74.1943 133.204 74.2207C133.211 74.2392 133.218 74.2578 133.224 74.2767C133.247 74.346 133.266 74.4172 133.28 74.4906C133.284 74.5121 133.289 74.5337 133.292 74.5555C133.307 74.6479 133.315 74.7431 133.315 74.8411V87.2515C134.393 87.2254 135.435 87.1813 136.444 87.1239V87.125C142.859 86.7597 147.897 85.7578 152.022 84.0451C157.181 81.9031 160.921 78.702 164.954 74.5555L166.241 73.2329ZM75.5297 94.3589C73.1187 94.3589 71.1641 96.9264 71.1639 100.093C71.1639 103.26 73.1185 105.827 75.5297 105.827C77.9409 105.827 79.8956 103.26 79.8956 100.093C79.8954 96.9264 77.9408 94.3589 75.5297 94.3589Z" fill="white"/>
</svg>
