<svg width="60" height="60" viewBox="0 0 60 60" fill="none" xmlns="http://www.w3.org/2000/svg">
<path d="M18.8741 11.9363L20.8392 10.8322C22.6736 9.79648 24.9884 10.3799 26.2415 12.1948L28.7363 15.8028C29.8243 17.3767 29.6728 19.3512 28.5501 21.0811C27.0251 23.4299 25.844 25.1113 25.844 25.1113C26.5139 27.3024 27.6318 29.3304 29.1268 31.0666C30.8716 33.1331 32.5556 34.2387 34.4476 35.3012C34.4476 35.3012 36.319 34.4333 38.8744 33.3089C40.5806 32.5596 42.3034 32.1731 43.6489 33.4772L46.7844 36.5128C47.5442 37.2553 48.0254 38.2365 48.1472 39.2917C48.2691 40.347 48.0242 41.412 47.4536 42.3081L46.1929 44.2383C45.5956 45.1697 44.7534 45.9187 43.7587 46.4033C42.764 46.8879 41.6551 47.0894 40.5535 46.9856C35.2789 46.4647 29.2756 42.5794 23.5423 35.8097C17.8027 29.0244 15.4919 23.0792 15.6144 17.5022C15.6648 15.1557 16.9287 13.0308 18.8741 11.9363Z" fill="white"/>
</svg>
