<svg width="60" height="60" viewBox="0 0 60 60" fill="none" xmlns="http://www.w3.org/2000/svg">
<circle cx="36.3203" cy="13.5186" r="5" fill="#454545"/>
<path d="M32.8232 20.0741C33.3302 19.9278 33.8819 19.911 34.4287 20.0575C36.0289 20.4864 36.9786 22.132 36.5498 23.7323L33.4434 35.3231C33.3543 35.6555 33.21 35.9577 33.0273 36.2274C32.496 37.069 31.5601 37.6298 30.4912 37.6298H20.2275L17.2061 42.8641C16.3776 44.299 14.5423 44.7912 13.1074 43.9628C11.6727 43.1343 11.1814 41.299 12.0098 39.8641L15.8369 33.2333C15.901 33.1116 15.9741 32.9957 16.0537 32.8846C16.0898 32.8334 16.1272 32.7836 16.166 32.7352C16.176 32.723 16.1862 32.7111 16.1963 32.6991C16.238 32.6488 16.2827 32.6016 16.3271 32.5546C16.3506 32.5301 16.3742 32.5059 16.3984 32.4823C17.0257 31.8628 17.891 31.5577 18.7549 31.6298H28.2217L29.6729 26.2118L21.6719 28.3563C20.3078 28.7216 18.9057 27.9127 18.54 26.5487C18.1745 25.1844 18.9844 23.7814 20.3486 23.4159L32.7949 20.0809C32.8043 20.0784 32.8138 20.0765 32.8232 20.0741Z" fill="#454545"/>
<path d="M39.2067 23.8359C39.4607 22.9057 40.5033 22.4345 41.312 22.9598C45.5679 25.7247 48.3828 30.5204 48.3828 35.9736C48.3825 44.5381 41.4396 51.4814 32.875 51.4814C27.5621 51.4814 22.8733 48.8092 20.0786 44.7359C19.7927 44.3192 19.7901 43.7755 20.0428 43.3379C20.6089 42.3576 22.0997 42.4223 22.7667 43.3369C25.0407 46.4548 28.7204 48.4814 32.875 48.4814C39.7827 48.4814 45.3825 42.8813 45.3828 35.9736C45.3828 31.6785 43.2174 27.8893 39.9191 25.6373C39.3326 25.2369 39.0196 24.521 39.2067 23.8359Z" fill="#454545"/>
</svg>
