<svg width="50" height="50" viewBox="0 0 50 50" fill="none" xmlns="http://www.w3.org/2000/svg">
<path d="M18.7118 18.7705C13.7916 21.0964 10.9999 25.5119 10.9999 30.6094C11.0004 37.7462 16.7868 43.5322 23.9238 43.5322C28.5956 43.5321 32.6889 41.0524 34.9589 37.3379L33.4784 34.7744C31.8706 38.4569 28.1987 41.0321 23.9238 41.0322C18.1675 41.0322 13.5004 36.3655 13.4999 30.6094C13.4999 26.6692 15.6873 23.2397 18.913 21.4678L18.7118 18.7705ZM22.2978 16.0088C20.9216 16.121 19.8965 17.328 20.0087 18.7041L20.8212 28.6709C20.8464 28.9793 20.9299 29.269 21.0546 29.5332C21.4081 30.4845 22.3211 31.1639 23.3954 31.1641H32.538L35.497 36.2891C36.1875 37.4842 37.7166 37.8942 38.912 37.2041C40.1075 36.5139 40.5168 34.9847 39.8271 33.7891L36.2245 27.5498C36.0328 27.2177 35.7754 26.9473 35.4794 26.7432C35.046 26.3818 34.4882 26.1642 33.8798 26.1641H25.6337L25.4443 23.8271L31.495 24.0391C32.6709 24.0798 33.6578 23.1593 33.6991 21.9834C33.7401 20.8073 32.8195 19.8205 31.6435 19.7793L25.0956 19.5498L24.9931 18.2979C24.8809 16.9218 23.6738 15.8967 22.2978 16.0088ZM22.0966 8.19824C20.2076 8.19824 18.6757 9.73015 18.6757 11.6191C18.6758 13.5081 20.2076 15.0391 22.0966 15.0391C23.9854 15.0389 25.5165 13.508 25.5165 11.6191C25.5165 9.73026 23.9854 8.19844 22.0966 8.19824Z" fill="black"/>
</svg>
