<svg width="200" height="200" viewBox="0 0 200 200" fill="none" xmlns="http://www.w3.org/2000/svg">
<path d="M78.4618 40.3709C82.7992 38.9264 87.3799 41.8805 87.3799 46.122V55.7481H131.454C134.209 55.7481 136.443 57.8023 136.444 60.3355V68.3747C134.33 66.9686 131.557 66.4401 128.959 67.0486V62.6292H87.3799V137.556H128.959V132.463C131.558 133.072 134.33 132.544 136.444 131.138V139.85C136.444 142.384 134.21 144.438 131.454 144.438H87.3799V153.879C87.3797 158.087 82.8652 161.038 78.5422 159.656L34.467 145.561C31.947 144.755 30.2105 142.65 30.0183 140.232C30.007 140.106 30 139.979 30 139.85V60.3355C30.0002 59.2996 30.3737 58.3438 31.0038 57.5759C31.6864 56.5663 32.6848 55.742 33.903 55.234L34.3866 55.0515L78.4618 40.3709ZM166.241 73.2331C167.546 71.8905 170 72.7219 170 74.5065V75.9502C170 86.3077 167.409 94.5834 162.301 100.565C156.394 107.481 147.208 111.345 134.955 112.083C134.911 112.085 134.867 112.088 134.823 112.091C134.658 112.1 134.493 112.11 134.326 112.119C133.992 112.136 133.655 112.152 133.315 112.164V124.672C133.315 124.724 133.313 124.775 133.309 124.825C133.301 124.924 133.285 125.021 133.262 125.115C133.168 125.489 132.956 125.809 132.673 126.055C132.638 126.086 132.601 126.116 132.564 126.145C132.489 126.202 132.41 126.254 132.327 126.301C132.121 126.419 131.892 126.506 131.654 126.557C131.559 126.578 131.462 126.592 131.364 126.601C131.315 126.605 131.266 126.607 131.216 126.609C131.035 126.613 130.853 126.596 130.672 126.557C130.508 126.522 130.345 126.469 130.188 126.395C130.047 126.328 129.91 126.245 129.779 126.145L129.262 125.749L97.2835 101.229C96.2767 100.457 96.2767 99.0566 97.2835 98.2846L129.043 73.9331L129.779 73.3686L129.784 73.3653C129.937 73.2486 130.099 73.1564 130.266 73.0853C130.286 73.0768 130.306 73.0674 130.326 73.0595C130.45 73.0111 130.576 72.9753 130.704 72.9497C130.713 72.9478 130.723 72.9449 130.733 72.943C131.146 72.8659 131.568 72.9061 131.949 73.0405C131.952 73.0416 131.955 73.0427 131.958 73.0438C132.118 73.101 132.269 73.1754 132.41 73.2645C132.421 73.271 132.432 73.2768 132.442 73.2835C132.506 73.3256 132.567 73.3718 132.626 73.4201C132.636 73.4286 132.646 73.4373 132.656 73.4459C132.715 73.496 132.771 73.5488 132.823 73.6049C132.83 73.6126 132.837 73.6207 132.844 73.6285C132.892 73.6824 132.938 73.7386 132.98 73.7976C132.997 73.8208 133.014 73.8441 133.029 73.8681C133.034 73.8759 133.039 73.8838 133.044 73.8916C133.062 73.9202 133.079 73.9494 133.095 73.979C133.102 73.9917 133.109 74.0042 133.116 74.0171C133.13 74.0457 133.144 74.075 133.157 74.1044C133.163 74.1171 133.169 74.1297 133.174 74.1425C133.185 74.1683 133.195 74.1945 133.204 74.2209C133.211 74.2394 133.218 74.2581 133.224 74.2769C133.247 74.3463 133.266 74.4175 133.28 74.4908C133.284 74.5124 133.289 74.5339 133.292 74.5558C133.307 74.6482 133.315 74.7434 133.315 74.8414V87.2518C134.393 87.2257 135.435 87.1815 136.444 87.1241V87.1252C142.859 86.7599 147.897 85.7581 152.022 84.0453C157.181 81.9033 160.921 78.7023 164.954 74.5558L166.241 73.2331ZM75.5297 94.3591C73.1187 94.3591 71.1641 96.9267 71.1639 100.093C71.1639 103.26 73.1185 105.828 75.5297 105.828C77.9409 105.828 79.8956 103.26 79.8956 100.093C79.8954 96.9267 77.9408 94.3591 75.5297 94.3591Z" fill="black"/>
</svg>
