<svg width="200" height="200" viewBox="0 0 200 200" fill="none" xmlns="http://www.w3.org/2000/svg">
<path d="M84.5668 40.1623C85.5327 39.9399 86.4876 39.952 87.3808 40.1623C87.497 40.1897 87.6122 40.22 87.7262 40.2539C88.2964 40.4234 88.8376 40.6735 89.3352 40.9925C89.4347 41.0563 89.5321 41.1233 89.6279 41.1925C89.8199 41.3311 90.0044 41.4803 90.1807 41.6395C91.5013 42.8322 92.3539 44.5835 92.3541 46.582V53.0125H127.528C130.177 53.0125 132.324 55.2221 132.324 57.9478V72.5439C129.866 72.3237 127.465 72.2826 125.13 72.427V60.4154H92.3541V141.024H125.13V125.84C126.996 127.66 129.648 128.62 132.324 128.199V143.492C132.324 146.217 130.177 148.427 127.528 148.427H92.3541V153.419C92.354 153.749 92.3276 154.073 92.2826 154.389C92.2751 154.442 92.2692 154.495 92.2604 154.548C92.2502 154.608 92.237 154.668 92.2253 154.728C92.2132 154.79 92.2026 154.852 92.1889 154.913C92.1718 154.989 92.1512 155.064 92.1316 155.139C92.1217 155.177 92.1128 155.215 92.1023 155.253C92.085 155.314 92.0651 155.375 92.0461 155.436C92.0263 155.499 92.0079 155.563 91.9864 155.625C91.965 155.687 91.9416 155.748 91.9184 155.809C91.9035 155.849 91.8885 155.888 91.8728 155.927C91.8424 156.003 91.8109 156.078 91.7779 156.153C91.7607 156.191 91.7432 156.23 91.7252 156.268C91.6935 156.336 91.6596 156.403 91.6257 156.47C91.6064 156.507 91.5872 156.545 91.5671 156.583C91.5354 156.642 91.5022 156.701 91.4688 156.759C91.4416 156.806 91.414 156.853 91.3856 156.9C91.354 156.952 91.3214 157.003 91.2884 157.054C91.2603 157.097 91.2332 157.141 91.2041 157.184C91.1613 157.247 91.1167 157.308 91.0718 157.37C91.05 157.399 91.0285 157.429 91.0062 157.459C90.9621 157.517 90.9163 157.573 90.8704 157.63C90.8379 157.67 90.8054 157.71 90.772 157.749C90.7355 157.792 90.6983 157.834 90.6608 157.876C90.6192 157.922 90.5772 157.968 90.5343 158.013C90.498 158.051 90.4614 158.089 90.4242 158.126C90.3811 158.17 90.3374 158.212 90.2931 158.254C90.2508 158.294 90.2076 158.333 90.1643 158.372C90.1252 158.407 90.0858 158.442 90.046 158.476C89.995 158.519 89.9437 158.563 89.8914 158.605C89.8561 158.633 89.8208 158.661 89.7849 158.689C89.7295 158.732 89.6729 158.772 89.6162 158.813C89.5813 158.838 89.5463 158.863 89.5108 158.888C89.4506 158.929 89.3898 158.97 89.3282 159.009C89.2934 159.032 89.258 159.053 89.2228 159.075C89.1592 159.113 89.0956 159.152 89.0307 159.189C89.0009 159.206 88.9707 159.222 88.9406 159.238C88.8713 159.276 88.8016 159.313 88.7309 159.348C88.6915 159.368 88.6514 159.386 88.6115 159.405C88.551 159.433 88.4903 159.461 88.4288 159.488C88.3838 159.507 88.3385 159.526 88.293 159.544C88.2305 159.57 88.1678 159.595 88.1045 159.618C88.063 159.633 88.021 159.647 87.9792 159.661C87.9099 159.685 87.8409 159.71 87.7707 159.731C87.742 159.74 87.7129 159.747 87.6841 159.755C87.596 159.781 87.5077 159.806 87.4182 159.828C87.4116 159.829 87.405 159.831 87.3983 159.832C87.3011 159.856 87.2031 159.877 87.1044 159.895C87.0644 159.903 87.0241 159.909 86.9838 159.916C86.903 159.929 86.8219 159.941 86.7402 159.952C86.7321 159.953 86.7238 159.953 86.7156 159.954C86.6104 159.967 86.5048 159.978 86.3983 159.985C86.3757 159.987 86.353 159.988 86.3304 159.989C86.2371 159.994 86.1435 159.999 86.0493 160C86.0076 160 85.9659 159.999 85.924 159.999C85.8478 159.998 85.7712 159.999 85.6945 159.995C85.6691 159.994 85.6438 159.991 85.6184 159.989C85.2812 159.97 84.94 159.925 84.5973 159.848L35.0342 148.734C34.9444 148.714 34.8553 148.69 34.7672 148.667C34.5429 148.606 34.3245 148.532 34.1114 148.449C34.008 148.408 33.9052 148.367 33.8046 148.321C31.6316 147.851 30.0001 145.867 30 143.492V57.9478C30 55.7804 31.358 53.9397 33.246 53.2764C33.595 53.0733 33.966 52.9024 34.355 52.7679L34.4053 52.7523C34.5444 52.7055 34.6857 52.663 34.8293 52.6257L34.882 52.6101L77.6766 41.8853L84.445 40.1888C84.4855 40.1787 84.5264 40.1716 84.5668 40.1623ZM142.519 67.2977C142.965 65.5848 145.196 65.2068 146.201 66.6736L169.629 100.885C170.355 101.945 169.976 103.401 168.833 103.946L132.324 121.319V121.325L131.916 121.52L131.784 121.57C131.771 121.575 131.758 121.58 131.745 121.585L131.617 121.636C130.826 121.875 130.034 121.594 129.522 121.041C129.512 121.03 129.502 121.019 129.493 121.008C129.445 120.954 129.399 120.897 129.357 120.838C129.348 120.826 129.339 120.814 129.33 120.801L129.271 120.717C129.264 120.705 129.258 120.692 129.251 120.681C129.221 120.63 129.194 120.578 129.168 120.525C129.154 120.497 129.141 120.468 129.129 120.438C129.104 120.381 129.081 120.323 129.062 120.264C129.008 120.098 128.973 119.923 128.963 119.742C128.963 119.726 128.962 119.71 128.961 119.694C128.96 119.663 128.961 119.633 128.961 119.602C128.963 119.432 128.984 119.257 129.03 119.079L132.39 106.182C132.368 106.177 132.346 106.172 132.324 106.166V106.172C129.745 105.538 127.357 105.07 125.13 104.764V104.759C120.973 104.188 117.378 104.182 114.151 104.725C108.782 105.63 104.442 107.998 99.5745 111.274L98.0229 112.32C96.4479 113.381 94.3933 111.887 94.8764 110.033L95.2675 108.533C98.0713 97.7697 102.716 89.833 109.078 84.9253C116.761 79.0009 126.862 77.4472 139.134 80.2949L142.519 67.2977ZM79.1638 94.55C76.5149 94.55 74.3676 97.3123 74.3673 100.719C74.3674 104.126 76.5148 106.888 79.1638 106.888C81.8128 106.888 83.9602 104.126 83.9602 100.719C83.96 97.3123 81.8126 94.55 79.1638 94.55Z" fill="black"/>
</svg>
