<svg width="60" height="60" viewBox="0 0 60 60" fill="none" xmlns="http://www.w3.org/2000/svg">
<path d="M18.8751 11.9365L20.8402 10.8323C22.6746 9.7966 24.9894 10.38 26.2425 12.1949L28.7373 15.8029C29.8253 17.3768 29.6738 19.3514 28.5511 21.0812C27.026 23.4301 25.845 25.1115 25.845 25.1115C26.5149 27.3025 27.6328 29.3305 29.1278 31.0667C30.8726 33.1333 32.5566 34.2388 34.4486 35.3013C34.4486 35.3013 36.32 34.4334 38.8754 33.309C40.5816 32.5597 42.3044 32.1732 43.6498 33.4773L46.7854 36.513C47.5451 37.2554 48.0263 38.2366 48.1482 39.2919C48.27 40.3471 48.0251 41.4122 47.4546 42.3082L46.1939 44.2384C45.5966 45.1698 44.7544 45.9188 43.7597 46.4034C42.765 46.888 41.6561 47.0895 40.5545 46.9857C35.2798 46.4648 29.2766 42.5796 23.5433 35.8099C17.8037 29.0245 15.4929 23.0793 15.6154 17.5023C15.6658 15.1558 16.9297 13.0309 18.8751 11.9365Z" fill="#2846A5"/>
</svg>
