<svg width="70" height="70" viewBox="0 0 70 70" fill="none" xmlns="http://www.w3.org/2000/svg">
<g clip-path="url(#clip0_59_38777)">
<mask id="mask0_59_38777" style="mask-type:alpha" maskUnits="userSpaceOnUse" x="0" y="0" width="70" height="70">
<rect width="70" height="70" fill="#D9D9D9"/>
</mask>
<g mask="url(#mask0_59_38777)">
<path d="M59.7849 63.8805C58.6587 65.0066 56.8345 65.0121 55.7016 63.8927L45.4993 53.8119C43.798 54.3466 42.0844 54.7476 40.3587 55.015C38.633 55.2823 36.8466 55.416 34.9993 55.416C27.6591 55.416 21.1209 53.3865 15.3848 49.3275C9.64865 45.2685 5.4924 40.0063 2.91602 33.541C3.93685 30.9646 5.22504 28.5705 6.7806 26.3587C8.33615 24.1469 10.1105 22.166 12.1035 20.416L6.09676 14.3C4.98149 13.1645 4.9897 11.3423 6.11515 10.2169C7.24781 9.08422 9.08422 9.08422 10.2169 10.2169L59.7849 59.7849C60.9159 60.9159 60.9159 62.7495 59.7849 63.8805ZM34.9993 46.666C35.5341 46.666 36.0323 46.6417 36.4941 46.5931C36.9559 46.5445 37.4542 46.4473 37.9889 46.3014L22.2389 30.5514C22.0931 31.0862 21.9959 31.5844 21.9473 32.0462C21.8987 32.508 21.8743 33.0063 21.8743 33.541C21.8743 37.1869 23.1504 40.2858 25.7025 42.8379C28.2546 45.39 31.3535 46.666 34.9993 46.666ZM56.291 47.9785L47.0306 38.791C47.3709 37.9646 47.6382 37.1261 47.8327 36.2754C48.0271 35.4247 48.1243 34.5132 48.1243 33.541C48.1243 29.8952 46.8483 26.7962 44.2962 24.2441C41.7441 21.6921 38.6452 20.416 34.9993 20.416C34.0271 20.416 33.1157 20.5132 32.265 20.7077C31.4143 20.9021 30.5757 21.1938 29.7493 21.5827L22.3118 14.1452C24.3049 13.3188 26.3466 12.699 28.4368 12.2858C30.5271 11.8726 32.7146 11.666 34.9993 11.666C42.3396 11.666 48.8778 13.6955 54.6139 17.7546C60.35 21.8136 64.5063 27.0757 67.0827 33.541C65.9646 36.4091 64.4941 39.0705 62.6712 41.5254C60.8483 43.9803 58.7216 46.1313 56.291 47.9785ZM42.8014 34.5619L34.0514 25.8119C35.4125 25.5688 36.6643 25.6782 37.8066 26.14C38.949 26.6018 39.9334 27.2702 40.7598 28.1452C41.5862 29.0202 42.1816 30.0289 42.5462 31.1712C42.9108 32.3136 42.9959 33.4438 42.8014 34.5619Z" fill="#D1D1D1"/>
</g>
</g>
<defs>
<clipPath id="clip0_59_38777">
<rect width="70" height="70" fill="white"/>
</clipPath>
</defs>
</svg>
