<svg width="160" height="80" viewBox="0 0 160 80" fill="none" xmlns="http://www.w3.org/2000/svg">
<rect x="1" y="1" width="158" height="78" fill="#E7E7E7"/>
<rect x="1" y="1" width="158" height="78" stroke="#B0B0B0" stroke-width="2"/>
<path d="M50.6094 27.0469V52.5H46.8477V27.0469H50.6094ZM63.2656 52.8867C57.8516 52.8867 54.3359 48.9492 54.3359 43.043C54.3359 37.1016 57.8516 33.1641 63.2656 33.1641C68.6445 33.1641 72.1602 37.1016 72.1602 43.043C72.1602 48.9492 68.6445 52.8867 63.2656 52.8867ZM63.2656 49.7578C66.7109 49.7578 68.3633 46.6992 68.3633 43.043C68.3633 39.3867 66.7109 36.2578 63.2656 36.2578C59.75 36.2578 58.0977 39.3867 58.0977 43.043C58.0977 46.6992 59.75 49.7578 63.2656 49.7578ZM83.8672 60.0586C79.0508 60.0586 75.8867 57.9141 75.5352 54.3633H79.3672C79.7188 56.1562 81.4062 57.0352 83.9023 57.0352C86.8906 57.0352 88.7891 55.7695 88.7891 52.7812V49.0195H88.543C87.875 50.25 86.5039 52.2188 82.9883 52.2188C78.4883 52.2188 75.0078 48.8438 75.0078 42.7617C75.0078 36.6797 78.418 33.1641 83.0234 33.1641C86.5742 33.1641 87.875 35.3086 88.5781 36.5039H88.8242V33.4102H92.4805V52.9219C92.4805 57.8086 88.7891 60.0586 83.8672 60.0586ZM83.832 49.125C87.0312 49.125 88.8242 46.7695 88.8242 42.832C88.8242 38.9648 87.0664 36.3633 83.832 36.3633C80.4922 36.3633 78.8398 39.1758 78.8398 42.832C78.8398 46.5586 80.5625 49.125 83.832 49.125ZM105.137 52.8867C99.7227 52.8867 96.207 48.9492 96.207 43.043C96.207 37.1016 99.7227 33.1641 105.137 33.1641C110.516 33.1641 114.031 37.1016 114.031 43.043C114.031 48.9492 110.516 52.8867 105.137 52.8867ZM105.137 49.7578C108.582 49.7578 110.234 46.6992 110.234 43.043C110.234 39.3867 108.582 36.2578 105.137 36.2578C101.621 36.2578 99.9688 39.3867 99.9688 43.043C99.9688 46.6992 101.621 49.7578 105.137 49.7578Z" fill="#888888"/>
<path d="M157.6 1.59961L2.40039 78.3996" stroke="#B0B0B0"/>
<path d="M2.40059 1.59961L157.601 78.3996" stroke="#B0B0B0"/>
</svg>
