<?xml version="1.0" encoding="UTF-8"?>
<svg id="Layer_1" xmlns="http://www.w3.org/2000/svg" width="340" height="59" version="1.1" viewBox="0 0 340 59">
  <!-- Generator: Adobe Illustrator 30.1.0, SVG Export Plug-In . SVG Version: 2.1.1 Build 136)  -->
  <defs>
    <style>
      .st0 {
        fill: #888;
      }
    </style>
  </defs>
  <path class="st0" d="M10.5,48.2h26.3v10.8H0V0h10.5v48.2Z"/>
  <path class="st0" d="M43.2,0h10.5v59h-10.5V0Z"/>
  <path class="st0" d="M162.2,10.8h-25.9c-1.2,0-2.2,1-2.2,2.2v3.4c0,.9.5,1.7,1.3,2l21.3,10.2c3.3,1.6,5.5,5,5.5,8.8v13.6c0,4.3-3.4,7.9-7.7,7.9h-31v-10.8h25.9c1.2,0,2.2-1,2.2-2.2v-6.4c0-.9-.5-1.7-1.3-2l-21.3-10.1c-3.4-1.6-5.5-5-5.5-8.9V7.9c0-4.3,3.4-7.9,7.7-7.9h31v10.8Z"/>
  <path class="st0" d="M85.9,29.5l3.3,9.2,3.2-9.2,8.5-25.4c.8-2.4,3-4.1,5.5-4.1h8c1.6,0,2.9,1.3,2.9,3v56h-10.5V19.5l-12.4,37.2c-.5,1.4-1.7,2.3-3.1,2.3h-4.3c-1.4,0-2.6-.9-3.1-2.3l-11.5-34.6v36.9h-10.5V3c0-1.7,1.3-3,2.9-3h7.1c2.5,0,4.7,1.6,5.5,4.1l8.5,25.4Z"/>
  <path class="st0" d="M226.8,53.6h13.3v5.4h-18.7v-29.5h5.3v24.1Z"/>
  <path class="st0" d="M290.6,53.6v5.4h-5.3v-29.5h5.3v24.1Z"/>
  <path class="st0" d="M322.1,29.5c1.4,0,2.7.8,3.3,2.1l8.5,17.5v-19.6h5.3v28c0,.8-.7,1.5-1.5,1.5h-2.3c-1.4,0-2.7-.8-3.3-2.1l-8.1-16.9v19h-5.3v-28c0-.8.7-1.5,1.5-1.5h1.9Z"/>
  <path class="st0" d="M276.5,53.6v5.4h-5.3v-24.2h-6.7s0-5.3,0-5.3h6.7s5.3,0,5.3,0h6.6v5.3h-6.6v18.8Z"/>
  <path class="st0" d="M193.6,34.9h-12.8c-.6,0-1,.5-1,1.1v1.8c0,.4.2.8.6,1l10.6,5.1c1.6.8,2.6,2.4,2.6,4.2v7.1c0,2.1-1.6,3.8-3.6,3.8h-15.4v-5.4h12.8c.6,0,1-.5,1-1.1v-3.3c0-.4-.2-.8-.6-1l-10.6-5.1c-1.6-.8-2.6-2.4-2.6-4.2v-5.6c0-2.1,1.6-3.8,3.6-3.8h15.4v5.4Z"/>
  <path class="st0" d="M210.2,53.4v5.6h-5.4v-5.6h5.4ZM212.8,50.9v-13.2c0-1.4-1.1-2.6-2.6-2.6h-5.4c-1.4,0-2.6,1.2-2.6,2.6v13.2c0,1.4,1.1,2.6,2.6,2.6v5.6h-.2c-4.3-.1-7.7-3.6-7.8-7.9v-.2s0-13.2,0-13.2c0-4.5,3.6-8.1,8.1-8.1h5.4c4.4,0,8.1,3.6,8.1,8.1v13.4c-.1,4.3-3.6,7.8-7.8,7.9h-.2s0-5.5,0-5.5c1.4,0,2.6-1.2,2.6-2.6Z"/>
  <path class="st0" d="M307.5,53.4v5.6h-5.4v-5.6h5.4ZM310.1,50.9v-13.2c0-1.4-1.1-2.6-2.6-2.6h-5.4c-1.4,0-2.6,1.2-2.6,2.6v13.2c0,1.4,1.1,2.6,2.6,2.6v5.6h-.2c-4.3-.1-7.7-3.6-7.8-7.9v-.2s0-13.2,0-13.2c0-4.5,3.6-8.1,8.1-8.1h5.4c4.4,0,8.1,3.6,8.1,8.1v13.4c-.1,4.3-3.6,7.8-7.8,7.9h-.2s0-5.5,0-5.5c1.4,0,2.6-1.2,2.6-2.6Z"/>
  <path class="st0" d="M247.4,50.9h0c0,1.5,1.2,2.6,2.6,2.6h5.4c1.4,0,2.5-1.1,2.6-2.5h0v-21.5h5.5v21.4c0,4.5-3.6,8.1-8.1,8.1h-5.4c-4.4,0-8.1-3.6-8.1-8.1v-21.4h5.5v21.4Z"/>
  <metadata>
    <sfw xmlns="http://ns.adobe.com/SaveForWeb/1.0/">
      <slices/>
      <sliceSourceBounds x="0" y="0" width="339.25" height="59" bottomLeftOrigin="true"/>
    </sfw>
  </metadata>
</svg>