<svg width="70" height="70" viewBox="0 0 70 70" fill="none" xmlns="http://www.w3.org/2000/svg">
<g clip-path="url(#clip0_59_19354)">
<mask id="mask0_59_19354" style="mask-type:alpha" maskUnits="userSpaceOnUse" x="0" y="0" width="70" height="70">
<rect width="70" height="70" fill="#D9D9D9"/>
</mask>
<g mask="url(#mask0_59_19354)">
<path d="M59.7859 63.8805C58.6597 65.0066 56.8355 65.0121 55.7026 63.8927L45.5003 53.8119C43.7989 54.3466 42.0854 54.7476 40.3597 55.015C38.634 55.2823 36.8475 55.416 35.0003 55.416C27.66 55.416 21.1219 53.3865 15.3857 49.3275C9.64963 45.2685 5.49338 40.0063 2.91699 33.541C3.93783 30.9646 5.22602 28.5705 6.78158 26.3587C8.33713 24.1469 10.1114 22.166 12.1045 20.416L6.09774 14.3C4.98247 13.1645 4.99068 11.3423 6.11613 10.2169C7.24879 9.08422 9.08519 9.08422 10.2179 10.2169L59.7859 59.7849C60.9168 60.9159 60.9168 62.7495 59.7859 63.8805ZM35.0003 46.666C35.535 46.666 36.0333 46.6417 36.4951 46.5931C36.9569 46.5445 37.4552 46.4473 37.9899 46.3014L22.2399 30.5514C22.0941 31.0862 21.9969 31.5844 21.9482 32.0462C21.8996 32.508 21.8753 33.0063 21.8753 33.541C21.8753 37.1869 23.1514 40.2858 25.7034 42.8379C28.2555 45.39 31.3545 46.666 35.0003 46.666ZM56.292 47.9785L47.0316 38.791C47.3719 37.9646 47.6392 37.1261 47.8337 36.2754C48.0281 35.4247 48.1253 34.5132 48.1253 33.541C48.1253 29.8952 46.8493 26.7962 44.2972 24.2441C41.7451 21.6921 38.6462 20.416 35.0003 20.416C34.0281 20.416 33.1166 20.5132 32.266 20.7077C31.4153 20.9021 30.5767 21.1938 29.7503 21.5827L22.3128 14.1452C24.3059 13.3188 26.3475 12.699 28.4378 12.2858C30.5281 11.8726 32.7156 11.666 35.0003 11.666C42.3406 11.666 48.8788 13.6955 54.6149 17.7546C60.351 21.8136 64.5073 27.0757 67.0837 33.541C65.9656 36.4091 64.4951 39.0705 62.6722 41.5254C60.8493 43.9803 58.7225 46.1313 56.292 47.9785ZM42.8024 34.5619L34.0524 25.8119C35.4135 25.5688 36.6653 25.6782 37.8076 26.14C38.95 26.6018 39.9344 27.2702 40.7607 28.1452C41.5871 29.0202 42.1826 30.0289 42.5472 31.1712C42.9118 32.3136 42.9969 33.4438 42.8024 34.5619Z" fill="#5D5D5D"/>
</g>
</g>
<defs>
<clipPath id="clip0_59_19354">
<rect width="70" height="70" fill="white"/>
</clipPath>
</defs>
</svg>
