<svg width="144" height="80" viewBox="0 0 144 80" fill="none" xmlns="http://www.w3.org/2000/svg">
<g clip-path="url(#clip0_59_26724)">
<path d="M8.17308 40.5982C7.9528 40.7115 7.94021 40.9192 8.14791 41.0577L27.1648 53.6202L32.6153 27.9854L8.17308 40.5982Z" fill="white"/>
<path d="M120.773 27.979H115.965C115.716 27.979 115.329 28.0734 115.106 28.1866L91.0034 40.6044C90.78 40.7177 90.7705 40.9254 90.9782 41.0607L109.677 53.3684C109.885 53.5037 110.259 53.617 110.511 53.617H115.317C115.565 53.617 115.6 53.5037 115.395 53.3684L96.3091 40.809L120.821 28.1804C121.044 28.0671 121.019 27.9727 120.77 27.9727L120.773 27.979Z" fill="white"/>
<path d="M110.473 27.9785H76.9744L71.5302 53.6228H105.026C105.275 53.6228 105.309 53.5095 105.102 53.3742L86.0501 40.818L110.527 28.1894C110.75 28.0761 110.725 27.9817 110.477 27.9817L110.473 27.9785Z" fill="white"/>
<path d="M131.057 27.979H126.249C125.997 27.979 125.613 28.0734 125.39 28.1866L101.288 40.6044C101.067 40.7177 101.058 40.9254 101.262 41.0607L119.961 53.3684C120.169 53.5037 120.547 53.617 120.795 53.617H125.604C125.852 53.617 125.887 53.5037 125.679 53.3684L106.593 40.809L131.105 28.1804C131.328 28.0671 131.306 27.9727 131.054 27.9727L131.057 27.979Z" fill="white"/>
<path d="M108.988 11.1992H30.1198C25.7172 11.1992 22.6364 13.9685 21.9094 17.3924C21.5098 19.2711 22.2241 20.9421 23.6717 22.0876L52.0098 40.7961L52.0318 40.7835V40.7961L109.042 11.4069C109.262 11.2936 109.243 11.1992 108.991 11.1992H108.988Z" fill="white"/>
<path d="M96.479 70.1473L52.035 40.7959L52.0287 40.8053L52.0098 40.7959L15.7163 59.5107C13.7841 60.6499 12.3616 62.324 11.962 64.2059C11.2287 67.6235 13.1295 70.3959 17.5352 70.3959H96.4035C96.6553 70.3959 96.6867 70.2826 96.479 70.1473Z" fill="white"/>
</g>
<defs>
<clipPath id="clip0_59_26724">
<rect width="123.262" height="59.2" fill="white" transform="translate(8 11.1992)"/>
</clipPath>
</defs>
</svg>
