<svg width="78" height="78" viewBox="0 0 78 78" fill="none" xmlns="http://www.w3.org/2000/svg">
<g filter="url(#filter0_di_1350_7611)">
<rect x="4" y="2" width="70" height="70" rx="35" fill="white" shape-rendering="crispEdges"/>
<rect x="4.5" y="2.5" width="69" height="69" rx="34.5" stroke="#B0B0B0" shape-rendering="crispEdges"/>
<circle cx="39" cy="37" r="28.75" stroke="#3D3D3D" stroke-width="2.5"/>
<path d="M39 8C44.68 8 49.9068 11.1372 53.75 16.3779C57.5928 21.6181 60 28.906 60 37C60 45.094 57.5928 52.3819 53.75 57.6221C49.9068 62.8628 44.68 66 39 66C33.32 66 28.0932 62.8628 24.25 57.6221C20.4072 52.3819 18 45.094 18 37C18 28.906 20.4072 21.6181 24.25 16.3779C28.0932 11.1372 33.32 8 39 8Z" stroke="#3D3D3D" stroke-width="2"/>
<path d="M39 8C40.2933 8 41.6265 8.65141 42.9443 10.0449C44.2641 11.4405 45.4988 13.5136 46.5566 16.1582C48.6702 21.4421 50 28.8104 50 37C50 45.1896 48.6702 52.5579 46.5566 57.8418C45.4988 60.4864 44.2641 62.5595 42.9443 63.9551C41.6265 65.3486 40.2933 66 39 66C37.7067 66 36.3735 65.3486 35.0557 63.9551C33.7359 62.5595 32.5012 60.4864 31.4434 57.8418C29.3298 52.5579 28 45.1896 28 37C28 28.8104 29.3298 21.4421 31.4434 16.1582C32.5012 13.5136 33.7359 11.4405 35.0557 10.0449C36.3735 8.65141 37.7067 8 39 8Z" stroke="#3D3D3D" stroke-width="2"/>
<path d="M40 66L38 66L38 8L40 8L40 66Z" fill="#3D3D3D"/>
<path d="M66.8848 26C65.5987 31.6064 53.6067 35.9999 39.001 36C24.3952 36 12.4034 31.6064 11.1172 26H13.209C13.4328 26.5506 13.8546 27.1597 14.5615 27.8164C15.7323 28.9038 17.5366 29.9756 19.9326 30.917C24.7131 32.795 31.454 33.9999 39 34C46.5461 34 53.2868 32.7949 58.0674 30.917C60.4636 29.9756 62.2676 28.9039 63.4385 27.8164C64.1457 27.1595 64.5681 26.5507 64.792 26H66.8848Z" fill="#3D3D3D"/>
<path d="M11 36C11.0001 36.9296 11.4627 38.0179 12.7314 39.2178C14.0046 40.4217 15.9545 41.598 18.5293 42.6279C23.6682 44.6835 30.9051 46 39 46C47.0949 46 54.3318 44.6835 59.4707 42.6279C62.0455 41.598 63.9954 40.4217 65.2686 39.2178C66.4581 38.0927 66.9387 37.0658 66.9941 36.1758L67 36H69C68.9997 42.6273 55.5684 48 39 48C22.4316 48 9.00026 42.6273 9 36H11Z" fill="#3D3D3D"/>
<path d="M66.001 50C63.8661 55.5765 52.9567 59.8489 39.707 59.9961L39 60C25.4332 60 14.173 55.6752 12 50H14.2129C14.4584 50.4161 14.787 50.844 15.21 51.2822C16.3578 52.4715 18.1152 53.6338 20.4414 54.6533C25.0885 56.69 31.6485 58 39 58C46.3514 58 52.9115 56.69 57.5586 54.6533C59.8848 53.6338 61.6423 52.4715 62.79 51.2822C63.213 50.844 63.5416 50.4161 63.7871 50H66.001Z" fill="#3D3D3D"/>
<path d="M17.5908 17.5C18.4276 17.8817 19.3999 18.2543 20.5059 18.6025C25.1491 20.0643 31.6873 21 38.9971 21C46.3068 21 52.845 20.0643 57.4883 18.6025C58.5945 18.2543 59.5674 17.8818 60.4043 17.5H61.2754L62.1582 18.8701C57.4376 21.3438 48.8321 22.9999 38.998 23C29.2655 23 20.7355 21.3786 15.9844 18.9473L16.998 17.5H17.5908Z" fill="#3D3D3D"/>
</g>
<defs>
<filter id="filter0_di_1350_7611" x="0" y="-2" width="78" height="80" filterUnits="userSpaceOnUse" color-interpolation-filters="sRGB">
<feFlood flood-opacity="0" result="BackgroundImageFix"/>
<feColorMatrix in="SourceAlpha" type="matrix" values="0 0 0 0 0 0 0 0 0 0 0 0 0 0 0 0 0 0 127 0" result="hardAlpha"/>
<feOffset dy="2"/>
<feGaussianBlur stdDeviation="2"/>
<feComposite in2="hardAlpha" operator="out"/>
<feColorMatrix type="matrix" values="0 0 0 0 0 0 0 0 0 0 0 0 0 0 0 0 0 0 0.2 0"/>
<feBlend mode="normal" in2="BackgroundImageFix" result="effect1_dropShadow_1350_7611"/>
<feBlend mode="normal" in="SourceGraphic" in2="effect1_dropShadow_1350_7611" result="shape"/>
<feColorMatrix in="SourceAlpha" type="matrix" values="0 0 0 0 0 0 0 0 0 0 0 0 0 0 0 0 0 0 127 0" result="hardAlpha"/>
<feOffset dy="-4"/>
<feGaussianBlur stdDeviation="2.5"/>
<feComposite in2="hardAlpha" operator="arithmetic" k2="-1" k3="1"/>
<feColorMatrix type="matrix" values="0 0 0 0 0 0 0 0 0 0 0 0 0 0 0 0 0 0 0.15 0"/>
<feBlend mode="normal" in2="shape" result="effect2_innerShadow_1350_7611"/>
</filter>
</defs>
</svg>
