<svg width="60" height="60" viewBox="0 0 60 60" fill="none" xmlns="http://www.w3.org/2000/svg">
<path d="M47 23.5688C47 22.6898 46.3114 21.9534 45.4338 22.0029C43.0361 22.1382 40.7035 22.8855 38.6637 24.185C38.0635 23.5017 37.4466 22.8184 36.7964 22.1685L36.3129 21.7185L36.5463 21.5185C37.3617 20.8189 37.9427 19.8862 38.211 18.8461C38.4793 17.8061 38.422 16.7088 38.0469 15.7023C37.5049 14.566 36.6444 13.6115 35.57 12.9547C34.9626 12.5834 34.3016 12.3163 33.6143 12.1607C32.7284 11.96 31.9947 12.7257 31.9947 13.6341C31.9947 14.57 32.8062 15.292 33.6292 15.7376C33.6491 15.7484 33.6688 15.7593 33.6884 15.7704C34.2042 16.0634 34.6325 16.4886 34.9291 17.0022C35.2125 17.6688 34.9291 18.4021 34.1455 19.1854L33.762 19.5354C32.0231 18.0867 30.1139 16.8555 28.0767 15.869C23.8585 13.9691 21.6911 14.8524 20.6241 15.869C20.2996 16.1953 20.0394 16.5797 19.8571 17.0022L19.557 17.8855L17.1562 25.1183C19.0569 29.8513 23.6585 38.2673 33.662 41.9004L41.9982 39.1339C42.2794 39.0293 42.527 38.8508 42.7152 38.6173L43.0653 38.3173C45.4495 35.9175 43.9156 31.3012 40.7145 26.8181C42.1042 26.0074 43.6479 25.5133 45.236 25.3618C46.188 25.271 47 24.5252 47 23.5688ZM40.6811 35.9508H40.5811C39.4307 36.5674 34.6623 35.0009 29.2604 29.6013C28.6936 29.0347 28.1601 28.4847 27.6766 27.9347C27.5098 27.7514 27.3598 27.5514 27.1931 27.3514L26.3094 26.2849L25.8426 25.6349C25.6092 25.3183 25.3757 25.0016 25.1757 24.7016C24.9756 24.4017 24.9089 24.2683 24.7755 24.0517C24.6422 23.835 24.4087 23.4851 24.2587 23.2017C24.1086 22.9184 24.0419 22.8018 23.9419 22.5851C23.8419 22.3685 23.6585 22.1185 23.5584 21.8852C23.4584 21.6519 23.4084 21.5019 23.325 21.3186C23.2417 21.1352 23.1416 20.8686 23.0749 20.6519C23.0082 20.4353 22.9916 20.3353 22.9582 20.1686C22.9249 20.002 22.8582 19.7687 22.8249 19.602C22.8168 19.4688 22.8168 19.3352 22.8249 19.202C22.8092 19.058 22.8092 18.9127 22.8249 18.7687L23.0082 18.2521C23.2917 17.9521 24.5254 17.8688 26.7262 18.8687C28.196 19.5768 29.5874 20.437 30.8777 21.4352C30.6483 21.5361 30.4141 21.6244 30.176 21.6999C29.3409 21.9648 28.6602 22.6745 28.6602 23.5505C28.6602 24.5196 29.4802 25.3019 30.4254 25.0879C31.5656 24.8298 32.6596 24.3852 33.662 23.7684L34.4789 24.535C35.2125 25.2516 35.8628 25.9682 36.463 26.6515C35.7552 27.8561 35.3476 29.2037 35.2627 30.5818C35.204 31.5342 36.117 32.1809 37.0535 31.9983C37.9463 31.8243 38.5058 30.953 38.6224 30.0509C38.6339 29.9619 38.6477 29.8731 38.6637 29.7846C40.8145 33.0677 41.2146 35.4342 40.6811 35.9508ZM15.9891 28.668L12.2711 39.8339C12.0028 40.6536 11.9323 41.5253 12.0655 42.3775C12.1987 43.2297 12.5318 44.0383 13.0375 44.7372C13.5432 45.4361 14.2072 46.0055 14.9752 46.3988C15.7432 46.792 16.5934 46.9981 17.4563 47C18.0236 46.9948 18.5864 46.8991 19.1236 46.7167L29.994 43.1003C23.8588 39.9683 18.934 34.8933 15.9891 28.668Z" fill="#3D3D3D"/>
</svg>
