<svg width="130" height="50" viewBox="0 0 130 50" fill="none" xmlns="http://www.w3.org/2000/svg">
<path d="M105.401 0C118.984 0 130 11.1952 130 25C130 38.8048 118.984 50 105.401 50H24.599C11.0157 50 0 38.8048 0 25C0 11.1952 11.0157 0 24.599 0H105.401Z" fill="#00DE5A"/>
<path d="M26.2912 43C16.1892 43 8 34.9411 8 25C8 15.0589 16.1892 7 26.2912 7C36.3933 7 44.5826 15.0589 44.5826 25C44.5874 34.9411 36.3981 43 26.2912 43ZM29.8236 15.9953V25.8939L22.7541 15.9953H17.1456V33.9953H22.7638V24.0967L29.8332 33.9953H35.4417V15.9953H29.8236Z" fill="black"/>
<path d="M116.839 13.5601L111.418 25.7903L105.43 13.5601H99.9604L109.024 30.9169L105.382 38.9568H110.548L122 13.5601H116.839ZM92.3335 33.0215H97.2307V13.5554H92.3335V15.1539C90.6514 13.8202 88.7482 13.125 86.4414 13.125C80.8714 13.125 76.5076 17.6274 76.5076 23.2837C76.5076 28.94 80.8714 33.4424 86.4414 33.4424C88.7482 33.4424 90.6514 32.7472 92.3335 31.4135V33.0215ZM87.1527 29.5028C83.8751 29.5028 81.4096 26.8355 81.4096 23.2932C81.4096 19.7509 83.8799 17.0835 87.1527 17.0835C90.4255 17.0835 92.8957 19.7509 92.8957 23.2932C92.9006 26.8307 90.4303 29.5028 87.1527 29.5028ZM58.3124 31.5175C59.9608 32.7897 61.8063 33.4519 64.0315 33.4519C69.6015 33.4519 73.9653 28.9495 73.9653 23.2932C73.9653 17.6368 69.6015 13.1345 64.0315 13.1345C61.7246 13.1345 59.8215 13.8297 58.1394 15.1634V13.5648H53.2422V38.9616H58.3076V31.5175H58.3124ZM57.5771 23.2932C57.5771 19.7509 60.0474 17.0835 63.3202 17.0835C66.593 17.0835 69.0632 19.7509 69.0632 23.2932C69.0632 26.8355 66.593 29.5028 63.3202 29.5028C60.0474 29.5028 57.5771 26.8307 57.5771 23.2932Z" fill="black"/>
</svg>
