<svg width="400" height="58" viewBox="0 0 400 58" fill="none" xmlns="http://www.w3.org/2000/svg">
<path d="M119.501 21.4587H113.692C106.817 21.4587 101.244 27.0016 101.244 33.8391V57.7746H92.9453V33.8391C92.9453 22.4433 102.234 13.2051 113.692 13.2051H119.501V21.4587Z" fill="#888888"/>
<path d="M46.4731 13.2051C56.5563 13.2051 64.7304 21.3347 64.7304 31.363V57.7746H56.4316V31.363C56.4316 25.893 51.973 21.4587 46.4731 21.4587C40.9732 21.4587 36.5146 25.893 36.5146 31.363V57.7746H28.2158V31.363C28.2158 25.893 23.7572 21.4587 18.2573 21.4587C12.7574 21.4587 8.29877 25.893 8.29877 31.363V57.7746H0V31.363C0 21.3347 8.17407 13.2051 18.2573 13.2051C23.9401 13.2051 29.0167 15.7871 32.3652 19.8362C35.7137 15.7871 40.7903 13.2051 46.4731 13.2051Z" fill="#888888"/>
<path d="M75.5156 13.2051H83.8144V57.7746H75.5156V13.2051Z" fill="#888888"/>
<path d="M146.063 12.3809C158.438 12.3809 168.47 22.3581 168.47 34.6656V57.7757H160.171V52.8034C156.319 55.9121 151.41 57.7757 146.063 57.7757C133.882 57.7757 123.97 48.108 123.664 36.0665L123.656 35.491V34.6656C123.656 22.3581 133.688 12.3809 146.063 12.3809ZM146.063 20.6345C138.271 20.6345 131.955 26.9164 131.955 34.6656V35.491C131.955 43.2402 138.271 49.5221 146.063 49.5221C153.855 49.5221 160.171 43.2402 160.171 35.491V34.6656C160.171 26.9164 153.855 20.6345 146.063 20.6345Z" fill="#888888"/>
<path d="M192.945 13.9699C204.898 10.7845 217.185 17.8396 220.388 29.7276C220.78 31.1832 221.016 32.6438 221.11 34.0922L200.279 39.644L186.043 43.2526C189.264 48.2802 195.498 50.8869 201.595 49.2622L202.396 49.0486C206.553 47.9407 209.774 45.0959 211.487 41.5107L220.864 39.083C219.485 47.4628 213.326 54.6805 204.544 57.0209L203.742 57.2345L203.182 57.3764C191.576 60.1576 179.795 53.3785 176.441 41.9774C176.376 41.8165 176.319 41.6498 176.274 41.4777C176.232 41.3206 176.201 41.1632 176.179 41.0062C173.331 29.4538 180.127 17.7057 191.587 14.3399L192.144 14.1835L192.945 13.9699ZM210.697 28.0365C207.493 22.9539 201.224 20.3087 195.093 21.9423L194.291 22.1558C188.161 23.7898 184.06 29.1986 183.841 35.194L210.697 28.0365Z" fill="#888888"/>
<path d="M277.178 37.9666C277.178 48.9067 268.261 57.7753 257.261 57.7753C246.261 57.7753 237.344 48.9067 237.344 37.9666C237.344 27.0266 246.261 18.1579 257.261 18.1579C263.21 18.1579 268.549 20.7527 272.199 24.8656V0H277.178V37.9666ZM257.261 23.1101C249.011 23.1101 242.323 29.7616 242.323 37.9666C242.323 46.1716 249.011 52.8231 257.261 52.8231C265.511 52.8231 272.199 46.1716 272.199 37.9666C272.199 29.7616 265.511 23.1101 257.261 23.1101Z" fill="#888888"/>
<path d="M304.565 17.332C315.565 17.332 324.483 26.2007 324.483 37.1407V57.7747H319.503V51.0663C315.854 55.1794 310.515 57.7747 304.565 57.7747C293.737 57.7747 284.927 49.1809 284.655 38.4771L284.648 37.9661V37.1407C284.648 26.2007 293.566 17.332 304.565 17.332ZM304.565 22.2842C296.316 22.2842 289.628 28.9357 289.628 37.1407V37.9661C289.628 46.1711 296.316 52.8226 304.565 52.8226C312.815 52.8226 319.503 46.1711 319.503 37.9661V37.1407C319.503 28.9357 312.815 22.2842 304.565 22.2842Z" fill="#888888"/>
<path d="M380.081 17.332C391.081 17.332 399.998 26.2007 399.998 37.1407V57.7747H395.019V51.0663C391.369 55.1794 386.03 57.7747 380.081 57.7747C369.253 57.7747 360.443 49.1809 360.171 38.4771L360.164 37.9661V37.1407C360.164 26.2007 369.081 17.332 380.081 17.332ZM380.081 22.2842C371.831 22.2842 365.143 28.9357 365.143 37.1407V37.9661C365.143 46.1711 371.831 52.8226 380.081 52.8226C388.331 52.8226 395.019 46.1711 395.019 37.9661V37.1407C395.019 28.9357 388.331 22.2842 380.081 22.2842Z" fill="#888888"/>
<path d="M346.061 18.1578H355.19V23.1099H346.061V57.7751H341.082V23.1099H331.953V18.1578H341.082V5.77734H346.061V18.1578Z" fill="#888888"/>
</svg>
