<svg width="100" height="100" viewBox="0 0 100 100" fill="none" xmlns="http://www.w3.org/2000/svg">
<path d="M55 56.3063C55 59.0677 52.7614 61.3063 50 61.3063C47.2386 61.3063 45 59.0677 45 56.3063L45 27.5308C45 24.7693 47.2386 22.5308 50 22.5308C52.7614 22.5308 55 24.7693 55 27.5308L55 56.3063Z" fill="#D93726"/>
<path d="M55 72.6328C55 75.3942 52.7614 77.6328 50 77.6328C47.2386 77.6328 45 75.3942 45 72.6328L45 72.4287C45 69.6673 47.2386 67.4287 50 67.4287C52.7614 67.4287 55 69.6673 55 72.4287L55 72.6328Z" fill="#D93726"/>
<circle cx="50" cy="50" r="46" stroke="#D93726" stroke-width="8"/>
</svg>
