<svg width="160" height="160" viewBox="0 0 160 160" fill="none" xmlns="http://www.w3.org/2000/svg">
<path d="M73.4043 30.9414C76.7625 30.1234 80 32.6666 80 36.123V122.714C79.9998 126.117 76.856 128.649 73.5312 127.925L32.1973 118.916C29.7471 118.382 28.0001 116.213 28 113.705V46.1914C28 43.7321 29.6818 41.5918 32.0713 41.0098L73.4043 30.9414ZM69 75.001C66.7909 75.001 65 77.2396 65 80.001C65 82.7624 66.7909 85.001 69 85.001C71.2091 85.001 73 82.7624 73 80.001C73 77.2396 71.2091 75.001 69 75.001Z" fill="black"/>
<path d="M33.3333 46.191V113.705L74.6667 122.713V36.1233L33.3333 46.191ZM80 122.713C80 126.01 77.0497 128.49 73.8424 127.983L73.5312 127.924L32.1979 118.916C29.824 118.399 28.1098 116.346 28.0052 113.938L28 113.705V46.191C28 43.8855 29.478 41.8601 31.6315 41.1363L32.0716 41.0087L73.4049 30.941C76.763 30.1233 80 32.667 80 36.1233V122.713Z" fill="black"/>
<path d="M82.4294 86.3321C84.7676 77.6087 88.6418 71.1766 93.9474 67.199C100.354 62.3971 108.777 61.1378 119.011 63.4459L121.835 52.9112C122.207 51.5229 124.068 51.2162 124.905 52.4051L144.444 80.1341C145.049 80.9932 144.733 82.1729 143.779 82.6141L112.992 96.8543C111.672 97.4648 110.214 96.2687 110.586 94.8804L113.388 84.4274C107.197 82.9417 102.322 82.5676 98.1774 83.246C93.6996 83.9795 90.0804 85.899 86.0212 88.5543L84.7271 89.4015C83.4136 90.2614 81.7005 89.0516 82.1034 87.5485L82.4294 86.3321Z" fill="black"/>
<path d="M109.333 41.334C111.542 41.334 113.333 43.1248 113.333 45.334V57.1641C111.283 56.9856 109.281 56.9523 107.333 57.0693V47.334H34V112.667H107.333V100.36C108.889 101.835 111.101 102.613 113.333 102.272V114.667C113.333 116.876 111.542 118.667 109.333 118.667H32C29.7909 118.667 28 116.876 28 114.667V45.334C28 43.1248 29.7909 41.334 32 41.334H109.333ZM113.333 96.7012L112.992 96.8594L112.743 96.9531C111.497 97.3198 110.238 96.1871 110.586 94.8857L113.333 84.6357V96.7012ZM107.333 62.4111C109.243 62.2756 111.243 62.311 113.333 62.5176V84.4199C111.182 83.9054 109.19 83.5264 107.333 83.2783V62.4111Z" fill="black"/>
</svg>
