<svg width="660" height="66" viewBox="0 0 660 66" fill="none" xmlns="http://www.w3.org/2000/svg">
<path d="M169.184 40.9991H161.937V55.5455C161.937 56.3243 162.294 56.7335 163.125 56.7335H192.165V52.0475H169.778C169.422 52.0475 169.184 51.8099 169.184 51.4535V40.9991ZM179.638 19.6811V14.9819H151.602V19.6811H179.638ZM190.99 9.87352H183.862V43.5467H190.99V9.87352ZM154.096 26.3339C154.096 32.9867 159.205 37.3163 165.62 37.3163C172.035 37.3163 177.144 32.9735 177.144 26.3339C177.144 19.6943 171.982 15.2855 165.62 15.2855C159.258 15.2855 154.096 19.6811 154.096 26.3339ZM161.884 15.5891H169.369V8.51392H161.884V15.5759V15.5891ZM189.208 27.1655H197.881V22.3475H189.208V27.1655ZM161.224 26.2151C161.224 22.2419 163.191 19.6811 165.62 19.6811C168.049 19.6811 169.963 22.2287 169.963 26.2151C169.963 30.2015 168.009 32.6963 165.62 32.6963C163.231 32.6963 161.224 30.1355 161.224 26.2151ZM228.756 57.3407H235.936V41.4215C235.936 40.5899 235.514 40.2335 234.748 40.2335H204.52V44.9195H228.162C228.518 44.9195 228.756 45.1571 228.756 45.5135V57.3275V57.3407ZM228.703 28.6439H235.897V11.7743C235.897 10.9427 235.593 10.5863 234.709 10.5863H203.887V15.2723H228.122C228.478 15.2723 228.716 15.5099 228.716 15.8663V28.6307L228.703 28.6439ZM200.191 32.4455H239.804V27.6275H200.191V32.4455ZM223.528 31.2047H216.466V41.4215H223.528V31.2047ZM373.454 50.2655H412.473V45.4607H373.454V50.2655ZM396.554 33.8183H389.36V46.6487H396.554V33.8183ZM407.299 36.1943C408.183 36.1943 408.487 35.8379 408.487 35.0063V11.0087H401.359V30.9011C401.359 31.2575 401.121 31.4951 400.765 31.4951H385.149C384.793 31.4951 384.555 31.2575 384.555 30.9011V11.0087H377.427V35.0063C377.427 35.8379 377.731 36.1943 378.615 36.1943H407.299ZM382.72 23.7203H403.326V18.9683H382.72V23.7203ZM361.627 9.87352H368.755V36.8411H361.627V9.87352ZM363.409 24.9611H353.43V20.3279H363.409V24.9611ZM501.098 9.87352H493.97V56.1395H501.098V9.87352ZM461.894 47.8367H495.871V43.0319H461.894V47.8367ZM537.979 43.5599H545.107V9.87352H537.979V43.5467V43.5599ZM532.395 15.6947V11.0087H507.804V15.6947H532.395ZM523.129 40.4051H515.882V55.5455C515.882 56.3243 516.238 56.7335 517.07 56.7335H546.11V52.0475H523.723C523.366 52.0475 523.129 51.8099 523.129 51.4535V40.4051ZM586.198 17.3051V12.9095H554.241V17.3051H586.198ZM557.99 21.7535C557.99 26.8091 563.402 30.1355 570.16 30.1355C576.919 30.1355 582.331 26.8091 582.331 21.7535C582.331 16.6979 576.8 13.3187 570.16 13.3187C563.521 13.3187 557.99 16.6451 557.99 21.7535ZM566.425 13.1999H573.909V7.91992H566.425V13.1999ZM565.065 21.4631C565.065 18.9683 567.322 17.3051 570.174 17.3051C573.025 17.3051 575.216 18.9683 575.216 21.4631C575.216 23.9579 572.959 25.5551 570.174 25.5551C567.388 25.5551 565.065 23.9579 565.065 21.4631ZM624.637 46.1075H631.765V9.87352H624.637V46.1075ZM626.419 37.3163H615.555V41.9495H626.419V37.3163ZM592.732 34.6499H621.772V29.8451H592.732V34.6499ZM610.262 33.2243H603.134V41.4215H610.262V33.2243ZM596.191 18.1367C596.191 24.0107 601.114 27.8255 607.239 27.8255C613.364 27.8255 618.354 24.0239 618.354 18.1367C618.354 12.2495 613.364 8.39512 607.239 8.39512C601.114 8.39512 596.191 12.2627 596.191 18.1367ZM603.306 18.1367C603.306 14.9951 605.022 13.0283 607.226 13.0283C609.43 13.0283 611.146 14.9951 611.146 18.1367C611.146 21.2783 609.43 23.1791 607.226 23.1791C605.022 23.1791 603.306 21.2255 603.306 18.1367ZM609.193 43.6787H601.946V55.5587C601.946 56.3375 602.302 56.7467 603.134 56.7467H632.768V52.0607H609.787C609.43 52.0607 609.193 51.8231 609.193 51.4667V43.6919V43.6787ZM287.271 35.3627H326.884V30.5447H287.271V35.3627ZM269.808 15.6947V11.0087H244.978V15.6947H269.808ZM282.282 9.87352H275.154V56.1395H282.282V9.87352ZM298.61 10.3487H291.429V24.8951C291.429 25.7267 291.733 26.0831 292.617 26.0831H323.862V21.3839H299.217C298.861 21.3839 298.623 21.1463 298.623 20.7899V10.3487H298.61ZM452.562 9.87352H445.434V56.1395H452.562V9.87352ZM450.78 26.5715H459.452V21.7535H450.78V26.5715ZM550.506 36.9071H590.119V32.1023H550.506V36.9071ZM357.112 30.3731C350.644 28.7099 347.133 24.0239 347.133 17.4239V13.8071H340.177V16.1831C340.177 26.3339 346.236 33.1055 357.099 35.1251V30.3731H357.112ZM330.145 35.7191C341.022 33.6995 347.014 26.9279 347.014 16.7771V14.9951H340.071V18.0179C340.071 24.6047 336.626 29.3039 330.145 30.9671V35.7191ZM355.753 15.6947V11.0087H331.755V15.6947H355.753ZM533.992 32.9207C527.34 31.4951 523.485 26.6903 523.485 19.8527V14.0975H516.542V18.6119C516.542 29.0003 522.957 35.8907 534.006 37.6727V32.9207H533.992ZM506.497 38.1479C517.36 36.1283 523.366 29.3567 523.366 19.2059V15.2855H516.41V20.4467C516.41 27.0335 512.965 31.7327 506.497 33.3959V38.1479ZM271.471 37.0787C264.818 35.6531 260.779 29.0531 260.779 22.2287V14.0975H253.836V20.9879C253.836 31.3763 260.422 40.0487 271.471 41.8307V37.0787ZM243.606 41.7119C254.469 39.6923 260.647 31.7327 260.647 21.5819V15.2855H253.704V22.8227C253.704 29.4095 250.087 35.2967 243.606 36.9599V41.7119ZM441.751 37.0787C435.098 35.6531 431.059 28.4723 431.059 21.6347V10.4147H424.116V20.3939C424.116 30.7823 430.702 40.0487 441.751 41.8307V37.0787ZM413.899 41.7119C424.762 39.6923 430.953 31.1387 430.953 20.9879V10.4147H423.997V22.2287C423.997 28.8155 420.38 35.2967 413.899 36.9599V41.7119ZM480.361 34.2935H473.233V44.5103H480.361V34.2935ZM490.525 19.6811V14.9819H463.082V19.6811H490.525ZM465.339 25.7927C465.339 32.1419 470.382 36.2471 476.797 36.2471C483.212 36.2471 488.268 32.1551 488.268 25.7927C488.268 19.4303 483.159 15.2855 476.797 15.2855C470.434 15.2855 465.339 19.4435 465.339 25.7927ZM473.061 15.5891H480.546V8.51392H473.061V15.5759V15.5891ZM472.467 25.6739C472.467 21.9383 474.315 19.6811 476.81 19.6811C479.305 19.6811 481.087 21.9383 481.087 25.6739C481.087 29.4095 479.252 31.6139 476.81 31.6139C474.368 31.6139 472.467 29.3567 472.467 25.6739ZM556.512 48.6023C556.512 54.4895 562.57 58.3439 570.174 58.3439C577.777 58.3439 583.836 54.4895 583.836 48.6023C583.836 42.7151 577.711 38.8079 570.174 38.8079C562.636 38.8079 556.512 42.6623 556.512 48.6023ZM563.64 48.6023C563.64 45.5135 566.662 43.4279 570.174 43.4279C573.685 43.4279 576.642 45.5135 576.642 48.6023C576.642 51.6911 573.619 53.7107 570.174 53.7107C566.728 53.7107 563.64 51.6911 563.64 48.6023ZM293.264 48.3119C293.264 54.3707 299.257 58.3439 306.926 58.3439C314.595 58.3439 320.588 54.3707 320.588 48.3119C320.588 42.2531 314.529 38.2139 306.926 38.2139C299.323 38.2139 293.264 42.1871 293.264 48.3119ZM300.392 48.3119C300.392 45.0383 303.296 42.8471 306.926 42.8471C310.556 42.8471 313.394 45.0383 313.394 48.3119C313.394 51.5855 310.49 53.7107 306.926 53.7107C303.362 53.7107 300.392 51.5723 300.392 48.3119ZM339.715 47.5991C339.715 54.1331 345.708 58.3571 353.02 58.3571C360.333 58.3571 366.445 54.1331 366.445 47.5991C366.445 41.0651 360.386 36.7883 353.02 36.7883C345.655 36.7883 339.715 41.0651 339.715 47.5991ZM346.843 47.5991C346.843 43.7975 349.628 41.4215 353.02 41.4215C356.413 41.4215 359.251 43.7975 359.251 47.5991C359.251 51.4007 356.452 53.7107 353.02 53.7107C349.588 53.7107 346.843 51.3347 346.843 47.5991Z" fill="#888888"/>
<path d="M56.9277 41.541V9.75586H66.7217V56.748H56.2148L36.2568 25.0811V56.748H26.3965V9.75586H36.8506L56.9277 41.541ZM137.409 56.748H126.479L123.839 49.1973H104.007L101.294 56.748H90.668L108.778 9.75586H119.536L137.409 56.748ZM86.4463 56.7344H75.9912V9.75586H86.4463V56.7344ZM106.758 41.541H121.161L114.058 21.2266L106.758 41.541Z" fill="#888888"/>
</svg>
