<svg width="230" height="70" viewBox="0 0 230 70" fill="none" xmlns="http://www.w3.org/2000/svg">
<rect x="1" y="1" width="228" height="68" rx="9" fill="#262626"/>
<rect x="1" y="1" width="228" height="68" rx="9" stroke="white" stroke-width="2"/>
<path d="M38 48H50V48C50 51.3137 47.3137 54 44 54V54C40.6863 54 38 51.3137 38 48V48Z" fill="white"/>
<path d="M44 16C50.259 16.0001 55.3329 21.074 55.333 27.333V36.208L60.4629 42.4365C61.6611 43.8913 60.7237 46.2215 58.9404 46.2217H29.0596C27.2762 46.2217 26.3388 43.8914 27.5371 42.4365L32.667 36.208V27.333C32.6671 21.0739 37.7409 16 44 16Z" fill="white"/>
<!-- <path d="M96.9555 25.1484C96.9555 29.1914 99.9789 33.0586 104.83 34.6055L103.108 37.207C99.4867 36.0117 96.7445 33.5156 95.3383 30.3516C93.9145 33.7793 91.1195 36.4863 87.3578 37.8047L85.6352 35.2383C90.5219 33.5508 93.5453 29.4375 93.5805 25.1484V24.2695H86.5141V21.5625H103.881V24.2695H96.9555V25.1484ZM111.405 19.4883V38.5078H108.065V19.4883H111.405ZM111.405 40.0898V50.9883H108.065V42.7969H90.0648V40.0898H111.405ZM141.688 19.5234V43.3945H138.348V40.3711H132.02V38.0156H138.348V19.5234H141.688ZM142.462 47.6133V50.3203H119.716V41.0742H123.02V47.6133H142.462ZM115.356 33.9023C121.192 33.8672 129.032 33.7969 135.747 32.9531L135.958 35.3438C133.268 35.7832 130.438 36.082 127.661 36.2578V42.4102H124.321V36.4336C121.262 36.5742 118.327 36.5918 115.778 36.5742L115.356 33.9023ZM125.657 20.7188C130.262 20.7188 133.462 22.9336 133.462 26.2734C133.462 29.6133 130.262 31.7578 125.657 31.7578C120.981 31.7578 117.817 29.6133 117.817 26.2734C117.817 22.9336 120.981 20.7188 125.657 20.7188ZM125.657 23.2148C122.845 23.1797 120.946 24.375 120.981 26.2734C120.946 28.1367 122.845 29.2969 125.657 29.2969C128.364 29.2969 130.262 28.1367 130.298 26.2734C130.262 24.375 128.364 23.1797 125.657 23.2148ZM172.991 23.918V26.625H147.081V23.918H158.402V19.9453H161.706V23.918H172.991ZM174.538 44.7305V47.4375H145.71V44.7305H158.402V40.5469C152.882 40.2129 149.542 38.0332 149.542 34.5352C149.542 30.7383 153.55 28.5234 160.054 28.5234C166.488 28.5234 170.53 30.7383 170.53 34.5352C170.53 38.0332 167.173 40.2129 161.706 40.5469V44.7305H174.538ZM160.054 31.1602C155.554 31.1602 152.917 32.3555 152.952 34.5352C152.917 36.7148 155.554 37.9102 160.054 37.9453C164.484 37.9102 167.12 36.7148 167.12 34.5352C167.12 32.3555 164.484 31.1602 160.054 31.1602ZM204.611 33.3047V35.8008H191.92V38.4375H201.025V45.5391H182.673V48.1406H201.904V50.6719H179.404V43.2188H197.72V40.8633H179.369V38.4375H188.615V35.8008H175.959V33.3047H204.611ZM191.92 19.3477V22.125H201.763V24.6914H192.201C192.834 27.3633 197.105 29.2266 203.205 29.543L202.185 32.0742C196.701 31.6875 192.236 30.0703 190.267 27.293C188.298 30.0703 183.834 31.6875 178.314 32.0742L177.365 29.543C183.412 29.2266 187.666 27.3633 188.369 24.6914H178.806V22.125H188.615V19.3477H191.92Z" fill="white"/> -->
</svg>
