<svg width="60" height="60" viewBox="0 0 60 60" fill="none" xmlns="http://www.w3.org/2000/svg">
<path d="M30.6602 14.5056C31.9438 13.3778 34 14.2597 34 15.9383V44.0624C33.999 45.7398 31.9435 46.6218 30.6602 45.495L22.1299 37.9999H11.5C10.6719 37.9999 10.0005 37.3279 10 36.4999V23.4998C10 22.6714 10.6716 21.9998 11.5 21.9998H22.1309L30.6602 14.5056ZM44.1631 18.158C44.5783 17.9532 44.9994 17.9473 45.4268 18.1394C45.8543 18.3316 46.1786 18.6452 46.3984 19.0809C47.2535 20.772 47.9011 22.5272 48.3408 24.3465C48.7806 26.1659 49 28.037 49 29.9588C49 31.8805 48.7742 33.7702 48.3223 35.6278C47.8703 37.4856 47.2164 39.2608 46.3613 40.952C46.1415 41.3874 45.8234 41.6946 45.4082 41.8739C44.9931 42.0531 44.5782 42.0406 44.1631 41.8358C43.8211 41.6565 43.5763 41.3811 43.4297 41.0096C43.2831 40.6381 43.3075 40.2851 43.5029 39.952C44.3579 38.4403 44.9992 36.8518 45.4268 35.1864C45.8543 33.5208 46.0684 31.8031 46.0684 30.035C46.0683 28.2671 45.8479 26.5442 45.4082 24.866C44.9685 23.1877 44.3218 21.5792 43.4668 20.0418C43.2714 19.7088 43.2526 19.3565 43.4111 18.9851C43.5699 18.6136 43.8211 18.3374 44.1631 18.158ZM39.9482 22.6551C40.3636 22.5013 40.761 22.5205 41.1396 22.7127C41.5183 22.9049 41.7929 23.2195 41.9639 23.6551C42.3791 24.6543 42.6781 25.6856 42.8613 26.7488C43.0446 27.8123 43.1367 28.8826 43.1367 29.9588C43.1367 31.0606 43.0392 32.1435 42.8438 33.2069C42.6483 34.27 42.3429 35.314 41.9277 36.3387C41.7567 36.7744 41.4812 37.0947 41.1025 37.2997C40.7239 37.5046 40.3273 37.5305 39.9121 37.3768C39.5456 37.2231 39.2828 36.9603 39.124 36.5887C38.9653 36.2172 38.9589 35.8517 39.1055 35.493C39.4718 34.622 39.7465 33.7191 39.9297 32.784C40.1129 31.8488 40.2051 30.9068 40.2051 29.9588C40.2051 29.0107 40.1129 28.0747 39.9297 27.1522C39.7465 26.2298 39.4719 25.3328 39.1055 24.4617C38.959 24.1031 38.9716 23.7509 39.1426 23.4051C39.3136 23.0592 39.5818 22.8088 39.9482 22.6551Z" fill="#262626"/>
</svg>
