<svg width="160" height="160" viewBox="0 0 160 160" fill="none" xmlns="http://www.w3.org/2000/svg">
<path d="M73.4043 30.9396C76.7625 30.1216 80 32.6658 80 36.1223V122.712C80 126.115 76.8561 128.648 73.5312 127.924L32.1973 118.915C29.7472 118.381 28.0001 116.212 28 113.704V46.1906C28 43.7313 29.6818 41.59 32.0713 41.008L73.4043 30.9396ZM69 75.0002C66.7909 75.0002 65 77.2388 65 80.0002C65.0001 82.7615 66.7909 85.0002 69 85.0002C71.2091 85.0002 72.9999 82.7615 73 80.0002C73 77.2388 71.2091 75.0002 69 75.0002Z" fill="#4D321F"/>
<path d="M33.3333 46.19V113.704L74.6667 122.712V36.1223L33.3333 46.19ZM80 122.712C80 126.009 77.0497 128.489 73.8424 127.982L73.5312 127.923L32.1979 118.915C29.824 118.398 28.1098 116.345 28.0052 113.937L28 113.704V46.19C28 43.8845 29.478 41.8591 31.6315 41.1354L32.0716 41.0078L73.4049 30.94C76.763 30.1224 80 32.6661 80 36.1223V122.712Z" fill="#4D321F"/>
<path d="M82.4314 86.3326C84.7695 77.6092 88.6438 71.1771 93.9494 67.1995C100.356 62.3976 108.779 61.1383 119.013 63.4464L121.837 52.9117C122.209 51.5234 124.07 51.2167 124.907 52.4056L144.446 80.1346C145.051 80.9936 144.735 82.1734 143.781 82.6146L112.994 96.8547C111.674 97.4653 110.216 96.2692 110.588 94.8809L113.39 84.4279C107.199 82.9422 102.324 82.5681 98.1793 83.2465C93.7016 83.98 90.0823 85.8995 86.0231 88.5548L84.7291 89.402C83.4155 90.2619 81.7025 89.0521 82.1054 87.549L82.4314 86.3326Z" fill="#4D321F"/>
<path d="M109.333 41.3333C111.542 41.3333 113.333 43.1241 113.333 45.3333V57.1633C111.283 56.985 109.281 56.9524 107.333 57.0696V47.3333H34V112.666H107.333V100.358C108.889 101.833 111.101 102.612 113.333 102.272V114.666C113.333 116.875 111.542 118.666 109.333 118.666H32C29.7909 118.666 28 116.875 28 114.666V45.3333C28 43.1241 29.7909 41.3333 32 41.3333H109.333ZM113.333 96.7014L112.994 96.8586L112.745 96.9524C111.499 97.3191 110.239 96.1864 110.588 94.885L113.333 84.6428V96.7014ZM107.333 62.4104C109.243 62.2748 111.243 62.3103 113.333 62.5168V84.4182C111.182 83.9038 109.19 83.5256 107.333 83.2776V62.4104Z" fill="#4D321F"/>
</svg>
