<svg width="60" height="60" viewBox="0 0 60 60" fill="none" xmlns="http://www.w3.org/2000/svg">
<path d="M57 51H3V19L13.6934 9H46.3066L57 19V51Z" fill="#F68121"/>
<path d="M46.3066 7C46.8138 7 47.3024 7.19272 47.6729 7.53906L58.3662 17.5391C58.3776 17.5498 58.3883 17.5614 58.3994 17.5723C58.4096 17.5823 58.4197 17.5923 58.4297 17.6025C58.4645 17.6382 58.4975 17.6751 58.5293 17.7129C58.5354 17.7201 58.5419 17.727 58.5479 17.7344C58.6248 17.8285 58.6922 17.9285 58.75 18.0332C58.7575 18.0467 58.7643 18.0605 58.7715 18.0742C58.7931 18.1156 58.8134 18.1575 58.832 18.2002C58.8374 18.2125 58.8425 18.2249 58.8477 18.2373C58.8936 18.3487 58.9299 18.4636 58.9551 18.5811C58.958 18.5947 58.9603 18.6084 58.9629 18.6221C58.9868 18.7464 59 18.8728 59 19V51C59 52.1046 58.1046 53 57 53H3C1.89543 53 1 52.1046 1 51V19C1.00001 18.9379 1.00304 18.876 1.00879 18.8145C1.01008 18.8004 1.01209 18.7864 1.01367 18.7725C1.01945 18.722 1.02656 18.6718 1.03613 18.6221C1.03875 18.6084 1.04105 18.5946 1.04395 18.5811C1.05571 18.5261 1.07056 18.4718 1.08691 18.418C1.09421 18.394 1.10219 18.3703 1.11035 18.3467C1.12168 18.3139 1.13345 18.2812 1.14648 18.249C1.15406 18.2303 1.1618 18.2118 1.16992 18.1934C1.18621 18.1564 1.20409 18.12 1.22266 18.084C1.23329 18.0634 1.24356 18.0426 1.25488 18.0225C1.3113 17.9217 1.37689 17.8252 1.45117 17.7344C1.45716 17.7271 1.46363 17.7201 1.46973 17.7129C1.50149 17.6751 1.53451 17.6382 1.56934 17.6025C1.57931 17.5923 1.58942 17.5823 1.59961 17.5723C1.61093 17.5612 1.62217 17.5499 1.63379 17.5391L12.3271 7.53906L12.4717 7.41699C12.8202 7.14804 13.2496 7.00003 13.6934 7H46.3066ZM5 49H55V21H5V49ZM8.06738 17H51.9326L45.5166 11H14.4834L8.06738 17Z" fill="#74370F"/>
</svg>
