<svg width="70" height="70" viewBox="0 0 70 70" fill="none" xmlns="http://www.w3.org/2000/svg">
<g clip-path="url(#clip0_59_38770)">
<mask id="mask0_59_38770" style="mask-type:alpha" maskUnits="userSpaceOnUse" x="0" y="0" width="70" height="70">
<rect width="70" height="70" fill="#D9D9D9"/>
</mask>
<g mask="url(#mask0_59_38770)">
<path d="M35.0013 46.666C38.6471 46.666 41.7461 45.39 44.2982 42.8379C46.8503 40.2858 48.1263 37.1868 48.1263 33.541C48.1263 29.8952 46.8503 26.7962 44.2982 24.2441C41.7461 21.6921 38.6471 20.416 35.0013 20.416C31.3555 20.416 28.2565 21.6921 25.7044 24.2441C23.1523 26.7962 21.8763 29.8952 21.8763 33.541C21.8763 37.1868 23.1523 40.2858 25.7044 42.8379C28.2565 45.39 31.3555 46.666 35.0013 46.666ZM35.0013 41.416C32.8138 41.416 30.9544 40.6504 29.4232 39.1191C27.8919 37.5879 27.1263 35.7285 27.1263 33.541C27.1263 31.3535 27.8919 29.4941 29.4232 27.9629C30.9544 26.4316 32.8138 25.666 35.0013 25.666C37.1888 25.666 39.0482 26.4316 40.5794 27.9629C42.1107 29.4941 42.8763 31.3535 42.8763 33.541C42.8763 35.7285 42.1107 37.5879 40.5794 39.1191C39.0482 40.6504 37.1888 41.416 35.0013 41.416ZM35.0013 55.416C27.9041 55.416 21.4388 53.4351 15.6055 49.4733C9.77213 45.5115 5.54297 40.2007 2.91797 33.541C5.54297 26.8813 9.77213 21.5705 15.6055 17.6087C21.4388 13.6469 27.9041 11.666 35.0013 11.666C42.0985 11.666 48.5638 13.6469 54.3971 17.6087C60.2305 21.5705 64.4596 26.8813 67.0846 33.541C64.4596 40.2007 60.2305 45.5115 54.3971 49.4733C48.5638 53.4351 42.0985 55.416 35.0013 55.416Z" fill="#D1D1D1"/>
</g>
</g>
<defs>
<clipPath id="clip0_59_38770">
<rect width="70" height="70" fill="white"/>
</clipPath>
</defs>
</svg>
