<svg width="60" height="60" viewBox="0 0 60 60" fill="none" xmlns="http://www.w3.org/2000/svg">
<path d="M24 10C24 8.89543 24.8954 8 26 8H34C35.1046 8 36 8.89543 36 10V12C36 13.1046 35.1046 14 34 14H26C24.8954 14 24 13.1046 24 12V10Z" fill="#B94B00"/>
<path d="M30 16C39.9411 16 48 24.0589 48 34C48 43.9411 39.9411 52 30 52C20.0589 52 12 43.9411 12 34C12 24.0589 20.0589 16 30 16ZM30 20.5C29.1716 20.5 28.5 21.1716 28.5 22V34.0498C28.5009 34.0773 28.5034 34.1046 28.5059 34.1318C28.5067 34.142 28.5077 34.152 28.5088 34.1621C28.5127 34.1978 28.518 34.2333 28.5244 34.2686C28.5271 34.2836 28.53 34.2986 28.5332 34.3135C28.5403 34.3463 28.5484 34.3789 28.5576 34.4111C28.5618 34.4258 28.5657 34.4406 28.5703 34.4551C28.6102 34.5801 28.667 34.6994 28.7383 34.8105C28.7454 34.8216 28.7523 34.8329 28.7598 34.8438C28.7799 34.8733 28.8019 34.9015 28.8242 34.9297C28.8317 34.9391 28.839 34.9487 28.8467 34.958C28.9021 35.0247 28.9638 35.0865 29.0312 35.1436C29.0378 35.1491 29.0442 35.1547 29.0508 35.1602C29.073 35.1783 29.0957 35.1959 29.1191 35.2129C29.1394 35.2276 29.1597 35.2421 29.1807 35.2559C29.1969 35.2664 29.2137 35.2761 29.2305 35.2861C29.2555 35.3011 29.2807 35.3156 29.3066 35.3291C29.314 35.3329 29.3207 35.3381 29.3281 35.3418L37.3281 39.3418C38.069 39.7123 38.9703 39.4118 39.3408 38.6709C39.7113 37.9299 39.4109 37.0287 38.6699 36.6582L31.5 33.0732V22C31.5 21.1716 30.8284 20.5 30 20.5Z" fill="#B94B00"/>
</svg>
