<svg width="160" height="155" viewBox="0 0 160 155" fill="none" xmlns="http://www.w3.org/2000/svg">
<path d="M60.9417 1.96118C65.1578 -0.107878 69.9854 -0.5575 74.5104 0.69665L145.921 20.4889C154.24 22.7948 160 30.3773 160 39.0228V102.46C160 109.062 156.619 115.204 151.044 118.726L98.3208 152.034C93.4736 155.096 87.5141 155.831 82.0708 154.035L13.1938 131.309C5.32096 128.711 0.000396508 121.346 0 113.044V43.8619C2.30412e-05 36.522 4.17147 29.822 10.7521 26.5924L60.9417 1.96118ZM10.6667 117.34L34.1333 125.888V107.23L53.3333 114.628V132.298L81.0667 142.982V74.6051L53.3333 63.9212V85.7855L34.1333 78.3903V57.5109L10.6667 48.9638V117.34ZM134.4 75.1643C134.4 70.1992 129.008 67.1188 124.742 69.6471L123.617 70.3148C119.724 72.6222 117.336 76.8162 117.335 81.3471V84.1642C117.336 87.6766 120.035 90.2427 123.125 90.5494L117.333 115.208L133.333 105.59L128.61 88.6985C132.21 86.3377 134.4 82.3149 134.4 77.9792V75.1643Z" fill="#888888"/>
</svg>
