<svg width="715" height="738" viewBox="0 0 715 738" fill="none" xmlns="http://www.w3.org/2000/svg">
<path d="M290.616 9.33776C310.721 -0.51364 333.743 -2.65442 355.322 3.31695L695.86 97.5535C735.531 108.533 763 144.635 763 185.799V487.843C762.999 519.278 746.876 548.518 720.29 565.289L468.867 723.877C445.752 738.458 417.333 741.955 391.375 733.405L62.9177 625.199C25.3743 612.831 0.00189085 577.764 0 538.235V208.839C0.000109878 173.892 19.8927 141.991 51.274 126.614L290.616 9.33776ZM50.8667 558.692L162.773 599.387V510.555L254.333 545.776V629.908L386.587 680.777V355.216L254.333 304.347V408.45L162.773 373.239V273.826L50.8667 233.131V558.692ZM640.92 357.879C640.92 334.239 615.207 319.572 594.862 331.61L589.497 334.789C570.932 345.776 559.545 365.744 559.543 387.317V400.73C559.546 417.454 572.417 429.672 587.152 431.132L559.533 548.538L635.833 502.746L613.311 422.32C630.476 411.079 640.919 391.925 640.92 371.282V357.879Z" fill="url(#paint0_linear_282_28120)" fill-opacity="0.05"/>
<defs>
<linearGradient id="paint0_linear_282_28120" x1="381.5" y1="0" x2="381.5" y2="738" gradientUnits="userSpaceOnUse">
<stop stop-opacity="0"/>
<stop offset="1"/>
</linearGradient>
</defs>
</svg>
