<svg width="118" height="118" viewBox="0 0 118 118" fill="none" xmlns="http://www.w3.org/2000/svg">
<g filter="url(#filter0_di_266_2710)">
<rect x="4" y="2" width="110" height="110" rx="55" fill="white" shape-rendering="crispEdges"/>
<rect x="4.5" y="2.5" width="109" height="109" rx="54.5" stroke="#B0B0B0" shape-rendering="crispEdges"/>
<circle cx="59" cy="57" r="48" stroke="#3D3D3D" stroke-width="4"/>
<path d="M59.0003 8C68.7303 8.00012 77.6231 13.3764 84.1204 22.2363C90.6174 31.0958 94.6663 43.3832 94.6663 57C94.6663 70.6168 90.6174 82.9042 84.1204 91.7637C77.6231 100.624 68.7303 106 59.0003 106C49.2702 106 40.3766 100.624 33.8792 91.7637C27.3823 82.9042 23.3333 70.6168 23.3333 57C23.3333 43.3832 27.3823 31.0958 33.8792 22.2363C40.3766 13.3763 49.2702 8 59.0003 8Z" stroke="#3D3D3D" stroke-width="2"/>
<path d="M59 8C61.3979 8 63.7836 9.21064 66.0586 11.6162C68.3355 14.0238 70.4322 17.5614 72.2139 22.0156C75.7752 30.9188 78 43.2875 78 57C78 70.7125 75.7752 83.0812 72.2139 91.9844C70.4322 96.4386 68.3355 99.9762 66.0586 102.384C63.7836 104.789 61.3979 106 59 106C56.6021 106 54.2164 104.789 51.9414 102.384C49.6645 99.9762 47.5678 96.4386 45.7861 91.9844C42.2248 83.0812 40 70.7125 40 57C40 43.2875 42.2248 30.9188 45.7861 22.0156C47.5678 17.5614 49.6645 14.0238 51.9414 11.6162C54.2164 9.21064 56.6021 8 59 8Z" stroke="#3D3D3D" stroke-width="2"/>
<path d="M60.6665 105.333L57.3332 105.333L57.3332 8.66675L60.6665 8.66675L60.6665 105.333Z" fill="#3D3D3D"/>
<path d="M105.473 38.6667C103.365 47.8561 83.9994 55.0911 60.2046 55.3279L59.0005 55.3337C34.6579 55.3337 14.6721 48.0106 12.5278 38.6667H15.6548C16.0369 39.6742 16.7862 40.7714 18.0425 41.9382C20.035 43.7888 23.0824 45.5936 27.0991 47.1716C35.1145 50.3205 46.3924 52.3337 59.0005 52.3337C71.6086 52.3337 82.8866 50.3205 90.9019 47.1716C94.9184 45.5937 97.9651 43.7888 99.9575 41.9382C101.214 40.7714 101.963 39.6742 102.345 38.6667H105.473Z" fill="#3D3D3D"/>
<path d="M12 55.3333C12.0001 57.0039 12.8339 58.8995 14.9902 60.9387C17.153 62.984 20.444 64.9638 24.7588 66.6897C33.372 70.135 45.4769 72.3333 59 72.3333C72.5231 72.3333 84.628 70.135 93.2412 66.6897C97.556 64.9638 100.847 62.984 103.01 60.9387C105.031 59.0267 105.891 57.2411 105.99 55.6487L106 55.3333H109C109 66.3789 86.6141 75.3333 59 75.3333C31.3859 75.3333 9.00022 66.3789 9 55.3333H12Z" fill="#3D3D3D"/>
<path d="M104.001 78.6667C100.442 87.9606 82.2613 95.0817 60.1787 95.3269L59.001 95.3337C36.3899 95.3337 17.623 88.1252 14.001 78.6667H17.3076C17.7418 79.4391 18.335 80.2305 19.1113 81.0349C21.064 83.0582 24.034 85.0179 27.9365 86.7283C35.733 90.1451 46.7137 92.3337 59.001 92.3337C71.2882 92.3337 82.269 90.1451 90.0654 86.7283C93.9679 85.0179 96.9379 83.0582 98.8906 81.0349C99.6669 80.2305 100.26 79.4391 100.694 78.6667H104.001Z" fill="#3D3D3D"/>
<path d="M22.5298 24.5C24.0813 25.2527 25.9356 25.981 28.0806 26.6562C35.8598 29.1053 46.7922 30.667 58.9995 30.667C71.2068 30.667 82.1392 29.1052 89.9185 26.6562C92.0636 25.9809 93.9187 25.2528 95.4702 24.5H96.1304L97.6021 26.7832C89.7345 30.9063 75.3913 33.6669 59.0005 33.667C42.7802 33.667 28.5647 30.9632 20.646 26.9111L22.3335 24.5H22.5298Z" fill="#3D3D3D"/>
</g>
<defs>
<filter id="filter0_di_266_2710" x="0" y="-2" width="118" height="120" filterUnits="userSpaceOnUse" color-interpolation-filters="sRGB">
<feFlood flood-opacity="0" result="BackgroundImageFix"/>
<feColorMatrix in="SourceAlpha" type="matrix" values="0 0 0 0 0 0 0 0 0 0 0 0 0 0 0 0 0 0 127 0" result="hardAlpha"/>
<feOffset dy="2"/>
<feGaussianBlur stdDeviation="2"/>
<feComposite in2="hardAlpha" operator="out"/>
<feColorMatrix type="matrix" values="0 0 0 0 0 0 0 0 0 0 0 0 0 0 0 0 0 0 0.2 0"/>
<feBlend mode="normal" in2="BackgroundImageFix" result="effect1_dropShadow_266_2710"/>
<feBlend mode="normal" in="SourceGraphic" in2="effect1_dropShadow_266_2710" result="shape"/>
<feColorMatrix in="SourceAlpha" type="matrix" values="0 0 0 0 0 0 0 0 0 0 0 0 0 0 0 0 0 0 127 0" result="hardAlpha"/>
<feOffset dy="-4"/>
<feGaussianBlur stdDeviation="2.5"/>
<feComposite in2="hardAlpha" operator="arithmetic" k2="-1" k3="1"/>
<feColorMatrix type="matrix" values="0 0 0 0 0 0 0 0 0 0 0 0 0 0 0 0 0 0 0.15 0"/>
<feBlend mode="normal" in2="shape" result="effect2_innerShadow_266_2710"/>
</filter>
</defs>
</svg>
