<?xml version="1.0" encoding="UTF-8"?>
<svg id="Layer_2" xmlns="http://www.w3.org/2000/svg" width="240" height="240" version="1.1" xmlns:xlink="http://www.w3.org/1999/xlink" viewBox="0 0 240 240">
  <!-- Generator: Adobe Illustrator 30.1.0, SVG Export Plug-In . SVG Version: 2.1.1 Build 136)  -->
  <defs>
    <style>
      .st0 {
        fill: #fff;
      }

      .st1 {
        mask: url(#mask);
      }

      .st2 {
        fill: url(#linear-gradient1);
      }

      .st3 {
        fill: url(#linear-gradient);
      }

      .st4 {
        fill: #d9d9d9;
      }
    </style>
    <mask id="mask" x="-1135" y="-42" width="1467.5" height="300.5" maskUnits="userSpaceOnUse">
      <g id="mask0_154_4647">
        <path class="st4" d="M-871.5,4c-122,15.2-226.5-24.3-263.5-46v300.5H332.5V-42c-30.5,15.3-103.9,47.1-153.5,51.5C117,15,35-36.5-57-36.5S-255.5,4-311.5,9.5s-195-42-258.5-46S-719-15-871.5,4Z"/>
      </g>
    </mask>
    <linearGradient id="linear-gradient" x1="120" y1="220" x2="120" y2="20" gradientTransform="translate(0 240) scale(1 -1)" gradientUnits="userSpaceOnUse">
      <stop offset="0" stop-color="#3368dd"/>
      <stop offset="1" stop-color="#2846a5"/>
    </linearGradient>
    <linearGradient id="linear-gradient1" x1="120" y1="220" x2="120" y2="20" gradientTransform="translate(0 240) scale(1 -1)" gradientUnits="userSpaceOnUse">
      <stop offset="0" stop-color="#f55b64"/>
      <stop offset="1" stop-color="#b9002c"/>
    </linearGradient>
  </defs>
  <g class="st1">
    <g>
      <path class="st4" d="M120,20c55.2,0,100,44.8,100,100s-44.8,100-100,100S20,175.2,20,120,64.8,20,120,20Z"/>
      <path class="st3" d="M120,20c55.2,0,100,44.8,100,100s-44.8,100-100,100S20,175.2,20,120,64.8,20,120,20Z"/>
      <path class="st2" d="M120,20c55.2,0,100,44.8,100,100s-44.8,100-100,100S20,175.2,20,120,64.8,20,120,20Z"/>
    </g>
  </g>
  <path class="st0" d="M159.1,93.3c3.2-2.9,8.1-2.8,11,.4,2.9,3.2,2.8,8.1-.4,11l-56.1,52.2c-3,2.8-7.6,2.8-10.6,0l-34.1-31.2c-3.2-2.9-3.4-7.8-.5-11,2.9-3.2,7.8-3.4,11-.5l28.8,26.4,50.8-47.3Z"/>
  <metadata>
    <sfw xmlns="http://ns.adobe.com/SaveForWeb/1.0/">
      <slices/>
      <sliceSourceBounds x="20" y="20" width="200" height="200" bottomLeftOrigin="true"/>
    </sfw>
  </metadata>
</svg>