<?xml version="1.0" encoding="UTF-8"?>
<svg id="Layer_1" xmlns="http://www.w3.org/2000/svg" width="300" height="350" version="1.1" viewBox="0 0 300 350">
  <!-- Generator: Adobe Illustrator 30.1.0, SVG Export Plug-In . SVG Version: 2.1.1 Build 136)  -->
  <defs>
    <style>
      .st0 {
        fill: #3d3d3d;
      }

      .st1 {
        fill: #d1d1d1;
      }

      .st2 {
        fill: #d9d9d9;
      }
    </style>
  </defs>
  <path d="M76.9,74.6c0,5.5-1.5,10.1-7.9,13.4l-1.4-1.9c2.8-1.5,4.6-3.1,5.6-5.1l-5.2.5-.3-2.1,6.3-.4c.2-.8.3-1.6.4-2.4h-5.7v-2h8.2ZM82.7,72.9v17.8h-2.5v-8.9h-3.4v-2h3.4v-6.8h2.5ZM99.6,72.9v17.8h-2.5v-17.8h2.5ZM95.2,74.5v2h-1.6v7.7c.8,0,1.6-.1,2.3-.2v1.9c-3.7.6-7.8.7-11,.7l-.2-2h2.1v-8h-1.6v-2h10.1ZM89.1,84.5h2.1v-7.9h-2.1v7.9ZM115.3,74v7.5h-8.7v-7.5h8.7ZM109.1,75.9v3.6h3.8v-3.6h-3.8ZM120.6,72.9v10.1h-2.5v-10.1h2.5ZM120.9,83.9v1.9h-5c.3,1.2,2.1,2.6,5.7,2.9l-.8,1.9c-3-.3-5.1-1.3-6.1-2.8-1.1,1.4-3.2,2.5-6.2,2.8l-.9-1.9c3.6-.3,5.4-1.7,5.7-2.9h-5v-1.9h5.1v-1.5h2.5v1.5h5.1ZM134.9,73.2c3.9,0,6.4,1.3,6.5,3.5,0,2.1-2.5,3.5-6.5,3.4-3.9,0-6.5-1.3-6.5-3.4s2.6-3.5,6.5-3.5ZM134.9,75.2c-2.5,0-3.9.5-3.9,1.5,0,1,1.4,1.5,3.9,1.5s3.9-.5,3.9-1.5-1.4-1.5-3.9-1.5ZM141.1,84.4v6.1h-12.4v-6.1h12.4ZM131.2,86.4v2.1h7.5v-2.1h-7.5ZM143,81.2v2h-16.2v-2h16.2ZM160,86.6v2.1h-16.3v-2.1h4.2v-2.7h-2.3v-6h10.1v-1.9h-10.1v-2h12.5v5.9h-10v2h10.4v2h-2.5v2.7h4ZM150.3,86.6h3.3v-2.7h-3.3v2.7ZM181.4,79.6v2h-2.5v9h-2.5v-17.7h2.5v6.7h2.5ZM167.9,74.6v9.6c2.3,0,4.7-.2,7.3-.8l.3,2.1c-3,.6-5.9.8-8.5.8h-1.5v-11.7h2.5ZM189.8,73.8c3.8,0,6.7,1.9,6.7,4.9,0,2.7-2.3,4.5-5.5,4.8v3h6.9v2.1h-16.3v-2.1h6.9v-3c-3.2-.3-5.4-2.2-5.4-4.8s2.9-4.9,6.7-4.9ZM189.8,75.8c-2.5,0-4.2,1.1-4.2,2.9s1.7,2.9,4.2,2.9,4.2-1.1,4.2-2.9c0-1.8-1.7-2.9-4.2-2.9ZM213,77.7v2h-12.4v-6.2h2.5v4.2h9.9ZM214.8,81.6v2h-16.3v-2h16.3ZM213.1,88.3v2h-12.7v-5.3h2.5v3.3h10.2ZM229.7,73.7v1.4c0,1.3,0,2.9-.4,4.9l-2.5-.2c.4-1.7.4-2.9.4-4.1h-9.9v-2h12.4ZM231.6,80.9v2h-16.1v-2h6.1v-3.3h2.5v3.3h7.6ZM224.8,84.5c0,1.8,1.9,3.7,5.8,4.2l-.9,1.9c-2.9-.4-5.1-1.5-6.2-3.2-1.1,1.6-3.2,2.8-6.2,3.2l-.9-1.9c3.9-.5,5.8-2.3,5.8-4.2v-.5h2.5v.5Z"/>
  <path class="st0" d="M124.9,6.8c10.7-3.3,23,5.8,27.4,20.3,4.4,14.5-.6,28.9-11.4,32.2-10.7,3.3-23-5.8-27.4-20.3-4.4-14.5.6-28.9,11.4-32.2ZM122.5,22c-.7-.9-2.4-.6-2.2.5,1,5,4.1,10.6,11.4,12.6,11.1,3,14.3,12.1,14.5,16.2.2-5.6-1.6-17.6-10.7-21.5-7-3-10.8-5.2-13-7.9Z"/>
  <path class="st0" d="M180.1,24.6c-7.1-2.3-15.5,3.6-18.6,13.3-3.2,9.7,0,19.4,7.2,21.7,7.1,2.3,15.5-3.6,18.6-13.3,3.2-9.7,0-19.4-7.2-21.7ZM183.3,30.8c.4,3.5-.6,10.9-8.1,12.8-7.5,1.9-9.7,7.9-9.9,10.7,0-3.7,1.3-11.8,7.4-14.3,7.7-3.1,9.8-4.9,10.6-9.3Z"/>
  <path class="st1" d="M235.6,342.9v3H63.8v-3h171.8Z"/>
  <path class="st1" d="M292,115.9c.9,0,1.6.8,1.4,1.7l-40.7,213.9v.4c-1.8,8-8.7,13.8-16.7,14h-.4s0-2.9,0-2.9c6.9,0,12.9-5,14.2-12l40.7-213.9c.1-.7.7-1.2,1.4-1.2Z"/>
  <path class="st1" d="M6.1,117.6c-.2-.9.5-1.7,1.4-1.7s1.3.5,1.4,1.2l40.7,213.9c1.3,6.9,7.3,12,14.2,12v3c-8.2,0-15.3-5.8-17-14v-.4c0,0-40.8-213.9-40.8-213.9Z"/>
  <path class="st2" d="M255.5,118.9c12.6,0,22,11.5,19.6,23.8l-33.7,173c-1.8,9.4-10.1,16.2-19.6,16.2H77.7c-9.6,0-17.8-6.8-19.6-16.2L24.4,142.7c-2.4-12.3,7.1-23.8,19.6-23.8h211.5Z"/>
  <metadata>
    <sfw xmlns="http://ns.adobe.com/SaveForWeb/1.0/">
      <slices/>
      <sliceSourceBounds x="6.04" y="-345.87" width="287.4" height="339.73" bottomLeftOrigin="true"/>
    </sfw>
  </metadata>
</svg>