<?xml version="1.0" encoding="UTF-8"?>
<svg id="Layer_1" xmlns="http://www.w3.org/2000/svg" width="570" height="600" version="1.1" viewBox="0 0 570 600">
  <!-- Generator: Adobe Illustrator 30.1.0, SVG Export Plug-In . SVG Version: 2.1.1 Build 136)  -->
  <defs>
    <style>
      .st0 {
        fill: #3d3d3d;
      }

      .st1 {
        fill: #d1d1d1;
      }

      .st2 {
        fill: #d9d9d9;
      }
    </style>
  </defs>
  <path class="st1" d="M428.6,575.9v5.1H130.4v-5.1h298.3Z"/>
  <path class="st1" d="M526.5,181c1.6,0,2.8,1.4,2.5,3l-70.7,372.1v.7c-3.1,13.9-15,23.9-29,24.3h-.7s0-5.1,0-5.1c12,0,22.4-8.7,24.7-20.8l70.7-372c.2-1.2,1.3-2,2.5-2Z"/>
  <path class="st1" d="M30.1,184c-.3-1.6.9-3,2.5-3s2.2.9,2.5,2l70.7,372c2.3,12.1,12.6,20.8,24.7,20.8v5.1c-14.2,0-26.5-10.1-29.5-24.3v-.7c-.1,0-70.8-372.1-70.8-372.1Z"/>
  <path d="M184.8,138.5c0,7.1-1.9,13.1-10.3,17.4l-1.8-2.4c3.7-1.9,5.9-4.1,7.3-6.6l-6.7.6-.4-2.7,8.2-.5c.3-1,.4-2,.5-3.1h-7.4v-2.6h10.7ZM192.4,136.3v23.1h-3.2v-11.6h-4.4v-2.6h4.4v-8.9h3.2ZM214.3,136.3v23.1h-3.3v-23.1h3.3ZM208.5,138.4v2.6h-2.1v10c1,0,2-.2,3-.3l.2,2.4c-4.9.8-10.3.9-14.5.9l-.3-2.6h2.7v-10.4h-2v-2.6h13.1ZM200.7,151.3h2.7v-10.3h-2.7v10.3ZM234.8,137.7v9.7h-11.3v-9.7h11.3ZM226.7,140.2v4.7h4.9v-4.7h-4.9ZM241.6,136.3v13.1h-3.2v-13.1h3.2ZM242,150.6v2.4h-6.5c.4,1.6,2.8,3.4,7.4,3.8l-1.1,2.4c-3.8-.4-6.6-1.8-8-3.6-1.4,1.9-4.2,3.2-8,3.6l-1.1-2.4c4.6-.4,7.1-2.2,7.4-3.8h-6.5v-2.4h6.6v-1.9h3.2v1.9h6.6ZM260.3,136.7c5.1,0,8.4,1.7,8.4,4.5,0,2.8-3.3,4.5-8.4,4.5-5.1,0-8.4-1.7-8.4-4.5s3.3-4.5,8.4-4.5ZM260.3,139.2c-3.2,0-5.1.7-5.1,2,0,1.3,1.8,2,5.1,2s5.1-.7,5.1-2-1.9-2-5.1-2ZM268.3,151.3v7.9h-16.1v-7.9h16.1ZM255.4,153.8v2.7h9.8v-2.7h-9.8ZM270.8,147v2.6h-21.1v-2.6h21.1ZM292.8,154.1v2.7h-21.1v-2.7h5.4v-3.5h-3v-7.8h13.1v-2.5h-13.1v-2.6h16.3v7.7h-13v2.6h13.6v2.6h-3.3v3.5h5.2ZM280.2,154.1h4.2v-3.5h-4.2v3.5ZM320.6,145v2.6h-3.3v11.7h-3.2v-23.1h3.2v8.8h3.3ZM303.1,138.5v12.5c3,0,6.1-.3,9.5-1l.3,2.7c-3.9.8-7.6,1-11,1h-2v-15.2h3.2ZM331.6,137.5c5,0,8.7,2.5,8.7,6.3,0,3.5-3,5.8-7.1,6.3v3.9h9v2.7h-21.2v-2.7h8.9v-4c-4.1-.4-7.1-2.8-7.1-6.3s3.7-6.3,8.7-6.3ZM331.6,140.1c-3.2,0-5.5,1.4-5.5,3.7s2.3,3.8,5.5,3.8,5.5-1.4,5.5-3.8c0-2.3-2.3-3.7-5.5-3.7ZM361.8,142.6v2.5h-16.1v-8h3.2v5.5h12.9ZM364.1,147.6v2.5h-21.1v-2.5h21.1ZM361.9,156.3v2.6h-16.5v-6.9h3.2v4.3h13.3ZM383.5,137.3v1.8c0,1.8,0,3.8-.6,6.3l-3.2-.3c.5-2.2.5-3.8.6-5.3h-12.9v-2.5h16.1ZM386,146.7v2.6h-21v-2.6h7.9v-4.3h3.2v4.3h9.9ZM377,151.4c0,2.4,2.4,4.8,7.6,5.4l-1.2,2.5c-3.8-.5-6.6-2-8-4.1-1.4,2.1-4.2,3.6-8,4.1l-1.1-2.5c5.1-.6,7.5-3,7.5-5.4v-.7h3.3v.7Z"/>
  <path class="st2" d="M480.2,186c12.6,0,22,11.5,19.6,23.8l-64,330c-1.8,9.4-10.1,16.2-19.6,16.2H142.8c-9.6,0-17.8-6.8-19.6-16.2L59.1,209.8c-2.4-12.3,7.1-23.8,19.6-23.8h401.5Z"/>
  <path class="st0" d="M245.2,27.5c14.8-4.5,31.7,8,37.8,28.1,6.1,20-.9,39.9-15.7,44.4-14.8,4.5-31.7-8-37.8-28.1-6.1-20,.9-39.9,15.7-44.4ZM240.5,46.4c-.5-1-2.2-.8-2,.3.8,7.5,4.7,16.9,16.2,20,15.3,4.2,19.7,16.7,20,22.4.3-7.7-2.2-24.3-14.7-29.7-11.4-4.8-16.7-8.2-19.4-13.1Z"/>
  <path class="st0" d="M321.5,52.1c-9.9-3.2-21.4,5-25.7,18.4-4.4,13.4,0,26.8,10,30,9.9,3.2,21.4-5,25.7-18.4,4.4-13.4,0-26.8-10-30ZM325.8,60.6c.6,4.8-.8,15.1-11.1,17.7s-13.4,10.9-13.7,14.8c-.1-5.1,1.8-16.3,10.3-19.7,10.6-4.3,13.5-6.8,14.6-12.8Z"/>
  <metadata>
    <sfw xmlns="http://ns.adobe.com/SaveForWeb/1.0/">
      <slices/>
      <sliceSourceBounds x="60.02" y="53.96" width="498.96" height="554.48" bottomLeftOrigin="true"/>
    </sfw>
  </metadata>
</svg>