<svg width="140" height="140" viewBox="0 0 140 140" fill="none" xmlns="http://www.w3.org/2000/svg">
<rect x="28" y="12" width="84" height="113" fill="white"/>
<path d="M105.875 8.75C111.191 8.75 115.5 13.0593 115.5 18.375V121.625C115.5 125.974 111.974 129.5 107.625 129.5H32.375C28.0258 129.5 24.5 125.974 24.5 121.625V18.375C24.5 13.0593 28.8093 8.75 34.125 8.75H105.875ZM29.75 121.625C29.75 123.075 30.9253 124.25 32.375 124.25H107.625C109.075 124.25 110.25 123.075 110.25 121.625V35H29.75V121.625ZM70 42C89.33 42 105 57.67 105 77C105 96.33 89.33 112 70 112C50.67 112 35 96.33 35 77C35 57.67 50.67 42 70 42ZM70 47.25C53.5695 47.25 40.25 60.5695 40.25 77C40.25 93.4305 53.5695 106.75 70 106.75C86.4305 106.75 99.75 93.4305 99.75 77C99.75 60.5695 86.4305 47.25 70 47.25ZM79.5 74.9619L86.2256 77.6895C87.2176 78.0917 87.7177 79.2042 87.3594 80.2129L85.1348 86.4727C84.779 87.4737 83.7024 88.0215 82.6836 87.7207L79.5 86.7803V99.5C79.5 100.605 78.6046 101.5 77.5 101.5H62.5C61.3954 101.5 60.5 100.605 60.5 99.5V86.7803L57.3164 87.7207C56.2976 88.0215 55.221 87.4737 54.8652 86.4727L52.6406 80.2129C52.2823 79.2042 52.7824 78.0917 53.7744 77.6895L60.5 74.9619L63.5928 74C64.6779 76.5964 67.138 78.4091 70 78.4092C72.862 78.4092 75.3221 76.5965 76.4072 74L79.5 74.9619ZM34.125 14C31.7088 14 29.75 15.9588 29.75 18.375V31.5H110.25V18.375C110.25 15.9588 108.291 14 105.875 14H34.125ZM57.0996 18.3809C59.4114 18.4978 61.25 20.4091 61.25 22.75C61.25 25.1662 59.2912 27.125 56.875 27.125H37.625C35.2088 27.125 33.25 25.1662 33.25 22.75C33.25 20.4091 35.0886 18.4978 37.4004 18.3809L37.625 18.375H56.875L57.0996 18.3809ZM102.6 18.3809C104.911 18.4978 106.75 20.4091 106.75 22.75C106.75 25.1662 104.791 27.125 102.375 27.125H83.125C80.7088 27.125 78.75 25.1662 78.75 22.75C78.75 20.4091 80.5886 18.4978 82.9004 18.3809L83.125 18.375H102.375L102.6 18.3809ZM70 19.25C71.933 19.25 73.5 20.817 73.5 22.75C73.5 24.683 71.933 26.25 70 26.25C68.067 26.25 66.5 24.683 66.5 22.75C66.5 20.817 68.067 19.25 70 19.25ZM37.625 21C36.6585 21 35.875 21.7835 35.875 22.75C35.875 23.7165 36.6585 24.5 37.625 24.5H56.875C57.8415 24.5 58.625 23.7165 58.625 22.75C58.625 21.7835 57.8415 21 56.875 21H37.625ZM83.125 21C82.1585 21 81.375 21.7835 81.375 22.75C81.375 23.7165 82.1585 24.5 83.125 24.5H102.375C103.341 24.5 104.125 23.7165 104.125 22.75C104.125 21.7835 103.341 21 102.375 21H83.125Z" fill="url(#paint0_linear_355_3578)"/>
<path d="M69.8921 61.3146C68.3691 58.6719 69.1599 55.3371 69.7457 54C68.7206 54.6685 66.6412 56.5719 66.524 58.8371C66.4069 61.1022 67.5491 63.2022 67.9884 64.1461L69.4528 67.3315C70.7415 70.7292 69.0135 73.8596 67.9884 75C69.6286 73.8674 70.9172 72.4045 71.3566 71.8146C72.6452 69.5494 72.3816 66.9382 72.0888 65.9157C71.9911 65.4831 71.4151 63.9573 69.8921 61.3146Z" fill="url(#paint1_linear_355_3578)"/>
<path d="M69.8921 61.3146C68.3691 58.6719 69.1599 55.3371 69.7457 54C68.7206 54.6685 66.6412 56.5719 66.524 58.8371C66.4069 61.1022 67.5491 63.2022 67.9884 64.1461L69.4528 67.3315C70.7415 70.7292 69.0135 73.8596 67.9884 75C69.6286 73.8674 70.9172 72.4045 71.3566 71.8146C72.6452 69.5494 72.3816 66.9382 72.0888 65.9157C71.9911 65.4831 71.4151 63.9573 69.8921 61.3146Z" fill="url(#paint2_linear_355_3578)"/>
<path d="M74.6243 61.3628C73.2377 59.6627 73.3818 57.2994 73.6272 56.3302C72.9933 56.8736 71.7743 58.3534 71.9696 59.9249C72.1649 61.4965 73.2194 62.8528 73.6415 63.4684L75.0536 65.5474C76.369 67.787 75.5455 70.0847 74.9693 70.9535C75.9758 70.0406 76.6966 68.9282 76.9312 68.4861C77.5538 66.8204 77.0503 65.0408 76.7208 64.3592C76.5997 64.0687 76.0109 63.0628 74.6243 61.3628Z" fill="url(#paint3_linear_355_3578)"/>
<path d="M74.6243 61.3628C73.2377 59.6627 73.3818 57.2994 73.6272 56.3302C72.9933 56.8736 71.7743 58.3534 71.9696 59.9249C72.1649 61.4965 73.2194 62.8528 73.6415 63.4684L75.0536 65.5474C76.369 67.787 75.5455 70.0847 74.9693 70.9535C75.9758 70.0406 76.6966 68.9282 76.9312 68.4861C77.5538 66.8204 77.0503 65.0408 76.7208 64.3592C76.5997 64.0687 76.0109 63.0628 74.6243 61.3628Z" fill="url(#paint4_linear_355_3578)"/>
<path d="M64.7573 63.5505C63.5817 62.1091 63.7039 60.1055 63.912 59.2838C63.3745 59.7445 62.3411 60.9991 62.5066 62.3315C62.6722 63.6638 63.5662 64.8138 63.9241 65.3357L65.1213 67.0983C66.2365 68.9971 65.5383 70.9451 65.0498 71.6817C65.9032 70.9078 66.5143 69.9646 66.7131 69.5898C67.241 68.1776 66.8142 66.6688 66.5347 66.0909C66.4321 65.8447 65.9329 64.9918 64.7573 63.5505Z" fill="url(#paint5_linear_355_3578)"/>
<path d="M64.7573 63.5505C63.5817 62.1091 63.7039 60.1055 63.912 59.2838C63.3745 59.7445 62.3411 60.9991 62.5066 62.3315C62.6722 63.6638 63.5662 64.8138 63.9241 65.3357L65.1213 67.0983C66.2365 68.9971 65.5383 70.9451 65.0498 71.6817C65.9032 70.9078 66.5143 69.9646 66.7131 69.5898C67.241 68.1776 66.8142 66.6688 66.5347 66.0909C66.4321 65.8447 65.9329 64.9918 64.7573 63.5505Z" fill="url(#paint6_linear_355_3578)"/>
<defs>
<linearGradient id="paint0_linear_355_3578" x1="36.8802" y1="8.75" x2="126.227" y2="113.997" gradientUnits="userSpaceOnUse">
<stop stop-color="#DC471A"/>
<stop offset="1" stop-color="#B73317"/>
</linearGradient>
<linearGradient id="paint1_linear_355_3578" x1="67.3066" y1="54" x2="78.7859" y2="58.9675" gradientUnits="userSpaceOnUse">
<stop stop-color="#175C9F"/>
<stop offset="1" stop-color="#093663"/>
</linearGradient>
<linearGradient id="paint2_linear_355_3578" x1="67.3066" y1="54" x2="78.7859" y2="58.9675" gradientUnits="userSpaceOnUse">
<stop stop-color="#DC471A"/>
<stop offset="1" stop-color="#B73317"/>
</linearGradient>
<linearGradient id="paint3_linear_355_3578" x1="71.9243" y1="56.5263" x2="80.6314" y2="58.6873" gradientUnits="userSpaceOnUse">
<stop stop-color="#175C9F"/>
<stop offset="1" stop-color="#093663"/>
</linearGradient>
<linearGradient id="paint4_linear_355_3578" x1="71.9243" y1="56.5263" x2="80.6314" y2="58.6873" gradientUnits="userSpaceOnUse">
<stop stop-color="#DC471A"/>
<stop offset="1" stop-color="#B73317"/>
</linearGradient>
<linearGradient id="paint5_linear_355_3578" x1="62.4682" y1="59.45" x2="69.8503" y2="61.2822" gradientUnits="userSpaceOnUse">
<stop stop-color="#175C9F"/>
<stop offset="1" stop-color="#093663"/>
</linearGradient>
<linearGradient id="paint6_linear_355_3578" x1="62.4682" y1="59.45" x2="69.8503" y2="61.2822" gradientUnits="userSpaceOnUse">
<stop stop-color="#DC471A"/>
<stop offset="1" stop-color="#B73317"/>
</linearGradient>
</defs>
</svg>
