<svg width="140" height="140" viewBox="0 0 140 140" fill="none" xmlns="http://www.w3.org/2000/svg">
<rect x="28" y="12" width="84" height="113" fill="white"/>
<path d="M105.875 8.75C111.191 8.75 115.5 13.0593 115.5 18.375V121.625C115.5 125.974 111.974 129.5 107.625 129.5H32.375C28.0258 129.5 24.5 125.974 24.5 121.625V18.375C24.5 13.0593 28.8093 8.75 34.125 8.75H105.875ZM29.75 121.625C29.75 123.075 30.9253 124.25 32.375 124.25H107.625C109.075 124.25 110.25 123.075 110.25 121.625V35H29.75V121.625ZM70 42C89.33 42 105 57.67 105 77C105 96.33 89.33 112 70 112C50.67 112 35 96.33 35 77C35 57.67 50.67 42 70 42ZM46.6719 58.5371C42.6515 63.6101 40.25 70.0244 40.25 77C40.25 93.4305 53.5695 106.75 70 106.75C86.4305 106.75 99.75 93.4305 99.75 77C99.75 70.0322 97.3531 63.625 93.3408 58.5547C88.404 62.6322 83.3091 64.9823 78.3398 66.1074C78.6996 66.1867 79.0788 66.2772 79.4766 66.3838C80.3269 66.6116 81.0727 66.8124 81.6982 67.0439L80.5146 71.46C80.0749 73.1012 79.9349 75.1749 79.7812 77.1807C79.6974 79.0452 79.5678 80.9618 79.208 82.3047L75.21 97.2246C75.1552 97.2098 70.7395 96.0066 71.5342 93.041C71.806 92.0265 72.0429 90.8426 72.1768 89.5674C73.6188 88.4826 74.8251 86.7271 75.4248 84.4893L75.5244 84.1162L72.2979 85.9541C72.2737 85.3879 72.2155 84.8279 72.1426 84.2646L75.7559 82.1787C75.7924 81.5649 75.772 80.9838 75.71 80.4395L71.8398 82.6484C71.7608 82.3438 71.6791 82.0449 71.5889 81.7451L58.7803 92.9541C57.92 93.7068 56.7692 93.8926 55.7637 93.541L67.0635 83.6543C68.2367 82.6276 69.4464 81.0453 70.6562 79.4688C70.4548 79.0962 70.2343 78.7215 69.9971 78.3652L72.873 76.7041C73.0298 76.5258 73.186 76.3535 73.3418 76.1885C72.9866 75.9452 72.6181 75.7406 72.2012 75.6289C72.0777 75.5958 71.9533 75.5717 71.8291 75.5518C71.0031 76.4716 70.1817 77.5258 69.373 78.5537C68.2659 80.0561 67.092 81.5758 66.0459 82.4912L54.4209 92.6641C54.4209 92.6641 51.3694 89.176 53.6943 87.1416C54.4848 86.4499 55.3412 85.5985 56.1621 84.6133C57.9639 84.5143 59.943 83.7269 61.6865 82.2012L61.9766 81.9463L58.2734 81.6777C58.5683 81.1939 58.8312 80.697 59.084 80.1885L63.2471 80.4658C63.619 79.9761 63.9254 79.4819 64.1768 78.9951L59.7314 78.6768C59.9072 78.1741 60.0714 77.6817 60.2051 77.1543L64.7383 77.4785C64.8734 76.9292 64.918 76.4174 64.918 75.9248L60.4932 75.6299C60.5484 75.1301 60.5835 74.6071 60.585 74.0928L64.6611 74.3643C64.4853 73.8818 64.2742 73.4295 63.9385 73.0459C63.0739 72.058 61.7777 71.6324 60.332 71.6455C60.2986 71.4901 60.277 71.3243 60.2334 71.1572L61.2285 68.7061C62.8791 68.8996 65.0926 68.1972 67.3057 66.7607C66.8445 66.7149 66.3866 66.6629 65.9326 66.6006C57.7988 65.4837 50.8733 61.815 46.6719 58.5371ZM83.1504 67.5928C86.0225 68.8101 85.791 69.6758 85.791 69.6758L78.9941 95.04C78.6983 96.1442 77.8456 96.9396 76.8145 97.207L80.7002 82.7041C81.4997 79.7201 81.2074 74.8445 82.0068 71.8604L83.1504 67.5928ZM74.0283 79.6104L75.332 78.8672C75.2953 78.7663 75.2533 78.6695 75.2129 78.5742L74.0283 79.6104ZM70 47.25C61.9889 47.25 54.7178 50.4168 49.3691 55.5664C53.1183 58.4275 59.2904 61.6509 66.4766 62.6377C73.9117 63.6587 82.4495 62.2964 90.6514 55.5879C85.3007 50.4262 78.0217 47.25 70 47.25ZM34.125 14C31.7088 14 29.75 15.9588 29.75 18.375V31.5H110.25V18.375C110.25 15.9588 108.291 14 105.875 14H34.125ZM57.0996 18.3809C59.4114 18.4978 61.25 20.4091 61.25 22.75C61.25 25.1662 59.2912 27.125 56.875 27.125H37.625C35.2088 27.125 33.25 25.1662 33.25 22.75C33.25 20.4091 35.0886 18.4978 37.4004 18.3809L37.625 18.375H56.875L57.0996 18.3809ZM102.6 18.3809C104.911 18.4978 106.75 20.4091 106.75 22.75C106.75 25.1662 104.791 27.125 102.375 27.125H83.125C80.7088 27.125 78.75 25.1662 78.75 22.75C78.75 20.4091 80.5886 18.4978 82.9004 18.3809L83.125 18.375H102.375L102.6 18.3809ZM70 19.25C71.933 19.25 73.5 20.817 73.5 22.75C73.5 24.683 71.933 26.25 70 26.25C68.067 26.25 66.5 24.683 66.5 22.75C66.5 20.817 68.067 19.25 70 19.25ZM37.625 21C36.6585 21 35.875 21.7835 35.875 22.75C35.875 23.7165 36.6585 24.5 37.625 24.5H56.875C57.8415 24.5 58.625 23.7165 58.625 22.75C58.625 21.7835 57.8415 21 56.875 21H37.625ZM83.125 21C82.1585 21 81.375 21.7835 81.375 22.75C81.375 23.7165 82.1585 24.5 83.125 24.5H102.375C103.341 24.5 104.125 23.7165 104.125 22.75C104.125 21.7835 103.341 21 102.375 21H83.125Z" fill="url(#paint0_linear_355_3968)"/>
<path d="M105.875 8.75C111.191 8.75 115.5 13.0593 115.5 18.375V121.625C115.5 125.974 111.974 129.5 107.625 129.5H32.375C28.0258 129.5 24.5 125.974 24.5 121.625V18.375C24.5 13.0593 28.8093 8.75 34.125 8.75H105.875ZM29.75 121.625C29.75 123.075 30.9253 124.25 32.375 124.25H107.625C109.075 124.25 110.25 123.075 110.25 121.625V35H29.75V121.625ZM70 42C89.33 42 105 57.67 105 77C105 96.33 89.33 112 70 112C50.67 112 35 96.33 35 77C35 57.67 50.67 42 70 42ZM46.6719 58.5371C42.6515 63.6101 40.25 70.0244 40.25 77C40.25 93.4305 53.5695 106.75 70 106.75C86.4305 106.75 99.75 93.4305 99.75 77C99.75 70.0322 97.3531 63.625 93.3408 58.5547C88.404 62.6322 83.3091 64.9823 78.3398 66.1074C78.6996 66.1867 79.0788 66.2772 79.4766 66.3838C80.3269 66.6116 81.0727 66.8124 81.6982 67.0439L80.5146 71.46C80.0749 73.1012 79.9349 75.1749 79.7812 77.1807C79.6974 79.0452 79.5678 80.9618 79.208 82.3047L75.21 97.2246C75.1552 97.2098 70.7395 96.0066 71.5342 93.041C71.806 92.0265 72.0429 90.8426 72.1768 89.5674C73.6188 88.4826 74.8251 86.7271 75.4248 84.4893L75.5244 84.1162L72.2979 85.9541C72.2737 85.3879 72.2155 84.8279 72.1426 84.2646L75.7559 82.1787C75.7924 81.5649 75.772 80.9838 75.71 80.4395L71.8398 82.6484C71.7608 82.3438 71.6791 82.0449 71.5889 81.7451L58.7803 92.9541C57.92 93.7068 56.7692 93.8926 55.7637 93.541L67.0635 83.6543C68.2367 82.6276 69.4464 81.0453 70.6562 79.4688C70.4548 79.0962 70.2343 78.7215 69.9971 78.3652L72.873 76.7041C73.0298 76.5258 73.186 76.3535 73.3418 76.1885C72.9866 75.9452 72.6181 75.7406 72.2012 75.6289C72.0777 75.5958 71.9533 75.5717 71.8291 75.5518C71.0031 76.4716 70.1817 77.5258 69.373 78.5537C68.2659 80.0561 67.092 81.5758 66.0459 82.4912L54.4209 92.6641C54.4209 92.6641 51.3694 89.176 53.6943 87.1416C54.4848 86.4499 55.3412 85.5985 56.1621 84.6133C57.9639 84.5143 59.943 83.7269 61.6865 82.2012L61.9766 81.9463L58.2734 81.6777C58.5683 81.1939 58.8312 80.697 59.084 80.1885L63.2471 80.4658C63.619 79.9761 63.9254 79.4819 64.1768 78.9951L59.7314 78.6768C59.9072 78.1741 60.0714 77.6817 60.2051 77.1543L64.7383 77.4785C64.8734 76.9292 64.918 76.4174 64.918 75.9248L60.4932 75.6299C60.5484 75.1301 60.5835 74.6071 60.585 74.0928L64.6611 74.3643C64.4853 73.8818 64.2742 73.4295 63.9385 73.0459C63.0739 72.058 61.7777 71.6324 60.332 71.6455C60.2986 71.4901 60.277 71.3243 60.2334 71.1572L61.2285 68.7061C62.8791 68.8996 65.0926 68.1972 67.3057 66.7607C66.8445 66.7149 66.3866 66.6629 65.9326 66.6006C57.7988 65.4837 50.8733 61.815 46.6719 58.5371ZM83.1504 67.5928C86.0225 68.8101 85.791 69.6758 85.791 69.6758L78.9941 95.04C78.6983 96.1442 77.8456 96.9396 76.8145 97.207L80.7002 82.7041C81.4997 79.7201 81.2074 74.8445 82.0068 71.8604L83.1504 67.5928ZM74.0283 79.6104L75.332 78.8672C75.2953 78.7663 75.2533 78.6695 75.2129 78.5742L74.0283 79.6104ZM70 47.25C61.9889 47.25 54.7178 50.4168 49.3691 55.5664C53.1183 58.4275 59.2904 61.6509 66.4766 62.6377C73.9117 63.6587 82.4495 62.2964 90.6514 55.5879C85.3007 50.4262 78.0217 47.25 70 47.25ZM34.125 14C31.7088 14 29.75 15.9588 29.75 18.375V31.5H110.25V18.375C110.25 15.9588 108.291 14 105.875 14H34.125ZM57.0996 18.3809C59.4114 18.4978 61.25 20.4091 61.25 22.75C61.25 25.1662 59.2912 27.125 56.875 27.125H37.625C35.2088 27.125 33.25 25.1662 33.25 22.75C33.25 20.4091 35.0886 18.4978 37.4004 18.3809L37.625 18.375H56.875L57.0996 18.3809ZM102.6 18.3809C104.911 18.4978 106.75 20.4091 106.75 22.75C106.75 25.1662 104.791 27.125 102.375 27.125H83.125C80.7088 27.125 78.75 25.1662 78.75 22.75C78.75 20.4091 80.5886 18.4978 82.9004 18.3809L83.125 18.375H102.375L102.6 18.3809ZM70 19.25C71.933 19.25 73.5 20.817 73.5 22.75C73.5 24.683 71.933 26.25 70 26.25C68.067 26.25 66.5 24.683 66.5 22.75C66.5 20.817 68.067 19.25 70 19.25ZM37.625 21C36.6585 21 35.875 21.7835 35.875 22.75C35.875 23.7165 36.6585 24.5 37.625 24.5H56.875C57.8415 24.5 58.625 23.7165 58.625 22.75C58.625 21.7835 57.8415 21 56.875 21H37.625ZM83.125 21C82.1585 21 81.375 21.7835 81.375 22.75C81.375 23.7165 82.1585 24.5 83.125 24.5H102.375C103.341 24.5 104.125 23.7165 104.125 22.75C104.125 21.7835 103.341 21 102.375 21H83.125Z" fill="url(#paint1_linear_355_3968)"/>
<defs>
<linearGradient id="paint0_linear_355_3968" x1="36.8802" y1="8.75" x2="126.227" y2="113.997" gradientUnits="userSpaceOnUse">
<stop stop-color="#175C9F"/>
<stop offset="1" stop-color="#093663"/>
</linearGradient>
<linearGradient id="paint1_linear_355_3968" x1="36.8802" y1="8.75" x2="126.227" y2="113.997" gradientUnits="userSpaceOnUse">
<stop stop-color="#DC471A"/>
<stop offset="1" stop-color="#B73317"/>
</linearGradient>
</defs>
</svg>
