<svg width="140" height="140" viewBox="0 0 140 140" fill="none" xmlns="http://www.w3.org/2000/svg">
<rect x="28" y="12" width="84" height="113" fill="white"/>
<path d="M105.875 8.75C111.191 8.75 115.5 13.0593 115.5 18.375V121.625C115.5 125.974 111.974 129.5 107.625 129.5H32.375C28.0258 129.5 24.5 125.974 24.5 121.625V18.375C24.5 13.0593 28.8093 8.75 34.125 8.75H105.875ZM29.75 121.625C29.75 123.075 30.9253 124.25 32.375 124.25H107.625C109.075 124.25 110.25 123.075 110.25 121.625V35H29.75V121.625ZM70 42C89.33 42 105 57.67 105 77C105 96.33 89.33 112 70 112C50.67 112 35 96.33 35 77C35 57.67 50.67 42 70 42ZM70 47.25C53.5695 47.25 40.25 60.5695 40.25 77C40.25 93.4305 53.5695 106.75 70 106.75C86.4305 106.75 99.75 93.4305 99.75 77C99.75 60.5695 86.4305 47.25 70 47.25ZM79.5 75C81.433 75 83 76.567 83 78.5C83 78.6796 82.9861 78.856 82.96 79.0283C86.7362 78.2222 90.3893 77.7471 94.4629 77.9658C95.4807 78.0205 96.2652 78.8783 96.2012 79.8955C95.3585 93.2336 83.7933 104.125 70.001 104.125C56.7647 104.125 45.6798 94.1066 43.9766 81.6338C43.7392 79.8951 45.8901 78.9867 47.375 79.9219C52.1333 82.9186 59.4953 84.7529 70.001 82.252C72.3832 81.6848 74.5818 81.1043 76.6709 80.5605C76.2491 79.9825 76 79.2704 76 78.5C76 76.567 77.567 75 79.5 75ZM79.5 77C78.6716 77 78 77.6716 78 78.5C78 79.1851 78.4595 79.7619 79.0869 79.9414C79.5733 79.8188 80.0552 79.7004 80.5332 79.585C80.82 79.3117 81 78.9274 81 78.5C81 77.6716 80.3284 77 79.5 77ZM63.5 67C65.9853 67 68 69.0147 68 71.5C68 73.9853 65.9853 76 63.5 76C61.0147 76 59 73.9853 59 71.5C59 69.0147 61.0147 67 63.5 67ZM63.5 69C62.1193 69 61 70.1193 61 71.5C61 72.8807 62.1193 74 63.5 74C64.8807 74 66 72.8807 66 71.5C66 70.1193 64.8807 69 63.5 69ZM78.5 53C82.6421 53 86 56.3579 86 60.5C86 64.6421 82.6421 68 78.5 68C74.3579 68 71 64.6421 71 60.5C71 56.3579 74.3579 53 78.5 53ZM78.5 56C76.0147 56 74 58.0147 74 60.5C74 62.9853 76.0147 65 78.5 65C80.9853 65 83 62.9853 83 60.5C83 58.0147 80.9853 56 78.5 56ZM34.125 14C31.7088 14 29.75 15.9588 29.75 18.375V31.5H110.25V18.375C110.25 15.9588 108.291 14 105.875 14H34.125ZM57.0996 18.3809C59.4114 18.4978 61.25 20.4091 61.25 22.75C61.25 25.1662 59.2912 27.125 56.875 27.125H37.625C35.2088 27.125 33.25 25.1662 33.25 22.75C33.25 20.4091 35.0886 18.4978 37.4004 18.3809L37.625 18.375H56.875L57.0996 18.3809ZM102.6 18.3809C104.911 18.4978 106.75 20.4091 106.75 22.75C106.75 25.1662 104.791 27.125 102.375 27.125H83.125C80.7088 27.125 78.75 25.1662 78.75 22.75C78.75 20.4091 80.5886 18.4978 82.9004 18.3809L83.125 18.375H102.375L102.6 18.3809ZM70 19.25C71.933 19.25 73.5 20.817 73.5 22.75C73.5 24.683 71.933 26.25 70 26.25C68.067 26.25 66.5 24.683 66.5 22.75C66.5 20.817 68.067 19.25 70 19.25ZM37.625 21C36.6585 21 35.875 21.7835 35.875 22.75C35.875 23.7165 36.6585 24.5 37.625 24.5H56.875C57.8415 24.5 58.625 23.7165 58.625 22.75C58.625 21.7835 57.8415 21 56.875 21H37.625ZM83.125 21C82.1585 21 81.375 21.7835 81.375 22.75C81.375 23.7165 82.1585 24.5 83.125 24.5H102.375C103.341 24.5 104.125 23.7165 104.125 22.75C104.125 21.7835 103.341 21 102.375 21H83.125Z" fill="url(#paint0_linear_355_3014)"/>
<defs>
<linearGradient id="paint0_linear_355_3014" x1="16.3936" y1="8.75" x2="98.6756" y2="137.095" gradientUnits="userSpaceOnUse">
<stop stop-color="#175C9F"/>
<stop offset="1" stop-color="#093663"/>
</linearGradient>
</defs>
</svg>
