<svg width="140" height="140" viewBox="0 0 140 140" fill="none" xmlns="http://www.w3.org/2000/svg">
<rect x="28" y="12" width="84" height="113" fill="white"/>
<path d="M105.875 8.75C111.191 8.75 115.5 13.0593 115.5 18.375V121.625C115.5 125.974 111.974 129.5 107.625 129.5H32.375C28.0258 129.5 24.5 125.974 24.5 121.625V18.375C24.5 13.0593 28.8093 8.75 34.125 8.75H105.875ZM29.75 121.625C29.75 123.075 30.9253 124.25 32.375 124.25H107.625C109.075 124.25 110.25 123.075 110.25 121.625V35H29.75V121.625ZM70 42C89.33 42 105 57.67 105 77C105 96.33 89.33 112 70 112C50.67 112 35 96.33 35 77C35 57.67 50.67 42 70 42ZM70 47.25C53.5695 47.25 40.25 60.5695 40.25 77C40.25 93.4305 53.5695 106.75 70 106.75C86.4305 106.75 99.75 93.4305 99.75 77C99.75 60.5695 86.4305 47.25 70 47.25ZM70.001 82.252C79.5153 79.987 86.1039 77.5171 94.4629 77.9658C95.4807 78.0205 96.2652 78.8783 96.2012 79.8955C95.3585 93.2336 83.7933 104.125 70.001 104.125C56.7647 104.125 45.6798 94.1066 43.9766 81.6338C43.7392 79.8951 45.8901 78.9867 47.375 79.9219C52.1333 82.9186 59.4953 84.7529 70.001 82.252ZM87.1455 67.502C87.8309 70.9247 86.9047 71.2942 86.8818 71.3027L58.8018 81.1328C57.5796 81.5604 56.2912 81.2699 55.3828 80.4756L71.4375 74.8555C74.7409 73.6991 79.1184 70.3127 82.4219 69.1562L87.1455 67.502ZM81.6777 56.4375C81.6964 56.4466 83.9164 57.5354 85.9316 63.292C86.2612 64.2334 86.5499 65.0596 86.7324 65.793L81.8438 67.5039C80.0269 68.1399 77.9969 69.3332 76.0215 70.4697C74.2228 71.5815 72.3459 72.6827 70.8594 73.2031L54.3428 78.9854C54.3351 78.9634 52.6151 74.0279 55.9111 72.874C57.0343 72.4808 58.294 71.9476 59.5732 71.2588C61.509 71.9159 63.9221 71.9238 66.3994 71.0566L66.8125 70.9121L63.0322 69.0645C63.5466 68.6805 64.0332 68.2695 64.5137 67.8418L68.7734 69.8916C69.3712 69.5341 69.9023 69.1447 70.3721 68.7393L65.834 66.5264C66.231 66.0723 66.6114 65.6238 66.9746 65.126L71.6025 67.3809C71.9766 66.8606 72.2402 66.342 72.4482 65.8242L67.9209 63.6445C68.1901 63.1424 68.4482 62.6075 68.667 62.0674L72.8369 64.0752C72.8559 63.4939 72.8255 62.9297 72.6348 62.3848C72.1433 60.9808 70.96 59.9857 69.4346 59.3887C69.4651 59.2111 69.5123 59.0271 69.5371 58.833L71.6191 56.6768C73.5666 57.7379 76.8616 57.8266 80.4219 56.8213L80.5215 56.8428L81.6777 56.4375ZM34.125 14C31.7088 14 29.75 15.9588 29.75 18.375V31.5H110.25V18.375C110.25 15.9588 108.291 14 105.875 14H34.125ZM57.0996 18.3809C59.4114 18.4978 61.25 20.4091 61.25 22.75C61.25 25.1662 59.2912 27.125 56.875 27.125H37.625C35.2088 27.125 33.25 25.1662 33.25 22.75C33.25 20.4091 35.0886 18.4978 37.4004 18.3809L37.625 18.375H56.875L57.0996 18.3809ZM102.6 18.3809C104.911 18.4978 106.75 20.4091 106.75 22.75C106.75 25.1662 104.791 27.125 102.375 27.125H83.125C80.7088 27.125 78.75 25.1662 78.75 22.75C78.75 20.4091 80.5886 18.4978 82.9004 18.3809L83.125 18.375H102.375L102.6 18.3809ZM70 19.25C71.933 19.25 73.5 20.817 73.5 22.75C73.5 24.683 71.933 26.25 70 26.25C68.067 26.25 66.5 24.683 66.5 22.75C66.5 20.817 68.067 19.25 70 19.25ZM37.625 21C36.6585 21 35.875 21.7835 35.875 22.75C35.875 23.7165 36.6585 24.5 37.625 24.5H56.875C57.8415 24.5 58.625 23.7165 58.625 22.75C58.625 21.7835 57.8415 21 56.875 21H37.625ZM83.125 21C82.1585 21 81.375 21.7835 81.375 22.75C81.375 23.7165 82.1585 24.5 83.125 24.5H102.375C103.341 24.5 104.125 23.7165 104.125 22.75C104.125 21.7835 103.341 21 102.375 21H83.125Z" fill="url(#paint0_linear_355_3085)"/>
<defs>
<linearGradient id="paint0_linear_355_3085" x1="36.8802" y1="8.75" x2="126.227" y2="113.997" gradientUnits="userSpaceOnUse">
<stop stop-color="#175C9F"/>
<stop offset="1" stop-color="#093663"/>
</linearGradient>
</defs>
</svg>
