<svg width="100" height="100" viewBox="0 0 100 100" fill="none" xmlns="http://www.w3.org/2000/svg">
<rect x="20" y="8.57129" width="60" height="80.7143" fill="white"/>
<path d="M75.625 6.25C79.422 6.25 82.5 9.32804 82.5 13.125V86.875C82.5 89.9816 79.9816 92.5 76.875 92.5H23.125C20.0184 92.5 17.5 89.9816 17.5 86.875V13.125C17.5 9.32804 20.578 6.25 24.375 6.25H75.625ZM21.25 86.875C21.25 87.9105 22.0895 88.75 23.125 88.75H76.875C77.9105 88.75 78.75 87.9105 78.75 86.875V25H21.25V86.875ZM50 30C63.8071 30 75 41.1929 75 55C75 68.8071 63.8071 80 50 80C36.1929 80 25 68.8071 25 55C25 41.1929 36.1929 30 50 30ZM50 33.75C38.2639 33.75 28.75 43.264 28.75 55C28.75 66.736 38.2639 76.25 50 76.25C61.736 76.25 71.25 66.736 71.25 55C71.25 43.264 61.736 33.75 50 33.75ZM56.7861 53.2861C58.3244 53.2864 59.5713 54.5339 59.5713 56.0723C59.5713 56.1794 59.5626 56.2847 59.5508 56.3887C61.9861 55.8835 64.3609 55.5786 66.9629 55.668C67.9816 55.7031 68.7686 56.5631 68.6748 57.5781C67.8164 66.8717 59.6756 74.375 50 74.375C41.0123 74.3748 33.414 67.9075 31.6406 59.6152C31.274 57.8995 33.4298 56.9456 34.9932 57.7422C38.3876 59.4722 43.2983 60.3473 50 58.752C51.5899 58.3735 53.0656 57.9861 54.4697 57.6201C54.1731 57.1775 54.0002 56.645 54 56.0723C54 54.5338 55.2476 53.2861 56.7861 53.2861ZM56.7861 55.2861C56.3522 55.2861 56 55.6383 56 56.0723C56.0005 56.5058 56.3525 56.8574 56.7861 56.8574C57.2196 56.8572 57.5708 56.5057 57.5713 56.0723C57.5713 55.6385 57.2199 55.2864 56.7861 55.2861ZM45.3564 47.8574C47.1315 47.8574 48.5711 49.2963 48.5713 51.0713L48.5674 51.2373C48.4811 52.9354 47.076 54.2861 45.3564 54.2861L45.1914 54.2822C43.4933 54.196 42.1427 52.7908 42.1426 51.0713C42.1428 49.2965 43.5817 47.8578 45.3564 47.8574ZM45.3564 49.8574C44.6863 49.8578 44.1428 50.4011 44.1426 51.0713C44.1427 51.7416 44.6862 52.2858 45.3564 52.2861C46.027 52.2861 46.5711 51.7418 46.5713 51.0713C46.5711 50.4008 46.0269 49.8574 45.3564 49.8574ZM56.3467 37.8643C59.1772 38.0077 61.4277 40.3486 61.4277 43.2148L61.4209 43.4902C61.2773 46.3206 58.9373 48.5711 56.0713 48.5713L55.7949 48.5645C53.0561 48.4252 50.8597 46.2291 50.7207 43.4902L50.7139 43.2148C50.7139 40.2563 53.1128 37.8576 56.0713 37.8574L56.3467 37.8643ZM56.0713 40.8574C54.7697 40.8576 53.7139 41.9132 53.7139 43.2148C53.7142 44.5163 54.7699 45.5711 56.0713 45.5713C57.3728 45.5711 58.4274 44.5163 58.4277 43.2148C58.4277 41.9131 57.373 40.8576 56.0713 40.8574ZM24.375 10C22.6491 10 21.25 11.3991 21.25 13.125V22.5H78.75V13.125C78.75 11.3991 77.3509 10 75.625 10H24.375ZM40.7852 13.1289C42.4364 13.2125 43.75 14.578 43.75 16.25C43.75 17.9759 42.3509 19.375 40.625 19.375H26.875C25.1491 19.375 23.75 17.9759 23.75 16.25C23.75 14.578 25.0636 13.2125 26.7148 13.1289L26.875 13.125H40.625L40.7852 13.1289ZM73.2852 13.1289C74.9364 13.2125 76.25 14.578 76.25 16.25C76.25 17.9759 74.8509 19.375 73.125 19.375H59.375C57.6491 19.375 56.25 17.9759 56.25 16.25C56.25 14.578 57.5636 13.2125 59.2148 13.1289L59.375 13.125H73.125L73.2852 13.1289ZM50 13.75C51.3807 13.75 52.5 14.8693 52.5 16.25C52.5 17.6307 51.3807 18.75 50 18.75C48.6193 18.75 47.5 17.6307 47.5 16.25C47.5 14.8693 48.6193 13.75 50 13.75ZM26.875 15C26.1846 15 25.625 15.5596 25.625 16.25C25.625 16.9404 26.1846 17.5 26.875 17.5H40.625C41.3154 17.5 41.875 16.9404 41.875 16.25C41.875 15.5596 41.3154 15 40.625 15H26.875ZM59.375 15C58.6846 15 58.125 15.5596 58.125 16.25C58.125 16.9404 58.6846 17.5 59.375 17.5H73.125C73.8154 17.5 74.375 16.9404 74.375 16.25C74.375 15.5596 73.8154 15 73.125 15H59.375Z" fill="black"/>
</svg>
