<svg width="200" height="200" viewBox="0 0 200 200" fill="none" xmlns="http://www.w3.org/2000/svg">
<path d="M100 0C155.228 0 200 44.7715 200 100C200 155.228 155.228 200 100 200C44.7715 200 0 155.228 0 100C0 44.7715 44.7715 0 100 0ZM150.104 73.708C147.168 70.5523 142.23 70.3743 139.074 73.3105L88.2461 120.601L59.4141 94.2393C56.2328 91.3307 51.2953 91.5522 48.3867 94.7334C45.4783 97.9146 45.699 102.851 48.8799 105.76L83.0264 136.979C86.0275 139.723 90.6323 139.703 93.6094 136.933L149.707 84.7383C152.863 81.8021 153.041 76.8638 150.104 73.708Z" fill="url(#paint0_linear_122_6149)"/>
<defs>
<linearGradient id="paint0_linear_122_6149" x1="42.439" y1="19.5122" x2="148.78" y2="185.366" gradientUnits="userSpaceOnUse">
<stop stop-color="#FBE949"/>
<stop offset="1" stop-color="#F8DA29"/>
</linearGradient>
</defs>
</svg>
