<svg width="300" height="80" viewBox="0 0 300 80" fill="none" xmlns="http://www.w3.org/2000/svg">
<path d="M20.5715 55.2195H42.0001V64H12V16H20.5715V55.2195Z" fill="white"/>
<path d="M47.1406 16H55.7121V64H47.1406V16Z" fill="white"/>
<path d="M143.999 24.7805H122.921C121.939 24.7805 121.142 25.5992 121.142 26.6092V29.4019C121.142 30.1139 121.544 30.7612 122.173 31.0608L139.532 39.3345C142.256 40.6327 143.999 43.4377 143.999 46.5233V57.5995C143.999 61.1344 141.21 64 137.77 64H112.57V55.2195H133.648C134.631 55.2195 135.428 54.4008 135.428 53.3908V48.1592C135.428 47.4448 135.023 46.7958 134.391 46.4975L117.062 38.316C114.325 37.0235 112.57 34.2111 112.57 31.1152V22.4005C112.57 18.8656 115.359 16 118.799 16H143.999V24.7805Z" fill="white"/>
<path d="M81.8547 40L84.5071 47.4929L87.1405 40L94.0417 19.2963C94.699 17.3246 96.503 16 98.5312 16H105.053C106.364 16 107.426 17.0917 107.426 18.4383V64H98.8548V31.8569L88.7585 62.1458C88.3888 63.2549 87.3741 64 86.2332 64H82.762C81.6211 64 80.6064 63.2549 80.2367 62.1458L70.8547 34V64H62.2832V18.4383C62.2832 17.0917 63.3455 16 64.656 16H70.464C72.4922 16 74.2962 17.3246 74.9535 19.2963L81.8547 40Z" fill="white"/>
<path d="M196.496 59.6098H207.355V64H192.152V40H196.496V59.6098Z" fill="white"/>
<path d="M248.414 59.6098V64H244.07V40H248.414V59.6098Z" fill="white"/>
<path d="M274.056 40C275.192 40 276.228 40.6533 276.729 41.6842L283.657 55.9539V40H288V62.7955C288 63.4607 287.467 64 286.809 64H284.91C283.768 64 282.726 63.3393 282.229 62.2995L275.666 48.5716V64H271.322V41.2045C271.322 40.5393 271.856 40 272.513 40H274.056Z" fill="white"/>
<path d="M236.939 59.6098V64H232.595V44.3373L227.146 44.3396V40.0011L232.595 40H236.939H242.348V44.3373H236.939V59.6098Z" fill="white"/>
<path d="M169.49 44.3902H159.069C158.603 44.3902 158.225 44.7834 158.225 45.2683V46.7249C158.225 47.0664 158.415 47.3769 158.713 47.521L167.373 51.7082C168.664 52.3325 169.49 53.6781 169.49 55.158V60.9268C169.49 62.6241 168.166 64 166.533 64H154V59.6098H164.421C164.887 59.6098 165.265 59.2166 165.265 58.7317V56.0556C165.265 55.713 165.074 55.4016 164.774 55.2582L156.129 51.1172C154.831 50.4957 154 49.1465 154 47.6617V43.0732C154 41.3759 155.324 40 156.957 40H169.49V44.3902Z" fill="white"/>
<path d="M183.019 59.4833V64H178.623V59.4833H183.019ZM185.103 57.3755V46.6245C185.103 45.4604 184.17 44.5167 183.019 44.5167H178.623C177.472 44.5167 176.539 45.4604 176.539 46.6245V57.3755C176.539 58.5396 177.472 59.4833 178.623 59.4833V64L178.454 63.9979C174.971 63.9088 172.163 61.0692 172.074 57.5463L172.072 57.3755V46.6245C172.072 42.9659 175.005 40 178.623 40H183.019C186.637 40 189.57 42.9659 189.57 46.6245V57.3755L189.568 57.5463C189.48 61.0692 186.672 63.9088 183.188 63.9979L183.019 64V59.4833C184.17 59.4833 185.103 58.5396 185.103 57.3755Z" fill="white"/>
<path d="M262.189 59.4833V64H257.793V59.4833H262.189ZM264.273 57.3755V46.6245C264.273 45.4604 263.34 44.5167 262.189 44.5167H257.793C256.642 44.5167 255.709 45.4604 255.709 46.6245V57.3755C255.709 58.5396 256.642 59.4833 257.793 59.4833V64L257.624 63.9979C254.14 63.9088 251.332 61.0692 251.244 57.5463L251.242 57.3755V46.6245C251.242 42.9659 254.175 40 257.793 40H262.189C265.807 40 268.74 42.9659 268.74 46.6245V57.3755L268.738 57.5463C268.65 61.0692 265.842 63.9088 262.358 63.9979L262.189 64V59.4833C263.34 59.4833 264.273 58.5396 264.273 57.3755Z" fill="white"/>
<path d="M213.256 57.3755L213.258 57.484C213.314 58.5977 214.225 59.4833 215.34 59.4833H219.736C220.851 59.4833 221.762 58.5977 221.818 57.484L221.82 57.3755V40H226.287V57.3755C226.287 61.0341 223.354 64 219.736 64H215.34C211.722 64 208.789 61.0341 208.789 57.3755V40H213.256V57.3755Z" fill="white"/>
</svg>
