<svg width="276" height="48" viewBox="0 0 276 48" fill="none" xmlns="http://www.w3.org/2000/svg">
<path d="M8.57147 39.2195H30.0001V48H0V0H8.57147V39.2195Z" fill="#888888"/>
<path d="M35.1406 0H43.7121V48H35.1406V0Z" fill="#888888"/>
<path d="M131.999 8.78049H110.921C109.939 8.78049 109.142 9.59923 109.142 10.6092V13.4019C109.142 14.1139 109.544 14.7612 110.173 15.0608L127.532 23.3345C130.256 24.6327 131.999 27.4377 131.999 30.5233V41.5995C131.999 45.1344 129.21 48 125.77 48H100.57V39.2195H121.648C122.631 39.2195 123.428 38.4008 123.428 37.3908V32.1592C123.428 31.4448 123.023 30.7958 122.391 30.4975L105.062 22.316C102.325 21.0235 100.57 18.2111 100.57 15.1152V6.40051C100.57 2.8656 103.359 0 106.799 0H131.999V8.78049Z" fill="#888888"/>
<path d="M69.8547 24L72.5071 31.4929L75.1405 24L82.0417 3.29631C82.699 1.32457 84.503 0 86.5312 0H93.0535C94.364 0 95.4263 1.09166 95.4263 2.43829V48H86.8548V15.8569L76.7585 46.1458C76.3888 47.2549 75.3741 48 74.2332 48H70.762C69.6211 48 68.6064 47.2549 68.2367 46.1458L58.8547 18V48H50.2832V2.43829C50.2832 1.09166 51.3455 0 52.656 0H58.464C60.4922 0 62.2962 1.32456 62.9535 3.29631L69.8547 24Z" fill="#888888"/>
<path d="M184.496 43.6098H195.355V48H180.152V24H184.496V43.6098Z" fill="#888888"/>
<path d="M236.414 43.6098V48H232.07V24H236.414V43.6098Z" fill="#888888"/>
<path d="M262.056 24C263.192 24 264.228 24.6533 264.729 25.6842L271.657 39.9539V24H276V46.7955C276 47.4607 275.467 48 274.809 48H272.91C271.768 48 270.726 47.3393 270.229 46.2995L263.666 32.5716V48H259.322V25.2045C259.322 24.5393 259.856 24 260.513 24H262.056Z" fill="#888888"/>
<path d="M224.939 43.6098V48H220.595V28.3373L215.146 28.3396V24.0011L220.595 24H224.939H230.348V28.3373H224.939V43.6098Z" fill="#888888"/>
<path d="M157.49 28.3902H147.069C146.603 28.3902 146.225 28.7834 146.225 29.2683V30.7249C146.225 31.0664 146.415 31.3769 146.713 31.521L155.373 35.7082C156.664 36.3325 157.49 37.6781 157.49 39.158V44.9268C157.49 46.6241 156.166 48 154.533 48H142V43.6098H152.421C152.887 43.6098 153.265 43.2166 153.265 42.7317V40.0556C153.265 39.713 153.074 39.4016 152.774 39.2582L144.129 35.1172C142.831 34.4957 142 33.1465 142 31.6617V27.0732C142 25.3759 143.324 24 144.957 24H157.49V28.3902Z" fill="#888888"/>
<path d="M171.019 43.4833V48H166.623V43.4833H171.019ZM173.103 41.3755V30.6245C173.103 29.4604 172.17 28.5167 171.019 28.5167H166.623C165.472 28.5167 164.539 29.4604 164.539 30.6245V41.3755C164.539 42.5396 165.472 43.4833 166.623 43.4833V48L166.454 47.9979C162.971 47.9088 160.163 45.0692 160.074 41.5463L160.072 41.3755V30.6245C160.072 26.9659 163.005 24 166.623 24H171.019C174.637 24 177.57 26.9659 177.57 30.6245V41.3755L177.568 41.5463C177.48 45.0692 174.672 47.9088 171.188 47.9979L171.019 48V43.4833C172.17 43.4833 173.103 42.5396 173.103 41.3755Z" fill="#888888"/>
<path d="M250.189 43.4833V48H245.793V43.4833H250.189ZM252.273 41.3755V30.6245C252.273 29.4604 251.34 28.5167 250.189 28.5167H245.793C244.642 28.5167 243.709 29.4604 243.709 30.6245V41.3755C243.709 42.5396 244.642 43.4833 245.793 43.4833V48L245.624 47.9979C242.14 47.9088 239.332 45.0692 239.244 41.5463L239.242 41.3755V30.6245C239.242 26.9659 242.175 24 245.793 24H250.189C253.807 24 256.74 26.9659 256.74 30.6245V41.3755L256.738 41.5463C256.65 45.0692 253.842 47.9088 250.358 47.9979L250.189 48V43.4833C251.34 43.4833 252.273 42.5396 252.273 41.3755Z" fill="#888888"/>
<path d="M201.256 41.3755L201.258 41.484C201.314 42.5977 202.225 43.4833 203.34 43.4833H207.736C208.851 43.4833 209.762 42.5977 209.818 41.484L209.82 41.3755V24H214.287V41.3755C214.287 45.0341 211.354 48 207.736 48H203.34C199.722 48 196.789 45.0341 196.789 41.3755V24H201.256V41.3755Z" fill="#888888"/>
</svg>
