<svg width="260" height="80" viewBox="0 0 260 80" fill="none" xmlns="http://www.w3.org/2000/svg">
<rect x="1" y="1" width="258" height="78" rx="9" fill="white"/>
<rect x="1" y="1" width="258" height="78" rx="9" stroke="black" stroke-width="2"/>
<path d="M60 18C63.3137 18 66 20.6863 66 24V56C66 59.3137 63.3137 62 60 62H28C24.6863 62 22 59.3137 22 56V24C22 20.6863 24.6863 18 28 18H60ZM28 40C26.8954 40 26 40.8954 26 42V56C26 57.1046 26.8954 58 28 58H42C43.1046 58 44 57.1046 44 56V42C44 40.8954 43.1046 40 42 40H28ZM48.8281 24.4238C48.0001 24.4241 47.3283 25.0948 47.3281 25.9229C47.3282 26.7511 48 27.4226 48.8281 27.4229L54.54 27.4238L45.7764 36.1875C45.1907 36.7733 45.1907 37.7228 45.7764 38.3086C46.3622 38.8942 47.3117 38.8943 47.8975 38.3086L56.6602 29.5459V35.2549C56.6603 36.0831 57.3319 36.7547 58.1602 36.7549C58.9885 36.7549 59.66 36.0832 59.6602 35.2549V25.9229C59.66 25.0946 58.9885 24.4238 58.1602 24.4238H48.8281Z" fill="black"/>
<!-- <path d="M125.045 23.8477V36.9609H129.51V40.2305H125.045V55.6289H121.107V23.8477H125.045ZM99.5214 46.8047C101.93 46.8047 104.725 46.8047 107.643 46.7344V43.7461C104.18 43.166 101.912 40.9863 101.947 38.0156C101.912 34.4297 105.076 32.0391 109.646 32.0391C114.146 32.0391 117.346 34.4297 117.381 38.0156C117.346 41.0039 115.043 43.1836 111.58 43.7461V46.5938C114.252 46.4531 116.924 46.2422 119.42 45.8906L119.666 48.7383C112.846 49.9688 105.498 50.0391 100.084 50.0391L99.5214 46.8047ZM119.068 27.5039V30.5977H100.119V27.5039H107.643V23.9883H111.58V27.5039H119.068ZM109.646 35.0273C107.221 35.0625 105.639 36.1523 105.639 38.0156C105.639 39.8438 107.221 40.9336 109.646 40.8984C112.037 40.9336 113.619 39.8438 113.619 38.0156C113.619 36.1523 112.037 35.0625 109.646 35.0273ZM146.614 26.5195V29.0508H153.012V23.8828H156.915V47.0156H153.012V39H146.614V41.7422H131.673V26.5195H146.614ZM135.575 29.6133V38.6836H142.747V29.6133H135.575ZM157.618 51.832V54.9961H135.962V44.8711H139.934V51.832H157.618ZM146.614 35.8711H153.012V32.25H146.614V35.8711ZM185.867 23.8828V33.1289H190.156V36.3633H185.867V45.3633H181.964V23.8828H185.867ZM160.413 41.5664C162.804 41.5664 165.564 41.5488 168.429 41.4609V39.5273C164.896 39.0879 162.663 37.3828 162.663 34.8867C162.663 31.9688 165.722 30.1406 170.327 30.1758C174.968 30.1406 177.992 31.9688 177.992 34.8867C177.992 37.3652 175.812 39.0527 172.331 39.4922V41.3203C175.038 41.1973 177.763 40.9863 180.312 40.6523L180.628 43.3594C173.843 44.5547 166.425 44.625 160.835 44.625L160.413 41.5664ZM185.867 46.7344V55.6289H181.964V49.793H164.421V46.7344H185.867ZM179.468 26.3789V29.2617H161.222V26.3789H168.429V23.6016H172.331V26.3789H179.468ZM170.327 32.8125C167.867 32.7773 166.39 33.5156 166.425 34.8867C166.39 36.1875 167.867 37.0312 170.327 36.9961C172.788 37.0312 174.265 36.1875 174.265 34.8867C174.265 33.5156 172.788 32.7773 170.327 32.8125ZM218.44 23.8477V55.6289H214.713V39.4219H211.127V54.0117H207.541V24.4453H211.127V36.293H214.713V23.8477H218.44ZM203.955 27.6094V30.7734H196.01V44.9062C199.473 44.8711 202.32 44.6953 205.537 44.0977L205.818 47.2969C201.986 48.0703 198.647 48.1758 194.217 48.2109H192.072V27.6094H203.955Z" fill="black"/> -->
<path d="M230 6H250C252.209 6 254 7.79086 254 10V30L242 18L230 6Z" fill="black"/>
</svg>
