<svg width="260" height="80" viewBox="0 0 260 80" fill="none" xmlns="http://www.w3.org/2000/svg">
<rect x="1" y="1" width="258" height="78" rx="9" fill="black"/>
<rect x="1" y="1" width="258" height="78" rx="9" stroke="white" stroke-width="2"/>
<path d="M60 18C63.3137 18 66 20.6863 66 24V56C66 59.3137 63.3137 62 60 62H28C24.6863 62 22 59.3137 22 56V24C22 20.6863 24.6863 18 28 18H60ZM28 44C26.8954 44 26 44.8954 26 46V56C26 57.1046 26.8954 58 28 58H60C61.1046 58 62 57.1046 62 56V46C62 44.8954 61.1046 44 60 44H28ZM44 24.5C43.1716 24.5001 42.5 25.1716 42.5 26V34.6094L39.0088 31.4355C38.3958 30.8785 37.4469 30.9232 36.8896 31.5361C36.3325 32.1491 36.3783 33.098 36.9912 33.6553L42.9912 39.1104L43.1016 39.2012C43.6709 39.6278 44.4724 39.5976 45.0088 39.1104L51.0088 33.6553C51.6218 33.098 51.6676 32.1491 51.1104 31.5361C50.5531 30.9232 49.6042 30.8784 48.9912 31.4355L45.5 34.6094V26C45.5 25.1716 44.8284 24.5 44 24.5Z" fill="white"/>
<!-- <path d="M105.937 23.8477V36.9609H110.402V40.2305H105.937V55.6289H101.999V23.8477H105.937ZM80.4133 46.8047C82.8215 46.8047 85.6164 46.8047 88.5344 46.7344V43.7461C85.0715 43.166 82.8039 40.9863 82.8391 38.0156C82.8039 34.4297 85.968 32.0391 90.5383 32.0391C95.0383 32.0391 98.2375 34.4297 98.2727 38.0156C98.2375 41.0039 95.9348 43.1836 92.4719 43.7461V46.5938C95.1438 46.4531 97.8156 46.2422 100.312 45.8906L100.558 48.7383C93.7375 49.9688 86.3898 50.0391 80.9758 50.0391L80.4133 46.8047ZM99.9602 27.5039V30.5977H81.0109V27.5039H88.5344V23.9883H92.4719V27.5039H99.9602ZM90.5383 35.0273C88.1125 35.0625 86.5305 36.1523 86.5305 38.0156C86.5305 39.8438 88.1125 40.9336 90.5383 40.8984C92.9289 40.9336 94.5109 39.8438 94.5109 38.0156C94.5109 36.1523 92.9289 35.0625 90.5383 35.0273ZM127.506 26.5195V29.0508H133.904V23.8828H137.807V47.0156H133.904V39H127.506V41.7422H112.564V26.5195H127.506ZM116.467 29.6133V38.6836H123.639V29.6133H116.467ZM138.51 51.832V54.9961H116.853V44.8711H120.826V51.832H138.51ZM127.506 35.8711H133.904V32.25H127.506V35.8711ZM176.691 23.8477V55.6289H172.929V39.5625H169.413V54.0117H165.757V24.4453H169.413V36.3633H172.929V23.8477H176.691ZM154.718 27.5039V44.2734C157.46 44.2207 160.466 43.9922 163.788 43.3242L164.175 46.7344C159.886 47.5078 156.265 47.7188 152.89 47.7188H150.781V27.5039H154.718ZM206.275 23.8477V55.6641H202.408V23.8477H206.275ZM196.502 26.625V38.543H185.568V44.9414C190.578 44.9062 194.902 44.6602 199.842 43.8164L200.193 47.0156C194.779 47.9648 190.033 48.1406 184.338 48.1406H181.561V35.4492H192.529V29.7891H181.525V26.625H196.502ZM236.739 23.8477V55.6289H232.802V23.8477H236.739ZM227.247 27.2227C227.247 36.6797 223.591 44.7305 212.446 50.0039L210.407 46.875C218.721 42.9199 222.589 37.541 223.274 30.3164H212.024V27.2227H227.247Z" fill="white"/> -->
</svg>
