<svg width="264" height="84" viewBox="0 0 264 84" fill="none" xmlns="http://www.w3.org/2000/svg">
<g filter="url(#filter0_di_3000_469)">
<rect x="2" y="1" width="260" height="80" rx="10" fill="white" shape-rendering="crispEdges"/>
<rect x="3" y="2" width="258" height="78" rx="9" stroke="#3D3D3D" stroke-width="2" shape-rendering="crispEdges"/>
<path d="M62 19C65.3137 19 68 21.6863 68 25V57C68 60.3137 65.3137 63 62 63H30C26.6863 63 24 60.3137 24 57V25C24 21.6863 26.6863 19 30 19H62ZM30 41C28.8954 41 28 41.8954 28 43V57C28 58.1046 28.8954 59 30 59H44C45.1046 59 46 58.1046 46 57V43C46 41.8954 45.1046 41 44 41H30ZM50.8281 25.4238C50.0001 25.4241 49.3283 26.0948 49.3281 26.9229C49.3282 27.7511 50 28.4226 50.8281 28.4229L56.54 28.4238L47.7764 37.1875C47.1907 37.7733 47.1907 38.7228 47.7764 39.3086C48.3622 39.8942 49.3117 39.8943 49.8975 39.3086L58.6602 30.5459V36.2549C58.6603 37.0831 59.3319 37.7547 60.1602 37.7549C60.9885 37.7549 61.66 37.0832 61.6602 36.2549V26.9229C61.66 26.0946 60.9885 25.4238 60.1602 25.4238H50.8281Z" fill="#3D3D3D"/>
<!-- <path d="M127.405 37.9609H131.87V41.2305H127.405V56.6289H123.467V24.8477H127.405V37.9609ZM101.881 47.8047C105.35 47.8047 108.057 47.7812 110.002 47.7344V44.7637C108.854 44.5645 107.846 44.2012 106.979 43.6738C106.124 43.1465 105.461 42.4844 104.993 41.6875C104.524 40.8789 104.295 39.9883 104.307 39.0156C104.295 37.832 104.612 36.7891 105.256 35.8867C105.901 34.9844 106.809 34.2871 107.981 33.7949C109.153 33.291 110.495 33.0391 112.006 33.0391C113.495 33.0391 114.819 33.291 115.979 33.7949C117.151 34.2871 118.065 34.9844 118.721 35.8867C119.389 36.7891 119.729 37.832 119.741 39.0156C119.729 40 119.483 40.8906 119.002 41.6875C118.522 42.4844 117.842 43.1523 116.963 43.6914C116.096 44.2188 115.088 44.5762 113.94 44.7637V47.5938C116.975 47.4297 119.588 47.1953 121.78 46.8906L122.026 49.7383C119.002 50.2773 115.909 50.6289 112.745 50.793C109.581 50.957 106.147 51.0391 102.444 51.0391L101.881 47.8047ZM121.428 31.5977H102.479V28.5039H110.002V24.9883H113.94V28.5039H121.428V31.5977ZM112.006 36.0273C110.776 36.0508 109.797 36.3262 109.071 36.8535C108.356 37.3691 107.999 38.0898 107.999 39.0156C107.999 39.9297 108.362 40.6445 109.088 41.1602C109.815 41.6758 110.788 41.9219 112.006 41.8984C113.213 41.9219 114.174 41.6758 114.889 41.1602C115.616 40.6328 115.979 39.918 115.979 39.0156C115.979 38.1016 115.616 37.3809 114.889 36.8535C114.174 36.3262 113.213 36.0508 112.006 36.0273ZM148.974 30.0508H155.372V24.8828H159.275V48.0156H155.372V40H148.974V42.7422H134.033V27.5195H148.974V30.0508ZM137.935 39.6836H145.107V30.6133H137.935V39.6836ZM159.978 55.9961H138.322V45.8711H142.294V52.832H159.978V55.9961ZM155.372 36.8711V33.25H148.974V36.8711H155.372ZM188.227 34.1289H192.516V37.3633H188.227V46.3633H184.324V24.8828H188.227V34.1289ZM162.773 42.5664C165.727 42.5664 168.398 42.5371 170.789 42.4785V40.5273C169.008 40.3047 167.602 39.7891 166.57 38.9805C165.539 38.1602 165.023 37.1289 165.023 35.8867C165.023 34.9258 165.34 34.0879 165.973 33.373C166.605 32.6582 167.502 32.1133 168.662 31.7383C169.822 31.3516 171.164 31.1641 172.688 31.1758C174.223 31.1641 175.564 31.3516 176.713 31.7383C177.873 32.1133 178.77 32.6582 179.402 33.373C180.035 34.0879 180.352 34.9258 180.352 35.8867C180.352 37.1172 179.848 38.1367 178.84 38.9453C177.832 39.7539 176.449 40.2754 174.691 40.5098V42.3203C177.633 42.1914 180.293 41.9688 182.672 41.6523L182.988 44.3594C179.977 44.8867 176.871 45.2324 173.672 45.3965C170.484 45.5488 166.992 45.625 163.195 45.625L162.773 42.5664ZM188.227 56.6289H184.324V50.793H166.781V47.7344H188.227V56.6289ZM181.828 30.2617H163.582V27.3789H170.789V24.6016H174.691V27.3789H181.828V30.2617ZM172.688 33.8125C171.445 33.7891 170.479 33.959 169.787 34.3223C169.107 34.6855 168.773 35.207 168.785 35.8867C168.762 36.543 169.102 37.0645 169.805 37.4512C170.508 37.8262 171.469 38.0078 172.688 37.9961C173.906 38.0078 174.867 37.8262 175.57 37.4512C176.273 37.0645 176.625 36.543 176.625 35.8867C176.625 35.207 176.279 34.6855 175.588 34.3223C174.896 33.959 173.93 33.7891 172.688 33.8125ZM220.8 56.6289H217.073V40.4219H213.487V55.0117H209.901V25.4453H213.487V37.293H217.073V24.8477H220.8V56.6289ZM206.315 31.7734H198.37V45.9062C200.221 45.8828 201.891 45.8125 203.38 45.6953C204.868 45.5781 206.374 45.3789 207.897 45.0977L208.178 48.2969C206.421 48.6484 204.686 48.8828 202.975 49C201.264 49.1172 199.132 49.1875 196.577 49.2109H194.432V28.6094H206.315V31.7734Z" fill="#3D3D3D"/> -->
</g>
<defs>
<filter id="filter0_di_3000_469" x="0" y="0" width="264" height="84" filterUnits="userSpaceOnUse" color-interpolation-filters="sRGB">
<feFlood flood-opacity="0" result="BackgroundImageFix"/>
<feColorMatrix in="SourceAlpha" type="matrix" values="0 0 0 0 0 0 0 0 0 0 0 0 0 0 0 0 0 0 127 0" result="hardAlpha"/>
<feOffset dy="1"/>
<feGaussianBlur stdDeviation="1"/>
<feComposite in2="hardAlpha" operator="out"/>
<feColorMatrix type="matrix" values="0 0 0 0 0 0 0 0 0 0 0 0 0 0 0 0 0 0 0.2 0"/>
<feBlend mode="normal" in2="BackgroundImageFix" result="effect1_dropShadow_3000_469"/>
<feBlend mode="normal" in="SourceGraphic" in2="effect1_dropShadow_3000_469" result="shape"/>
<feColorMatrix in="SourceAlpha" type="matrix" values="0 0 0 0 0 0 0 0 0 0 0 0 0 0 0 0 0 0 127 0" result="hardAlpha"/>
<feOffset dy="-4"/>
<feComposite in2="hardAlpha" operator="arithmetic" k2="-1" k3="1"/>
<feColorMatrix type="matrix" values="0 0 0 0 0 0 0 0 0 0 0 0 0 0 0 0 0 0 0.25 0"/>
<feBlend mode="normal" in2="shape" result="effect2_innerShadow_3000_469"/>
</filter>
</defs>
</svg>
