<svg width="150" height="80" viewBox="0 0 150 80" fill="none" xmlns="http://www.w3.org/2000/svg">
<rect x="0.5" y="0.5" width="149" height="79" rx="9.5" fill="black"/>
<rect x="0.5" y="0.5" width="149" height="79" rx="9.5" stroke="white"/>
<!-- <path d="M59.6016 53.3516C54.5039 53.3516 50.7773 50.3281 50.6367 46.1094H55.1016C55.2422 48.1836 57.1758 49.6602 59.6016 49.6602C62.4492 49.6602 64.4883 47.5859 64.4883 44.7734C64.4883 41.8555 62.3789 39.7812 59.4609 39.7812C57.4922 39.7461 56.0508 40.4492 55.2422 41.9609H50.9883L52.5352 27.5469H67.582V31.3789H56.2969L55.5234 38.1289H55.7695C56.7539 37.0039 58.6172 36.1953 60.6914 36.1953C65.4375 36.1953 68.918 39.7461 68.918 44.6328C68.918 49.7305 65.0859 53.3516 59.6016 53.3516ZM101.016 40.168V43.332H72.0469V40.168H101.016ZM88.4297 24.418V27.3008H98.168V30.3945H88.7461C89.2207 32.9961 92.9648 35.1758 99.5742 35.6328L98.3789 38.6211C92.6836 38.1816 88.4824 36.4062 86.4961 33.6641C84.5098 36.4062 80.2734 38.1816 74.6133 38.6211L73.418 35.6328C79.9922 35.1758 83.7363 32.9961 84.2461 30.3945H74.8945V27.3008H84.5625V24.418H88.4297ZM86.4961 45.3711C93.4219 45.3711 97.4648 47.2695 97.5 50.75C97.4648 54.1953 93.4219 56.0938 86.4961 56.0938C79.5352 56.0938 75.4219 54.1953 75.4219 50.75C75.4219 47.2695 79.5352 45.3711 86.4961 45.3711ZM86.4961 48.2891C81.8203 48.2891 79.3594 49.0977 79.3945 50.75C79.3594 52.3672 81.8203 53.1758 86.4961 53.1758C91.0664 53.1758 93.5625 52.3672 93.5977 50.75C93.5625 49.0977 91.0664 48.2891 86.4961 48.2891Z" fill="white"/> -->
</svg>
