<svg width="156" height="86" viewBox="0 0 156 86" fill="none" xmlns="http://www.w3.org/2000/svg">
<g filter="url(#filter0_d_2472_146891)">
<rect x="3" y="1" width="150" height="80" rx="10" fill="#1B2750" shape-rendering="crispEdges"/>
<!-- <path d="M74.5547 25.3828V48.5859H70.6523V36.9492H65.0273V33.7852H70.6523V25.3828H74.5547ZM75.3633 53.332V56.4961H53.707V46.5469H57.6094V53.332H75.3633ZM59.6133 31.7109C59.6133 35.543 62.1797 39.4805 67.1016 41.0977L65.1328 44.2266C61.582 43.0137 59.0684 40.6055 57.6797 37.582C56.2734 40.9395 53.6191 43.5938 49.875 44.8945L47.8711 41.7305C52.9336 40.0781 55.6406 35.8945 55.6406 31.6758V30.832H49.0312V27.668H66.1875V30.832H59.6133V31.7109ZM88.7578 35.0508C88.7578 39.9727 90.7969 44.9297 95.2266 47.3203L93.0469 50.2031C90.0938 48.6387 88.0898 45.8438 86.9648 42.5039C85.8398 46.1074 83.8359 49.1836 80.8477 50.9414L78.5625 47.9883C83.0625 45.3867 85.0664 40.0781 85.0664 35.0508V34.0664H79.6523V30.9023H85.0664V26.4727H88.7578V30.9023H94.0664V34.0664H88.7578V35.0508ZM106.406 25.3477V57.1289H102.68V25.3477H106.406ZM99.9375 25.9453V55.582H96.2461V40.7812H92.0977V37.5469H96.2461V25.9453H99.9375Z" fill="white"/> -->
<path d="M124.707 8.70711C124.077 8.07714 124.523 7 125.414 7H143C145.209 7 147 8.79086 147 11V28.5858C147 29.4767 145.923 29.9229 145.293 29.2929L135 19L124.707 8.70711Z" fill="white"/>
</g>
<defs>
<filter id="filter0_d_2472_146891" x="0" y="0" width="156" height="86" filterUnits="userSpaceOnUse" color-interpolation-filters="sRGB">
<feFlood flood-opacity="0" result="BackgroundImageFix"/>
<feColorMatrix in="SourceAlpha" type="matrix" values="0 0 0 0 0 0 0 0 0 0 0 0 0 0 0 0 0 0 127 0" result="hardAlpha"/>
<feOffset dy="2"/>
<feGaussianBlur stdDeviation="1.5"/>
<feComposite in2="hardAlpha" operator="out"/>
<feColorMatrix type="matrix" values="0 0 0 0 0 0 0 0 0 0 0 0 0 0 0 0 0 0 0.4 0"/>
<feBlend mode="normal" in2="BackgroundImageFix" result="effect1_dropShadow_2472_146891"/>
<feBlend mode="normal" in="SourceGraphic" in2="effect1_dropShadow_2472_146891" result="shape"/>
</filter>
</defs>
</svg>
