<svg width="150" height="80" viewBox="0 0 150 80" fill="none" xmlns="http://www.w3.org/2000/svg">
<g filter="url(#filter0_d_2472_146893)">
<rect x="0" y="0" width="148" height="78" rx="10" fill="#fff" shape-rendering="crispEdges"/>
<rect x="0" y="0" width="148" height="78" rx="9.5" stroke="#3D3D3D" shape-rendering="crispEdges"/>
<!-- <path d="M62.6016 56.3516C57.5039 56.3516 53.7773 53.3281 53.6367 49.1094H58.1016C58.2422 51.1836 60.1758 52.6602 62.6016 52.6602C65.4492 52.6602 67.4883 50.5859 67.4883 47.7734C67.4883 44.8555 65.3789 42.7812 62.4609 42.7812C60.4922 42.7461 59.0508 43.4492 58.2422 44.9609H53.9883L55.5352 30.5469H70.582V34.3789H59.2969L58.5234 41.1289H58.7695C59.7539 40.0039 61.6172 39.1953 63.6914 39.1953C68.4375 39.1953 71.918 42.7461 71.918 47.6328C71.918 52.7305 68.0859 56.3516 62.6016 56.3516ZM104.016 43.168V46.332H75.0469V43.168H104.016ZM91.4297 27.418V30.3008H101.168V33.3945H91.7461C92.2207 35.9961 95.9648 38.1758 102.574 38.6328L101.379 41.6211C95.6836 41.1816 91.4824 39.4062 89.4961 36.6641C87.5098 39.4062 83.2734 41.1816 77.6133 41.6211L76.418 38.6328C82.9922 38.1758 86.7363 35.9961 87.2461 33.3945H77.8945V30.3008H87.5625V27.418H91.4297ZM89.4961 48.3711C96.4219 48.3711 100.465 50.2695 100.5 53.75C100.465 57.1953 96.4219 59.0938 89.4961 59.0938C82.5352 59.0938 78.4219 57.1953 78.4219 53.75C78.4219 50.2695 82.5352 48.3711 89.4961 48.3711ZM89.4961 51.2891C84.8203 51.2891 82.3594 52.0977 82.3945 53.75C82.3594 55.3672 84.8203 56.1758 89.4961 56.1758C94.0664 56.1758 96.5625 55.3672 96.5977 53.75C96.5625 52.0977 94.0664 51.2891 89.4961 51.2891Z" fill="#3D3D3D"/> -->
</g>
</svg>
