<svg width="34" height="34" viewBox="0 0 34 34" fill="none" xmlns="http://www.w3.org/2000/svg">
<path d="M11.3359 33.4141C12.1169 34.195 13.383 34.195 14.1641 33.4141L29.1641 18.4141C29.2128 18.3653 29.2591 18.315 29.3018 18.2627C29.3445 18.2103 29.3842 18.1561 29.4209 18.1006C29.4576 18.045 29.4909 17.9879 29.5215 17.9297C29.6129 17.7556 29.6773 17.5709 29.7139 17.3818C29.7261 17.3188 29.7351 17.2552 29.7412 17.1914C29.7534 17.0641 29.7534 16.9359 29.7412 16.8086C29.729 16.6811 29.7046 16.5544 29.668 16.4307C29.5947 16.1831 29.4727 15.9469 29.3018 15.7373C29.2591 15.685 29.2128 15.6347 29.1641 15.5859L14.1641 0.585938C13.383 -0.19492 12.1169 -0.195045 11.3359 0.585938C10.5551 1.36693 10.5551 2.63304 11.3359 3.41406L24.9219 17L11.3359 30.5859C10.555 31.367 10.5549 32.6331 11.3359 33.4141Z" fill="#4F4F4F"/>
</svg>
