<svg width="100" height="100" viewBox="0 0 100 100" fill="none" xmlns="http://www.w3.org/2000/svg">
<rect x="27.332" y="7.33301" width="45.3333" height="85.3333" rx="6" fill="white" stroke="black" stroke-width="4"/>
<path d="M41.332 8H58.6654C58.6654 10.5773 56.576 12.6667 53.9987 12.6667H45.9987C43.4214 12.6667 41.332 10.5773 41.332 8Z" fill="black"/>
<path d="M50 36C57.732 36 64 42.268 64 50C64 57.732 57.732 64 50 64C42.268 64 36 57.732 36 50C36 42.268 42.268 36 50 36ZM50 42.1338C49.7878 42.1338 49.5846 42.2181 49.4346 42.3682C49.2846 42.5182 49.2002 42.7214 49.2002 42.9336V43.7334C49.2002 43.7642 49.2016 43.7949 49.2051 43.8252C48.5101 43.9562 47.8737 44.2264 47.3574 44.6133C46.6136 45.1716 46.0773 46.0041 46.0771 46.9902C46.0771 47.9766 46.6135 48.8088 47.3574 49.3672C47.9999 49.8494 48.8269 50.1531 49.7236 50.2275C49.7779 50.2391 49.8334 50.2461 49.8896 50.2461C50.6368 50.2461 51.2838 50.4755 51.7246 50.8066C52.1661 51.137 52.3643 51.5347 52.3643 51.9043C52.3641 52.2738 52.1662 52.6697 51.7256 53C51.284 53.3312 50.6376 53.5595 49.8896 53.5596C48.6795 53.5596 47.8062 52.9791 47.5244 52.3809C47.4339 52.1889 47.27 52.0405 47.0703 51.9688C46.8707 51.8972 46.6508 51.9076 46.459 51.998C46.2672 52.0885 46.1196 52.2517 46.0479 52.4512C45.9761 52.6509 45.9867 52.8716 46.0771 53.0635C46.6068 54.1881 47.8266 54.9248 49.2002 55.1113V55.7334C49.2002 55.9456 49.2845 56.1488 49.4346 56.2988C49.5846 56.4489 49.7878 56.5332 50 56.5332C50.2121 56.5332 50.4154 56.4488 50.5654 56.2988C50.7154 56.1488 50.7998 55.9455 50.7998 55.7334V55.0752C51.5094 54.947 52.1589 54.6747 52.6846 54.2803C53.4293 53.7227 53.9648 52.8896 53.9648 51.9033C53.9648 50.9169 53.4295 50.0848 52.6855 49.5264C52.0428 49.044 51.2155 48.7393 50.3184 48.665C50.2645 48.6537 50.2092 48.6475 50.1533 48.6475C49.4054 48.6474 48.759 48.4181 48.3174 48.0869C47.8768 47.7558 47.6777 47.3588 47.6777 46.9893C47.6779 46.6198 47.8768 46.2238 48.3174 45.8936C48.759 45.5624 49.4063 45.334 50.1543 45.334C51.3645 45.334 52.2384 45.9142 52.5186 46.5117C52.5634 46.6068 52.6263 46.693 52.7041 46.7637C52.7818 46.8342 52.8729 46.8883 52.9717 46.9238C53.0705 46.9594 53.1753 46.9757 53.2803 46.9707C53.3852 46.9657 53.488 46.9393 53.583 46.8945C53.6781 46.8497 53.7643 46.7868 53.835 46.709C53.9055 46.6313 53.9596 46.5402 53.9951 46.4414C54.0306 46.3425 54.047 46.2378 54.042 46.1328C54.037 46.0279 54.0106 45.9251 53.9658 45.8301C53.4297 44.6933 52.1892 43.9516 50.7969 43.7754C50.7976 43.7614 50.7998 43.7475 50.7998 43.7334V42.9336C50.7998 42.7215 50.7154 42.5182 50.5654 42.3682C50.4154 42.2182 50.2121 42.1338 50 42.1338Z" fill="black"/>
</svg>
