<svg width="32" height="32" viewBox="0 0 32 32" fill="none" xmlns="http://www.w3.org/2000/svg">
<path d="M26.999 6C28.1036 6 28.999 6.89543 28.999 8V24C28.999 25.1046 28.1036 26 26.999 26H11.9609C11.3534 26 10.778 25.7235 10.3984 25.249L3.99902 17.249C3.41485 16.5187 3.41485 15.4813 3.99902 14.751L10.3984 6.75098C10.778 6.27655 11.3534 6 11.9609 6H26.999ZM22.6357 12.3633C22.2843 12.0119 21.7137 12.0118 21.3623 12.3633L18.999 14.7266L16.6357 12.3633C16.2843 12.0119 15.7137 12.0118 15.3623 12.3633C15.0111 12.7147 15.011 13.2853 15.3623 13.6367L17.7256 16L15.3623 18.3633C15.0111 18.7147 15.011 19.2853 15.3623 19.6367C15.7137 19.9881 16.2843 19.988 16.6357 19.6367L18.999 17.2734L21.3623 19.6367C21.7137 19.9881 22.2843 19.988 22.6357 19.6367C22.9872 19.2852 22.9872 18.7148 22.6357 18.3633L20.2725 16L22.6357 13.6367C22.9872 13.2852 22.9872 12.7148 22.6357 12.3633Z" fill="black"/>
</svg>
