<svg width="32" height="32" viewBox="0 0 32 32" fill="none" xmlns="http://www.w3.org/2000/svg">
<path d="M15.6426 5.36572C15.8387 5.16539 16.1614 5.16524 16.3574 5.36572L24.6963 13.9009C25.0052 14.2174 24.7812 14.7502 24.3389 14.7505H20V20.9995C20 21.5518 19.5523 21.9995 19 21.9995H13C12.4479 21.9993 12 21.5517 12 20.9995V14.7505H7.66113C7.21848 14.7505 6.99438 14.2175 7.30371 13.9009L15.6426 5.36572Z" fill="#3D3D3D"/>
<path d="M15.6426 5.36572L14.928 4.66614L14.9273 4.66689L15.6426 5.36572ZM16.3574 5.36572L17.0727 4.66689L17.0724 4.66656L16.3574 5.36572ZM24.6963 13.9009L25.412 13.2024L25.4116 13.202L24.6963 13.9009ZM24.3389 14.7505V15.7505H24.3395L24.3389 14.7505ZM20 14.7505V13.7505H19V14.7505H20ZM13 21.9995L12.9997 22.9995H13V21.9995ZM12 14.7505H13V13.7505H12V14.7505ZM7.30371 13.9009L6.58843 13.202L6.58841 13.2021L7.30371 13.9009ZM15.6426 5.36572L16.3571 6.06531C16.1615 6.2651 15.8391 6.26594 15.6425 6.06489L16.3574 5.36572L17.0724 4.66656C16.4837 4.06454 15.5159 4.06567 14.928 4.66614L15.6426 5.36572ZM16.3574 5.36572L15.6421 6.06456L23.981 14.5997L24.6963 13.9009L25.4116 13.202L17.0727 4.66689L16.3574 5.36572ZM24.6963 13.9009L23.9806 14.5993C23.6723 14.2834 23.8948 13.7508 24.3382 13.7505L24.3389 14.7505L24.3395 15.7505C25.6676 15.7496 26.3381 14.1515 25.412 13.2024L24.6963 13.9009ZM24.3389 14.7505V13.7505H20V14.7505V15.7505H24.3389V14.7505ZM20 14.7505H19V20.9995H20H21V14.7505H20ZM20 20.9995H19V21.9995V22.9995C20.1046 22.9995 21 22.1041 21 20.9995H20ZM19 21.9995V20.9995H13V21.9995V22.9995H19V21.9995ZM13 21.9995L13.0003 20.9995H13H12H11C11 22.1043 11.8958 22.9992 12.9997 22.9995L13 21.9995ZM12 20.9995H13V14.7505H12H11V20.9995H12ZM12 14.7505V13.7505H7.66113V14.7505V15.7505H12V14.7505ZM7.66113 14.7505V13.7505C8.10511 13.7505 8.32742 14.284 8.01901 14.5997L7.30371 13.9009L6.58841 13.2021C5.66135 14.151 6.33185 15.7505 7.66113 15.7505V14.7505ZM7.30371 13.9009L8.01899 14.5997L16.3579 6.06456L15.6426 5.36572L14.9273 4.66689L6.58843 13.202L7.30371 13.9009Z" fill="#3D3D3D"/>
<rect x="7" y="26" width="18" height="1" rx="0.5" fill="#3D3D3D" stroke="#3D3D3D"/>
</svg>
