<svg width="100" height="50" viewBox="0 0 100 50" fill="none" xmlns="http://www.w3.org/2000/svg">
<rect x="1" y="1" width="98" height="48" fill="#E7E7E7"/>
<rect x="1" y="1" width="98" height="48" stroke="#B0B0B0" stroke-width="2"/>
<path d="M29.7484 15.6172V34H27.0316V15.6172H29.7484ZM38.2391 34.2793C34.3289 34.2793 31.7898 31.4355 31.7898 27.1699C31.7898 22.8789 34.3289 20.0352 38.2391 20.0352C42.1238 20.0352 44.6629 22.8789 44.6629 27.1699C44.6629 31.4355 42.1238 34.2793 38.2391 34.2793ZM38.2391 32.0195C40.7273 32.0195 41.9207 29.8105 41.9207 27.1699C41.9207 24.5293 40.7273 22.2695 38.2391 22.2695C35.7 22.2695 34.5066 24.5293 34.5066 27.1699C34.5066 29.8105 35.7 32.0195 38.2391 32.0195ZM52.468 39.459C48.9895 39.459 46.7043 37.9102 46.4504 35.3457H49.218C49.4719 36.6406 50.6906 37.2754 52.4934 37.2754C54.6516 37.2754 56.0227 36.3613 56.0227 34.2031V31.4863H55.8449C55.3625 32.375 54.3723 33.7969 51.8332 33.7969C48.5832 33.7969 46.0695 31.3594 46.0695 26.9668C46.0695 22.5742 48.5324 20.0352 51.8586 20.0352C54.423 20.0352 55.3625 21.584 55.8703 22.4473H56.048V20.2129H58.6887V34.3047C58.6887 37.834 56.0227 39.459 52.468 39.459ZM52.4426 31.5625C54.7531 31.5625 56.048 29.8613 56.048 27.0176C56.048 24.2246 54.7785 22.3457 52.4426 22.3457C50.0305 22.3457 48.8371 24.377 48.8371 27.0176C48.8371 29.709 50.0813 31.5625 52.4426 31.5625ZM67.1793 34.2793C63.2691 34.2793 60.7301 31.4355 60.7301 27.1699C60.7301 22.8789 63.2691 20.0352 67.1793 20.0352C71.0641 20.0352 73.6031 22.8789 73.6031 27.1699C73.6031 31.4355 71.0641 34.2793 67.1793 34.2793ZM67.1793 32.0195C69.6676 32.0195 70.8609 29.8105 70.8609 27.1699C70.8609 24.5293 69.6676 22.2695 67.1793 22.2695C64.6402 22.2695 63.4469 24.5293 63.4469 27.1699C63.4469 29.8105 64.6402 32.0195 67.1793 32.0195Z" fill="#888888"/>
<path d="M98.5 1L1.5 49" stroke="#B0B0B0"/>
<path d="M1.5 1L98.5 49" stroke="#B0B0B0"/>
</svg>
