<svg width="60" height="34" viewBox="0 0 60 34" fill="none" xmlns="http://www.w3.org/2000/svg">
<g clip-path="url(#clip0_534_1023)">
<path d="M3.40526 17.2543C3.31347 17.3024 3.30822 17.3907 3.39477 17.4495L11.3185 22.7886L13.5895 11.8938L3.40526 17.2543Z" fill="#E72410"/>
<path d="M50.3216 11.891H48.318C48.2145 11.891 48.0532 11.9311 47.9601 11.9793L37.9174 17.2568C37.8243 17.305 37.8204 17.3932 37.907 17.4507L45.6982 22.6815C45.7848 22.739 45.9408 22.7871 46.0457 22.7871H48.0479C48.1515 22.7871 48.1659 22.739 48.0807 22.6815L40.1282 17.3437L50.3413 11.9766C50.4344 11.9284 50.4239 11.8883 50.3203 11.8883L50.3216 11.891Z" fill="#F08300"/>
<path d="M46.0301 11.8911H32.0721L29.8037 22.7899H43.7603C43.8639 22.7899 43.8783 22.7418 43.7918 22.6843L35.8537 17.3479L46.0523 11.9807C46.1454 11.9326 46.135 11.8925 46.0314 11.8925L46.0301 11.8911Z" fill="#E72410"/>
<path d="M54.6067 11.8911H52.6032C52.4983 11.8911 52.3383 11.9312 52.2452 11.9794L42.2026 17.2569C42.1108 17.3051 42.1069 17.3933 42.1921 17.4509L49.9834 22.6816C50.0699 22.7391 50.2273 22.7873 50.3308 22.7873H52.3344C52.438 22.7873 52.4524 22.7391 52.3659 22.6816L44.4133 17.3439L54.6264 11.9767C54.7195 11.9286 54.7103 11.8884 54.6054 11.8884L54.6067 11.8911Z" fill="#FABE00"/>
<path d="M45.4115 4.75989H12.5497C10.7154 4.75989 9.43167 5.93684 9.12877 7.39198C8.96225 8.19043 9.2599 8.90061 9.86306 9.38744L21.6706 17.3386L21.6798 17.3332V17.3386L45.4338 4.84816C45.5256 4.80001 45.5178 4.75989 45.4129 4.75989H45.4115Z" fill="#E72410"/>
<path d="M40.1993 29.8128L21.6809 17.3385L21.6783 17.3425L21.6704 17.3385L6.54814 25.2923C5.74305 25.7764 5.15038 26.488 4.98385 27.2877C4.67834 28.7402 5.47032 29.9185 7.30602 29.9185H40.1678C40.2727 29.9185 40.2858 29.8704 40.1993 29.8128Z" fill="#E72410"/>
</g>
<defs>
<clipPath id="clip0_534_1023">
<rect width="51.3592" height="25.16" fill="white" transform="translate(3.33301 4.75989)"/>
</clipPath>
</defs>
</svg>
