<svg width="32" height="32" viewBox="0 0 32 32" fill="none" xmlns="http://www.w3.org/2000/svg">
<g clip-path="url(#clip0_1087_3128)">
<path d="M27.536 17.7507C26.6913 23.3635 21.8485 27.6673 16 27.6673C9.55648 27.6673 4.33331 22.4442 4.33331 16.0007C4.33331 9.55715 9.55648 4.33398 16 4.33398C20.7833 4.33398 24.8958 7.21332 26.696 11.334" stroke="#3D3D3D" stroke-width="3" stroke-linecap="round" stroke-linejoin="round"/>
<path d="M26 10L28.1464 7.85355C28.4614 7.53857 29 7.76165 29 8.20711V12.5C29 12.7761 28.7761 13 28.5 13H24.2071C23.7617 13 23.5386 12.4614 23.8536 12.1464L26 10Z" fill="#3D3D3D"/>
</g>
<path d="M12.5156 10.125C12.8335 9.94903 13.2222 9.95976 13.5303 10.1523L21.5303 15.1523C21.8224 15.3351 22 15.6554 22 16C21.9999 16.3446 21.8224 16.6649 21.5303 16.8477L13.5303 21.8477C13.2222 22.0402 12.8335 22.051 12.5156 21.875C12.1978 21.6987 12 21.3635 12 21V11L12.0088 10.8652C12.0509 10.5553 12.2376 10.2792 12.5156 10.125Z" fill="#3D3D3D"/>
<defs>
<clipPath id="clip0_1087_3128">
<rect width="28" height="28" fill="white" transform="translate(2 2)"/>
</clipPath>
</defs>
</svg>
