<svg width="60" height="60" viewBox="0 0 60 60" fill="none" xmlns="http://www.w3.org/2000/svg">
<path d="M23.1631 8C31.5375 8 38.3261 14.7887 38.3262 23.1631C38.3262 26.6047 37.1781 29.7774 35.2461 32.3223L37.7002 34.7764C38.451 34.3952 39.3918 34.5169 40.0195 35.1445L51.4346 46.5605C52.2156 47.3416 52.2156 48.6076 51.4346 49.3887L49.3896 51.4346C48.6087 52.2153 47.3426 52.2151 46.5615 51.4346L35.1455 40.0186C34.5182 39.3912 34.3949 38.4508 34.7754 37.7002L32.3223 35.2471C29.7775 37.1789 26.6045 38.3262 23.1631 38.3262C14.7887 38.3261 8 31.5375 8 23.1631C8.0001 14.7888 14.7888 8.0001 23.1631 8ZM23.1631 12.1357C17.0727 12.1358 12.1358 17.0727 12.1357 23.1631C12.1357 29.2535 17.0727 34.1913 23.1631 34.1914C29.2536 34.1914 34.1914 29.2536 34.1914 23.1631C34.1913 17.0727 29.2535 12.1357 23.1631 12.1357Z" fill="white"/>
<path d="M23.2119 17C23.7642 17 24.2119 17.4477 24.2119 18V22H28.2119C28.7642 22 29.2119 22.4477 29.2119 23C29.2119 23.5523 28.7642 24 28.2119 24H24.2119V28C24.2119 28.5523 23.7642 29 23.2119 29C22.6596 29 22.2119 28.5523 22.2119 28V24H18.2119C17.6596 24 17.2119 23.5523 17.2119 23C17.2119 22.4477 17.6596 22 18.2119 22H22.2119V18C22.2119 17.4477 22.6596 17 23.2119 17Z" fill="white"/>
</svg>
