<svg width="40" height="40" viewBox="0 0 40 40" fill="none" xmlns="http://www.w3.org/2000/svg">
<path d="M32.5 20C32.5 13.0964 26.9036 7.5 20 7.5C13.0964 7.5 7.5 13.0964 7.5 20C7.5 26.9036 13.0964 32.5 20 32.5V35C11.7157 35 5 28.2843 5 20C5 11.7157 11.7157 5 20 5C28.2843 5 35 11.7157 35 20C35 28.2843 28.2843 35 20 35V32.5C26.9036 32.5 32.5 26.9036 32.5 20Z" fill="#454545"/>
<path d="M21.25 13.75C21.25 14.4404 20.6904 15 20 15C19.3096 15 18.75 14.4404 18.75 13.75C18.75 13.0596 19.3096 12.5 20 12.5C20.6904 12.5 21.25 13.0596 21.25 13.75Z" fill="#454545"/>
<path d="M18.75 18.75C18.75 18.0596 19.3096 17.5 20 17.5C20.6904 17.5 21.25 18.0596 21.25 18.75V26.25C21.25 26.9404 20.6904 27.5 20 27.5C19.3096 27.5 18.75 26.9404 18.75 26.25V18.75Z" fill="#454545"/>
</svg>
