<svg width="60" height="40" viewBox="0 0 60 40" fill="none" xmlns="http://www.w3.org/2000/svg">
<rect width="60" height="40" rx="4" fill="#F8DA29"/>
<g opacity="0.7">
<mask id="mask0_1486_33187" style="mask-type:alpha" maskUnits="userSpaceOnUse" x="0" y="0" width="60" height="40">
<rect width="60" height="40" rx="4" fill="#3D3D3D"/>
</mask>
<g mask="url(#mask0_1486_33187)">
<path d="M-23.6893 43.4139L-24.75 41.9997L20.2499 -18.0002L21.3105 -16.5859L-23.6893 43.4139Z" fill="black"/>
<path d="M-16.9393 43.4139L-18 41.9997L26.9999 -18.0002L28.0605 -16.5859L-16.9393 43.4139Z" fill="black"/>
<path d="M-10.1893 43.4139L-11.25 41.9997L33.7499 -18.0002L34.8105 -16.5859L-10.1893 43.4139Z" fill="black"/>
<path d="M-3.4393 43.4139L-4.49996 41.9997L40.4999 -18.0002L41.5605 -16.5859L-3.4393 43.4139Z" fill="black"/>
<path d="M3.3107 43.4139L2.25004 41.9997L47.2499 -18.0002L48.3105 -16.5859L3.3107 43.4139Z" fill="black"/>
<path d="M10.0607 43.4139L9.00004 41.9997L53.9999 -18.0002L55.0605 -16.5859L10.0607 43.4139Z" fill="black"/>
<path d="M16.8107 43.4139L15.75 41.9997L60.7499 -18.0002L61.8105 -16.5859L16.8107 43.4139Z" fill="black"/>
<path d="M23.5607 43.4139L22.5 41.9997L67.4999 -18.0002L68.5605 -16.5859L23.5607 43.4139Z" fill="black"/>
<path d="M30.3107 43.4139L29.25 41.9997L74.2499 -18.0002L75.3105 -16.5859L30.3107 43.4139Z" fill="black"/>
<path d="M37.0607 43.4139L36 41.9997L80.9999 -18.0002L82.0605 -16.5859L37.0607 43.4139Z" fill="black"/>
<path d="M43.8107 43.4139L42.75 41.9997L87.7499 -18.0002L88.8105 -16.5859L43.8107 43.4139Z" fill="black"/>
<path d="M50.5607 43.4139L49.5 41.9997L94.4999 -18.0002L95.5605 -16.5859L50.5607 43.4139Z" fill="black"/>
</g>
</g>
</svg>
