<svg width="40" height="40" viewBox="0 0 40 40" fill="none" xmlns="http://www.w3.org/2000/svg">
<g clip-path="url(#clip0_1453_16872)">
<mask id="mask0_1453_16872" style="mask-type:alpha" maskUnits="userSpaceOnUse" x="0" y="0" width="40" height="40">
<rect width="40" height="40" fill="#D9D9D9"/>
</mask>
<g mask="url(#mask0_1453_16872)">
<path d="M20.0013 26.666C22.0846 26.666 23.8555 25.9368 25.3138 24.4785C26.7721 23.0202 27.5013 21.2493 27.5013 19.166C27.5013 17.0827 26.7721 15.3118 25.3138 13.8535C23.8555 12.3952 22.0846 11.666 20.0013 11.666C17.918 11.666 16.1471 12.3952 14.6888 13.8535C13.2305 15.3118 12.5013 17.0827 12.5013 19.166C12.5013 21.2493 13.2305 23.0202 14.6888 24.4785C16.1471 25.9368 17.918 26.666 20.0013 26.666ZM20.0013 23.666C18.7513 23.666 17.6888 23.2285 16.8138 22.3535C15.9388 21.4785 15.5013 20.416 15.5013 19.166C15.5013 17.916 15.9388 16.8535 16.8138 15.9785C17.6888 15.1035 18.7513 14.666 20.0013 14.666C21.2513 14.666 22.3138 15.1035 23.1888 15.9785C24.0638 16.8535 24.5013 17.916 24.5013 19.166C24.5013 20.416 24.0638 21.4785 23.1888 22.3535C22.3138 23.2285 21.2513 23.666 20.0013 23.666ZM20.0013 31.666C15.9457 31.666 12.2513 30.5341 8.91797 28.2702C5.58463 26.0063 3.16797 22.9716 1.66797 19.166C3.16797 15.3605 5.58463 12.3257 8.91797 10.0618C12.2513 7.79796 15.9457 6.66602 20.0013 6.66602C24.0569 6.66602 27.7513 7.79796 31.0846 10.0618C34.418 12.3257 36.8346 15.3605 38.3346 19.166C36.8346 22.9716 34.418 26.0063 31.0846 28.2702C27.7513 30.5341 24.0569 31.666 20.0013 31.666Z" fill="#4F4F4F"/>
</g>
</g>
<defs>
<clipPath id="clip0_1453_16872">
<rect width="40" height="40" fill="white"/>
</clipPath>
</defs>
</svg>
