<svg width="60" height="40" viewBox="0 0 60 40" fill="none" xmlns="http://www.w3.org/2000/svg">
<rect x="6.10352e-05" width="60" height="40" rx="4" fill="#D93726"/>
<g opacity="0.7">
<mask id="mask0_25_5934" style="mask-type:alpha" maskUnits="userSpaceOnUse" x="0" y="0" width="60" height="41">
<rect y="0.000244141" width="60" height="40" rx="4" fill="#3D3D3D"/>
</mask>
<g mask="url(#mask0_25_5934)">
<path d="M-23.6891 43.4139L-24.7497 41.9997L20.2501 -18.0002L21.3108 -16.5859L-23.6891 43.4139Z" fill="white"/>
<path d="M-16.9391 43.4139L-17.9997 41.9997L27.0001 -18.0002L28.0608 -16.5859L-16.9391 43.4139Z" fill="white"/>
<path d="M-10.1891 43.4139L-11.2497 41.9997L33.7501 -18.0002L34.8108 -16.5859L-10.1891 43.4139Z" fill="white"/>
<path d="M-3.43906 43.4139L-4.49972 41.9997L40.5001 -18.0002L41.5608 -16.5859L-3.43906 43.4139Z" fill="white"/>
<path d="M3.31094 43.4139L2.25028 41.9997L47.2501 -18.0002L48.3108 -16.5859L3.31094 43.4139Z" fill="white"/>
<path d="M10.0609 43.4139L9.00028 41.9997L54.0001 -18.0002L55.0608 -16.5859L10.0609 43.4139Z" fill="white"/>
<path d="M16.8109 43.4139L15.7503 41.9997L60.7501 -18.0002L61.8108 -16.5859L16.8109 43.4139Z" fill="white"/>
<path d="M23.5609 43.4139L22.5003 41.9997L67.5001 -18.0002L68.5608 -16.5859L23.5609 43.4139Z" fill="white"/>
<path d="M30.3109 43.4139L29.2503 41.9997L74.2501 -18.0002L75.3108 -16.5859L30.3109 43.4139Z" fill="white"/>
<path d="M37.0609 43.4139L36.0003 41.9997L81.0001 -18.0002L82.0608 -16.5859L37.0609 43.4139Z" fill="white"/>
<path d="M43.8109 43.4139L42.7503 41.9997L87.7501 -18.0002L88.8108 -16.5859L43.8109 43.4139Z" fill="white"/>
<path d="M50.5609 43.4139L49.5003 41.9997L94.5001 -18.0002L95.5608 -16.5859L50.5609 43.4139Z" fill="white"/>
</g>
</g>
</svg>
