<svg width="90" height="50" viewBox="0 0 90 50" fill="none" xmlns="http://www.w3.org/2000/svg">
<g clip-path="url(#clip0_213_7617)">
<path d="M5.10819 25.3733C4.97051 25.4441 4.96264 25.5739 5.09245 25.6604L16.978 33.512L20.3846 17.4902L5.10819 25.3733Z" fill="#E72410"/>
<path d="M75.4833 17.4864H72.478C72.3226 17.4864 72.0807 17.5454 71.941 17.6162L56.8771 25.3773C56.7374 25.4481 56.7315 25.5779 56.8613 25.6625L68.5483 33.3547C68.6781 33.4393 68.9121 33.5101 69.0695 33.5101H72.0728C72.2282 33.5101 72.2498 33.4393 72.122 33.3547L60.1932 25.5051L75.5128 17.6122C75.6524 17.5414 75.6367 17.4824 75.4813 17.4824L75.4833 17.4864Z" fill="#F08300"/>
<path d="M69.0459 17.4863H48.109L44.7064 33.514H65.6413C65.7967 33.514 65.8183 33.4432 65.6885 33.3586L53.7813 25.511L69.0793 17.6181C69.219 17.5473 69.2032 17.4883 69.0478 17.4883L69.0459 17.4863Z" fill="#E72410"/>
<path d="M81.9109 17.4864H78.9056C78.7482 17.4864 78.5083 17.5454 78.3686 17.6162L63.3047 25.3773C63.167 25.4481 63.1611 25.5779 63.2889 25.6625L74.9759 33.3547C75.1057 33.4393 75.3417 33.5101 75.4971 33.5101H78.5024C78.6578 33.5101 78.6794 33.4393 78.5496 33.3547L66.6208 25.5051L81.9404 17.6122C82.08 17.5414 82.0663 17.4824 81.9089 17.4824L81.9109 17.4864Z" fill="#FABE00"/>
<path d="M68.1176 7H18.8249C16.0733 7 14.1477 8.73081 13.6934 10.8707C13.4436 12.0449 13.8901 13.0893 14.7948 13.8052L32.5061 25.498L32.5199 25.4902V25.498L68.151 7.12981C68.2887 7.059 68.2769 7 68.1195 7H68.1176Z" fill="#E72410"/>
<path d="M60.2994 43.8427L32.5219 25.498L32.5179 25.5039L32.5061 25.498L9.8227 37.1948C8.61506 37.9068 7.72606 38.9531 7.47627 40.1293C7.018 42.2653 8.20596 43.998 10.9595 43.998H60.2522C60.4096 43.998 60.4292 43.9272 60.2994 43.8427Z" fill="#E72410"/>
</g>
<defs>
<clipPath id="clip0_213_7617">
<rect width="77.0388" height="37" fill="white" transform="translate(5 7)"/>
</clipPath>
</defs>
</svg>
