<svg width="90" height="50" viewBox="0 0 90 50" fill="none" xmlns="http://www.w3.org/2000/svg">
<g clip-path="url(#clip0_231_9233)">
<path d="M5.10817 25.3741C4.97049 25.4449 4.96263 25.5747 5.09244 25.6613L16.978 33.5129L20.3845 17.4911L5.10817 25.3741Z" fill="white"/>
<path d="M75.4833 17.4871H72.478C72.3226 17.4871 72.0807 17.5461 71.941 17.6169L56.8771 25.3781C56.7375 25.4489 56.7315 25.5787 56.8614 25.6632L68.5483 33.3555C68.6781 33.4401 68.9121 33.5109 69.0695 33.5109H72.0728C72.2282 33.5109 72.2498 33.4401 72.122 33.3555L60.1932 25.5059L75.5128 17.613C75.6525 17.5422 75.6367 17.4832 75.4813 17.4832L75.4833 17.4871Z" fill="white"/>
<path d="M69.0459 17.4871H48.109L44.7064 33.5148H65.6413C65.7967 33.5148 65.8183 33.444 65.6885 33.3595L53.7813 25.5118L69.0793 17.6189C69.219 17.5481 69.2032 17.4891 69.0478 17.4891L69.0459 17.4871Z" fill="white"/>
<path d="M81.9109 17.4871H78.9056C78.7483 17.4871 78.5083 17.5461 78.3686 17.6169L63.3047 25.3781C63.167 25.4489 63.1611 25.5787 63.289 25.6632L74.9759 33.3555C75.1057 33.4401 75.3417 33.5109 75.4971 33.5109H78.5024C78.6578 33.5109 78.6794 33.4401 78.5496 33.3555L66.6208 25.5059L81.9404 17.613C82.0801 17.5422 82.0663 17.4832 81.9089 17.4832L81.9109 17.4871Z" fill="white"/>
<path d="M68.1175 7H18.8249C16.0733 7 14.1477 8.73081 13.6934 10.8707C13.4436 12.0449 13.8901 13.0893 14.7948 13.8052L32.5061 25.498L32.5199 25.4902V25.498L68.151 7.12981C68.2887 7.059 68.2769 7 68.1195 7H68.1175Z" fill="white"/>
<path d="M60.2994 43.8427L32.5218 25.498L32.5179 25.5039L32.5061 25.498L9.82267 37.1948C8.61503 37.9068 7.72603 38.9531 7.47624 40.1293C7.01797 42.2653 8.20593 43.998 10.9595 43.998H60.2522C60.4095 43.998 60.4292 43.9272 60.2994 43.8427Z" fill="white"/>
</g>
<defs>
<clipPath id="clip0_231_9233">
<rect width="77.0388" height="37" fill="white" transform="translate(5 7)"/>
</clipPath>
</defs>
</svg>
