<svg width="60" height="60" viewBox="0 0 60 60" fill="none" xmlns="http://www.w3.org/2000/svg">
<path d="M52 13C53.1046 13 54 13.8954 54 15V45C54 46.1046 53.1046 47 52 47H9C7.89543 47 7 46.1046 7 45V15C7 13.8954 7.89543 13 9 13H52ZM10 16V44H30V29.0039C28.4235 32.1153 25.7519 34.7937 21.5938 36.832L19.7998 34.3916C25.1661 31.7022 28.0428 28.091 28.6406 23.0361H21.0957V20.4463H30V16H10ZM34.8662 40.7412H38.1396V29.4355H41.4375V26.8213H38.1396V18.1299H34.8662V40.7412ZM30.002 28.9961C31.3466 26.4078 31.9141 23.5203 31.9258 20.4463H30.002V28.9961Z" fill="#3D3D3D"/>
</svg>
