<svg width="60" height="60" viewBox="0 0 60 60" fill="none" xmlns="http://www.w3.org/2000/svg">
<path d="M48.5 7.5C50.7091 7.5 52.5 9.29086 52.5 11.5V48.5C52.5 50.7091 50.7091 52.5 48.5 52.5H11.5C9.29086 52.5 7.5 50.7091 7.5 48.5V11.5C7.5 9.29086 9.29086 7.5 11.5 7.5H48.5ZM14 29C12.8954 29 12 29.8954 12 31V46C12 47.1046 12.8954 48 14 48H29C30.1046 48 31 47.1046 31 46V31C31 29.8954 30.1046 29 29 29H14ZM36.5 12.5C35.6718 12.5001 35.0002 13.1718 35 14C35.0001 14.8283 35.6717 15.4999 36.5 15.5H42.3789L33 24.8789C32.4142 25.4647 32.4142 26.4152 33 27.001C33.5857 27.5866 34.5353 27.5864 35.1211 27.001L44.5 17.6221V23.5C44.5001 24.3282 45.1718 24.9998 46 25C46.8284 25 47.4999 24.3284 47.5 23.5V14.001C47.5 13.1725 46.8284 12.501 46 12.501L36.5 12.5Z" fill="black"/>
</svg>
