<svg width="100" height="100" viewBox="0 0 100 100" fill="none" xmlns="http://www.w3.org/2000/svg">
<path d="M44.2713 24.5923C47.0535 19.8025 53.945 19.8026 56.7273 24.5923L82.0066 68.1108C84.8104 72.9379 81.3428 79.0005 75.7781 79.0005H25.2215C19.6567 79.0005 16.189 72.9379 18.993 68.1108L44.2713 24.5923ZM52.576 27.0239C51.6485 25.4276 49.3511 25.4278 48.4236 27.0239L23.1453 70.5434C22.2109 72.1524 23.3666 74.1733 25.2215 74.1733H75.7781C77.6329 74.1733 78.7885 72.1524 77.8543 70.5434L52.576 27.0239ZM50.4998 63.7954C52.1617 63.7955 53.5086 65.1423 53.5086 66.8042V66.9272C53.5085 68.5891 52.1616 69.9359 50.4998 69.936C48.8379 69.936 47.4901 68.5891 47.49 66.9272V66.8042C47.4901 65.1422 48.8379 63.7954 50.4998 63.7954ZM50.4998 36.7729C52.1617 36.773 53.5086 38.1208 53.5086 39.7827V57.101C53.5085 58.7629 52.1616 60.1097 50.4998 60.1098C48.8379 60.1098 47.4901 58.7629 47.49 57.101V39.7827C47.49 38.1207 48.8378 36.7729 50.4998 36.7729Z" fill="#D93726"/>
</svg>
