<svg width="32" height="32" viewBox="0 0 32 32" fill="none" xmlns="http://www.w3.org/2000/svg">
<path d="M26.999 6C28.1036 6 28.999 6.89543 28.999 8V24C28.999 25.1046 28.1036 26 26.999 26H11.96C11.3525 25.9999 10.7779 25.7234 10.3984 25.249L3.99902 17.249C3.41467 16.5186 3.41467 15.4814 3.99902 14.751L10.3984 6.75098C10.7779 6.27663 11.3525 6.0001 11.96 6H26.999ZM22.6357 12.3633C22.2843 12.0118 21.7138 12.0118 21.3623 12.3633L18.999 14.7266L16.6357 12.3633C16.2843 12.0118 15.7138 12.0118 15.3623 12.3633C15.0108 12.7148 15.0108 13.2853 15.3623 13.6367L17.7256 16L15.3623 18.3633C15.0108 18.7148 15.0108 19.2853 15.3623 19.6367C15.7138 19.9881 16.2843 19.9882 16.6357 19.6367L18.999 17.2734L21.3623 19.6367C21.7138 19.9881 22.2843 19.9882 22.6357 19.6367C22.9872 19.2853 22.9872 18.7148 22.6357 18.3633L20.2725 16L22.6357 13.6367C22.9872 13.2853 22.9872 12.7148 22.6357 12.3633Z" fill="black"/>
</svg>
