<svg width="190" height="54" viewBox="0 0 190 54" fill="none" xmlns="http://www.w3.org/2000/svg">
<path fill-rule="evenodd" clip-rule="evenodd" d="M2.30371 31.8869C23.9901 48.4831 66.3684 52.3586 92.4404 35.1584C76.9297 54.1539 33.3857 61.5105 0 44.3322C0.767771 40.1819 1.53594 36.0317 2.30371 31.8869ZM173.761 52.4523H163.569C162.956 52.4523 162.471 52.2764 162.101 51.9142C161.73 51.5519 161.543 51.0796 161.543 50.5031V45.7658H173.761V52.4523ZM164.492 50.8049H170.812V47.4182H164.492V50.8049ZM144.419 37.8156H150.932V34.758H153.881V44.7717H149.164V48.1535H155.737V49.8058H139.613V48.1535H146.22V44.7717H143.502C142.889 44.7716 142.392 44.5957 142.033 44.2336C141.652 43.8877 141.47 43.41 141.47 42.8391V34.758H144.419V37.8156ZM121.788 49.3391H119.894V37.0529H121.788V49.3391ZM114.646 38.4416H116.275V39.5832H114.646V40.0285C114.646 41.1594 114.878 42.1311 115.353 42.9435C115.828 43.7615 116.424 44.2884 117.137 44.508V41.8674H115.446V40.7258H117.137V37.0471H119.031V49.3342H117.147V44.6125L116.309 45.3098C115.74 45.2329 115.187 44.9369 114.64 44.4318C114.104 43.9213 113.773 43.4154 113.662 42.9103C113.557 43.4153 113.243 43.9151 112.69 44.4201C112.149 44.9252 111.586 45.2219 111 45.3098L110.077 44.5412C110.839 44.3436 111.459 43.827 111.939 43.009C112.42 42.1801 112.657 41.1921 112.657 40.0285V39.5832H110.906V38.4416H112.657V36.9709H114.646V38.4416ZM133.614 39.8195C133.614 40.1599 133.57 40.5223 133.477 40.923C133.383 41.3128 133.266 41.6038 133.128 41.7795H135.072V42.9055H130.322V44.8762H133.592V49.3283H131.576V46.007H124.98V44.8762H128.312V42.9055H123.655V41.7795H131.372C131.471 41.5215 131.538 41.2247 131.565 40.8898C131.599 40.555 131.609 40.2147 131.609 39.8635V38.2492H125.03V37.1242H133.614V39.8195ZM109.442 45.0842H104.681V49.3176H102.67V45.0842H97.8867V43.9592H109.442V45.0842ZM165.149 36.3439H168.884V37.9474H166.718C167.038 38.211 167.321 38.5077 167.553 38.8371C167.779 39.1554 167.944 39.5178 168.055 39.9074H170.812V34.4836H173.761V44.5959H170.812V41.5598H168.1C167.912 42.4875 167.409 43.2559 166.58 43.8928C165.763 44.5241 164.79 44.8371 163.669 44.8371C162.426 44.8371 161.36 44.4476 160.477 43.6682C159.587 42.8831 159.134 41.9495 159.134 40.8625C159.134 40.2807 159.267 39.7428 159.526 39.2433C159.792 38.7438 160.151 38.3153 160.604 37.9474H158.466V36.3439H162.2V34.1926H165.149V36.3439ZM163.669 38.3869C163.205 38.387 162.812 38.623 162.459 39.1115C162.111 39.5946 161.935 40.177 161.935 40.8576C161.935 41.5381 162.111 42.0982 162.459 42.5812C162.807 43.0698 163.216 43.3116 163.669 43.3117C164.122 43.3117 164.536 43.0643 164.879 42.5812C165.221 42.0982 165.387 41.5217 165.387 40.8576C165.387 40.1934 165.221 39.5946 164.879 39.1115C164.536 38.6284 164.133 38.3869 163.669 38.3869ZM103.665 36.8986C104.72 36.8987 105.637 37.2061 106.383 37.8264C107.128 38.4411 107.504 39.188 107.504 40.0607C107.504 40.9335 107.128 41.6695 106.383 42.2844C105.637 42.8992 104.731 43.2013 103.665 43.2014C102.599 43.2014 101.71 42.8992 100.964 42.2844C100.218 41.6695 99.8477 40.9227 99.8477 40.0607C99.8478 39.199 100.218 38.4411 100.964 37.8264C101.71 37.2062 102.61 36.8986 103.665 36.8986ZM144.413 43.1193H150.926V39.468H144.413V43.1193ZM103.665 38.0412C103.146 38.0412 102.715 38.2383 102.372 38.6281C102.03 39.0178 101.858 39.4899 101.858 40.0607C101.858 40.6316 102.03 41.0874 102.372 41.4826C102.715 41.8779 103.146 42.0764 103.665 42.0764C104.184 42.0763 104.609 41.8778 104.963 41.4826C105.311 41.0874 105.482 40.6151 105.482 40.0607C105.482 39.5064 105.311 39.0178 104.963 38.6281C104.609 38.2384 104.184 38.0413 103.665 38.0412ZM96.7158 31.0685C110.687 12.8918 152.087 5.00445 176.844 21.6437C176.919 17.961 178.716 16.1775 185.814 18.798C190.73 21.296 190.001 23.8931 186.709 26.5392C190.205 26.7149 191.156 28.6311 188.389 33.1164C185.218 36.7947 183.273 36.1029 181.003 33.841C181.058 35.7735 180.163 37.4096 178.429 38.299C178.981 37.1845 179.583 36.0697 179.379 34.9553C178.186 35.3835 177.291 35.2192 176.694 34.4562C179.71 34.3519 179.158 31.6286 179.605 28.9933C181.34 34.1649 182.737 34.9993 185.759 32.4465C189.294 27.3792 186.681 27.8787 180.893 27.714C188.725 24.5353 186.262 22.3066 183.688 21.4172C179.263 19.287 178.092 21.6041 178.147 26.8801C176.584 23.8551 175.125 22.5535 173.28 25.3205C172.104 27.0882 171.491 29.0752 177.308 28.6086C175.34 29.5534 173.554 30.5478 173.062 31.9308C172.988 31.6966 172.914 31.3907 172.903 31.0588C155.293 17.1214 120.855 14.5347 96.7207 31.0744L96.7158 31.0685ZM62.9492 32.9025H60.1533V23.383H57.8223C57.3915 23.8384 56.8837 24.201 56.293 24.4699C55.702 24.7389 55.0775 24.8761 54.4092 24.8762C53.1221 24.8762 52.0172 24.4143 51.0947 23.4865C50.1725 22.5643 49.7081 21.4228 49.708 20.1164C49.708 18.8098 50.1723 17.6841 51.0947 16.7453C52.0172 15.8065 53.1221 15.3342 54.4092 15.3342C55.0995 15.3342 55.7512 15.4765 56.3477 15.7619C56.9442 16.0474 57.4529 16.438 57.8672 16.9211H60.1484V14.6476H62.9492V32.9025ZM66.6719 32.8967H63.877V14.6476H66.6719V32.8967ZM84.0273 32.8635H74.0791C73.4439 32.8635 72.941 32.6825 72.5654 32.3146C72.1899 31.9523 72.002 31.4746 72.002 30.8928V25.6935H84.0273V32.8635ZM173.065 31.9416L173.055 31.9523C173.057 31.9451 173.06 31.938 173.062 31.9308C173.064 31.9343 173.064 31.9381 173.065 31.9416ZM74.9795 31.1945H81.0449V27.3576H74.9795V31.1945ZM18.6982 24.508C18.7365 24.5082 18.7635 24.5354 18.7637 24.5734V25.4416C18.7635 25.4743 18.7365 25.5067 18.6982 25.507H14.041V29.6359C14.0409 29.6688 14.0132 29.7014 13.9746 29.7014H12.2295C12.1909 29.7014 12.1632 29.6742 12.1631 29.6359V25.507H7.49023C7.45717 25.507 7.42399 25.4799 7.42383 25.4416V24.5734C7.42408 24.5406 7.45174 24.508 7.49023 24.508H18.6982ZM43.6709 17.6398C43.7094 17.6399 43.7373 17.6675 43.7373 17.7004V20.3303C43.7373 20.6596 43.6925 21.0222 43.5986 21.4064C43.5103 21.7905 43.3942 22.0703 43.2617 22.2404L43.207 22.3117H45.1123L45.1064 22.3176C45.145 22.3176 45.1727 22.3447 45.1729 22.383V23.2785C45.1727 23.3168 45.1395 23.3439 45.1064 23.3439H40.4727V25.3859H43.6426C43.6756 25.3859 43.7039 25.4137 43.7041 25.4465V29.6359C43.704 29.6742 43.6756 29.7014 43.6426 29.7014H41.8701C41.8316 29.7014 41.8039 29.6688 41.8037 29.6359V26.4074H35.335C35.3021 26.4072 35.2746 26.3747 35.2744 26.342V25.4416C35.2744 25.4088 35.302 25.3812 35.335 25.381H38.5664V23.339H34.0205C33.9819 23.339 33.9541 23.311 33.9541 23.2726V22.3781C33.9541 22.3397 33.9819 22.3118 34.0205 22.3117H41.5498C41.6933 22.0264 41.7595 21.7245 41.7871 21.3898L41.8311 20.3742V18.6613H35.3799C35.3468 18.6613 35.3135 18.6337 35.3135 18.6008V17.7004C35.3135 17.6674 35.3467 17.6398 35.3799 17.6398H43.6709ZM29.0273 17.6349C29.0605 17.635 29.0937 17.662 29.0938 17.7004V29.6301C29.0938 29.6685 29.0605 29.6965 29.0273 29.6965H27.3809C27.3424 29.6963 27.3154 29.6629 27.3154 29.6301V22.3068H25.7129C25.6743 22.3067 25.6465 22.2788 25.6465 22.2404V21.3732C25.6465 21.3349 25.6743 21.3079 25.7129 21.3078V21.3127H27.3154V17.7004C27.3155 17.6621 27.3479 17.6352 27.3809 17.6349H29.0273ZM31.5127 17.6291C31.5513 17.6291 31.579 17.6562 31.5791 17.6945V29.6301C31.5791 29.6685 31.5514 29.6965 31.5127 29.6965H29.8613C29.8227 29.6964 29.7949 29.6685 29.7949 29.6301V17.6945C29.7951 17.6563 29.8283 17.6292 29.8613 17.6291H31.5127ZM24.625 17.6349C24.658 17.6351 24.6797 17.6622 24.6797 17.6896V19.007H26.2373C26.2648 19.007 26.2928 19.0343 26.293 19.0617V19.9953C26.2929 20.0227 26.2649 20.05 26.2373 20.05H24.6797V20.5392C24.6798 21.6864 24.9228 22.6856 25.4033 23.509C25.6684 23.9645 26.0166 24.387 26.4639 24.6779C26.6571 24.8096 26.8781 24.92 27.1045 24.9914H27.1162C27.1436 25.0026 27.1546 25.0572 27.1162 25.09C27.0554 25.1449 26.525 25.5953 26.4697 25.6447C26.442 25.6721 26.3423 25.6834 26.3037 25.6779C25.8178 25.601 25.4149 25.3917 25.0283 25.1008C24.951 25.0404 24.8677 24.9743 24.7959 24.9084C24.1056 24.2661 23.7909 23.5249 23.7412 23.3986C23.6915 23.5194 23.376 24.2606 22.6855 24.9084C22.6083 24.9742 22.5314 25.0404 22.4541 25.1008C22.0674 25.3862 21.6583 25.6011 21.1777 25.6779C21.139 25.6833 21.0408 25.6665 21.0127 25.6447C20.9575 25.6008 20.4331 25.1455 20.3662 25.09C20.3275 25.0571 20.3386 25.0024 20.3662 24.9914C20.5981 24.92 20.8139 24.8096 21.0127 24.6779C21.4598 24.387 21.8131 23.9644 22.0781 23.509C22.5642 22.6856 22.8076 21.6865 22.8076 20.5392V20.05H21.1172C21.0896 20.05 21.0615 20.0227 21.0615 19.9953V19.0617C21.0617 19.0343 21.0842 19.007 21.1172 19.007H22.8076V17.6896C22.8076 17.6623 22.8348 17.6352 22.8623 17.6349H24.625ZM13.0967 17.4914C14.1351 17.4914 15.0303 17.7992 15.7539 18.3976C16.4829 18.996 16.8476 19.7316 16.8477 20.5715C16.8477 21.4114 16.4774 22.1417 15.7539 22.7346C15.0303 23.3275 14.1241 23.6301 13.0967 23.6301C12.0694 23.63 11.1803 23.3274 10.4512 22.7346C9.72756 22.1361 9.3623 21.4169 9.3623 20.5715C9.36235 19.7261 9.72761 18.996 10.4512 18.3976C11.1803 17.7993 12.0583 17.4914 13.0967 17.4914ZM84.1318 18.8752C84.1318 19.3911 84.0609 19.9346 83.9229 20.5109C83.7792 21.0819 83.6077 21.5052 83.4033 21.7687H86.2695V23.4592H69.3945V21.7687H80.8018C80.9509 21.3845 81.0447 20.9506 81.0889 20.4621C81.1331 19.968 81.1553 19.4678 81.1553 18.9572V16.4816H71.4277V14.8185H84.1318V18.8752ZM54.4092 17.0305C53.8625 17.0305 53.4094 17.3324 53.0449 17.925C52.6859 18.5234 52.503 19.2375 52.5029 20.1213C52.5029 21.0051 52.6804 21.7461 53.0449 22.339C53.4095 22.9375 53.8623 23.2346 54.4092 23.2346C54.9559 23.2345 55.4092 22.9319 55.7627 22.339C56.116 21.7407 56.293 20.9885 56.293 20.1213C56.2929 19.2539 56.1162 18.5179 55.7627 17.925C55.4092 17.3268 54.9559 17.0305 54.4092 17.0305ZM13.0908 18.507C12.5608 18.5071 12.1135 18.7163 11.7656 19.1115C11.4177 19.5067 11.2412 20.0116 11.2412 20.5715C11.2412 21.1314 11.4177 21.6199 11.7656 22.0207C12.1135 22.4268 12.5608 22.6299 13.0908 22.6301C13.6211 22.6301 14.0693 22.427 14.4229 22.0207C14.7762 21.62 14.958 21.1423 14.958 20.5715C14.958 20.0007 14.7762 19.5122 14.4229 19.1115C14.0693 18.7107 13.6211 18.507 13.0908 18.507ZM58.8447 18.6174C58.9331 18.8534 58.9936 19.1009 59.0322 19.3478C59.0708 19.6002 59.0879 19.858 59.0879 20.1213C59.0879 20.3958 59.0657 20.665 59.0215 20.923C58.9773 21.1756 58.9165 21.4338 58.8447 21.6808H60.1533V18.6174H58.8447ZM85.6846 14.0002H85.6787C85.6806 13.9999 85.6827 13.9985 85.6846 13.9982V14.0002ZM97.4941 0.000181389C98.0243 8.0852 94.0382 12.7617 85.6846 13.9982C87.9875 9.56348 89.4685 8.36129 92.6553 5.01288C88.9877 6.86299 86.9988 9.15803 84.4082 13.0558C83.5355 4.39814 87.0323 -0.032674 97.4941 0.000181389ZM83.8896 12.9953H83.8838L83.8828 12.9933C83.8851 12.994 83.8874 12.9947 83.8896 12.9953ZM77.5703 5.08417C79.6914 4.39242 82.6518 4.71668 84.1377 6.55585C83.8064 7.29137 83.591 8.07125 83.4971 8.87811C81.9506 6.87993 80.802 6.5828 80.2109 6.48944C82.1277 8.00467 83.0112 9.28431 83.4531 10.4592C83.4973 11.271 83.6456 12.1103 83.8828 12.9933C79.5294 11.7568 77.6642 8.62888 77.5703 5.08417Z" fill="url(#paint0_radial_487_3419)"/>
<defs>
<radialGradient id="paint0_radial_487_3419" cx="0" cy="0" r="1" gradientUnits="userSpaceOnUse" gradientTransform="translate(170.541 40.1708) scale(18.1842 18.0732)">
<stop stop-color="#FFF100"/>
<stop offset="0.5" stop-color="#F8B100"/>
<stop offset="0.72" stop-color="#F08300"/>
<stop offset="1" stop-color="#E6191D"/>
</radialGradient>
</defs>
</svg>
