<svg width="100" height="100" viewBox="0 0 100 100" fill="none" xmlns="http://www.w3.org/2000/svg">
<path d="M55 56.3068C55 59.0682 52.7614 61.3068 50 61.3068C47.2386 61.3068 45 59.0682 45 56.3068L45 27.5313C45 24.7698 47.2386 22.5312 50 22.5312C52.7614 22.5312 55 24.7698 55 27.5313L55 56.3068Z" fill="#D93726"/>
<path d="M55 72.6338C55 75.3952 52.7614 77.6338 50 77.6338C47.2386 77.6338 45 75.3952 45 72.6338L45 72.4297C45 69.6683 47.2386 67.4297 50 67.4297C52.7614 67.4297 55 69.6683 55 72.4297L55 72.6338Z" fill="#D93726"/>
<circle cx="50" cy="50" r="46" stroke="#D93726" stroke-width="8"/>
</svg>
