<svg width="30" height="30" viewBox="0 0 30 30" fill="none" xmlns="http://www.w3.org/2000/svg">
<path d="M2.16406 10.4619C2.16406 9.90963 2.61178 9.46191 3.16406 9.46191H7.70252V20.5388H3.16406C2.61178 20.5388 2.16406 20.0911 2.16406 19.5388V10.4619Z" fill="#262626"/>
<path d="M7.70215 9.46154L15.3595 4.10142C16.0222 3.63748 16.9329 4.11163 16.9329 4.92066V25.0793C16.9329 25.8884 16.0222 26.3625 15.3595 25.8986L7.70215 20.5385V9.46154Z" fill="#262626"/>
<path d="M25.5109 10.7301C25.8714 10.3696 26.4561 10.3696 26.8166 10.7301C27.1771 11.0905 27.1771 11.6752 26.8166 12.0357L24.3918 14.4596L26.7414 16.8092C27.1018 17.1696 27.1018 17.7544 26.7414 18.1148C26.381 18.4749 25.7971 18.4748 25.4367 18.1148L23.0861 15.7652L20.7375 18.1148C20.377 18.4751 19.7922 18.4752 19.4318 18.1148C19.0714 17.7544 19.0716 17.1696 19.4318 16.8092L21.7804 14.4596L19.3566 12.0357C18.9963 11.6753 18.9964 11.0906 19.3566 10.7301C19.7171 10.3696 20.3018 10.3696 20.6623 10.7301L23.0861 13.1539L25.5109 10.7301Z" fill="#262626"/>
</svg>
