<?xml version="1.0" encoding="UTF-8"?>
<svg id="Layer_1" xmlns="http://www.w3.org/2000/svg" width="60" height="60" version="1.1" viewBox="0 0 60 60">
  <!-- Generator: Adobe Illustrator 30.1.0, SVG Export Plug-In . SVG Version: 2.1.1 Build 136)  -->
  <defs>
    <style>
      .st0 {
        fill: #3d3d3d;
      }
    </style>
  </defs>
  <path class="st0" d="M23.2,8c8.4,0,15.2,6.8,15.2,15.2,0,3.4-1.1,6.6-3.1,9.2l2.5,2.5c.8-.4,1.7-.3,2.3.4l11.4,11.4c.8.8.8,2,0,2.8l-2,2c-.8.8-2,.8-2.8,0l-11.4-11.4c-.6-.6-.8-1.6-.4-2.3l-2.5-2.5c-2.5,1.9-5.7,3.1-9.2,3.1-8.4,0-15.2-6.8-15.2-15.2,0-8.4,6.8-15.2,15.2-15.2ZM23.2,12.1c-6.1,0-11,4.9-11,11,0,6.1,4.9,11,11,11,6.1,0,11-4.9,11-11,0-6.1-4.9-11-11-11Z"/>
  <path class="st0" d="M23.2,17c.6,0,1,.4,1,1v4h4c.6,0,1,.4,1,1s-.4,1-1,1h-4v4c0,.6-.4,1-1,1s-1-.4-1-1v-4h-4c-.6,0-1-.4-1-1s.4-1,1-1h4v-4c0-.6.4-1,1-1Z"/>
  <metadata>
    <sfw xmlns="http://ns.adobe.com/SaveForWeb/1.0/">
      <slices/>
      <sliceSourceBounds x="8" y="7.98" width="44.02" height="44.02" bottomLeftOrigin="true"/>
    </sfw>
  </metadata>
</svg>