<svg width="30" height="30" viewBox="0 0 30 30" fill="none" xmlns="http://www.w3.org/2000/svg">
<path d="M2.16406 10.4609C2.16406 9.90865 2.61178 9.46094 3.16406 9.46094H7.70252V20.5379H3.16406C2.61178 20.5379 2.16406 20.0901 2.16406 19.5379V10.4609Z" fill="white"/>
<path d="M7.70215 9.46154L15.3595 4.10142C16.0222 3.63748 16.9329 4.11163 16.9329 4.92066V25.0793C16.9329 25.8884 16.0222 26.3625 15.3595 25.8986L7.70215 20.5385V9.46154Z" fill="white"/>
<path d="M25.5109 10.7293C25.8714 10.3689 26.4561 10.3689 26.8166 10.7293C27.1771 11.0898 27.1771 11.6745 26.8166 12.035L24.3918 14.4588L26.7414 16.8084C27.1018 17.1689 27.1018 17.7536 26.7414 18.1141C26.381 18.4742 25.7971 18.4741 25.4367 18.1141L23.0861 15.7645L20.7375 18.1141C20.377 18.4744 19.7922 18.4745 19.4318 18.1141C19.0714 17.7537 19.0716 17.1689 19.4318 16.8084L21.7804 14.4588L19.3566 12.035C18.9963 11.6746 18.9964 11.0898 19.3566 10.7293C19.7171 10.3689 20.3018 10.3689 20.6623 10.7293L23.0861 13.1532L25.5109 10.7293Z" fill="white"/>
</svg>
