<svg width="60" height="60" viewBox="0 0 60 60" fill="none" xmlns="http://www.w3.org/2000/svg">
<mask id="path-1-inside-1_1947_1951" fill="white">
<path d="M7 15C7 13.8954 7.89543 13 9 13H30V47H9C7.89543 47 7 46.1046 7 45V15Z"/>
</mask>
<path d="M4 15C4 12.2386 6.23858 10 9 10H30V16H10L4 15ZM30 50H9C6.23858 50 4 47.7614 4 45L10 44H30V50ZM9 50C6.23858 50 4 47.7614 4 45V15C4 12.2386 6.23858 10 9 10L10 16V44L9 50ZM30 13V47V13Z" fill="#3D3D3D" mask="url(#path-1-inside-1_1947_1951)"/>
<path d="M30.002 29.001C28.4257 32.1138 25.7533 34.793 21.5938 36.832L19.7998 34.3916C25.1661 31.7022 28.0428 28.0911 28.6406 23.0361H21.0957V20.4463H30.002V29.001Z" fill="#3D3D3D"/>
<path d="M52 13C53.1046 13 54 13.8954 54 15V45C54 46.1046 53.1046 47 52 47H30V29.001C31.3463 26.4115 31.9141 23.5221 31.9258 20.4463H30V13H52ZM34.8662 18.1299V40.7412H38.1396V29.4355H41.4375V26.8213H38.1396V18.1299H34.8662Z" fill="#3D3D3D"/>
</svg>
