<svg width="40" height="40" viewBox="0 0 40 40" fill="none" xmlns="http://www.w3.org/2000/svg">
<path d="M8 18.5C8 17.9477 8.44772 17.5 9 17.5H31C31.5523 17.5 32 17.9477 32 18.5V31.5C32 32.0523 31.5523 32.5 31 32.5H9C8.44772 32.5 8 32.0523 8 31.5L8 18.5Z" fill="#4F4F4F"/>
<path d="M31.845 4C32.7215 4.0001 33.4318 4.7105 33.432 5.58691V12.7305C33.4318 13.6069 32.7215 14.3173 31.845 14.3174H24.7015C23.8252 14.3171 23.1147 13.6068 23.1146 12.7305C23.1146 11.854 23.8251 11.1428 24.7015 11.1426H28.3109C23.1754 6.09462 14.4597 6.6624 10.1302 12.8467C9.62754 13.5648 8.63741 13.7398 7.91926 13.2373C7.20169 12.7346 7.02657 11.7453 7.52863 11.0273C12.9302 3.31097 23.7285 2.50647 30.2571 8.61133V5.58691C30.2573 4.71044 30.9685 4 31.845 4Z" fill="#4F4F4F"/>
</svg>
