<svg width="32" height="32" viewBox="0 0 32 32" fill="none" xmlns="http://www.w3.org/2000/svg">
<path d="M15.6426 5.36621C15.8387 5.16587 16.1614 5.16573 16.3574 5.36621L24.6963 13.9014C25.0052 14.2179 24.7812 14.7507 24.3389 14.751H20V21C20 21.5523 19.5523 22 19 22H13C12.4479 21.9998 12 21.5522 12 21V14.751H7.66113C7.21848 14.751 6.99438 14.218 7.30371 13.9014L15.6426 5.36621Z" fill="black"/>
<path d="M15.6426 5.36621L14.928 4.66663L14.9273 4.66738L15.6426 5.36621ZM16.3574 5.36621L17.0727 4.66738L17.0724 4.66705L16.3574 5.36621ZM24.6963 13.9014L25.412 13.2029L25.4116 13.2025L24.6963 13.9014ZM24.3389 14.751V15.751H24.3395L24.3389 14.751ZM20 14.751V13.751H19V14.751H20ZM13 22L12.9997 23H13V22ZM12 14.751H13V13.751H12V14.751ZM7.30371 13.9014L6.58843 13.2025L6.58841 13.2025L7.30371 13.9014ZM15.6426 5.36621L16.3571 6.0658C16.1615 6.26559 15.8391 6.26643 15.6425 6.06538L16.3574 5.36621L17.0724 4.66705C16.4837 4.06503 15.5159 4.06616 14.928 4.66663L15.6426 5.36621ZM16.3574 5.36621L15.6421 6.06504L23.981 14.6002L24.6963 13.9014L25.4116 13.2025L17.0727 4.66738L16.3574 5.36621ZM24.6963 13.9014L23.9806 14.5998C23.6723 14.2839 23.8948 13.7513 24.3382 13.751L24.3389 14.751L24.3395 15.751C25.6676 15.7501 26.3381 14.1519 25.412 13.2029L24.6963 13.9014ZM24.3389 14.751V13.751H20V14.751V15.751H24.3389V14.751ZM20 14.751H19V21H20H21V14.751H20ZM20 21H19V22V23C20.1046 23 21 22.1046 21 21H20ZM19 22V21H13V22V23H19V22ZM13 22L13.0003 21H13H12H11C11 22.1048 11.8958 22.9997 12.9997 23L13 22ZM12 21H13V14.751H12H11V21H12ZM12 14.751V13.751H7.66113V14.751V15.751H12V14.751ZM7.66113 14.751V13.751C8.10511 13.751 8.32742 14.2845 8.01901 14.6002L7.30371 13.9014L6.58841 13.2025C5.66135 14.1515 6.33185 15.751 7.66113 15.751V14.751ZM7.30371 13.9014L8.01899 14.6002L16.3579 6.06504L15.6426 5.36621L14.9273 4.66738L6.58843 13.2025L7.30371 13.9014Z" fill="black"/>
<rect x="7" y="26" width="18" height="1" rx="0.5" fill="black" stroke="black"/>
</svg>
