<svg width="32" height="32" viewBox="0 0 32 32" fill="none" xmlns="http://www.w3.org/2000/svg">
<path d="M9.07591 7.36424L10.1345 6.76944C11.1227 6.21153 12.3696 6.52579 13.0446 7.50346L14.3886 9.44705C14.9746 10.2949 14.893 11.3585 14.2882 12.2904C13.4667 13.5557 12.8305 14.4614 12.8305 14.4614C13.1914 15.6417 13.7936 16.7342 14.5989 17.6694C15.5388 18.7826 16.446 19.3782 17.4651 19.9505C17.4651 19.9505 18.4732 19.483 19.8498 18.8773C20.7689 18.4737 21.6969 18.2655 22.4217 18.968L24.1108 20.6032C24.5201 21.0032 24.7793 21.5317 24.8449 22.1002C24.9106 22.6686 24.7786 23.2424 24.4713 23.7251L23.7922 24.7648C23.4704 25.2666 23.0167 25.67 22.4809 25.9311C21.9451 26.1921 21.3477 26.3007 20.7543 26.2448C17.9129 25.9642 14.6791 23.8712 11.5906 20.2245C8.49879 16.5693 7.254 13.3667 7.31997 10.3625C7.34713 9.09844 8.02797 7.95381 9.07591 7.36424Z" fill="#d1d1d1"/>
</svg>
