<svg width="32" height="32" viewBox="0 0 32 32" fill="none" xmlns="http://www.w3.org/2000/svg">
<path d="M16 7C20.9706 7 25 11.0294 25 16C25 20.9706 20.9706 25 16 25C11.0294 25 7 20.9706 7 16C7 11.0294 11.0294 7 16 7ZM16 9.25C15.5858 9.25 15.25 9.58579 15.25 10V16.0254C15.2505 16.039 15.2517 16.0529 15.2529 16.0664C15.2534 16.0713 15.2544 16.0762 15.2549 16.0811C15.2568 16.0989 15.2595 16.1171 15.2627 16.1348C15.264 16.1421 15.2651 16.15 15.2666 16.1572C15.2701 16.1735 15.2747 16.1901 15.2793 16.2061C15.2813 16.2132 15.2829 16.2205 15.2852 16.2275C15.3051 16.2901 15.3335 16.3497 15.3691 16.4053C15.3727 16.4108 15.3762 16.4164 15.3799 16.4219C15.3899 16.4367 15.401 16.4507 15.4121 16.4648C15.4159 16.4696 15.42 16.4749 15.4238 16.4795C15.4514 16.5126 15.4821 16.5439 15.5156 16.5723C15.5188 16.575 15.5222 16.5774 15.5254 16.5801C15.5365 16.5891 15.5478 16.598 15.5596 16.6064C15.5697 16.6138 15.5803 16.6211 15.5908 16.6279C15.5988 16.6331 15.607 16.6386 15.6152 16.6436C15.6277 16.651 15.6404 16.6583 15.6533 16.665C15.6569 16.6669 15.6604 16.6691 15.6641 16.6709L19.6641 18.6709C20.0345 18.8561 20.4856 18.7062 20.6709 18.3359C20.8561 17.9655 20.7054 17.5143 20.335 17.3291L16.75 15.5371V10C16.75 9.58579 16.4142 9.25 16 9.25Z" fill="#d1d1d1"/>
</svg>
