<svg width="50" height="50" viewBox="0 0 50 50" fill="none" xmlns="http://www.w3.org/2000/svg">
<path d="M14.9536 11.5119L16.6076 10.5825C18.1516 9.71076 20.1 10.2018 21.1547 11.7294L23.2546 14.7663C24.1703 16.091 24.0428 17.753 23.0979 19.209C21.8142 21.186 20.8201 22.6012 20.8201 22.6012C21.384 24.4454 22.3249 26.1524 23.5833 27.6138C25.0519 29.3531 26.4693 30.2837 28.0618 31.178C28.0618 31.178 29.6369 30.4475 31.7878 29.5011C33.2238 28.8704 34.6739 28.5451 35.8064 29.6427L38.4456 32.1978C39.0851 32.8227 39.4901 33.6486 39.5926 34.5368C39.6952 35.425 39.4891 36.3215 39.0089 37.0757L37.9477 38.7003C37.445 39.4842 36.7361 40.1147 35.8989 40.5226C35.0616 40.9305 34.1283 41.1 33.201 41.0127C28.7614 40.5742 23.7085 37.304 18.8828 31.606C14.0518 25.8948 12.1068 20.8908 12.2099 16.1966C12.2524 14.2216 13.3162 12.4331 14.9536 11.5119Z" fill="#3D3D3D"/>
</svg>
