<svg width="50" height="50" viewBox="0 0 50 50" fill="none" xmlns="http://www.w3.org/2000/svg">
<path d="M14.9536 11.5115L16.6076 10.5821C18.1516 9.71039 20.1 10.2014 21.1547 11.729L23.2546 14.7659C24.1703 16.0906 24.0428 17.7526 23.0979 19.2086C21.8142 21.1856 20.8201 22.6008 20.8201 22.6008C21.384 24.4451 22.3249 26.152 23.5833 27.6134C25.0519 29.3528 26.4693 30.2833 28.0618 31.1776C28.0618 31.1776 29.6369 30.4471 31.7878 29.5007C33.2238 28.87 34.6739 28.5447 35.8064 29.6424L38.4456 32.1974C39.0851 32.8223 39.4901 33.6482 39.5926 34.5364C39.6952 35.4246 39.4891 36.3211 39.0089 37.0753L37.9477 38.6999C37.445 39.4839 36.7361 40.1143 35.8989 40.5222C35.0616 40.9301 34.1283 41.0997 33.201 41.0123C28.7614 40.5739 23.7085 37.3037 18.8828 31.6057C14.0518 25.8944 12.1068 20.8904 12.2099 16.1963C12.2524 14.2212 13.3162 12.4327 14.9536 11.5115Z" fill="white"/>
</svg>
