<svg width="300" height="60" viewBox="0 0 300 60" fill="none" xmlns="http://www.w3.org/2000/svg">
<path d="M27.2804 16.6487C29.0605 16.6425 30.8222 17.0092 32.4519 17.7254C34.0816 18.4415 35.5432 19.4912 36.7424 20.8067C39.3554 23.4983 40.8169 27.102 40.8169 30.8533C40.8169 34.6045 39.3554 38.2082 36.7424 40.8998C35.5432 42.2153 34.0816 43.265 32.4519 43.9812C30.8222 44.6973 29.0605 45.064 27.2804 45.0577C24.2832 45.06 21.3872 43.9732 19.1314 41.9997V43.1797C19.1298 43.5419 18.9853 43.8888 18.7294 44.1449C18.4734 44.4011 18.1266 44.5459 17.7644 44.5477H11.9204C11.7403 44.554 11.561 44.5216 11.3945 44.4526C11.228 44.3835 11.0783 44.2796 10.9554 44.1477C10.8263 44.0226 10.7242 43.8723 10.6554 43.7062C10.5866 43.54 10.5526 43.3615 10.5554 43.1817V11.7388C10.5601 11.4033 10.4959 11.0705 10.3667 10.7608C10.2375 10.4512 10.0461 10.1714 9.80442 9.93876C9.69686 9.82937 9.58048 9.72898 9.45643 9.63871C9.31325 9.55317 9.1955 9.43097 9.11534 9.28471C9.03517 9.13845 8.99549 8.97346 9.00041 8.80674C8.99833 8.67198 9.02389 8.5382 9.07548 8.41368C9.12708 8.28916 9.20364 8.17655 9.30043 8.08275C9.50186 7.88896 9.77091 7.78135 10.0504 7.78276H17.7604C17.9401 7.77991 18.1184 7.81393 18.2844 7.88273C18.4504 7.95153 18.6005 8.05361 18.7254 8.18272C18.8572 8.30584 18.9611 8.45579 19.0301 8.62242C19.0991 8.78904 19.1316 8.96848 19.1254 9.14872V19.6907C21.3812 17.7172 24.2772 16.6305 27.2744 16.6327M25.6124 37.6647C26.5013 37.6778 27.3834 37.5083 28.2042 37.1669C29.025 36.8255 29.767 36.3193 30.3844 35.6797C31.6391 34.3855 32.3407 32.6538 32.3407 30.8512C32.3407 29.0487 31.6391 27.317 30.3844 26.0227C29.767 25.3831 29.025 24.877 28.2042 24.5356C27.3834 24.1941 26.5013 24.0247 25.6124 24.0378C24.7272 24.0262 23.8491 24.198 23.0335 24.5424C22.218 24.8868 21.4825 25.3963 20.8734 26.0387C19.6029 27.3247 18.8904 29.0595 18.8904 30.8672C18.8904 32.6749 19.6029 34.4098 20.8734 35.6957C21.4846 36.3361 22.2216 36.8431 23.0382 37.1847C23.8548 37.5263 24.7333 37.6952 25.6184 37.6808" fill="#005AAB"/>
<path d="M52.1294 17.0768C52.4916 17.0786 52.8384 17.2234 53.0944 17.4795C53.3503 17.7357 53.4949 18.0826 53.4965 18.4447V43.1788C53.4949 43.5409 53.3503 43.8878 53.0944 44.144C52.8384 44.4002 52.4916 44.5449 52.1294 44.5467H46.2595C46.0797 44.5495 45.9012 44.5154 45.735 44.4466C45.5689 44.3779 45.4187 44.2758 45.2935 44.1468C45.0466 43.8864 44.9119 43.5395 44.9185 43.1808V21.0207C44.9165 20.6906 44.8493 20.3642 44.7206 20.0602C44.5918 19.7563 44.4042 19.4808 44.1685 19.2497C44.0606 19.1403 43.9438 19.04 43.8195 18.9498C43.6794 18.8612 43.564 18.7385 43.4844 18.5931C43.4048 18.4478 43.3636 18.2845 43.3644 18.1188C43.3594 17.9801 43.383 17.8419 43.4337 17.7128C43.4844 17.5837 43.5612 17.4664 43.6592 17.3683C43.7573 17.2701 43.8745 17.1933 44.0035 17.1424C44.1326 17.0916 44.2708 17.0678 44.4094 17.0727L52.1294 17.0768ZM53.6294 10.4507C53.6317 9.71956 53.4532 8.99918 53.1099 8.35362C52.7666 7.70807 52.2691 7.15736 51.6616 6.75048C51.0541 6.34359 50.3554 6.09315 49.6278 6.02141C48.9002 5.94967 48.166 6.05887 47.4908 6.33928C46.8155 6.6197 46.22 7.06263 45.7573 7.62871C45.2945 8.19479 44.9788 8.86644 44.8382 9.58397C44.6976 10.3015 44.7366 11.0426 44.9515 11.7415C45.1665 12.4404 45.5509 13.0753 46.0704 13.5898C46.6918 14.2051 47.4813 14.6231 48.3395 14.7912C49.1977 14.9594 50.0864 14.8701 50.8941 14.5347C51.7018 14.1993 52.3923 13.6327 52.879 12.9061C53.3656 12.1795 53.6267 11.3253 53.6294 10.4507Z" fill="#005AAB"/>
<path d="M86.1463 43.1788C86.1529 43.3568 86.123 43.5343 86.0585 43.7005C85.994 43.8666 85.8963 44.0178 85.7713 44.1448C85.642 44.2756 85.4873 44.3785 85.3167 44.4473C85.1461 44.5161 84.9632 44.5492 84.7793 44.5448H78.9353C78.577 44.5311 78.237 44.3826 77.9835 44.1289C77.73 43.8752 77.5817 43.5352 77.5683 43.1768V28.8768C77.5778 28.2364 77.4594 27.6006 77.2203 27.0065C76.9811 26.4124 76.6258 25.872 76.1753 25.4168C75.7275 24.9661 75.195 24.6086 74.6084 24.3645C74.0218 24.1205 73.3927 23.9948 72.7574 23.9948C72.122 23.9948 71.493 24.1205 70.9064 24.3645C70.3198 24.6086 69.7872 24.9661 69.3393 25.4168C68.8815 25.868 68.5197 26.4071 68.2755 27.0017C68.0313 27.5963 67.9098 28.2341 67.9184 28.8768V43.1768C67.9238 43.3555 67.893 43.5335 67.8279 43.7001C67.7629 43.8667 67.6648 44.0184 67.5397 44.1461C67.4145 44.2739 67.2649 44.3751 67.0997 44.4436C66.9345 44.5121 66.7572 44.5465 66.5784 44.5448H60.7344C60.5505 44.5492 60.3676 44.5161 60.197 44.4473C60.0264 44.3785 59.8717 44.2756 59.7424 44.1448C59.6173 44.0178 59.5196 43.8666 59.4551 43.7005C59.3906 43.5344 59.3608 43.3569 59.3674 43.1788V21.0477C59.3746 20.7095 59.309 20.3737 59.1749 20.0631C59.0408 19.7525 58.8415 19.4745 58.5904 19.2478L58.2684 18.9258C58.1252 18.8405 58.0074 18.7184 57.9272 18.5723C57.8471 18.4262 57.8074 18.2614 57.8124 18.0948C57.8115 17.9638 57.8377 17.8339 57.8893 17.7135C57.941 17.593 58.0169 17.4845 58.1124 17.3948C58.2026 17.2831 58.3172 17.1936 58.4474 17.1331C58.5776 17.0726 58.7199 17.0428 58.8634 17.0458H66.5834C66.7655 17.0443 66.9459 17.0818 67.1124 17.1558C67.2788 17.2298 67.4275 17.3385 67.5484 17.4747C67.7952 17.7351 67.9299 18.082 67.9234 18.4408V19.5137C68.848 18.5916 69.9485 17.8648 71.1597 17.3764C72.3708 16.888 73.6677 16.648 74.9734 16.6708C77.8426 16.6529 80.6115 17.7252 82.7204 19.6708C83.7892 20.5401 84.6516 21.636 85.2451 22.8792C85.8386 24.1225 86.1485 25.4821 86.1524 26.8598L86.1463 43.1788Z" fill="#005AAB"/>
<path d="M121.208 18.1278C121.212 18.2979 121.172 18.4662 121.092 18.6165C121.012 18.7668 120.895 18.8943 120.752 18.9868C120.625 19.0599 120.508 19.1501 120.404 19.2548C120.163 19.4875 119.971 19.7673 119.842 20.077C119.713 20.3866 119.649 20.7193 119.653 21.0548V41.7648C119.681 43.7193 119.268 45.655 118.447 47.4288C117.626 49.2025 116.416 50.7691 114.908 52.0128C111.97 54.594 108.177 55.9902 104.266 55.9298C102.231 55.9344 100.203 55.6729 98.2354 55.1518C96.386 54.7413 94.665 53.8848 93.2224 52.6568C92.9809 52.3399 92.8664 51.9443 92.9011 51.5474C92.9359 51.1505 93.1175 50.7809 93.4104 50.5108L96.4104 47.8008C96.6284 47.5167 96.9474 47.3275 97.3013 47.2726C97.6551 47.2176 98.0165 47.3011 98.3104 47.5058C100.289 48.5315 102.534 48.9246 104.743 48.6318C106.326 48.5452 107.839 47.9528 109.059 46.9418C110.233 45.8616 110.952 44.3749 111.069 42.7838L111.043 42.0058C108.79 43.9845 105.892 45.072 102.893 45.0638C101.11 45.0687 99.3443 44.7015 97.7104 43.9855C96.0765 43.2696 94.6099 42.2206 93.4044 40.9058C90.7917 38.2196 89.33 34.6201 89.33 30.8728C89.33 27.1255 90.7917 23.5261 93.4044 20.8398C94.6099 19.525 96.0766 18.4761 97.7104 17.7602C99.3443 17.0442 101.11 16.677 102.893 16.6818C105.892 16.6736 108.79 17.7611 111.043 19.7398V18.4788C111.037 18.2986 111.07 18.1192 111.139 17.9526C111.208 17.786 111.312 17.636 111.443 17.5128C111.568 17.3838 111.719 17.2818 111.885 17.2131C112.05 17.1443 112.229 17.1101 112.408 17.1128H120.155C120.29 17.1106 120.424 17.1362 120.548 17.1878C120.673 17.2394 120.786 17.316 120.879 17.4128C120.982 17.5031 121.064 17.6145 121.12 17.7395C121.175 17.8645 121.203 18.0001 121.201 18.1368M104.742 37.6928C105.627 37.7073 106.506 37.5384 107.323 37.1968C108.139 36.8551 108.876 36.3482 109.487 35.7078C110.127 35.0789 110.633 34.3267 110.974 33.4967C111.315 32.6667 111.484 31.7761 111.471 30.8788C111.486 29.9857 111.317 29.0991 110.976 28.2735C110.635 27.448 110.128 26.7011 109.487 26.0788C108.88 25.4315 108.144 24.9182 107.327 24.5718C106.51 24.2253 105.63 24.0533 104.742 24.0668C103.851 24.0549 102.968 24.2275 102.146 24.5737C101.325 24.92 100.585 25.4324 99.9714 26.0788C99.3304 26.701 98.8237 27.4479 98.4825 28.2734C98.1413 29.099 97.9727 29.9857 97.9874 30.8788C97.974 31.7761 98.143 32.6668 98.4841 33.4968C98.8251 34.3269 99.3311 35.0791 99.9714 35.7078C100.589 36.3473 101.331 36.8534 102.151 37.1948C102.972 37.5362 103.854 37.7057 104.742 37.6928Z" fill="#005AAB"/>
<path d="M137.854 16.6748C139.754 16.6414 141.64 16.9926 143.4 17.7071C145.16 18.4217 146.757 19.4849 148.095 20.8328C149.436 22.1374 150.501 23.6973 151.229 25.4205C151.956 27.1437 152.331 28.9953 152.331 30.8658C152.331 32.7363 151.956 34.5879 151.229 36.3111C150.501 38.0343 149.436 39.5942 148.095 40.8988C145.359 43.5648 141.689 45.0567 137.869 45.0567C134.048 45.0567 130.379 43.5648 127.642 40.8988C126.302 39.5942 125.236 38.0343 124.509 36.3111C123.781 34.5879 123.407 32.7363 123.407 30.8658C123.407 28.9953 123.781 27.1437 124.509 25.4205C125.236 23.6973 126.302 22.1374 127.642 20.8328C128.976 19.4868 130.569 18.4245 132.324 17.7099C134.079 16.9954 135.96 16.6432 137.854 16.6748ZM137.855 37.7328C138.663 37.7349 139.46 37.5551 140.189 37.2068C140.917 36.8585 141.558 36.3506 142.063 35.7208C143.19 34.3536 143.807 32.637 143.807 30.8653C143.807 29.0935 143.19 27.377 142.063 26.0098C141.559 25.3818 140.921 24.875 140.195 24.5267C139.469 24.1785 138.674 23.9977 137.868 23.9977C137.063 23.9977 136.268 24.1785 135.542 24.5267C134.816 24.875 134.177 25.3818 133.673 26.0098C132.547 27.3772 131.931 29.0937 131.931 30.8653C131.931 32.6369 132.547 34.3534 133.673 35.7208C134.175 36.3485 134.811 36.8552 135.534 37.2035C136.258 37.5518 137.052 37.7328 137.855 37.7328Z" fill="#005AAB"/>
<path d="M210.071 26.7607C210.088 26.8403 210.097 26.9214 210.098 27.0028V43.1787C210.097 43.5408 209.952 43.8877 209.696 44.1439C209.44 44.4001 209.093 44.5449 208.731 44.5467H202.861C202.499 44.5454 202.152 44.4008 201.896 44.1445C201.64 43.8882 201.495 43.541 201.494 43.1787V27.6997C201.499 27.2073 201.402 26.7193 201.208 26.2667C201.014 25.8141 200.728 25.4068 200.368 25.0708C199.624 24.3648 198.632 23.9794 197.606 23.9978C197.102 23.9872 196.601 24.0765 196.132 24.2607C195.663 24.4449 195.235 24.7202 194.872 25.0708C194.506 25.4028 194.213 25.8087 194.014 26.2618C193.816 26.7149 193.715 27.2049 193.719 27.6997V43.1787C193.718 43.5409 193.574 43.888 193.318 44.1443C193.062 44.4005 192.715 44.5451 192.352 44.5467H187.018C186.842 44.551 186.668 44.5175 186.506 44.4485C186.344 44.3795 186.199 44.2766 186.08 44.1467C185.951 44.0215 185.849 43.8713 185.78 43.7052C185.712 43.539 185.678 43.3605 185.68 43.1808V27.7018C185.683 27.2046 185.58 26.7126 185.376 26.259C185.172 25.8054 184.874 25.4009 184.5 25.0727C183.715 24.3814 182.705 24.0001 181.659 24.0001C180.613 24.0001 179.602 24.3814 178.817 25.0727C178.444 25.4008 178.145 25.8053 177.941 26.2589C177.738 26.7125 177.634 27.2046 177.637 27.7018V43.1808C177.636 43.5431 177.492 43.8903 177.236 44.1466C176.98 44.4029 176.633 44.5474 176.27 44.5487H170.4C170.221 44.5515 170.042 44.5175 169.876 44.4487C169.71 44.3799 169.56 44.2778 169.435 44.1488C169.188 43.8886 169.053 43.5415 169.06 43.1827V21.0247C169.065 20.6893 169 20.3566 168.871 20.047C168.742 19.7374 168.551 19.4575 168.309 19.2247C168.206 19.1204 168.089 19.0304 167.961 18.9568V18.9298C167.818 18.8443 167.7 18.7221 167.62 18.5758C167.54 18.4295 167.5 18.2645 167.505 18.0977C167.503 17.9633 167.527 17.8298 167.578 17.7053C167.629 17.5808 167.704 17.4679 167.8 17.3737C168.002 17.1799 168.272 17.0722 168.551 17.0737H176.271C176.451 17.071 176.63 17.1051 176.796 17.1739C176.962 17.2427 177.112 17.3447 177.237 17.4737C177.369 17.5969 177.473 17.7468 177.542 17.9134C177.611 18.08 177.643 18.2594 177.637 18.4397V19.6207C178.428 18.667 179.426 17.9058 180.554 17.3945C181.683 16.8832 182.913 16.6354 184.151 16.6698C185.676 16.6575 187.177 17.0561 188.494 17.8237C189.766 18.5425 190.821 19.5892 191.549 20.8547C192.418 19.5898 193.576 18.5507 194.927 17.8237C196.303 17.0594 197.853 16.6621 199.427 16.6698C202.146 16.6999 204.753 17.7559 206.726 19.6263C208.7 21.4967 209.894 24.0434 210.069 26.7567" fill="#005AAB"/>
<path d="M240.578 17.0768C240.941 17.0781 241.288 17.2227 241.544 17.479C241.8 17.7353 241.944 18.0825 241.945 18.4448V33.4679C241.945 37.6012 240.605 40.6505 237.924 42.6159C235.658 44.2619 232.539 45.0845 228.569 45.0839C224.599 45.0832 221.481 44.2605 219.214 42.6159C216.534 40.6485 215.194 37.5992 215.193 33.4679V21.0209C215.191 20.6907 215.124 20.3642 214.995 20.0602C214.866 19.7562 214.678 19.4809 214.442 19.2499C214.335 19.1407 214.218 19.0403 214.094 18.9498C213.954 18.8613 213.838 18.7385 213.759 18.5929C213.679 18.4473 213.637 18.2838 213.638 18.1178C213.633 17.9791 213.657 17.8409 213.708 17.7118C213.759 17.5827 213.836 17.4654 213.934 17.3673C214.032 17.2692 214.149 17.1923 214.278 17.1415C214.407 17.0907 214.546 17.0669 214.684 17.0718H222.404C222.767 17.0734 223.113 17.2181 223.37 17.4744C223.626 17.7306 223.77 18.0776 223.771 18.4398V33.6498C223.806 34.2067 223.958 34.7502 224.216 35.2448C224.475 35.7394 224.834 36.1742 225.271 36.5209C226.183 37.3195 227.359 37.7498 228.571 37.7278C229.782 37.7435 230.956 37.3141 231.871 36.5209C232.302 36.1686 232.658 35.7325 232.916 35.239C233.173 34.7456 233.328 34.2049 233.371 33.6498V18.4398C233.372 18.0775 233.517 17.7303 233.773 17.474C234.029 17.2177 234.376 17.0731 234.738 17.0718L240.578 17.0768Z" fill="#005AAB"/>
<path d="M254.944 7.79577C255.307 7.79708 255.654 7.94163 255.91 8.19793C256.166 8.45422 256.31 8.80143 256.311 9.16375V43.1788C256.31 43.5412 256.166 43.8885 255.91 44.1449C255.654 44.4014 255.307 44.5462 254.944 44.5478H249.074C248.895 44.5506 248.716 44.5165 248.55 44.4477C248.384 44.3789 248.234 44.2768 248.109 44.1478C247.862 43.8877 247.727 43.5406 247.734 43.1818V11.7417C247.74 11.4104 247.676 11.0816 247.547 10.7765C247.417 10.4715 247.225 10.197 246.983 9.97075C246.876 9.86141 246.759 9.76108 246.635 9.67077C246.493 9.57831 246.376 9.45102 246.296 9.30089C246.216 9.15076 246.176 8.98272 246.179 8.81273C246.177 8.67832 246.201 8.54478 246.252 8.42028C246.303 8.29577 246.378 8.18293 246.474 8.08873C246.677 7.8968 246.946 7.79106 247.225 7.79375L254.944 7.79577Z" fill="#005AAB"/>
<path d="M272.341 35.5608C272.342 36.0939 272.554 36.605 272.931 36.9822C273.307 37.3593 273.818 37.5717 274.351 37.5728C274.968 37.5471 275.576 37.4201 276.151 37.1968C276.25 37.1785 276.351 37.1698 276.451 37.1708C276.631 37.168 276.809 37.2021 276.975 37.2709C277.141 37.3397 277.291 37.4418 277.416 37.5708C277.663 37.8312 277.798 38.178 277.791 38.5368V42.9088C277.802 43.1623 277.737 43.413 277.603 43.6286C277.469 43.8441 277.273 44.0142 277.041 44.1167C274.843 44.7783 272.556 45.0951 270.26 45.0558C269.375 45.0883 268.493 44.9302 267.675 44.5924C266.856 44.2546 266.119 43.745 265.514 43.0978C264.342 41.7996 263.718 40.098 263.772 38.3497V24.5078H261.681C261.502 24.5104 261.324 24.4763 261.158 24.4075C260.992 24.3387 260.842 24.2367 260.717 24.1077C260.586 23.9847 260.482 23.8349 260.413 23.6682C260.344 23.5016 260.311 23.3221 260.317 23.1418V18.4468C260.319 18.0846 260.463 17.7377 260.719 17.4815C260.975 17.2253 261.322 17.0806 261.684 17.0787H263.802V11.1498C263.792 10.7827 263.927 10.4265 264.177 10.1578C264.437 9.91037 264.784 9.77523 265.142 9.78175H270.986C271.169 9.77048 271.352 9.79815 271.523 9.86293C271.694 9.9277 271.849 10.0281 271.978 10.1575C272.108 10.2868 272.208 10.4422 272.273 10.6133C272.337 10.7844 272.365 10.9673 272.353 11.1498V17.0787H276.427C276.79 17.0803 277.137 17.225 277.393 17.4813C277.649 17.7375 277.793 18.0846 277.794 18.4468V23.1148C277.793 23.4769 277.648 23.8238 277.392 24.08C277.136 24.3361 276.79 24.4809 276.427 24.4827H272.353L272.341 35.5608Z" fill="#005AAB"/>
<path d="M289.497 17.0768C289.859 17.0786 290.206 17.2234 290.462 17.4795C290.718 17.7357 290.863 18.0826 290.864 18.4447V43.1788C290.863 43.5408 290.718 43.8876 290.462 44.1437C290.206 44.3998 289.859 44.5447 289.497 44.5468H283.627C283.448 44.5495 283.269 44.5154 283.103 44.4466C282.937 44.3778 282.787 44.2758 282.661 44.1468C282.414 43.8865 282.28 43.5395 282.286 43.1808V21.0208C282.284 20.6907 282.217 20.3643 282.088 20.0603C281.96 19.7563 281.772 19.4808 281.536 19.2497C281.428 19.1404 281.312 19.04 281.187 18.9498C281.047 18.8613 280.932 18.7386 280.852 18.5932C280.773 18.4478 280.731 18.2845 280.732 18.1188C280.727 17.9801 280.751 17.8419 280.801 17.7127C280.852 17.5835 280.929 17.4661 281.027 17.368C281.125 17.2698 281.242 17.1929 281.371 17.1421C281.5 17.0913 281.639 17.0678 281.777 17.0728L289.497 17.0768ZM290.997 10.4508C291 9.71962 290.821 8.99918 290.478 8.35362C290.134 7.70807 289.637 7.15736 289.029 6.75048C288.422 6.34359 287.723 6.09315 286.996 6.02141C286.268 5.94967 285.534 6.05887 284.859 6.33928C284.183 6.6197 283.588 7.06263 283.125 7.62871C282.662 8.19479 282.347 8.8665 282.206 9.58403C282.065 10.3016 282.104 11.0427 282.319 11.7416C282.534 12.4404 282.919 13.0753 283.438 13.5898C284.06 14.2051 284.849 14.6231 285.707 14.7912C286.566 14.9594 287.454 14.8701 288.262 14.5347C289.07 14.1993 289.76 13.6327 290.247 12.9061C290.733 12.1795 290.995 11.3253 290.997 10.4508Z" fill="#005AAB"/>
</svg>
