<svg width="300" height="60" viewBox="0 0 300 60" fill="none" xmlns="http://www.w3.org/2000/svg">
<path d="M27.2804 16.6484C29.0605 16.6421 30.8222 17.0089 32.4519 17.725C34.0816 18.4412 35.5432 19.4909 36.7424 20.8064C39.3554 23.4979 40.8169 27.1016 40.8169 30.8529C40.8169 34.6042 39.3554 38.2079 36.7424 40.8994C35.5432 42.215 34.0816 43.2647 32.4519 43.9808C30.8222 44.697 29.0605 45.0637 27.2804 45.0574C24.2832 45.0596 21.3872 43.9729 19.1314 41.9994V43.1794C19.1298 43.5415 18.9853 43.8884 18.7294 44.1446C18.4734 44.4008 18.1266 44.5455 17.7644 44.5473H11.9204C11.7403 44.5536 11.561 44.5212 11.3945 44.4522C11.228 44.3832 11.0783 44.2792 10.9554 44.1474C10.8263 44.0222 10.7242 43.8719 10.6554 43.7058C10.5866 43.5397 10.5526 43.3612 10.5554 43.1814V11.7384C10.5601 11.4029 10.4959 11.0701 10.3667 10.7605C10.2375 10.4509 10.0461 10.1711 9.80442 9.9384C9.69686 9.82901 9.58048 9.72862 9.45643 9.63835C9.31325 9.5528 9.1955 9.4306 9.11534 9.28434C9.03517 9.13808 8.99549 8.97309 9.00041 8.80638C8.99833 8.67161 9.02389 8.53783 9.07548 8.41331C9.12708 8.28879 9.20364 8.17618 9.30043 8.08238C9.50186 7.88859 9.77091 7.78098 10.0504 7.78239H17.7604C17.9401 7.77955 18.1184 7.81357 18.2844 7.88237C18.4504 7.95117 18.6005 8.05325 18.7254 8.18235C18.8572 8.30548 18.9611 8.45543 19.0301 8.62205C19.0991 8.78868 19.1316 8.96812 19.1254 9.14836V19.6904C21.3812 17.7168 24.2772 16.6301 27.2744 16.6324M25.6124 37.6643C26.5013 37.6774 27.3834 37.508 28.2042 37.1665C29.025 36.8251 29.767 36.319 30.3844 35.6794C31.6391 34.3852 32.3407 32.6534 32.3407 30.8509C32.3407 29.0483 31.6391 27.3166 30.3844 26.0224C29.767 25.3828 29.025 24.8766 28.2042 24.5352C27.3834 24.1938 26.5013 24.0244 25.6124 24.0374C24.7272 24.0259 23.8491 24.1977 23.0335 24.542C22.218 24.8864 21.4825 25.3959 20.8734 26.0384C19.6029 27.3243 18.8904 29.0591 18.8904 30.8669C18.8904 32.6746 19.6029 34.4094 20.8734 35.6954C21.4846 36.3357 22.2216 36.8427 23.0382 37.1843C23.8548 37.5259 24.7333 37.6949 25.6184 37.6804" fill="white"/>
<path d="M52.1294 17.0768C52.4916 17.0786 52.8384 17.2234 53.0944 17.4795C53.3503 17.7357 53.4949 18.0826 53.4965 18.4447V43.1788C53.4949 43.5409 53.3503 43.8878 53.0944 44.144C52.8384 44.4002 52.4916 44.5449 52.1294 44.5467H46.2595C46.0797 44.5495 45.9012 44.5154 45.735 44.4466C45.5689 44.3779 45.4187 44.2758 45.2935 44.1468C45.0466 43.8864 44.9119 43.5395 44.9185 43.1808V21.0207C44.9165 20.6906 44.8493 20.3642 44.7206 20.0602C44.5918 19.7563 44.4042 19.4808 44.1685 19.2497C44.0606 19.1403 43.9438 19.04 43.8195 18.9498C43.6794 18.8612 43.564 18.7385 43.4844 18.5931C43.4048 18.4478 43.3636 18.2845 43.3644 18.1188C43.3594 17.9801 43.383 17.8419 43.4337 17.7128C43.4844 17.5837 43.5612 17.4664 43.6592 17.3683C43.7573 17.2701 43.8745 17.1933 44.0035 17.1424C44.1326 17.0916 44.2708 17.0678 44.4094 17.0727L52.1294 17.0768ZM53.6294 10.4507C53.6317 9.71956 53.4532 8.99918 53.1099 8.35362C52.7666 7.70807 52.2691 7.15736 51.6616 6.75048C51.0541 6.34359 50.3554 6.09315 49.6278 6.02141C48.9002 5.94967 48.166 6.05887 47.4908 6.33928C46.8155 6.6197 46.22 7.06263 45.7573 7.62871C45.2945 8.19479 44.9788 8.86644 44.8382 9.58397C44.6976 10.3015 44.7366 11.0426 44.9515 11.7415C45.1665 12.4404 45.5509 13.0753 46.0704 13.5898C46.6918 14.2051 47.4813 14.6231 48.3395 14.7912C49.1977 14.9594 50.0864 14.8701 50.8941 14.5347C51.7018 14.1993 52.3923 13.6327 52.879 12.9061C53.3656 12.1795 53.6267 11.3253 53.6294 10.4507Z" fill="white"/>
<path d="M86.1463 43.1784C86.1529 43.3565 86.123 43.534 86.0585 43.7001C85.994 43.8662 85.8963 44.0174 85.7713 44.1444C85.642 44.2752 85.4873 44.3781 85.3167 44.4469C85.1461 44.5157 84.9632 44.5489 84.7793 44.5444H78.9353C78.577 44.5308 78.237 44.3822 77.9835 44.1286C77.73 43.8749 77.5817 43.5348 77.5683 43.1764V28.8764C77.5778 28.2361 77.4594 27.6002 77.2203 27.0061C76.9811 26.412 76.6258 25.8716 76.1753 25.4164C75.7275 24.9658 75.195 24.6082 74.6084 24.3642C74.0218 24.1201 73.3927 23.9945 72.7574 23.9945C72.122 23.9945 71.493 24.1201 70.9064 24.3642C70.3198 24.6082 69.7872 24.9658 69.3393 25.4164C68.8815 25.8676 68.5197 26.4067 68.2755 27.0013C68.0313 27.5959 67.9098 28.2337 67.9184 28.8764V43.1764C67.9238 43.3552 67.893 43.5332 67.8279 43.6997C67.7629 43.8663 67.6648 44.018 67.5397 44.1458C67.4145 44.2735 67.2649 44.3747 67.0997 44.4432C66.9345 44.5117 66.7572 44.5461 66.5784 44.5444H60.7344C60.5505 44.5489 60.3676 44.5157 60.197 44.4469C60.0264 44.3781 59.8717 44.2752 59.7424 44.1444C59.6173 44.0174 59.5196 43.8663 59.4551 43.7001C59.3906 43.534 59.3608 43.3565 59.3674 43.1784V21.0474C59.3746 20.7092 59.309 20.3734 59.1749 20.0628C59.0408 19.7522 58.8415 19.4741 58.5904 19.2474L58.2684 18.9254C58.1252 18.8401 58.0074 18.7181 57.9272 18.572C57.8471 18.4259 57.8074 18.261 57.8124 18.0944C57.8115 17.9634 57.8377 17.8335 57.8893 17.7131C57.941 17.5926 58.0169 17.4842 58.1124 17.3944C58.2026 17.2828 58.3172 17.1933 58.4474 17.1328C58.5776 17.0723 58.7199 17.0424 58.8634 17.0454H66.5834C66.7655 17.0439 66.9459 17.0814 67.1124 17.1554C67.2788 17.2294 67.4275 17.3381 67.5484 17.4744C67.7952 17.7347 67.9299 18.0817 67.9234 18.4404V19.5134C68.848 18.5912 69.9485 17.8644 71.1597 17.376C72.3708 16.8876 73.6677 16.6477 74.9734 16.6704C77.8426 16.6526 80.6115 17.7248 82.7204 19.6704C83.7892 20.5397 84.6516 21.6356 85.2451 22.8789C85.8386 24.1221 86.1485 25.4817 86.1524 26.8594L86.1463 43.1784Z" fill="white"/>
<path d="M121.208 18.1277C121.212 18.2978 121.172 18.4661 121.092 18.6164C121.012 18.7667 120.895 18.8941 120.752 18.9867C120.625 19.0598 120.508 19.15 120.404 19.2547C120.163 19.4874 119.971 19.7672 119.842 20.0768C119.713 20.3864 119.649 20.7192 119.653 21.0547V41.7647C119.681 43.7192 119.268 45.6548 118.447 47.4286C117.626 49.2024 116.416 50.769 114.908 52.0127C111.97 54.5939 108.177 55.9901 104.266 55.9297C102.231 55.9343 100.203 55.6728 98.2354 55.1517C96.386 54.7412 94.665 53.8847 93.2224 52.6567C92.9809 52.3398 92.8664 51.9442 92.9011 51.5473C92.9359 51.1504 93.1175 50.7808 93.4104 50.5107L96.4104 47.8007C96.6284 47.5166 96.9474 47.3274 97.3013 47.2724C97.6551 47.2175 98.0165 47.301 98.3104 47.5057C100.289 48.5313 102.534 48.9244 104.743 48.6317C106.326 48.5451 107.839 47.9527 109.059 46.9417C110.233 45.8615 110.952 44.3748 111.069 42.7837L111.043 42.0057C108.79 43.9844 105.892 45.0719 102.893 45.0637C101.11 45.0686 99.3443 44.7014 97.7104 43.9854C96.0765 43.2694 94.6099 42.2205 93.4044 40.9057C90.7917 38.2194 89.33 34.6199 89.33 30.8727C89.33 27.1254 90.7917 23.526 93.4044 20.8397C94.6099 19.5249 96.0766 18.476 97.7104 17.7601C99.3443 17.0441 101.11 16.6768 102.893 16.6817C105.892 16.6735 108.79 17.761 111.043 19.7397V18.4787C111.037 18.2985 111.07 18.119 111.139 17.9524C111.208 17.7858 111.312 17.6359 111.443 17.5127C111.568 17.3837 111.719 17.2817 111.885 17.2129C112.05 17.1441 112.229 17.11 112.408 17.1127H120.155C120.29 17.1105 120.424 17.1361 120.548 17.1877C120.673 17.2393 120.786 17.3159 120.879 17.4127C120.982 17.503 121.064 17.6144 121.12 17.7394C121.175 17.8643 121.203 17.9999 121.201 18.1367M104.742 37.6927C105.627 37.7071 106.506 37.5383 107.323 37.1966C108.139 36.855 108.876 36.3481 109.487 35.7077C110.127 35.0788 110.633 34.3266 110.974 33.4966C111.315 32.6665 111.484 31.776 111.471 30.8787C111.486 29.9856 111.317 29.0989 110.976 28.2734C110.635 27.4479 110.128 26.701 109.487 26.0787C108.88 25.4314 108.144 24.9181 107.327 24.5716C106.51 24.2252 105.63 24.0532 104.742 24.0667C103.851 24.0548 102.968 24.2273 102.146 24.5736C101.325 24.9199 100.585 25.4323 99.9714 26.0787C99.3304 26.7008 98.8237 27.4478 98.4825 28.2733C98.1413 29.0988 97.9727 29.9855 97.9874 30.8787C97.974 31.776 98.143 32.6666 98.4841 33.4967C98.8251 34.3268 99.3311 35.0789 99.9714 35.7077C100.589 36.3472 101.331 36.8533 102.151 37.1947C102.972 37.5361 103.854 37.7056 104.742 37.6927Z" fill="white"/>
<path d="M137.854 16.675C139.754 16.6416 141.64 16.9928 143.4 17.7074C145.16 18.4219 146.757 19.4852 148.095 20.833C149.436 22.1376 150.501 23.6975 151.229 25.4208C151.956 27.144 152.331 28.9956 152.331 30.8661C152.331 32.7366 151.956 34.5881 151.229 36.3113C150.501 38.0345 149.436 39.5945 148.095 40.899C145.359 43.565 141.689 45.057 137.869 45.057C134.048 45.057 130.379 43.565 127.642 40.899C126.302 39.5945 125.236 38.0345 124.509 36.3113C123.781 34.5881 123.407 32.7366 123.407 30.8661C123.407 28.9956 123.781 27.144 124.509 25.4208C125.236 23.6975 126.302 22.1376 127.642 20.833C128.976 19.487 130.569 18.4248 132.324 17.7102C134.079 16.9956 135.96 16.6435 137.854 16.675ZM137.855 37.7331C138.663 37.7352 139.46 37.5554 140.189 37.2071C140.917 36.8588 141.558 36.3509 142.063 35.721C143.19 34.3539 143.807 32.6373 143.807 30.8655C143.807 29.0938 143.19 27.3772 142.063 26.01C141.559 25.382 140.921 24.8752 140.195 24.527C139.469 24.1787 138.674 23.9979 137.868 23.9979C137.063 23.9979 136.268 24.1787 135.542 24.527C134.816 24.8752 134.177 25.382 133.673 26.01C132.547 27.3775 131.931 29.0939 131.931 30.8655C131.931 32.6371 132.547 34.3536 133.673 35.721C134.175 36.3487 134.811 36.8555 135.534 37.2038C136.258 37.5521 137.052 37.733 137.855 37.7331Z" fill="white"/>
<path d="M210.071 26.7611C210.088 26.8407 210.097 26.9218 210.098 27.0031V43.179C210.097 43.5412 209.952 43.8881 209.696 44.1443C209.44 44.4004 209.093 44.5452 208.731 44.5471H202.861C202.499 44.5458 202.152 44.4012 201.896 44.1449C201.64 43.8886 201.495 43.5414 201.494 43.179V27.7C201.499 27.2077 201.402 26.7197 201.208 26.2671C201.014 25.8144 200.728 25.4072 200.368 25.0711C199.624 24.3651 198.632 23.9798 197.606 23.9981C197.102 23.9875 196.601 24.0769 196.132 24.2611C195.663 24.4452 195.235 24.7206 194.872 25.0711C194.506 25.4032 194.213 25.8091 194.014 26.2622C193.816 26.7153 193.715 27.2053 193.719 27.7V43.179C193.718 43.5413 193.574 43.8884 193.318 44.1446C193.062 44.4009 192.715 44.5455 192.352 44.5471H187.018C186.842 44.5514 186.668 44.5178 186.506 44.4488C186.344 44.3798 186.199 44.2769 186.08 44.1471C185.951 44.0219 185.849 43.8717 185.78 43.7055C185.712 43.5394 185.678 43.3609 185.68 43.1811V27.7021C185.683 27.205 185.58 26.7129 185.376 26.2594C185.172 25.8058 184.874 25.4012 184.5 25.0731C183.715 24.3818 182.705 24.0005 181.659 24.0005C180.613 24.0005 179.602 24.3818 178.817 25.0731C178.444 25.4012 178.145 25.8057 177.941 26.2592C177.738 26.7128 177.634 27.205 177.637 27.7021V43.1811C177.636 43.5434 177.492 43.8906 177.236 44.1469C176.98 44.4032 176.633 44.5477 176.27 44.549H170.4C170.221 44.5518 170.042 44.5179 169.876 44.4491C169.71 44.3803 169.56 44.2782 169.435 44.1491C169.188 43.889 169.053 43.5419 169.06 43.1831V21.0251C169.065 20.6897 169 20.3569 168.871 20.0473C168.742 19.7377 168.551 19.4579 168.309 19.2251C168.206 19.1208 168.089 19.0307 167.961 18.9571V18.9301C167.818 18.8447 167.7 18.7224 167.62 18.5761C167.54 18.4299 167.5 18.2648 167.505 18.0981C167.503 17.9637 167.527 17.8302 167.578 17.7057C167.629 17.5812 167.704 17.4683 167.8 17.3741C168.002 17.1803 168.272 17.0726 168.551 17.0741H176.271C176.451 17.0714 176.63 17.1055 176.796 17.1743C176.962 17.2431 177.112 17.3451 177.237 17.4741C177.369 17.5973 177.473 17.7472 177.542 17.9138C177.611 18.0804 177.643 18.2598 177.637 18.44V19.6211C178.428 18.6674 179.426 17.9061 180.554 17.3949C181.683 16.8836 182.913 16.6358 184.151 16.6701C185.676 16.6579 187.177 17.0564 188.494 17.8241C189.766 18.5428 190.821 19.5896 191.549 20.8551C192.418 19.5902 193.576 18.551 194.927 17.8241C196.303 17.0598 197.853 16.6624 199.427 16.6701C202.146 16.7003 204.753 17.7563 206.726 19.6267C208.7 21.4971 209.894 24.0438 210.069 26.757" fill="white"/>
<path d="M240.578 17.0769C240.941 17.0782 241.288 17.2228 241.544 17.4791C241.8 17.7354 241.944 18.0826 241.945 18.445V33.468C241.945 37.6014 240.605 40.6507 237.924 42.616C235.658 44.262 232.539 45.0847 228.569 45.084C224.599 45.0833 221.481 44.2607 219.214 42.616C216.534 40.6487 215.194 37.5994 215.193 33.468V21.021C215.191 20.6908 215.124 20.3643 214.995 20.0603C214.866 19.7564 214.678 19.481 214.442 19.25C214.335 19.1408 214.218 19.0404 214.094 18.95C213.954 18.8614 213.838 18.7386 213.759 18.593C213.679 18.4475 213.637 18.2839 213.638 18.1179C213.633 17.9793 213.657 17.841 213.708 17.7119C213.759 17.5828 213.836 17.4656 213.934 17.3674C214.032 17.2693 214.149 17.1925 214.278 17.1416C214.407 17.0908 214.546 17.067 214.684 17.0719H222.404C222.767 17.0735 223.113 17.2183 223.37 17.4745C223.626 17.7307 223.77 18.0777 223.771 18.44V33.6499C223.806 34.2069 223.958 34.7503 224.216 35.2449C224.475 35.7395 224.834 36.1743 225.271 36.521C226.183 37.3197 227.359 37.7499 228.571 37.7279C229.782 37.7436 230.956 37.3142 231.871 36.521C232.302 36.1688 232.658 35.7326 232.916 35.2392C233.173 34.7457 233.328 34.205 233.371 33.6499V18.44C233.372 18.0776 233.517 17.7304 233.773 17.4741C234.029 17.2178 234.376 17.0732 234.738 17.0719L240.578 17.0769Z" fill="white"/>
<path d="M254.944 7.79601C255.307 7.79733 255.654 7.94188 255.91 8.19817C256.166 8.45446 256.31 8.80167 256.311 9.16399V43.179C256.31 43.5414 256.166 43.8887 255.91 44.1452C255.654 44.4016 255.307 44.5464 254.944 44.548H249.074C248.895 44.5508 248.716 44.5167 248.55 44.4479C248.384 44.3791 248.234 44.2771 248.109 44.148C247.862 43.8879 247.727 43.5409 247.734 43.1821V11.742C247.74 11.4107 247.676 11.0818 247.547 10.7768C247.417 10.4717 247.225 10.1972 246.983 9.971C246.876 9.86165 246.759 9.76133 246.635 9.67101C246.493 9.57855 246.376 9.45127 246.296 9.30114C246.216 9.15101 246.176 8.98296 246.179 8.81298C246.177 8.67856 246.201 8.54503 246.252 8.42052C246.303 8.29602 246.378 8.18317 246.474 8.08898C246.677 7.89705 246.946 7.7913 247.225 7.794L254.944 7.79601Z" fill="white"/>
<path d="M272.341 35.5608C272.342 36.0939 272.554 36.605 272.931 36.9822C273.307 37.3593 273.818 37.5717 274.351 37.5728C274.968 37.5471 275.576 37.4201 276.151 37.1968C276.25 37.1785 276.351 37.1698 276.451 37.1708C276.631 37.168 276.809 37.2021 276.975 37.2709C277.141 37.3397 277.291 37.4418 277.416 37.5708C277.663 37.8312 277.798 38.178 277.791 38.5368V42.9088C277.802 43.1623 277.737 43.413 277.603 43.6286C277.469 43.8441 277.273 44.0142 277.041 44.1167C274.843 44.7783 272.556 45.0951 270.26 45.0558C269.375 45.0883 268.493 44.9302 267.675 44.5924C266.856 44.2546 266.119 43.745 265.514 43.0978C264.342 41.7996 263.718 40.098 263.772 38.3497V24.5078H261.681C261.502 24.5104 261.324 24.4763 261.158 24.4075C260.992 24.3387 260.842 24.2367 260.717 24.1077C260.586 23.9847 260.482 23.8349 260.413 23.6682C260.344 23.5016 260.311 23.3221 260.317 23.1418V18.4468C260.319 18.0846 260.463 17.7377 260.719 17.4815C260.975 17.2253 261.322 17.0806 261.684 17.0787H263.802V11.1498C263.792 10.7827 263.927 10.4265 264.177 10.1578C264.437 9.91037 264.784 9.77523 265.142 9.78175H270.986C271.169 9.77048 271.352 9.79815 271.523 9.86293C271.694 9.9277 271.849 10.0281 271.978 10.1575C272.108 10.2868 272.208 10.4422 272.273 10.6133C272.337 10.7844 272.365 10.9673 272.353 11.1498V17.0787H276.427C276.79 17.0803 277.137 17.225 277.393 17.4813C277.649 17.7375 277.793 18.0846 277.794 18.4468V23.1148C277.793 23.4769 277.648 23.8238 277.392 24.08C277.136 24.3361 276.79 24.4809 276.427 24.4827H272.353L272.341 35.5608Z" fill="white"/>
<path d="M289.497 17.0768C289.859 17.0786 290.206 17.2234 290.462 17.4795C290.718 17.7357 290.863 18.0826 290.864 18.4447V43.1788C290.863 43.5408 290.718 43.8876 290.462 44.1437C290.206 44.3998 289.859 44.5447 289.497 44.5468H283.627C283.448 44.5495 283.269 44.5154 283.103 44.4466C282.937 44.3778 282.787 44.2758 282.661 44.1468C282.414 43.8865 282.28 43.5395 282.286 43.1808V21.0208C282.284 20.6907 282.217 20.3643 282.088 20.0603C281.96 19.7563 281.772 19.4808 281.536 19.2497C281.428 19.1404 281.312 19.04 281.187 18.9498C281.047 18.8613 280.932 18.7386 280.852 18.5932C280.773 18.4478 280.731 18.2845 280.732 18.1188C280.727 17.9801 280.751 17.8419 280.801 17.7127C280.852 17.5835 280.929 17.4661 281.027 17.368C281.125 17.2698 281.242 17.1929 281.371 17.1421C281.5 17.0913 281.639 17.0678 281.777 17.0728L289.497 17.0768ZM290.997 10.4508C291 9.71962 290.821 8.99918 290.478 8.35362C290.134 7.70807 289.637 7.15736 289.029 6.75048C288.422 6.34359 287.723 6.09315 286.996 6.02141C286.268 5.94967 285.534 6.05887 284.859 6.33928C284.183 6.6197 283.588 7.06263 283.125 7.62871C282.662 8.19479 282.347 8.8665 282.206 9.58403C282.065 10.3016 282.104 11.0427 282.319 11.7416C282.534 12.4404 282.919 13.0753 283.438 13.5898C284.06 14.2051 284.849 14.6231 285.707 14.7912C286.566 14.9594 287.454 14.8701 288.262 14.5347C289.07 14.1993 289.76 13.6327 290.247 12.9061C290.733 12.1795 290.995 11.3253 290.997 10.4508Z" fill="white"/>
</svg>
