<svg width="600" height="600" viewBox="0 0 600 600" fill="none" xmlns="http://www.w3.org/2000/svg">
<rect x="122" y="112" width="356" height="16" rx="8" fill="black" stroke="#B0B0B0" stroke-width="4"/>
<g clip-path="url(#clip0_2287_143006)">
<g filter="url(#filter0_d_2287_143006)">
<path d="M140 99H460V419H140V99Z" fill="url(#paint0_linear_2287_143006)"/>
</g>
<path d="M159 131H441V135H159V131Z" fill="#B0B0B0"/>
<path d="M159 170H287V174H159V170Z" fill="#B0B0B0"/>
<path d="M373 170H441V174H373V170Z" fill="#B0B0B0"/>
<path d="M159 193H244V197H159V193Z" fill="#B0B0B0"/>
<path d="M342 193H441V197H342V193Z" fill="#B0B0B0"/>
<path d="M159 216H223V220H159V216Z" fill="#B0B0B0"/>
<path d="M373 216H441V220H373V216Z" fill="#B0B0B0"/>
<path d="M159 239H210V243H159V239Z" fill="#B0B0B0"/>
<path d="M373 239H441V243H373V239Z" fill="#B0B0B0"/>
<path d="M150 284H450V285H150V284Z" fill="#B0B0B0"/>
<path d="M190 307H195V354H190V307Z" fill="#262626"/>
<path d="M405 307H410V354H405V307Z" fill="#262626"/>
<path d="M210 307H224V354H210V307Z" fill="#262626"/>
<path d="M349 307H363V354H349V307Z" fill="#262626"/>
<path d="M309 307H323V354H309V307Z" fill="#262626"/>
<path d="M226 307H230V354H226V307Z" fill="#262626"/>
<path d="M365 307H369V354H365V307Z" fill="#262626"/>
<path d="M246 307H250V354H246V307Z" fill="#262626"/>
<path d="M385 307H389V354H385V307Z" fill="#262626"/>
<path d="M329 307H333V354H329V307Z" fill="#262626"/>
<path d="M289 307H293V354H289V307Z" fill="#262626"/>
<path d="M232 307H236V354H232V307Z" fill="#262626"/>
<path d="M371 307H375V354H371V307Z" fill="#262626"/>
<path d="M252 307H256V354H252V307Z" fill="#262626"/>
<path d="M391 307H395V354H391V307Z" fill="#262626"/>
<path d="M335 307H339V354H335V307Z" fill="#262626"/>
<path d="M295 307H299V354H295V307Z" fill="#262626"/>
<path d="M275 307H279V354H275V307Z" fill="#262626"/>
<path d="M269 307H273V354H269V307Z" fill="#262626"/>
<path d="M238 307H240V354H238V307Z" fill="#262626"/>
<path d="M377 307H379V354H377V307Z" fill="#262626"/>
<path d="M197 307H199V354H197V307Z" fill="#262626"/>
<path d="M258 307H260V354H258V307Z" fill="#262626"/>
<path d="M397 307H399V354H397V307Z" fill="#262626"/>
<path d="M341 307H343V354H341V307Z" fill="#262626"/>
<path d="M301 307H303V354H301V307Z" fill="#262626"/>
<path d="M281 307H283V354H281V307Z" fill="#262626"/>
<path d="M242 307H244V354H242V307Z" fill="#262626"/>
<path d="M381 307H383V354H381V307Z" fill="#262626"/>
<path d="M325 307H327V354H325V307Z" fill="#262626"/>
<path d="M201 307H203V354H201V307Z" fill="#262626"/>
<path d="M205 307H208V354H205V307Z" fill="#262626"/>
<path d="M262 307H264V354H262V307Z" fill="#262626"/>
<path d="M265 307H267V354H265V307Z" fill="#262626"/>
<path d="M401 307H403V354H401V307Z" fill="#262626"/>
<path d="M345 307H347V354H345V307Z" fill="#262626"/>
<path d="M305 307H307V354H305V307Z" fill="#262626"/>
<path d="M285 307H287V354H285V307Z" fill="#262626"/>
<path d="M248.837 391.424H246.531V395.832C246.531 396.068 246.644 396.192 246.909 396.192H256.149V394.772H249.026C248.912 394.772 248.837 394.7 248.837 394.592V391.424ZM252.163 384.964V383.54H243.242V384.964H252.163ZM255.775 381.992H253.507V392.196H255.775V381.992ZM244.036 386.98C244.036 388.996 245.661 390.308 247.703 390.308C249.744 390.308 251.369 388.992 251.369 386.98C251.369 384.968 249.727 383.632 247.703 383.632C245.678 383.632 244.036 384.964 244.036 386.98ZM246.514 383.724H248.895V381.58H246.514V383.72V383.724ZM255.208 387.232H257.967V385.772H255.208V387.232ZM246.304 386.944C246.304 385.74 246.93 384.964 247.703 384.964C248.475 384.964 249.084 385.736 249.084 386.944C249.084 388.152 248.463 388.908 247.703 388.908C246.942 388.908 246.304 388.132 246.304 386.944ZM267.791 396.376H270.076V391.552C270.076 391.3 269.942 391.192 269.698 391.192H260.08V392.612H267.602C267.716 392.612 267.791 392.684 267.791 392.792V396.372V396.376ZM267.774 387.68H270.063V382.568C270.063 382.316 269.967 382.208 269.685 382.208H259.878V383.628H267.59C267.703 383.628 267.779 383.7 267.779 383.808V387.676L267.774 387.68ZM258.702 388.832H271.307V387.372H258.702V388.832ZM266.128 388.456H263.881V391.552H266.128V388.456ZM313.832 394.232H326.247V392.776H313.832V394.232ZM321.182 389.248H318.893V393.136H321.182V389.248ZM324.6 389.968C324.882 389.968 324.978 389.86 324.978 389.608V382.336H322.71V388.364C322.71 388.472 322.635 388.544 322.521 388.544H317.553C317.439 388.544 317.364 388.472 317.364 388.364V382.336H315.096V389.608C315.096 389.86 315.192 389.968 315.474 389.968H324.6ZM316.78 386.188H323.336V384.748H316.78V386.188ZM310.068 381.992H312.336V390.164H310.068V381.992ZM310.635 386.564H307.46V385.16H310.635V386.564ZM354.446 381.992H352.178V396.012H354.446V381.992ZM341.972 393.496H352.782V392.04H341.972V393.496ZM366.18 392.2H368.448V381.992H366.18V392.196V392.2ZM364.404 383.756V382.336H356.579V383.756H364.404ZM361.455 391.244H359.15V395.832C359.15 396.068 359.263 396.192 359.528 396.192H368.768V394.772H361.644C361.531 394.772 361.455 394.7 361.455 394.592V391.244ZM381.523 384.244V382.912H371.355V384.244H381.523ZM372.548 385.592C372.548 387.124 374.27 388.132 376.42 388.132C378.57 388.132 380.292 387.124 380.292 385.592C380.292 384.06 378.533 383.036 376.42 383.036C374.307 383.036 372.548 384.044 372.548 385.592ZM375.231 383H377.613V381.4H375.231V383ZM374.799 385.504C374.799 384.748 375.517 384.244 376.424 384.244C377.331 384.244 378.029 384.748 378.029 385.504C378.029 386.26 377.31 386.744 376.424 386.744C375.538 386.744 374.799 386.26 374.799 385.504ZM393.753 392.972H396.021V381.992H393.753V392.972ZM394.32 390.308H390.864V391.712H394.32V390.308ZM383.602 389.5H392.842V388.044H383.602V389.5ZM389.18 389.068H386.912V391.552H389.18V389.068ZM384.702 384.496C384.702 386.276 386.269 387.432 388.218 387.432C390.167 387.432 391.754 386.28 391.754 384.496C391.754 382.712 390.167 381.544 388.218 381.544C386.269 381.544 384.702 382.716 384.702 384.496ZM386.966 384.496C386.966 383.544 387.512 382.948 388.214 382.948C388.915 382.948 389.461 383.544 389.461 384.496C389.461 385.448 388.915 386.024 388.214 386.024C387.512 386.024 386.966 385.432 386.966 384.496ZM388.839 392.236H386.534V395.836C386.534 396.072 386.647 396.196 386.912 396.196H396.341V394.776H389.028C388.915 394.776 388.839 394.704 388.839 394.596V392.24V392.236ZM286.41 389.716H299.014V388.256H286.41V389.716ZM280.853 383.756V382.336H272.953V383.756H280.853ZM284.822 381.992H282.554V396.012H284.822V381.992ZM290.018 382.136H287.733V386.544C287.733 386.796 287.829 386.904 288.111 386.904H298.052V385.48H290.211C290.097 385.48 290.022 385.408 290.022 385.3V382.136H290.018ZM339.002 381.992H336.734V396.012H339.002V381.992ZM338.435 387.052H341.195V385.592H338.435V387.052ZM370.166 390.184H382.77V388.728H370.166V390.184ZM308.632 388.204C306.574 387.7 305.457 386.28 305.457 384.28V383.184H303.243V383.904C303.243 386.98 305.171 389.032 308.628 389.644V388.204H308.632ZM300.051 389.824C303.512 389.212 305.419 387.16 305.419 384.084V383.544H303.21V384.46C303.21 386.456 302.114 387.88 300.051 388.384V389.824ZM308.199 383.756V382.336H300.564V383.756H308.199ZM364.912 388.976C362.795 388.544 361.569 387.088 361.569 385.016V383.272H359.36V384.64C359.36 387.788 361.401 389.876 364.916 390.416V388.976H364.912ZM356.163 390.56C359.62 389.948 361.531 387.896 361.531 384.82V383.632H359.318V385.196C359.318 387.192 358.221 388.616 356.163 389.12V390.56ZM281.382 390.236C279.266 389.804 277.98 387.804 277.98 385.736V383.272H275.771V385.36C275.771 388.508 277.867 391.136 281.382 391.676V390.236ZM272.516 391.64C275.973 391.028 277.938 388.616 277.938 385.54V383.632H275.729V385.916C275.729 387.912 274.578 389.696 272.516 390.2V391.64ZM335.562 390.236C333.446 389.804 332.16 387.628 332.16 385.556V382.156H329.951V385.18C329.951 388.328 332.047 391.136 335.562 391.676V390.236ZM326.7 391.64C330.157 391.028 332.127 388.436 332.127 385.36V382.156H329.913V385.736C329.913 387.732 328.763 389.696 326.7 390.2V391.64ZM347.847 389.392H345.579V392.488H347.847V389.392ZM351.081 384.964V383.54H342.35V384.964H351.081ZM343.068 386.816C343.068 388.74 344.672 389.984 346.713 389.984C348.755 389.984 350.363 388.744 350.363 386.816C350.363 384.888 348.738 383.632 346.713 383.632C344.689 383.632 343.068 384.892 343.068 386.816ZM345.525 383.724H347.906V381.58H345.525V383.72V383.724ZM345.336 386.78C345.336 385.648 345.924 384.964 346.718 384.964C347.511 384.964 348.078 385.648 348.078 386.78C348.078 387.912 347.495 388.58 346.718 388.58C345.941 388.58 345.336 387.896 345.336 386.78ZM372.077 393.728C372.077 395.512 374.005 396.68 376.424 396.68C378.843 396.68 380.771 395.512 380.771 393.728C380.771 391.944 378.822 390.76 376.424 390.76C374.026 390.76 372.077 391.928 372.077 393.728ZM374.345 393.728C374.345 392.792 375.307 392.16 376.424 392.16C377.541 392.16 378.482 392.792 378.482 393.728C378.482 394.664 377.52 395.276 376.424 395.276C375.328 395.276 374.345 394.664 374.345 393.728ZM288.317 393.64C288.317 395.476 290.223 396.68 292.664 396.68C295.104 396.68 297.011 395.476 297.011 393.64C297.011 391.804 295.083 390.58 292.664 390.58C290.244 390.58 288.317 391.784 288.317 393.64ZM290.585 393.64C290.585 392.648 291.509 391.984 292.664 391.984C293.819 391.984 294.722 392.648 294.722 393.64C294.722 394.632 293.798 395.276 292.664 395.276C291.53 395.276 290.585 394.628 290.585 393.64ZM303.096 393.424C303.096 395.404 305.003 396.684 307.33 396.684C309.657 396.684 311.601 395.404 311.601 393.424C311.601 391.444 309.674 390.148 307.33 390.148C304.986 390.148 303.096 391.444 303.096 393.424ZM305.364 393.424C305.364 392.272 306.251 391.552 307.33 391.552C308.409 391.552 309.312 392.272 309.312 393.424C309.312 394.576 308.422 395.276 307.33 395.276C306.238 395.276 305.364 394.556 305.364 393.424Z" fill="#888888"/>
<path d="M213.121 391.588V381.956H216.237V396.196H212.894L206.543 386.599V396.196H203.406V381.956H206.732L213.121 391.588ZM238.731 396.196H235.254L234.414 393.908H228.104L227.24 396.196H223.859L229.622 381.956H233.045L238.731 396.196ZM222.506 396.191H219.18V381.956H222.506V396.191ZM228.979 391.588H233.562L231.302 385.431L228.979 391.588Z" fill="#888888"/>
</g>
<defs>
<filter id="filter0_d_2287_143006" x="125.4" y="88.4" width="349.2" height="349.2" filterUnits="userSpaceOnUse" color-interpolation-filters="sRGB">
<feFlood flood-opacity="0" result="BackgroundImageFix"/>
<feColorMatrix in="SourceAlpha" type="matrix" values="0 0 0 0 0 0 0 0 0 0 0 0 0 0 0 0 0 0 127 0" result="hardAlpha"/>
<feOffset dy="4"/>
<feGaussianBlur stdDeviation="7.3"/>
<feComposite in2="hardAlpha" operator="out"/>
<feColorMatrix type="matrix" values="0 0 0 0 0 0 0 0 0 0 0 0 0 0 0 0 0 0 0.2 0"/>
<feBlend mode="normal" in2="BackgroundImageFix" result="effect1_dropShadow_2287_143006"/>
<feBlend mode="normal" in="SourceGraphic" in2="effect1_dropShadow_2287_143006" result="shape"/>
</filter>
<linearGradient id="paint0_linear_2287_143006" x1="300" y1="-164.262" x2="300" y2="500.702" gradientUnits="userSpaceOnUse">
<stop stop-color="#D1D1D1"/>
<stop offset="0.557692" stop-color="white"/>
<stop offset="1" stop-color="#D1D1D1"/>
</linearGradient>
<clipPath id="clip0_2287_143006">
<rect width="340" height="340" fill="white" transform="translate(130 120)"/>
</clipPath>
</defs>
</svg>
