<svg width="400" height="400" viewBox="0 0 400 400" fill="none" xmlns="http://www.w3.org/2000/svg">
<rect x="52" y="72" width="296" height="16" rx="8" fill="black" stroke="#B0B0B0" stroke-width="4"/>
<g clip-path="url(#clip0_2287_149680)">
<g filter="url(#filter0_d_2287_149680)">
<path d="M68 59H331.529V379H68V59Z" fill="url(#paint0_linear_2287_149680)"/>
</g>
<path d="M83.8828 91H316.118V95H83.8828V91Z" fill="#B0B0B0"/>
<path d="M83.8828 130H189.295V134H83.8828V130Z" fill="#B0B0B0"/>
<path d="M260.117 130H316.117V134H260.117V130Z" fill="#B0B0B0"/>
<path d="M83.8828 153H153.883V157H83.8828V153Z" fill="#B0B0B0"/>
<path d="M234.588 153H316.117V157H234.588V153Z" fill="#B0B0B0"/>
<path d="M83.8828 176H136.589V180H83.8828V176Z" fill="#B0B0B0"/>
<path d="M260.117 176H316.117V180H260.117V176Z" fill="#B0B0B0"/>
<path d="M83.8828 199H125.883V203H83.8828V199Z" fill="#B0B0B0"/>
<path d="M260.117 199H316.117V203H260.117V199Z" fill="#B0B0B0"/>
<path d="M76.4707 244H323.53V245H76.4707V244Z" fill="#B0B0B0"/>
<path d="M109.412 267H113.53V314H109.412V267Z" fill="#262626"/>
<path d="M286.471 267H290.588V314H286.471V267Z" fill="#262626"/>
<path d="M125.883 267H137.412V314H125.883V267Z" fill="#262626"/>
<path d="M240.354 267H251.883V314H240.354V267Z" fill="#262626"/>
<path d="M207.412 267H218.942V314H207.412V267Z" fill="#262626"/>
<path d="M139.059 267H142.353V314H139.059V267Z" fill="#262626"/>
<path d="M253.529 267H256.823V314H253.529V267Z" fill="#262626"/>
<path d="M155.529 267H158.823V314H155.529V267Z" fill="#262626"/>
<path d="M270 267H273.294V314H270V267Z" fill="#262626"/>
<path d="M223.883 267H227.177V314H223.883V267Z" fill="#262626"/>
<path d="M190.941 267H194.236V314H190.941V267Z" fill="#262626"/>
<path d="M144 267H147.294V314H144V267Z" fill="#262626"/>
<path d="M258.471 267H261.765V314H258.471V267Z" fill="#262626"/>
<path d="M160.471 267H163.765V314H160.471V267Z" fill="#262626"/>
<path d="M274.941 267H278.236V314H274.941V267Z" fill="#262626"/>
<path d="M228.824 267H232.118V314H228.824V267Z" fill="#262626"/>
<path d="M195.883 267H199.177V314H195.883V267Z" fill="#262626"/>
<path d="M179.412 267H182.706V314H179.412V267Z" fill="#262626"/>
<path d="M174.471 267H177.765V314H174.471V267Z" fill="#262626"/>
<path d="M148.941 267H150.588V314H148.941V267Z" fill="#262626"/>
<path d="M263.412 267H265.059V314H263.412V267Z" fill="#262626"/>
<path d="M115.178 267H116.825V314H115.178V267Z" fill="#262626"/>
<path d="M165.412 267H167.059V314H165.412V267Z" fill="#262626"/>
<path d="M279.883 267H281.53V314H279.883V267Z" fill="#262626"/>
<path d="M233.766 267H235.413V314H233.766V267Z" fill="#262626"/>
<path d="M200.824 267H202.471V314H200.824V267Z" fill="#262626"/>
<path d="M184.354 267H186.001V314H184.354V267Z" fill="#262626"/>
<path d="M152.236 267H153.883V314H152.236V267Z" fill="#262626"/>
<path d="M266.707 267H268.354V314H266.707V267Z" fill="#262626"/>
<path d="M220.588 267H222.235V314H220.588V267Z" fill="#262626"/>
<path d="M118.471 267H120.118V314H118.471V267Z" fill="#262626"/>
<path d="M121.766 267H124.236V314H121.766V267Z" fill="#262626"/>
<path d="M168.707 267H170.354V314H168.707V267Z" fill="#262626"/>
<path d="M171.178 267H172.825V314H171.178V267Z" fill="#262626"/>
<path d="M283.178 267H284.825V314H283.178V267Z" fill="#262626"/>
<path d="M237.059 267H238.706V314H237.059V267Z" fill="#262626"/>
<path d="M204.117 267H205.764V314H204.117V267Z" fill="#262626"/>
<path d="M187.646 267H189.294V314H187.646V267Z" fill="#262626"/>
<path d="M148.43 351.424H146.125V355.832C146.125 356.068 146.238 356.192 146.503 356.192H155.743V354.772H148.619C148.506 354.772 148.43 354.7 148.43 354.592V351.424ZM151.757 344.964V343.54H142.836V344.964H151.757ZM155.369 341.992H153.101V352.196H155.369V341.992ZM143.63 346.98C143.63 348.996 145.255 350.308 147.296 350.308C149.338 350.308 150.963 348.992 150.963 346.98C150.963 344.968 149.321 343.632 147.296 343.632C145.272 343.632 143.63 344.964 143.63 346.98ZM146.108 343.724H148.489V341.58H146.108V343.72V343.724ZM154.802 347.232H157.561V345.772H154.802V347.232ZM145.898 346.944C145.898 345.74 146.524 344.964 147.296 344.964C148.069 344.964 148.678 345.736 148.678 346.944C148.678 348.152 148.057 348.908 147.296 348.908C146.536 348.908 145.898 348.132 145.898 346.944ZM167.385 356.376H169.67V351.552C169.67 351.3 169.535 351.192 169.292 351.192H159.674V352.612H167.196C167.309 352.612 167.385 352.684 167.385 352.792V356.372V356.376ZM167.368 347.68H169.657V342.568C169.657 342.316 169.561 342.208 169.279 342.208H159.472V343.628H167.183C167.297 343.628 167.372 343.7 167.372 343.808V347.676L167.368 347.68ZM158.296 348.832H170.9V347.372H158.296V348.832ZM165.722 348.456H163.475V351.552H165.722V348.456ZM213.425 354.232H225.841V352.776H213.425V354.232ZM220.775 349.248H218.486V353.136H220.775V349.248ZM224.194 349.968C224.476 349.968 224.572 349.86 224.572 349.608V342.336H222.304V348.364C222.304 348.472 222.229 348.544 222.115 348.544H217.147C217.033 348.544 216.958 348.472 216.958 348.364V342.336H214.69V349.608C214.69 349.86 214.786 349.968 215.068 349.968H224.194ZM216.374 346.188H222.93V344.748H216.374V346.188ZM209.662 341.992H211.93V350.164H209.662V341.992ZM210.229 346.564H207.054V345.16H210.229V346.564ZM254.039 341.992H251.771V356.012H254.039V341.992ZM241.565 353.496H252.376V352.04H241.565V353.496ZM265.774 352.2H268.042V341.992H265.774V352.196V352.2ZM263.998 343.756V342.336H256.173V343.756H263.998ZM261.049 351.244H258.743V355.832C258.743 356.068 258.857 356.192 259.121 356.192H268.361V354.772H261.238C261.125 354.772 261.049 354.7 261.049 354.592V351.244ZM281.117 344.244V342.912H270.949V344.244H281.117ZM272.141 345.592C272.141 347.124 273.863 348.132 276.014 348.132C278.164 348.132 279.886 347.124 279.886 345.592C279.886 344.06 278.126 343.036 276.014 343.036C273.901 343.036 272.141 344.044 272.141 345.592ZM274.825 343H277.207V341.4H274.825V343ZM274.393 345.504C274.393 344.748 275.111 344.244 276.018 344.244C276.925 344.244 277.622 344.748 277.622 345.504C277.622 346.26 276.904 346.744 276.018 346.744C275.132 346.744 274.393 346.26 274.393 345.504ZM293.347 352.972H295.615V341.992H293.347V352.972ZM293.914 350.308H290.458V351.712H293.914V350.308ZM283.196 349.5H292.436V348.044H283.196V349.5ZM288.773 349.068H286.505V351.552H288.773V349.068ZM284.296 344.496C284.296 346.276 285.863 347.432 287.812 347.432C289.76 347.432 291.348 346.28 291.348 344.496C291.348 342.712 289.76 341.544 287.812 341.544C285.863 341.544 284.296 342.716 284.296 344.496ZM286.56 344.496C286.56 343.544 287.106 342.948 287.807 342.948C288.509 342.948 289.055 343.544 289.055 344.496C289.055 345.448 288.509 346.024 287.807 346.024C287.106 346.024 286.56 345.432 286.56 344.496ZM288.433 352.236H286.127V355.836C286.127 356.072 286.241 356.196 286.505 356.196H295.934V354.776H288.622C288.509 354.776 288.433 354.704 288.433 354.596V352.24V352.236ZM186.004 349.716H198.608V348.256H186.004V349.716ZM180.447 343.756V342.336H172.547V343.756H180.447ZM184.416 341.992H182.148V356.012H184.416V341.992ZM189.611 342.136H187.327V346.544C187.327 346.796 187.423 346.904 187.705 346.904H197.646V345.48H189.805C189.691 345.48 189.616 345.408 189.616 345.3V342.136H189.611ZM238.596 341.992H236.328V356.012H238.596V341.992ZM238.029 347.052H240.788V345.592H238.029V347.052ZM269.76 350.184H282.364V348.728H269.76V350.184ZM208.226 348.204C206.168 347.7 205.051 346.28 205.051 344.28V343.184H202.837V343.904C202.837 346.98 204.765 349.032 208.222 349.644V348.204H208.226ZM199.645 349.824C203.106 349.212 205.013 347.16 205.013 344.084V343.544H202.804V344.46C202.804 346.456 201.707 347.88 199.645 348.384V349.824ZM207.793 343.756V342.336H200.158V343.756H207.793ZM264.506 348.976C262.389 348.544 261.163 347.088 261.163 345.016V343.272H258.953V344.64C258.953 347.788 260.995 349.876 264.51 350.416V348.976H264.506ZM255.757 350.56C259.214 349.948 261.125 347.896 261.125 344.82V343.632H258.911V345.196C258.911 347.192 257.815 348.616 255.757 349.12V350.56ZM180.976 350.236C178.859 349.804 177.574 347.804 177.574 345.736V343.272H175.365V345.36C175.365 348.508 177.461 351.136 180.976 351.676V350.236ZM172.11 351.64C175.567 351.028 177.532 348.616 177.532 345.54V343.632H175.323V345.916C175.323 347.912 174.172 349.696 172.11 350.2V351.64ZM235.156 350.236C233.039 349.804 231.754 347.628 231.754 345.556V342.156H229.545V345.18C229.545 348.328 231.641 351.136 235.156 351.676V350.236ZM226.294 351.64C229.751 351.028 231.721 348.436 231.721 345.36V342.156H229.507V345.736C229.507 347.732 228.356 349.696 226.294 350.2V351.64ZM247.441 349.392H245.173V352.488H247.441V349.392ZM250.675 344.964V343.54H241.943V344.964H250.675ZM242.662 346.816C242.662 348.74 244.266 349.984 246.307 349.984C248.348 349.984 249.957 348.744 249.957 346.816C249.957 344.888 248.332 343.632 246.307 343.632C244.283 343.632 242.662 344.892 242.662 346.816ZM245.119 343.724H247.5V341.58H245.119V343.72V343.724ZM244.93 346.78C244.93 345.648 245.518 344.964 246.311 344.964C247.105 344.964 247.672 345.648 247.672 346.78C247.672 347.912 247.088 348.58 246.311 348.58C245.534 348.58 244.93 347.896 244.93 346.78ZM271.671 353.728C271.671 355.512 273.599 356.68 276.018 356.68C278.437 356.68 280.365 355.512 280.365 353.728C280.365 351.944 278.416 350.76 276.018 350.76C273.62 350.76 271.671 351.928 271.671 353.728ZM273.939 353.728C273.939 352.792 274.901 352.16 276.018 352.16C277.135 352.16 278.076 352.792 278.076 353.728C278.076 354.664 277.114 355.276 276.018 355.276C274.922 355.276 273.939 354.664 273.939 353.728ZM187.91 353.64C187.91 355.476 189.817 356.68 192.257 356.68C194.698 356.68 196.604 355.476 196.604 353.64C196.604 351.804 194.677 350.58 192.257 350.58C189.838 350.58 187.91 351.784 187.91 353.64ZM190.178 353.64C190.178 352.648 191.102 351.984 192.257 351.984C193.412 351.984 194.315 352.648 194.315 353.64C194.315 354.632 193.391 355.276 192.257 355.276C191.123 355.276 190.178 354.628 190.178 353.64ZM202.69 353.424C202.69 355.404 204.597 356.684 206.924 356.684C209.251 356.684 211.195 355.404 211.195 353.424C211.195 351.444 209.267 350.148 206.924 350.148C204.58 350.148 202.69 351.444 202.69 353.424ZM204.958 353.424C204.958 352.272 205.844 351.552 206.924 351.552C208.003 351.552 208.906 352.272 208.906 353.424C208.906 354.576 208.016 355.276 206.924 355.276C205.832 355.276 204.958 354.556 204.958 353.424Z" fill="#888888"/>
<path d="M112.715 351.588V341.956H115.831V356.196H112.487L106.137 346.599V356.196H103V341.956H106.326L112.715 351.588ZM138.325 356.196H134.848L134.008 353.908H127.697L126.834 356.196H123.453L129.216 341.956H132.639L138.325 356.196ZM122.1 356.191H118.773V341.956H122.1V356.191ZM128.572 351.588H133.155L130.896 345.431L128.572 351.588Z" fill="#888888"/>
</g>
<defs>
<filter id="filter0_d_2287_149680" x="53.4" y="48.4" width="292.729" height="349.2" filterUnits="userSpaceOnUse" color-interpolation-filters="sRGB">
<feFlood flood-opacity="0" result="BackgroundImageFix"/>
<feColorMatrix in="SourceAlpha" type="matrix" values="0 0 0 0 0 0 0 0 0 0 0 0 0 0 0 0 0 0 127 0" result="hardAlpha"/>
<feOffset dy="4"/>
<feGaussianBlur stdDeviation="7.3"/>
<feComposite in2="hardAlpha" operator="out"/>
<feColorMatrix type="matrix" values="0 0 0 0 0 0 0 0 0 0 0 0 0 0 0 0 0 0 0.2 0"/>
<feBlend mode="normal" in2="BackgroundImageFix" result="effect1_dropShadow_2287_149680"/>
<feBlend mode="normal" in="SourceGraphic" in2="effect1_dropShadow_2287_149680" result="shape"/>
</filter>
<linearGradient id="paint0_linear_2287_149680" x1="199.765" y1="-204.262" x2="199.765" y2="460.702" gradientUnits="userSpaceOnUse">
<stop stop-color="#D1D1D1"/>
<stop offset="0.557692" stop-color="white"/>
<stop offset="1" stop-color="#D1D1D1"/>
</linearGradient>
<clipPath id="clip0_2287_149680">
<rect width="280" height="320" fill="white" transform="translate(60 80)"/>
</clipPath>
</defs>
</svg>
