<?xml version="1.0" encoding="UTF-8"?>
<svg id="Layer_2" xmlns="http://www.w3.org/2000/svg" width="405" height="35" version="1.1" xmlns:dc="http://purl.org/dc/elements/1.1/" xmlns:rdf="http://www.w3.org/1999/02/22-rdf-syntax-ns#" xmlns:stDim="http://ns.adobe.com/xap/1.0/sType/Dimensions#" xmlns:x="adobe:ns:meta/" xmlns:xmp="http://ns.adobe.com/xap/1.0/" xmlns:xmpG="http://ns.adobe.com/xap/1.0/g/" xmlns:xmpGImg="http://ns.adobe.com/xap/1.0/g/img/" xmlns:xmpTPg="http://ns.adobe.com/xap/1.0/t/pg/" viewBox="0 0 405 35">
  <!-- Generator: Adobe Illustrator 30.3.0, SVG Export Plug-In . SVG Version: 2.1.3 Build 182)  -->
  <defs>
    <style>
      .st0 {
        fill: #fff;
      }
    </style>
  </defs>
  <path class="st0" d="M95.2,22.7h-4.8v9.7c0,.5.2.8.8.8h19.4v-3.1h-14.9c-.2,0-.4-.2-.4-.4v-7h0ZM102.2,8.5v-3.1h-18.7v3.1h18.7ZM109.7,2h-4.8v22.4h4.8V2ZM85.1,13c0,4.4,3.4,7.3,7.7,7.3s7.7-2.9,7.7-7.3-3.4-7.4-7.7-7.4-7.7,2.9-7.7,7.4ZM90.3,5.8h5V1.1h-5v4.7h0ZM108.5,13.5h5.8v-3.2h-5.8v3.2ZM89.9,12.9c0-2.6,1.3-4.4,2.9-4.4s2.9,1.7,2.9,4.4-1.3,4.3-2.9,4.3-2.9-1.7-2.9-4.3ZM134.9,33.6h4.8v-10.6c0-.6-.3-.8-.8-.8h-20.2v3.1h15.8c.2,0,.4.2.4.4v7.9h0ZM134.9,14.5h4.8V3.3c0-.6-.2-.8-.8-.8h-20.5v3.1h16.2c.2,0,.4.2.4.4v8.5h0ZM115.9,17h26.4v-3.2h-26.4v3.2ZM131.4,16.2h-4.7v6.8h4.7v-6.8ZM231.4,28.9h26v-3.2h-26v3.2ZM246.8,18h-4.8v8.6h4.8v-8.6ZM253.9,19.5c.6,0,.8-.2.8-.8V2.7h-4.8v13.3c0,.2-.2.4-.4.4h-10.4c-.2,0-.4-.2-.4-.4V2.7h-4.8v16c0,.6.2.8.8.8h19.2ZM237.5,11.2h13.7v-3.2h-13.7v3.2ZM223.5,2h4.8v18h-4.8V2ZM224.7,12h-6.7v-3.1h6.7v3.1ZM316.5,2h-4.8v30.8h4.8V2ZM290.3,27.3h22.7v-3.2h-22.7v3.2ZM341.1,24.4h4.8V2h-4.8v22.4h0ZM337.3,5.9v-3.1h-16.4v3.1h16.4ZM331.2,22.3h-4.8v10.1c0,.5.2.8.8.8h19.4v-3.1h-14.9c-.2,0-.4-.2-.4-.4v-7.4h-.1ZM373.2,6.9v-2.9h-21.3v2.9h21.3ZM354.4,9.9c0,3.4,3.6,5.6,8.1,5.6s8.1-2.2,8.1-5.6-3.7-5.6-8.1-5.6-8.1,2.2-8.1,5.6ZM360,4.2h5V.7h-5v3.5ZM359.1,9.7c0-1.7,1.5-2.8,3.4-2.8s3.4,1.1,3.4,2.8-1.5,2.7-3.4,2.7-3.4-1.1-3.4-2.7ZM398.8,26.1h4.8V2h-4.8v24.2h0ZM400,20.3h-7.2v3.1h7.2v-3.1ZM377.6,18.5h19.4v-3.2h-19.4v3.2ZM389.2,17.6h-4.8v5.5h4.8v-5.5ZM379.9,7.5c0,3.9,3.3,6.5,7.4,6.5s7.4-2.5,7.4-6.5-3.3-6.5-7.4-6.5-7.4,2.6-7.4,6.5ZM384.6,7.5c0-2.1,1.1-3.4,2.6-3.4s2.6,1.3,2.6,3.4-1.1,3.4-2.6,3.4-2.6-1.3-2.6-3.4ZM388.5,24.5h-4.8v7.9c0,.5.2.8.8.8h19.8v-3.1h-15.3c-.2,0-.4-.2-.4-.4v-5.2h-.1ZM173.9,19h26.4v-3.2h-26.4v3.2ZM162.3,5.9v-3.1h-16.6v3.1h16.6ZM170.6,2h-4.8v30.8h4.8V2ZM181.5,2.3h-4.8v9.7c0,.6.2.8.8.8h20.8v-3.1h-16.4c-.2,0-.4-.2-.4-.4V2.3h0ZM284.1,2h-4.8v30.8h4.8V2ZM282.9,13.1h5.8v-3.2h-5.8v3.2ZM349.4,20h26.4v-3.2h-26.4v3.2ZM220.5,15.7c-4.3-1.1-6.7-4.2-6.7-8.6v-2.4h-4.6v1.6c0,6.8,4,11.3,11.3,12.6v-3.2h0ZM202.5,19.2c7.3-1.3,11.2-5.9,11.2-12.6v-1.2h-4.6v2c0,4.4-2.3,7.5-6.6,8.6v3.2h0ZM219.6,5.9v-3.1h-16v3.1h16ZM338.4,17.4c-4.4-1-7-4.2-7-8.7v-3.8h-4.6v3c0,6.9,4.3,11.5,11.6,12.7v-3.2h0ZM320.1,20.8c7.2-1.3,11.2-5.9,11.2-12.6v-2.6h-4.6v3.4c0,4.4-2.3,7.5-6.6,8.6v3.2ZM163.4,20.1c-4.4-1-7.1-5.4-7.1-9.9v-5.4h-4.6v4.6c0,6.9,4.4,12.7,11.8,13.9v-3.2h0ZM144.8,23.2c7.2-1.3,11.4-6.7,11.4-13.4v-4.2h-4.6v5c0,4.4-2.4,8.3-6.7,9.4v3.2h0ZM276.9,20.1c-4.4-1-7.1-5.7-7.1-10.3V2.4h-4.6v6.7c0,6.9,4.4,13.1,11.8,14.3v-3.2h0ZM258.3,23.2c7.2-1.3,11.4-7,11.4-13.8V2.4h-4.6v7.9c0,4.4-2.4,8.7-6.7,9.8v3.2h0ZM302.6,18.3h-4.8v6.8h4.8v-6.8ZM309.4,8.5v-3.1h-18.3v3.1h18.3ZM292.6,12.6c0,4.2,3.4,7,7.6,7s7.6-2.7,7.6-7-3.4-7-7.6-7-7.6,2.8-7.6,7ZM297.8,5.8h5V1.1h-5v4.7h0ZM297.4,12.5c0-2.5,1.2-4,2.9-4s2.9,1.5,2.9,4-1.2,4-2.9,4-2.9-1.5-2.9-4ZM353.4,27.8c0,3.9,4,6.5,9.1,6.5s9.1-2.6,9.1-6.5-4.1-6.5-9.1-6.5-9.1,2.6-9.1,6.5ZM358.2,27.8c0-2.1,2-3.4,4.4-3.4s4.3,1.4,4.3,3.4-2,3.4-4.3,3.4-4.4-1.3-4.4-3.4ZM177.9,27.6c0,4,4,6.7,9.1,6.7s9.1-2.6,9.1-6.7-4-6.7-9.1-6.7-9.1,2.6-9.1,6.7ZM182.7,27.6c0-2.2,1.9-3.6,4.4-3.6s4.3,1.5,4.3,3.6-1.9,3.6-4.3,3.6-4.4-1.4-4.4-3.6ZM208.9,27.1c0,4.4,4,7.2,8.9,7.2s9-2.8,9-7.2-4-7.2-9-7.2-8.9,2.9-8.9,7.2ZM213.6,27.1c0-2.5,1.9-4.1,4.1-4.1s4.2,1.6,4.2,4.1-1.9,4.1-4.2,4.1-4.1-1.6-4.1-4.1Z"/>
  <path class="st0" d="M20.4,23.1V1.9h6.5v31.3h-7L6.6,12.1v21.1H0V1.9h7l13.4,21.2ZM74,33.2h-7.3l-1.8-5h-13.2l-1.8,5h-7.1L54.9,1.9h7.2l11.9,31.3ZM40,33.2h-7V1.9h7v31.3ZM53.6,23.1h9.6l-4.7-13.5s-4.9,13.5-4.9,13.5Z"/>
  <metadata>
    <x:xmpmeta x:xmptk="Adobe XMP Core 10.0-c000 1.000000, 0000/00/00-00:00:00        " xmlns:x="adobe:ns:meta/">
      <rdf:RDF xmlns:rdf="http://www.w3.org/1999/02/22-rdf-syntax-ns#">
        <rdf:Description rdf:about="" xmlns:dc="http://purl.org/dc/elements/1.1/" xmlns:stDim="http://ns.adobe.com/xap/1.0/sType/Dimensions#" xmlns:xmp="http://ns.adobe.com/xap/1.0/" xmlns:xmpG="http://ns.adobe.com/xap/1.0/g/" xmlns:xmpGImg="http://ns.adobe.com/xap/1.0/g/img/" xmlns:xmpTPg="http://ns.adobe.com/xap/1.0/t/pg/">
          <xmp:CreatorTool>Adobe Illustrator 30.3 (Windows)
          </xmp:CreatorTool>
          <xmp:CreateDate>2026-04-16T12:56:11+09:00
          </xmp:CreateDate>
          <xmp:Thumbnails>
            <rdf:Alt>
              <rdf:li rdf:parseType="Resource">
                <xmpGImg:width>256
                </xmpGImg:width>
                <xmpGImg:height>24
                </xmpGImg:height>
                <xmpGImg:format>JPEG
                </xmpGImg:format>
                <xmpGImg:image>/9j/4AAQSkZJRgABAgEAAAAAAAD/7QAsUGhvdG9zaG9wIDMuMAA4QklNA+0AAAAAABAAAAAAAAEA
AQAAAAAAAQAB/+4ADkFkb2JlAGTAAAAAAf/bAIQABgQEBAUEBgUFBgkGBQYJCwgGBggLDAoKCwoK
DBAMDAwMDAwQDA4PEA8ODBMTFBQTExwbGxscHx8fHx8fHx8fHwEHBwcNDA0YEBAYGhURFRofHx8f
Hx8fHx8fHx8fHx8fHx8fHx8fHx8fHx8fHx8fHx8fHx8fHx8fHx8fHx8fHx8f/8AAEQgAGAEAAwER
AAIRAQMRAf/EAaIAAAAHAQEBAQEAAAAAAAAAAAQFAwIGAQAHCAkKCwEAAgIDAQEBAQEAAAAAAAAA
AQACAwQFBgcICQoLEAACAQMDAgQCBgcDBAIGAnMBAgMRBAAFIRIxQVEGE2EicYEUMpGhBxWxQiPB
UtHhMxZi8CRygvElQzRTkqKyY3PCNUQnk6OzNhdUZHTD0uIIJoMJChgZhJRFRqS0VtNVKBry4/PE
1OT0ZXWFlaW1xdXl9WZ2hpamtsbW5vY3R1dnd4eXp7fH1+f3OEhYaHiImKi4yNjo+Ck5SVlpeYmZ
qbnJ2en5KjpKWmp6ipqqusra6voRAAICAQIDBQUEBQYECAMDbQEAAhEDBCESMUEFURNhIgZxgZEy
obHwFMHR4SNCFVJicvEzJDRDghaSUyWiY7LCB3PSNeJEgxdUkwgJChgZJjZFGidkdFU38qOzwygp
0+PzhJSktMTU5PRldYWVpbXF1eX1RlZmdoaWprbG1ub2R1dnd4eXp7fH1+f3OEhYaHiImKi4yNjo
+DlJWWl5iZmpucnZ6fkqOkpaanqKmqq6ytrq+v/aAAwDAQACEQMRAD8AKvy//NXzB5f8z2t7qOoX
V9pjn0b63mlklHpORV1Vy3xJ9oU60p3zfZ9NGUaAouLGZBevf85D67dweTdHvtHv5YUurtWS4tZW
j9SJ4HZTyQiqnY5gaGAMyCOjblOyQfmTretW/wCTPky8t7+5hu5/Q9e4jmkWR62zk83BDNvvvlun
gDmkKYzPpD1X8rLq4ufy80K4upXmnktQ0k0rF3Y8juzNUnMLUishpthyfOHnz8wfNGsebdX1XSNQ
vINJtphHb/V5pEiWJD6cTkKQP3hXlv45tsOCMYAEC3HlIkvqDyZ5ih8x+VtN1qOn+mQq0qjosq/D
Kv8AsZFYZpsuPgkYuTE2LS38y9f1zQPLb6tpL2ytbyJ9YW5DtyRzwAjC/tc2HU9K5fosUMk+GV79
zRqckoRsPJLTVvP/AJZubfzKxtUXzc5kRpvUeOP1ZPUBKA1QEPyFOXw++beWPDlBhv8Au3XieSB4
tvWyS683voX5tO3mHUWgsksoluI4zNJb+u1ulSkShjQvWnw5jR0/iaf0De/K6tuObgzeo7UznXPK
MnmC5i1K28w6pp0EkKBILKdoYiN2D8KfaIbMHFqPDHCYxPvDlTw8ZsSI9zBPzJ8va15V8vLqdn5q
1qeVrhIeE13Jxo6sSfhKmvw5n6PNHLPhMIcu5xdTjljjYlL5s61fRtT1jy9p01vrN3pksFsJZZLZ
qNKWiU/GSfEfjmBjyRhMgxEt+rlTgZRFEhhP5TW3mPzJZjWbzzLf1sr4I9l6haOWONY5KPU1o/Iq
czdeYYzwiEdxzcbSCUxxGR2KP/L7UdSuPN/nuGa6mmjt7iUW0byMwjpPMAEBPw9B0yGrhEY8ZA5j
9AZaeRM57/jdKvy2/M+DS9Cnt/M0+oXd+108kUkiS3BEJjjCrzYkj4lbbLdZojOYMBECvc16bVcM
ald2zzQfzJ8ua5qcenWS3IuJQzL6sDRrRFLGrH2GYGXRzhHiNV73Lx6mMjQt55+aU+ueWNTszB5p
1BhqMsss1sJCPQh5inAA9PiIWvhmx0IhlibhHb7XD1RlAj1Hdrzzrt9onl280WG/1m/uGnt7iLXZ
RxtzG8auEiuEepBDeHWuOlxCcxIiAFH09fkueZjExuR80w8+eZdd0uy8hSWNzc1uola7ghdg1zxW
2PBv5i3IjfxyvS4YSOWwNvs5s8+SURCvxyRXnL8xfMh8s3wh8u6ppEnFeOouOCxfGu5YAUr0+nIa
fRw4xc4y8mWbUS4T6SPNlvku/u7r8v7C9u53luXs2kluHYliw5fEWOYmpgBmIA2tyMMicYJ7ki/I
3VtS1LypeTajeTXtwl/IgkuJGlcJ6MRC1csaVJy/tPHGOQCIocP6S1aGZlA2b3SH8vPPNrY+cfMO
m6zfzvLf6iltpcTmSVQ3ryoVX7QQVdB2/DMjV6UyxxlEDaO/yDTp84E5CR5nZKNeu/zC8363faIG
szJ5deS4eSAyRKxQ8eFW3Ynp0A98uxRw4Yie/ra8hyZJGO3pa1jz15v1v8uLnV7m5itgmpQW1ubH
1YZQVid5RIa/ZIdOND41xx6XHDMIgX6Sd1nnnLFxHv6M286adq/+FV8w22v3mnmy0yNvqsL0jllV
SwZjWvJy4XMHTTj4nAYg3Jys0TwcQkRQQn5ZWmtajoEHmW78xXt2zR3KTafI5aIMpdFrU1qBRsnr
ZRjMwEAOW7HTCRjxGR67N/kzc61qnkPUwdRlW/a8mjt76b/SWiPoQlSFkNGCk14nbHtERhlG21cu
XUrozKWM772wJp9c8z3N9fa35mt7S/8ALLO2nx3UMMMjujctkQKPtRDb499qZn1DEAIQJE+dX+Pu
cS5TJMpbxem/lFq3mrXNHk1jWtTN3FI7Qw2ptooQpjIrIskYXmDWlKZrO0MeOEuGIr4udpJzlHik
Xl+tXNnPqHmqfzXeXcHmO0kpoUILgKebUCUBULx49x8O4qc2mKJAgMYHAfqcCZBMuMni6Mg82ax5
oi8geTp726uLfUZ52Fwyu8cjxgn0vUoQSTHxJrmPgx4zmyAAGNN2Wc/DhZ3YF+T/AJJtPOGjeatK
lol0IbaawnP+67hDLxP+q32W9jg1WY4zEuXCN2x/W/NGq/4Oi8k6vG63WiagWg5/aRAkiSQtX+Rz
8PsadhlsMY4+MdQxJ2pn/wCaP/kjvI//AEb/APUK+Yun/vp/jq2T+kMom80/4c/5x30+5jfheXlm
tlZnv6k5YEj3WMMw+WUjHx6g+9ldQeeeRdT/AC6tfyz8w6TrOprb63rVeEZguHCfVxytatHG6/3t
WND0OZWaOQ5IkDYfgtcSKLMv+cY/NPqWmpeWZ3+OBhe2YJ/YeiTKPZW4n/ZHMftDHuJM8J6PYvM3
l+z8w6HdaReErDdKB6i/aRlYMjCvgyjMLDlOOYkOjLLjE4mJeV+XfKia9rcGhaj5i/SVn5SkZRYJ
bNCf3cnDg0jbEVjp1bbYeObXNn8OBnGHCcnW3Ax4uOXCZWIeScppV2/55XF3LZyNYG0AFw0bGEt6
KCnMjjWuUmY/KgXvf6W3gPj3W1IfztpH5b6brsn6Y/Sf129H1thatK0YEjsu3HZd0O2S02TPKHp4
aG27HPDFGXquy888q/4H/Rs3+Mv0h9Y9b9x6fqcPT4jr2ryrmxz+LxfuuGnDxeHXrt6vq2k+Ybby
9a+WfJVr/uNv4WabVrubeCOc1KgH4uRDdq08O+anHkgZmeU+odB1dhOEhERxjY9Uu0DyX5x8hakG
0UJrejXoiXUbdmEMsbrs0qAnoKmlK7bEbcssy6nHqI+r0yHJhjwzxH0+qJ5pf5HsLzUPNf5g2lnf
PptzLen072JQzpxvJWNASPtAcfpyzVTEceIkWK5fAMMESZzANb/pQWp6vrVvq1xpWneZ9c1q7syR
d/ULJJFjKmjAn1Adjsdqe+ThjiYiUoQiD3ljKcgaEpSI7gn/AJCGoeYXjv7TzlfzrYzRm+025t0j
egbl6b0dvhcKRUVyjVVj2OOO/I224LnuJnbooeY/LPk3ynZzar5pkufMurajW2hE5+NiR0iUH93x
H7VSR+z4YcObLlPDjqERujJihjFz9RLF5oZItMHlDVrfUNBs9YuIZNKlv5BdxQ8DugCiDgGLio/Z
2r45lA3LxImMzEb1t+toI24DcQeV7vQvNn5eprFn5etxrS6dd6BGFjm9JZObcYgH4mRONDDXvmvw
avgMjw2J/t/W5mXT8QiLrhYRpiebfN+q695X1LzWY7Gwd4nle3iZZxHMUBoGj41KBtmOZ0/Dwxjk
jDc+fLZxY8eQygZbBmWq6N5tg8sWHk/yz6VxbNbG3vtdkcRrGpNGURgu1WB7cqD78woZMZyHJk53
tFyZQmICEPmgdC8m+bvIWqctDVdb0O9ES39u7CGaORfhaVAaim5NBXbY9OWWZdRj1EfX6ZDkwx4Z
4j6fVEqf5OMq+ZPPLMaKt4hJPYCW5w9o/Rj936kaP6p+/wDWxr8xNQ0TTtZbW/KOvqtzrJaDVYLZ
0dVVgOUm245EV+fQ5k6SEpR4Mkdo8mnUSiJcUJfVzXedl8laV+W0WhaBqsOoT/XkuZysitI7FGVn
Kr0AAUY6bxZ5+Oca2XPwRxcMTe7LPNnl6/1LQ7a51jV2tPJ1nZ281xY2qVnlZUWvJiOlenX5Zh4M
wjMiMbyEnc8nIy4zKNyPoAd5V8ptbRLrXk/VpY/LOoh5J9HuY+VQAyH02PJgaj5+JOOfPfpyR9Y6
hcWKvVA+k9ED+Veh+ax5BurSxuX0HUTqbyCa4tg5MXoRAgRyjoT39ss12XH4wJHGOHv8yx0sJ+GQ
PSbYVrkx1DU7mZ9TbW5LU/6XqNnolrJEKftPJWPkNvtEU8MzcQ4YgVw30My4szZ58Xnwh6J5HtvM
es6Yk9n5uSbRfSmtmtbawgtJIXaJlXjwCmNomdXFNjTwzXaqUISow9XP6iXMwCUhtL0+6kh13yv5
ii87aTo6eZri6S4QNLPNcQi5i3Y/u4mf1CKLXYZkYs8DilLgAryNNWTFLxBHiY751/xNBDZWWsRa
g8a3/K3vdQkWTkAOPGMAbA/azI03AbMeH6eQac3EKEr59We/k5+VWseRrnVJdQu7e5W+SFIxb86q
Yy5PLmq/zZqNVqRkAocna44UgPzW/I2XzZrces6NcwWV3KnDUFnDhZGWgSQcFb4uOzfIZPTazgjR
3RPHZRXnD8pda1z8vPL3li3vLaK70f0vXmk9T039OFozwopbq3cZHFqRHJKVc0yhYASrzT+S3m7W
fLXlrQYtSs4rXRLdkm5GX95O7bsAE3CoBxr4nJ49XCMpSo7sTjJADNbb8nfy3htooW0O3maNFRpX
B5OVFOTb9T1OY51WTvZ+GGKaP+S2r+X/AMy18yaFd2tvogmJ+oEyBxBKnGWMAKV2JJTfsMvnqxLH
wy5sRjo2Hr2YDa8wtvy9896T5n1nWdD1KwiGrTyylZ0kchJJWkCkcSKjlm0lq8U8cYzEvSHBGnyR
mZRI3ZJodl+ZcWqQPrWo6fPpo5evFbxOspqhC8SVA2ehPtmNllgMfSJcTdCOW/URTK8xHIYn+Zvl
LUfNPlxdM0+SGKdbhJi1wzKnFFYEVRXNfi8My9FqI4p8R7nH1OI5I0GSadbvbafa20hBeGJI2K9C
UUA0rTwzGmbJLfEUAERkUsQ8oeSLrQvMnmHVprmOaPWZ2miiRSGjDSySUYnr/eZmajUjJCMQPpDj
YcBhKR/nJDa+S/PflbXNUvPKr2N5Yas/qPb3pdXjbkzLutK8eZ/a3HauZEtTiywiMlgx7moYcmOR
MKIPenP5d+RtQ8vy6pqerXMdxq+sS+rcrACIU+Jn+GoUklnNdso1eqGSoxFRi2afAYWTzKr+ZHki
580WFo1jcrbalp0vrWjyAmMk0qrUBI+yDWh+WDR6kYibFxKdTgOQCuYSC98k+e/Nmqaa/muSxtNN
0x+fpWRdnmaoJPxVA5caddvDMiOpxYonw7Mpd7VLDkyEcdUO5leu/l15O12/Ooarp/1m7ZVQy+tO
nwr0HGN1X8MxMWsy4xUTQ+DkT08JmyN0u/5U3+W//Vo/6ebr/qrln8o5/wCd9g/Uw/J4u772Q+Xv
LWieXrJ7LR7b6rbSSGZ4+cklZGVVJrIznog75j5s0shuRstuPFGAqKZ5U2MP8keRrny9qnmC8uLi
O5j1qdZkjVSOCh5WKtXr/e5manVDJGIArhH6nGwYDAyJ/iTb/BPkz/qwad/0iQf80ZV+Zy/zpfMt
ngQ/mj5JB52/K3Rta0ZbPR7Ox0q7EyyG6jtkQlFDApWNVbeozI02ulCVyJkPe1Z9LGUaiACnmu+X
bjUfJtxoMUqJPLarbrMwPDkqgVNN6bZRizCOUT823Jj4ocPkxPQ/Kn5raLpVvpdjq2li1tgViDxS
M1GYtueHi2ZWXPp5yMjGVlx4Ys0RQIZd5dtPNS2lzF5lura6kkNIWtFZAEK0YNyA3zEzSx2OAEe9
yMYnXqIYPovk38yPKEV7pvlyXT73TbuRpYprrms0TMoXkyj4T8Kjb4h+IzOyajBmqU+ISHc4sMOX
HYjRDJvy28jyeUtGltri4W4vbqX1rl46iMGgUKlaEgeNBmNrNT40rAoBv02Dw40eaVebvIPmXUPO
tp5n0S9tbea0hWONblXb4hzBNFVgRSTLdPq4RxHHIE33NebTyMxOJCrJpH5vSU9TVNIem45QOafe
mRGTTDpL5p4M3fF//9k=
                </xmpGImg:image>
              </rdf:li>
            </rdf:Alt>
          </xmp:Thumbnails>
          <xmpTPg:MaxPageSize rdf:parseType="Resource">
            <stDim:w>405.000000
            </stDim:w>
            <stDim:h>35.000000
            </stDim:h>
            <stDim:unit>Pixels
            </stDim:unit>
          </xmpTPg:MaxPageSize>
          <xmpTPg:NPages>1
          </xmpTPg:NPages>
          <xmpTPg:HasVisibleTransparency>False
          </xmpTPg:HasVisibleTransparency>
          <xmpTPg:HasVisibleOverprint>False
          </xmpTPg:HasVisibleOverprint>
          <xmpTPg:PlateNames>
            <rdf:Seq>
              <rdf:li>Cyan
              </rdf:li>
              <rdf:li>Magenta
              </rdf:li>
              <rdf:li>Yellow
              </rdf:li>
              <rdf:li>Black
              </rdf:li>
            </rdf:Seq>
          </xmpTPg:PlateNames>
          <xmpTPg:SwatchGroups>
            <rdf:Seq>
              <rdf:li rdf:parseType="Resource">
                <xmpG:groupName>Default Swatch Group
                </xmpG:groupName>
                <xmpG:groupType>0
                </xmpG:groupType>
              </rdf:li>
            </rdf:Seq>
          </xmpTPg:SwatchGroups>
          <dc:format>image/svg+xml
          </dc:format>
        </rdf:Description>
      </rdf:RDF>
    </x:xmpmeta>
    <sfw xmlns="http://ns.adobe.com/SaveForWeb/1.0/">
      <slices/>
      <sliceSourceBounds x="0" y="0.7" width="404.3" height="33.6" bottomLeftOrigin="true"/>
    </sfw>
  </metadata>
  <metadata><?xpacket begin="﻿" id="W5M0MpCehiHzreSzNTczkc9d"?>
<x:xmpmeta xmlns:x="adobe:ns:meta/" x:xmptk="Adobe XMP Core 10.0-c000 1.000000, 0000/00/00-00:00:00        ">
   <rdf:RDF xmlns:rdf="http://www.w3.org/1999/02/22-rdf-syntax-ns#">
      <rdf:Description rdf:about=""
            xmlns:xmp="http://ns.adobe.com/xap/1.0/"
            xmlns:xmpGImg="http://ns.adobe.com/xap/1.0/g/img/"
            xmlns:xmpTPg="http://ns.adobe.com/xap/1.0/t/pg/"
            xmlns:stDim="http://ns.adobe.com/xap/1.0/sType/Dimensions#"
            xmlns:xmpG="http://ns.adobe.com/xap/1.0/g/"
            xmlns:dc="http://purl.org/dc/elements/1.1/">
         <xmp:CreatorTool>Adobe Illustrator 30.3 (Windows)</xmp:CreatorTool>
         <xmp:CreateDate>2026-04-23T00:32:21+09:00</xmp:CreateDate>
         <xmp:Thumbnails>
            <rdf:Alt>
               <rdf:li rdf:parseType="Resource">
                  <xmpGImg:width>256</xmpGImg:width>
                  <xmpGImg:height>24</xmpGImg:height>
                  <xmpGImg:format>JPEG</xmpGImg:format>
                  <xmpGImg:image>/9j/4AAQSkZJRgABAgEAAAAAAAD/7QAsUGhvdG9zaG9wIDMuMAA4QklNA+0AAAAAABAAAAAAAAEA&#xA;AQAAAAAAAQAB/+4ADkFkb2JlAGTAAAAAAf/bAIQABgQEBAUEBgUFBgkGBQYJCwgGBggLDAoKCwoK&#xA;DBAMDAwMDAwQDA4PEA8ODBMTFBQTExwbGxscHx8fHx8fHx8fHwEHBwcNDA0YEBAYGhURFRofHx8f&#xA;Hx8fHx8fHx8fHx8fHx8fHx8fHx8fHx8fHx8fHx8fHx8fHx8fHx8fHx8fHx8f/8AAEQgAGAEAAwER&#xA;AAIRAQMRAf/EAaIAAAAHAQEBAQEAAAAAAAAAAAQFAwIGAQAHCAkKCwEAAgIDAQEBAQEAAAAAAAAA&#xA;AQACAwQFBgcICQoLEAACAQMDAgQCBgcDBAIGAnMBAgMRBAAFIRIxQVEGE2EicYEUMpGhBxWxQiPB&#xA;UtHhMxZi8CRygvElQzRTkqKyY3PCNUQnk6OzNhdUZHTD0uIIJoMJChgZhJRFRqS0VtNVKBry4/PE&#xA;1OT0ZXWFlaW1xdXl9WZ2hpamtsbW5vY3R1dnd4eXp7fH1+f3OEhYaHiImKi4yNjo+Ck5SVlpeYmZ&#xA;qbnJ2en5KjpKWmp6ipqqusra6voRAAICAQIDBQUEBQYECAMDbQEAAhEDBCESMUEFURNhIgZxgZEy&#xA;obHwFMHR4SNCFVJicvEzJDRDghaSUyWiY7LCB3PSNeJEgxdUkwgJChgZJjZFGidkdFU38qOzwygp&#xA;0+PzhJSktMTU5PRldYWVpbXF1eX1RlZmdoaWprbG1ub2R1dnd4eXp7fH1+f3OEhYaHiImKi4yNjo&#xA;+DlJWWl5iZmpucnZ6fkqOkpaanqKmqq6ytrq+v/aAAwDAQACEQMRAD8A9U4q7FXYq7FXYq7FXYq7&#xA;FXYq7FXYq7FXYq7FXYq7FXYq7FXYq7FXYq7FXYq7FXYq7FXYq7FXYq7FXYq7FXYq7FXYq7FXYq7F&#xA;XYq7FXYq7FXYq7FXYq7FXYq7FXYq7FXYq7FXYq7FXYq7FXYq7FXYq7FXYq7FXYq7FXYq7FXYq7FX&#xA;Yq7FXYq7FXYq7FXYq7FXYq7FXYq7FXYq7FXYq7FXYq7FXYq7FXYq7FXYq7FXYq7FXYq7FX//2Q==</xmpGImg:image>
               </rdf:li>
            </rdf:Alt>
         </xmp:Thumbnails>
         <xmpTPg:MaxPageSize rdf:parseType="Resource">
            <stDim:w>405.000000</stDim:w>
            <stDim:h>35.000000</stDim:h>
            <stDim:unit>Pixels</stDim:unit>
         </xmpTPg:MaxPageSize>
         <xmpTPg:NPages>1</xmpTPg:NPages>
         <xmpTPg:HasVisibleTransparency>False</xmpTPg:HasVisibleTransparency>
         <xmpTPg:HasVisibleOverprint>False</xmpTPg:HasVisibleOverprint>
         <xmpTPg:SwatchGroups>
            <rdf:Seq>
               <rdf:li rdf:parseType="Resource">
                  <xmpG:groupName>Default Swatch Group</xmpG:groupName>
                  <xmpG:groupType>0</xmpG:groupType>
               </rdf:li>
            </rdf:Seq>
         </xmpTPg:SwatchGroups>
         <dc:format>image/svg+xml</dc:format>
      </rdf:Description>
   </rdf:RDF>
</x:xmpmeta>
                                                                                                    
                                                                                                    
                                                                                                    
                                                                                                    
                                                                                                    
                                                                                                    
                                                                                                    
                                                                                                    
                                                                                                    
                                                                                                    
                                                                                                    
                                                                                                    
                                                                                                    
                                                                                                    
                                                                                                    
                                                                                                    
                                                                                                    
                                                                                                    
                                                                                                    
                                                                                                    
                           
<?xpacket end="w"?>
  </metadata>
</svg>