<svg width="60" height="60" viewBox="0 0 60 60" xmlns="http://www.w3.org/2000/svg">
<path d="M30 6C43.2548 6 54 16.7452 54 30C54 43.2548 43.2548 54 30 54C16.7452 54 6 43.2548 6 30C6 16.7452 16.7452 6 30 6ZM30.5928 35.6211L36.9258 41.9541C37.5113 42.5398 37.5114 43.4895 36.9258 44.0752C36.3401 44.6607 35.3904 44.6607 34.8047 44.0752L23.9717 33.2422L13.8223 43.3916C17.6742 48.0397 23.4916 51 30 51C39.9702 51 48.3161 44.0516 50.4629 34.7334L40.9717 25.2422L30.5928 35.6211ZM30 9C18.402 9 9 18.402 9 30C9 33.9975 10.1168 37.7343 12.0557 40.915L22.5576 30.4141C23.3387 29.6331 24.6047 29.633 25.3857 30.4141L28.4717 33.5L39.5576 22.4141C40.3387 21.6331 41.6047 21.633 42.3857 22.4141L50.9756 31.0039C50.9912 30.6712 51 30.3366 51 30C51 18.402 41.598 9 30 9ZM22 15C25.3137 15 28 17.6863 28 21C28 24.3137 25.3137 27 22 27C18.6863 27 16 24.3137 16 21C16 17.6863 18.6863 15 22 15ZM22 17.5C20.067 17.5 18.5 19.067 18.5 21C18.5 22.933 20.067 24.5 22 24.5C23.933 24.5 25.5 22.933 25.5 21C25.5 19.067 23.933 17.5 22 17.5Z" fill="currentColor"/>
</svg>
