<svg width="60" height="60" viewBox="0 0 60 60" fill="none" xmlns="http://www.w3.org/2000/svg">
<path d="M14.8493 23.9024C15.2863 22.5152 16.9983 22.0562 18.07 22.9942L18.1706 23.0889L37.3102 42.2286C38.3715 43.2903 37.9286 45.0989 36.4967 45.5499L8.56024 54.3478C7.01758 54.8332 5.56664 53.3817 6.05243 51.839L14.8493 23.9024ZM9.48993 50.9103L34.0231 43.1847L17.2155 26.376L9.48993 50.9103ZM41.988 39.0001C42.8162 39.0003 43.488 39.6718 43.488 40.5001C43.488 41.3284 42.8162 41.9999 41.988 42.0001C41.1595 42.0001 40.488 41.3285 40.488 40.5001C40.488 39.6717 41.1595 39.0001 41.988 39.0001ZM38.4577 29.2325C40.6055 27.0848 44.0881 27.0849 46.236 29.2325L46.3786 29.376C46.9643 29.9618 46.9643 30.9114 46.3786 31.4971C45.7928 32.0827 44.8432 32.0828 44.2575 31.4971L44.1149 31.3546C43.1386 30.3783 41.5551 30.3783 40.5788 31.3546L37.4645 34.4688C36.8787 35.0541 35.929 35.0544 35.3434 34.4688C34.7577 33.8831 34.7578 32.9326 35.3434 32.3468L38.4577 29.2325ZM44.2594 14.5196C44.8452 13.9341 45.7948 13.9339 46.3805 14.5196C46.9662 15.1053 46.966 16.0549 46.3805 16.6407L33.0094 30.0118C32.4237 30.5975 31.4741 30.5975 30.8884 30.0118C30.3026 29.426 30.3026 28.4765 30.8884 27.8907L44.2594 14.5196ZM44.988 23C45.8162 23.0002 46.4879 23.6717 46.4879 24.5001C46.4879 25.3284 45.8162 25.9999 44.988 26.0001C44.1595 26.0001 43.488 25.3285 43.488 24.5001C43.488 23.6716 44.1595 23 44.988 23ZM33.8581 10.0625C34.4438 9.47705 35.3935 9.47694 35.9792 10.0625L36.8288 10.9131C38.5861 12.6705 38.5861 15.519 36.8288 17.2764L28.5514 25.5547C27.9657 26.1405 27.0152 26.1405 26.4294 25.5547C25.8439 24.969 25.8438 24.0194 26.4294 23.4336L34.7077 15.1553C35.2934 14.5695 35.2934 13.62 34.7077 13.0342L33.8581 12.1836C33.2724 11.5978 33.2723 10.6483 33.8581 10.0625ZM52.9879 17C53.8162 17.0002 54.4879 17.6717 54.4879 18.5C54.4879 19.3284 53.8162 19.9999 52.9879 20C52.1595 20 51.4879 19.3285 51.4879 18.5C51.4879 17.6716 52.1595 17 52.9879 17ZM22.988 16C23.8162 16.0002 24.488 16.6717 24.488 17.5C24.488 18.3284 23.8162 18.9999 22.988 19C22.1595 19 21.488 18.3285 21.488 17.5C21.488 16.6716 22.1595 16 22.988 16ZM41.988 5C42.8162 5.00018 43.488 5.67169 43.488 6.5C43.488 7.32832 42.8162 7.99983 41.988 8.00001C41.1595 8.00001 40.488 7.32843 40.488 6.5C40.488 5.67157 41.1595 5 41.988 5Z" fill="#fff"/>
</svg>
