<svg width="230" height="70" viewBox="0 0 230 70" fill="none" xmlns="http://www.w3.org/2000/svg">
<rect x="1" y="1" width="228" height="68" rx="9" fill="white"/>
<rect x="1" y="1" width="228" height="68" rx="9" stroke="white" stroke-width="2"/>
<path d="M38 48H50C50 51.3137 47.3137 54 44 54C40.6863 54 38 51.3137 38 48Z" fill="black"/>
<path fill-rule="evenodd" clip-rule="evenodd" d="M44 16C50.2591 16.0001 55.3329 21.074 55.333 27.333V36.208L60.4629 42.4365C61.6611 43.8913 60.7237 46.2215 58.9405 46.2217H29.0596C27.2762 46.2217 26.3388 43.8914 27.5371 42.4365L32.667 36.208V27.333C32.6672 21.0739 37.7409 16 44 16Z" fill="black"/>
<!-- <path d="M97.2367 24.8672C97.2367 28.8047 99.9437 32.707 105.006 34.2891L103.002 37.3125C99.3988 36.1699 96.7797 33.7617 95.3383 30.7383C93.8969 34.0254 91.2074 36.6445 87.4281 37.9102L85.4242 34.8867C90.5219 33.1641 93.2641 29.0156 93.2992 24.8672V24.4805H86.4437V21.3516H103.916V24.4805H97.2367V24.8672ZM111.651 19.3477V38.5078H107.713V19.3477H111.651ZM111.651 39.9844V51.1289H107.713V43.1484H89.9594V39.9844H111.651ZM142.04 19.3828V43.4297H138.102V40.6523H131.88V37.9102H138.102V19.3828H142.04ZM142.778 47.332V50.4961H119.47V41.1094H123.372V47.332H142.778ZM115.251 33.6562C121.122 33.6211 128.997 33.5508 135.747 32.707L135.958 35.5195C133.339 35.959 130.632 36.2578 127.942 36.4336V42.5508H124.04V36.6445C121.069 36.7676 118.239 36.7852 115.743 36.7852L115.251 33.6562ZM125.622 20.543C130.262 20.543 133.497 22.8281 133.532 26.168C133.497 29.5781 130.262 31.7578 125.622 31.7578C120.911 31.7578 117.677 29.5781 117.677 26.168C117.677 22.8281 120.911 20.543 125.622 20.543ZM125.622 23.4258C123.091 23.4258 121.368 24.4453 121.368 26.168C121.368 27.8906 123.091 28.9102 125.622 28.9102C128.048 28.9102 129.77 27.8906 129.805 26.168C129.77 24.4453 128.048 23.4258 125.622 23.4258ZM173.167 23.6016V26.7656H146.905V23.6016H158.12V19.7695H161.988V23.6016H173.167ZM174.644 44.5547V47.7188H145.605V44.5547H158.12V40.6523C152.618 40.2129 149.296 38.0156 149.331 34.5C149.296 30.668 153.409 28.3828 160.054 28.3828C166.593 28.3828 170.741 30.668 170.741 34.5C170.741 37.998 167.402 40.1953 161.988 40.6172V44.5547H174.644ZM160.054 31.4414C155.73 31.4766 153.304 32.4961 153.339 34.5C153.304 36.5391 155.73 37.5586 160.054 37.5938C164.308 37.5586 166.734 36.5391 166.734 34.5C166.734 32.4961 164.308 31.4766 160.054 31.4414ZM204.716 33.0938V35.9766H192.201V38.2969H201.166V45.75H183.095V47.9297H202.045V50.8477H179.263V43.0781H197.334V41.1094H179.228V38.2969H188.334V35.9766H175.888V33.0938H204.716ZM192.201 19.2773V21.9492H201.939V24.8672H192.623C193.379 27.1172 197.07 28.8047 203.416 29.1211L202.255 32.0391C196.56 31.6875 192.271 30.1406 190.267 27.5742C188.263 30.1406 183.992 31.6875 178.244 32.0391L177.154 29.1211C183.429 28.8047 187.121 27.1172 187.947 24.8672H178.666V21.9492H188.334V19.2773H192.201Z" fill="black"/> -->
<path d="M198 6H220C222.209 6 224 7.79086 224 10V32L211.366 19L198 6Z" fill="black"/>
</svg>
