<svg width="416" height="70" viewBox="0 0 416 70" fill="none" xmlns="http://www.w3.org/2000/svg">
<rect x="1" y="1" width="414" height="68" rx="9" fill="black"/>
<rect x="1" y="1" width="414" height="68" rx="9" stroke="white" stroke-width="2"/>
<path d="M126 18H161C161.552 18 162 18.4477 162 19V51C162 51.5523 161.552 52 161 52H126C125.448 52 125 51.5523 125 51V19C125 18.4477 125.448 18 126 18Z" stroke="white" stroke-width="2"/>
<path d="M129 39C129 37.8954 129.895 37 131 37H156C157.105 37 158 37.8954 158 39V46C158 47.1046 157.105 48 156 48H131C129.895 48 129 47.1046 129 46V39Z" fill="white"/>
<path d="M143.5 23V34M143.5 34L139 29.875M143.5 34L148 29.875" stroke="white" stroke-width="2" stroke-linecap="round" stroke-linejoin="round"/>
<!-- <path d="M206.534 19.4531V26.9062H211.104V29.7188H206.534V37.1367H203.194V19.4531H206.534ZM186.565 21.1406V32.1797C190.836 32.1445 195.301 31.8105 200.135 30.8086L200.557 33.5508C195.248 34.6406 190.432 34.9922 185.791 34.9922H183.225V21.1406H186.565ZM207.026 38.6484V41.3555H198.377C198.659 44.4668 202.807 47.4375 208.327 48.2812L206.991 50.8477C202.262 50.0918 198.377 47.8066 196.584 44.7656C194.809 47.8242 190.907 50.0039 186.178 50.7773L184.842 48.2461C190.397 47.4375 194.493 44.5195 194.827 41.3555H186.108V38.6484H207.026ZM240.72 35.9414V38.6133H211.997V35.9414H240.72ZM237.485 47.6133V50.3203H215.618V41.1797H218.993V47.6133H237.485ZM226.341 20.543C233.161 20.5078 237.591 22.8984 237.591 26.8359C237.591 30.8086 233.161 33.1992 226.341 33.2344C219.485 33.1992 215.091 30.8086 215.091 26.8359C215.091 22.8984 219.485 20.5078 226.341 20.543ZM226.341 23.2148C221.524 23.2148 218.501 24.5859 218.536 26.8359C218.501 29.1562 221.524 30.4922 226.341 30.4922C231.157 30.4922 234.145 29.1562 234.145 26.8359C234.145 24.5859 231.157 23.2148 226.341 23.2148ZM266.89 19.4883V32.6719H271.636V35.4844H266.89V50.9883H263.55V19.4883H266.89ZM241.823 42.4102C244.302 42.4102 247.185 42.4102 250.191 42.3047V39.1055C246.64 38.6133 244.32 36.4688 244.355 33.4102C244.32 29.8594 247.378 27.5039 251.878 27.5039C256.343 27.5039 259.437 29.8594 259.472 33.4102C259.437 36.4688 257.081 38.6309 253.53 39.1406V42.1641C256.325 42.0586 259.138 41.8301 261.757 41.4609L261.968 43.9219C255.148 45.1523 247.765 45.1875 242.351 45.1875L241.823 42.4102ZM261.3 23.2148V25.8867H242.421V23.2148H250.191V19.5586H253.53V23.2148H261.3ZM251.878 30.1055C249.241 30.1055 247.484 31.4062 247.484 33.4102C247.484 35.4141 249.241 36.6445 251.878 36.6445C254.515 36.6445 256.273 35.4141 256.273 33.4102C256.273 31.4062 254.515 30.1055 251.878 30.1055ZM288.49 22.1602V24.832H295.345V19.5234H298.685V42.4805H295.345V34.3242H288.49V37.0664H273.865V22.1602H288.49ZM277.17 24.8672V34.4297H285.22V24.8672H277.17ZM299.388 47.6133V50.3203H278.119V40.3711H281.494V47.6133H299.388ZM288.49 31.582H295.345V27.5742H288.49V31.582Z" fill="white"/> -->
</svg>
