<svg width="416" height="70" viewBox="0 0 416 70" fill="none" xmlns="http://www.w3.org/2000/svg">
<rect x="1" y="1" width="414" height="68" rx="9" fill="white"/>
<rect x="1" y="1" width="414" height="68" rx="9" stroke="white" stroke-width="2"/>
<path d="M126 18H161C161.552 18 162 18.4477 162 19V51C162 51.5523 161.552 52 161 52H126C125.448 52 125 51.5523 125 51V19C125 18.4477 125.448 18 126 18Z" stroke="black" stroke-width="2"/>
<path d="M129 39C129 37.8954 129.895 37 131 37H156C157.105 37 158 37.8954 158 39V46C158 47.1046 157.105 48 156 48H131C129.895 48 129 47.1046 129 46V39Z" fill="black"/>
<path d="M143.5 23V34M143.5 34L139 29.875M143.5 34L148 29.875" stroke="black" stroke-width="2" stroke-linecap="round" stroke-linejoin="round"/>
<!-- <path d="M206.745 19.3477V26.5898H211.174V29.8242H206.745V36.9609H202.842V19.3477H206.745ZM186.987 20.9648V31.8281C191.065 31.793 195.354 31.4414 199.995 30.4922L200.452 33.6914C195.178 34.7812 190.291 35.0977 185.686 35.0977H183.049V20.9648H186.987ZM207.202 38.3672V41.4961H198.694C199.08 44.2734 202.737 47.1738 208.537 47.9648L207.026 50.918C202.121 50.2148 198.395 48.0352 196.62 45.1523C194.791 48.0352 191.082 50.1445 186.178 50.8477L184.631 47.8945C190.485 47.1562 194.071 44.3613 194.475 41.4961H185.932V38.3672H207.202ZM240.86 35.7656V38.8945H211.891V35.7656H240.86ZM237.591 47.332V50.4961H215.477V41.25H219.38V47.332H237.591ZM226.341 20.3672C233.266 20.3672 237.766 22.793 237.802 26.8008C237.766 30.8438 233.266 33.3047 226.341 33.3047C219.415 33.3047 214.88 30.8438 214.88 26.8008C214.88 22.793 219.415 20.3672 226.341 20.3672ZM226.341 23.4961C221.735 23.4961 218.923 24.6914 218.958 26.8008C218.923 28.9453 221.735 30.1406 226.341 30.1055C230.981 30.1406 233.759 28.9453 233.759 26.8008C233.759 24.6914 230.981 23.4961 226.341 23.4961ZM267.241 19.3477V32.4609H271.706V35.7305H267.241V51.1289H263.304V19.3477H267.241ZM241.718 42.3047C244.126 42.3047 246.921 42.3047 249.839 42.2344V39.2461C246.376 38.666 244.109 36.4863 244.144 33.5156C244.109 29.9297 247.273 27.5391 251.843 27.5391C256.343 27.5391 259.542 29.9297 259.577 33.5156C259.542 36.5039 257.239 38.6836 253.777 39.2461V42.0938C256.448 41.9531 259.12 41.7422 261.616 41.3906L261.862 44.2383C255.042 45.4688 247.695 45.5391 242.28 45.5391L241.718 42.3047ZM261.265 23.0039V26.0977H242.316V23.0039H249.839V19.4883H253.777V23.0039H261.265ZM251.843 30.5273C249.417 30.5625 247.835 31.6523 247.835 33.5156C247.835 35.3438 249.417 36.4336 251.843 36.3984C254.234 36.4336 255.816 35.3438 255.816 33.5156C255.816 31.6523 254.234 30.5625 251.843 30.5273ZM288.63 22.0195V24.5508H295.029V19.3828H298.931V42.5156H295.029V34.5H288.63V37.2422H273.689V22.0195H288.63ZM277.591 25.1133V34.1836H284.763V25.1133H277.591ZM299.634 47.332V50.4961H277.978V40.3711H281.951V47.332H299.634ZM288.63 31.3711H295.029V27.75H288.63V31.3711Z" fill="black"/> -->
<path d="M384 6H406C408.209 6 410 7.79086 410 10V32L397.366 19L384 6Z" fill="black"/>
</svg>
