<svg width="160" height="160" viewBox="0 0 160 160" fill="none" xmlns="http://www.w3.org/2000/svg">
<path d="M33.3333 45.7402V114.209L68.6667 126.499V32.9394L33.3333 45.7402ZM74 126.499L73.9896 126.839C73.7742 130.325 70.2717 132.704 66.9141 131.536L31.5807 119.247C29.5706 118.547 28.1824 116.726 28.0169 114.631L28 114.209V45.7402C28.0002 43.636 29.2357 41.7433 31.1289 40.8847L31.5169 40.7259L66.8503 27.9251C70.3275 26.6653 74 29.241 74 32.9394V126.499Z" fill="black"/>
<path d="M140.234 58.949C140.234 67.9804 138.157 75.1962 134.062 80.4117C129.118 86.7085 121.307 90.1056 110.825 90.5257V101.432C110.825 102.869 109.107 103.647 107.99 102.716L81.9391 80.9907C81.132 80.3176 81.132 79.0962 81.9391 78.4232L107.99 56.6979C109.107 55.7664 110.825 56.5444 110.825 57.9817V68.8036C117.189 68.6358 121.995 67.7351 125.822 66.0069C129.957 64.1392 132.956 61.3481 136.19 57.7325L137.22 56.5791C138.267 55.4084 140.234 56.1335 140.234 57.6897V58.949Z" fill="black"/>
<path d="M109.333 41.332C111.542 41.332 113.333 43.123 113.333 45.332V52.3418C111.639 51.1157 109.416 50.6549 107.333 51.1855V47.332H34V112.665H107.333V108.224C109.416 108.755 111.639 108.295 113.333 107.068V114.665C113.333 116.874 111.542 118.665 109.333 118.665H32C29.7909 118.665 28 116.874 28 114.665V45.332C28.0002 43.123 29.791 41.332 32 41.332H109.333ZM108.206 56.542C109.315 55.865 110.825 56.6329 110.825 57.9805V68.8018C111.689 68.779 112.525 68.7405 113.333 68.6904V90.3604C112.515 90.434 111.679 90.4902 110.825 90.5244V101.431C110.825 102.868 109.107 103.646 107.99 102.715L107.333 102.166V57.2441L107.99 56.6963L108.206 56.542Z" fill="black"/>
<path d="M66.8496 28.3232C70.3269 27.0634 74 29.6394 74 33.3379V126.897C74 130.567 70.3808 133.14 66.915 131.935L31.5811 119.645C29.4371 118.899 28 116.877 28 114.607V46.1396C28 43.8947 29.4059 41.8897 31.5166 41.125L66.8496 28.3232ZM64.5 75C62.567 75 61 77.2386 61 80C61.0001 82.7613 62.5671 85 64.5 85C66.4329 85 67.9999 82.7613 68 80C68 77.2386 66.433 75 64.5 75Z" fill="black"/>
</svg>
