<svg width="150" height="150" viewBox="0 0 150 150" fill="none" xmlns="http://www.w3.org/2000/svg">
<path d="M54.4737 20C76.2744 20 93.9474 26.332 93.9474 34.1429V89.1429C93.9474 96.9537 76.2744 103.286 54.4737 103.286C32.673 103.286 15 96.9537 15 89.1429V34.1429C15 26.332 32.673 20 54.4737 20Z" fill="white"/>
<path d="M89.2105 89.1429V34.1429C89.2105 34.1005 89.2003 33.4351 87.775 32.2277C86.3686 31.0364 84.0538 29.7511 80.7807 28.5784C74.2747 26.2474 64.9744 24.7143 54.4737 24.7143C43.973 24.7143 34.6727 26.2474 28.1666 28.5784C24.8936 29.7511 22.5788 31.0364 21.1724 32.2277C19.747 33.4351 19.7368 34.1005 19.7368 34.1429V89.1429C19.7368 89.1852 19.747 89.8507 21.1724 91.058C22.5788 92.2493 24.8936 93.5346 28.1666 94.7073C34.6727 97.0383 43.973 98.5714 54.4737 98.5714V103.286C32.673 103.286 15 96.9537 15 89.1429V34.1429C15 26.332 32.673 20 54.4737 20C76.2744 20 93.9474 26.332 93.9474 34.1429V89.1429C93.9474 96.9537 76.2744 103.286 54.4737 103.286V98.5714C64.9744 98.5714 74.2747 97.0383 80.7807 94.7073C84.0538 93.5346 86.3686 92.2493 87.775 91.058C89.2003 89.8507 89.2105 89.1852 89.2105 89.1429Z" fill="#2B54CA"/>
<path d="M93.9474 86.0001C93.9474 95.5467 76.2744 103.286 54.4737 103.286C32.673 103.286 15 95.5467 15 86.0001C15 76.4534 32.673 68.7144 54.4737 68.7144C76.2744 68.7144 93.9474 76.4534 93.9474 86.0001Z" fill="white"/>
<path d="M89.2105 86.0001C89.2105 85.1638 88.8441 84.0009 87.4311 82.538C85.9957 81.0519 83.6911 79.4991 80.4785 78.0923C74.0662 75.2843 64.8756 73.4286 54.4737 73.4286C44.0718 73.4286 34.8812 75.2843 28.4689 78.0923C25.2562 79.4991 22.9516 81.0519 21.5162 82.538C20.1033 84.0009 19.7368 85.1638 19.7368 86.0001C19.7368 86.8363 20.1033 87.9993 21.5162 89.4621C22.9516 90.9482 25.2562 92.501 28.4689 93.9079C34.8812 96.7159 44.0718 98.5715 54.4737 98.5715V103.286C32.673 103.286 15 95.5467 15 86.0001C15 76.4534 32.673 68.7144 54.4737 68.7144C76.2744 68.7144 93.9474 76.4534 93.9474 86.0001C93.9474 95.5467 76.2744 103.286 54.4737 103.286V98.5715C64.8756 98.5715 74.0662 96.7159 80.4785 93.9079C83.6911 92.501 85.9957 90.9482 87.4311 89.4621C88.8441 87.9993 89.2105 86.8363 89.2105 86.0001Z" fill="#2B54CA"/>
<path d="M93.9474 75.0001C93.9474 84.5467 76.2744 92.2858 54.4737 92.2858C32.673 92.2858 15 84.5467 15 75.0001C15 65.4534 32.673 57.7144 54.4737 57.7144C76.2744 57.7144 93.9474 65.4534 93.9474 75.0001Z" fill="white"/>
<path d="M89.2105 75.0001C89.2105 74.1638 88.8441 73.0009 87.4311 71.538C85.9957 70.0519 83.6911 68.4991 80.4785 67.0923C74.0662 64.2843 64.8756 62.4286 54.4737 62.4286C44.0718 62.4286 34.8812 64.2843 28.4689 67.0923C25.2562 68.4991 22.9516 70.0519 21.5162 71.538C20.1033 73.0009 19.7368 74.1638 19.7368 75.0001C19.7368 75.8363 20.1033 76.9993 21.5162 78.4621C22.9516 79.9482 25.2562 81.501 28.4689 82.9079C34.8812 85.7159 44.0718 87.5715 54.4737 87.5715V92.2858C32.673 92.2858 15 84.5467 15 75.0001C15 65.4534 32.673 57.7144 54.4737 57.7144C76.2744 57.7144 93.9474 65.4534 93.9474 75.0001C93.9474 84.5467 76.2744 92.2858 54.4737 92.2858V87.5715C64.8756 87.5715 74.0662 85.7159 80.4785 82.9079C83.6911 81.501 85.9957 79.9482 87.4311 78.4621C88.8441 76.9993 89.2105 75.8363 89.2105 75.0001Z" fill="#2B54CA"/>
<path d="M93.9474 64.0001C93.9474 73.5467 76.2744 81.2858 54.4737 81.2858C32.673 81.2858 15 73.5467 15 64.0001C15 54.4534 32.673 46.7144 54.4737 46.7144C76.2744 46.7144 93.9474 54.4534 93.9474 64.0001Z" fill="white"/>
<path d="M89.2105 64.0001C89.2105 63.1638 88.8441 62.0009 87.4311 60.538C85.9957 59.0519 83.6911 57.4991 80.4785 56.0923C74.0662 53.2843 64.8756 51.4286 54.4737 51.4286C44.0718 51.4286 34.8812 53.2843 28.4689 56.0923C25.2562 57.4991 22.9516 59.0519 21.5162 60.538C20.1033 62.0009 19.7368 63.1638 19.7368 64.0001C19.7368 64.8363 20.1033 65.9993 21.5162 67.4621C22.9516 68.9482 25.2562 70.501 28.4689 71.9079C34.8812 74.7159 44.0718 76.5715 54.4737 76.5715V81.2858C32.673 81.2858 15 73.5467 15 64.0001C15 54.4534 32.673 46.7144 54.4737 46.7144C76.2744 46.7144 93.9474 54.4534 93.9474 64.0001C93.9474 73.5467 76.2744 81.2858 54.4737 81.2858V76.5715C64.8756 76.5715 74.0662 74.7159 80.4785 71.9079C83.6911 70.501 85.9957 68.9482 87.4311 67.4621C88.8441 65.9993 89.2105 64.8363 89.2105 64.0001Z" fill="#2B54CA"/>
<path d="M93.9474 53.0001C93.9474 62.5467 76.2744 70.2858 54.4737 70.2858C32.673 70.2858 15 62.5467 15 53.0001C15 43.4534 32.673 35.7144 54.4737 35.7144C76.2744 35.7144 93.9474 43.4534 93.9474 53.0001Z" fill="white"/>
<path d="M89.2105 53.0001C89.2105 52.1638 88.8441 51.0009 87.4311 49.538C85.9957 48.0519 83.6911 46.4991 80.4785 45.0923C74.0662 42.2843 64.8756 40.4286 54.4737 40.4286C44.0718 40.4286 34.8812 42.2843 28.4689 45.0923C25.2562 46.4991 22.9516 48.0519 21.5162 49.538C20.1033 51.0009 19.7368 52.1638 19.7368 53.0001C19.7368 53.8363 20.1033 54.9993 21.5162 56.4621C22.9516 57.9482 25.2562 59.501 28.4689 60.9079C34.8812 63.7159 44.0718 65.5715 54.4737 65.5715V70.2858C32.673 70.2858 15 62.5467 15 53.0001C15 43.4534 32.673 35.7144 54.4737 35.7144C76.2744 35.7144 93.9474 43.4534 93.9474 53.0001C93.9474 62.5467 76.2744 70.2858 54.4737 70.2858V65.5715C64.8756 65.5715 74.0662 63.7159 80.4785 60.9079C83.6911 59.501 85.9957 57.9482 87.4311 56.4621C88.8441 54.9993 89.2105 53.8363 89.2105 53.0001Z" fill="#2B54CA"/>
<path d="M93.9474 42.0001C93.9474 51.5467 76.2744 59.2858 54.4737 59.2858C32.673 59.2858 15 51.5467 15 42.0001C15 32.4534 32.673 24.7144 54.4737 24.7144C76.2744 24.7144 93.9474 32.4534 93.9474 42.0001Z" fill="white"/>
<path d="M89.2105 42.0001C89.2105 41.1638 88.8441 40.0009 87.4311 38.538C85.9957 37.0519 83.6911 35.4991 80.4785 34.0923C74.0662 31.2843 64.8756 29.4286 54.4737 29.4286C44.0718 29.4286 34.8812 31.2843 28.4689 34.0923C25.2562 35.4991 22.9516 37.0519 21.5162 38.538C20.1033 40.0009 19.7368 41.1638 19.7368 42.0001C19.7368 42.8363 20.1033 43.9993 21.5162 45.4621C22.9516 46.9482 25.2562 48.501 28.4689 49.9079C34.8812 52.7159 44.0718 54.5715 54.4737 54.5715V59.2858C32.673 59.2858 15 51.5467 15 42.0001C15 32.4534 32.673 24.7144 54.4737 24.7144C76.2744 24.7144 93.9474 32.4534 93.9474 42.0001C93.9474 51.5467 76.2744 59.2858 54.4737 59.2858V54.5715C64.8756 54.5715 74.0662 52.7159 80.4785 49.9079C83.6911 48.501 85.9957 46.9482 87.4311 45.4621C88.8441 43.9993 89.2105 42.8363 89.2105 42.0001Z" fill="#2B54CA"/>
<path d="M93.9474 34.1429C93.9474 41.9537 76.2744 48.2857 54.4737 48.2857C32.673 48.2857 15 41.9537 15 34.1429C15 26.332 32.673 20 54.4737 20C76.2744 20 93.9474 26.332 93.9474 34.1429Z" fill="white"/>
<path d="M89.2105 34.1429C89.2105 34.1005 89.2003 33.4351 87.775 32.2277C86.3686 31.0364 84.0538 29.7511 80.7807 28.5784C74.2747 26.2474 64.9744 24.7143 54.4737 24.7143C43.973 24.7143 34.6727 26.2474 28.1666 28.5784C24.8936 29.7511 22.5788 31.0364 21.1724 32.2277C19.747 33.4351 19.7368 34.1005 19.7368 34.1429C19.7368 34.1852 19.747 34.8507 21.1724 36.058C22.5788 37.2493 24.8936 38.5346 28.1666 39.7073C34.6727 42.0383 43.973 43.5714 54.4737 43.5714V48.2857C32.673 48.2857 15 41.9537 15 34.1429C15 26.332 32.673 20 54.4737 20C76.2744 20 93.9474 26.332 93.9474 34.1429C93.9474 41.9537 76.2744 48.2857 54.4737 48.2857V43.5714C64.9744 43.5714 74.2747 42.0383 80.7807 39.7073C84.0538 38.5346 86.3686 37.2493 87.775 36.058C89.2003 34.8507 89.2105 34.1852 89.2105 34.1429Z" fill="#2B54CA"/>
<path d="M55.1242 36.3908L60.939 38.56C62.2521 39.0498 62.2446 39.8237 60.9223 40.2885C59.6001 40.7533 57.4637 40.733 56.1506 40.2431L39.9609 34.2035C37.5112 33.2896 37.5251 31.8459 39.9919 30.9789L45.8188 28.9307C48.4247 28.0148 51.0644 27.5913 53.7378 27.6603C56.0879 27.7188 58.3338 28.1475 60.4756 28.9465C62.9814 29.8813 64.2138 30.8603 64.1727 31.8835C64.134 32.7816 63.1157 33.5818 61.1179 34.284L55.1242 36.3908ZM49.6941 34.3651C50.5107 34.6697 51.8392 34.6823 52.6614 34.3933L55.6353 33.348C58.1543 32.4626 58.268 31.5924 55.9763 30.7375C53.6632 29.8746 51.2471 29.8858 48.728 30.7713L45.7542 31.8166C44.9319 32.1056 44.9273 32.5868 45.7439 32.8914L49.6941 34.3651Z" fill="#2B54CA"/>
<path d="M134.999 87.5714C134.999 111.004 115.913 130 92.3679 130C68.8231 130 49.7363 111.004 49.7363 87.5714C49.7363 64.1387 68.8231 45.1428 92.3679 45.1428C115.913 45.1428 134.999 64.1387 134.999 87.5714Z" fill="white"/>
<path d="M130.263 87.5714C130.263 66.7424 113.297 49.8571 92.3679 49.8571C71.4392 49.8571 54.4732 66.7424 54.4732 87.5714C54.4732 108.4 71.4392 125.286 92.3679 125.286V130C68.8231 130 49.7363 111.004 49.7363 87.5714C49.7363 64.1387 68.8231 45.1428 92.3679 45.1428C115.913 45.1428 134.999 64.1387 134.999 87.5714C134.999 111.004 115.913 130 92.3679 130V125.286C113.297 125.286 130.263 108.4 130.263 87.5714Z" fill="#2B54CA"/>
<path d="M86.6447 95.0204V106.429C86.6447 108.164 85.2308 109.571 83.4868 109.571H81.3161C79.572 109.571 78.1582 108.164 78.1582 106.429V73.4286C78.1582 70.825 80.279 68.7144 82.895 68.7144H96.4013C101.02 68.7144 104.464 69.9507 106.735 72.4235C108.736 74.5918 109.737 77.5781 109.737 81.3824C109.737 85.8333 108.467 89.2951 105.927 91.7678C103.695 93.9362 100.808 95.0204 97.2672 95.0204H86.6447ZM86.6447 86.4302C86.6447 87.2981 87.3516 88.0017 88.2236 88.0017H94.5539C99.0184 88.0017 101.251 85.9664 101.251 81.8959C101.251 77.7874 99.0184 75.7331 94.5539 75.7331H88.2236C87.3516 75.7331 86.6447 76.4367 86.6447 77.3045V86.4302Z" fill="#2B54CA"/>
</svg>
