<svg width="101" height="101" viewBox="0 0 101 101" fill="none" xmlns="http://www.w3.org/2000/svg">
<path d="M55.1124 56.4487C55.1052 59.2102 52.8609 61.4429 50.0995 61.4358C47.3381 61.4287 45.1053 59.1843 45.1124 56.4229L45.1867 27.6475C45.1938 24.8861 47.4381 22.6533 50.1996 22.6604C52.961 22.6676 55.1938 24.9119 55.1866 27.6733L55.1124 56.4487Z" fill="#3368DD"/>
<path d="M55.0709 72.7754C55.0637 75.5368 52.8194 77.7696 50.058 77.7624C47.2966 77.7553 45.0638 75.511 45.0709 72.7495L45.0714 72.5455C45.0786 69.784 47.3229 67.5513 50.0843 67.5584C52.8457 67.5655 55.0785 69.8099 55.0714 72.5713L55.0709 72.7754Z" fill="#3368DD"/>
<circle cx="50.1289" cy="50.1289" r="46" transform="rotate(0.147903 50.1289 50.1289)" stroke="#3368DD" stroke-width="8"/>
</svg>
