<svg width="60" height="60" viewBox="0 0 60 60" fill="none" xmlns="http://www.w3.org/2000/svg">
<path d="M43.5858 13.5858C44.3668 12.8047 45.6329 12.8047 46.4139 13.5858C47.195 14.3668 47.195 15.6329 46.4139 16.4139L32.828 29.9998L46.4139 43.5858C47.195 44.3668 47.195 45.6329 46.4139 46.4139C45.6329 47.195 44.3668 47.195 43.5858 46.4139L29.9998 32.828L16.4139 46.4139C15.6329 47.195 14.3668 47.195 13.5858 46.4139C12.8047 45.6329 12.8047 44.3668 13.5858 43.5858L27.1717 29.9998L13.5858 16.4139C12.8047 15.6329 12.8047 14.3668 13.5858 13.5858C14.3668 12.8047 15.6329 12.8047 16.4139 13.5858L29.9998 27.1717L43.5858 13.5858Z" fill="#3D3D3D"/>
</svg>
