<svg width="500" height="50" viewBox="0 0 500 50" fill="none" xmlns="http://www.w3.org/2000/svg">
<path d="M128.17 31.06H122.68V42.08C122.68 42.67 122.95 42.98 123.58 42.98H145.58V39.43H128.62C128.35 39.43 128.17 39.25 128.17 38.98V31.06ZM136.09 14.91V11.35H114.85V14.91H136.09ZM144.69 7.48H139.29V32.99H144.69V7.48ZM116.74 19.95C116.74 24.99 120.61 28.27 125.47 28.27C130.33 28.27 134.2 24.98 134.2 19.95C134.2 14.92 130.29 11.58 125.47 11.58C120.65 11.58 116.74 14.91 116.74 19.95ZM122.64 11.81H128.31V6.45H122.64V11.8V11.81ZM143.34 20.58H149.91V16.93H143.34V20.58ZM122.14 19.86C122.14 16.85 123.63 14.91 125.47 14.91C127.31 14.91 128.76 16.84 128.76 19.86C128.76 22.88 127.28 24.77 125.47 24.77C123.66 24.77 122.14 22.83 122.14 19.86ZM173.3 43.44H178.74V31.38C178.74 30.75 178.42 30.48 177.84 30.48H154.94V34.03H172.85C173.12 34.03 173.3 34.21 173.3 34.48V43.43V43.44ZM173.26 21.7H178.71V8.92C178.71 8.29 178.48 8.02 177.81 8.02H154.46V11.57H172.82C173.09 11.57 173.27 11.75 173.27 12.02V21.69L173.26 21.7ZM151.66 24.58H181.67V20.93H151.66V24.58ZM169.34 23.64H163.99V31.38H169.34V23.64ZM282.92 38.08H312.48V34.44H282.92V38.08ZM300.42 25.62H294.97V35.34H300.42V25.62ZM308.56 27.42C309.23 27.42 309.46 27.15 309.46 26.52V8.34H304.06V23.41C304.06 23.68 303.88 23.86 303.61 23.86H291.78C291.51 23.86 291.33 23.68 291.33 23.41V8.34H285.93V26.52C285.93 27.15 286.16 27.42 286.83 27.42H308.56ZM289.94 17.97H305.55V14.37H289.94V17.97ZM273.96 7.48H279.36V27.91H273.96V7.48ZM275.31 18.91H267.75V15.4H275.31V18.91ZM379.62 7.48H374.22V42.53H379.62V7.48ZM349.92 36.24H375.66V32.6H349.92V36.24ZM407.56 33H412.96V7.48H407.56V32.99V33ZM403.33 11.89V8.34H384.7V11.89H403.33ZM396.31 30.61H390.82V42.08C390.82 42.67 391.09 42.98 391.72 42.98H413.72V39.43H396.76C396.49 39.43 396.31 39.25 396.31 38.98V30.61ZM444.09 13.11V9.78H419.88V13.11H444.09ZM422.72 16.48C422.72 20.31 426.82 22.83 431.94 22.83C437.06 22.83 441.16 20.31 441.16 16.48C441.16 12.65 436.97 10.09 431.94 10.09C426.91 10.09 422.72 12.61 422.72 16.48ZM429.11 10H434.78V6H429.11V10ZM428.08 16.26C428.08 14.37 429.79 13.11 431.95 13.11C434.11 13.11 435.77 14.37 435.77 16.26C435.77 18.15 434.06 19.36 431.95 19.36C429.84 19.36 428.08 18.15 428.08 16.26ZM473.21 34.93H478.61V7.48H473.21V34.93ZM474.56 28.27H466.33V31.78H474.56V28.27ZM449.04 26.25H471.04V22.61H449.04V26.25ZM462.32 25.17H456.92V31.38H462.32V25.17ZM451.66 13.74C451.66 18.19 455.39 21.08 460.03 21.08C464.67 21.08 468.45 18.2 468.45 13.74C468.45 9.28 464.67 6.36 460.03 6.36C455.39 6.36 451.66 9.29 451.66 13.74ZM457.05 13.74C457.05 11.36 458.35 9.87 460.02 9.87C461.69 9.87 462.99 11.36 462.99 13.74C462.99 16.12 461.69 17.56 460.02 17.56C458.35 17.56 457.05 16.08 457.05 13.74ZM461.51 33.09H456.02V42.09C456.02 42.68 456.29 42.99 456.92 42.99H479.37V39.44H461.96C461.69 39.44 461.51 39.26 461.51 38.99V33.1V33.09ZM217.63 26.79H247.64V23.14H217.63V26.79ZM204.4 11.89V8.34H185.59V11.89H204.4ZM213.85 7.48H208.45V42.53H213.85V7.48ZM226.22 7.84H220.78V18.86C220.78 19.49 221.01 19.76 221.68 19.76H245.35V16.2H226.68C226.41 16.2 226.23 16.02 226.23 15.75V7.84H226.22ZM342.85 7.48H337.45V42.53H342.85V7.48ZM341.5 20.13H348.07V16.48H341.5V20.13ZM417.05 27.96H447.06V24.32H417.05V27.96ZM270.54 23.01C265.64 21.75 262.98 18.2 262.98 13.2V10.46H257.71V12.26C257.71 19.95 262.3 25.08 270.53 26.61V23.01H270.54ZM250.11 27.06C258.35 25.53 262.89 20.4 262.89 12.71V11.36H257.63V13.65C257.63 18.64 255.02 22.2 250.11 23.46V27.06ZM269.51 11.89V8.34H251.33V11.89H269.51ZM404.54 24.94C399.5 23.86 396.58 20.22 396.58 15.04V10.68H391.32V14.1C391.32 21.97 396.18 27.19 404.55 28.54V24.94H404.54ZM383.71 28.9C391.94 27.37 396.49 22.24 396.49 14.55V11.58H391.22V15.49C391.22 20.48 388.61 24.04 383.71 25.3V28.9ZM205.66 28.09C200.62 27.01 197.56 22.01 197.56 16.84V10.68H192.3V15.9C192.3 23.77 197.29 30.34 205.66 31.69V28.09ZM184.55 31.6C192.78 30.07 197.46 24.04 197.46 16.35V11.58H192.2V17.29C192.2 22.28 189.46 26.74 184.55 28V31.6ZM334.66 28.09C329.62 27.01 326.56 21.57 326.56 16.39V7.89H321.3V15.45C321.3 23.32 326.29 30.34 334.66 31.69V28.09ZM313.56 31.6C321.79 30.07 326.48 23.59 326.48 15.9V7.89H321.21V16.84C321.21 21.83 318.47 26.74 313.56 28V31.6ZM363.91 25.98H358.51V33.72H363.91V25.98ZM371.61 14.91V11.35H350.82V14.91H371.61ZM352.53 19.54C352.53 24.35 356.35 27.46 361.21 27.46C366.07 27.46 369.9 24.36 369.9 19.54C369.9 14.72 366.03 11.58 361.21 11.58C356.39 11.58 352.53 14.73 352.53 19.54ZM358.38 11.81H364.05V6.45H358.38V11.8V11.81ZM357.93 19.45C357.93 16.62 359.33 14.91 361.22 14.91C363.11 14.91 364.46 16.62 364.46 19.45C364.46 22.28 363.07 23.95 361.22 23.95C359.37 23.95 357.93 22.24 357.93 19.45ZM421.6 36.82C421.6 41.28 426.19 44.2 431.95 44.2C437.71 44.2 442.3 41.28 442.3 36.82C442.3 32.36 437.66 29.4 431.95 29.4C426.24 29.4 421.6 32.32 421.6 36.82ZM427 36.82C427 34.48 429.29 32.9 431.95 32.9C434.61 32.9 436.85 34.48 436.85 36.82C436.85 39.16 434.56 40.69 431.95 40.69C429.34 40.69 427 39.16 427 36.82ZM222.17 36.6C222.17 41.19 226.71 44.2 232.52 44.2C238.33 44.2 242.87 41.19 242.87 36.6C242.87 32.01 238.28 28.95 232.52 28.95C226.76 28.95 222.17 31.96 222.17 36.6ZM227.57 36.6C227.57 34.12 229.77 32.46 232.52 32.46C235.27 32.46 237.42 34.12 237.42 36.6C237.42 39.08 235.22 40.69 232.52 40.69C229.82 40.69 227.57 39.07 227.57 36.6ZM257.36 36.06C257.36 41.01 261.9 44.21 267.44 44.21C272.98 44.21 277.61 41.01 277.61 36.06C277.61 31.11 273.02 27.87 267.44 27.87C261.86 27.87 257.36 31.11 257.36 36.06ZM262.76 36.06C262.76 33.18 264.87 31.38 267.44 31.38C270.01 31.38 272.16 33.18 272.16 36.06C272.16 38.94 270.04 40.69 267.44 40.69C264.84 40.69 262.76 38.89 262.76 36.06Z" fill="white"/>
<path d="M43.127 31.4707V7.39062H50.5469V42.9902H42.5869L27.4668 19V42.9902H19.9961V7.39062H27.917L43.127 31.4707ZM104.097 42.9902H95.8164L93.8164 37.2705H78.792L76.7363 42.9902H68.6865L82.4072 7.39062H90.5566L104.097 42.9902ZM65.4883 42.9805H57.5684V7.39062H65.4883V42.9805ZM80.877 31.4697H91.7881L86.4072 16.0801L80.877 31.4697Z" fill="white"/>
</svg>
