<svg width="60" height="60" viewBox="0 0 60 60" fill="none" xmlns="http://www.w3.org/2000/svg">
<path d="M43.5858 13.586C44.3668 12.805 45.6329 12.805 46.4139 13.586C47.195 14.3671 47.195 15.6331 46.4139 16.4142L32.828 30.0001L46.4139 43.586C47.195 44.3671 47.195 45.6331 46.4139 46.4142C45.6329 47.1952 44.3668 47.1952 43.5858 46.4142L29.9998 32.8282L16.4139 46.4142C15.6329 47.1952 14.3668 47.1952 13.5858 46.4142C12.8047 45.6331 12.8047 44.3671 13.5858 43.586L27.1717 30.0001L13.5858 16.4142C12.8047 15.6331 12.8047 14.3671 13.5858 13.586C14.3668 12.805 15.6329 12.805 16.4139 13.586L29.9998 27.172L43.5858 13.586Z" fill="#fff"/>
</svg>
