<svg width="150" height="80" viewBox="0 0 150 80" fill="none" xmlns="http://www.w3.org/2000/svg">
<rect width="150" height="80" rx="10" fill="white"/>
<!-- <path d="M71.5547 24.3828V47.5859H67.6523V35.9492H62.0273V32.7852H67.6523V24.3828H71.5547ZM72.3633 52.332V55.4961H50.707V45.5469H54.6094V52.332H72.3633ZM56.6133 30.7109C56.6133 34.543 59.1797 38.4805 64.1016 40.0977L62.1328 43.2266C58.582 42.0137 56.0684 39.6055 54.6797 36.582C53.2734 39.9395 50.6191 42.5938 46.875 43.8945L44.8711 40.7305C49.9336 39.0781 52.6406 34.8945 52.6406 30.6758V29.832H46.0312V26.668H63.1875V29.832H56.6133V30.7109ZM85.7578 34.0508C85.7578 38.9727 87.7969 43.9297 92.2266 46.3203L90.0469 49.2031C87.0938 47.6387 85.0898 44.8438 83.9648 41.5039C82.8398 45.1074 80.8359 48.1836 77.8477 49.9414L75.5625 46.9883C80.0625 44.3867 82.0664 39.0781 82.0664 34.0508V33.0664H76.6523V29.9023H82.0664V25.4727H85.7578V29.9023H91.0664V33.0664H85.7578V34.0508ZM103.406 24.3477V56.1289H99.6797V24.3477H103.406ZM96.9375 24.9453V54.582H93.2461V39.7812H89.0977V36.5469H93.2461V24.9453H96.9375Z" fill="black"/> -->
<path d="M121.707 7.70711C121.077 7.07714 121.523 6 122.414 6H140C142.209 6 144 7.79086 144 10V27.5858C144 28.4767 142.923 28.9229 142.293 28.2929L132 18L121.707 7.70711Z" fill="black"/>
</svg>
