<svg width="276" height="66" viewBox="0 0 276 66" fill="none" xmlns="http://www.w3.org/2000/svg">
<g filter="url(#filter0_d_3585_101337)">
<rect x="3" y="1" width="270" height="60" rx="10" fill="white" shape-rendering="crispEdges"/>
<rect x="3.5" y="1.5" width="269" height="59" rx="9.5" stroke="#3D3D3D" shape-rendering="crispEdges"/>
<!-- <path d="M95.8496 22.1523C95.8496 25.2695 97.873 28.1953 101.674 29.3984L100.033 31.7773C97.3672 30.875 95.4531 29.0703 94.4004 26.7734C93.3066 29.3984 91.3105 31.4629 88.4668 32.4609L86.8262 30.082C90.8184 28.6875 92.7871 25.4062 92.8145 21.8789V19.5273H95.8496V22.1523ZM106.596 18.2148V24.2305H110.041V26.7461H106.596V33.0078H103.561V18.2148H106.596ZM98.5566 33.5547C103.67 33.5273 106.814 35.2773 106.842 38.2031C106.814 41.1836 103.67 42.9062 98.5566 42.9062C93.3887 42.9062 90.1895 41.1836 90.1895 38.2031C90.1895 35.2773 93.3887 33.5273 98.5566 33.5547ZM98.5566 35.9336C95.166 35.9336 93.2246 36.7539 93.2246 38.2031C93.2246 39.7344 95.166 40.5 98.5566 40.5C101.947 40.5 103.834 39.7344 103.834 38.2031C103.834 36.7539 101.947 35.9336 98.5566 35.9336ZM119.01 24.6953C119.01 28.6875 120.404 32.8438 123.74 34.9492L122.072 37.2734C119.844 35.9336 118.395 33.623 117.588 30.9023C116.686 33.8965 115.1 36.4258 112.775 37.8477L110.889 35.5781C114.471 33.3906 116.084 29.043 116.084 24.832V20.4023H119.01V24.6953ZM132.627 18.2148V42.9336H129.701V18.2148H132.627ZM127.486 18.6523V41.7305H124.615V29.2344H121.088V26.7188H124.615V18.6523H127.486ZM162.842 18.2148V32.8984H159.807V26.8555H155.596V24.3672H159.807V18.2148H162.842ZM154.475 33.5273C159.725 33.5273 162.924 35.25 162.924 38.2305C162.924 41.2109 159.725 42.9336 154.475 42.9336C149.252 42.9336 146.053 41.2109 146.08 38.2305C146.053 35.25 149.252 33.5273 154.475 33.5273ZM154.475 35.8516C151.029 35.8516 149.088 36.6719 149.088 38.2305C149.088 39.7617 151.029 40.582 154.475 40.582C157.92 40.582 159.889 39.7617 159.889 38.2305C159.889 36.6719 157.92 35.8516 154.475 35.8516ZM151.221 22.4531C151.221 25.4609 153.217 28.4961 157.045 29.7812L155.514 32.1875C152.766 31.2578 150.811 29.3711 149.744 27.0469C148.65 29.6855 146.586 31.791 143.646 32.8438L142.061 30.4375C146.025 29.0703 148.131 25.7344 148.131 22.4805V22.2891H142.99V19.8281H156.334V22.2891H151.221V22.4531ZM188.928 37.4648V39.9531H166.342V37.4648H176.076V32.6523H168.83V19.8555H171.865V23.9023H183.322V19.8555H186.357V32.6523H179.084V37.4648H188.928ZM171.865 30.1914H183.322V26.3359H171.865V30.1914Z" fill="#3D3D3D"/> -->
</g>
<defs>
<filter id="filter0_d_3585_101337" x="0" y="0" width="276" height="66" filterUnits="userSpaceOnUse" color-interpolation-filters="sRGB">
<feFlood flood-opacity="0" result="BackgroundImageFix"/>
<feColorMatrix in="SourceAlpha" type="matrix" values="0 0 0 0 0 0 0 0 0 0 0 0 0 0 0 0 0 0 127 0" result="hardAlpha"/>
<feOffset dy="2"/>
<feGaussianBlur stdDeviation="1.5"/>
<feComposite in2="hardAlpha" operator="out"/>
<feColorMatrix type="matrix" values="0 0 0 0 0 0 0 0 0 0 0 0 0 0 0 0 0 0 0.4 0"/>
<feBlend mode="normal" in2="BackgroundImageFix" result="effect1_dropShadow_3585_101337"/>
<feBlend mode="normal" in="SourceGraphic" in2="effect1_dropShadow_3585_101337" result="shape"/>
</filter>
</defs>
</svg>
