<svg width="184" height="60" viewBox="0 0 184 60" fill="none" xmlns="http://www.w3.org/2000/svg">
<rect x="0.5" y="0.5" width="183" height="59" rx="9.5" fill="black"/>
<rect x="0.5" y="0.5" width="183" height="59" rx="9.5" stroke="white"/>
<!-- <path d="M65.5586 17.2422V35.5898H62.6602V26.8672H60.0898V35.0156H57.2461V17.707H60.0898V24.3789H62.6602V17.2422H65.5586ZM66.2422 38.9805V41.4414H49.0156V33.8672H52.0508V38.9805H66.2422ZM54.8398 19.2656V26.7578H48.4141V29.6836C51.2852 29.6562 53.4727 29.5059 55.9883 29.0273L56.2617 31.4609C53.2812 31.9805 50.7656 32.0898 47.1562 32.0898H45.4609V24.4609H51.9141V21.6719H45.4336V19.2656H54.8398ZM88.6914 28.8086V31.2422H71.3555V19.375H88.5V21.8359H74.3633V28.8086H88.6914ZM91.207 36.2734V38.7891H68.6211V36.2734H91.207ZM105.398 19.6211V35.8086H93.6953V19.6211H105.398ZM96.6758 22V33.375H102.363V22H96.6758ZM112.18 17.2148V26.7031H115.98V29.2734H112.18V41.9336H109.145V17.2148H112.18ZM137.062 19.5117V22.4648C137.062 26.0469 137.062 29.4648 135.969 34.6875L132.934 34.4141C133.439 32.2539 133.727 30.3535 133.891 28.5898L119.316 29.3555L118.906 26.8945L134.027 26.3203C134.082 24.9941 134.082 23.7227 134.082 22.4648V21.9727H119.645V19.5117H137.062ZM139.551 36.3008V38.7891H117.02V36.3008H139.551Z" fill="white"/> -->
</svg>
