<svg width="150" height="150" viewBox="0 0 150 150" fill="none" xmlns="http://www.w3.org/2000/svg">
<path d="M141 41C143.761 41 146 43.2386 146 46V104L145.993 104.257C145.864 106.814 143.814 108.864 141.257 108.993L141 109H9L8.74316 108.993C6.18618 108.864 4.13622 106.814 4.00684 104.257L4 104V46C4 43.2386 6.23858 41 9 41H141ZM9 45C8.44772 45 8 45.4477 8 46V104C8 104.552 8.44772 105 9 105H57V45H9ZM16.0547 91C16.6926 91 17.2597 91.1451 17.7559 91.4346C18.2607 91.724 18.682 92.1244 19.0186 92.6357C19.3551 93.1374 19.6119 93.7211 19.7891 94.3867C19.9662 95.0525 20.0547 95.757 20.0547 96.5C20.0547 97.2526 19.9662 97.9621 19.7891 98.6279C19.6119 99.2839 19.3551 99.8676 19.0186 100.379C18.682 100.881 18.2607 101.276 17.7559 101.565C17.2597 101.855 16.6926 102 16.0547 102C15.4169 102 14.8458 101.855 14.3408 101.565C13.8447 101.276 13.4275 100.881 13.0908 100.379C12.7543 99.8676 12.4975 99.2839 12.3203 98.6279C12.1431 97.9621 12.0547 97.2526 12.0547 96.5C12.0547 95.757 12.1431 95.0525 12.3203 94.3867C12.4975 93.7211 12.7543 93.1374 13.0908 92.6357C13.4275 92.1243 13.8447 91.724 14.3408 91.4346C14.8458 91.1452 15.4169 91 16.0547 91ZM25.0547 91C25.6926 91 26.2597 91.1451 26.7559 91.4346C27.2607 91.724 27.682 92.1244 28.0186 92.6357C28.3551 93.1374 28.6119 93.7211 28.7891 94.3867C28.9662 95.0525 29.0547 95.757 29.0547 96.5C29.0547 97.2526 28.9662 97.9621 28.7891 98.6279C28.6119 99.2839 28.3551 99.8676 28.0186 100.379C27.682 100.881 27.2607 101.276 26.7559 101.565C26.2597 101.855 25.6926 102 25.0547 102C24.4169 102 23.8458 101.855 23.3408 101.565C22.8447 101.276 22.4275 100.881 22.0908 100.379C21.7543 99.8676 21.4975 99.2839 21.3203 98.6279C21.1431 97.9621 21.0547 97.2526 21.0547 96.5C21.0547 95.757 21.1431 95.0525 21.3203 94.3867C21.4975 93.7211 21.7543 93.1374 22.0908 92.6357C22.4275 92.1243 22.8447 91.724 23.3408 91.4346C23.8458 91.1452 24.4169 91 25.0547 91ZM34.0547 91C34.6926 91 35.2597 91.1451 35.7559 91.4346C36.2607 91.724 36.682 92.1244 37.0186 92.6357C37.3551 93.1374 37.6119 93.7211 37.7891 94.3867C37.9663 95.0525 38.0547 95.757 38.0547 96.5C38.0547 97.2526 37.9662 97.9621 37.7891 98.6279C37.6119 99.2839 37.3551 99.8676 37.0186 100.379C36.682 100.881 36.2607 101.276 35.7559 101.565C35.2597 101.855 34.6926 102 34.0547 102C33.4169 102 32.8458 101.855 32.3408 101.565C31.8447 101.276 31.4275 100.881 31.0908 100.379C30.7543 99.8676 30.4975 99.2839 30.3203 98.6279C30.1431 97.9621 30.0547 97.2526 30.0547 96.5C30.0547 95.757 30.1431 95.0525 30.3203 94.3867C30.4975 93.7211 30.7543 93.1374 31.0908 92.6357C31.4275 92.1243 31.8447 91.724 32.3408 91.4346C32.8458 91.1452 33.4169 91 34.0547 91ZM43.0547 91C43.6926 91 44.2597 91.1451 44.7559 91.4346C45.2607 91.724 45.682 92.1244 46.0186 92.6357C46.3551 93.1374 46.6119 93.7211 46.7891 94.3867C46.9663 95.0525 47.0547 95.757 47.0547 96.5C47.0547 97.2526 46.9662 97.9621 46.7891 98.6279C46.6119 99.2839 46.3551 99.8676 46.0186 100.379C45.682 100.881 45.2607 101.276 44.7559 101.565C44.2597 101.855 43.6926 102 43.0547 102C42.4169 102 41.8458 101.855 41.3408 101.565C40.8447 101.276 40.4275 100.881 40.0908 100.379C39.7543 99.8676 39.4975 99.2839 39.3203 98.6279C39.1431 97.9621 39.0547 97.2526 39.0547 96.5C39.0547 95.757 39.1431 95.0525 39.3203 94.3867C39.4975 93.7211 39.7543 93.1374 40.0908 92.6357C40.4275 92.1243 40.8447 91.724 41.3408 91.4346C41.8458 91.1452 42.4169 91 43.0547 91ZM16.0547 92.7803C15.4345 92.7803 14.9202 93.0935 14.5127 93.7207C14.114 94.3382 13.915 95.2649 13.915 96.5C13.915 97.7348 14.1142 98.6708 14.5127 99.3076C14.9202 99.9348 15.4345 100.249 16.0547 100.249C16.6748 100.249 17.1843 99.9348 17.583 99.3076C17.9904 98.6804 18.1943 97.7446 18.1943 96.5C18.1943 95.2649 17.9905 94.3382 17.583 93.7207C17.1844 93.0937 16.6748 92.7803 16.0547 92.7803ZM25.0547 92.7803C24.4345 92.7803 23.9202 93.0935 23.5127 93.7207C23.114 94.3382 22.915 95.2649 22.915 96.5C22.915 97.7348 23.1142 98.6708 23.5127 99.3076C23.9202 99.9348 24.4345 100.249 25.0547 100.249C25.6748 100.249 26.1843 99.9348 26.583 99.3076C26.9904 98.6804 27.1943 97.7446 27.1943 96.5C27.1943 95.2649 26.9905 94.3382 26.583 93.7207C26.1844 93.0937 25.6748 92.7803 25.0547 92.7803ZM34.0547 92.7803C33.4345 92.7803 32.9202 93.0935 32.5127 93.7207C32.114 94.3382 31.915 95.2649 31.915 96.5C31.915 97.7348 32.1142 98.6708 32.5127 99.3076C32.9202 99.9348 33.4345 100.249 34.0547 100.249C34.6748 100.249 35.1843 99.9348 35.583 99.3076C35.9904 98.6804 36.1943 97.7446 36.1943 96.5C36.1943 95.2649 35.9905 94.3382 35.583 93.7207C35.1844 93.0937 34.6748 92.7803 34.0547 92.7803ZM43.0547 92.7803C42.4345 92.7803 41.9202 93.0935 41.5127 93.7207C41.114 94.3382 40.915 95.2649 40.915 96.5C40.915 97.7348 41.1142 98.6708 41.5127 99.3076C41.9202 99.9348 42.4345 100.249 43.0547 100.249C43.6748 100.249 44.1843 99.9348 44.583 99.3076C44.9904 98.6804 45.1943 97.7446 45.1943 96.5C45.1943 95.2649 44.9905 94.3382 44.583 93.7207C44.1844 93.0937 43.6748 92.7803 43.0547 92.7803ZM100 49C86.1929 49 75 60.1929 75 74C75 87.8071 86.1929 99 100 99C113.807 99 125 87.8071 125 74C125 60.1929 113.807 49 100 49ZM94.0068 73.6738H96.7041L98.7061 65H102.294L104.296 73.6738H107.021L108.801 65H112.639L110.581 73.6738H113V76.3262H109.941L107.883 85H103.823L101.849 76.3262H99.1787L97.1768 85H93.1172L91.0586 76.3262H88V73.6738H90.4189L88.3613 65H92.1992L94.0068 73.6738ZM105.631 79.4756H105.798L106.465 76.3262H104.907L105.631 79.4756ZM95.2021 79.4473H95.3691L96.0928 76.3262H94.5625L95.2021 79.4473ZM99.791 73.6738H101.237L100.569 70.8008H100.431L99.791 73.6738Z" fill="#000000"/>
</svg>
