<svg width="150" height="150" viewBox="0 0 150 150" fill="none" xmlns="http://www.w3.org/2000/svg">
<path d="M132.257 35.0068C134.899 35.1405 137 37.3247 137 40V110C137 112.761 134.761 115 132 115H18C15.2386 115 13 112.761 13 110V40C13 37.3247 15.1011 35.1405 17.7432 35.0068L18 35H132L132.257 35.0068ZM18 39C17.4477 39 17 39.4477 17 40V110C17 110.552 17.4477 111 18 111H132C132.552 111 133 110.552 133 110V40C133 39.4477 132.552 39 132 39H18ZM117.5 86C122.747 86 127 90.2533 127 95.5C127 100.747 122.747 105 117.5 105C115.182 105 113.059 104.169 111.41 102.79C109.674 104.169 107.44 105 105 105C99.4771 105 95 100.747 95 95.5C95 90.2533 99.4771 86 105 86C107.439 86 109.674 86.8303 111.41 88.209C113.059 86.8302 115.182 86 117.5 86ZM117.136 88.0088C117.101 88.0105 117.065 88.0135 117.03 88.0156C116.947 88.0208 116.865 88.0273 116.782 88.0352C116.738 88.0394 116.693 88.0438 116.648 88.0488C116.581 88.0565 116.514 88.0648 116.447 88.0742C116.389 88.0824 116.33 88.091 116.272 88.1006C116.218 88.1095 116.165 88.1198 116.111 88.1299C116.049 88.1416 115.987 88.1538 115.925 88.167C115.876 88.1774 115.828 88.1889 115.78 88.2002C115.72 88.2143 115.66 88.2276 115.601 88.2432C115.559 88.2541 115.517 88.2666 115.476 88.2783C115.325 88.3205 115.176 88.3668 115.029 88.418C115.016 88.4226 115.003 88.4269 114.989 88.4316C114.913 88.4588 114.837 88.488 114.762 88.5176C114.731 88.5296 114.7 88.5413 114.67 88.5537C114.601 88.582 114.532 88.6114 114.464 88.6416C114.436 88.6538 114.409 88.6662 114.382 88.6787C114.305 88.7139 114.229 88.7495 114.153 88.7871C114.139 88.7941 114.125 88.8015 114.111 88.8086C111.672 90.0463 110 92.5775 110 95.5C110 98.6416 111.933 101.33 114.673 102.446C114.702 102.458 114.732 102.47 114.762 102.481C114.837 102.511 114.913 102.54 114.989 102.567C114.999 102.571 115.009 102.574 115.019 102.577C115.19 102.637 115.364 102.691 115.541 102.739C115.561 102.745 115.581 102.751 115.601 102.756C115.66 102.771 115.72 102.785 115.78 102.799C115.828 102.81 115.876 102.822 115.925 102.832C115.987 102.845 116.049 102.857 116.111 102.869C116.165 102.879 116.219 102.889 116.273 102.898C116.33 102.908 116.386 102.917 116.443 102.925C116.513 102.935 116.582 102.942 116.652 102.95C116.695 102.955 116.738 102.96 116.781 102.964C116.864 102.972 116.947 102.978 117.03 102.983C117.065 102.986 117.1 102.989 117.136 102.99C117.256 102.996 117.378 103 117.5 103C121.642 103 125 99.6421 125 95.5C125 91.3579 121.642 88 117.5 88C117.378 88 117.256 88.003 117.136 88.0088ZM52 95C53.1046 95 54 95.8954 54 97C54 98.1046 53.1046 99 52 99H26C24.8954 99 24 98.1046 24 97C24 95.8954 24.8954 95 26 95H52ZM69 88C70.1046 88 71 88.8954 71 90C71 91.1046 70.1046 92 69 92H26C24.8954 92 24 91.1046 24 90C24 88.8954 24.8954 88 26 88H69ZM43 52C44.1046 52 45 52.8954 45 54V66C45 67.1046 44.1046 68 43 68H25C23.8954 68 23 67.1046 23 66V54C23 52.8954 23.8954 52 25 52H43ZM24.5312 66.1914C24.8077 66.4131 25.1708 66.9997 25.5684 67H30.667V66.1914H24.5312ZM31.0586 66.0576V67H36.9414V66.1338L33.9561 63.5479L31.0586 66.0576ZM37.333 67H42.4316C42.8292 66.9997 43.1923 66.4131 43.4688 66.1914H37.333V67ZM30.667 61.9131L30.665 61.9688C30.6344 62.5155 30.1522 62.9537 29.5508 62.9814L29.4902 62.9834H24V65.1221C24 65.3817 24.0766 65.6252 24.21 65.835H30.751L33.8066 63.1875C33.8053 63.179 33.8037 63.17 33.8037 63.1611V62.4482C33.8037 62.3498 33.8917 62.2695 34 62.2695H37.4004C37.3636 62.1747 37.3408 62.0737 37.335 61.9688L37.333 61.9131V57.6348H30.667V61.9131ZM37.6152 62.6074C37.5892 62.619 37.5602 62.627 37.5293 62.627H34.1963V63.1611C34.1963 63.1916 34.1867 63.22 34.1719 63.2451L37.1611 65.835H43.79C43.9234 65.6252 44 65.3817 44 65.1221V62.9834H38.5098L38.4492 62.9814C38.1155 62.9661 37.8188 62.824 37.6152 62.6074ZM24 59.5957H30.0781C30.1864 59.5957 30.2744 59.676 30.2744 59.7744C30.2743 59.8728 30.1863 59.9521 30.0781 59.9521H24V62.627H29.4902C29.9234 62.6269 30.2744 62.3069 30.2744 61.9131V57.6348C30.2743 57.2656 29.9658 56.9623 29.5703 56.9258L29.4902 56.9219H24V59.5957ZM38.5098 56.9219C38.0767 56.9219 37.7257 57.2411 37.7256 57.6348V61.9131C37.7256 62.3069 38.0766 62.6269 38.5098 62.627H44V59.9521H37.9219C37.8137 59.9521 37.7257 59.8728 37.7256 59.7744C37.7256 59.676 37.8136 59.5957 37.9219 59.5957H44V56.9219H38.5098ZM24.0498 54.0693C24.0176 54.1832 24 54.3028 24 54.4258V56.5654H29.4902C30.0023 56.5654 30.437 56.8631 30.5986 57.2783H33.8037V56.7432C33.8038 56.7343 33.8052 56.7253 33.8066 56.7168L30.751 54.0693H24.0498ZM34.1719 56.6592C34.1868 56.6842 34.1962 56.7127 34.1963 56.7432V57.2783H37.4014C37.563 56.8631 37.9977 56.5654 38.5098 56.5654H44V54.4258C44 54.3028 43.9824 54.1832 43.9502 54.0693H37.1611L34.1719 56.6592ZM31.0586 53.8467L33.9561 56.3574L36.9414 53.7705V53H31.0586V53.8467ZM25.5684 53C24.9879 53.0001 24.4812 53.2868 24.21 53.7129H30.667V53H25.5684ZM37.333 53.7129H43.79C43.5188 53.2868 43.0121 53.0001 42.4316 53H37.333V53.7129ZM43.2012 53.0205C43.2333 53.0271 43.265 53.0344 43.2959 53.0439C43.2338 53.0247 43.1691 53.0117 43.1025 53.0049L43.2012 53.0205Z" fill="#000000"/>
</svg>
