<svg width="150" height="150" viewBox="0 0 150 150" fill="none" xmlns="http://www.w3.org/2000/svg">
<path d="M100 6C106.627 6 112 11.3726 112 18V33C112.552 33 113 33.4477 113 34V42C113 42.5523 112.552 43 112 43V44C112.552 44 113 44.4477 113 45V53C113 53.5523 112.552 54 112 54V58C112.552 58 113 58.4477 113 59V73C113 73.5523 112.552 74 112 74V132C112 138.627 106.627 144 100 144H52C45.3726 144 40 138.627 40 132V18C40 11.3726 45.3726 6 52 6H100ZM52 10C47.5817 10 44 13.5817 44 18V132C44 136.418 47.5817 140 52 140H100C104.418 140 108 136.418 108 132V18C108 13.5817 104.418 10 100 10H52ZM76 55C87.0457 55 96 63.9543 96 75C96 86.0457 87.0457 95 76 95C64.9543 95 56 86.0457 56 75C56 63.9543 64.9543 55 76 55ZM81.9092 64.2627C81.5823 63.9569 80.9053 63.9099 80.5039 64.1641C80.2098 64.3477 79.9395 64.8237 79.9395 65.1533C79.9399 65.2436 80.2006 65.8599 80.5225 66.5186C82.021 69.598 82.624 72.1691 82.624 75.4697C82.624 78.8836 81.9417 81.7 80.373 84.7607C79.9856 85.5188 79.9252 85.7074 79.9766 85.9805C80.056 86.3995 80.4298 86.837 80.7939 86.9453C80.9523 86.9923 81.1385 87.0118 81.2041 86.9932C81.2695 86.9743 81.3819 86.9551 81.4473 86.9551C81.7834 86.9549 82.1849 86.4036 82.8291 85.0664C83.8934 82.8535 84.5562 80.5888 84.8877 78.0557C85.0698 76.6807 85.0229 73.8361 84.7988 72.334C84.4347 69.909 83.7017 67.5777 82.6279 65.4541C82.3572 64.9174 82.0352 64.3804 81.9092 64.2627ZM77.54 66.5801C77.0779 66.1516 76.1907 66.2317 75.8359 66.7402C75.4625 67.277 75.4952 67.4796 76.1348 68.8027C77.0916 70.7707 77.4692 72.1175 77.6699 74.2549C77.9127 76.854 77.4135 79.5006 76.2139 81.9727C75.9291 82.5566 75.6633 83.1365 75.626 83.2637C75.4627 83.7816 75.8685 84.4778 76.4287 84.6426C77.2597 84.8874 77.8523 84.271 78.6973 82.2793C80.3359 78.3945 80.5321 74.142 79.2529 70.1865C78.8655 68.9908 77.8625 66.8778 77.54 66.5801ZM72.3486 68.5996C71.9706 68.5996 71.8536 68.6426 71.583 68.9014C71.0368 69.424 71.0504 69.6877 71.6992 71.0107C73.1745 74.0291 73.1601 77.0008 71.6475 80.0898C71.2368 80.9277 71.1488 81.1822 71.2002 81.4082C71.2843 81.7801 71.5824 82.1522 71.9277 82.3076C72.0818 82.3782 72.3434 82.4155 72.5068 82.4014C73.0436 82.3307 73.3099 82.0392 73.8467 80.9424C74.7803 79.026 75.1164 77.5988 75.1211 75.5225C75.1258 73.5024 74.7663 71.9241 73.8887 70.1064C73.3193 68.9251 72.9879 68.5997 72.3486 68.5996ZM69.4121 71.6934C68.908 70.9025 68.5343 70.6583 67.9883 70.7617C67.3441 70.8841 66.8626 71.5947 67.0352 72.1738C67.0772 72.3151 67.2545 72.6731 67.4365 72.9697C67.9687 73.8455 68.0908 74.3211 68.0908 75.4697C68.0908 76.6187 67.9687 77.0901 67.4365 77.9707C67.0259 78.6532 66.9423 78.9453 67.0449 79.3125C67.1383 79.6421 67.4511 80.0188 67.7266 80.1318C68.3288 80.3813 68.8986 80.0985 69.4121 79.3027C70.8637 77.0331 70.8639 73.9817 69.4121 71.6934ZM76 13C77.1046 13 78 13.8954 78 15C78 16.1046 77.1046 17 76 17C74.8954 17 74 16.1046 74 15C74 13.8954 74.8954 13 76 13Z" fill="#3D3D3D"/>
</svg>
