<svg width="59" height="59" viewBox="0 0 59 59" fill="none" xmlns="http://www.w3.org/2000/svg">
<path d="M47.9375 29.5C47.9375 39.6828 39.6828 47.9375 29.5 47.9375C19.3172 47.9375 11.0625 39.6828 11.0625 29.5C11.0625 19.3172 19.3172 11.0625 29.5 11.0625V7.375C17.2807 7.375 7.375 17.2807 7.375 29.5C7.375 41.7193 17.2807 51.625 29.5 51.625C41.7193 51.625 51.625 41.7193 51.625 29.5C51.625 17.2807 41.7193 7.375 29.5 7.375V11.0625C39.6828 11.0625 47.9375 19.3172 47.9375 29.5Z" fill="#D41515"/>
<path d="M31.3438 38.7188C31.3438 37.7005 30.5183 36.875 29.5 36.875C28.4817 36.875 27.6562 37.7005 27.6562 38.7188C27.6562 39.737 28.4817 40.5625 29.5 40.5625C30.5183 40.5625 31.3438 39.737 31.3438 38.7188Z" fill="#D41515"/>
<path d="M27.6562 31.3438C27.6562 32.362 28.4817 33.1875 29.5 33.1875C30.5183 33.1875 31.3438 32.362 31.3438 31.3438V20.2812C31.3438 19.263 30.5183 18.4375 29.5 18.4375C28.4817 18.4375 27.6562 19.263 27.6562 20.2812V31.3438Z" fill="#D41515"/>
</svg>
