<svg width="60" height="60" viewBox="0 0 60 60" fill="none" xmlns="http://www.w3.org/2000/svg">
<path d="M48.75 30C48.75 19.6447 40.3553 11.25 30 11.25C19.6447 11.25 11.25 19.6447 11.25 30C11.25 40.3553 19.6447 48.75 30 48.75V52.5C17.5736 52.5 7.5 42.4264 7.5 30C7.5 17.5736 17.5736 7.5 30 7.5C42.4264 7.5 52.5 17.5736 52.5 30C52.5 42.4264 42.4264 52.5 30 52.5V48.75C40.3553 48.75 48.75 40.3553 48.75 30Z" fill="#454545"/>
<path d="M31.875 20.625C31.875 21.6605 31.0355 22.5 30 22.5C28.9645 22.5 28.125 21.6605 28.125 20.625C28.125 19.5895 28.9645 18.75 30 18.75C31.0355 18.75 31.875 19.5895 31.875 20.625Z" fill="#454545"/>
<path d="M28.125 28.125C28.125 27.0895 28.9645 26.25 30 26.25C31.0355 26.25 31.875 27.0895 31.875 28.125V39.375C31.875 40.4105 31.0355 41.25 30 41.25C28.9645 41.25 28.125 40.4105 28.125 39.375V28.125Z" fill="#454545"/>
</svg>
