<svg width="200" height="200" viewBox="0 0 200 200" fill="none" xmlns="http://www.w3.org/2000/svg">
<path d="M163 123C168.523 123 173 127.477 173 133V163C173 168.523 168.523 173 163 173H133C127.477 173 123 168.523 123 163V133C123 127.477 127.477 123 133 123H163ZM148.929 132.194C148.593 131.357 147.407 131.357 147.071 132.194L143.046 142.252L132.394 143.062C131.507 143.129 131.143 144.234 131.815 144.815L139.983 151.885L137.448 162.481C137.239 163.354 138.197 164.039 138.955 163.56L148 157.839L157.045 163.56C157.803 164.039 158.761 163.354 158.552 162.481L156.017 151.885L164.185 144.815C164.857 144.234 164.493 143.129 163.606 143.062L152.954 142.252L148.929 132.194Z" fill="white"/>
<path d="M100 35C117.949 35 132.5 49.5507 132.5 67.5C132.5 77.9685 127.549 87.2787 119.862 93.2227C132.793 97.5535 143.836 105.998 151.443 117H133C124.163 117 117 124.163 117 133V163C117 163.677 117.043 164.345 117.125 165H50C43.0964 165 37.5 159.404 37.5 152.5C37.5 124.926 55.3565 101.523 80.1367 93.2227C72.4506 87.2786 67.5 77.9682 67.5 67.5C67.5 49.5507 82.0507 35 100 35Z" fill="white"/>
</svg>
