<svg width="100" height="100" viewBox="0 0 100 100" fill="none" xmlns="http://www.w3.org/2000/svg">
<path d="M1.33301 25.3333C1.33301 23.4924 2.82539 22 4.66634 22H95.333C97.174 22 98.6663 23.4924 98.6663 25.3333V72C98.6663 73.8409 97.174 75.3333 95.333 75.3333H4.66634C2.82539 75.3333 1.33301 73.8409 1.33301 72V25.3333Z" fill="white"/>
<path d="M95.333 72.6667V75.3333H4.66634V72.6667H95.333ZM95.9997 72V25.3333C95.9997 24.9882 95.7375 24.7041 95.4014 24.6699L95.333 24.6667H4.66634C4.29815 24.6667 3.99967 24.9651 3.99967 25.3333V72C3.99967 72.3682 4.29815 72.6667 4.66634 72.6667V75.3333L4.49512 75.3288C2.73374 75.2396 1.33301 73.7835 1.33301 72V25.3333C1.33301 23.5498 2.73374 22.0937 4.49512 22.0046L4.66634 22H95.333C97.174 22 98.6663 23.4924 98.6663 25.3333V72C98.6663 73.8409 97.174 75.3333 95.333 75.3333V72.6667C95.7012 72.6667 95.9997 72.3682 95.9997 72Z" fill="black"/>
<path d="M10 60.0013C10 59.2649 10.597 58.668 11.3333 58.668H40C40.7364 58.668 41.3333 59.2649 41.3333 60.0013C41.3333 60.7377 40.7364 61.3346 40 61.3346H11.3333C10.597 61.3346 10 60.7377 10 60.0013Z" fill="black"/>
<path d="M10 64.6654C10 63.929 10.597 63.332 11.3333 63.332H28.6667C29.403 63.332 30 63.929 30 64.6654C30 65.4017 29.403 65.9987 28.6667 65.9987H11.3333C10.597 65.9987 10 65.4017 10 64.6654Z" fill="black"/>
<path d="M82.0003 60.3333C82.0003 63.8311 79.0156 66.6667 75.3337 66.6667C71.6518 66.6667 68.667 63.8311 68.667 60.3333C68.667 56.8355 71.6518 54 75.3337 54C79.0156 54 82.0003 56.8355 82.0003 60.3333Z" fill="black"/>
<path d="M89.9997 60.3333C89.9997 63.8311 87.1641 66.6667 83.6663 66.6667C80.1685 66.6667 77.333 63.8311 77.333 60.3333C77.333 56.8355 80.1685 54 83.6663 54C87.1641 54 89.9997 56.8355 89.9997 60.3333Z" fill="white"/>
<path d="M88.6663 60.3333C88.6663 57.5719 86.4278 55.3333 83.6663 55.3333C80.9049 55.3333 78.6663 57.5719 78.6663 60.3333C78.6663 63.0948 80.9049 65.3333 83.6663 65.3333V66.6667C80.1685 66.6667 77.333 63.8311 77.333 60.3333C77.333 56.8355 80.1685 54 83.6663 54C87.1641 54 89.9997 56.8355 89.9997 60.3333C89.9997 63.8311 87.1641 66.6667 83.6663 66.6667V65.3333C86.4278 65.3333 88.6663 63.0948 88.6663 60.3333Z" fill="black"/>
<path d="M10 36.6654C10 35.929 10.597 35.332 11.3333 35.332H22C22.7364 35.332 23.3333 35.929 23.3333 36.6654V43.332C23.3333 44.0684 22.7364 44.6654 22 44.6654H11.3333C10.597 44.6654 10 44.0684 10 43.332V36.6654Z" fill="black"/>
<path d="M9.33301 43.3346V36.668C9.33301 35.5634 10.2284 34.668 11.333 34.668V35.3346C10.5966 35.3346 9.99967 35.9316 9.99967 36.668V43.3346L10.0068 43.4707C10.075 44.1432 10.6426 44.668 11.333 44.668H21.9997L22.1357 44.6608C22.8082 44.5926 23.333 44.0251 23.333 43.3346V36.668C23.333 35.9775 22.8082 35.41 22.1357 35.3418L21.9997 35.3346V34.668C23.1042 34.668 23.9997 35.5634 23.9997 36.668V43.3346C23.9997 44.4392 23.1042 45.3346 21.9997 45.3346H11.333C10.2284 45.3346 9.33301 44.4392 9.33301 43.3346ZM21.9997 34.668V35.3346H11.333V34.668H21.9997Z" fill="black"/>
<path d="M14.4444 44.1266V44.6654H11.0458C10.7806 44.6654 10.5387 44.2744 10.3544 44.1266H14.4444ZM18.6274 44.0881V44.6654H14.7059V44.037L16.6371 42.3636L18.6274 44.0881ZM22.979 44.1266C22.7946 44.2744 22.5527 44.6654 22.2876 44.6654H18.8889V44.1266H22.979ZM19.0768 41.7372C19.2125 41.8816 19.4104 41.9762 19.6329 41.9864L19.6732 41.9874H23.3333V43.4135C23.3333 43.5867 23.2822 43.749 23.1932 43.8889H18.7743L16.7813 42.1622C16.7912 42.1454 16.7974 42.1266 16.7974 42.1062V41.7497H19.0196C19.0402 41.7497 19.0595 41.7449 19.0768 41.7372ZM18.8889 38.422V41.2743L18.8899 41.311C18.8938 41.3811 18.9089 41.4486 18.9336 41.512H16.6667C16.5945 41.512 16.5359 41.5652 16.5359 41.6308V42.1062C16.5359 42.1122 16.5368 42.1179 16.5377 42.1236L14.5004 43.8889H10.1402C10.0511 43.749 10 43.5867 10 43.4135V41.9874H13.6601L13.7005 41.9864C14.1015 41.968 14.4231 41.6756 14.4434 41.311L14.4444 41.2743V38.422H18.8889ZM13.6601 37.9466L13.7135 37.9492C13.9772 37.9735 14.183 38.1758 14.183 38.422V41.2743C14.183 41.5369 13.9489 41.7497 13.6601 41.7497H10V39.967H14.0523C14.1245 39.967 14.183 39.9138 14.183 39.8482C14.183 39.7825 14.1245 39.7293 14.0523 39.7293H10V37.9466H13.6601ZM23.3333 37.9466V39.7293H19.281C19.2089 39.7293 19.1503 39.7825 19.1503 39.8482C19.1503 39.9138 19.2089 39.967 19.281 39.967H23.3333V41.7497H19.6732C19.3844 41.7497 19.1503 41.5369 19.1503 41.2743V38.422C19.1503 38.1595 19.3844 37.9466 19.6732 37.9466H23.3333ZM14.5004 36.0451L16.5377 37.8101C16.5368 37.8159 16.5359 37.8218 16.5359 37.8278V38.1843H14.399C14.2913 37.9075 14.0015 37.7089 13.6601 37.7089H10V36.2828C10 36.2007 10.0114 36.1211 10.0329 36.0451H14.5004ZM23.3004 36.0451C23.3219 36.1211 23.3333 36.2007 23.3333 36.2828V37.7089H19.6732C19.3318 37.7089 19.0421 37.9075 18.9343 38.1843H16.7974V37.8278C16.7974 37.8074 16.7913 37.7884 16.7813 37.7716L18.7743 36.0451H23.3004ZM18.6274 35.8457L16.6373 37.5701L14.7059 35.8968V35.332H18.6274V35.8457ZM22.2876 35.332C22.6746 35.332 23.0123 35.5233 23.1932 35.8074H18.8889V35.332H22.2876ZM14.4444 35.8074H10.1402C10.321 35.5233 10.6587 35.332 11.0458 35.332H14.4444V35.8074Z" fill="#E7E7E7"/>
<path d="M14.4447 44.1263V44.6654H11.0456V44.5319H14.3112V44.2598H10.6725C10.7028 44.2927 10.7324 44.3256 10.7637 44.3568C10.819 44.4119 10.8716 44.4578 10.9219 44.4889C10.972 44.52 11.0125 44.5319 11.0456 44.5319V44.6654L10.9961 44.6608C10.7505 44.6171 10.5269 44.2649 10.3542 44.1263H14.4447ZM18.6276 44.0879V44.6654H14.7057V44.0371L16.6374 42.3639L18.6276 44.0879ZM22.9792 44.1263C22.8064 44.2649 22.5829 44.6171 22.3372 44.6608L22.2878 44.6654V44.5319C22.3208 44.5319 22.3613 44.52 22.4115 44.4889C22.4618 44.4578 22.5143 44.4119 22.5697 44.3568C22.6009 44.3256 22.6305 44.2927 22.6608 44.2598H19.0221V44.5319H22.2878V44.6654H18.8887V44.1263H22.9792ZM14.8392 44.0977V44.5319H18.4941V44.1484L16.6367 42.5397L14.8392 44.0977ZM16.4023 41.6309C16.4023 41.4799 16.5331 41.3789 16.6667 41.3789V41.5117C16.5945 41.5117 16.5358 41.5652 16.5358 41.6309V42.1061C16.5358 42.1121 16.5368 42.118 16.5378 42.1237L14.5007 43.8887H10.14C10.0511 43.7489 10 43.5865 10 43.4134V41.9876H13.6602L13.7005 41.9863C14.1015 41.9678 14.4229 41.6757 14.4434 41.3112L14.4447 41.2741V38.4219H18.8887V41.2741L18.89 41.3112C18.8939 41.3812 18.909 41.4485 18.9336 41.5117H16.6667V41.3789H18.763C18.7603 41.3589 18.7576 41.3388 18.7565 41.3184V41.3145L18.7559 41.278L18.7552 41.2741H18.7559V38.5553H14.5775V41.278L14.5768 41.3145V41.3184C14.5521 41.7613 14.1653 42.0987 13.7064 42.1198H13.7038L13.6634 42.1204H10.1335V43.4134C10.1335 43.5356 10.1645 43.6512 10.2187 43.7559H14.4505L16.4023 42.0645V41.6309ZM23.1999 42.1204H19.6699L19.6296 42.1198H19.627C19.398 42.1092 19.1897 42.0206 19.0339 41.8809C19.0291 41.8811 19.0244 41.8828 19.0195 41.8828H16.931V42.1061C16.931 42.1087 16.9298 42.1114 16.9297 42.1139L18.8236 43.7559H23.1146C23.1688 43.6512 23.1999 43.5356 23.1999 43.4134V42.1204ZM19.1504 41.2741V38.4219C19.1505 38.1594 19.3845 37.9466 19.6732 37.9466H23.3333V39.7292H19.2812C19.2091 39.7292 19.1504 39.7827 19.1504 39.8483C19.1505 39.9139 19.2091 39.9668 19.2812 39.9668H23.3333V41.75H19.6732V41.6165H23.1999V40.1003H19.2839V41.2741C19.2839 41.4513 19.4458 41.6165 19.6732 41.6165V41.75L19.5677 41.7402C19.3465 41.699 19.1762 41.5306 19.153 41.3229L19.1504 41.2741ZM14.0495 38.4219C14.0494 38.2561 13.9088 38.1021 13.7038 38.082L13.6536 38.0801H10.1335V39.5957H14.0495V38.4219ZM23.1999 36.2826C23.1999 36.2472 23.1969 36.2125 23.1921 36.1784H18.8236L16.9297 37.819C16.9298 37.8218 16.931 37.8246 16.931 37.8275V38.0508H18.8496C19.0005 37.7657 19.3158 37.5755 19.6732 37.5755V37.709L19.5482 37.7181C19.2624 37.7598 19.0286 37.9419 18.9342 38.1842H16.7975V37.8275C16.7975 37.8072 16.7912 37.7882 16.7812 37.7715L18.7741 36.0449H23.3001C23.3216 36.1208 23.3333 36.2006 23.3333 36.2826V37.709H19.6732V37.5755H23.1999V36.2826ZM10 36.2826C10 36.2006 10.0117 36.1208 10.0332 36.0449H14.5007L16.5378 37.8099C16.5368 37.8156 16.5358 37.8216 16.5358 37.8275V38.1842H14.3991L14.3503 38.0846C14.2368 37.8929 14.0302 37.7539 13.7852 37.7181L13.6602 37.709V37.5755C14.0176 37.5755 14.3328 37.7657 14.4837 38.0508H16.4023V37.8685L14.4505 36.1784H10.1413C10.1364 36.2125 10.1335 36.2472 10.1335 36.2826V37.5755H13.6602V37.709H10V36.2826ZM18.6276 35.332V35.8457L16.6374 37.5703L14.7057 35.8965V35.332H18.6276ZM14.8392 35.8359L16.6367 37.3932L18.4941 35.7845V35.4655H14.8392V35.8359ZM14.4447 35.332V35.8073H10.14C10.3208 35.5232 10.6586 35.3321 11.0456 35.332H14.4447ZM22.4303 35.3405C22.7567 35.381 23.0351 35.5587 23.1934 35.8073H18.8887V35.332H22.2878L22.4303 35.3405ZM19.0221 35.6738H22.8932C22.7331 35.5458 22.5224 35.4655 22.2878 35.4655H19.0221V35.6738ZM11.0456 35.4655C10.8109 35.4655 10.6002 35.5458 10.4401 35.6738H14.3112V35.4655H11.0456ZM23.3333 43.4134C23.3333 43.5433 23.3045 43.6672 23.2526 43.7799L23.1934 43.8887H18.7741L16.7812 42.1621C16.7862 42.1537 16.7902 42.1448 16.793 42.1354L16.7975 42.1061V41.75H19.0195L19.0495 41.7461C19.059 41.7439 19.0682 41.7408 19.0768 41.737C19.2125 41.8814 19.4104 41.9761 19.6328 41.9863L19.6732 41.9876H23.3333V43.4134ZM14.1829 41.2741C14.1829 41.5038 14.0039 41.6959 13.7656 41.7402L13.6602 41.75V41.6165C13.8875 41.6165 14.0495 41.4513 14.0495 41.2741V40.1003H10.1335V41.6165H13.6602V41.75H10V39.9668H14.0521C14.1242 39.9668 14.1829 39.9139 14.1829 39.8483C14.1829 39.7827 14.1243 39.7292 14.0521 39.7292H10V37.9466H13.6602L13.7135 37.9492C13.9772 37.9735 14.1829 38.1758 14.1829 38.4219V41.2741ZM19.2839 39.5957H23.1999V38.0801H19.6732C19.4459 38.0801 19.2839 38.2447 19.2839 38.4219V39.5957Z" fill="black"/>
</svg>
