<svg width="160" height="160" viewBox="0 0 160 160" fill="none" xmlns="http://www.w3.org/2000/svg">
<path d="M33.3333 45.7396V114.208L68.6667 126.499V32.9388L33.3333 45.7396ZM74 126.499L73.9896 126.839C73.7742 130.325 70.2717 132.703 66.9141 131.535L31.5807 119.246C29.5706 118.547 28.1824 116.726 28.0169 114.63L28 114.208V45.7396C28.0002 43.6353 29.2357 41.7427 31.1289 40.8841L31.5169 40.7253L66.8503 27.9245C70.3275 26.6647 74 29.2404 74 32.9388V126.499Z" fill="white"/>
<path d="M140.234 58.9485C140.234 67.9799 138.157 75.1957 134.062 80.4112C129.118 86.708 121.307 90.1052 110.825 90.5252V101.432C110.825 102.869 109.107 103.647 107.99 102.715L81.9391 80.9902C81.132 80.3171 81.132 79.0958 81.9391 78.4227L107.99 56.6974C109.107 55.7659 110.825 56.5439 110.825 57.9812V68.8031C117.189 68.6353 121.995 67.7346 125.822 66.0064C129.957 64.1387 132.956 61.3476 136.19 57.732L137.22 56.5786C138.267 55.408 140.234 56.1331 140.234 57.6892V58.9485Z" fill="white"/>
<path d="M109.333 41.333C111.542 41.333 113.333 43.124 113.333 45.333V52.3428C111.639 51.1167 109.416 50.6559 107.333 51.1865V47.333H34V112.666H107.333V108.225C109.416 108.756 111.639 108.296 113.333 107.069V114.666C113.333 116.875 111.542 118.666 109.333 118.666H32C29.7909 118.666 28 116.875 28 114.666V45.333C28.0002 43.124 29.791 41.333 32 41.333H109.333ZM108.206 56.543C109.315 55.866 110.825 56.6339 110.825 57.9814V68.8027C111.689 68.78 112.525 68.7415 113.333 68.6914V90.3613C112.515 90.435 111.679 90.4912 110.825 90.5254V101.432C110.825 102.869 109.107 103.647 107.99 102.716L107.333 102.167V57.2451L107.99 56.6973L108.206 56.543Z" fill="white"/>
<path d="M66.8496 28.3232C70.3269 27.0634 74 29.6394 74 33.3379V126.897C74 130.567 70.3807 133.141 66.915 131.936L31.5811 119.646C29.4371 118.9 28.0002 116.878 28 114.608V46.1396C28.0001 43.8948 29.406 41.8907 31.5166 41.126L66.8496 28.3232ZM64.5 75C62.567 75 61 77.2386 61 80C61 82.7614 62.567 85 64.5 85C66.433 85 68 82.7614 68 80C68 77.2386 66.433 75 64.5 75Z" fill="white"/>
</svg>
