<svg width="60" height="60" viewBox="0 0 60 60" fill="none" xmlns="http://www.w3.org/2000/svg">
<path d="M46.798 15C47.9026 15 48.798 15.8954 48.798 17V43C48.798 44.1046 47.9026 45 46.798 45H22.7599C22.1523 45 21.5779 44.7234 21.1984 44.249L10.798 31.249C10.2138 30.5187 10.2138 29.4813 10.798 28.751L21.1984 15.751C21.5779 15.2766 22.1523 15 22.7599 15H46.798ZM39.2531 24.5449C38.7258 24.0178 37.8701 24.0177 37.3429 24.5449L33.798 28.0898L30.2531 24.5449C29.7258 24.0178 28.8701 24.0177 28.3429 24.5449C27.8159 25.0721 27.8159 25.9279 28.3429 26.4551L31.8878 30L28.3429 33.5449C27.8159 34.0721 27.8159 34.9279 28.3429 35.4551C28.87 35.9822 29.7258 35.9821 30.2531 35.4551L33.798 31.9102L37.3429 35.4551C37.87 35.9822 38.7258 35.9821 39.2531 35.4551C39.7803 34.9279 39.7803 34.0721 39.2531 33.5449L35.7081 30L39.2531 26.4551C39.7803 25.9279 39.7803 25.0721 39.2531 24.5449Z" fill="#3D3D3D"/>
</svg>
