<svg width="60" height="60" viewBox="0 0 60 60" fill="none" xmlns="http://www.w3.org/2000/svg">
<path d="M46.7979 15C47.9024 15 48.7979 15.8954 48.7979 17V43C48.7979 44.1046 47.9024 45 46.7979 45H22.7588C22.1514 44.9999 21.5767 44.7234 21.1973 44.249L10.7979 31.249C10.2135 30.5186 10.2135 29.4814 10.7979 28.751L21.1973 15.751C21.5767 15.2766 22.1514 15.0001 22.7588 15H46.7979ZM39.2529 24.5449C38.7257 24.0177 37.87 24.0177 37.3428 24.5449L33.7979 28.0898L30.2529 24.5449C29.7257 24.0177 28.87 24.0177 28.3428 24.5449C27.8156 25.0721 27.8156 25.9279 28.3428 26.4551L31.8877 30L28.3428 33.5449C27.8156 34.0721 27.8156 34.9279 28.3428 35.4551C28.87 35.9822 29.7257 35.9822 30.2529 35.4551L33.7979 31.9102L37.3428 35.4551C37.87 35.9822 38.7257 35.9822 39.2529 35.4551C39.7801 34.9279 39.7801 34.0721 39.2529 33.5449L35.708 30L39.2529 26.4551C39.7801 25.9279 39.7801 25.0721 39.2529 24.5449Z" fill="#3D3D3D"/>
</svg>
