<svg width="290" height="80" viewBox="0 0 290 80" fill="none" xmlns="http://www.w3.org/2000/svg">
<rect x="1" y="1" width="288" height="78" rx="9" fill="black"/>
<rect x="1" y="1" width="288" height="78" rx="9" stroke="#B0B0B0" stroke-width="2"/>
<!-- <path d="M83.4644 36.44V24.2H106.784V36.44H83.4644ZM86.9844 33.56H103.224V27.08H86.9844V33.56ZM79.4244 43.28V40.32H110.784V43.28H79.4244ZM86.9044 53.36H107.384V56.32H83.3844V46.2H86.9044V53.36ZM96.9044 49.96H93.3044V41.84H96.9044V49.96ZM139.522 56.96H136.002V22.64H139.522V56.96ZM137.722 37.16H144.842V40.12H137.722V37.16ZM112.082 52V49.04H118.722C121.576 49.04 124.229 48.9467 126.682 48.76C129.162 48.5733 131.642 48.2933 134.122 47.92L134.482 50.84C132.829 51.08 131.162 51.2933 129.482 51.48C127.829 51.64 126.056 51.7733 124.162 51.88C122.296 51.96 120.216 52 117.922 52H112.082ZM124.802 44.4V50.68H121.242V44.4H124.802ZM123.042 36.04C121.469 36.04 120.256 36.3333 119.402 36.92C118.549 37.48 118.122 38.36 118.122 39.56C118.122 40.76 118.549 41.6533 119.402 42.24C120.256 42.8 121.456 43.08 123.002 43.08C124.576 43.08 125.776 42.8 126.602 42.24C127.456 41.6533 127.882 40.76 127.882 39.56C127.882 38.36 127.456 37.48 126.602 36.92C125.776 36.3333 124.589 36.04 123.042 36.04ZM123.002 45.8C121.349 45.8 119.896 45.56 118.642 45.08C117.389 44.6 116.416 43.8933 115.722 42.96C115.056 42.0267 114.722 40.8933 114.722 39.56C114.722 38.2267 115.056 37.0933 115.722 36.16C116.416 35.2267 117.389 34.52 118.642 34.04C119.896 33.5333 121.349 33.2933 123.002 33.32C125.509 33.3467 127.509 33.8933 129.002 34.96C130.522 36.0267 131.282 37.56 131.282 39.56C131.282 41.56 130.522 43.0933 129.002 44.16C127.509 45.2267 125.509 45.7733 123.002 45.8ZM112.842 31.68V28.88H133.162V31.68H112.842ZM117.482 26.76V23.96H128.562V26.76H117.482ZM154.7 53.6H174.62V56.56H151.18V46.08H154.7V53.6ZM172.78 48.88H169.26V22.64H172.78V48.88ZM170.98 33.72H178.1V36.68H170.98V33.72ZM145.34 43.36V40.4H151.98C154.833 40.4 157.487 40.3067 159.94 40.12C162.42 39.9333 164.9 39.6533 167.38 39.28L167.74 42.2C166.087 42.44 164.42 42.6533 162.74 42.84C161.087 43 159.313 43.1333 157.42 43.24C155.553 43.32 153.473 43.36 151.18 43.36H145.34ZM156.38 32.84V41.52H152.82V32.84H156.38ZM164.5 37.2L160.98 36.76C161.14 35.9067 161.26 35.1333 161.34 34.44C161.42 33.7467 161.473 33.0667 161.5 32.4C161.553 31.7067 161.58 30.9733 161.58 30.2V28.16H147.74V25.24H165.1V30.2C165.1 31.2933 165.06 32.3867 164.98 33.48C164.9 34.5467 164.74 35.7867 164.5 37.2ZM206.038 44.32H202.518V22.64H206.038V44.32ZM195.158 47.52C192.624 47.52 190.664 47.7867 189.278 48.32C187.891 48.8533 187.198 49.76 187.198 51.04C187.198 52.2933 187.891 53.1867 189.278 53.72C190.664 54.2533 192.624 54.52 195.158 54.52C197.718 54.52 199.691 54.2533 201.078 53.72C202.464 53.1867 203.158 52.2933 203.158 51.04C203.158 49.76 202.464 48.8533 201.078 48.32C199.691 47.7867 197.718 47.52 195.158 47.52ZM195.158 57.4C192.811 57.4 190.771 57.16 189.038 56.68C187.304 56.2267 185.971 55.52 185.038 54.56C184.104 53.6267 183.638 52.4533 183.638 51.04C183.638 49.6 184.104 48.4 185.038 47.44C185.971 46.48 187.304 45.7733 189.038 45.32C190.771 44.84 192.811 44.6 195.158 44.6C197.531 44.6 199.571 44.84 201.278 45.32C203.011 45.7733 204.344 46.48 205.278 47.44C206.211 48.4 206.678 49.6 206.678 51.04C206.678 52.4533 206.211 53.6267 205.278 54.56C204.344 55.52 203.011 56.2267 201.278 56.68C199.571 57.16 197.531 57.4 195.158 57.4ZM204.238 32.08H211.358V35.04H204.238V32.08ZM178.598 42.24V39.28H185.238C188.091 39.28 190.744 39.1867 193.198 39C195.678 38.8133 198.158 38.5333 200.638 38.16L200.998 41.08C199.344 41.32 197.678 41.5333 195.998 41.72C194.344 41.88 192.571 42.0133 190.678 42.12C188.811 42.2 186.731 42.24 184.438 42.24H178.598ZM189.638 32.36V40.2H186.078V32.36H189.638ZM197.798 36.12L194.278 35.68C194.491 34.5067 194.638 33.48 194.718 32.6C194.798 31.6933 194.838 30.7067 194.838 29.64V27.76H180.998V24.84H198.358V29.64C198.358 30.6533 198.318 31.6667 198.238 32.68C198.158 33.6667 198.011 34.8133 197.798 36.12Z" fill="white"/> -->
</svg>
