<svg width="280" height="110" viewBox="0 0 280 110" fill="none" xmlns="http://www.w3.org/2000/svg">
<foreignObject x="-15.7" y="-15.7" width="311.4" height="141.4"><div xmlns="http://www.w3.org/1999/xhtml" style="backdrop-filter:blur(7.85px);clip-path:url(#bgblur_0_266_6282_clip_path);height:100%;width:100%"></div></foreignObject><g data-figma-bg-blur-radius="15.7">
<path d="M0 0H225C255.376 0 280 24.6243 280 55C280 85.3757 255.376 110 225 110H0V0Z" fill="white"/>
<rect x="20" y="25" width="60" height="60" rx="30" fill="#E7E7E7"/>
<path d="M62 55L38 55M38 55L47 46M38 55L47 64" stroke="#262626" stroke-width="3" stroke-linecap="round" stroke-linejoin="round"/>
<path d="M130.101 71.35H126.301V38.67H130.101V71.35ZM102.399 59.342V56.15H109.353C112.013 56.15 114.496 56.074 116.801 55.922C119.132 55.7447 121.513 55.4787 123.945 55.124L124.363 58.24C122.742 58.468 121.12 58.6707 119.499 58.848C117.903 59 116.206 59.1267 114.407 59.228C112.634 59.304 110.67 59.342 108.517 59.342H102.399ZM115.357 70.248H111.519V57.328H115.357V70.248ZM105.211 52.16V40.532H121.171V43.648H109.011V49.082H121.589V52.16H105.211ZM151.132 66.828H147.256V57.062H151.132V66.828ZM134.184 68.31V65.156H164.204V68.31H134.184ZM137.908 59.19V48.512H156.68V44.256H137.908V41.14H160.48V51.514H141.708V56.074H161.24V59.19H137.908ZM191.619 71.35H187.819V38.67H191.619V71.35ZM189.681 51.818H196.483V55.01H189.681V51.818ZM167.755 65.498L165.969 62.344C168.198 61.128 170.098 59.9247 171.669 58.734C173.265 57.5433 174.557 56.3527 175.545 55.162C176.558 53.9713 177.306 52.7807 177.787 51.59C178.268 50.374 178.509 49.12 178.509 47.828V45.358H167.413V42.242H182.309V47.524C182.309 49.2467 182.018 50.8933 181.435 52.464C180.852 54.0093 179.966 55.5167 178.775 56.986C177.61 58.43 176.115 59.8613 174.291 61.28C172.467 62.6733 170.288 64.0793 167.755 65.498ZM224.886 71.35H221.086V38.67H224.886V71.35ZM199.502 65.688L197.83 62.496C200.059 61.3053 201.997 60.1147 203.644 58.924C205.316 57.708 206.684 56.492 207.748 55.276C208.812 54.06 209.597 52.8313 210.104 51.59C210.636 50.3487 210.902 49.0693 210.902 47.752V45.206H199.236V42.09H214.702V47.448C214.702 49.1707 214.385 50.83 213.752 52.426C213.144 53.9967 212.207 55.5293 210.94 57.024C209.699 58.5187 208.128 59.988 206.228 61.432C204.328 62.8507 202.086 64.2693 199.502 65.688Z" fill="black"/>
</g>
<defs>
<clipPath id="bgblur_0_266_6282_clip_path" transform="translate(15.7 15.7)"><path d="M0 0H225C255.376 0 280 24.6243 280 55C280 85.3757 255.376 110 225 110H0V0Z"/>
</clipPath></defs>
</svg>
