<svg width="440" height="60" viewBox="0 0 440 60" fill="none" xmlns="http://www.w3.org/2000/svg">
<rect width="440" height="60" rx="10" fill="white"/>
<!-- <path d="M193.254 33.1L192.102 29.788C194.406 28.972 196.374 28.084 198.006 27.124C199.638 26.164 200.874 25.072 201.714 23.848C202.578 22.624 203.01 21.22 203.01 19.636V16.756H207.042V19.636C207.042 21.244 207.462 22.66 208.302 23.884C209.166 25.108 210.402 26.2 212.01 27.16C213.642 28.096 215.622 28.972 217.95 29.788L216.834 33.1C214.554 32.212 212.538 31.288 210.786 30.328C209.034 29.344 207.57 28.18 206.394 26.836C205.218 25.468 204.354 23.788 203.802 21.796H206.25C205.722 23.788 204.87 25.456 203.694 26.8C202.518 28.144 201.054 29.308 199.302 30.292C197.574 31.276 195.558 32.212 193.254 33.1ZM207.042 41.668H203.01V31.66H207.042V41.668ZM190.698 42.856V39.508H219.354V42.856H190.698ZM240.934 44.404H237.118V15.172H240.934V44.404ZM247.918 45.628H244.03V14.848H247.918V45.628ZM238.702 26.764H245.758V30.076H238.702V26.764ZM222.394 39.292L220.342 36.16C222.358 35.032 224.014 33.952 225.31 32.92C226.63 31.864 227.662 30.832 228.406 29.824C229.15 28.816 229.666 27.808 229.954 26.8C230.266 25.792 230.422 24.748 230.422 23.668V21.796H221.782V18.448H234.454V23.416C234.454 25.528 234.058 27.448 233.266 29.176C232.498 30.904 231.226 32.584 229.45 34.216C227.698 35.824 225.346 37.516 222.394 39.292Z" fill="black"/> -->
<path d="M408 6H430C432.209 6 434 7.79086 434 10V32L421.366 19L408 6Z" fill="black"/>
</svg>
