<svg width="290" height="60" viewBox="0 0 290 60" fill="none" xmlns="http://www.w3.org/2000/svg">
<rect width="290" height="60" rx="10" fill="white"/>
<!-- <path d="M125.346 42.244H142.878V45.556H121.314V35.152H125.346V42.244ZM142.086 37.456H138.054V14.668H142.086V37.456ZM132.114 23.308H140.106V26.62H132.114V23.308ZM116.706 20.5V17.224H133.23V20.5H116.706ZM117.21 34.144L115.338 31.012C117.33 29.812 118.878 28.708 119.982 27.7C121.086 26.692 121.854 25.684 122.286 24.676C122.718 23.668 122.934 22.552 122.934 21.328V18.772H127.002V21.328C127.002 22.48 127.206 23.536 127.614 24.496C128.022 25.456 128.766 26.404 129.846 27.34C130.926 28.252 132.462 29.224 134.454 30.256L132.762 33.352C130.89 32.44 129.378 31.504 128.226 30.544C127.074 29.584 126.15 28.54 125.454 27.412C124.782 26.284 124.23 24.976 123.798 23.488H126.174C125.814 24.736 125.382 25.852 124.878 26.836C124.398 27.796 123.81 28.684 123.114 29.5C122.442 30.292 121.614 31.06 120.63 31.804C119.67 32.548 118.53 33.328 117.21 34.144ZM166.294 44.404H162.478V15.172H166.294V44.404ZM172.918 45.628H169.03V14.884H172.918V45.628ZM158.482 28.276H164.854V31.588H158.482V28.276ZM146.206 25.684V22.408H160.318V25.684H146.206ZM147.394 39.796L145.018 37.06C146.674 35.548 147.946 34.132 148.834 32.812C149.746 31.468 150.37 30.112 150.706 28.744C151.066 27.376 151.246 25.924 151.246 24.388V23.668H155.278V24.388C155.278 25.828 155.446 27.208 155.782 28.528C156.142 29.824 156.778 31.12 157.69 32.416C158.602 33.712 159.874 35.104 161.506 36.592L159.202 39.364C157.93 38.164 156.85 37 155.962 35.872C155.098 34.744 154.378 33.52 153.802 32.2C153.25 30.88 152.782 29.356 152.398 27.628H154.126C153.742 29.5 153.262 31.132 152.686 32.524C152.11 33.892 151.39 35.152 150.526 36.304C149.662 37.432 148.618 38.596 147.394 39.796ZM149.014 19.672V16.324H157.438V19.672H149.014Z" fill="black"/> -->
<path d="M258 6H280C282.209 6 284 7.79086 284 10V32L271.366 19L258 6Z" fill="black"/>
</svg>
