<svg width="60" height="60" viewBox="0 0 60 60" fill="none" xmlns="http://www.w3.org/2000/svg">
<rect width="60" height="60" rx="30" fill="#454545"/>
<path d="M42.7861 13C44.9722 13 47.0312 15.0654 47.0312 17.2549V42.7451C47.0312 44.9346 44.9722 47 42.7861 47H17.2871C15.0902 47 13.0312 44.9346 13.0312 42.7451V17.2549C13.0312 15.0654 15.0902 13 17.2871 13H42.7861ZM30.9277 39.6768C29.9502 39.9423 29.0076 40.1421 28.1387 40.2803L21.5391 45.5732H23.6416L31.001 39.6543L30.9277 39.6768ZM14.4541 41.2969V41.6768C14.4578 42.0703 14.5251 42.4475 14.6553 42.8086L19.2471 39.1152C18.9126 38.8329 18.6206 38.5042 18.3789 38.1396L14.4541 41.2969ZM35.7744 18.1982C35.7349 18.2 32.0606 18.3655 29.6973 19.6699C29.6973 19.6699 21.3063 25.7345 18.6748 32.3193C18.6748 32.3193 17.5503 35.3568 19.0273 37.6113C19.1631 37.8335 19.3347 38.0348 19.5166 38.2354C20.2362 38.9776 21.3387 39.582 22.9922 39.834C22.9922 39.834 26.5772 40.0154 30.7158 38.8936C31.0887 38.7942 31.4598 38.6846 31.8291 38.5654C32.0843 38.4788 32.4452 38.3435 32.8252 38.1621C33.5693 37.8369 34.4493 37.4 35.0332 37.0098L45.6084 29.0381V23.5342L42.5967 24.4775C41.6948 24.8671 40.8377 25.3527 40.041 25.9268C39.2363 26.4323 36.1607 29.4353 36.1465 29.4492C34.289 30.8583 33.1758 30.4248 33.1758 30.4248L37.0371 25.5342C38.9446 22.6319 42.2358 22.2683 42.2783 22.2637L45.6084 21.6289V17.7217L35.7744 18.1982ZM30.0801 31.208C29.7527 31.9045 27.3824 34.7952 27.3643 34.8174L25.6533 34.1406L28.5186 31.1133L30.0801 31.208ZM22.4736 29.5576L20.874 32.7744L19.8535 32.2764C20.5867 30.6478 21.9111 28.9209 21.9111 28.9209L22.4736 29.5576ZM35.4707 22.751L32.1387 28.1924L24.3174 26.0107C25.4269 24.6714 29.2786 21.3864 29.3057 21.3633L35.4707 22.751Z" fill="white"/>
</svg>
