<?xml version="1.0" encoding="UTF-8"?>
<svg id="Layer_1" xmlns="http://www.w3.org/2000/svg" width="49.4mm" height="49.4mm" version="1.1" xmlns:xlink="http://www.w3.org/1999/xlink" viewBox="0 0 140 140">
  <!-- Generator: Adobe Illustrator 30.2.0, SVG Export Plug-In . SVG Version: 2.1.1 Build 105)  -->
  <defs>
    <style>
      .st0 {
        fill: url(#linear-gradient2);
      }

      .st1 {
        fill: url(#linear-gradient1);
      }

      .st2 {
        fill: url(#linear-gradient3);
      }

      .st3 {
        fill: url(#linear-gradient);
      }
    </style>
    <linearGradient id="linear-gradient" x1="69.4" y1="127" x2="70.4" y2="17" gradientTransform="translate(0 141.4) scale(1 -1)" gradientUnits="userSpaceOnUse">
      <stop offset="0" stop-color="#0277c7"/>
      <stop offset="1" stop-color="#215072"/>
    </linearGradient>
    <linearGradient id="linear-gradient1" x1="63.7" y1="516.2" x2="75.2" y2="521.2" gradientTransform="translate(0 -454)" xlink:href="#linear-gradient"/>
    <linearGradient id="linear-gradient2" x1="70.3" y1="516.6" x2="79" y2="518.8" gradientTransform="translate(0 -454)" gradientUnits="userSpaceOnUse">
      <stop offset="0" stop-color="#0277c7"/>
      <stop offset="1" stop-color="#215072"/>
    </linearGradient>
    <linearGradient id="linear-gradient3" x1="61.1" y1="518.6" x2="68.5" y2="520.4" gradientTransform="translate(0 -454)" gradientUnits="userSpaceOnUse">
      <stop offset="0" stop-color="#0277c7"/>
      <stop offset="1" stop-color="#215072"/>
    </linearGradient>
  </defs>
  <path class="st3" d="M105.9,8.8c5.3,0,9.6,4.3,9.6,9.6v103.2c0,4.3-3.5,7.9-7.9,7.9H32.4c-4.3,0-7.9-3.5-7.9-7.9V18.4c0-5.3,4.3-9.6,9.6-9.6,0,0,71.8,0,71.8,0ZM29.8,121.6c0,1.4,1.2,2.6,2.6,2.6h75.2c1.4,0,2.6-1.2,2.6-2.6V35H29.8v86.6ZM70,42c19.3,0,35,15.7,35,35s-15.7,35-35,35-35-15.7-35-35,15.7-35,35-35ZM70,47.3c-16.4,0-29.8,13.3-29.8,29.8s13.3,29.8,29.8,29.8,29.8-13.3,29.8-29.8-13.3-29.8-29.8-29.8ZM79.5,75l6.7,2.7c1,.4,1.5,1.5,1.1,2.5l-2.2,6.3c-.4,1-1.4,1.5-2.5,1.2l-3.2-.9v12.7c0,1.1-.9,2-2,2h-15c-1.1,0-2-.9-2-2v-12.7l-3.2.9c-1,.3-2.1-.2-2.5-1.2l-2.2-6.3c-.4-1,.1-2.1,1.1-2.5l6.7-2.7,3.1-1c1.1,2.6,3.5,4.4,6.4,4.4s5.3-1.8,6.4-4.4l3.1,1h.2ZM34.1,14c-2.4,0-4.4,2-4.4,4.4v13.1h80.5v-13.1c0-2.4-2-4.4-4.4-4.4H34.1ZM57.1,18.4c2.3.1,4.2,2,4.2,4.4s-2,4.4-4.4,4.4h-19.2c-2.4,0-4.4-2-4.4-4.4s1.8-4.3,4.2-4.4h19.6ZM102.6,18.4c2.3.1,4.2,2,4.2,4.4s-2,4.4-4.4,4.4h-19.2c-2.4,0-4.4-2-4.4-4.4s1.8-4.3,4.2-4.4h19.6ZM70,19.3c1.9,0,3.5,1.6,3.5,3.5s-1.6,3.5-3.5,3.5-3.5-1.6-3.5-3.5,1.6-3.5,3.5-3.5ZM37.6,21c-1,0-1.8.8-1.8,1.8s.8,1.8,1.8,1.8h19.2c1,0,1.8-.8,1.8-1.8s-.8-1.8-1.8-1.8h-19.2ZM83.1,21c-1,0-1.8.8-1.8,1.8s.8,1.8,1.8,1.8h19.2c1,0,1.8-.8,1.8-1.8s-.8-1.8-1.8-1.8h-19.2Z"/>
  <path class="st1" d="M69.9,61.3c-1.5-2.6-.7-6-.1-7.3-1,.7-3.1,2.6-3.2,4.8-.1,2.3,1,4.4,1.5,5.3l1.5,3.2c1.3,3.4-.4,6.5-1.5,7.7,1.6-1.1,2.9-2.6,3.4-3.2,1.3-2.3,1-4.9.7-5.9,0-.4-.7-2-2.2-4.6h-.1Z"/>
  <path class="st0" d="M74.6,61.4c-1.4-1.7-1.2-4.1-1-5-.6.5-1.9,2-1.7,3.6.2,1.6,1.2,2.9,1.7,3.5l1.4,2.1c1.3,2.2.5,4.5,0,5.4,1-.9,1.7-2,2-2.5.6-1.7.1-3.4-.2-4.1-.1-.3-.7-1.3-2.1-3h-.1Z"/>
  <path class="st2" d="M64.8,63.6c-1.2-1.4-1.1-3.4-.8-4.3-.5.5-1.6,1.7-1.4,3,.2,1.3,1.1,2.5,1.4,3l1.2,1.8c1.1,1.9.4,3.8,0,4.6.9-.8,1.5-1.7,1.7-2.1.5-1.4.1-2.9-.2-3.5-.1-.2-.6-1.1-1.8-2.5h-.1Z"/>
  <metadata>
    <sfw xmlns="http://ns.adobe.com/SaveForWeb/1.0/">
      <slices/>
      <sliceSourceBounds x="24.51" y="10.5" width="91.02" height="120.73" bottomLeftOrigin="true"/>
    </sfw>
  </metadata>
</svg>