<svg width="150" height="150" viewBox="0 0 150 150" fill="none" xmlns="http://www.w3.org/2000/svg">
<rect x="15" y="35" width="120" height="76" rx="3" fill="white" stroke="#3D3D3D" stroke-width="4"/>
<rect x="27" y="88" width="47" height="4" rx="2" fill="#3D3D3D"/>
<rect x="27" y="95" width="30" height="4" rx="2" fill="#3D3D3D"/>
<ellipse cx="105" cy="90.5" rx="10" ry="9.5" fill="#3D3D3D"/>
<circle cx="117.5" cy="90.5" r="8.5" fill="white" stroke="#3D3D3D" stroke-width="2"/>
<rect x="26.5" y="52.5" width="21" height="15" rx="2.5" fill="#3D3D3D" stroke="#3D3D3D"/>
<path d="M33.5664 66.292V66.9004H28.5684C28.4939 66.9003 28.4148 66.8728 28.3301 66.8203C28.2453 66.7677 28.1604 66.6933 28.0752 66.6084C27.9898 66.5233 27.9087 66.4315 27.8281 66.3438C27.812 66.3262 27.7954 66.3092 27.7793 66.292H33.5664ZM46.2207 66.292C46.2046 66.3092 46.188 66.3262 46.1719 66.3438C46.0913 66.4315 46.0102 66.5233 45.9248 66.6084C45.8396 66.6933 45.7547 66.7677 45.6699 66.8203C45.5852 66.8728 45.5061 66.9003 45.4316 66.9004H40.4336V66.292H46.2207ZM39.8408 66.1787V66.9004H34.1592V66.1016L36.9551 63.6797L39.8408 66.1787ZM40.5869 62.7197C40.806 62.9303 41.1083 63.0655 41.4443 63.0811V63.082H41.4473L41.5078 63.083H46.9004V65.1221C46.9004 65.3435 46.8374 65.5513 46.7305 65.7354H40.1982L37.2871 63.2139C37.2908 63.1969 37.2959 63.1797 37.2959 63.1611V62.7266H40.5293C40.5493 62.7266 40.5685 62.7233 40.5869 62.7197ZM40.2334 57.7354V61.916L40.2354 61.9717V61.9736C40.2391 62.0407 40.2501 62.1063 40.2656 62.1699H37C36.8457 62.1699 36.7041 62.2858 36.7041 62.4482V63.1436L33.7129 65.7354H27.2695C27.1626 65.5513 27.0996 65.3435 27.0996 65.1221V63.083H32.4922L32.5527 63.082L32.5557 63.0811C33.2005 63.0512 33.7309 62.5792 33.7646 61.9736V61.9717L33.7666 61.916V57.7354H40.2334ZM40.8252 60.0361C40.856 60.0462 40.8886 60.0527 40.9219 60.0527H46.9004V62.5264H41.5098C41.1227 62.5263 40.8252 62.2429 40.8252 61.9131V60.0361ZM33.1748 61.9131C33.1748 62.2429 32.8773 62.5263 32.4902 62.5264H27.0996V60.0527H33.0781C33.1114 60.0527 33.144 60.0462 33.1748 60.0361V61.9131ZM41.5098 57.0215H46.9004V59.4961H40.9219C40.8887 59.4961 40.8559 59.5017 40.8252 59.5117V57.6348C40.8253 57.305 41.1228 57.0215 41.5098 57.0215ZM32.4854 57.0215L32.5615 57.0244V57.0254C32.9138 57.0581 33.1747 57.3255 33.1748 57.6348V59.5117C33.1441 59.5017 33.1113 59.4961 33.0781 59.4961H27.0996V57.0215H32.4854ZM46.8701 54.1699C46.8881 54.2528 46.9004 54.338 46.9004 54.4258V56.4658H41.5098C40.9863 56.4658 40.5357 56.7571 40.3398 57.1787H37.2959V56.7432C37.2959 56.7247 37.2918 56.7074 37.2881 56.6904L40.1982 54.1699H46.8701ZM33.7129 54.1699L36.7041 56.7607V57.1787H33.6602C33.4643 56.7571 33.0137 56.4658 32.4902 56.4658H27.0996V54.4258C27.0996 54.338 27.1119 54.2528 27.1299 54.1699H33.7129ZM39.8408 53.0996V53.7256L36.9551 56.2236L34.1592 53.8018V53.0996H39.8408ZM45.4316 53.0996C45.9049 53.0997 46.3223 53.3029 46.5898 53.6133H40.4336V53.0996H45.4316ZM28.5684 53.0996H33.5664V53.6133H27.4102C27.6777 53.3029 28.0951 53.0997 28.5684 53.0996Z" fill="#F6F6F6" stroke="#3D3D3D" stroke-width="0.2"/>
</svg>
