<svg width="150" height="150" viewBox="0 0 150 150" fill="none" xmlns="http://www.w3.org/2000/svg">
<path d="M54.4737 20C76.2744 20 93.9474 26.332 93.9474 34.1429V89.1429C93.9474 96.9537 76.2744 103.286 54.4737 103.286C32.673 103.286 15 96.9537 15 89.1429V34.1429C15 26.332 32.673 20 54.4737 20Z" fill="white"/>
<path d="M89.2105 89.1429V34.1429C89.2105 34.1005 89.2003 33.4351 87.775 32.2277C86.3686 31.0364 84.0538 29.7511 80.7807 28.5784C74.2747 26.2474 64.9744 24.7143 54.4737 24.7143C43.973 24.7143 34.6727 26.2474 28.1666 28.5784C24.8936 29.7511 22.5788 31.0364 21.1724 32.2277C19.747 33.4351 19.7368 34.1005 19.7368 34.1429V89.1429C19.7368 89.1852 19.747 89.8507 21.1724 91.058C22.5788 92.2493 24.8936 93.5346 28.1666 94.7073C34.6727 97.0383 43.973 98.5714 54.4737 98.5714V103.286C32.673 103.286 15 96.9537 15 89.1429V34.1429C15 26.332 32.673 20 54.4737 20C76.2744 20 93.9474 26.332 93.9474 34.1429V89.1429C93.9474 96.9537 76.2744 103.286 54.4737 103.286V98.5714C64.9744 98.5714 74.2747 97.0383 80.7807 94.7073C84.0538 93.5346 86.3686 92.2493 87.775 91.058C89.2003 89.8507 89.2105 89.1852 89.2105 89.1429Z" fill="#3D3D3D"/>
<path d="M93.9474 86.0001C93.9474 95.5467 76.2744 103.286 54.4737 103.286C32.673 103.286 15 95.5467 15 86.0001C15 76.4534 32.673 68.7144 54.4737 68.7144C76.2744 68.7144 93.9474 76.4534 93.9474 86.0001Z" fill="white"/>
<path d="M89.2105 86.0001C89.2105 85.1638 88.8441 84.0009 87.4311 82.538C85.9957 81.0519 83.6911 79.4991 80.4785 78.0923C74.0662 75.2843 64.8756 73.4286 54.4737 73.4286C44.0718 73.4286 34.8812 75.2843 28.4689 78.0923C25.2562 79.4991 22.9516 81.0519 21.5162 82.538C20.1033 84.0009 19.7368 85.1638 19.7368 86.0001C19.7368 86.8363 20.1033 87.9993 21.5162 89.4621C22.9516 90.9482 25.2562 92.501 28.4689 93.9079C34.8812 96.7159 44.0718 98.5715 54.4737 98.5715V103.286C32.673 103.286 15 95.5467 15 86.0001C15 76.4534 32.673 68.7144 54.4737 68.7144C76.2744 68.7144 93.9474 76.4534 93.9474 86.0001C93.9474 95.5467 76.2744 103.286 54.4737 103.286V98.5715C64.8756 98.5715 74.0662 96.7159 80.4785 93.9079C83.6911 92.501 85.9957 90.9482 87.4311 89.4621C88.8441 87.9993 89.2105 86.8363 89.2105 86.0001Z" fill="#3D3D3D"/>
<path d="M93.9474 75.0001C93.9474 84.5467 76.2744 92.2858 54.4737 92.2858C32.673 92.2858 15 84.5467 15 75.0001C15 65.4534 32.673 57.7144 54.4737 57.7144C76.2744 57.7144 93.9474 65.4534 93.9474 75.0001Z" fill="white"/>
<path d="M89.2105 75.0001C89.2105 74.1638 88.8441 73.0009 87.4311 71.538C85.9957 70.0519 83.6911 68.4991 80.4785 67.0923C74.0662 64.2843 64.8756 62.4286 54.4737 62.4286C44.0718 62.4286 34.8812 64.2843 28.4689 67.0923C25.2562 68.4991 22.9516 70.0519 21.5162 71.538C20.1033 73.0009 19.7368 74.1638 19.7368 75.0001C19.7368 75.8363 20.1033 76.9993 21.5162 78.4621C22.9516 79.9482 25.2562 81.501 28.4689 82.9079C34.8812 85.7159 44.0718 87.5715 54.4737 87.5715V92.2858C32.673 92.2858 15 84.5467 15 75.0001C15 65.4534 32.673 57.7144 54.4737 57.7144C76.2744 57.7144 93.9474 65.4534 93.9474 75.0001C93.9474 84.5467 76.2744 92.2858 54.4737 92.2858V87.5715C64.8756 87.5715 74.0662 85.7159 80.4785 82.9079C83.6911 81.501 85.9957 79.9482 87.4311 78.4621C88.8441 76.9993 89.2105 75.8363 89.2105 75.0001Z" fill="#3D3D3D"/>
<path d="M93.9474 64.0001C93.9474 73.5467 76.2744 81.2858 54.4737 81.2858C32.673 81.2858 15 73.5467 15 64.0001C15 54.4534 32.673 46.7144 54.4737 46.7144C76.2744 46.7144 93.9474 54.4534 93.9474 64.0001Z" fill="white"/>
<path d="M89.2105 64.0001C89.2105 63.1638 88.8441 62.0009 87.4311 60.538C85.9957 59.0519 83.6911 57.4991 80.4785 56.0923C74.0662 53.2843 64.8756 51.4286 54.4737 51.4286C44.0718 51.4286 34.8812 53.2843 28.4689 56.0923C25.2562 57.4991 22.9516 59.0519 21.5162 60.538C20.1033 62.0009 19.7368 63.1638 19.7368 64.0001C19.7368 64.8363 20.1033 65.9993 21.5162 67.4621C22.9516 68.9482 25.2562 70.501 28.4689 71.9079C34.8812 74.7159 44.0718 76.5715 54.4737 76.5715V81.2858C32.673 81.2858 15 73.5467 15 64.0001C15 54.4534 32.673 46.7144 54.4737 46.7144C76.2744 46.7144 93.9474 54.4534 93.9474 64.0001C93.9474 73.5467 76.2744 81.2858 54.4737 81.2858V76.5715C64.8756 76.5715 74.0662 74.7159 80.4785 71.9079C83.6911 70.501 85.9957 68.9482 87.4311 67.4621C88.8441 65.9993 89.2105 64.8363 89.2105 64.0001Z" fill="#3D3D3D"/>
<path d="M93.9474 53.0001C93.9474 62.5467 76.2744 70.2858 54.4737 70.2858C32.673 70.2858 15 62.5467 15 53.0001C15 43.4534 32.673 35.7144 54.4737 35.7144C76.2744 35.7144 93.9474 43.4534 93.9474 53.0001Z" fill="white"/>
<path d="M89.2105 53.0001C89.2105 52.1638 88.8441 51.0009 87.4311 49.538C85.9957 48.0519 83.6911 46.4991 80.4785 45.0923C74.0662 42.2843 64.8756 40.4286 54.4737 40.4286C44.0718 40.4286 34.8812 42.2843 28.4689 45.0923C25.2562 46.4991 22.9516 48.0519 21.5162 49.538C20.1033 51.0009 19.7368 52.1638 19.7368 53.0001C19.7368 53.8363 20.1033 54.9993 21.5162 56.4621C22.9516 57.9482 25.2562 59.501 28.4689 60.9079C34.8812 63.7159 44.0718 65.5715 54.4737 65.5715V70.2858C32.673 70.2858 15 62.5467 15 53.0001C15 43.4534 32.673 35.7144 54.4737 35.7144C76.2744 35.7144 93.9474 43.4534 93.9474 53.0001C93.9474 62.5467 76.2744 70.2858 54.4737 70.2858V65.5715C64.8756 65.5715 74.0662 63.7159 80.4785 60.9079C83.6911 59.501 85.9957 57.9482 87.4311 56.4621C88.8441 54.9993 89.2105 53.8363 89.2105 53.0001Z" fill="#3D3D3D"/>
<path d="M93.9474 42.0001C93.9474 51.5467 76.2744 59.2858 54.4737 59.2858C32.673 59.2858 15 51.5467 15 42.0001C15 32.4534 32.673 24.7144 54.4737 24.7144C76.2744 24.7144 93.9474 32.4534 93.9474 42.0001Z" fill="white"/>
<path d="M89.2105 42.0001C89.2105 41.1638 88.8441 40.0009 87.4311 38.538C85.9957 37.0519 83.6911 35.4991 80.4785 34.0923C74.0662 31.2843 64.8756 29.4286 54.4737 29.4286C44.0718 29.4286 34.8812 31.2843 28.4689 34.0923C25.2562 35.4991 22.9516 37.0519 21.5162 38.538C20.1033 40.0009 19.7368 41.1638 19.7368 42.0001C19.7368 42.8363 20.1033 43.9993 21.5162 45.4621C22.9516 46.9482 25.2562 48.501 28.4689 49.9079C34.8812 52.7159 44.0718 54.5715 54.4737 54.5715V59.2858C32.673 59.2858 15 51.5467 15 42.0001C15 32.4534 32.673 24.7144 54.4737 24.7144C76.2744 24.7144 93.9474 32.4534 93.9474 42.0001C93.9474 51.5467 76.2744 59.2858 54.4737 59.2858V54.5715C64.8756 54.5715 74.0662 52.7159 80.4785 49.9079C83.6911 48.501 85.9957 46.9482 87.4311 45.4621C88.8441 43.9993 89.2105 42.8363 89.2105 42.0001Z" fill="#3D3D3D"/>
<path d="M93.9474 34.1429C93.9474 41.9537 76.2744 48.2857 54.4737 48.2857C32.673 48.2857 15 41.9537 15 34.1429C15 26.332 32.673 20 54.4737 20C76.2744 20 93.9474 26.332 93.9474 34.1429Z" fill="white"/>
<path d="M89.2105 34.1429C89.2105 34.1005 89.2003 33.4351 87.775 32.2277C86.3686 31.0364 84.0538 29.7511 80.7807 28.5784C74.2747 26.2474 64.9744 24.7143 54.4737 24.7143C43.973 24.7143 34.6727 26.2474 28.1666 28.5784C24.8936 29.7511 22.5788 31.0364 21.1724 32.2277C19.747 33.4351 19.7368 34.1005 19.7368 34.1429C19.7368 34.1852 19.747 34.8507 21.1724 36.058C22.5788 37.2493 24.8936 38.5346 28.1666 39.7073C34.6727 42.0383 43.973 43.5714 54.4737 43.5714V48.2857C32.673 48.2857 15 41.9537 15 34.1429C15 26.332 32.673 20 54.4737 20C76.2744 20 93.9474 26.332 93.9474 34.1429C93.9474 41.9537 76.2744 48.2857 54.4737 48.2857V43.5714C64.9744 43.5714 74.2747 42.0383 80.7807 39.7073C84.0538 38.5346 86.3686 37.2493 87.775 36.058C89.2003 34.8507 89.2105 34.1852 89.2105 34.1429Z" fill="#3D3D3D"/>
<path d="M55.1252 36.3908L60.9399 38.56C62.253 39.0498 62.2456 39.8237 60.9233 40.2885C59.601 40.7533 57.4646 40.733 56.1515 40.2431L39.9619 34.2035C37.5122 33.2896 37.5261 31.8459 39.9928 30.9789L45.8198 28.9307C48.4257 28.0148 51.0654 27.5913 53.7388 27.6603C56.0888 27.7188 58.3348 28.1475 60.4765 28.9465C62.9824 29.8813 64.2148 30.8603 64.1737 31.8835C64.135 32.7816 63.1167 33.5818 61.1188 34.284L55.1252 36.3908ZM49.6951 34.3651C50.5117 34.6697 51.8402 34.6823 52.6624 34.3933L55.6363 33.348C58.1553 32.4626 58.269 31.5924 55.9773 30.7375C53.6642 29.8746 51.2481 29.8858 48.729 30.7713L45.7552 31.8166C44.9329 32.1056 44.9283 32.5868 45.7448 32.8914L49.6951 34.3651Z" fill="#3D3D3D"/>
<path d="M135 87.5711C135 111.004 115.913 130 92.3684 130C68.8236 130 49.7368 111.004 49.7368 87.5711C49.7368 64.1385 68.8236 45.1426 92.3684 45.1426C115.913 45.1426 135 64.1385 135 87.5711Z" fill="white"/>
<path d="M130.263 87.5711C130.263 66.7421 113.297 49.8569 92.3684 49.8569C71.4397 49.8569 54.4737 66.7421 54.4737 87.5711C54.4737 108.4 71.4397 125.285 92.3684 125.285V130C68.8236 130 49.7368 111.004 49.7368 87.5711C49.7368 64.1385 68.8236 45.1426 92.3684 45.1426C115.913 45.1426 135 64.1385 135 87.5711C135 111.004 115.913 130 92.3684 130V125.285C113.297 125.285 130.263 108.4 130.263 87.5711Z" fill="#3D3D3D"/>
<path d="M86.6442 95.0199V106.428C86.6442 108.164 85.2304 109.571 83.4863 109.571H81.3156C79.5716 109.571 78.1577 108.164 78.1577 106.428V73.4282C78.1577 70.8245 80.2785 68.7139 82.8946 68.7139H96.4008C101.019 68.7139 104.464 69.9502 106.735 72.423C108.736 74.5914 109.737 77.5777 109.737 81.3819C109.737 85.8328 108.467 89.2946 105.926 91.7673C103.694 93.9357 100.808 95.0199 97.2667 95.0199H86.6442ZM86.6442 86.4298C86.6442 87.2976 87.3511 88.0012 88.2231 88.0012H94.5534C99.0179 88.0012 101.25 85.9659 101.25 81.8954C101.25 77.7869 99.0179 75.7326 94.5534 75.7326H88.2231C87.3511 75.7326 86.6442 76.4362 86.6442 77.304V86.4298Z" fill="#3D3D3D"/>
</svg>
