<?xml version="1.0" encoding="UTF-8"?>
<svg xmlns="http://www.w3.org/2000/svg" width="50" height="50" version="1.1" viewBox="0 0 50 50">
  <!-- Generator: Adobe Illustrator 30.1.0, SVG Export Plug-In . SVG Version: 2.1.1 Build 136)  -->
  <defs>
    <style>
      .st0 {
        display: none;
      }

      .st1 {
        fill: #3d3d3d;
      }
    </style>
  </defs>
  <g id="Layer_1" class="st0">
    <path class="st1" d="M16.7,36.6c1.1,0,2.1.4,2.8,1.2.8.8,1.2,1.8,1.2,2.8s-.4,2.1-1.2,2.8c-.8.8-1.8,1.2-2.8,1.2s-2.1-.4-2.8-1.2c-.8-.8-1.2-1.8-1.2-2.8,0-2.2,1.8-4,4-4ZM36.7,36.6c1.1,0,2.1.4,2.8,1.2.8.8,1.2,1.8,1.2,2.8s-.4,2.1-1.2,2.8c-.8.8-1.8,1.2-2.8,1.2s-2.1-.4-2.8-1.2c-.8-.8-1.2-1.8-1.2-2.8,0-2.2,1.8-4,4-4ZM13.1,8.6h29.6c.5,0,1,.2,1.4.6.4.4.6.9.6,1.4s0,.7-.2,1l-7.2,12.9c-.7,1.2-2,2.1-3.5,2.1h-14.9l-1.8,3.3c0,0,0,.1,0,.2s0,.3.1.4c0,0,.2.1.4.1h21.2c1.1,0,2,.9,2,2s-.9,2-2,2h-22c-1.1,0-2.1-.4-2.8-1.2-.8-.8-1.2-1.8-1.2-2.8s.2-1.4.5-1.9l2.7-4.9-7.2-15.2h-2c-1.1,0-2-.9-2-2s.8-1.9,1.8-2h4.7s1.9,4,1.9,4Z"/>
  </g>
  <g id="Layer_2">
    <path class="st1" d="M16.7,36.6c1.1,0,2.1.4,2.8,1.2.8.8,1.2,1.8,1.2,2.8s-.4,2.1-1.2,2.8c-.8.8-1.8,1.2-2.8,1.2s-2.1-.4-2.8-1.2c-.8-.8-1.2-1.8-1.2-2.8,0-2.2,1.8-4,4-4ZM36.7,36.6c1.1,0,2.1.4,2.8,1.2.8.8,1.2,1.8,1.2,2.8s-.4,2.1-1.2,2.8c-.8.8-1.8,1.2-2.8,1.2s-2.1-.4-2.8-1.2c-.8-.8-1.2-1.8-1.2-2.8,0-2.2,1.8-4,4-4ZM13.1,8.6h29.6c.5,0,1,.2,1.4.6.4.4.6.9.6,1.4s0,.7-.2,1l-7.2,12.9c-.7,1.2-2,2.1-3.5,2.1h-14.9l-1.8,3.3c0,0,0,.1,0,.2s0,.3.1.4c0,0,.2.1.4.1h21.2c1.1,0,2,.9,2,2s-.9,2-2,2h-22c-1.1,0-2.1-.4-2.8-1.2-.8-.8-1.2-1.8-1.2-2.8s.2-1.4.5-1.9l2.7-4.9-7.2-15.2h-2c-1.1,0-2-.9-2-2s.8-1.9,1.8-2h4.7s1.9,4,1.9,4Z"/>
  </g>
  <metadata>
    <sfw xmlns="http://ns.adobe.com/SaveForWeb/1.0/">
      <slices/>
      <sliceSourceBounds x="4.71" y="-44.64" width="40" height="40" bottomLeftOrigin="true"/>
    </sfw>
  </metadata>
</svg>