<svg width="150" height="150" viewBox="0 0 150 150" fill="none" xmlns="http://www.w3.org/2000/svg">
<rect x="41" y="8" width="68" height="134" rx="10" fill="#B0B0B0" stroke="#3D3D3D" stroke-width="4"/>
<rect x="73" y="13" width="4" height="4" rx="2" fill="#3D3D3D"/>
<rect x="110" y="58" width="2" height="16" rx="1" fill="#3D3D3D"/>
<rect x="110" y="44" width="2" height="10" rx="1" fill="#3D3D3D"/>
<rect x="110" y="33" width="2" height="10" rx="1" fill="#3D3D3D"/>
<path d="M75.0006 52.0147C75.0124 52.0141 77.7861 51.8821 81.8575 52.422C86.1286 52.9876 89.9989 54.4995 92.8337 57.1654H92.8349C95.5012 60.0005 97.0129 63.8714 97.5786 68.1425C98.1167 72.2044 97.9864 74.9767 97.9853 75C97.9853 75 98.1192 77.7773 97.5786 81.8577C97.0131 86.129 95.5011 89.9988 92.8349 92.8336L92.8337 92.8348C89.999 95.5006 86.1286 97.0123 81.8575 97.5786C77.7774 98.1193 75.0003 97.9853 75.0003 97.9853C74.9805 97.9862 72.2075 98.1174 68.1423 97.5786C63.8711 97.0122 60.0008 95.5004 57.1655 92.8348V92.8336C54.4998 89.9988 52.9872 86.1291 52.4214 81.8577C51.8806 77.7773 52.0147 75 52.0147 75C52.0137 74.9771 51.8828 72.2049 52.4214 68.1425C52.9872 63.8712 54.4998 60.0002 57.1655 57.1651C60.0008 54.4995 63.871 52.9873 68.1423 52.4217C72.2221 51.8808 75.0006 52.0147 75.0006 52.0147ZM80.2295 70.6566L84.1943 79.903L82.163 84.7651H84.4252L90.1917 70.6566H87.8459L85.3009 77.2694L82.6083 70.6566H80.2295ZM74.166 70.6399C73.5602 70.6399 72.9681 70.7492 72.3895 70.9666C71.8118 71.1842 71.2994 71.5002 70.8538 71.9139C70.407 72.3278 70.0494 72.8352 69.7795 73.4349C69.5098 74.0351 69.3749 74.7219 69.3749 75.4971C69.3749 76.2612 69.5124 76.9438 69.7876 77.5429C70.063 78.1429 70.4267 78.6503 70.8783 79.0642C71.3299 79.4785 71.8388 79.7942 72.4068 80.0118C72.9736 80.2295 73.5492 80.3373 74.133 80.3373C74.7717 80.3373 75.3664 80.2148 75.9167 79.9665C76.4683 79.7193 76.9194 79.3801 77.2722 78.948V80.3214H79.5024V70.6569H77.2722V71.9318C76.9194 71.5325 76.4728 71.2177 75.9335 70.9867C75.3936 70.7558 74.8041 70.6399 74.166 70.6399ZM60.4699 80.3214H62.7169V76.8687H64.5836C65.2115 76.8687 65.7928 76.7562 66.3265 76.53C66.8606 76.3049 67.3201 75.9982 67.7065 75.6124C68.0916 75.2272 68.3949 74.77 68.6149 74.2417C68.8351 73.7127 68.9455 73.1511 68.9455 72.5562C68.9455 71.9619 68.8351 71.403 68.6149 70.88C68.3947 70.3568 68.0916 69.9025 67.7065 69.5168C67.3202 69.1309 66.8639 68.8254 66.3349 68.5998C65.8062 68.3743 65.2279 68.2611 64.5997 68.2611H60.4699V80.3214ZM74.4966 72.6724C74.9146 72.6724 75.3001 72.7449 75.6532 72.8899C76.0054 73.0343 76.3082 73.2332 76.5612 73.487C76.8148 73.7405 77.0155 74.0382 77.1644 74.3789C77.3136 74.7202 77.3881 75.0825 77.3881 75.4648C77.3881 75.8589 77.3136 76.2265 77.1644 76.5666C77.0155 76.9079 76.8147 77.2081 76.5612 77.4671C76.3082 77.7256 76.0053 77.9276 75.6532 78.0723C75.3002 78.2169 74.9147 78.2897 74.4966 78.2898C74.0889 78.2898 73.7064 78.217 73.3481 78.072C72.9899 77.9271 72.6788 77.7285 72.4146 77.474C72.1503 77.2204 71.9439 76.9213 71.795 76.5749C71.6463 76.2286 71.5722 75.8587 71.5722 75.4648C71.5722 75.0725 71.6463 74.7052 71.795 74.3639C71.9439 74.0225 72.1503 73.7275 72.4146 73.4786C72.679 73.2305 72.9899 73.0343 73.3481 72.8899C73.7064 72.7449 74.0889 72.6724 74.4966 72.6724ZM64.4347 70.3428C64.7654 70.3428 65.0683 70.4006 65.343 70.5162C65.6183 70.6316 65.8551 70.7888 66.0537 70.987C66.2524 71.1856 66.4063 71.419 66.5161 71.6889C66.6266 71.9589 66.682 72.2485 66.682 72.5562C66.682 72.8651 66.6266 73.1539 66.5161 73.4238C66.4063 73.6937 66.2523 73.9309 66.0537 74.1342C65.8551 74.338 65.6181 74.4981 65.343 74.6137C65.0683 74.7292 64.7654 74.787 64.4347 74.7871H62.7169V70.3428H64.4347Z" fill="#3D3D3D"/>
</svg>
