<svg width="150" height="150" viewBox="0 0 150 150" fill="none" xmlns="http://www.w3.org/2000/svg">
<rect x="41" y="8" width="68" height="134" rx="10" fill="white" stroke="black" stroke-width="4"/>
<rect x="73" y="13" width="4" height="4" rx="2" fill="black"/>
<path d="M75 52C87.7025 52 98 62.2975 98 75C98 87.7025 87.7025 98 75 98C62.2975 98 52 87.7025 52 75C52 62.2975 62.2975 52 75 52ZM81.7959 62.6523C81.4201 62.3004 80.6414 62.2457 80.1797 62.5381C79.8415 62.7493 79.5303 63.2968 79.5303 63.6758C79.5305 63.779 79.8309 64.4883 80.2012 65.2461C81.9245 68.7875 82.6171 71.7441 82.6172 75.54C82.6172 79.466 81.8341 82.7048 80.0303 86.2246C79.5847 87.0963 79.5142 87.3129 79.5732 87.627C79.6645 88.1088 80.094 88.6126 80.5127 88.7373C80.6952 88.7915 80.9102 88.8127 80.9854 88.791C81.0605 88.7694 81.1895 88.748 81.2646 88.748C81.6512 88.748 82.1126 88.114 82.8535 86.5762C84.0775 84.0312 84.8405 81.4268 85.2217 78.5137C85.4311 76.9324 85.3768 73.661 85.1191 71.9336C84.7004 69.145 83.8578 66.4646 82.623 64.0225C82.3117 63.4051 81.9409 62.7877 81.7959 62.6523ZM76.7705 65.3164C76.2389 64.8239 75.2195 64.9162 74.8115 65.501C74.3822 66.1182 74.4199 66.3507 75.1553 67.8721C76.2559 70.1356 76.69 71.6851 76.9209 74.1436C77.2 77.1326 76.6258 80.1757 75.2461 83.0186C74.9186 83.69 74.6123 84.3567 74.5693 84.5029C74.3819 85.0985 74.8491 85.8994 75.4932 86.0889C76.4488 86.3704 77.1309 85.6615 78.1025 83.3711C79.9869 78.9037 80.2122 74.0135 78.7412 69.4648C78.2956 68.0894 77.141 65.6576 76.7705 65.3164ZM70.8008 67.6396C70.366 67.6397 70.2313 67.6885 69.9199 67.9863C69.2921 68.5872 69.3086 68.8907 70.0547 70.4121C71.7512 73.8832 71.7346 77.3002 69.9951 80.8525C69.5227 81.8164 69.4214 82.1092 69.4805 82.3691C69.5772 82.7968 69.9203 83.2246 70.3174 83.4033C70.4946 83.4845 70.7955 83.528 70.9834 83.5117C71.6008 83.4305 71.907 83.0947 72.5244 81.833C73.5982 79.629 73.9849 77.9877 73.9902 75.5996C73.9956 73.2766 73.5816 71.4622 72.5723 69.3721C71.9174 68.0132 71.5362 67.6396 70.8008 67.6396ZM67.4238 71.1973C66.844 70.2876 66.4143 70.0059 65.7861 70.125C65.0454 70.2659 64.4928 71.084 64.6914 71.75C64.7399 71.9127 64.9441 72.3241 65.1533 72.665C65.7652 73.672 65.9043 74.2191 65.9043 75.54C65.9043 76.8613 65.7653 77.4034 65.1533 78.416C64.6809 79.2012 64.5841 79.5366 64.7021 79.959C64.8095 80.3379 65.1687 80.7712 65.4854 80.9014C66.1779 81.1884 66.8333 80.8634 67.4238 79.9482C69.0935 77.3381 69.0935 73.829 67.4238 71.1973Z" fill="black"/>
<rect x="110" y="58" width="2" height="16" rx="1" fill="black"/>
<rect x="110" y="44" width="2" height="10" rx="1" fill="black"/>
<rect x="110" y="33" width="2" height="10" rx="1" fill="black"/>
</svg>
