<svg width="150" height="150" viewBox="0 0 150 150" fill="none" xmlns="http://www.w3.org/2000/svg">
<rect x="15" y="35" width="120" height="76" rx="3" fill="white" stroke="#005AAB" stroke-width="4"/>
<mask id="mask0_816_3615" style="mask-type:luminance" maskUnits="userSpaceOnUse" x="29" y="48" width="92" height="22">
<path d="M29 48.0002H120.928V70H29V48.0002Z" fill="white"/>
</mask>
<g mask="url(#mask0_816_3615)">
<path d="M32.3421 69.8896C30.56 69.8896 29.1104 68.4595 29.1104 66.7009V51.297C29.1104 49.5393 30.56 48.1092 32.3421 48.1092H47.949C49.7311 48.1092 51.1808 49.5393 51.1808 51.297V66.7009C51.1808 68.4595 49.7311 69.8896 47.949 69.8896H32.3421Z" fill="#005AAB"/>
<path d="M47.9493 48.2196C49.67 48.2196 51.0704 49.6016 51.0704 51.2997V66.6995C51.0704 68.3979 49.67 69.7796 47.9493 69.7796H32.3439C30.6232 69.7796 29.2234 68.3979 29.2234 66.6995V51.2997C29.2234 49.6016 30.6232 48.2196 32.3439 48.2196H47.9493ZM47.9493 47.9997H32.3439C30.4974 47.9997 29 49.4769 29 51.2997V66.6995C29 68.5218 30.4974 69.9995 32.3439 69.9995H47.9493C49.7959 69.9995 51.2932 68.5218 51.2932 66.6995V51.2997C51.2932 49.4769 49.7959 47.9997 47.9493 47.9997Z" fill="#005AAB"/>
<path d="M38.4355 56.3978V65.4482C38.4355 66.377 39.2005 67.1401 40.1432 67.1401C41.0864 67.1401 41.8529 66.377 41.8529 65.4482V56.3222C41.8529 53.3244 40.2438 51.7401 37.1977 51.7401H34.4415C33.5004 51.7401 32.7344 52.4965 32.7344 53.4279C32.7344 54.3582 33.5004 55.1198 34.4415 55.1198H37.1154C37.7576 55.1198 38.4355 55.5425 38.4355 56.3978Z" fill="white"/>
<path d="M45.843 51.7399H43.096C42.1772 51.7399 41.3865 51.8863 40.7354 52.1677C41.6563 52.8792 42.2236 53.9461 42.3992 55.3467C42.6284 55.1975 42.8972 55.1185 43.1717 55.1195H45.843C46.2979 55.1196 46.7343 54.9414 47.0561 54.6242C47.378 54.3069 47.5591 53.8766 47.5596 53.4276C47.5596 52.4958 46.7941 51.7399 45.843 51.7399Z" fill="white"/>
<path d="M77.9055 63.6843C77.9055 64.5194 78.3737 65.0342 79.2378 65.0342C80.0834 65.0342 80.5875 64.5194 80.5875 63.6843V59.0657C80.5875 56.9339 79.2013 56.0632 77.5453 56.0632C76.1772 56.0632 75.1511 56.5785 74.5393 57.6268C74.2512 56.7384 73.5311 56.0632 72.343 56.0632C71.1193 56.0632 70.3449 56.5961 69.9313 57.4312C69.8773 56.7917 69.3912 56.2054 68.6169 56.2054C67.8071 56.2054 67.2852 56.6675 67.2852 57.5735V63.6843C67.2852 64.5194 67.789 65.0342 68.6355 65.0342C69.4809 65.0342 69.9669 64.5194 69.9669 63.6843V59.8296C69.9669 58.9058 70.4891 58.3196 71.2992 58.3196C72.1094 58.3196 72.6316 58.9234 72.6316 59.6871V63.6843C72.6316 64.5194 73.0991 65.0342 73.9455 65.0342C74.791 65.0342 75.2416 64.5194 75.2416 63.6843V59.8296C75.2416 58.9058 75.763 58.3196 76.5733 58.3196C77.3833 58.3196 77.9055 58.9234 77.9055 59.6871V63.6843Z" fill="#005AAB"/>
<path d="M84.6286 60.6288C84.6286 59.3673 85.3128 58.2663 86.5365 58.2663C87.7429 58.2663 88.4452 59.3673 88.4452 60.6288C88.4452 61.8904 87.7429 62.9915 86.5365 62.9915C85.3128 62.9915 84.6286 61.8904 84.6286 60.6288ZM81.9463 60.6288C81.9463 63.3826 83.7467 65.1943 86.5365 65.1943C89.3268 65.1943 91.1267 63.3826 91.1267 60.6288C91.1267 57.8751 89.3268 56.0637 86.5365 56.0637C83.7467 56.0637 81.9463 57.8751 81.9463 60.6288Z" fill="#005AAB"/>
<path d="M92.4854 63.6843C92.4854 64.5194 93.0075 65.0342 93.8535 65.0342C94.6994 65.0342 95.2033 64.5194 95.2033 63.6843V59.7579C95.2033 58.9234 95.8697 58.3371 96.6975 58.3371C97.5797 58.3371 98.1915 58.9767 98.1915 59.7763V63.6843C98.1915 64.5194 98.6956 65.0342 99.5416 65.0342C100.388 65.0342 100.91 64.5194 100.91 63.6843V59.4563C100.91 57.4312 99.6496 56.0632 97.5797 56.0632C96.518 56.0632 95.5095 56.5785 95.1317 57.4136C95.0777 56.7917 94.6635 56.2054 93.8176 56.2054C92.9714 56.2054 92.4854 56.7384 92.4854 57.5735V63.6843Z" fill="#005AAB"/>
<path d="M104.807 59.5451C104.807 58.71 105.689 58.0704 106.697 58.0704C107.705 58.0704 108.587 58.71 108.587 59.5451H104.807ZM110.369 64.1101C110.909 63.6131 111.161 62.9203 110.711 62.4229C110.279 61.9078 109.541 61.9256 109.037 62.3522C108.461 62.8138 107.885 63.1333 106.949 63.1333C105.743 63.1333 104.807 62.2989 104.807 61.3037H109.685C110.675 61.3037 111.017 60.8598 111.017 59.8827C111.017 57.9106 109.451 56.0634 106.697 56.0634C103.997 56.0634 102.269 57.9639 102.269 60.5752C102.269 63.2758 103.906 65.1943 106.949 65.1943C108.317 65.1943 109.541 64.8746 110.369 64.1101Z" fill="#005AAB"/>
<path d="M114.528 57.0755C114.222 56.3294 113.484 55.9739 112.728 56.3118C111.972 56.6491 111.702 57.2887 112.062 58.088L115.14 64.7315L114.87 65.3891C114.618 66.0289 114.312 66.686 113.664 66.686C113.448 66.686 113.196 66.6327 112.998 66.597C112.44 66.4904 111.9 66.775 111.738 67.361C111.576 67.9475 111.918 68.498 112.44 68.7111C112.908 68.9067 113.358 68.9243 113.808 68.9243C115.645 68.9243 116.364 67.592 117.21 65.78L120.774 58.088C121.134 57.2887 120.864 56.6491 120.108 56.3118C119.352 55.9739 118.615 56.3294 118.308 57.0755L116.418 61.4988L114.528 57.0755Z" fill="#005AAB"/>
<path d="M61.3249 63.5422C61.3249 64.4309 61.9192 65.0347 62.8192 65.0347C63.7191 65.0347 64.295 64.4309 64.295 63.5422V54.4116H67.2112C68.0755 54.4116 68.7589 53.9676 68.7589 53.0793C68.7589 52.2087 68.0755 51.7643 67.2112 51.7643H58.4266C57.5448 51.7643 56.8789 52.2087 56.8789 53.0793C56.8789 53.9676 57.5448 54.4116 58.4266 54.4116H61.3249V63.5422Z" fill="#005AAB"/>
</g>
<g clip-path="url(#clip0_816_3615)">
<mask id="mask1_816_3615" style="mask-type:luminance" maskUnits="userSpaceOnUse" x="44" y="79" width="62" height="19">
<path d="M44 79H106V98H44V79Z" fill="white"/>
</mask>
<g mask="url(#mask1_816_3615)">
<path d="M80.971 95.3469L85.2028 79.5894H92.7679L89.3671 92.2672H98.3859L96.9616 97.572H82.6064C81.12 97.572 80.5778 96.83 80.9748 95.3463L80.971 95.3469ZM61.8043 91.1392C59.7899 92.03 56.5338 92.7135 54.3154 92.663C50.9353 92.5864 48.5749 91.5284 48.5347 90.8336C48.5129 90.4264 48.8844 90.0627 49.3325 90.0888C49.6643 90.1067 49.9699 90.332 50.2245 90.4199C52.097 91.2483 54.348 91.5029 56.6719 91.1576C61.7749 90.2011 63.363 87.907 63.8003 85.5879C64.6052 81.2717 61.0755 78.8169 57.0145 79.0096C51.3758 79.2767 46.4658 82.6864 44.6374 88.318C42.5027 94.5749 45.9448 98.16 51.6418 98.16C56.5082 98.16 59.1633 97.1166 60.2962 96.7458L61.8005 91.1392H61.8043ZM56.8976 85.2237C56.4935 86.7328 55.9692 87.9542 54.9528 87.9542C53.9363 87.9542 54.0717 86.7328 54.4758 85.2237C54.8799 83.7151 55.4112 82.4931 56.4206 82.4931C57.4295 82.4931 57.3017 83.7151 56.8976 85.2237ZM73.0339 92.2662H80.1666L78.7417 97.571H63.5708C61.7168 97.571 61.3817 96.3126 62.8241 94.7752L72.3383 84.6238H65.5782L66.9291 79.5883H81.5502C83.4042 79.5883 83.7393 80.8461 82.2969 82.384L73.0339 92.2662Z" fill="#005AAB"/>
</g>
</g>
<defs>
<clipPath id="clip0_816_3615">
<rect width="62" height="19" fill="white" transform="translate(44 79)"/>
</clipPath>
</defs>
</svg>
