<svg width="150" height="150" viewBox="0 0 150 150" fill="none" xmlns="http://www.w3.org/2000/svg">
<rect x="15" y="35" width="120" height="76" rx="3" fill="#B0B0B0" stroke="#3D3D3D" stroke-width="4"/>
<mask id="mask0_989_4790" style="mask-type:luminance" maskUnits="userSpaceOnUse" x="29" y="48" width="92" height="22">
<path d="M29 48.0002H120.928V70H29V48.0002Z" fill="white"/>
</mask>
<g mask="url(#mask0_989_4790)">
<path d="M32.3421 69.8906C30.56 69.8906 29.1104 68.4605 29.1104 66.7019V51.2979C29.1104 49.5403 30.56 48.1102 32.3421 48.1102H47.949C49.7311 48.1102 51.1808 49.5403 51.1808 51.2979V66.7019C51.1808 68.4605 49.7311 69.8906 47.949 69.8906H32.3421Z" fill="#3D3D3D"/>
<path d="M47.9493 48.2201C49.67 48.2201 51.0704 49.6021 51.0704 51.3002V66.7C51.0704 68.3984 49.67 69.7801 47.9493 69.7801H32.3439C30.6232 69.7801 29.2234 68.3984 29.2234 66.7V51.3002C29.2234 49.6021 30.6232 48.2201 32.3439 48.2201H47.9493ZM47.9493 48.0002H32.3439C30.4974 48.0002 29 49.4774 29 51.3002V66.7C29 68.5223 30.4974 70 32.3439 70H47.9493C49.7959 70 51.2932 68.5223 51.2932 66.7V51.3002C51.2932 49.4774 49.7959 48.0002 47.9493 48.0002Z" fill="#3D3D3D"/>
<path d="M38.4355 56.3983V65.4487C38.4355 66.3775 39.2005 67.1406 40.1432 67.1406C41.0864 67.1406 41.8529 66.3775 41.8529 65.4487V56.3227C41.8529 53.3249 40.2438 51.7406 37.1977 51.7406H34.4415C33.5004 51.7406 32.7344 52.497 32.7344 53.4284C32.7344 54.3587 33.5004 55.1203 34.4415 55.1203H37.1154C37.7576 55.1203 38.4355 55.543 38.4355 56.3983Z" fill="#B0B0B0"/>
<path d="M45.843 51.7408H43.096C42.1772 51.7408 41.3865 51.8873 40.7354 52.1687C41.6563 52.8802 42.2236 53.947 42.3992 55.3477C42.6284 55.1985 42.8972 55.1195 43.1717 55.1205H45.843C46.2979 55.1206 46.7343 54.9424 47.0561 54.6252C47.378 54.3079 47.5591 53.8775 47.5596 53.4286C47.5596 52.4968 46.7941 51.7408 45.843 51.7408Z" fill="#B0B0B0"/>
<path d="M77.9055 63.6852C77.9055 64.5203 78.3737 65.0352 79.2378 65.0352C80.0834 65.0352 80.5875 64.5203 80.5875 63.6852V59.0666C80.5875 56.9349 79.2013 56.0641 77.5453 56.0641C76.1772 56.0641 75.1511 56.5795 74.5393 57.6277C74.2512 56.7393 73.5311 56.0641 72.343 56.0641C71.1193 56.0641 70.3449 56.5971 69.9313 57.4322C69.8773 56.7926 69.3912 56.2064 68.6169 56.2064C67.8071 56.2064 67.2852 56.6685 67.2852 57.5744V63.6852C67.2852 64.5203 67.789 65.0352 68.6355 65.0352C69.4809 65.0352 69.9669 64.5203 69.9669 63.6852V59.8306C69.9669 58.9068 70.4891 58.3205 71.2992 58.3205C72.1094 58.3205 72.6316 58.9243 72.6316 59.688V63.6852C72.6316 64.5203 73.0991 65.0352 73.9455 65.0352C74.791 65.0352 75.2416 64.5203 75.2416 63.6852V59.8306C75.2416 58.9068 75.763 58.3205 76.5733 58.3205C77.3833 58.3205 77.9055 58.9243 77.9055 59.688V63.6852Z" fill="#3D3D3D"/>
<path d="M84.6286 60.6297C84.6286 59.3683 85.3128 58.2673 86.5365 58.2673C87.7429 58.2673 88.4452 59.3683 88.4452 60.6297C88.4452 61.8914 87.7429 62.9925 86.5365 62.9925C85.3128 62.9925 84.6286 61.8914 84.6286 60.6297ZM81.9463 60.6297C81.9463 63.3836 83.7467 65.1953 86.5365 65.1953C89.3268 65.1953 91.1267 63.3836 91.1267 60.6297C91.1267 57.8761 89.3268 56.0647 86.5365 56.0647C83.7467 56.0647 81.9463 57.8761 81.9463 60.6297Z" fill="#3D3D3D"/>
<path d="M92.4854 63.6852C92.4854 64.5203 93.0075 65.0352 93.8535 65.0352C94.6994 65.0352 95.2033 64.5203 95.2033 63.6852V59.7589C95.2033 58.9243 95.8697 58.3381 96.6975 58.3381C97.5797 58.3381 98.1915 58.9776 98.1915 59.7773V63.6852C98.1915 64.5203 98.6956 65.0352 99.5416 65.0352C100.388 65.0352 100.91 64.5203 100.91 63.6852V59.4573C100.91 57.4322 99.6496 56.0641 97.5797 56.0641C96.518 56.0641 95.5095 56.5795 95.1317 57.4146C95.0777 56.7926 94.6635 56.2064 93.8176 56.2064C92.9714 56.2064 92.4854 56.7393 92.4854 57.5744V63.6852Z" fill="#3D3D3D"/>
<path d="M104.807 59.546C104.807 58.7109 105.689 58.0714 106.697 58.0714C107.705 58.0714 108.587 58.7109 108.587 59.546H104.807ZM110.369 64.1111C110.909 63.6141 111.161 62.9213 110.711 62.4238C110.279 61.9088 109.541 61.9266 109.037 62.3532C108.461 62.8147 107.885 63.1342 106.949 63.1342C105.743 63.1342 104.807 62.2999 104.807 61.3047H109.685C110.675 61.3047 111.017 60.8608 111.017 59.8836C111.017 57.9115 109.451 56.0644 106.697 56.0644C103.997 56.0644 102.269 57.9648 102.269 60.5762C102.269 63.2768 103.906 65.1953 106.949 65.1953C108.317 65.1953 109.541 64.8756 110.369 64.1111Z" fill="#3D3D3D"/>
<path d="M114.528 57.075C114.222 56.3289 113.484 55.9734 112.728 56.3113C111.972 56.6487 111.702 57.2882 112.062 58.0876L115.14 64.731L114.87 65.3887C114.618 66.0284 114.312 66.6855 113.664 66.6855C113.448 66.6855 113.196 66.6322 112.998 66.5965C112.44 66.49 111.9 66.7745 111.738 67.3605C111.576 67.947 111.918 68.4975 112.44 68.7107C112.908 68.9062 113.358 68.9238 113.808 68.9238C115.645 68.9238 116.364 67.5915 117.21 65.7796L120.774 58.0876C121.134 57.2882 120.864 56.6487 120.108 56.3113C119.352 55.9734 118.615 56.3289 118.308 57.075L116.418 61.4983L114.528 57.075Z" fill="#3D3D3D"/>
<path d="M61.3249 63.5427C61.3249 64.4313 61.9192 65.0352 62.8192 65.0352C63.7191 65.0352 64.295 64.4313 64.295 63.5427V54.4121H67.2112C68.0755 54.4121 68.7589 53.9681 68.7589 53.0797C68.7589 52.2092 68.0755 51.7648 67.2112 51.7648H58.4266C57.5448 51.7648 56.8789 52.2092 56.8789 53.0797C56.8789 53.9681 57.5448 54.4121 58.4266 54.4121H61.3249V63.5427Z" fill="#3D3D3D"/>
</g>
<g clip-path="url(#clip0_989_4790)">
<mask id="mask1_989_4790" style="mask-type:luminance" maskUnits="userSpaceOnUse" x="44" y="79" width="62" height="19">
<path d="M44 79H106V98H44V79Z" fill="white"/>
</mask>
<g mask="url(#mask1_989_4790)">
<path d="M80.971 95.3478L85.2028 79.5903H92.7679L89.3671 92.2682H98.3859L96.9616 97.573H82.6064C81.12 97.573 80.5778 96.8309 80.9748 95.3473L80.971 95.3478ZM61.8043 91.1402C59.7899 92.031 56.5338 92.7144 54.3154 92.664C50.9353 92.5874 48.5749 91.5294 48.5347 90.8345C48.5129 90.4274 48.8844 90.0637 49.3325 90.0897C49.6643 90.1076 49.9699 90.3329 50.2245 90.4209C52.097 91.2493 54.348 91.5039 56.6719 91.1586C61.7749 90.2021 63.363 87.908 63.8003 85.5889C64.6052 81.2726 61.0755 78.8178 57.0145 79.0106C51.3758 79.2776 46.4658 82.6873 44.6374 88.3189C42.5027 94.5759 45.9448 98.1609 51.6418 98.1609C56.5082 98.1609 59.1633 97.1176 60.2962 96.7468L61.8005 91.1402H61.8043ZM56.8976 85.2246C56.4935 86.7338 55.9692 87.9552 54.9528 87.9552C53.9363 87.9552 54.0717 86.7338 54.4758 85.2246C54.8799 83.716 55.4112 82.4941 56.4206 82.4941C57.4295 82.4941 57.3017 83.716 56.8976 85.2246ZM73.0339 92.2671H80.1666L78.7417 97.5719H63.5708C61.7168 97.5719 61.3817 96.3136 62.8241 94.7762L72.3383 84.6248H65.5782L66.9291 79.5892H81.5502C83.4042 79.5892 83.7393 80.847 82.2969 82.385L73.0339 92.2671Z" fill="#3D3D3D"/>
</g>
</g>
<defs>
<clipPath id="clip0_989_4790">
<rect width="62" height="19" fill="white" transform="translate(44 79)"/>
</clipPath>
</defs>
</svg>
