<svg width="260" height="80" viewBox="0 0 260 80" fill="none" xmlns="http://www.w3.org/2000/svg">
<rect x="1" y="1" width="258" height="78" rx="9" fill="white"/>
<rect x="1" y="1" width="258" height="78" rx="9" stroke="black" stroke-width="2"/>
<path d="M60 18C63.3137 18 66 20.6863 66 24V56C66 59.3137 63.3137 62 60 62H28C24.6863 62 22 59.3137 22 56V24C22 20.6863 24.6863 18 28 18H60ZM28 22C26.8954 22 26 22.8954 26 24V56C26 57.1046 26.8954 58 28 58H44V39.2197C45.2509 36.4107 45.7539 33.2866 45.7656 29.9297H44V22H28ZM48.2539 52.6523H52.6562V40.3203H55.8828V36.7383H52.6562V27.4141H48.2539V52.6523ZM44 39.2197C42.3368 42.9546 39.3495 46.1318 34.418 48.5508L31.9297 45.2148C37.5625 42.3711 40.543 38.8301 41.3086 33.4844H33.5156V29.9297H44V39.2197Z" fill="black"/>
<!-- <path d="M141.05 26.7656V29.8242C141.015 33.7617 141.015 38.1914 139.784 44.8359L135.847 44.4141C137.077 38.2266 137.077 33.709 137.113 29.8945H118.128V26.7656H141.05ZM144.074 48.3164V51.5156H115.105V48.3164H125.792V37.2773H129.659V48.3164H144.074ZM172.85 23.8477V55.6289H169.123V39.4219H165.537V54.0117H161.951V24.4453H165.537V36.293H169.123V23.8477H172.85ZM158.365 27.6094V30.7734H150.42V44.9062C153.883 44.8711 156.73 44.6953 159.947 44.0977L160.229 47.2969C156.396 48.0703 153.057 48.1758 148.627 48.2109H146.482V27.6094H158.365ZM202.329 23.8477V55.6641H198.391V23.8477H202.329ZM181.481 26.4492V34.3945H189.18V26.4492H193.048V48.1758H177.579V26.4492H181.481ZM181.481 44.9766H189.18V37.4531H181.481V44.9766Z" fill="black"/> -->
<path d="M230 6H250C252.209 6 254 7.79086 254 10V30L242 18L230 6Z" fill="black"/>
</svg>
