<svg width="264" height="84" viewBox="0 0 264 84" fill="none" xmlns="http://www.w3.org/2000/svg">
<g filter="url(#filter0_di_3466_2580)">
<rect x="2" y="1" width="260" height="80" rx="10" fill="white" shape-rendering="crispEdges"/>
<rect x="3" y="2" width="258" height="78" rx="9" stroke="#3D3D3D" stroke-width="2" shape-rendering="crispEdges"/>
<path d="M62 19C65.3137 19 68 21.6863 68 25V57C68 60.3137 65.3137 63 62 63H30C26.6863 63 24 60.3137 24 57V25C24 21.6863 26.6863 19 30 19H62ZM30 45C28.8954 45 28 45.8954 28 47V57C28 58.1046 28.8954 59 30 59H62C63.1046 59 64 58.1046 64 57V47C64 45.8954 63.1046 45 62 45H30ZM46 25.5C45.1716 25.5001 44.5 26.1716 44.5 27V35.6094L41.0088 32.4355C40.3958 31.8785 39.4469 31.9232 38.8896 32.5361C38.3325 33.1491 38.3783 34.098 38.9912 34.6553L44.9912 40.1104L45.1016 40.2012C45.6709 40.6278 46.4724 40.5976 47.0088 40.1104L53.0088 34.6553C53.6218 34.098 53.6676 33.1491 53.1104 32.5361C52.5531 31.9232 51.6042 31.8784 50.9912 32.4355L47.5 35.6094V27C47.5 26.1716 46.8284 25.5 46 25.5Z" fill="#3D3D3D"/>
<!-- <path d="M107.937 24.8477V37.9609H112.402V41.2305H107.937V56.6289H103.999V24.8477H107.937ZM82.4133 47.8047C84.8215 47.8047 87.6164 47.8047 90.5344 47.7344V44.7461C87.0715 44.166 84.8039 41.9863 84.8391 39.0156C84.8039 35.4297 87.968 33.0391 92.5383 33.0391C97.0383 33.0391 100.238 35.4297 100.273 39.0156C100.238 42.0039 97.9348 44.1836 94.4719 44.7461V47.5938C97.1438 47.4531 99.8156 47.2422 102.312 46.8906L102.558 49.7383C95.7375 50.9688 88.3898 51.0391 82.9758 51.0391L82.4133 47.8047ZM101.96 28.5039V31.5977H83.0109V28.5039H90.5344V24.9883H94.4719V28.5039H101.96ZM92.5383 36.0273C90.1125 36.0625 88.5305 37.1523 88.5305 39.0156C88.5305 40.8438 90.1125 41.9336 92.5383 41.8984C94.9289 41.9336 96.5109 40.8438 96.5109 39.0156C96.5109 37.1523 94.9289 36.0625 92.5383 36.0273ZM129.506 27.5195V30.0508H135.904V24.8828H139.807V48.0156H135.904V40H129.506V42.7422H114.564V27.5195H129.506ZM118.467 30.6133V39.6836H125.639V30.6133H118.467ZM140.51 52.832V55.9961H118.853V45.8711H122.826V52.832H140.51ZM129.506 36.8711H135.904V33.25H129.506V36.8711ZM178.691 24.8477V56.6289H174.929V40.5625H171.413V55.0117H167.757V25.4453H171.413V37.3633H174.929V24.8477H178.691ZM156.718 28.5039V45.2734C159.46 45.2207 162.466 44.9922 165.788 44.3242L166.175 47.7344C161.886 48.5078 158.265 48.7188 154.89 48.7188H152.781V28.5039H156.718ZM208.275 24.8477V56.6641H204.408V24.8477H208.275ZM198.502 27.625V39.543H187.568V45.9414C192.578 45.9062 196.902 45.6602 201.842 44.8164L202.193 48.0156C196.779 48.9648 192.033 49.1406 186.338 49.1406H183.561V36.4492H194.529V30.7891H183.525V27.625H198.502ZM238.739 24.8477V56.6289H234.802V24.8477H238.739ZM229.247 28.2227C229.247 37.6797 225.591 45.7305 214.446 51.0039L212.407 47.875C220.721 43.9199 224.589 38.541 225.274 31.3164H214.024V28.2227H229.247Z" fill="#3D3D3D"/> -->
</g>
<defs>
<filter id="filter0_di_3466_2580" x="0" y="0" width="264" height="84" filterUnits="userSpaceOnUse" color-interpolation-filters="sRGB">
<feFlood flood-opacity="0" result="BackgroundImageFix"/>
<feColorMatrix in="SourceAlpha" type="matrix" values="0 0 0 0 0 0 0 0 0 0 0 0 0 0 0 0 0 0 127 0" result="hardAlpha"/>
<feOffset dy="1"/>
<feGaussianBlur stdDeviation="1"/>
<feComposite in2="hardAlpha" operator="out"/>
<feColorMatrix type="matrix" values="0 0 0 0 0 0 0 0 0 0 0 0 0 0 0 0 0 0 0.2 0"/>
<feBlend mode="normal" in2="BackgroundImageFix" result="effect1_dropShadow_3466_2580"/>
<feBlend mode="normal" in="SourceGraphic" in2="effect1_dropShadow_3466_2580" result="shape"/>
<feColorMatrix in="SourceAlpha" type="matrix" values="0 0 0 0 0 0 0 0 0 0 0 0 0 0 0 0 0 0 127 0" result="hardAlpha"/>
<feOffset dy="-4"/>
<feComposite in2="hardAlpha" operator="arithmetic" k2="-1" k3="1"/>
<feColorMatrix type="matrix" values="0 0 0 0 0 0 0 0 0 0 0 0 0 0 0 0 0 0 0.25 0"/>
<feBlend mode="normal" in2="shape" result="effect2_innerShadow_3466_2580"/>
</filter>
</defs>
</svg>
