<svg width="264" height="64" viewBox="0 0 264 84" fill="none" xmlns="http://www.w3.org/2000/svg">
<g filter="url(#filter0_d_3469_1101)">
<rect x="2" y="1" width="260" height="80" rx="10" fill="#3D3D3D" shape-rendering="crispEdges"/>
<path d="M62 19C65.3137 19 68 21.6863 68 25V57C68 60.3137 65.3137 63 62 63H30C26.6863 63 24 60.3137 24 57V25C24 21.6863 26.6863 19 30 19H62ZM30 45C28.8954 45 28 45.8954 28 47V57C28 58.1046 28.8954 59 30 59H62C63.1046 59 64 58.1046 64 57V47C64 45.8954 63.1046 45 62 45H30ZM46 25.5C45.1716 25.5001 44.5 26.1716 44.5 27V35.6094L41.0088 32.4355C40.3958 31.8785 39.4469 31.9232 38.8896 32.5361C38.3325 33.1491 38.3783 34.098 38.9912 34.6553L44.9912 40.1104L45.1016 40.2012C45.6709 40.6278 46.4724 40.5976 47.0088 40.1104L53.0088 34.6553C53.6218 34.098 53.6676 33.1491 53.1104 32.5361C52.5531 31.9232 51.6042 31.8784 50.9912 32.4355L47.5 35.6094V27C47.5 26.1716 46.8284 25.5 46 25.5Z" fill="#fff"/>
<!-- <path d="M88.9543 19.8066V29.2773H92.1789V31.6387H88.9543V42.7598H86.1105V19.8066H88.9543ZM70.5207 36.3867C72.26 36.3867 74.2785 36.3867 76.3859 36.3359V34.1777C73.885 33.7588 72.2473 32.1846 72.2727 30.0391C72.2473 27.4492 74.5324 25.7227 77.8332 25.7227C81.0832 25.7227 83.3937 27.4492 83.4191 30.0391C83.3937 32.1973 81.7307 33.7715 79.2297 34.1777V36.2344C81.1594 36.1328 83.0891 35.9805 84.8918 35.7266L85.0695 37.7832C80.1437 38.6719 74.8371 38.7227 70.927 38.7227L70.5207 36.3867ZM84.6379 22.4473V24.6816H70.9523V22.4473H76.3859V19.9082H79.2297V22.4473H84.6379ZM77.8332 27.8809C76.0812 27.9062 74.9387 28.6934 74.9387 30.0391C74.9387 31.3594 76.0812 32.1465 77.8332 32.1211C79.5598 32.1465 80.7023 31.3594 80.7023 30.0391C80.7023 28.6934 79.5598 27.9062 77.8332 27.8809ZM104.532 21.7363V23.5645H109.153V19.832H111.971V36.5391H109.153V30.75H104.532V32.7305H93.7409V21.7363H104.532ZM96.5593 23.9707V30.5215H101.739V23.9707H96.5593ZM112.479 40.0176V42.3027H96.8386V34.9902H99.7077V40.0176H112.479ZM104.532 28.4902H109.153V25.875H104.532V28.4902ZM140.054 19.8066V42.7598H137.338V31.1562H134.799V41.5918H132.158V20.2383H134.799V28.8457H137.338V19.8066H140.054ZM124.185 22.4473V34.5586C126.166 34.5205 128.337 34.3555 130.736 33.873L131.015 36.3359C127.918 36.8945 125.302 37.0469 122.865 37.0469H121.342V22.4473H124.185ZM161.421 19.8066V42.7852H158.628V19.8066H161.421ZM154.363 21.8125V30.4199H146.466V35.041C150.084 35.0156 153.207 34.8379 156.775 34.2285L157.029 36.5391C153.118 37.2246 149.691 37.3516 145.577 37.3516H143.572V28.1855H151.493V24.0977H143.546V21.8125H154.363ZM183.423 19.8066V42.7598H180.579V19.8066H183.423ZM176.567 22.2441C176.567 29.0742 173.927 34.8887 165.878 38.6973L164.405 36.4375C170.41 33.5811 173.203 29.6963 173.698 24.4785H165.573V22.2441H176.567Z" fill="white"/> -->
<path d="M230 6H250C252.209 6 254 7.79086 254 10V30L242 18L230 6Z" fill="white"/>
</g>
<defs>
<!-- <filter id="filter0_d_3469_1101" x="0" y="0" width="224" height="64" filterUnits="userSpaceOnUse" color-interpolation-filters="sRGB">
<feFlood flood-opacity="0" result="BackgroundImageFix"/>
<feColorMatrix in="SourceAlpha" type="matrix" values="0 0 0 0 0 0 0 0 0 0 0 0 0 0 0 0 0 0 127 0" result="hardAlpha"/>
<feOffset dy="1"/>
<feGaussianBlur stdDeviation="1"/>
<feComposite in2="hardAlpha" operator="out"/>
<feColorMatrix type="matrix" values="0 0 0 0 0 0 0 0 0 0 0 0 0 0 0 0 0 0 0.2 0"/>
<feBlend mode="normal" in2="BackgroundImageFix" result="effect1_dropShadow_3469_1101"/>
<feBlend mode="normal" in="SourceGraphic" in2="effect1_dropShadow_3469_1101" result="shape"/>
</filter> -->
</defs>
</svg>
