<svg width="264" height="84" viewBox="0 0 264 84" fill="none" xmlns="http://www.w3.org/2000/svg">
<g filter="url(#filter0_di_3000_453)">
<rect x="2" y="1" width="260" height="80" rx="10" fill="#3D3D3D" shape-rendering="crispEdges"/>
<rect x="3" y="2" width="258" height="78" rx="9" stroke="#3D3D3D" stroke-width="2" shape-rendering="crispEdges"/>
<path d="M62 19C65.3137 19 68 21.6863 68 25V57C68 60.3137 65.3137 63 62 63H30C26.6863 63 24 60.3137 24 57V25C24 21.6863 26.6863 19 30 19H62ZM30 23C28.8954 23 28 23.8954 28 25V57C28 58.1046 28.8954 59 30 59H46V40.2197C47.2509 37.4107 47.7539 34.2866 47.7656 30.9297H46V23H30ZM50.2539 53.6523H54.6562V41.3203H57.8828V37.7383H54.6562V28.4141H50.2539V53.6523ZM46 40.2197C44.3368 43.9546 41.3495 47.1318 36.418 49.5508L33.9297 46.2148C39.5625 43.3711 42.543 39.8301 43.3086 34.4844H35.5156V30.9297H46V40.2197Z" fill="#fff"/>
<!-- <path d="M143.05 30.8242V31.2109C143.038 32.9688 143.003 34.498 142.945 35.7988C142.898 37.0879 142.786 38.5879 142.611 40.2988C142.435 41.998 142.159 43.8438 141.784 45.8359L137.847 45.4141C138.222 43.5625 138.497 41.8164 138.673 40.1758C138.849 38.5234 138.96 37.0586 139.007 35.7812C139.066 34.5039 139.101 33.0039 139.113 31.2812V30.8945H120.128V27.7656H143.05V30.8242ZM146.074 52.5156H117.105V49.3164H127.792V38.2773H131.659V49.3164H146.074V52.5156ZM174.85 56.6289H171.123V40.4219H167.537V55.0117H163.951V25.4453H167.537V37.293H171.123V24.8477H174.85V56.6289ZM160.365 31.7734H152.42V45.9062C154.271 45.8828 155.941 45.8125 157.43 45.6953C158.918 45.5781 160.424 45.3789 161.947 45.0977L162.229 48.2969C160.471 48.6484 158.736 48.8828 157.025 49C155.314 49.1172 153.182 49.1875 150.627 49.2109H148.482V28.6094H160.365V31.7734ZM204.329 56.6641H200.391V24.8477H204.329V56.6641ZM183.481 35.3945H191.18V27.4492H195.048V49.1758H179.579V27.4492H183.481V35.3945ZM191.18 45.9766V38.4531H183.481V45.9766H191.18Z" fill="#3D3D3D"/> -->
<path d="M230 6H250C252.209 6 254 7.79086 254 10V30L242 18L230 6Z" fill="#fff"/>
</g>
<defs>
<filter id="filter0_di_3000_453" x="0" y="0" width="264" height="84" filterUnits="userSpaceOnUse" color-interpolation-filters="sRGB">
<feFlood flood-opacity="0" result="BackgroundImageFix"/>
<feColorMatrix in="SourceAlpha" type="matrix" values="0 0 0 0 0 0 0 0 0 0 0 0 0 0 0 0 0 0 127 0" result="hardAlpha"/>
<feOffset dy="1"/>
<feGaussianBlur stdDeviation="1"/>
<feComposite in2="hardAlpha" operator="out"/>
<feColorMatrix type="matrix" values="0 0 0 0 0 0 0 0 0 0 0 0 0 0 0 0 0 0 0.2 0"/>
<feBlend mode="normal" in2="BackgroundImageFix" result="effect1_dropShadow_3000_453"/>
<feBlend mode="normal" in="SourceGraphic" in2="effect1_dropShadow_3000_453" result="shape"/>
<feColorMatrix in="SourceAlpha" type="matrix" values="0 0 0 0 0 0 0 0 0 0 0 0 0 0 0 0 0 0 127 0" result="hardAlpha"/>
<feOffset dy="-4"/>
<feComposite in2="hardAlpha" operator="arithmetic" k2="-1" k3="1"/>
<feColorMatrix type="matrix" values="0 0 0 0 0 0 0 0 0 0 0 0 0 0 0 0 0 0 0.25 0"/>
<feBlend mode="normal" in2="shape" result="effect2_innerShadow_3000_453"/>
</filter>
</defs>
</svg>
