<svg width="50" height="50" viewBox="0 0 50 50" fill="none" xmlns="http://www.w3.org/2000/svg">
<path d="M23.7466 7.136C24.1061 6.8595 24.6066 6.8595 24.966 7.136L43.6464 21.5055C44.4032 22.0877 43.9915 23.2981 43.0367 23.2981H5.67596C4.72111 23.2981 4.30941 22.0877 5.06625 21.5055L23.7466 7.136Z" fill="white"/>
<path d="M37.6609 41.333C37.6609 42.4375 36.7654 43.3329 35.6609 43.333H28.7566V32.2031C28.7565 29.7443 26.7624 27.751 24.3035 27.751C21.8448 27.7512 19.8514 29.7444 19.8513 32.2031V43.333H12.947C11.8425 43.333 10.947 42.4376 10.947 41.333V23.2979H37.6609V41.333Z" fill="white"/>
</svg>
