<svg width="60" height="60" viewBox="0 0 60 60" fill="none" xmlns="http://www.w3.org/2000/svg">
<path d="M25.5 6C26.3284 6 27 6.67157 27 7.5V21.3428C26.9999 23.4191 26.2461 25.4247 24.8789 26.9873C23.9901 28.0031 23.5001 29.3075 23.5 30.6572V49.75C23.5 52.6495 21.1495 55 18.25 55C15.3505 55 13 52.6495 13 49.75V30.8281C12.9999 29.415 12.4387 28.0597 11.4395 27.0605C9.87764 25.4987 9.00008 23.3806 9 21.1719V7.5C9 6.67157 9.67157 6 10.5 6C11.3284 6 12 6.67157 12 7.5V21.1719C12.0001 22.585 12.5613 23.9402 13.5605 24.9395C15.1224 26.5013 15.9999 28.6194 16 30.8281V49.75C16 50.9926 17.0074 52 18.25 52C19.4926 52 20.5 50.9926 20.5 49.75V30.6572C20.5001 28.5809 21.2539 26.5753 22.6211 25.0127C23.5099 23.9969 23.9999 22.6925 24 21.3428V7.5C24 6.67157 24.6716 6 25.5 6ZM41.7256 5C44.6124 5 46.9531 7.3407 46.9531 10.2275V50.0156L46.9463 50.2725C46.8127 52.9058 44.6353 54.9999 41.9688 55L41.7119 54.9932C39.1635 54.8639 37.1205 52.8209 36.9912 50.2725L36.9844 50.0156V35.3848C36.9844 35.1723 36.812 35 36.5996 35H33.6855L33.4951 34.9951C31.5482 34.8962 30 33.286 30 31.3145V27.7734C30 21.6083 31.8186 15.5844 35.2217 10.4541L35.5566 9.95996L37.4258 7.25488C38.4018 5.84283 40.009 5.00005 41.7256 5ZM41.7256 8C40.9942 8.00005 40.3094 8.35925 39.8936 8.96094L38.0244 11.666C34.7527 16.4003 33 22.0187 33 27.7734V31.3145C33 31.6928 33.3072 32 33.6855 32H36.5996C38.4689 32 39.9844 33.5155 39.9844 35.3848V50.0156C39.9844 51.1115 40.8729 52 41.9688 52C43.0645 51.9999 43.9531 51.1114 43.9531 50.0156V10.2275C43.9531 8.99756 42.9556 8 41.7256 8ZM15.5 6C16.3284 6 17 6.67157 17 7.5V16.5C17 17.3284 16.3284 18 15.5 18C14.6716 18 14 17.3284 14 16.5V7.5C14 6.67157 14.6716 6 15.5 6ZM20.5 6C21.3284 6 22 6.67157 22 7.5V16.5C22 17.3284 21.3284 18 20.5 18C19.6716 18 19 17.3284 19 16.5V7.5C19 6.67157 19.6716 6 20.5 6Z" fill="#fff"/>
</svg>
