<svg width="60" height="60" viewBox="0 0 60 60" fill="none" xmlns="http://www.w3.org/2000/svg">
<path d="M30 7C42.7025 7 53 17.2975 53 30C53 42.7025 42.7025 53 30 53C17.2975 53 7 42.7025 7 30C7 17.2975 17.2975 7 30 7ZM30 10C18.9543 10 10 18.9543 10 30C10 41.0457 18.9543 50 30 50C41.0457 50 50 41.0457 50 30C50 18.9543 41.0457 10 30 10ZM31.4219 26.0234C33.5518 25.6961 33.7556 27.057 33.2891 28.4395C32.9729 29.3854 30.0897 37.6518 29.9238 38.1182L29.5244 39.2607C29.4717 39.4791 29.314 39.9961 29.585 40.0762C29.9764 40.2216 30.9019 39.5297 31.1504 39.3477C32.1734 38.5717 33.0653 37.6463 33.793 36.6045C33.8471 36.5229 33.9174 36.4524 34 36.3975C34.0826 36.3426 34.1763 36.3048 34.2744 36.2852C34.3723 36.2656 34.4732 36.2646 34.5713 36.2832C34.6696 36.3019 34.7635 36.3395 34.8467 36.3936C34.9936 36.4985 35.0959 36.6516 35.1348 36.8242C35.1735 36.9969 35.1463 37.1776 35.0576 37.332C34.0263 38.8529 32.0687 40.7889 30.1943 41.5166C29.4551 41.8057 28.6665 41.9588 27.8691 41.9678C27.0489 42.0165 26.2346 41.8039 25.5508 41.3633C25.1864 41.1337 24.9043 40.8004 24.7451 40.4092C24.586 40.018 24.5572 39.5886 24.6621 39.1807C24.76 38.6931 27.8534 30.2686 28.0498 29.5391C28.2202 29.1436 28.2389 28.7015 28.1025 28.2939C28.0392 28.1866 27.9446 28.0998 27.8311 28.043C27.7175 27.9862 27.5891 27.9616 27.4619 27.9736C27.2139 27.9955 24.9938 28.2746 24.9561 28.2793C24.8572 28.2855 24.7578 28.273 24.6641 28.2422C24.5703 28.2114 24.4836 28.1628 24.4092 28.0996C24.3348 28.0364 24.2732 27.9599 24.2295 27.874C24.1859 27.7883 24.1607 27.6949 24.1543 27.5996C24.1479 27.5041 24.1605 27.408 24.1924 27.3174C24.2243 27.2268 24.2746 27.1432 24.3398 27.0713C24.4052 26.9993 24.4844 26.9398 24.5732 26.8975C24.662 26.8552 24.7587 26.8305 24.8574 26.8242C24.9628 26.8169 30.8423 26.0817 31.4219 26.0234ZM31.1523 17.9746C32.8092 17.9746 34.1523 19.3178 34.1523 20.9746C34.1523 22.6315 32.8092 23.9746 31.1523 23.9746C29.4955 23.9746 28.1523 22.6315 28.1523 20.9746C28.1523 19.3178 29.4955 17.9746 31.1523 17.9746Z" fill="#fff"/>
</svg>
