<svg width="60" height="60" viewBox="0 0 60 60" fill="none" xmlns="http://www.w3.org/2000/svg">
<path d="M44.4121 6.01074C48.6389 6.22523 52 9.71994 52 14V42L51.9893 42.4121C51.8141 45.8631 49.4522 48.7361 46.2617 49.6748L51 55H46.8301L42.3809 50H17.6191L13.1699 55H9L13.7373 49.6748C10.5473 48.7358 8.18585 45.8627 8.01074 42.4121L8 42V14C8 9.58172 11.5817 6 16 6H44L44.4121 6.01074ZM11 42C11 44.7614 13.2386 47 16 47H44C46.7614 47 49 44.7614 49 42V32H11V42ZM17.5 38C18.8807 38 20 39.1193 20 40.5C20 41.8807 18.8807 43 17.5 43C16.1193 43 15 41.8807 15 40.5C15 39.1193 16.1193 38 17.5 38ZM42.5 38C43.8807 38 45 39.1193 45 40.5C45 41.8807 43.8807 43 42.5 43C41.1193 43 40 41.8807 40 40.5C40 39.1193 41.1193 38 42.5 38ZM11 29H28.5V18H11V29ZM31.5 29H49V18H31.5V29ZM16 9C13.2386 9 11 11.2386 11 14V15H49V14C49 11.2386 46.7614 9 44 9H16Z" fill="black"/>
</svg>
