<svg width="60" height="60" viewBox="0 0 60 60" fill="none" xmlns="http://www.w3.org/2000/svg">
<path d="M30 6C38.2843 6 45 12.9126 45 21.4395L44.9961 21.8154C44.9072 25.6417 43.4622 29.1208 41.1416 31.7705L51.5586 28.5664C52.1108 28.3965 52.7121 28.5585 53.1035 28.9834C53.4949 29.4082 53.607 30.0203 53.3926 30.5566L45.3926 50.5566L45.3193 50.7139C45.1284 51.0666 44.8024 51.3309 44.4121 51.4424L30.4121 55.4424C30.3707 55.4542 30.3289 55.4635 30.2871 55.4717C30.2784 55.4734 30.2695 55.474 30.2607 55.4756C30.2256 55.4818 30.1905 55.4866 30.1553 55.4902C30.1455 55.4913 30.1358 55.4923 30.126 55.4932C30.0865 55.4965 30.0472 55.4988 30.0078 55.499C30.0026 55.4991 29.9974 55.499 29.9922 55.499C29.986 55.499 29.9798 55.4982 29.9736 55.498C29.9151 55.4971 29.8566 55.4924 29.7978 55.4844C29.7835 55.4824 29.7691 55.4809 29.7549 55.4785C29.696 55.4687 29.6374 55.4556 29.5791 55.4385C29.5759 55.4376 29.5725 55.4375 29.5693 55.4365C29.5202 55.4218 29.4712 55.4049 29.4228 55.3848L17.8223 50.5508L6.24707 52.4805C5.70494 52.5707 5.15568 52.357 4.81738 51.9238C4.47949 51.4908 4.40538 50.9071 4.62402 50.4033L13.0244 31.083L13.1143 30.9092C13.3473 30.5209 13.7464 30.2552 14.2021 30.1943L17.3701 29.7705C15.9319 27.4654 15.0719 24.7414 15.0039 21.8154L15 21.4395C15 12.9126 21.7157 6 30 6ZM20.0293 48.2207L29.2305 52.0537L34.8477 39.5693L30.7686 44.6279C30.3687 45.1236 29.6303 45.1236 29.2305 44.6279L24.5049 38.7695L20.0293 48.2207ZM40.0898 35.2344L32.6943 51.6709L42.8818 48.7598L49.4424 32.3564L40.0898 35.2344ZM15.4375 33.0557L8.47558 49.0674L16.9795 47.6494L22.4141 36.1768L19.4629 32.5186L15.4375 33.0557ZM30 9C23.4536 9 18 14.4872 18 21.4395C18 24.5026 19.0643 27.2923 20.8203 29.4512L21.1807 29.874L21.2295 29.9297L21.2754 29.9863L29.999 40.8027L38.7227 29.9863L38.7686 29.9297L38.8174 29.874C40.788 27.662 42 24.7064 42 21.4395C42 14.4872 36.5464 9 30 9ZM30 14C33.866 14 37 17.134 37 21C37 24.866 33.866 28 30 28C26.134 28 23 24.866 23 21C23 17.134 26.134 14 30 14ZM30 17C27.7909 17 26 18.7909 26 21C26 23.2091 27.7909 25 30 25C32.2091 25 34 23.2091 34 21C34 18.7909 32.2091 17 30 17Z" fill="#fff"/>
</svg>
