<svg width="150" height="150" viewBox="0 0 150 150" fill="none" xmlns="http://www.w3.org/2000/svg">
<rect x="40" y="10" width="70" height="130" rx="12" fill="white" stroke="black" stroke-width="4"/>
<path d="M62 12H88V14C88 16.7614 85.7614 19 83 19H67C64.2386 19 62 16.7614 62 14V12Z" fill="black"/>
<path d="M75 54C86.598 54 96 63.402 96 75C96 86.598 86.598 96 75 96C63.402 96 54 86.598 54 75C54 63.402 63.402 54 75 54ZM75 63.2002C74.6817 63.2002 74.3764 63.3267 74.1514 63.5518C73.9264 63.7768 73.7998 64.0822 73.7998 64.4004V65.6006C73.7998 65.6449 73.8028 65.6888 73.8076 65.7324C72.7649 65.9289 71.8108 66.3384 71.0361 66.9189C69.9202 67.7565 69.1164 69.0059 69.1162 70.4854C69.1162 71.9649 69.9202 73.2132 71.0361 74.0508C72.0016 74.7754 73.2448 75.2332 74.5928 75.3438C74.6716 75.36 74.7523 75.3691 74.834 75.3691C75.9546 75.3691 76.9257 75.7123 77.5869 76.209C78.2492 76.7045 78.5468 77.3012 78.5469 77.8555C78.5469 78.4099 78.2491 79.0044 77.5879 79.5C76.9255 79.9967 75.9558 80.3398 74.834 80.3398C73.0188 80.3397 71.7087 79.4687 71.2861 78.5713C71.1504 78.2835 70.9059 78.0607 70.6064 77.9531C70.3069 77.8456 69.9763 77.8613 69.6885 77.9971C69.4008 78.1327 69.1789 78.3774 69.0713 78.6768C68.9637 78.9763 68.9795 79.3069 69.1152 79.5947C69.9095 81.2819 71.7394 82.387 73.7998 82.667V83.6006C73.7999 83.9186 73.9266 84.2233 74.1514 84.4482C74.3764 84.6733 74.6817 84.7998 75 84.7998C75.3182 84.7998 75.6236 84.6733 75.8486 84.4482C76.0734 84.2233 76.2001 83.9185 76.2002 83.6006V82.6172C77.2649 82.4249 78.2387 82.0119 79.0273 81.4199C80.1445 80.5835 80.9473 79.3341 80.9473 77.8545C80.9472 76.3749 80.1443 75.1266 79.0283 74.2891C78.064 73.5654 76.8227 73.1074 75.4766 72.9961C75.3963 72.9793 75.3138 72.9707 75.2305 72.9707C74.1086 72.9707 73.139 72.6276 72.4766 72.1309C71.8154 71.6341 71.5166 71.0388 71.5166 70.4844C71.5167 69.93 71.8154 69.3364 72.4766 68.8408C73.139 68.3441 74.1095 68.001 75.2314 68.001C77.047 68.001 78.3573 68.8722 78.7773 69.7686C78.8445 69.9109 78.9392 70.0386 79.0557 70.1445C79.1722 70.2505 79.3088 70.3324 79.457 70.3857C79.6054 70.4391 79.7634 70.4636 79.9209 70.4561C80.0782 70.4485 80.2325 70.4099 80.375 70.3428C80.5176 70.2756 80.6459 70.1801 80.752 70.0635C80.8579 69.9469 80.9399 69.8104 80.9932 69.6621C81.0464 69.5138 81.07 69.3566 81.0625 69.1992C81.055 69.0417 81.0164 68.8868 80.9492 68.7441C80.1451 67.0394 78.2843 65.9265 76.1963 65.6621C76.1973 65.6416 76.2002 65.6212 76.2002 65.6006V64.4004C76.2002 64.0822 76.0736 63.7768 75.8486 63.5518C75.6236 63.3267 75.3182 63.2002 75 63.2002Z" fill="black"/>
</svg>
