<svg width="34" height="34" viewBox="0 0 34 34" fill="none" xmlns="http://www.w3.org/2000/svg">
<path d="M0.585939 11.3359C-0.19504 12.1169 -0.194978 13.383 0.585939 14.1641L15.5859 29.1641C15.7325 29.3106 15.896 29.4299 16.0703 29.5215C16.2444 29.6129 16.4291 29.6773 16.6182 29.7139C16.6812 29.7261 16.7448 29.7351 16.8086 29.7412C16.9359 29.7534 17.0641 29.7534 17.1914 29.7412C17.3189 29.729 17.4456 29.7046 17.5693 29.668C17.8169 29.5947 18.0531 29.4727 18.2627 29.3018C18.315 29.2591 18.3653 29.2128 18.4141 29.1641L33.4141 14.1641C34.1949 13.383 34.195 12.1169 33.4141 11.3359C32.6331 10.5551 31.367 10.5551 30.5859 11.3359L17 24.9219L3.41406 11.3359C2.63301 10.555 1.36695 10.5549 0.585939 11.3359Z" fill="black"/>
</svg>
