<svg width="60" height="60" viewBox="0 0 60 60" fill="none" xmlns="http://www.w3.org/2000/svg">
<ellipse cx="36.1917" cy="13.8879" rx="4.89481" ry="4.88794" fill="black" fill-opacity="0.3"/>
<path d="M32.7734 20.2964C33.2686 20.1542 33.8071 20.1379 34.3408 20.2808C35.9072 20.7001 36.8361 22.3093 36.416 23.8755L33.3779 35.2007C33.2947 35.5106 33.1619 35.7938 32.9951 36.0483C32.4804 36.8928 31.5544 37.4583 30.4932 37.4585H20.4385L17.4814 42.5747C16.6698 43.9783 14.8724 44.4597 13.4678 43.6499C12.0632 42.84 11.583 41.0448 12.3945 39.6411L16.1494 33.145C16.1631 33.1194 16.1789 33.095 16.1934 33.0698L16.2061 33.0483C16.2197 33.0247 16.2348 33.0021 16.249 32.979C16.2786 32.9316 16.3077 32.884 16.3398 32.8384C16.3629 32.8052 16.3879 32.7736 16.4121 32.7417C16.4433 32.7011 16.4745 32.6605 16.5078 32.6216C16.5485 32.5734 16.5915 32.5279 16.6348 32.4829C16.6516 32.4656 16.6683 32.4481 16.6855 32.4312C16.7427 32.3746 16.8022 32.3212 16.8633 32.27C16.8677 32.2663 16.8715 32.262 16.876 32.2583C17.4683 31.7676 18.2302 31.5314 18.9912 31.5933H28.2646L29.6846 26.2974L21.8506 28.394C20.5166 28.751 19.145 27.9592 18.7871 26.6255C18.4294 25.2919 19.2208 23.9218 20.5547 23.5649L32.7441 20.3032C32.7537 20.3007 32.7639 20.2988 32.7734 20.2964Z" fill="black" fill-opacity="0.3"/>
<path d="M39.0179 23.9728C39.2665 23.0637 40.2852 22.6032 41.0759 23.1159C45.2438 25.8185 48.0007 30.5076 48.0007 35.8398C48.0004 44.2123 41.2035 51 32.8191 51C27.6185 51 23.0288 48.3882 20.2929 44.407C20.0124 43.9989 20.0098 43.4661 20.2577 43.0375C20.8119 42.079 22.2695 42.1424 22.9224 43.0366C25.1485 46.0854 28.7513 48.0672 32.8191 48.0672C39.5815 48.0672 45.0635 42.5926 45.0638 35.8398C45.0638 31.641 42.944 27.9368 39.7152 25.7352C39.141 25.3437 38.8346 24.6431 39.0179 23.9728Z" fill="black" fill-opacity="0.3"/>
</svg>
