<?xml version="1.0" encoding="UTF-8"?>
<svg id="Layer_1" xmlns="http://www.w3.org/2000/svg" width="60" height="60" version="1.1" viewBox="0 0 60 60">
  <!-- Generator: Adobe Illustrator 30.0.0, SVG Export Plug-In . SVG Version: 2.1.1 Build 123)  -->
  <defs>
    <style>
      .st0 {
        fill: #454545;
      }
    </style>
  </defs>
  <path class="st0" d="M48.8,30c0-10.4-8.4-18.8-18.8-18.8S11.2,19.6,11.2,30s8.4,18.8,18.8,18.8v3.8c-12.4,0-22.5-10.1-22.5-22.5S17.6,7.5,30,7.5s22.5,10.1,22.5,22.5-10.1,22.5-22.5,22.5v-3.8c10.4,0,18.8-8.4,18.8-18.8Z"/>
  <path class="st0" d="M31.9,20.6c0,1-.8,1.9-1.9,1.9s-1.9-.8-1.9-1.9.8-1.9,1.9-1.9,1.9.8,1.9,1.9Z"/>
  <path class="st0" d="M28.1,28.1c0-1,.8-1.9,1.9-1.9s1.9.8,1.9,1.9v11.2c0,1-.8,1.9-1.9,1.9s-1.9-.8-1.9-1.9v-11.2Z"/>
  <metadata>
    <sfw xmlns="http://ns.adobe.com/SaveForWeb/1.0/">
      <slices/>
      <sliceSourceBounds x="7.5" y="7.5" width="45" height="45" bottomLeftOrigin="true"/>
    </sfw>
  </metadata>
</svg>