<svg width="50" height="50" viewBox="0 0 50 50" fill="none" xmlns="http://www.w3.org/2000/svg">
<path d="M14.9545 11.512L16.6086 10.5826C18.1526 9.71088 20.1009 10.2019 21.1557 11.7295L23.2556 14.7664C24.1713 16.0911 24.0438 17.7531 23.0988 19.2091C21.8152 21.1861 20.8211 22.6013 20.8211 22.6013C21.385 24.4456 22.3259 26.1525 23.5842 27.6139C25.0528 29.3532 26.4702 30.2838 28.0627 31.1781C28.0627 31.1781 29.6378 30.4476 31.7888 29.5012C33.2248 28.8705 34.6749 28.5452 35.8074 29.6429L38.4466 32.1979C39.086 32.8228 39.4911 33.6487 39.5936 34.5369C39.6962 35.4251 39.49 36.3216 39.0098 37.0758L37.9487 38.7004C37.4459 39.4844 36.7371 40.1148 35.8998 40.5227C35.0626 40.9306 34.1292 41.1001 33.202 41.0128C28.7624 40.5744 23.7095 37.3042 18.8838 31.6061C14.0528 25.8949 12.1078 20.8909 12.2109 16.1967C12.2533 14.2217 13.3171 12.4332 14.9545 11.512Z" fill="white"/>
</svg>
