<svg width="130" height="50" viewBox="0 0 130 50" fill="none" xmlns="http://www.w3.org/2000/svg">
<path d="M105.401 0C118.984 0 130 11.1952 130 25C130 38.8048 118.984 50 105.401 50H24.599C11.0157 50 0 38.8048 0 25C0 11.1952 11.0157 0 24.599 0H105.401Z" fill="#2A3695"/>
<g clip-path="url(#clip0_1272_7655)">
<path d="M16 32.5147L23.5174 23.3441C24.8816 21.7768 25.9604 20.6374 27.3246 19.209V19.1145H16.5651V13.4121H36.3546V17.7362L29.1797 26.5288C27.8611 28.0517 26.6396 29.5246 25.2754 30.8084V30.9029H36.7484V36.6554H16V32.5203V32.5147Z" fill="white"/>
<path d="M46.8991 27.3334C47.3387 30.3792 49.9301 31.752 53.3948 31.752C55.4725 31.752 57.2077 31.1351 58.8973 30.2791L61.6314 34.5587C57.8242 36.6485 55.7522 37.1265 52.5272 37.1265C44.4219 37.1265 40.0781 31.7298 40.0781 25.2937C40.0781 18.8576 43.657 12.8828 52.139 12.8828C59.0057 12.8828 62.7787 18.1851 62.7787 24.4822C62.7787 25.7161 62.6303 26.811 62.5332 27.3334H46.8991ZM56.2317 22.3924C56.2317 20.6361 54.9588 17.935 51.5397 17.935C48.4175 17.935 47.0418 20.4416 46.8478 22.3924H56.2317Z" fill="white"/>
<path d="M80.8014 13.4566C78.9006 13.4566 76.5661 13.6233 75.1277 15.6575V13.4121H67.7188V36.6554H75.1391V25.4395C75.1391 24.867 75.1905 24.3001 75.2875 23.8221C75.7784 21.5878 77.6335 20.165 80.3619 20.165C81.1895 20.165 83.8437 20.165 85.9842 20.165V13.5511C81.8231 13.4566 81.4806 13.4566 80.7957 13.4566H80.8014Z" fill="white"/>
<path d="M101.974 24.6401C101.974 25.1903 102.482 25.346 102.99 25.346C104.081 25.346 104.32 24.5123 104.32 23.4062C104.001 23.6008 103.407 23.6397 102.911 23.7731C102.403 23.8898 101.969 24.101 101.969 24.6346L101.974 24.6401Z" fill="white"/>
<path d="M95.4077 19.2812H93.8438V21.5933H95.4077C96.1783 21.5933 96.732 21.3155 96.732 20.4651C96.732 19.6147 96.1612 19.2812 95.4077 19.2812Z" fill="white"/>
<path d="M111.92 27.1895C111.366 28.6791 110.55 28.9625 109.003 28.9625H108.05L107.93 27.0561H108.723C109.248 27.0561 109.636 26.7671 109.636 26.3003C109.636 25.9334 109.191 24.8885 109.06 24.5217L107.262 19.7975H109.682L111.001 23.9604H111.029L112.348 19.7975H112.896C110.829 15.2122 106.126 11.9941 100.663 11.9941C93.3002 11.9941 87.3125 17.8244 87.3125 24.9941C87.3125 32.1639 93.3002 37.9941 100.663 37.9941C108.027 37.9941 114.014 32.1639 114.014 24.9941C114.014 24.0882 113.917 23.2045 113.735 22.3486L111.931 27.184L111.92 27.1895ZM95.7774 23.4768H93.8424V26.5893H91.4508V17.3353H95.7774C97.5412 17.3353 99.088 18.0856 99.088 20.2977C99.088 22.5097 97.8608 23.4824 95.7774 23.4824V23.4768ZM104.493 26.5893C104.414 26.3781 104.385 26.1724 104.356 25.9501C103.769 26.5504 102.895 26.7894 102.062 26.7894C100.732 26.7894 99.6817 26.1335 99.6817 24.7385C99.6817 22.5264 102.153 22.6987 103.74 22.3819C104.128 22.3041 104.345 22.1707 104.345 21.7539C104.345 21.2425 103.711 21.048 103.243 21.048C102.61 21.048 102.21 21.3203 102.102 21.8984H99.9671C100.007 21.0091 100.435 20.4311 101.057 20.0809C101.674 19.7419 102.484 19.6085 103.272 19.6085C104.922 19.6085 106.525 19.9642 106.525 21.8817V24.8496C106.525 25.4277 106.525 26.0557 106.794 26.5893H104.499H104.493Z" fill="white"/>
<path d="M95.7798 17.3356H91.4531V26.5896H93.8448V23.4771H95.7798C97.8632 23.4771 99.0904 22.6101 99.0904 20.2925C99.0904 17.9748 97.5435 17.3301 95.7798 17.3301V17.3356ZM95.4087 21.593H93.8448V19.2809H95.4087C96.1622 19.2809 96.733 19.5866 96.733 20.4648C96.733 21.3429 96.1736 21.593 95.4087 21.593Z" fill="#2A3695"/>
<path d="M106.524 21.8826C106.524 19.9595 104.925 19.6094 103.27 19.6094C102.477 19.6094 101.672 19.7372 101.055 20.0818C100.439 20.4375 100.005 21.01 99.9651 21.8992H102.1C102.208 21.3212 102.608 21.0489 103.241 21.0489C103.71 21.0489 104.343 21.2434 104.343 21.7547C104.343 22.1716 104.126 22.305 103.738 22.3828C102.151 22.694 99.6797 22.5273 99.6797 24.7393C99.6797 26.1399 100.73 26.7902 102.06 26.7902C102.893 26.7902 103.767 26.5568 104.355 25.951C104.383 26.1733 104.406 26.3845 104.491 26.5901H106.786C106.518 26.0566 106.518 25.4285 106.518 24.8505V21.8826H106.524ZM102.985 25.3507C102.477 25.3507 101.969 25.1895 101.969 24.6449C101.969 24.1002 102.397 23.9001 102.91 23.7834C103.407 23.6555 104.001 23.6111 104.32 23.4166C104.32 24.5226 104.075 25.3563 102.99 25.3563L102.985 25.3507Z" fill="#2A3695"/>
<path d="M111.025 23.9598H110.997L109.678 19.7969H107.258L109.056 24.5211C109.193 24.8879 109.632 25.9328 109.632 26.2997C109.632 26.7721 109.244 27.0555 108.719 27.0555H107.926L108.046 28.9619H108.999C110.546 28.9619 111.362 28.6784 111.916 27.1889L113.719 22.3535C113.531 21.4643 113.245 20.6139 112.88 19.8024H112.332L111.014 23.9653L111.025 23.9598Z" fill="#2A3695"/>
</g>
<defs>
<clipPath id="clip0_1272_7655">
<rect width="98" height="26" fill="white" transform="translate(16 12)"/>
</clipPath>
</defs>
</svg>
