<svg width="100" height="100" viewBox="0 0 100 100" fill="none" xmlns="http://www.w3.org/2000/svg">
<rect x="2" y="23.3335" width="96" height="50.6667" rx="3" fill="white" stroke="#3D3D3D" stroke-width="4"/>
<path d="M34.3047 70.104C32.4193 70.104 31.2734 68.6978 31.2734 66.229C31.2734 63.7603 32.4193 62.354 34.3047 62.354C36.1901 62.354 37.3359 63.7707 37.3359 66.229C37.3359 68.7082 36.1901 70.104 34.3047 70.104ZM34.3047 68.8123C35.1797 68.8123 35.7422 67.9686 35.7318 66.229C35.7318 64.5103 35.1797 63.6353 34.3047 63.6353C33.4297 63.6353 32.8776 64.5103 32.8776 66.229C32.8672 67.9686 33.4297 68.8123 34.3047 68.8123Z" fill="#3D3D3D"/>
<path d="M27.4766 70.104C25.5911 70.104 24.4453 68.6978 24.4453 66.229C24.4453 63.7603 25.5911 62.354 27.4766 62.354C29.362 62.354 30.5078 63.7707 30.5078 66.229C30.5078 68.7082 29.362 70.104 27.4766 70.104ZM27.4766 68.8123C28.3516 68.8123 28.9141 67.9686 28.9036 66.229C28.9036 64.5103 28.3516 63.6353 27.4766 63.6353C26.6016 63.6353 26.0495 64.5103 26.0495 66.229C26.0391 67.9686 26.6016 68.8123 27.4766 68.8123Z" fill="#3D3D3D"/>
<path d="M20.6484 70.104C18.763 70.104 17.6172 68.6978 17.6172 66.229C17.6172 63.7603 18.763 62.354 20.6484 62.354C22.5339 62.354 23.6797 63.7707 23.6797 66.229C23.6797 68.7082 22.5339 70.104 20.6484 70.104ZM20.6484 68.8123C21.5234 68.8123 22.0859 67.9686 22.0755 66.229C22.0755 64.5103 21.5234 63.6353 20.6484 63.6353C19.7734 63.6353 19.2214 64.5103 19.2214 66.229C19.2109 67.9686 19.7734 68.8123 20.6484 68.8123Z" fill="#3D3D3D"/>
<path d="M13.8203 70.104C11.9349 70.104 10.7891 68.6978 10.7891 66.229C10.7891 63.7603 11.9349 62.354 13.8203 62.354C15.7057 62.354 16.8516 63.7707 16.8516 66.229C16.8516 68.7082 15.7057 70.104 13.8203 70.104ZM13.8203 68.8123C14.6953 68.8123 15.2578 67.9686 15.2474 66.229C15.2474 64.5103 14.6953 63.6353 13.8203 63.6353C12.9453 63.6353 12.3932 64.5103 12.3932 66.229C12.3828 67.9686 12.9453 68.8123 13.8203 68.8123Z" fill="#3D3D3D"/>
<path d="M9.35156 62.4585V70.0002H7.77865V63.9481H7.73698L6.00781 65.0314V63.646L7.8724 62.4585H9.35156Z" fill="#3D3D3D"/>
<path d="M95 21.333C97.7613 21.333 99.9998 23.5717 100 26.333V71C100 73.7614 97.7614 76 95 76H42V21.333H95ZM68.667 31.333C59.0941 31.333 51.333 39.0941 51.333 48.667C51.3332 58.2398 59.0942 66 68.667 66C78.2397 65.9998 85.9998 58.2397 86 48.667C86 39.0942 78.2398 31.3332 68.667 31.333Z" fill="#3D3D3D"/>
<path d="M64.729 54.0002L63.6314 49.374H62V47.9596H63.2903L62.1928 43.3335H64.2395L65.2036 47.9596H66.6422L67.71 43.3335H69.6233L70.6911 47.9596H72.1446L73.0938 43.3335H75.1405L74.043 47.9596H75.3333V49.374H73.7019L72.6044 54.0002H70.439L69.386 49.374H67.9622L66.8943 54.0002H64.729ZM65.5002 49.374L65.8413 51.0388H65.9303L66.3159 49.374H65.5002ZM68.2885 47.9596H69.0597L68.7037 46.4274H68.6296L68.2885 47.9596ZM71.0174 49.374L71.403 51.0536H71.492L71.848 49.374H71.0174Z" fill="#3D3D3D"/>
</svg>
