<svg width="130" height="50" viewBox="0 0 130 50" fill="none" xmlns="http://www.w3.org/2000/svg">
<path d="M105.401 0C118.984 0 130 11.1952 130 25C130 38.8048 118.984 50 105.401 50H24.599C11.0157 50 0 38.8048 0 25C0 11.1952 11.0157 0 24.599 0H105.401Z" fill="#FFEB00"/>
<path fill-rule="evenodd" clip-rule="evenodd" d="M33.0306 11C25.2785 11 19 15.8797 19 21.9634C19 25.8291 21.6267 29.2512 25.5348 31.2158L24.1894 36.1588C24.1253 36.2855 24.1894 36.4757 24.3175 36.6024C24.3816 36.6658 24.5097 36.7292 24.5738 36.7292C24.6379 36.7292 24.766 36.6658 24.8301 36.6658L30.532 32.8634C31.3649 32.9902 32.1978 33.0536 33.0947 33.0536C40.8468 33.0536 47.1253 28.1105 47.1253 22.0902C47.1253 15.8797 40.8468 11 33.0306 11Z" fill="black"/>
<path d="M58.9769 31.0829V38.1806H53.8516V12.0079H57.4393L58.08 13.6555C59.1691 12.5782 60.8348 11.4375 63.4616 11.4375C68.4588 11.4375 70.8293 15.1131 70.8293 21.1335C70.8293 27.4073 67.1775 31.3998 61.924 31.3998C60.8989 31.4631 60.1301 31.3998 58.9769 31.0829ZM58.9769 16.2538V27.5341C59.2332 27.5974 59.9379 27.6608 60.6426 27.6608C64.2945 27.6608 65.7039 25.1259 65.7039 21.1335C65.7039 17.648 64.7429 15.5567 61.8599 15.5567C60.8348 15.5567 59.8098 15.8102 58.9769 16.2538Z" fill="black"/>
<path d="M81.913 19.4207H84.796V18.7869C84.796 16.6957 83.5788 15.7451 81.5286 15.7451C79.927 15.7451 77.9409 16.1887 76.2752 17.0125L74.8657 13.6538C76.6596 12.3863 79.4785 11.5625 81.9771 11.5625C86.8462 11.5625 89.537 14.0974 89.537 18.9771V30.9544H85.9492L85.4367 29.3701C83.3866 30.8277 81.4646 31.4614 79.7988 31.4614C76.083 31.4614 73.9688 29.2434 73.9688 25.5044C73.9687 21.512 76.7236 19.4207 81.913 19.4207ZM84.8601 26.0748V22.5893H82.4896C79.8629 22.5893 78.5175 23.5399 78.5175 25.3777C78.5175 26.7719 79.2222 27.4689 80.7598 27.4689C82.1693 27.5323 83.9632 26.8352 84.8601 26.0748Z" fill="black"/>
<path d="M105.038 28.9875C103.244 33.6771 101.13 37.0992 97.991 39.0003L94.8517 36.1486C96.6456 34.5643 97.991 33.0433 99.0801 31.0154L92.2891 12.7008L97.3503 11.37L101.707 26.1991L105.999 11.3066L110.997 12.7008L105.038 28.9875Z" fill="black"/>
</svg>
