<svg width="200" height="200" viewBox="0 0 200 200" fill="none" xmlns="http://www.w3.org/2000/svg">
<path d="M100 0C155.228 0 200 44.7715 200 100C200 155.228 155.228 200 100 200C44.7715 200 0 155.228 0 100C0 44.7715 44.7715 0 100 0ZM153.356 76.5508C150.347 73.3163 145.285 73.134 142.051 76.1436L89.9521 124.616L60.3984 97.5957C57.1377 94.6146 52.077 94.8409 49.0957 98.1016C46.1145 101.362 46.341 106.423 49.6016 109.404L84.6016 141.404C87.6777 144.217 92.3978 144.196 95.4492 141.356L152.949 87.8564C156.184 84.8468 156.366 79.7854 153.356 76.5508Z" fill="url(#paint0_linear_473_10220)"/>
<path d="M100 0C155.228 0 200 44.7715 200 100C200 155.228 155.228 200 100 200C44.7715 200 0 155.228 0 100C0 44.7715 44.7715 0 100 0ZM153.356 76.5508C150.347 73.3163 145.285 73.134 142.051 76.1436L89.9521 124.616L60.3984 97.5957C57.1377 94.6146 52.077 94.8409 49.0957 98.1016C46.1145 101.362 46.341 106.423 49.6016 109.404L84.6016 141.404C87.6777 144.217 92.3978 144.196 95.4492 141.356L152.949 87.8564C156.184 84.8468 156.366 79.7854 153.356 76.5508Z" fill="url(#paint1_linear_473_10220)"/>
<defs>
<linearGradient id="paint0_linear_473_10220" x1="42.439" y1="19.5122" x2="148.78" y2="185.366" gradientUnits="userSpaceOnUse">
<stop stop-color="#FF2C55"/>
<stop offset="1" stop-color="#D50037"/>
</linearGradient>
<linearGradient id="paint1_linear_473_10220" x1="42.439" y1="19.5122" x2="148.78" y2="185.366" gradientUnits="userSpaceOnUse">
<stop stop-color="#FBE949"/>
<stop offset="1" stop-color="#F8DA29"/>
</linearGradient>
</defs>
</svg>
