<svg width="60" height="60" viewBox="0 0 60 60" fill="none" xmlns="http://www.w3.org/2000/svg">
<path d="M23.5859 13.5858C24.367 12.8047 25.633 12.8047 26.4141 13.5858C27.1951 14.3668 27.1951 15.6329 26.4141 16.4139L14.8281 27.9998H50C51.1046 27.9998 52 28.8953 52 29.9998C52 31.1044 51.1046 31.9998 50 31.9998H14.8281L26.4141 43.5858C27.1951 44.3668 27.1951 45.6329 26.4141 46.4139C25.633 47.195 24.367 47.195 23.5859 46.4139L8.58594 31.4139C8.21086 31.0388 8 30.5303 8 29.9998C8 29.4694 8.21087 28.9609 8.58594 28.5858L23.5859 13.5858Z" fill="#3D3D3D"/>
</svg>
