<svg width="244" height="84" viewBox="0 0 244 84" fill="none" xmlns="http://www.w3.org/2000/svg">
<g filter="url(#filter0_d_547_13234)">
<rect x="2" y="1" width="240" height="80" rx="10" fill="#3D3D3D" shape-rendering="crispEdges"/>
<path d="M68 24C69.1046 24 70 24.8954 70 26V56C70 57.1046 69.1046 58 68 58H25C23.8954 58 23 57.1046 23 56V26C23 24.8954 23.8954 24 25 24H68ZM26 27V55H46V40.0039C44.4235 43.1153 41.7519 45.7937 37.5938 47.832L35.7998 45.3916C41.1661 42.7022 44.0428 39.091 44.6406 34.0361H37.0957V31.4463H46V27H26ZM50.8662 51.7412H54.1396V40.4355H57.4375V37.8213H54.1396V29.1299H50.8662V51.7412ZM46.002 39.9961C47.3466 37.4078 47.9141 34.5203 47.9258 31.4463H46.002V39.9961Z" fill="white"/>
<!-- <path d="M132.33 27.7656V30.8242C132.295 34.7617 132.295 39.1914 131.064 45.8359L127.127 45.4141C128.357 39.2266 128.357 34.709 128.393 30.8945H109.408V27.7656H132.33ZM135.354 49.3164V52.5156H106.385V49.3164H117.072V38.2773H120.939V49.3164H135.354ZM164.85 24.8477V56.6289H161.123V40.4219H157.537V55.0117H153.951V25.4453H157.537V37.293H161.123V24.8477H164.85ZM150.365 28.6094V31.7734H142.42V45.9062C145.883 45.8711 148.73 45.6953 151.947 45.0977L152.229 48.2969C148.396 49.0703 145.057 49.1758 140.627 49.2109H138.482V28.6094H150.365ZM195.049 24.8477V56.6641H191.111V24.8477H195.049ZM174.201 27.4492V35.3945H181.9V27.4492H185.768V49.1758H170.299V27.4492H174.201ZM174.201 45.9766H181.9V38.4531H174.201V45.9766Z" fill="white"/> -->
</g>
<path d="M210 9H228C231.314 9 234 11.6863 234 15V33L222 21L210 9Z" fill="white"/>
<defs>
<filter id="filter0_d_547_13234" x="0" y="0" width="244" height="84" filterUnits="userSpaceOnUse" color-interpolation-filters="sRGB">
<feFlood flood-opacity="0" result="BackgroundImageFix"/>
<feColorMatrix in="SourceAlpha" type="matrix" values="0 0 0 0 0 0 0 0 0 0 0 0 0 0 0 0 0 0 127 0" result="hardAlpha"/>
<feOffset dy="1"/>
<feGaussianBlur stdDeviation="1"/>
<feComposite in2="hardAlpha" operator="out"/>
<feColorMatrix type="matrix" values="0 0 0 0 0 0 0 0 0 0 0 0 0 0 0 0 0 0 0.2 0"/>
<feBlend mode="normal" in2="BackgroundImageFix" result="effect1_dropShadow_547_13234"/>
<feBlend mode="normal" in="SourceGraphic" in2="effect1_dropShadow_547_13234" result="shape"/>
</filter>
</defs>
</svg>
