<svg width="240" height="80" viewBox="0 0 240 80" fill="none" xmlns="http://www.w3.org/2000/svg">
<rect x="1" y="1" width="238" height="78" rx="9" fill="white"/>
<rect x="1" y="1" width="238" height="78" rx="9" stroke="black" stroke-width="2"/>
<path d="M65 19C66.1046 19 67 19.8954 67 21V59C67 60.0357 66.2128 60.887 65.2041 60.9893L65 61H23L22.7959 60.9893C21.8543 60.8938 21.1062 60.1457 21.0107 59.2041L21 59V21C21 19.8954 21.8954 19 23 19H65ZM24 58H64V22H24V58ZM60 41C61.1046 41 62 41.8954 62 43V54C62 55.1046 61.1046 56 60 56H28C26.8954 56 26 55.1046 26 54V43C26 41.8954 26.8954 41 28 41H60ZM44 24.5C44.8284 24.5 45.5 25.1716 45.5 26V35L49.0996 32.2998C49.7623 31.8028 50.7031 31.937 51.2002 32.5996C51.6971 33.2623 51.5629 34.2031 50.9004 34.7002L44.9004 39.2002L44.7979 39.2705C44.2759 39.5986 43.5996 39.5751 43.0996 39.2002L37.0996 34.7002C36.437 34.2031 36.3029 33.2623 36.7998 32.5996C37.2969 31.937 38.2377 31.8028 38.9004 32.2998L42.5 35V26C42.5 25.1716 43.1716 24.5 44 24.5Z" fill="black"/>
<!-- <path d="M113.895 23.8477V31.0898H118.324V34.3242H113.895V41.4609H109.992V23.8477H113.895ZM94.1367 25.4648V36.3281C98.2148 36.293 102.504 35.9414 107.145 34.9922L107.602 38.1914C102.328 39.2812 97.4414 39.5977 92.8359 39.5977H90.1992V25.4648H94.1367ZM114.352 42.8672V45.9961H105.844C106.23 48.7734 109.887 51.6738 115.688 52.4648L114.176 55.418C109.271 54.7148 105.545 52.5352 103.77 49.6523C101.941 52.5352 98.2324 54.6445 93.3281 55.3477L91.7812 52.3945C97.6348 51.6562 101.221 48.8613 101.625 45.9961H93.082V42.8672H114.352ZM148.91 40.2656V43.3945H119.941V40.2656H148.91ZM145.641 51.832V54.9961H123.527V45.75H127.43V51.832H145.641ZM134.391 24.8672C141.316 24.8672 145.816 27.293 145.852 31.3008C145.816 35.3438 141.316 37.8047 134.391 37.8047C127.465 37.8047 122.93 35.3438 122.93 31.3008C122.93 27.293 127.465 24.8672 134.391 24.8672ZM134.391 27.9961C129.785 27.9961 126.973 29.1914 127.008 31.3008C126.973 33.4453 129.785 34.6406 134.391 34.6055C139.031 34.6406 141.809 33.4453 141.809 31.3008C141.809 29.1914 139.031 27.9961 134.391 27.9961ZM176.191 23.8477V36.9609H180.656V40.2305H176.191V55.6289H172.254V23.8477H176.191ZM150.668 46.8047C153.076 46.8047 155.871 46.8047 158.789 46.7344V43.7461C155.326 43.166 153.059 40.9863 153.094 38.0156C153.059 34.4297 156.223 32.0391 160.793 32.0391C165.293 32.0391 168.492 34.4297 168.527 38.0156C168.492 41.0039 166.189 43.1836 162.727 43.7461V46.5938C165.398 46.4531 168.07 46.2422 170.566 45.8906L170.812 48.7383C163.992 49.9688 156.645 50.0391 151.23 50.0391L150.668 46.8047ZM170.215 27.5039V30.5977H151.266V27.5039H158.789V23.9883H162.727V27.5039H170.215ZM160.793 35.0273C158.367 35.0625 156.785 36.1523 156.785 38.0156C156.785 39.8438 158.367 40.9336 160.793 40.8984C163.184 40.9336 164.766 39.8438 164.766 38.0156C164.766 36.1523 163.184 35.0625 160.793 35.0273ZM198.48 26.5195V29.0508H204.879V23.8828H208.781V47.0156H204.879V39H198.48V41.7422H183.539V26.5195H198.48ZM187.441 29.6133V38.6836H194.613V29.6133H187.441ZM209.484 51.832V54.9961H187.828V44.8711H191.801V51.832H209.484ZM198.48 35.8711H204.879V32.25H198.48V35.8711Z" fill="black"/> -->
<path d="M208 8H226C229.314 8 232 10.6863 232 14V32L220 20L208 8Z" fill="black"/>
</svg>
