<svg width="240" height="80" viewBox="0 0 240 80" fill="none" xmlns="http://www.w3.org/2000/svg">
<rect x="1" y="1" width="238" height="78" rx="9" fill="black"/>
<rect x="1" y="1" width="238" height="78" rx="9" stroke="white" stroke-width="2"/>
<path d="M65 19C66.1046 19 67 19.8954 67 21V59C67 60.0357 66.2128 60.887 65.2041 60.9893L65 61H23L22.7959 60.9893C21.8543 60.8938 21.1062 60.1457 21.0107 59.2041L21 59V21C21 19.8954 21.8954 19 23 19H65ZM24 58H64V22H24V58ZM60 41C61.1046 41 62 41.8954 62 43V54C62 55.1046 61.1046 56 60 56H28C26.8954 56 26 55.1046 26 54V43C26 41.8954 26.8954 41 28 41H60ZM44 24.5C44.8284 24.5 45.5 25.1716 45.5 26V35L49.0996 32.2998C49.7623 31.8028 50.7031 31.937 51.2002 32.5996C51.6971 33.2623 51.5629 34.2031 50.9004 34.7002L44.9004 39.2002L44.7979 39.2705C44.2759 39.5986 43.5996 39.5751 43.0996 39.2002L37.0996 34.7002C36.437 34.2031 36.3029 33.2623 36.7998 32.5996C37.2969 31.937 38.2377 31.8028 38.9004 32.2998L42.5 35V26C42.5 25.1716 43.1716 24.5 44 24.5Z" fill="white"/>
<!-- <path d="M113.684 23.9531V31.4062H118.254V34.2188H113.684V41.6367H110.344V23.9531H113.684ZM93.7148 25.6406V36.6797C97.9863 36.6445 102.451 36.3105 107.285 35.3086L107.707 38.0508C102.398 39.1406 97.582 39.4922 92.9414 39.4922H90.375V25.6406H93.7148ZM114.176 43.1484V45.8555H105.527C105.809 48.9668 109.957 51.9375 115.477 52.7812L114.141 55.3477C109.412 54.5918 105.527 52.3066 103.734 49.2656C101.959 52.3242 98.0566 54.5039 93.3281 55.2773L91.9922 52.7461C97.5469 51.9375 101.643 49.0195 101.977 45.8555H93.2578V43.1484H114.176ZM148.77 40.4414V43.1133H120.047V40.4414H148.77ZM145.535 52.1133V54.8203H123.668V45.6797H127.043V52.1133H145.535ZM134.391 25.043C141.211 25.0078 145.641 27.3984 145.641 31.3359C145.641 35.3086 141.211 37.6992 134.391 37.7344C127.535 37.6992 123.141 35.3086 123.141 31.3359C123.141 27.3984 127.535 25.0078 134.391 25.043ZM134.391 27.7148C129.574 27.7148 126.551 29.0859 126.586 31.3359C126.551 33.6562 129.574 34.9922 134.391 34.9922C139.207 34.9922 142.195 33.6562 142.195 31.3359C142.195 29.0859 139.207 27.7148 134.391 27.7148ZM175.84 23.9883V37.1719H180.586V39.9844H175.84V55.4883H172.5V23.9883H175.84ZM150.773 46.9102C153.252 46.9102 156.135 46.9102 159.141 46.8047V43.6055C155.59 43.1133 153.27 40.9688 153.305 37.9102C153.27 34.3594 156.328 32.0039 160.828 32.0039C165.293 32.0039 168.387 34.3594 168.422 37.9102C168.387 40.9688 166.031 43.1309 162.48 43.6406V46.6641C165.275 46.5586 168.088 46.3301 170.707 45.9609L170.918 48.4219C164.098 49.6523 156.715 49.6875 151.301 49.6875L150.773 46.9102ZM170.25 27.7148V30.3867H151.371V27.7148H159.141V24.0586H162.48V27.7148H170.25ZM160.828 34.6055C158.191 34.6055 156.434 35.9062 156.434 37.9102C156.434 39.9141 158.191 41.1445 160.828 41.1445C163.465 41.1445 165.223 39.9141 165.223 37.9102C165.223 35.9062 163.465 34.6055 160.828 34.6055ZM198.34 26.6602V29.332H205.195V24.0234H208.535V46.9805H205.195V38.8242H198.34V41.5664H183.715V26.6602H198.34ZM187.02 29.3672V38.9297H195.07V29.3672H187.02ZM209.238 52.1133V54.8203H187.969V44.8711H191.344V52.1133H209.238ZM198.34 36.082H205.195V32.0742H198.34V36.082Z" fill="white"/> -->
</svg>
