<svg width="240" height="80" viewBox="0 0 240 80" fill="none" xmlns="http://www.w3.org/2000/svg">
<rect x="1" y="1" width="238" height="78" rx="9" fill="black"/>
<rect x="1" y="1" width="238" height="78" rx="9" stroke="white" stroke-width="2"/>
<path d="M66 23C67.1046 23 68 23.8954 68 25V55C68 56.1046 67.1046 57 66 57H23C21.8954 57 21 56.1046 21 55V25C21 23.8954 21.8954 23 23 23H66ZM24 26V54H44V39.0039C42.4235 42.1153 39.7519 44.7937 35.5938 46.832L33.7998 44.3916C39.1661 41.7022 42.0428 38.091 42.6406 33.0361H35.0957V30.4463H44V26H24ZM48.8662 50.7412H52.1396V39.4355H55.4375V36.8213H52.1396V28.1299H48.8662V50.7412ZM44.002 38.9961C45.3466 36.4078 45.9141 33.5203 45.9258 30.4463H44.002V38.9961Z" fill="white"/>
<!-- <path d="M129.979 27.0117V30.1055C129.979 34.0078 129.979 38.3672 128.783 44.8008L125.408 44.4492C126.639 38.3672 126.639 33.9023 126.639 30.1055V29.7188H107.514V27.0117H129.979ZM133.213 48.457V51.2344H104.49V48.457H115.424V37.3477H118.729V48.457H133.213ZM162.639 23.9883V55.4883H159.439V39.2109H155.361V53.8711H152.303V24.6211H155.361V36.4688H159.439V23.9883H162.639ZM148.471 27.7852V30.4922H139.998V45.082C143.865 45.0469 146.783 44.8711 150.158 44.2383L150.404 46.9805C146.607 47.7539 143.373 47.8945 138.768 47.9297H136.658V27.7852H148.471ZM192.803 23.9883V55.5586H189.463V23.9883H192.803ZM171.814 26.625V34.7109H180.287V26.625H183.592V48H168.475V26.625H171.814ZM171.814 45.2578H180.287V37.3477H171.814V45.2578Z" fill="white"/> -->
</svg>
