<svg width="240" height="80" viewBox="0 0 240 80" fill="none" xmlns="http://www.w3.org/2000/svg">
<rect x="1" y="1" width="238" height="78" rx="9" fill="black"/>
<rect x="1" y="1" width="238" height="78" rx="9" stroke="white" stroke-width="2"/>
<path d="M41 20C50.3888 20 58 27.6112 58 37C58 41.5312 56.2258 45.647 53.3359 48.6943L61.7373 57.0957C62.4207 57.7791 62.4206 58.8869 61.7373 59.5703C61.0539 60.2537 59.9461 60.2537 59.2627 59.5703L50.6719 50.9805C47.9262 52.8836 44.5938 54 41 54C31.6112 54 24 46.3888 24 37C24 27.6112 31.6112 20 41 20ZM41 23.5C33.5442 23.5 27.5 29.5442 27.5 37C27.5 44.4558 33.5442 50.5 41 50.5C48.4558 50.5 54.5 44.4558 54.5 37C54.5 29.5442 48.4558 23.5 41 23.5ZM41 28.25C41.9665 28.25 42.75 29.0335 42.75 30V35.25H48C48.9665 35.25 49.75 36.0335 49.75 37C49.75 37.9665 48.9665 38.75 48 38.75H42.75V44C42.75 44.9665 41.9665 45.75 41 45.75C40.0335 45.75 39.25 44.9665 39.25 44V38.75H34C33.0335 38.75 32.25 37.9665 32.25 37C32.25 36.0335 33.0335 35.25 34 35.25H39.25V30C39.25 29.0335 40.0335 28.25 41 28.25Z" fill="white"/>
<!-- <path d="M133.248 39V41.7422H104.49V39H117.182V35.7305H108.182V25.2539H129.592V27.9609H111.486V32.9883H129.979V35.7305H120.521V39H133.248ZM130.084 52.3945V55.1016H108.076V44.5547H129.803V47.2617H111.381V52.3945H130.084ZM164.432 48.8086V51.5859H135.604V48.8086H148.295V42.3398H138.908V26.1328H142.248V31.5469H157.717V26.1328H161.021V42.3398H151.6V48.8086H164.432ZM142.248 39.6328H157.717V34.2539H142.248V39.6328ZM192.908 23.9883V55.4883H189.533V23.9883H192.908ZM183.521 27.3633C183.521 36.5742 179.584 44.5898 168.791 49.7578L167.033 47.0508C175.418 43.0605 179.496 37.3828 180.146 30.0352H168.545V27.3633H183.521Z" fill="white"/> -->
</svg>
