<svg width="244" height="84" viewBox="0 0 244 84" fill="none" xmlns="http://www.w3.org/2000/svg">
<g filter="url(#filter0_d_547_13611)">
<rect x="2" y="1" width="240" height="80" rx="10" fill="#3D3D3D" shape-rendering="crispEdges"/>
<path d="M43 21C52.3888 21 60 28.6112 60 38C60 42.5312 58.2258 46.647 55.3359 49.6943L63.7373 58.0957C64.4207 58.7791 64.4206 59.8869 63.7373 60.5703C63.0539 61.2537 61.9461 61.2537 61.2627 60.5703L52.6719 51.9805C49.9262 53.8836 46.5938 55 43 55C33.6112 55 26 47.3888 26 38C26 28.6112 33.6112 21 43 21ZM43 24.5C35.5442 24.5 29.5 30.5442 29.5 38C29.5 45.4558 35.5442 51.5 43 51.5C50.4558 51.5 56.5 45.4558 56.5 38C56.5 30.5442 50.4558 24.5 43 24.5ZM43 29.25C43.9665 29.25 44.75 30.0335 44.75 31V36.25H50C50.9665 36.25 51.75 37.0335 51.75 38C51.75 38.9665 50.9665 39.75 50 39.75H44.75V45C44.75 45.9665 43.9665 46.75 43 46.75C42.0335 46.75 41.25 45.9665 41.25 45V39.75H36C35.0335 39.75 34.25 38.9665 34.25 38C34.25 37.0335 35.0335 36.25 36 36.25H41.25V31C41.25 30.0335 42.0335 29.25 43 29.25Z" fill="white"/>
<!-- <path d="M135.389 39.7891V42.9531H106.385V39.7891H118.9V36.8359H110.041V26.1133H131.768V29.2422H113.908V33.6719H132.119V36.8359H122.803V39.7891H135.389ZM132.189 53.1133V56.2422H109.936V45.4492H131.943V48.5781H113.803V53.1133H132.189ZM166.537 49.5977V52.7969H137.498V49.5977H150.014V43.4102H140.697V26.957H144.6V32.1602H159.33V26.957H163.232V43.4102H153.881V49.5977H166.537ZM144.6 40.2461H159.33V35.2891H144.6V40.2461ZM195.154 24.8477V56.6289H191.217V24.8477H195.154ZM185.662 28.2227C185.662 37.6797 182.006 45.7305 170.861 51.0039L168.822 47.875C177.137 43.9199 181.004 38.541 181.689 31.3164H170.439V28.2227H185.662Z" fill="white"/> -->
</g>
<path d="M210 9H228C231.314 9 234 11.6863 234 15V33L222 21L210 9Z" fill="white"/>
<defs>
<filter id="filter0_d_547_13611" x="0" y="0" width="244" height="84" filterUnits="userSpaceOnUse" color-interpolation-filters="sRGB">
<feFlood flood-opacity="0" result="BackgroundImageFix"/>
<feColorMatrix in="SourceAlpha" type="matrix" values="0 0 0 0 0 0 0 0 0 0 0 0 0 0 0 0 0 0 127 0" result="hardAlpha"/>
<feOffset dy="1"/>
<feGaussianBlur stdDeviation="1"/>
<feComposite in2="hardAlpha" operator="out"/>
<feColorMatrix type="matrix" values="0 0 0 0 0 0 0 0 0 0 0 0 0 0 0 0 0 0 0.2 0"/>
<feBlend mode="normal" in2="BackgroundImageFix" result="effect1_dropShadow_547_13611"/>
<feBlend mode="normal" in="SourceGraphic" in2="effect1_dropShadow_547_13611" result="shape"/>
</filter>
</defs>
</svg>
