<svg width="60" height="60" viewBox="0 0 60 60" fill="none" xmlns="http://www.w3.org/2000/svg">
<path d="M18.8748 11.9366L20.8399 10.8324C22.6743 9.79672 24.9891 10.3801 26.2422 12.195L28.7371 15.8031C29.825 17.3769 29.6735 19.3515 28.5509 21.0813C27.0258 23.4302 25.8448 25.1116 25.8448 25.1116C26.5147 27.3027 27.6326 29.3306 29.1276 31.0669C30.8724 33.1334 32.5563 34.2389 34.4484 35.3014C34.4484 35.3014 36.3197 34.4335 38.8752 33.3092C40.5813 32.5598 42.3041 32.1734 43.6496 33.4775L46.7851 36.5131C47.5449 37.2555 48.0261 38.2367 48.1479 39.292C48.2698 40.3472 48.0249 41.4123 47.4544 42.3083L46.1936 44.2385C45.5963 45.1699 44.7542 45.919 43.7595 46.4036C42.7647 46.8881 41.6558 47.0896 40.5542 46.9858C35.2796 46.4649 29.2763 42.5797 23.543 35.81C17.8035 29.0246 15.4927 23.0794 15.6151 17.5024C15.6656 15.1559 16.9294 13.0311 18.8748 11.9366Z" fill="black"/>
</svg>
