<svg width="100" height="100" viewBox="0 0 100 100" fill="none" xmlns="http://www.w3.org/2000/svg">
<rect x="20" y="8.57129" width="60" height="80.7143" fill="white"/>
<path d="M75.625 6.25C79.422 6.25 82.5 9.32804 82.5 13.125V86.875C82.5 89.9816 79.9816 92.5 76.875 92.5H23.125C20.0184 92.5 17.5 89.9816 17.5 86.875V13.125C17.5 9.32804 20.578 6.25 24.375 6.25H75.625ZM21.25 86.875C21.25 87.9105 22.0895 88.75 23.125 88.75H76.875C77.9105 88.75 78.75 87.9105 78.75 86.875V25H21.25V86.875ZM50 30C63.8071 30 75 41.1929 75 55C75 68.8071 63.8071 80 50 80C36.1929 80 25 68.8071 25 55C25 41.1929 36.1929 30 50 30ZM50 33.75C38.2639 33.75 28.75 43.264 28.75 55C28.75 66.736 38.2639 76.25 50 76.25C61.736 76.25 71.25 66.736 71.25 55C71.25 43.264 61.736 33.75 50 33.75ZM50 58.752C56.6012 57.1805 61.2312 55.4711 66.9629 55.668C67.9816 55.7032 68.7686 56.5631 68.6748 57.5781C67.8164 66.8717 59.6756 74.375 50 74.375C41.0123 74.3748 33.414 67.9075 31.6406 59.6152C31.274 57.8995 33.4298 56.9456 34.9932 57.7422C38.3876 59.4722 43.2983 60.3473 50 58.752ZM62.2471 48.2158C62.7359 50.6571 62.0768 50.9238 62.0586 50.9307L42.002 57.9521C41.129 58.2578 40.2085 58.0498 39.5596 57.4824L51.0273 53.4678C53.3869 52.6416 56.5136 50.2234 58.873 49.3975L62.2471 48.2158ZM58.3408 40.3125C58.3408 40.3125 59.9344 41.0797 61.3799 45.209C61.6152 45.8813 61.8218 46.4714 61.9521 46.9951L58.46 48.2178C57.1622 48.6721 55.7118 49.5232 54.3008 50.335C53.0161 51.129 51.676 51.9163 50.6143 52.2881L38.8164 56.418C38.8077 56.3929 37.5853 52.8758 39.9365 52.0527C40.7387 51.7719 41.6381 51.3904 42.5518 50.8984C43.9345 51.3679 45.659 51.3744 47.4287 50.7549L47.7236 50.6514L45.0234 49.332C45.3909 49.0578 45.7378 48.7635 46.0811 48.458L49.124 49.9229C49.5509 49.6675 49.9301 49.3891 50.2656 49.0996L47.0244 47.5186C47.3079 47.1943 47.5795 46.874 47.8389 46.5186L51.1445 48.1289C51.4116 47.7574 51.6004 47.3874 51.749 47.0176L48.5156 45.4609C48.7079 45.1023 48.8916 44.7198 49.0479 44.334L52.0264 45.7676C52.0399 45.3524 52.018 44.9497 51.8818 44.5605C51.5308 43.5578 50.6862 42.8464 49.5967 42.4199C49.6185 42.2932 49.6522 42.1619 49.6699 42.0234L51.1562 40.4834C52.5473 41.2414 54.9013 41.305 57.4443 40.5869L57.5156 40.6016L58.3408 40.3125ZM24.375 10C22.6491 10 21.25 11.3991 21.25 13.125V22.5H78.75V13.125C78.75 11.3991 77.3509 10 75.625 10H24.375ZM40.7852 13.1289C42.4364 13.2125 43.75 14.578 43.75 16.25C43.75 17.9759 42.3509 19.375 40.625 19.375H26.875C25.1491 19.375 23.75 17.9759 23.75 16.25C23.75 14.578 25.0636 13.2125 26.7148 13.1289L26.875 13.125H40.625L40.7852 13.1289ZM73.2852 13.1289C74.9364 13.2125 76.25 14.578 76.25 16.25C76.25 17.9759 74.8509 19.375 73.125 19.375H59.375C57.6491 19.375 56.25 17.9759 56.25 16.25C56.25 14.578 57.5636 13.2125 59.2148 13.1289L59.375 13.125H73.125L73.2852 13.1289ZM50 13.75C51.3807 13.75 52.5 14.8693 52.5 16.25C52.5 17.6307 51.3807 18.75 50 18.75C48.6193 18.75 47.5 17.6307 47.5 16.25C47.5 14.8693 48.6193 13.75 50 13.75ZM26.875 15C26.1846 15 25.625 15.5596 25.625 16.25C25.625 16.9404 26.1846 17.5 26.875 17.5H40.625C41.3154 17.5 41.875 16.9404 41.875 16.25C41.875 15.5596 41.3154 15 40.625 15H26.875ZM59.375 15C58.6846 15 58.125 15.5596 58.125 16.25C58.125 16.9404 58.6846 17.5 59.375 17.5H73.125C73.8154 17.5 74.375 16.9404 74.375 16.25C74.375 15.5596 73.8154 15 73.125 15H59.375Z" fill="black"/>
</svg>
