<svg width="150" height="150" viewBox="0 0 150 150" fill="none" xmlns="http://www.w3.org/2000/svg">
<path d="M41 18C41 12.4772 45.4772 8 51 8H99C104.523 8 109 12.4772 109 18V132C109 137.523 104.523 142 99 142H51C45.4772 142 41 137.523 41 132V18Z" fill="white"/>
<path d="M107 18C107 13.5817 103.418 10 99 10H51C46.5817 10 43 13.5817 43 18V132C43 136.418 46.5817 140 51 140H99C103.418 140 107 136.418 107 132V18ZM111 132C111 138.627 105.627 144 99 144H51C44.3726 144 39 138.627 39 132V18C39 11.3726 44.3726 6 51 6H99C105.627 6 111 11.3726 111 18V132Z" fill="#2B54CA"/>
<rect x="73" y="13" width="4" height="4" rx="2" fill="#2B54CA"/>
<rect x="110" y="58" width="2" height="16" rx="1" fill="#2B54CA"/>
<rect x="110" y="44" width="2" height="10" rx="1" fill="#2B54CA"/>
<rect x="110" y="33" width="2" height="10" rx="1" fill="#2B54CA"/>
<path d="M89.416 61.0059C91.7258 61.1227 93.5624 63.0323 93.5625 65.3711V81.1084C93.5623 83.5224 91.6055 85.4795 89.1914 85.4795H72.5801L69.3223 88.5332C67.526 90.2168 64.5992 89.5669 63.6846 87.2812L62.9639 85.4795H61.2148L60.9902 85.4736C58.755 85.3604 56.9629 83.5682 56.8496 81.333L56.8438 81.1084V65.3711C56.8439 62.9571 58.8008 61.0001 61.2148 61H89.1914L89.416 61.0059ZM66.4609 70.6172C65.0124 70.6172 63.8379 71.7917 63.8379 73.2402C63.8382 74.6885 65.0126 75.8623 66.4609 75.8623C67.9091 75.8621 69.0827 74.6884 69.083 73.2402C69.083 71.7919 67.9093 70.6174 66.4609 70.6172ZM75.2031 70.6172C73.7547 70.6172 72.5803 71.7909 72.5801 73.2393C72.5802 74.6877 73.7547 75.8623 75.2031 75.8623C76.6515 75.8622 77.8251 74.6876 77.8252 73.2393C77.825 71.791 76.6514 70.6173 75.2031 70.6172ZM83.9473 70.6172C82.4989 70.6172 81.3244 71.7909 81.3242 73.2393C81.3244 74.6877 82.4988 75.8623 83.9473 75.8623C85.3956 75.8622 86.5692 74.6876 86.5693 73.2393C86.5691 71.791 85.3956 70.6173 83.9473 70.6172Z" fill="#2B54CA"/>
</svg>
