<?xml version="1.0" encoding="UTF-8"?>
<svg id="Layer_1" xmlns="http://www.w3.org/2000/svg" width="49.4mm" height="49.4mm" version="1.1" xmlns:xlink="http://www.w3.org/1999/xlink" viewBox="0 0 140 140">
  <!-- Generator: Adobe Illustrator 30.2.0, SVG Export Plug-In . SVG Version: 2.1.1 Build 105)  -->
  <defs>
    <style>
      .st0 {
        fill: url(#linear-gradient);
      }
    </style>
    <linearGradient id="linear-gradient" x1="70" y1="132.5" x2="70" y2="11.8" gradientTransform="translate(0 141.3) scale(1 -1)" gradientUnits="userSpaceOnUse">
      <stop offset="0" stop-color="#3368dd"/>
      <stop offset="1" stop-color="#2846a5"/>
    </linearGradient>
  </defs>
  <path class="st0" d="M105.9,8.8c5.3,0,9.6,4.3,9.6,9.6v103.2c0,4.3-3.5,7.9-7.9,7.9H32.4c-4.3,0-7.9-3.5-7.9-7.9V18.4c0-5.3,4.3-9.6,9.6-9.6h71.8ZM29.8,121.6c0,1.4,1.2,2.6,2.6,2.6h75.2c1.4,0,2.6-1.2,2.6-2.6V35H29.8v86.6ZM70,42c19.3,0,35,15.7,35,35s-15.7,35-35,35-35-15.7-35-35,15.7-35,35-35ZM70,47.3c-16.4,0-29.8,13.3-29.8,29.8s13.3,29.8,29.8,29.8,29.8-13.3,29.8-29.8-13.3-29.8-29.8-29.8ZM70,82.3c9.5-2.3,16.1-4.7,24.5-4.3,1,0,1.8.9,1.7,1.9-.8,13.3-12.4,24.2-26.2,24.2s-24.3-10-26-22.5c-.2-1.7,1.9-2.6,3.4-1.7,4.8,3,12.1,4.8,22.6,2.3ZM87.1,67.5c.7,3.4-.2,3.8-.3,3.8l-28.1,9.8c-1.2.4-2.5.1-3.4-.7l16.1-5.6c3.3-1.2,7.7-4.5,11-5.7l4.7-1.7ZM81.7,56.4s2.2,1.1,4.3,6.9c.3.9.6,1.8.8,2.5l-4.9,1.7c-1.8.6-3.8,1.8-5.8,3-1.8,1.1-3.7,2.2-5.2,2.7l-16.5,5.8s-1.7-5,1.6-6.1c1.1-.4,2.4-.9,3.7-1.6,1.9.7,4.3.7,6.8-.2h.4c0-.1-3.8-2-3.8-2,.5-.4,1-.8,1.5-1.2l4.3,2c.6-.4,1.1-.7,1.6-1.2l-4.5-2.2c.4-.5.8-.9,1.1-1.4l4.6,2.3c.4-.5.6-1,.8-1.6l-4.5-2.2c.3-.5.5-1,.7-1.6l4.2,2c0-.6,0-1.1-.2-1.7-.5-1.4-1.7-2.4-3.2-3,0-.2,0-.4.1-.6l2.1-2.2c1.9,1.1,5.2,1.1,8.8.1h0s1.2-.4,1.2-.4ZM34.1,14c-2.4,0-4.4,2-4.4,4.4v13.1h80.5v-13.1c0-2.4-2-4.4-4.4-4.4H34.1ZM57.1,18.4c2.3.1,4.2,2,4.2,4.4s-2,4.4-4.4,4.4h-19.2c-2.4,0-4.4-2-4.4-4.4s1.8-4.3,4.2-4.4h.2s19.2,0,19.2,0h.2ZM102.6,18.4c2.3.1,4.2,2,4.2,4.4s-2,4.4-4.4,4.4h-19.2c-2.4,0-4.4-2-4.4-4.4s1.8-4.3,4.2-4.4h.2s19.2,0,19.2,0h.2ZM70,19.3c1.9,0,3.5,1.6,3.5,3.5s-1.6,3.5-3.5,3.5-3.5-1.6-3.5-3.5,1.6-3.5,3.5-3.5ZM37.6,21c-1,0-1.8.8-1.8,1.8s.8,1.8,1.8,1.8h19.2c1,0,1.8-.8,1.8-1.8s-.8-1.8-1.8-1.8h-19.2ZM83.1,21c-1,0-1.8.8-1.8,1.8s.8,1.8,1.8,1.8h19.2c1,0,1.8-.8,1.8-1.8s-.8-1.8-1.8-1.8h-19.2Z"/>
  <metadata>
    <sfw xmlns="http://ns.adobe.com/SaveForWeb/1.0/">
      <slices/>
      <sliceSourceBounds x="24.5" y="10.5" width="91" height="120.75" bottomLeftOrigin="true"/>
    </sfw>
  </metadata>
</svg>