<svg width="60" height="60" viewBox="0 0 60 60" fill="none" xmlns="http://www.w3.org/2000/svg">
<path d="M42.7783 25.7783C43.8829 25.7783 44.7783 26.6738 44.7783 27.7783V47C44.7783 48.1046 43.8829 49 42.7783 49H35.7012V39.5C35.7012 36.352 33.149 33.7998 30.001 33.7998C26.853 33.7998 24.3008 36.352 24.3008 39.5V49H17.2227C16.1183 48.9998 15.2227 48.1044 15.2227 47V27.7783C15.2227 26.6739 16.1183 25.7786 17.2227 25.7783H42.7783Z" fill="#3D3D3D"/>
<path d="M28.7262 12.0522C29.4656 11.4415 30.5344 11.4415 31.2738 12.0522L48.7124 26.4581C50.1579 27.6521 49.3135 30 47.4386 30H12.5614C10.6865 30 9.84214 27.6521 11.2876 26.4581L28.7262 12.0522Z" fill="#3D3D3D"/>
</svg>
