<svg width="150" height="150" viewBox="0 0 150 150" fill="none" xmlns="http://www.w3.org/2000/svg">
<rect x="4" y="35" width="142" height="76" rx="3" fill="white" stroke="#2B54CA" stroke-width="4"/>
<rect x="15" y="88" width="47" height="4" rx="2" fill="#2B54CA"/>
<rect x="15" y="95" width="30" height="4" rx="2" fill="#2B54CA"/>
<ellipse cx="113" cy="90.5" rx="10" ry="9.5" fill="#2B54CA"/>
<circle cx="125.5" cy="90.5" r="8.5" fill="white" stroke="#2B54CA" stroke-width="2"/>
<rect x="14.5" y="52.5" width="21" height="15" rx="2.5" fill="#2B54CA" stroke="#2B54CA"/>
<path d="M21.5664 66.292V66.9004H16.5684C16.4939 66.9003 16.4148 66.8728 16.3301 66.8203C16.2453 66.7677 16.1604 66.6933 16.0752 66.6084C15.9898 66.5233 15.9087 66.4315 15.8281 66.3438C15.812 66.3262 15.7954 66.3092 15.7793 66.292H21.5664ZM34.2207 66.292C34.2046 66.3092 34.188 66.3262 34.1719 66.3438C34.0913 66.4315 34.0102 66.5233 33.9248 66.6084C33.8396 66.6933 33.7547 66.7677 33.6699 66.8203C33.5852 66.8728 33.5061 66.9003 33.4316 66.9004H28.4336V66.292H34.2207ZM27.8408 66.1787V66.9004H22.1592V66.1016L24.9551 63.6797L27.8408 66.1787ZM28.5869 62.7197C28.806 62.9303 29.1083 63.0655 29.4443 63.0811V63.082H29.4473L29.5078 63.083H34.9004V65.1221C34.9004 65.3435 34.8374 65.5513 34.7305 65.7354H28.1982L25.2871 63.2139C25.2908 63.1969 25.2959 63.1797 25.2959 63.1611V62.7266H28.5293C28.5493 62.7266 28.5685 62.7233 28.5869 62.7197ZM28.2334 57.7354V61.916L28.2354 61.9717V61.9736C28.2391 62.0407 28.2501 62.1063 28.2656 62.1699H25C24.8457 62.1699 24.7041 62.2858 24.7041 62.4482V63.1436L21.7129 65.7354H15.2695C15.1626 65.5513 15.0996 65.3435 15.0996 65.1221V63.083H20.4922L20.5527 63.082L20.5557 63.0811C21.2005 63.0512 21.7309 62.5792 21.7646 61.9736V61.9717L21.7666 61.916V57.7354H28.2334ZM28.8252 60.0361C28.856 60.0462 28.8886 60.0527 28.9219 60.0527H34.9004V62.5264H29.5098C29.1227 62.5263 28.8252 62.2429 28.8252 61.9131V60.0361ZM21.1748 61.9131C21.1748 62.2429 20.8773 62.5263 20.4902 62.5264H15.0996V60.0527H21.0781C21.1114 60.0527 21.144 60.0462 21.1748 60.0361V61.9131ZM29.5098 57.0215H34.9004V59.4961H28.9219C28.8887 59.4961 28.8559 59.5017 28.8252 59.5117V57.6348C28.8253 57.305 29.1228 57.0215 29.5098 57.0215ZM20.4854 57.0215L20.5615 57.0244V57.0254C20.9138 57.0581 21.1747 57.3255 21.1748 57.6348V59.5117C21.1441 59.5017 21.1113 59.4961 21.0781 59.4961H15.0996V57.0215H20.4854ZM34.8701 54.1699C34.8881 54.2528 34.9004 54.338 34.9004 54.4258V56.4658H29.5098C28.9863 56.4658 28.5357 56.7571 28.3398 57.1787H25.2959V56.7432C25.2959 56.7247 25.2918 56.7074 25.2881 56.6904L28.1982 54.1699H34.8701ZM21.7129 54.1699L24.7041 56.7607V57.1787H21.6602C21.4643 56.7571 21.0137 56.4658 20.4902 56.4658H15.0996V54.4258C15.0996 54.338 15.1119 54.2528 15.1299 54.1699H21.7129ZM27.8408 53.0996V53.7256L24.9551 56.2236L22.1592 53.8018V53.0996H27.8408ZM33.4316 53.0996C33.9049 53.0997 34.3223 53.3029 34.5898 53.6133H28.4336V53.0996H33.4316ZM16.5684 53.0996H21.5664V53.6133H15.4102C15.6777 53.3029 16.0951 53.0997 16.5684 53.0996Z" fill="#F6F6F6" stroke="#2B54CA" stroke-width="0.2"/>
</svg>
