<svg width="100" height="100" viewBox="0 0 100 100" fill="none" xmlns="http://www.w3.org/2000/svg">
<rect x="20" y="8.57129" width="60" height="80.7143" fill="white"/>
<path d="M75.625 6.25C79.422 6.25 82.5 9.32804 82.5 13.125V86.875C82.5 89.9816 79.9816 92.5 76.875 92.5H23.125C20.0184 92.5 17.5 89.9816 17.5 86.875V13.125C17.5 9.32804 20.578 6.25 24.375 6.25H75.625ZM21.25 86.875C21.25 87.9105 22.0895 88.75 23.125 88.75H76.875C77.9105 88.75 78.75 87.9105 78.75 86.875V25H21.25V86.875ZM50 30C63.8071 30 75 41.1929 75 55C75 68.8071 63.8071 80 50 80C36.1929 80 25 68.8071 25 55C25 41.1929 36.1929 30 50 30ZM50 33.75C38.2639 33.75 28.75 43.264 28.75 55C28.75 66.736 38.2639 76.25 50 76.25C61.736 76.25 71.25 66.736 71.25 55C71.25 43.264 61.736 33.75 50 33.75ZM56.7861 53.5449L61.083 55.2871C62.0751 55.6894 62.5743 56.8018 62.2158 57.8105L60.9912 61.2559C60.6354 62.257 59.559 62.805 58.54 62.5039L56.7861 61.9863V70.5C56.7861 71.6044 55.8905 72.4998 54.7861 72.5H45.2139C44.1095 72.4998 43.2139 71.6044 43.2139 70.5V61.9863L41.46 62.5039C40.441 62.805 39.3646 62.257 39.0088 61.2559L37.7842 57.8105C37.4257 56.8018 37.9249 55.6894 38.917 55.2871L43.2139 53.5449L45.4229 52.8574C46.1979 54.712 47.9557 56.0068 50 56.0068C52.0442 56.0068 53.801 54.7118 54.5762 52.8574L56.7861 53.5449ZM24.375 10C22.6491 10 21.25 11.3991 21.25 13.125V22.5H78.75V13.125C78.75 11.3991 77.3509 10 75.625 10H24.375ZM40.7852 13.1289C42.4364 13.2125 43.75 14.578 43.75 16.25C43.75 17.9759 42.3509 19.375 40.625 19.375H26.875C25.1491 19.375 23.75 17.9759 23.75 16.25C23.75 14.578 25.0636 13.2125 26.7148 13.1289L26.875 13.125H40.625L40.7852 13.1289ZM73.2852 13.1289C74.9364 13.2125 76.25 14.578 76.25 16.25C76.25 17.9759 74.8509 19.375 73.125 19.375H59.375C57.6491 19.375 56.25 17.9759 56.25 16.25C56.25 14.578 57.5636 13.2125 59.2148 13.1289L59.375 13.125H73.125L73.2852 13.1289ZM50 13.75C51.3807 13.75 52.5 14.8693 52.5 16.25C52.5 17.6307 51.3807 18.75 50 18.75C48.6193 18.75 47.5 17.6307 47.5 16.25C47.5 14.8693 48.6193 13.75 50 13.75ZM26.875 15C26.1846 15 25.625 15.5596 25.625 16.25C25.625 16.9404 26.1846 17.5 26.875 17.5H40.625C41.3154 17.5 41.875 16.9404 41.875 16.25C41.875 15.5596 41.3154 15 40.625 15H26.875ZM59.375 15C58.6846 15 58.125 15.5596 58.125 16.25C58.125 16.9404 58.6846 17.5 59.375 17.5H73.125C73.8154 17.5 74.375 16.9404 74.375 16.25C74.375 15.5596 73.8154 15 73.125 15H59.375Z" fill="black"/>
<path d="M49.9235 43.796C48.8356 41.9084 49.4005 39.5263 49.8189 38.5713C49.0867 39.0488 47.6014 40.4084 47.5177 42.0263C47.434 43.6443 48.25 45.1443 48.5637 45.8185L49.6097 48.0938C50.5302 50.5207 49.2959 52.7567 48.5637 53.5713C49.7352 52.7623 50.6557 51.7174 50.9695 51.296C51.89 49.678 51.7017 47.8129 51.4925 47.0825C51.4228 46.7735 51.0113 45.6836 49.9235 43.796Z" fill="black"/>
<path d="M49.9235 43.796C48.8356 41.9084 49.4005 39.5263 49.8189 38.5713C49.0867 39.0488 47.6014 40.4084 47.5177 42.0263C47.434 43.6443 48.25 45.1443 48.5637 45.8185L49.6097 48.0938C50.5302 50.5207 49.2959 52.7567 48.5637 53.5713C49.7352 52.7623 50.6557 51.7174 50.9695 51.296C51.89 49.678 51.7017 47.8129 51.4925 47.0825C51.4228 46.7735 51.0113 45.6836 49.9235 43.796Z" fill="black"/>
<path d="M53.3035 43.8301C52.313 42.6158 52.416 40.9277 52.5913 40.2354C52.1385 40.6236 51.2678 41.6806 51.4073 42.8031C51.5468 43.9256 52.3 44.8945 52.6015 45.3342L53.6101 46.8192C54.5497 48.4189 53.9615 50.0601 53.5499 50.6807C54.2689 50.0286 54.7837 49.234 54.9513 48.9182C55.396 47.7284 55.0364 46.4573 54.801 45.9705C54.7145 45.763 54.2939 45.0444 53.3035 43.8301Z" fill="black"/>
<path d="M53.3035 43.8301C52.313 42.6158 52.416 40.9277 52.5913 40.2354C52.1385 40.6236 51.2678 41.6806 51.4073 42.8031C51.5468 43.9256 52.3 44.8945 52.6015 45.3342L53.6101 46.8192C54.5497 48.4189 53.9615 50.0601 53.5499 50.6807C54.2689 50.0286 54.7837 49.234 54.9513 48.9182C55.396 47.7284 55.0364 46.4573 54.801 45.9705C54.7145 45.763 54.2939 45.0444 53.3035 43.8301Z" fill="black"/>
<path d="M46.2556 45.3933C45.4159 44.3638 45.5032 42.9326 45.6518 42.3457C45.2679 42.6748 44.5297 43.5709 44.648 44.5226C44.7663 45.4743 45.4048 46.2957 45.6605 46.6685L46.5156 47.9275C47.3122 49.2838 46.8135 50.6752 46.4646 51.2014C47.0741 50.6485 47.5106 49.9749 47.6527 49.7071C48.0297 48.6984 47.7248 47.6207 47.5252 47.208C47.4519 47.0321 47.0953 46.4229 46.2556 45.3933Z" fill="black"/>
<path d="M46.2556 45.3933C45.4159 44.3638 45.5032 42.9326 45.6518 42.3457C45.2679 42.6748 44.5297 43.5709 44.648 44.5226C44.7663 45.4743 45.4048 46.2957 45.6605 46.6685L46.5156 47.9275C47.3122 49.2838 46.8135 50.6752 46.4646 51.2014C47.0741 50.6485 47.5106 49.9749 47.6527 49.7071C48.0297 48.6984 47.7248 47.6207 47.5252 47.208C47.4519 47.0321 47.0953 46.4229 46.2556 45.3933Z" fill="black"/>
</svg>
