<svg width="150" height="150" viewBox="0 0 150 150" fill="none" xmlns="http://www.w3.org/2000/svg">
<path d="M54.4737 20C76.2744 20 93.9474 26.332 93.9474 34.1429V89.1429C93.9474 96.9537 76.2744 103.286 54.4737 103.286C32.673 103.286 15 96.9537 15 89.1429V34.1429C15 26.332 32.673 20 54.4737 20Z" fill="white"/>
<path d="M89.2105 89.1429V34.1429C89.2105 34.1005 89.2003 33.4351 87.775 32.2277C86.3686 31.0364 84.0538 29.7511 80.7807 28.5784C74.2747 26.2474 64.9744 24.7143 54.4737 24.7143C43.973 24.7143 34.6727 26.2474 28.1666 28.5784C24.8936 29.7511 22.5788 31.0364 21.1724 32.2277C19.747 33.4351 19.7368 34.1005 19.7368 34.1429V89.1429C19.7368 89.1852 19.747 89.8507 21.1724 91.058C22.5788 92.2493 24.8936 93.5346 28.1666 94.7073C34.6727 97.0383 43.973 98.5714 54.4737 98.5714V103.286C32.673 103.286 15 96.9537 15 89.1429V34.1429C15 26.332 32.673 20 54.4737 20C76.2744 20 93.9474 26.332 93.9474 34.1429V89.1429C93.9474 96.9537 76.2744 103.286 54.4737 103.286V98.5714C64.9744 98.5714 74.2747 97.0383 80.7807 94.7073C84.0538 93.5346 86.3686 92.2493 87.775 91.058C89.2003 89.8507 89.2105 89.1852 89.2105 89.1429Z" fill="black"/>
<path d="M93.9474 86.0006C93.9474 95.5472 76.2744 103.286 54.4737 103.286C32.673 103.286 15 95.5472 15 86.0006C15 76.4539 32.673 68.7148 54.4737 68.7148C76.2744 68.7148 93.9474 76.4539 93.9474 86.0006Z" fill="white"/>
<path d="M89.2105 86.0006C89.2105 85.1643 88.8441 84.0014 87.4311 82.5385C85.9957 81.0524 83.6911 79.4996 80.4785 78.0928C74.0662 75.2848 64.8756 73.4291 54.4737 73.4291C44.0718 73.4291 34.8812 75.2848 28.4689 78.0928C25.2562 79.4996 22.9516 81.0524 21.5162 82.5385C20.1033 84.0014 19.7368 85.1643 19.7368 86.0006C19.7368 86.8368 20.1033 87.9998 21.5162 89.4626C22.9516 90.9487 25.2562 92.5015 28.4689 93.9083C34.8812 96.7163 44.0718 98.572 54.4737 98.572V103.286C32.673 103.286 15 95.5472 15 86.0006C15 76.4539 32.673 68.7148 54.4737 68.7148C76.2744 68.7148 93.9474 76.4539 93.9474 86.0006C93.9474 95.5472 76.2744 103.286 54.4737 103.286V98.572C64.8756 98.572 74.0662 96.7163 80.4785 93.9083C83.6911 92.5015 85.9957 90.9487 87.4311 89.4626C88.8441 87.9998 89.2105 86.8368 89.2105 86.0006Z" fill="black"/>
<path d="M93.9474 75.0006C93.9474 84.5472 76.2744 92.2863 54.4737 92.2863C32.673 92.2863 15 84.5472 15 75.0006C15 65.4539 32.673 57.7148 54.4737 57.7148C76.2744 57.7148 93.9474 65.4539 93.9474 75.0006Z" fill="white"/>
<path d="M89.2105 75.0006C89.2105 74.1643 88.8441 73.0014 87.4311 71.5385C85.9957 70.0524 83.6911 68.4996 80.4785 67.0928C74.0662 64.2848 64.8756 62.4291 54.4737 62.4291C44.0718 62.4291 34.8812 64.2848 28.4689 67.0928C25.2562 68.4996 22.9516 70.0524 21.5162 71.5385C20.1033 73.0014 19.7368 74.1643 19.7368 75.0006C19.7368 75.8368 20.1033 76.9998 21.5162 78.4626C22.9516 79.9487 25.2562 81.5015 28.4689 82.9083C34.8812 85.7163 44.0718 87.572 54.4737 87.572V92.2863C32.673 92.2863 15 84.5472 15 75.0006C15 65.4539 32.673 57.7148 54.4737 57.7148C76.2744 57.7148 93.9474 65.4539 93.9474 75.0006C93.9474 84.5472 76.2744 92.2863 54.4737 92.2863V87.572C64.8756 87.572 74.0662 85.7163 80.4785 82.9083C83.6911 81.5015 85.9957 79.9487 87.4311 78.4626C88.8441 76.9998 89.2105 75.8368 89.2105 75.0006Z" fill="black"/>
<path d="M93.9474 64.0006C93.9474 73.5472 76.2744 81.2863 54.4737 81.2863C32.673 81.2863 15 73.5472 15 64.0006C15 54.4539 32.673 46.7148 54.4737 46.7148C76.2744 46.7148 93.9474 54.4539 93.9474 64.0006Z" fill="white"/>
<path d="M89.2105 64.0006C89.2105 63.1643 88.8441 62.0014 87.4311 60.5385C85.9957 59.0524 83.6911 57.4996 80.4785 56.0928C74.0662 53.2848 64.8756 51.4291 54.4737 51.4291C44.0718 51.4291 34.8812 53.2848 28.4689 56.0928C25.2562 57.4996 22.9516 59.0524 21.5162 60.5385C20.1033 62.0014 19.7368 63.1643 19.7368 64.0006C19.7368 64.8368 20.1033 65.9998 21.5162 67.4626C22.9516 68.9487 25.2562 70.5015 28.4689 71.9083C34.8812 74.7163 44.0718 76.572 54.4737 76.572V81.2863C32.673 81.2863 15 73.5472 15 64.0006C15 54.4539 32.673 46.7148 54.4737 46.7148C76.2744 46.7148 93.9474 54.4539 93.9474 64.0006C93.9474 73.5472 76.2744 81.2863 54.4737 81.2863V76.572C64.8756 76.572 74.0662 74.7163 80.4785 71.9083C83.6911 70.5015 85.9957 68.9487 87.4311 67.4626C88.8441 65.9998 89.2105 64.8368 89.2105 64.0006Z" fill="black"/>
<path d="M93.9474 53.0006C93.9474 62.5472 76.2744 70.2863 54.4737 70.2863C32.673 70.2863 15 62.5472 15 53.0006C15 43.4539 32.673 35.7148 54.4737 35.7148C76.2744 35.7148 93.9474 43.4539 93.9474 53.0006Z" fill="white"/>
<path d="M89.2105 53.0006C89.2105 52.1643 88.8441 51.0014 87.4311 49.5385C85.9957 48.0524 83.6911 46.4996 80.4785 45.0928C74.0662 42.2848 64.8756 40.4291 54.4737 40.4291C44.0718 40.4291 34.8812 42.2848 28.4689 45.0928C25.2562 46.4996 22.9516 48.0524 21.5162 49.5385C20.1033 51.0014 19.7368 52.1643 19.7368 53.0006C19.7368 53.8368 20.1033 54.9998 21.5162 56.4626C22.9516 57.9487 25.2562 59.5015 28.4689 60.9083C34.8812 63.7163 44.0718 65.572 54.4737 65.572V70.2863C32.673 70.2863 15 62.5472 15 53.0006C15 43.4539 32.673 35.7148 54.4737 35.7148C76.2744 35.7148 93.9474 43.4539 93.9474 53.0006C93.9474 62.5472 76.2744 70.2863 54.4737 70.2863V65.572C64.8756 65.572 74.0662 63.7163 80.4785 60.9083C83.6911 59.5015 85.9957 57.9487 87.4311 56.4626C88.8441 54.9998 89.2105 53.8368 89.2105 53.0006Z" fill="black"/>
<path d="M93.9474 42.0006C93.9474 51.5472 76.2744 59.2863 54.4737 59.2863C32.673 59.2863 15 51.5472 15 42.0006C15 32.4539 32.673 24.7148 54.4737 24.7148C76.2744 24.7148 93.9474 32.4539 93.9474 42.0006Z" fill="white"/>
<path d="M89.2105 42.0006C89.2105 41.1643 88.8441 40.0014 87.4311 38.5385C85.9957 37.0524 83.6911 35.4996 80.4785 34.0928C74.0662 31.2848 64.8756 29.4291 54.4737 29.4291C44.0718 29.4291 34.8812 31.2848 28.4689 34.0928C25.2562 35.4996 22.9516 37.0524 21.5162 38.5385C20.1033 40.0014 19.7368 41.1643 19.7368 42.0006C19.7368 42.8368 20.1033 43.9998 21.5162 45.4626C22.9516 46.9487 25.2562 48.5015 28.4689 49.9083C34.8812 52.7163 44.0718 54.572 54.4737 54.572V59.2863C32.673 59.2863 15 51.5472 15 42.0006C15 32.4539 32.673 24.7148 54.4737 24.7148C76.2744 24.7148 93.9474 32.4539 93.9474 42.0006C93.9474 51.5472 76.2744 59.2863 54.4737 59.2863V54.572C64.8756 54.572 74.0662 52.7163 80.4785 49.9083C83.6911 48.5015 85.9957 46.9487 87.4311 45.4626C88.8441 43.9998 89.2105 42.8368 89.2105 42.0006Z" fill="black"/>
<path d="M93.9474 34.1429C93.9474 41.9537 76.2744 48.2857 54.4737 48.2857C32.673 48.2857 15 41.9537 15 34.1429C15 26.332 32.673 20 54.4737 20C76.2744 20 93.9474 26.332 93.9474 34.1429Z" fill="white"/>
<path d="M89.2105 34.1429C89.2105 34.1005 89.2003 33.4351 87.775 32.2277C86.3686 31.0364 84.0538 29.7511 80.7807 28.5784C74.2747 26.2474 64.9744 24.7143 54.4737 24.7143C43.973 24.7143 34.6727 26.2474 28.1666 28.5784C24.8936 29.7511 22.5788 31.0364 21.1724 32.2277C19.747 33.4351 19.7368 34.1005 19.7368 34.1429C19.7368 34.1852 19.747 34.8507 21.1724 36.058C22.5788 37.2493 24.8936 38.5346 28.1666 39.7073C34.6727 42.0383 43.973 43.5714 54.4737 43.5714V48.2857C32.673 48.2857 15 41.9537 15 34.1429C15 26.332 32.673 20 54.4737 20C76.2744 20 93.9474 26.332 93.9474 34.1429C93.9474 41.9537 76.2744 48.2857 54.4737 48.2857V43.5714C64.9744 43.5714 74.2747 42.0383 80.7807 39.7073C84.0538 38.5346 86.3686 37.2493 87.775 36.058C89.2003 34.8507 89.2105 34.1852 89.2105 34.1429Z" fill="black"/>
<path d="M55.1242 36.3908L60.939 38.56C62.2521 39.0498 62.2446 39.8237 60.9223 40.2885C59.6001 40.7533 57.4637 40.733 56.1506 40.2431L39.9609 34.2035C37.5112 33.2896 37.5251 31.8459 39.9919 30.9789L45.8188 28.9307C48.4247 28.0148 51.0644 27.5913 53.7378 27.6603C56.0879 27.7188 58.3338 28.1475 60.4756 28.9465C62.9814 29.8813 64.2138 30.8603 64.1727 31.8835C64.134 32.7816 63.1157 33.5818 61.1179 34.284L55.1242 36.3908ZM49.6941 34.3651C50.5107 34.6697 51.8392 34.6823 52.6614 34.3933L55.6353 33.348C58.1543 32.4626 58.268 31.5924 55.9763 30.7375C53.6632 29.8746 51.2471 29.8858 48.728 30.7713L45.7542 31.8166C44.9319 32.1056 44.9273 32.5868 45.7439 32.8914L49.6941 34.3651Z" fill="black"/>
<path d="M134.999 87.5711C134.999 111.004 115.913 130 92.3679 130C68.8231 130 49.7363 111.004 49.7363 87.5711C49.7363 64.1385 68.8231 45.1426 92.3679 45.1426C115.913 45.1426 134.999 64.1385 134.999 87.5711Z" fill="white"/>
<path d="M130.263 87.5711C130.263 66.7421 113.297 49.8569 92.3679 49.8569C71.4392 49.8569 54.4732 66.7421 54.4732 87.5711C54.4732 108.4 71.4392 125.285 92.3679 125.285V130C68.8231 130 49.7363 111.004 49.7363 87.5711C49.7363 64.1385 68.8231 45.1426 92.3679 45.1426C115.913 45.1426 134.999 64.1385 134.999 87.5711C134.999 111.004 115.913 130 92.3679 130V125.285C113.297 125.285 130.263 108.4 130.263 87.5711Z" fill="black"/>
<path d="M86.6447 95.0209V106.429C86.6447 108.165 85.2308 109.572 83.4868 109.572H81.3161C79.572 109.572 78.1582 108.165 78.1582 106.429V73.4291C78.1582 70.8255 80.279 68.7148 82.895 68.7148H96.4013C101.02 68.7148 104.464 69.9512 106.735 72.4239C108.736 74.5923 109.737 77.5786 109.737 81.3828C109.737 85.8338 108.467 89.2956 105.927 91.7683C103.695 93.9367 100.808 95.0209 97.2672 95.0209H86.6447ZM86.6447 86.4307C86.6447 87.2986 87.3516 88.0022 88.2236 88.0022H94.5539C99.0184 88.0022 101.251 85.9669 101.251 81.8964C101.251 77.7879 99.0184 75.7336 94.5539 75.7336H88.2236C87.3516 75.7336 86.6447 76.4371 86.6447 77.305V86.4307Z" fill="black"/>
</svg>
