<svg width="60" height="60" viewBox="0 0 60 60" fill="none" xmlns="http://www.w3.org/2000/svg">
<path d="M5.5625 30.2506C5.5625 16.6157 16.6157 5.5625 30.2506 5.5625C40.3765 5.56275 49.0757 11.6601 52.8825 20.3739C53.5043 21.7973 52.8538 23.4563 51.4304 24.0781C50.0073 24.6994 48.3498 24.0491 47.728 22.6261C44.7843 15.8878 38.0617 11.1877 30.2506 11.1875C19.7224 11.1875 11.1875 19.7223 11.1875 30.2506C11.1878 40.7786 19.7226 49.3119 30.2506 49.3119C39.8036 49.3116 47.7197 42.2812 49.0995 33.1125C49.3308 31.5767 50.7625 30.5194 52.2983 30.7505C53.8342 30.9816 54.8914 32.4135 54.6604 33.9493C52.8727 45.8285 42.629 54.9366 30.2506 54.9369C16.616 54.9369 5.56283 43.8852 5.5625 30.2506Z" fill="#3D3D3D"/>
<path d="M49.0164 18.7664L53.4764 14.3064C54.1309 13.6519 55.25 14.1154 55.25 15.041V23.9611C55.25 24.5349 54.7849 25 54.2111 25H45.291C44.3654 25 43.9019 23.8809 44.5564 23.2264L49.0164 18.7664Z" fill="#3D3D3D"/>
<path d="M23.9668 19.2344C24.5626 18.9045 25.2915 18.9243 25.8691 19.2852L40.8691 28.6611C41.4169 29.0038 41.7499 29.6038 41.75 30.25C41.75 30.8962 41.417 31.4971 40.8691 31.8398L25.8691 41.2148C25.2915 41.5758 24.5627 41.5965 23.9668 41.2666C23.3708 40.9362 23.0002 40.3074 23 39.626V20.875L23.0166 20.6221C23.0955 20.0409 23.4454 19.5235 23.9668 19.2344Z" fill="#3D3D3D"/>
</svg>
