<svg width="150" height="150" viewBox="0 0 150 150" fill="none" xmlns="http://www.w3.org/2000/svg">
<rect x="2" y="34" width="146" height="78" rx="3" fill="white" stroke="black" stroke-width="4"/>
<path d="M14.0306 93.6875V105H11.6712V95.9219H11.6087L9.015 97.5469V95.4688L11.8119 93.6875H14.0306ZM20.7262 105.156C17.8981 105.156 16.1794 103.047 16.1794 99.3438C16.1794 95.6406 17.8981 93.5312 20.7262 93.5312C23.5544 93.5312 25.2731 95.6562 25.2731 99.3438C25.2731 103.062 23.5544 105.156 20.7262 105.156ZM20.7262 103.219C22.0387 103.219 22.8825 101.953 22.8669 99.3438C22.8669 96.7656 22.0387 95.4531 20.7262 95.4531C19.4137 95.4531 18.5856 96.7656 18.5856 99.3438C18.57 101.953 19.4137 103.219 20.7262 103.219ZM30.9688 105.156C28.1406 105.156 26.4219 103.047 26.4219 99.3438C26.4219 95.6406 28.1406 93.5312 30.9688 93.5312C33.7969 93.5312 35.5156 95.6562 35.5156 99.3438C35.5156 103.062 33.7969 105.156 30.9688 105.156ZM30.9688 103.219C32.2812 103.219 33.125 101.953 33.1094 99.3438C33.1094 96.7656 32.2812 95.4531 30.9688 95.4531C29.6562 95.4531 28.8281 96.7656 28.8281 99.3438C28.8125 101.953 29.6562 103.219 30.9688 103.219ZM41.2113 105.156C38.3831 105.156 36.6644 103.047 36.6644 99.3438C36.6644 95.6406 38.3831 93.5312 41.2113 93.5312C44.0394 93.5312 45.7581 95.6562 45.7581 99.3438C45.7581 103.062 44.0394 105.156 41.2113 105.156ZM41.2113 103.219C42.5238 103.219 43.3675 101.953 43.3519 99.3438C43.3519 96.7656 42.5238 95.4531 41.2113 95.4531C39.8988 95.4531 39.0706 96.7656 39.0706 99.3438C39.055 101.953 39.8988 103.219 41.2113 103.219ZM51.4538 105.156C48.6256 105.156 46.9069 103.047 46.9069 99.3438C46.9069 95.6406 48.6256 93.5312 51.4538 93.5312C54.2819 93.5312 56.0006 95.6562 56.0006 99.3438C56.0006 103.062 54.2819 105.156 51.4538 105.156ZM51.4538 103.219C52.7663 103.219 53.61 101.953 53.5944 99.3438C53.5944 96.7656 52.7663 95.4531 51.4538 95.4531C50.1413 95.4531 49.3131 96.7656 49.3131 99.3438C49.2975 101.953 50.1413 103.219 51.4538 103.219Z" fill="black"/>
<path d="M145 32C147.761 32 150 34.2386 150 37V109C150 111.761 147.761 114 145 114H63V32H145ZM103 47C88.6406 47 77 58.6406 77 73C77 87.3594 88.6406 99 103 99C117.359 99 129 87.3594 129 73C129 58.6406 117.359 47 103 47Z" fill="black"/>
<path d="M97.0934 81L95.4472 74.0608H93V71.9392H94.9355L93.2892 65H96.3593L97.8053 71.9392H99.9633L101.565 65H104.435L106.037 71.9392H108.217L109.641 65H112.711L111.065 71.9392H113V74.0608H110.553L108.907 81H105.659L104.079 74.0608H101.943L100.341 81H97.0934ZM98.2503 74.0608L98.762 76.558H98.8954L99.4739 74.0608H98.2503ZM102.433 71.9392H103.59L103.056 69.6409H102.944L102.433 71.9392ZM106.526 74.0608L107.105 76.5801H107.238L107.772 74.0608H106.526Z" fill="black"/>
</svg>
