<svg width="160" height="160" viewBox="0 0 160 160" fill="none" xmlns="http://www.w3.org/2000/svg">
<path d="M73.4043 30.9403C76.7625 30.1223 80 32.6656 80 36.1219V122.713C79.9999 126.116 76.8561 128.648 73.5312 127.924L32.1973 118.915C29.7471 118.381 28 116.212 28 113.704V46.1903C28 43.731 29.6819 41.5907 32.0713 41.0087L73.4043 30.9403ZM69 74.9999C66.7909 74.9999 65.0001 77.2385 65 79.9999C65 82.7613 66.7909 84.9999 69 84.9999C71.2091 84.9999 73 82.7613 73 79.9999C72.9999 77.2385 71.2091 74.9999 69 74.9999Z" fill="white"/>
<path d="M33.3333 46.19V113.704L74.6667 122.712V36.1223L33.3333 46.19ZM80 122.712C80 126.009 77.0497 128.489 73.8424 127.982L73.5312 127.923L32.1979 118.915C29.824 118.398 28.1098 116.345 28.0052 113.937L28 113.704V46.19C28 43.8845 29.478 41.8591 31.6315 41.1354L32.0716 41.0078L73.4049 30.94C76.763 30.1224 80 32.6661 80 36.1223V122.712Z" fill="white"/>
<path d="M82.4294 86.3326C84.7676 77.6092 88.6418 71.1771 93.9474 67.1995C100.354 62.3976 108.777 61.1383 119.011 63.4464L121.835 52.9117C122.207 51.5234 124.068 51.2167 124.905 52.4056L144.444 80.1346C145.049 80.9936 144.733 82.1734 143.779 82.6146L112.992 96.8547C111.672 97.4653 110.214 96.2692 110.586 94.8809L113.388 84.4279C107.197 82.9422 102.322 82.5681 98.1774 83.2465C93.6996 83.98 90.0804 85.8995 86.0212 88.5548L84.7271 89.402C83.4136 90.2619 81.7005 89.0521 82.1034 87.549L82.4294 86.3326Z" fill="white"/>
<path d="M109.333 41.3334C111.542 41.3334 113.333 43.1242 113.333 45.3334V57.1635C111.283 56.985 109.281 56.9517 107.333 57.0687V47.3334H34V112.666H107.333V100.36C108.889 101.835 111.101 102.613 113.333 102.272V114.666C113.333 116.876 111.542 118.666 109.333 118.666H32C29.7909 118.666 28 116.876 28 114.666V45.3334C28 43.1242 29.7909 41.3334 32 41.3334H109.333ZM113.333 96.7006L112.992 96.8588L112.743 96.9525C111.497 97.3192 110.238 96.1865 110.586 94.8851L113.333 84.6351V96.7006ZM107.333 62.4105C109.243 62.275 111.243 62.3104 113.333 62.517V84.4193C111.182 83.9048 109.19 83.5258 107.333 83.2777V62.4105Z" fill="white"/>
</svg>
