<svg width="340" height="59" viewBox="0 0 340 59" fill="none" xmlns="http://www.w3.org/2000/svg">
<path d="M10.5358 48.2073H36.8752V59H0V0H10.5358V48.2073Z" fill="#E7E7E7"/>
<path d="M43.1934 0H53.7291V59H43.1934V0Z" fill="#E7E7E7"/>
<path d="M162.25 10.7927H136.342C135.134 10.7927 134.155 11.7991 134.155 13.0405V16.4731C134.155 17.3484 134.649 18.144 135.422 18.5123L156.76 28.6819C160.108 30.2777 162.25 33.7255 162.25 37.5183V51.1327C162.25 55.4777 158.823 59 154.594 59H123.619V48.2073H149.527C150.735 48.2073 151.715 47.2009 151.715 45.9595V39.5291C151.715 38.6509 151.217 37.8532 150.44 37.4865L129.141 27.4301C125.776 25.8413 123.619 22.3844 123.619 18.5791V7.86729C123.619 3.5223 127.047 0 131.275 0H162.25V10.7927Z" fill="#E7E7E7"/>
<path d="M85.8633 29.5L89.1235 38.71L92.3604 29.5L100.843 4.05172C101.651 1.62811 103.868 0 106.362 0H114.378C115.989 0 117.295 1.34183 117.295 2.99706V59H106.759V19.4908L94.3492 56.7209C93.8948 58.0842 92.6475 59 91.2452 59H86.9785C85.5762 59 84.3289 58.0842 83.8744 56.7209L72.3424 22.125V59H61.8066V2.99707C61.8066 1.34184 63.1124 0 64.7232 0H71.8622C74.3552 0 76.5726 1.62811 77.3805 4.05171L85.8633 29.5Z" fill="#E7E7E7"/>
<path d="M226.775 53.6037H240.123V59H221.436V29.5H226.775V53.6037Z" fill="#E7E7E7"/>
<path d="M290.591 53.6037V59H285.252V29.5H290.591V53.6037Z" fill="#E7E7E7"/>
<path d="M322.11 29.5C323.506 29.5 324.781 30.303 325.396 31.5701L333.911 49.11V29.5H339.25V57.5195C339.25 58.3372 338.595 59 337.786 59H335.452C334.048 59 332.768 58.1879 332.156 56.9098L324.089 40.036V59H318.75V30.9805C318.75 30.1628 319.405 29.5 320.214 29.5H322.11Z" fill="#E7E7E7"/>
<path d="M276.488 53.6037V59H271.149V34.8313L264.451 34.8341V29.5014L271.149 29.5H276.488H283.137V34.8313H276.488V53.6037Z" fill="#E7E7E7"/>
<path d="M193.581 34.8963H180.772C180.199 34.8963 179.734 35.3795 179.734 35.9756V37.766C179.734 38.1858 179.968 38.5674 180.334 38.7445L190.979 43.8913C192.566 44.6587 193.581 46.3127 193.581 48.1317V55.2226C193.581 57.3088 191.953 59 189.946 59H174.541V53.6037H187.35C187.923 53.6037 188.388 53.1205 188.388 52.5244V49.235C188.388 48.8138 188.152 48.4311 187.784 48.2548L177.158 43.1649C175.563 42.4009 174.541 40.7426 174.541 38.9175V33.2774C174.541 31.1912 176.168 29.5 178.176 29.5H193.581V34.8963Z" fill="#E7E7E7"/>
<path d="M210.211 53.4482V59H204.808V53.4482H210.211ZM212.773 50.8574V37.6426C212.773 36.2117 211.626 35.0518 210.211 35.0518H204.808C203.393 35.0518 202.246 36.2117 202.246 37.6426V50.8574C202.246 52.2882 203.393 53.4482 204.808 53.4482V59L204.601 58.9975C200.318 58.8879 196.867 55.3976 196.758 51.0674L196.756 50.8574V37.6426C196.756 33.1456 200.361 29.5 204.808 29.5H210.211C214.659 29.5 218.264 33.1456 218.264 37.6426V50.8574L218.261 51.0674C218.153 55.3976 214.701 58.8879 210.419 58.9975L210.211 59V53.4482C211.626 53.4482 212.773 52.2882 212.773 50.8574Z" fill="#E7E7E7"/>
<path d="M307.524 53.4482V59H302.121V53.4482H307.524ZM310.086 50.8574V37.6426C310.086 36.2117 308.939 35.0518 307.524 35.0518H302.121C300.706 35.0518 299.559 36.2117 299.559 37.6426V50.8574C299.559 52.2882 300.706 53.4482 302.121 53.4482V59L301.913 58.9975C297.631 58.8879 294.179 55.3976 294.071 51.0674L294.068 50.8574V37.6426C294.068 33.1456 297.674 29.5 302.121 29.5H307.524C311.971 29.5 315.576 33.1456 315.576 37.6426V50.8574L315.574 51.0674C315.465 55.3976 312.014 58.8879 307.731 58.9975L307.524 59V53.4482C308.939 53.4482 310.086 52.2882 310.086 50.8574Z" fill="#E7E7E7"/>
<path d="M247.375 50.8574L247.378 50.9908C247.447 52.3596 248.566 53.4482 249.937 53.4482H255.34C256.711 53.4482 257.83 52.3596 257.899 50.9908L257.902 50.8574V29.5H263.393V50.8574C263.393 55.3544 259.787 59 255.34 59H249.937C245.49 59 241.885 55.3544 241.885 50.8574V29.5H247.375V50.8574Z" fill="#E7E7E7"/>
</svg>
