<svg width="500" height="50" viewBox="0 0 500 50" fill="none" xmlns="http://www.w3.org/2000/svg">
<path d="M128.17 31.0599H122.68V42.0799C122.68 42.6699 122.95 42.9799 123.58 42.9799H145.58V39.4299H128.62C128.35 39.4299 128.17 39.2499 128.17 38.9799V31.0599ZM136.09 14.9099V11.3499H114.85V14.9099H136.09ZM144.69 7.47988H139.29V32.9899H144.69V7.47988ZM116.74 19.9499C116.74 24.9899 120.61 28.2699 125.47 28.2699C130.33 28.2699 134.2 24.9799 134.2 19.9499C134.2 14.9199 130.29 11.5799 125.47 11.5799C120.65 11.5799 116.74 14.9099 116.74 19.9499ZM122.64 11.8099H128.31V6.44988H122.64V11.7999V11.8099ZM143.34 20.5799H149.91V16.9299H143.34V20.5799ZM122.14 19.8599C122.14 16.8499 123.63 14.9099 125.47 14.9099C127.31 14.9099 128.76 16.8399 128.76 19.8599C128.76 22.8799 127.28 24.7699 125.47 24.7699C123.66 24.7699 122.14 22.8299 122.14 19.8599ZM173.3 43.4399H178.74V31.3799C178.74 30.7499 178.42 30.4799 177.84 30.4799H154.94V34.0299H172.85C173.12 34.0299 173.3 34.2099 173.3 34.4799V43.4299V43.4399ZM173.26 21.6999H178.71V8.91988C178.71 8.28988 178.48 8.01988 177.81 8.01988H154.46V11.5699H172.82C173.09 11.5699 173.27 11.7499 173.27 12.0199V21.6899L173.26 21.6999ZM151.66 24.5799H181.67V20.9299H151.66V24.5799ZM169.34 23.6399H163.99V31.3799H169.34V23.6399ZM282.92 38.0799H312.48V34.4399H282.92V38.0799ZM300.42 25.6199H294.97V35.3399H300.42V25.6199ZM308.56 27.4199C309.23 27.4199 309.46 27.1499 309.46 26.5199V8.33988H304.06V23.4099C304.06 23.6799 303.88 23.8599 303.61 23.8599H291.78C291.51 23.8599 291.33 23.6799 291.33 23.4099V8.33988H285.93V26.5199C285.93 27.1499 286.16 27.4199 286.83 27.4199H308.56ZM289.94 17.9699H305.55V14.3699H289.94V17.9699ZM273.96 7.47988H279.36V27.9099H273.96V7.47988ZM275.31 18.9099H267.75V15.3999H275.31V18.9099ZM379.62 7.47988H374.22V42.5299H379.62V7.47988ZM349.92 36.2399H375.66V32.5999H349.92V36.2399ZM407.56 32.9999H412.96V7.47988H407.56V32.9899V32.9999ZM403.33 11.8899V8.33988H384.7V11.8899H403.33ZM396.31 30.6099H390.82V42.0799C390.82 42.6699 391.09 42.9799 391.72 42.9799H413.72V39.4299H396.76C396.49 39.4299 396.31 39.2499 396.31 38.9799V30.6099ZM444.09 13.1099V9.77988H419.88V13.1099H444.09ZM422.72 16.4799C422.72 20.3099 426.82 22.8299 431.94 22.8299C437.06 22.8299 441.16 20.3099 441.16 16.4799C441.16 12.6499 436.97 10.0899 431.94 10.0899C426.91 10.0899 422.72 12.6099 422.72 16.4799ZM429.11 9.99988H434.78V5.99988H429.11V9.99988ZM428.08 16.2599C428.08 14.3699 429.79 13.1099 431.95 13.1099C434.11 13.1099 435.77 14.3699 435.77 16.2599C435.77 18.1499 434.06 19.3599 431.95 19.3599C429.84 19.3599 428.08 18.1499 428.08 16.2599ZM473.21 34.9299H478.61V7.47988H473.21V34.9299ZM474.56 28.2699H466.33V31.7799H474.56V28.2699ZM449.04 26.2499H471.04V22.6099H449.04V26.2499ZM462.32 25.1699H456.92V31.3799H462.32V25.1699ZM451.66 13.7399C451.66 18.1899 455.39 21.0799 460.03 21.0799C464.67 21.0799 468.45 18.1999 468.45 13.7399C468.45 9.27988 464.67 6.35988 460.03 6.35988C455.39 6.35988 451.66 9.28988 451.66 13.7399ZM457.05 13.7399C457.05 11.3599 458.35 9.86988 460.02 9.86988C461.69 9.86988 462.99 11.3599 462.99 13.7399C462.99 16.1199 461.69 17.5599 460.02 17.5599C458.35 17.5599 457.05 16.0799 457.05 13.7399ZM461.51 33.0899H456.02V42.0899C456.02 42.6799 456.29 42.9899 456.92 42.9899H479.37V39.4399H461.96C461.69 39.4399 461.51 39.2599 461.51 38.9899V33.0999V33.0899ZM217.63 26.7899H247.64V23.1399H217.63V26.7899ZM204.4 11.8899V8.33988H185.59V11.8899H204.4ZM213.85 7.47988H208.45V42.5299H213.85V7.47988ZM226.22 7.83988H220.78V18.8599C220.78 19.4899 221.01 19.7599 221.68 19.7599H245.35V16.1999H226.68C226.41 16.1999 226.23 16.0199 226.23 15.7499V7.83988H226.22ZM342.85 7.47988H337.45V42.5299H342.85V7.47988ZM341.5 20.1299H348.07V16.4799H341.5V20.1299ZM417.05 27.9599H447.06V24.3199H417.05V27.9599ZM270.54 23.0099C265.64 21.7499 262.98 18.1999 262.98 13.1999V10.4599H257.71V12.2599C257.71 19.9499 262.3 25.0799 270.53 26.6099V23.0099H270.54ZM250.11 27.0599C258.35 25.5299 262.89 20.3999 262.89 12.7099V11.3599H257.63V13.6499C257.63 18.6399 255.02 22.1999 250.11 23.4599V27.0599ZM269.51 11.8899V8.33988H251.33V11.8899H269.51ZM404.54 24.9399C399.5 23.8599 396.58 20.2199 396.58 15.0399V10.6799H391.32V14.0999C391.32 21.9699 396.18 27.1899 404.55 28.5399V24.9399H404.54ZM383.71 28.8999C391.94 27.3699 396.49 22.2399 396.49 14.5499V11.5799H391.22V15.4899C391.22 20.4799 388.61 24.0399 383.71 25.2999V28.8999ZM205.66 28.0899C200.62 27.0099 197.56 22.0099 197.56 16.8399V10.6799H192.3V15.8999C192.3 23.7699 197.29 30.3399 205.66 31.6899V28.0899ZM184.55 31.5999C192.78 30.0699 197.46 24.0399 197.46 16.3499V11.5799H192.2V17.2899C192.2 22.2799 189.46 26.7399 184.55 27.9999V31.5999ZM334.66 28.0899C329.62 27.0099 326.56 21.5699 326.56 16.3899V7.88988H321.3V15.4499C321.3 23.3199 326.29 30.3399 334.66 31.6899V28.0899ZM313.56 31.5999C321.79 30.0699 326.48 23.5899 326.48 15.8999V7.88988H321.21V16.8399C321.21 21.8299 318.47 26.7399 313.56 27.9999V31.5999ZM363.91 25.9799H358.51V33.7199H363.91V25.9799ZM371.61 14.9099V11.3499H350.82V14.9099H371.61ZM352.53 19.5399C352.53 24.3499 356.35 27.4599 361.21 27.4599C366.07 27.4599 369.9 24.3599 369.9 19.5399C369.9 14.7199 366.03 11.5799 361.21 11.5799C356.39 11.5799 352.53 14.7299 352.53 19.5399ZM358.38 11.8099H364.05V6.44988H358.38V11.7999V11.8099ZM357.93 19.4499C357.93 16.6199 359.33 14.9099 361.22 14.9099C363.11 14.9099 364.46 16.6199 364.46 19.4499C364.46 22.2799 363.07 23.9499 361.22 23.9499C359.37 23.9499 357.93 22.2399 357.93 19.4499ZM421.6 36.8199C421.6 41.2799 426.19 44.1999 431.95 44.1999C437.71 44.1999 442.3 41.2799 442.3 36.8199C442.3 32.3599 437.66 29.3999 431.95 29.3999C426.24 29.3999 421.6 32.3199 421.6 36.8199ZM427 36.8199C427 34.4799 429.29 32.8999 431.95 32.8999C434.61 32.8999 436.85 34.4799 436.85 36.8199C436.85 39.1599 434.56 40.6899 431.95 40.6899C429.34 40.6899 427 39.1599 427 36.8199ZM222.17 36.5999C222.17 41.1899 226.71 44.1999 232.52 44.1999C238.33 44.1999 242.87 41.1899 242.87 36.5999C242.87 32.0099 238.28 28.9499 232.52 28.9499C226.76 28.9499 222.17 31.9599 222.17 36.5999ZM227.57 36.5999C227.57 34.1199 229.77 32.4599 232.52 32.4599C235.27 32.4599 237.42 34.1199 237.42 36.5999C237.42 39.0799 235.22 40.6899 232.52 40.6899C229.82 40.6899 227.57 39.0699 227.57 36.5999ZM257.36 36.0599C257.36 41.0099 261.9 44.2099 267.44 44.2099C272.98 44.2099 277.61 41.0099 277.61 36.0599C277.61 31.1099 273.02 27.8699 267.44 27.8699C261.86 27.8699 257.36 31.1099 257.36 36.0599ZM262.76 36.0599C262.76 33.1799 264.87 31.3799 267.44 31.3799C270.01 31.3799 272.16 33.1799 272.16 36.0599C272.16 38.9399 270.04 40.6899 267.44 40.6899C264.84 40.6899 262.76 38.8899 262.76 36.0599Z" fill="#0067AF"/>
<path d="M43.127 31.4706V7.3905H50.5469V42.9901H42.5869L27.4668 18.9999V42.9901H19.9961V7.3905H27.917L43.127 31.4706ZM104.097 42.9901H95.8164L93.8164 37.2704H78.792L76.7363 42.9901H68.6865L82.4072 7.3905H90.5566L104.097 42.9901ZM65.4883 42.9803H57.5684V7.3905H65.4883V42.9803ZM80.877 31.4696H91.7881L86.4072 16.08L80.877 31.4696Z" fill="#243C7D"/>
</svg>
