<svg width="65" height="61" viewBox="0 0 65 61" fill="none" xmlns="http://www.w3.org/2000/svg">
<path d="M35.5098 38.1013C35.5098 39.7633 34.1625 41.1105 32.5005 41.1105C30.8385 41.1105 29.4912 39.7633 29.4912 38.1013L29.4912 20.7827C29.4912 19.1207 30.8385 17.7734 32.5005 17.7734C34.1625 17.7734 35.5098 19.1207 35.5098 20.7827L35.5098 38.1013Z" fill="#3368DD"/>
<path d="M35.5098 47.9275C35.5098 49.5895 34.1625 50.9368 32.5005 50.9368C30.8385 50.9368 29.4912 49.5895 29.4912 47.9275L29.4912 47.8047C29.4912 46.1427 30.8385 44.7954 32.5005 44.7954C34.1625 44.7954 35.5098 46.1427 35.5098 47.8047L35.5098 47.9275Z" fill="#3368DD"/>
<path d="M26.2721 3.7277C29.0543 -1.24257 35.9457 -1.24256 38.7279 3.7277L64.007 48.8855C66.811 53.8945 63.3433 60.1852 57.7785 60.1852H7.22149C1.65673 60.1852 -1.81096 53.8945 0.992962 48.8855L26.2721 3.7277ZM34.576 6.25117C33.6485 4.59459 31.3515 4.5946 30.424 6.25117L5.14551 51.4096C4.21087 53.0792 5.36657 55.1761 7.22149 55.1761H57.7785C59.6334 55.1761 60.7891 53.0792 59.8545 51.4096L34.576 6.25117Z" fill="#3368DD"/>
</svg>
