<svg width="30" height="30" viewBox="0 0 30 30" fill="none" xmlns="http://www.w3.org/2000/svg">
<mask id="path-1-inside-1_1493_20710" fill="white">
<path d="M2 5.4375C2 4.88521 2.44772 4.4375 3 4.4375H17.4375V26.375H3C2.44772 26.375 2 25.9273 2 25.375V5.4375Z"/>
</mask>
<path d="M2 5.4375C2 4.88521 2.44772 4.4375 3 4.4375H17.4375V26.375H3C2.44772 26.375 2 25.9273 2 25.375V5.4375Z" stroke="white" stroke-width="4" mask="url(#path-1-inside-1_1493_20710)"/>
<path d="M27 4.4375C27.5523 4.4375 28 4.88522 28 5.4375V25.375C27.9999 25.9272 27.5522 26.375 27 26.375H15V16.8467C15.5628 15.2754 15.8262 13.4235 15.8262 11.2949V8.00391H15V4.4375H27ZM17.7588 7.72852V23.6328H20.3145V16.2061H22.584V13.9482H20.3145V7.72852H17.7588Z" fill="white"/>
<path d="M17.167 26.1045H15V16.6924C15.5625 15.1408 15.8261 13.3125 15.8262 11.2109V7.96094H15V4.4375H17.167V26.1045ZM15 16.6924C13.9 19.7268 11.6514 21.7017 7.95898 22.5801V20.2139C11.6903 19.1246 13.2704 16.1632 13.2705 11.5176V10.1396H8.05957V7.96094H15V16.6924Z" fill="white"/>
</svg>
