<svg width="32" height="32" viewBox="0 0 32 32" fill="none" xmlns="http://www.w3.org/2000/svg">
<path d="M16 2C23.732 2 30 8.26801 30 16C30 23.732 23.732 30 16 30C8.26801 30 2 23.732 2 16C2 8.26801 8.26801 2 16 2ZM23.1348 10.3789C22.6944 10.3883 21.5818 10.7876 21.0693 10.9092C19.1023 11.3764 17.023 11.79 14.9883 11.6299C13.4944 11.5123 11.9788 11.176 10.5273 10.8232C10.093 10.7172 9.07217 10.3444 8.70117 10.3916C7.88223 10.4956 7.51268 11.7996 8.11914 12.3926C8.85144 13.1081 11.7065 13.6309 12.8037 14.0703C13.0773 14.18 13.3131 14.325 13.377 14.6328C13.5068 15.2592 13.2212 16.9122 13.1133 17.6152C12.741 20.0469 12.1713 22.4539 11.7793 24.8828C11.7736 25.4372 12.2617 25.9246 12.8037 25.9932C12.9618 26.0131 13.1526 25.9788 13.3154 25.9932C13.6409 25.874 13.8493 25.7801 14.041 25.4824C14.4538 24.8416 14.744 22.514 14.9482 21.6211C15.1304 20.8247 15.3445 19.7546 15.6699 19.0195C15.725 18.8942 15.9065 18.4698 16.084 18.6641C16.2985 18.8992 16.5135 19.6844 16.6104 20.0137C17.0735 21.5901 17.2684 23.2125 17.6631 24.7842C17.806 25.3537 18.0453 25.8459 18.668 25.9932H19.1797C19.7141 25.9255 20.21 25.4283 20.2041 24.8818C19.8145 22.5288 19.253 20.198 18.876 17.8438C18.7677 17.1699 18.4368 15.2312 18.6064 14.6719C18.6782 14.4355 18.9739 14.2945 19.1914 14.1992C20.4326 13.6571 21.9058 13.362 23.1533 12.8203C23.5807 12.6348 24.0885 12.334 24.168 11.8359C24.2656 11.2258 23.8318 10.3641 23.1348 10.3789ZM15.7158 6.01172C13.0246 6.31319 13.2316 10.4907 16.0918 10.3838C18.7769 10.2834 18.8803 6.30477 16.2676 6.01172C16.133 5.99648 15.8504 5.99648 15.7158 6.01172Z" fill="#262626"/>
</svg>
