<svg width="32" height="32" viewBox="0 0 32 32" fill="none" xmlns="http://www.w3.org/2000/svg">
<path d="M27.001 6C28.1055 6 29.001 6.89543 29.001 8V24C29.001 25.1046 28.1055 26 27.001 26H11.9619C11.3545 25.9999 10.7799 25.7234 10.4004 25.249L4.00098 17.249C3.41663 16.5186 3.41663 15.4814 4.00098 14.751L10.4004 6.75098C10.7799 6.27663 11.3545 6.0001 11.9619 6H27.001ZM22.6377 12.3633C22.2862 12.0118 21.7157 12.0118 21.3643 12.3633L19.001 14.7266L16.6377 12.3633C16.2862 12.0118 15.7157 12.0118 15.3643 12.3633C15.0128 12.7148 15.0128 13.2853 15.3643 13.6367L17.7275 16L15.3643 18.3633C15.0128 18.7148 15.0128 19.2852 15.3643 19.6367C15.7157 19.9881 16.2862 19.9882 16.6377 19.6367L19.001 17.2734L21.3643 19.6367C21.7157 19.9881 22.2862 19.9882 22.6377 19.6367C22.9891 19.2853 22.9891 18.7148 22.6377 18.3633L20.2744 16L22.6377 13.6367C22.9891 13.2853 22.9891 12.7148 22.6377 12.3633Z" fill="#3D3D3D"/>
</svg>
