<svg width="140" height="50" viewBox="0 0 140 50" fill="none" xmlns="http://www.w3.org/2000/svg">
<rect x="1" y="1.00024" width="138" height="48" fill="#E7E7E7" stroke="#BFBFBF" stroke-width="2"/>
<path d="M1 1.00024L139 49.0002" stroke="#BFBFBF" stroke-width="2" stroke-linecap="round" stroke-linejoin="round"/>
<path d="M1 49.0002L139 1.00024" stroke="#BFBFBF" stroke-width="2" stroke-linecap="round" stroke-linejoin="round"/>
<path d="M91.6491 33.1593C90.1719 33.1593 88.8757 32.8078 87.7607 32.1046C86.6527 31.4015 85.7862 30.4178 85.1612 29.1536C84.5433 27.8894 84.2344 26.4122 84.2344 24.7218C84.2344 23.0173 84.5433 21.5293 85.1612 20.258C85.7862 18.9867 86.6527 17.9995 87.7607 17.2964C88.8757 16.5933 90.1719 16.2417 91.6491 16.2417C93.1264 16.2417 94.419 16.5933 95.527 17.2964C96.642 17.9995 97.5085 18.9867 98.1264 20.258C98.7514 21.5293 99.0639 23.0173 99.0639 24.7218C99.0639 26.4122 98.7514 27.8894 98.1264 29.1536C97.5085 30.4178 96.642 31.4015 95.527 32.1046C94.419 32.8078 93.1264 33.1593 91.6491 33.1593ZM91.6491 30.9008C92.7713 30.9008 93.6946 30.6131 94.419 30.0379C95.1435 29.4626 95.6797 28.7062 96.0277 27.7687C96.3757 26.8312 96.5497 25.8156 96.5497 24.7218C96.5497 23.6281 96.3757 22.6089 96.0277 21.6643C95.6797 20.7197 95.1435 19.9562 94.419 19.3738C93.6946 18.7914 92.7713 18.5002 91.6491 18.5002C90.527 18.5002 89.6037 18.7914 88.8793 19.3738C88.1548 19.9562 87.6186 20.7197 87.2706 21.6643C86.9226 22.6089 86.7486 23.6281 86.7486 24.7218C86.7486 25.8156 86.9226 26.8312 87.2706 27.7687C87.6186 28.7062 88.1548 29.4626 88.8793 30.0379C89.6037 30.6131 90.527 30.9008 91.6491 30.9008Z" fill="#454545"/>
<path d="M73.3253 39.2957C72.1108 39.2957 71.0668 39.1394 70.1932 38.8269C69.3196 38.5215 68.5916 38.1167 68.0092 37.6124C67.4339 37.1153 66.9759 36.5826 66.6349 36.0144L68.6378 34.6082C68.8651 34.9065 69.1527 35.2474 69.5007 35.6309C69.8487 36.0215 70.3246 36.3589 70.9283 36.643C71.5391 36.9342 72.3381 37.0798 73.3253 37.0798C74.6463 37.0798 75.7365 36.7602 76.5959 36.121C77.4553 35.4818 77.8849 34.4803 77.8849 33.1167V29.7928H77.6719C77.4872 30.0911 77.2244 30.4604 76.8835 30.9008C76.5497 31.334 76.0668 31.7211 75.4347 32.062C74.8097 32.3958 73.9645 32.5627 72.8991 32.5627C71.5781 32.5627 70.392 32.2502 69.3409 31.6252C68.2969 31.0002 67.4695 30.0911 66.8587 28.8979C66.255 27.7048 65.9531 26.2559 65.9531 24.5514C65.9531 22.8752 66.2479 21.4157 66.8374 20.1728C67.4268 18.9228 68.2472 17.9569 69.2983 17.2751C70.3494 16.5862 71.5639 16.2417 72.9418 16.2417C74.0071 16.2417 74.8523 16.4193 75.4773 16.7744C76.1094 17.1224 76.5923 17.5201 76.9261 17.9676C77.267 18.4079 77.5298 18.7701 77.7145 19.0542H77.9702V16.4548H80.3991V33.2872C80.3991 34.6934 80.0795 35.8369 79.4403 36.7176C78.8082 37.6053 77.956 38.2552 76.8835 38.6671C75.8182 39.0862 74.6321 39.2957 73.3253 39.2957ZM73.2401 30.3042C74.2486 30.3042 75.1009 30.0734 75.7969 29.6117C76.4929 29.1501 77.022 28.486 77.3842 27.6195C77.7464 26.7531 77.9276 25.7161 77.9276 24.5087C77.9276 23.3298 77.75 22.2893 77.3949 21.3873C77.0398 20.4853 76.5142 19.7786 75.8182 19.2673C75.1222 18.7559 74.2628 18.5002 73.2401 18.5002C72.1747 18.5002 71.2869 18.7701 70.5767 19.3099C69.8736 19.8497 69.3445 20.5741 68.9893 21.4832C68.6413 22.3923 68.4673 23.4008 68.4673 24.5087C68.4673 25.6451 68.6449 26.6501 69 27.5237C69.3622 28.3901 69.8949 29.072 70.598 29.5691C71.3082 30.0592 72.1889 30.3042 73.2401 30.3042Z" fill="#454545"/>
<path d="M55.4675 33.1593C53.9902 33.1593 52.6941 32.8078 51.579 32.1046C50.4711 31.4015 49.6046 30.4178 48.9796 29.1536C48.3617 27.8894 48.0527 26.4122 48.0527 24.7218C48.0527 23.0173 48.3617 21.5293 48.9796 20.258C49.6046 18.9867 50.4711 17.9995 51.579 17.2964C52.6941 16.5933 53.9902 16.2417 55.4675 16.2417C56.9448 16.2417 58.2374 16.5933 59.3453 17.2964C60.4604 17.9995 61.3269 18.9867 61.9448 20.258C62.5698 21.5293 62.8823 23.0173 62.8823 24.7218C62.8823 26.4122 62.5698 27.8894 61.9448 29.1536C61.3269 30.4178 60.4604 31.4015 59.3453 32.1046C58.2374 32.8078 56.9448 33.1593 55.4675 33.1593ZM55.4675 30.9008C56.5897 30.9008 57.513 30.6131 58.2374 30.0379C58.9618 29.4626 59.498 28.7062 59.8461 27.7687C60.1941 26.8312 60.3681 25.8156 60.3681 24.7218C60.3681 23.6281 60.1941 22.6089 59.8461 21.6643C59.498 20.7197 58.9618 19.9562 58.2374 19.3738C57.513 18.7914 56.5897 18.5002 55.4675 18.5002C54.3453 18.5002 53.4221 18.7914 52.6976 19.3738C51.9732 19.9562 51.437 20.7197 51.089 21.6643C50.7409 22.6089 50.5669 23.6281 50.5669 24.7218C50.5669 25.8156 50.7409 26.8312 51.089 27.7687C51.437 28.7062 51.9732 29.4626 52.6976 30.0379C53.4221 30.6131 54.3453 30.9008 55.4675 30.9008Z" fill="#454545"/>
<path d="M44.2144 11.0001V32.8183H41.7002V11.0001H44.2144Z" fill="#454545"/>
</svg>
