<svg width="32" height="32" viewBox="0 0 32 32" fill="none" xmlns="http://www.w3.org/2000/svg">
<path d="M16 6C21.5228 6 26 10.4772 26 16C26 21.5228 21.5228 26 16 26C10.4772 26 6 21.5228 6 16C6 10.4772 10.4772 6 16 6ZM13.6042 19.8889C13.8028 20.8453 14.0686 21.6925 14.3805 22.3943C14.726 23.1717 15.0942 23.6977 15.4189 24.0067C15.7351 24.3076 15.9287 24.3333 16 24.3333C16.0713 24.3333 16.2649 24.3076 16.5811 24.0067C16.9058 23.6977 17.274 23.1717 17.6195 22.3943C17.9314 21.6925 18.1972 20.8453 18.3958 19.8889H13.6042ZM8.62858 19.8889C9.60649 21.7387 11.26 23.1755 13.2607 23.8716C12.6712 22.8311 12.2001 21.4634 11.9044 19.8889H8.62858ZM20.0956 19.8889C19.7999 21.4635 19.3283 22.831 18.7387 23.8716C20.7397 23.1755 22.3934 21.7388 23.3714 19.8889H20.0956ZM7.96723 13.7778C7.77193 14.4853 7.66667 15.2303 7.66667 16C7.66667 16.7697 7.77193 17.5147 7.96723 18.2222H11.6668C11.5947 17.5075 11.5556 16.7638 11.5556 16C11.5556 15.2362 11.5947 14.4925 11.6668 13.7778H7.96723ZM13.3421 13.7778C13.2648 14.4826 13.2222 15.2267 13.2222 16C13.2222 16.7733 13.2648 17.5174 13.3421 18.2222H18.6579C18.7352 17.5174 18.7778 16.7733 18.7778 16C18.7778 15.2267 18.7352 14.4826 18.6579 13.7778H13.3421ZM20.3332 13.7778C20.4053 14.4925 20.4444 15.2362 20.4444 16C20.4444 16.7638 20.4053 17.5075 20.3332 18.2222H24.0328C24.2281 17.5147 24.3333 16.7697 24.3333 16C24.3333 15.2303 24.2281 14.4853 24.0328 13.7778H20.3332ZM13.2607 8.12782C11.2599 8.82398 9.60651 10.2613 8.62858 12.1111H11.9044C12.2001 10.5364 12.6711 9.16845 13.2607 8.12782ZM16 7.66667C15.9287 7.66667 15.7351 7.69235 15.4189 7.99327C15.0942 8.30235 14.726 8.82833 14.3805 9.60569C14.0686 10.3075 13.8028 11.1547 13.6042 12.1111H18.3958C18.1972 11.1547 17.9314 10.3075 17.6195 9.60569C17.274 8.82833 16.9058 8.30235 16.5811 7.99327C16.2649 7.69235 16.0713 7.66667 16 7.66667ZM18.7387 8.12782C19.3284 9.16847 19.7999 10.5363 20.0956 12.1111H23.3714C22.3934 10.2611 20.7398 8.82391 18.7387 8.12782Z" fill="#d1d1d1"/>
</svg>
