<svg width="32" height="32" viewBox="0 0 32 32" fill="none" xmlns="http://www.w3.org/2000/svg">
<path d="M16.0518 7.28412C16.8006 6.64992 18 7.14666 18 8.09077V23.9101C17.9996 24.854 16.8005 25.35 16.0518 24.7158L11.0762 20.5H5C4.44772 20.5 4 20.0523 4 19.5V12.5C4 11.9477 4.44772 11.5 5 11.5H11.0762L16.0518 7.28412ZM23.3379 8.94038C23.9233 8.57457 24.6937 8.75249 25.0596 9.33784L25.4131 9.90132C27.8887 13.8623 27.7325 18.9255 25.0176 22.7265C24.6163 23.2881 23.8351 23.4186 23.2734 23.0175C22.7119 22.6163 22.5815 21.8351 22.9824 21.2734C25.1093 18.2958 25.2323 14.3295 23.293 11.2265L22.9404 10.6621C22.5747 10.0767 22.7527 9.3063 23.3379 8.94038ZM20.3379 11.9404C20.9233 11.5746 21.6937 11.7525 22.0596 12.3378L22.2363 12.6191C23.6082 14.8141 23.522 17.6202 22.0176 19.7265C21.6163 20.2881 20.8351 20.4186 20.2734 20.0175C19.7119 19.6163 19.5815 18.8351 19.9824 18.2734C20.8988 16.9904 20.9518 15.2813 20.1162 13.9443L19.9404 13.6621C19.5747 13.0767 19.7527 12.3063 20.3379 11.9404Z" fill="white"/>
</svg>
