<svg width="60" height="60" viewBox="0 0 60 60" fill="none" xmlns="http://www.w3.org/2000/svg">
<rect width="60" height="60" rx="30" fill="#454545"/>
<path d="M42.1797 13C42.8134 13 43.441 13.1254 44.0264 13.3682C44.6116 13.6109 45.1432 13.9666 45.5908 14.415C46.0385 14.8635 46.394 15.3957 46.6357 15.9814C46.8775 16.5673 47.0011 17.1954 47 17.8291V42.1738C47 44.8384 44.8443 46.9999 42.1797 47H17.832C16.5516 47 15.3229 46.4918 14.417 45.5869C13.5111 44.682 13.0014 43.4542 13 42.1738V17.8291C12.9997 17.1948 13.1245 16.5665 13.3672 15.9805C13.6099 15.3943 13.9663 14.8616 14.415 14.4131C14.8637 13.9646 15.3962 13.6087 15.9824 13.3662C16.5687 13.1237 17.1976 12.9994 17.832 13H42.1797ZM31.4277 17.5215C31.4317 15.3876 28.4043 15.3879 28.4043 17.4678V26.248L16.7783 33.5938V36.8203L28.5098 32.8184V39.3438L25.8301 41.5361V44.0859L30.0146 42.7354L34.2031 44.0859V41.5361L31.4854 39.3438V32.8184L43.2227 36.8203V33.5938L31.4277 26.2471V17.5215Z" fill="white"/>
</svg>
