<svg width="100" height="100" viewBox="0 0 100 100" fill="none" xmlns="http://www.w3.org/2000/svg">
<path d="M0 24.6654C0 22.8244 1.49238 21.332 3.33333 21.332H96.6667C98.5076 21.332 100 22.8244 100 24.6654V72.6654C100 74.5063 98.5076 75.9987 96.6667 75.9987H3.33334C1.49239 75.9987 0 74.5063 0 72.6654V24.6654Z" fill="white"/>
<path d="M96.6667 73.332V75.9987H3.33333V73.332H96.6667ZM97.3333 72.6654V24.6654C97.3333 24.2972 97.0349 23.9987 96.6667 23.9987H3.33333C2.96514 23.9987 2.66667 24.2972 2.66667 24.6654V72.6654C2.66667 73.0336 2.96514 73.332 3.33333 73.332V75.9987C1.54981 75.9987 0.0936859 74.598 0.00455729 72.8366L0 72.6654V24.6654C4.29518e-08 22.8244 1.49238 21.332 3.33333 21.332H96.6667L96.8379 21.3366C98.5993 21.4257 100 22.8818 100 24.6654V72.6654L99.9954 72.8366C99.9092 74.5412 98.5425 75.9079 96.8379 75.9941L96.6667 75.9987V73.332C97.0349 73.332 97.3333 73.0336 97.3333 72.6654Z" fill="black"/>
<path d="M34.3027 70.1055C32.4173 70.1055 31.2715 68.6992 31.2715 66.2305C31.2715 63.7617 32.4173 62.3555 34.3027 62.3555C36.1882 62.3555 37.334 63.7721 37.334 66.2305C37.334 68.7096 36.1882 70.1055 34.3027 70.1055ZM34.3027 68.8138C35.1777 68.8138 35.7402 67.9701 35.7298 66.2305C35.7298 64.5117 35.1777 63.6367 34.3027 63.6367C33.4277 63.6367 32.8757 64.5117 32.8757 66.2305C32.8652 67.9701 33.4277 68.8138 34.3027 68.8138Z" fill="black"/>
<path d="M27.4736 70.1055C25.5882 70.1055 24.4424 68.6992 24.4424 66.2305C24.4424 63.7617 25.5882 62.3555 27.4736 62.3555C29.359 62.3555 30.5049 63.7721 30.5049 66.2305C30.5049 68.7096 29.359 70.1055 27.4736 70.1055ZM27.4736 68.8138C28.3486 68.8138 28.9111 67.9701 28.9007 66.2305C28.9007 64.5117 28.3486 63.6367 27.4736 63.6367C26.5986 63.6367 26.0465 64.5117 26.0465 66.2305C26.0361 67.9701 26.5986 68.8138 27.4736 68.8138Z" fill="black"/>
<path d="M20.6455 70.1055C18.7601 70.1055 17.6143 68.6992 17.6143 66.2305C17.6143 63.7617 18.7601 62.3555 20.6455 62.3555C22.5309 62.3555 23.6768 63.7721 23.6768 66.2305C23.6768 68.7096 22.5309 70.1055 20.6455 70.1055ZM20.6455 68.8138C21.5205 68.8138 22.083 67.9701 22.0726 66.2305C22.0726 64.5117 21.5205 63.6367 20.6455 63.6367C19.7705 63.6367 19.2184 64.5117 19.2184 66.2305C19.208 67.9701 19.7705 68.8138 20.6455 68.8138Z" fill="black"/>
<path d="M13.8174 70.1055C11.932 70.1055 10.7861 68.6992 10.7861 66.2305C10.7861 63.7617 11.932 62.3555 13.8174 62.3555C15.7028 62.3555 16.8486 63.7721 16.8486 66.2305C16.8486 68.7096 15.7028 70.1055 13.8174 70.1055ZM13.8174 68.8138C14.6924 68.8138 15.2549 67.9701 15.2445 66.2305C15.2445 64.5117 14.6924 63.6367 13.8174 63.6367C12.9424 63.6367 12.3903 64.5117 12.3903 66.2305C12.3799 67.9701 12.9424 68.8138 13.8174 68.8138Z" fill="black"/>
<path d="M9.35352 62.457V69.9987H7.7806V63.9466H7.73893L6.00977 65.0299V63.6445L7.87435 62.457H9.35352Z" fill="black"/>
<path d="M96.6667 21.332C98.5076 21.332 100 22.8244 100 24.6654V72.6654C100 74.5063 98.5076 75.9987 96.6667 75.9987H42V21.332H96.6667ZM68.6667 31.332C59.0937 31.332 51.3333 39.0924 51.3333 48.6654C51.3333 58.2383 59.0937 65.9987 68.6667 65.9987C78.2396 65.9987 86 58.2383 86 48.6654C86 39.0924 78.2396 31.332 68.6667 31.332Z" fill="black"/>
<path d="M64.729 53.9987L63.6314 49.3725H62V47.9582H63.2903L62.1928 43.332H64.2395L65.2036 47.9582H66.6422L67.71 43.332H69.6233L70.6911 47.9582H72.1446L73.0938 43.332H75.1405L74.043 47.9582H75.3333V49.3725H73.7019L72.6044 53.9987H70.439L69.386 49.3725H67.9622L66.8943 53.9987H64.729ZM65.5002 49.3725L65.8413 51.0374H65.9303L66.3159 49.3725H65.5002ZM68.2885 47.9582H69.0597L68.7037 46.426H68.6296L68.2885 47.9582ZM71.0174 49.3725L71.403 51.0521H71.492L71.848 49.3725H71.0174Z" fill="black"/>
</svg>
