<svg width="100" height="100" viewBox="0 0 100 100" fill="none" xmlns="http://www.w3.org/2000/svg">
<rect x="20" y="8.57129" width="60" height="80.7143" fill="white"/>
<path d="M75.625 6.25C79.422 6.25 82.5 9.32804 82.5 13.125V86.875C82.5 89.9816 79.9816 92.5 76.875 92.5H23.125C20.0184 92.5 17.5 89.9816 17.5 86.875V13.125C17.5 9.32804 20.578 6.25 24.375 6.25H75.625ZM21.25 86.875C21.25 87.9105 22.0895 88.75 23.125 88.75H76.875C77.9105 88.75 78.75 87.9105 78.75 86.875V25H21.25V86.875ZM50 30C63.8071 30 75 41.1929 75 55C75 68.8071 63.8071 80 50 80C36.1929 80 25 68.8071 25 55C25 41.1929 36.1929 30 50 30ZM32.9873 42.2637C30.326 45.8128 28.75 50.2225 28.75 55C28.75 66.736 38.2639 76.25 50 76.25C61.736 76.25 71.25 66.736 71.25 55C71.25 50.2278 69.6764 45.8235 67.0205 42.2764C63.7705 44.9574 60.4228 46.6154 57.1309 47.5156C57.5897 47.6401 57.9998 47.757 58.3555 47.8887L57.5107 51.043C57.1966 52.2153 57.097 53.6963 56.9873 55.1289C56.9274 56.4608 56.8342 57.8299 56.5771 58.7891L53.7217 69.4463C53.7043 69.4416 50.5261 68.5837 51.0957 66.458C51.2899 65.7333 51.4591 64.8875 51.5547 63.9766C52.5847 63.2017 53.4466 61.9481 53.875 60.3496L53.9463 60.083L51.6406 61.3955C51.6233 60.9912 51.5824 60.5917 51.5303 60.1895L54.1113 58.6992C54.1374 58.2609 54.1234 57.8458 54.0791 57.457L51.3145 59.0352C51.258 58.8176 51.1992 58.6037 51.1348 58.3896L41.9863 66.3955C41.3719 66.9332 40.5493 67.0666 39.8311 66.8154L47.9023 59.7529C48.7398 59.0201 49.6032 57.891 50.4668 56.7656C50.3227 56.4991 50.1677 56.2294 49.998 55.9746L52.0518 54.7881C52.1637 54.6608 52.2754 54.5378 52.3867 54.4199C52.1331 54.2463 51.8699 54.1003 51.5723 54.0205C51.4837 53.9968 51.3947 53.9791 51.3057 53.9648C50.7157 54.6218 50.1303 55.3752 49.5527 56.1094C48.7618 57.1826 47.9231 58.2689 47.1758 58.9229L38.8721 66.1885C38.8721 66.1885 36.6928 63.6973 38.3535 62.2441C38.918 61.7502 39.529 61.142 40.1152 60.4385C41.4023 60.3679 42.816 59.8047 44.0615 58.7148L44.2695 58.5332L41.624 58.3418C41.8347 57.9962 42.0225 57.6406 42.2031 57.2773L45.1768 57.4756C45.4424 57.1258 45.6613 56.7725 45.8408 56.4248L42.666 56.1982C42.7916 55.8392 42.9084 55.4871 43.0039 55.1104L46.2412 55.3418C46.3377 54.9496 46.3701 54.5842 46.3701 54.2324L43.209 54.0215C43.2484 53.6644 43.2734 53.2903 43.2744 52.9229L46.1865 53.1172C46.0609 52.7726 45.9097 52.4498 45.6699 52.1758C45.0523 51.4702 44.1264 51.1664 43.0938 51.1758C43.0699 51.0647 43.0546 50.9455 43.0234 50.8262L43.7344 49.0752C44.7108 49.1897 45.963 48.8653 47.2627 48.168C47.1806 48.1575 47.0984 48.1489 47.0166 48.1377C41.0944 47.3244 36.0567 44.6578 32.9873 42.2637ZM59.3936 48.2803C61.4448 49.1498 61.2793 49.7686 61.2793 49.7686L56.4248 67.8857C56.2135 68.6744 55.6037 69.2426 54.8672 69.4336L57.6436 59.0742C58.2146 56.9427 58.0051 53.4596 58.5762 51.3281L59.3936 48.2803ZM52.8789 56.8633L53.8086 56.333C53.7824 56.261 53.7525 56.192 53.7236 56.124L52.8789 56.8633ZM50 33.75C44.4867 33.75 39.464 35.8498 35.6875 39.293C38.305 41.2704 42.5879 43.4918 47.5615 44.1748C52.7151 44.8824 58.6256 43.9489 64.3301 39.3096C60.5515 35.8567 55.5219 33.75 50 33.75ZM24.375 10C22.6491 10 21.25 11.3991 21.25 13.125V22.5H78.75V13.125C78.75 11.3991 77.3509 10 75.625 10H24.375ZM40.7852 13.1289C42.4364 13.2125 43.75 14.578 43.75 16.25C43.75 17.9759 42.3509 19.375 40.625 19.375H26.875C25.1491 19.375 23.75 17.9759 23.75 16.25C23.75 14.578 25.0636 13.2125 26.7148 13.1289L26.875 13.125H40.625L40.7852 13.1289ZM73.2852 13.1289C74.9364 13.2125 76.25 14.578 76.25 16.25C76.25 17.9759 74.8509 19.375 73.125 19.375H59.375C57.6491 19.375 56.25 17.9759 56.25 16.25C56.25 14.578 57.5636 13.2125 59.2148 13.1289L59.375 13.125H73.125L73.2852 13.1289ZM50 13.75C51.3807 13.75 52.5 14.8693 52.5 16.25C52.5 17.6307 51.3807 18.75 50 18.75C48.6193 18.75 47.5 17.6307 47.5 16.25C47.5 14.8693 48.6193 13.75 50 13.75ZM26.875 15C26.1846 15 25.625 15.5596 25.625 16.25C25.625 16.9404 26.1846 17.5 26.875 17.5H40.625C41.3154 17.5 41.875 16.9404 41.875 16.25C41.875 15.5596 41.3154 15 40.625 15H26.875ZM59.375 15C58.6846 15 58.125 15.5596 58.125 16.25C58.125 16.9404 58.6846 17.5 59.375 17.5H73.125C73.8154 17.5 74.375 16.9404 74.375 16.25C74.375 15.5596 73.8154 15 73.125 15H59.375Z" fill="black"/>
<path d="M75.625 6.25C79.422 6.25 82.5 9.32804 82.5 13.125V86.875C82.5 89.9816 79.9816 92.5 76.875 92.5H23.125C20.0184 92.5 17.5 89.9816 17.5 86.875V13.125C17.5 9.32804 20.578 6.25 24.375 6.25H75.625ZM21.25 86.875C21.25 87.9105 22.0895 88.75 23.125 88.75H76.875C77.9105 88.75 78.75 87.9105 78.75 86.875V25H21.25V86.875ZM50 30C63.8071 30 75 41.1929 75 55C75 68.8071 63.8071 80 50 80C36.1929 80 25 68.8071 25 55C25 41.1929 36.1929 30 50 30ZM32.9873 42.2637C30.326 45.8128 28.75 50.2225 28.75 55C28.75 66.736 38.2639 76.25 50 76.25C61.736 76.25 71.25 66.736 71.25 55C71.25 50.2278 69.6764 45.8235 67.0205 42.2764C63.7705 44.9574 60.4228 46.6154 57.1309 47.5156C57.5897 47.6401 57.9998 47.757 58.3555 47.8887L57.5107 51.043C57.1966 52.2153 57.097 53.6963 56.9873 55.1289C56.9274 56.4608 56.8342 57.8299 56.5771 58.7891L53.7217 69.4463C53.7043 69.4416 50.5261 68.5837 51.0957 66.458C51.2899 65.7333 51.4591 64.8875 51.5547 63.9766C52.5847 63.2017 53.4466 61.9481 53.875 60.3496L53.9463 60.083L51.6406 61.3955C51.6233 60.9912 51.5824 60.5917 51.5303 60.1895L54.1113 58.6992C54.1374 58.2609 54.1234 57.8458 54.0791 57.457L51.3145 59.0352C51.258 58.8176 51.1992 58.6037 51.1348 58.3896L41.9863 66.3955C41.3719 66.9332 40.5493 67.0666 39.8311 66.8154L47.9023 59.7529C48.7398 59.0201 49.6032 57.891 50.4668 56.7656C50.3227 56.4991 50.1677 56.2294 49.998 55.9746L52.0518 54.7881C52.1637 54.6608 52.2754 54.5378 52.3867 54.4199C52.1331 54.2463 51.8699 54.1003 51.5723 54.0205C51.4837 53.9968 51.3947 53.9791 51.3057 53.9648C50.7157 54.6218 50.1303 55.3752 49.5527 56.1094C48.7618 57.1826 47.9231 58.2689 47.1758 58.9229L38.8721 66.1885C38.8721 66.1885 36.6928 63.6973 38.3535 62.2441C38.918 61.7502 39.529 61.142 40.1152 60.4385C41.4023 60.3679 42.816 59.8047 44.0615 58.7148L44.2695 58.5332L41.624 58.3418C41.8347 57.9962 42.0225 57.6406 42.2031 57.2773L45.1768 57.4756C45.4424 57.1258 45.6613 56.7725 45.8408 56.4248L42.666 56.1982C42.7916 55.8392 42.9084 55.4871 43.0039 55.1104L46.2412 55.3418C46.3377 54.9496 46.3701 54.5842 46.3701 54.2324L43.209 54.0215C43.2484 53.6644 43.2734 53.2903 43.2744 52.9229L46.1865 53.1172C46.0609 52.7726 45.9097 52.4498 45.6699 52.1758C45.0523 51.4702 44.1264 51.1664 43.0938 51.1758C43.0699 51.0647 43.0546 50.9455 43.0234 50.8262L43.7344 49.0752C44.7108 49.1897 45.963 48.8653 47.2627 48.168C47.1806 48.1575 47.0984 48.1489 47.0166 48.1377C41.0944 47.3244 36.0567 44.6578 32.9873 42.2637ZM59.3936 48.2803C61.4448 49.1498 61.2793 49.7686 61.2793 49.7686L56.4248 67.8857C56.2135 68.6744 55.6037 69.2426 54.8672 69.4336L57.6436 59.0742C58.2146 56.9427 58.0051 53.4596 58.5762 51.3281L59.3936 48.2803ZM52.8789 56.8633L53.8086 56.333C53.7824 56.261 53.7525 56.192 53.7236 56.124L52.8789 56.8633ZM50 33.75C44.4867 33.75 39.464 35.8498 35.6875 39.293C38.305 41.2704 42.5879 43.4918 47.5615 44.1748C52.7151 44.8824 58.6256 43.9489 64.3301 39.3096C60.5515 35.8567 55.5219 33.75 50 33.75ZM24.375 10C22.6491 10 21.25 11.3991 21.25 13.125V22.5H78.75V13.125C78.75 11.3991 77.3509 10 75.625 10H24.375ZM40.7852 13.1289C42.4364 13.2125 43.75 14.578 43.75 16.25C43.75 17.9759 42.3509 19.375 40.625 19.375H26.875C25.1491 19.375 23.75 17.9759 23.75 16.25C23.75 14.578 25.0636 13.2125 26.7148 13.1289L26.875 13.125H40.625L40.7852 13.1289ZM73.2852 13.1289C74.9364 13.2125 76.25 14.578 76.25 16.25C76.25 17.9759 74.8509 19.375 73.125 19.375H59.375C57.6491 19.375 56.25 17.9759 56.25 16.25C56.25 14.578 57.5636 13.2125 59.2148 13.1289L59.375 13.125H73.125L73.2852 13.1289ZM50 13.75C51.3807 13.75 52.5 14.8693 52.5 16.25C52.5 17.6307 51.3807 18.75 50 18.75C48.6193 18.75 47.5 17.6307 47.5 16.25C47.5 14.8693 48.6193 13.75 50 13.75ZM26.875 15C26.1846 15 25.625 15.5596 25.625 16.25C25.625 16.9404 26.1846 17.5 26.875 17.5H40.625C41.3154 17.5 41.875 16.9404 41.875 16.25C41.875 15.5596 41.3154 15 40.625 15H26.875ZM59.375 15C58.6846 15 58.125 15.5596 58.125 16.25C58.125 16.9404 58.6846 17.5 59.375 17.5H73.125C73.8154 17.5 74.375 16.9404 74.375 16.25C74.375 15.5596 73.8154 15 73.125 15H59.375Z" fill="black"/>
</svg>
