<svg width="150" height="150" viewBox="0 0 150 150" fill="none" xmlns="http://www.w3.org/2000/svg">
<rect x="41" y="8" width="68" height="134" rx="10" fill="white" stroke="#13508C" stroke-width="4"/>
<rect x="73" y="13" width="4" height="4" rx="2" fill="#13508C"/>
<path d="M75 55C86.0457 55 95 63.9543 95 75C95 86.0457 86.0457 95 75 95C63.9543 95 55 86.0457 55 75C55 63.9543 63.9543 55 75 55ZM80.9092 64.2627C80.5823 63.9569 79.9053 63.9099 79.5039 64.1641C79.2098 64.3477 78.9395 64.8237 78.9395 65.1533C78.9399 65.2436 79.2006 65.8599 79.5225 66.5186C81.021 69.598 81.624 72.1691 81.624 75.4697C81.624 78.8836 80.9417 81.7 79.373 84.7607C78.9856 85.5188 78.9252 85.7074 78.9766 85.9805C79.056 86.3995 79.4298 86.837 79.7939 86.9453C79.9523 86.9923 80.1385 87.0118 80.2041 86.9932C80.2695 86.9743 80.3819 86.9551 80.4473 86.9551C80.7834 86.9549 81.1849 86.4036 81.8291 85.0664C82.8934 82.8535 83.5562 80.5888 83.8877 78.0557C84.0698 76.6807 84.0229 73.8361 83.7988 72.334C83.4347 69.909 82.7017 67.5777 81.6279 65.4541C81.3572 64.9174 81.0352 64.3804 80.9092 64.2627ZM76.54 66.5801C76.0779 66.1516 75.1907 66.2317 74.8359 66.7402C74.4625 67.277 74.4952 67.4796 75.1348 68.8027C76.0916 70.7707 76.4692 72.1175 76.6699 74.2549C76.9127 76.854 76.4135 79.5006 75.2139 81.9727C74.9291 82.5566 74.6633 83.1365 74.626 83.2637C74.4627 83.7816 74.8685 84.4778 75.4287 84.6426C76.2597 84.8874 76.8523 84.271 77.6973 82.2793C79.3359 78.3945 79.5321 74.142 78.2529 70.1865C77.8655 68.9908 76.8625 66.8778 76.54 66.5801ZM71.3486 68.5996C70.9706 68.5996 70.8536 68.6426 70.583 68.9014C70.0368 69.424 70.0504 69.6877 70.6992 71.0107C72.1745 74.0291 72.1601 77.0008 70.6475 80.0898C70.2368 80.9277 70.1488 81.1822 70.2002 81.4082C70.2843 81.7801 70.5824 82.1522 70.9277 82.3076C71.0818 82.3782 71.3434 82.4155 71.5068 82.4014C72.0436 82.3307 72.3099 82.0392 72.8467 80.9424C73.7803 79.026 74.1164 77.5988 74.1211 75.5225C74.1258 73.5024 73.7664 71.9241 72.8887 70.1064C72.3193 68.9251 71.9879 68.5997 71.3486 68.5996ZM68.4121 71.6934C67.908 70.9025 67.5343 70.6583 66.9883 70.7617C66.3441 70.8841 65.8626 71.5947 66.0352 72.1738C66.0772 72.3151 66.2545 72.6731 66.4365 72.9697C66.9687 73.8455 67.0908 74.3211 67.0908 75.4697C67.0908 76.6187 66.9687 77.0901 66.4365 77.9707C66.0259 78.6532 65.9423 78.9453 66.0449 79.3125C66.1383 79.6421 66.4511 80.0188 66.7266 80.1318C67.3288 80.3813 67.8986 80.0985 68.4121 79.3027C69.8637 77.0331 69.8639 73.9817 68.4121 71.6934Z" fill="url(#paint0_linear_373_4397)"/>
<path d="M75 55C86.0457 55 95 63.9543 95 75C95 86.0457 86.0457 95 75 95C63.9543 95 55 86.0457 55 75C55 63.9543 63.9543 55 75 55ZM80.9092 64.2627C80.5823 63.9569 79.9053 63.9099 79.5039 64.1641C79.2098 64.3477 78.9395 64.8237 78.9395 65.1533C78.9399 65.2436 79.2006 65.8599 79.5225 66.5186C81.021 69.598 81.624 72.1691 81.624 75.4697C81.624 78.8836 80.9417 81.7 79.373 84.7607C78.9856 85.5188 78.9252 85.7074 78.9766 85.9805C79.056 86.3995 79.4298 86.837 79.7939 86.9453C79.9523 86.9923 80.1385 87.0118 80.2041 86.9932C80.2695 86.9743 80.3819 86.9551 80.4473 86.9551C80.7834 86.9549 81.1849 86.4036 81.8291 85.0664C82.8934 82.8535 83.5562 80.5888 83.8877 78.0557C84.0698 76.6807 84.0229 73.8361 83.7988 72.334C83.4347 69.909 82.7017 67.5777 81.6279 65.4541C81.3572 64.9174 81.0352 64.3804 80.9092 64.2627ZM76.54 66.5801C76.0779 66.1516 75.1907 66.2317 74.8359 66.7402C74.4625 67.277 74.4952 67.4796 75.1348 68.8027C76.0916 70.7707 76.4692 72.1175 76.6699 74.2549C76.9127 76.854 76.4135 79.5006 75.2139 81.9727C74.9291 82.5566 74.6633 83.1365 74.626 83.2637C74.4627 83.7816 74.8685 84.4778 75.4287 84.6426C76.2597 84.8874 76.8523 84.271 77.6973 82.2793C79.3359 78.3945 79.5321 74.142 78.2529 70.1865C77.8655 68.9908 76.8625 66.8778 76.54 66.5801ZM71.3486 68.5996C70.9706 68.5996 70.8536 68.6426 70.583 68.9014C70.0368 69.424 70.0504 69.6877 70.6992 71.0107C72.1745 74.0291 72.1601 77.0008 70.6475 80.0898C70.2368 80.9277 70.1488 81.1822 70.2002 81.4082C70.2843 81.7801 70.5824 82.1522 70.9277 82.3076C71.0818 82.3782 71.3434 82.4155 71.5068 82.4014C72.0436 82.3307 72.3099 82.0392 72.8467 80.9424C73.7803 79.026 74.1164 77.5988 74.1211 75.5225C74.1258 73.5024 73.7664 71.9241 72.8887 70.1064C72.3193 68.9251 71.9879 68.5997 71.3486 68.5996ZM68.4121 71.6934C67.908 70.9025 67.5343 70.6583 66.9883 70.7617C66.3441 70.8841 65.8626 71.5947 66.0352 72.1738C66.0772 72.3151 66.2545 72.6731 66.4365 72.9697C66.9687 73.8455 67.0908 74.3211 67.0908 75.4697C67.0908 76.6187 66.9687 77.0901 66.4365 77.9707C66.0259 78.6532 65.9423 78.9453 66.0449 79.3125C66.1383 79.6421 66.4511 80.0188 66.7266 80.1318C67.3288 80.3813 67.8986 80.0985 68.4121 79.3027C69.8637 77.0331 69.8639 73.9817 68.4121 71.6934Z" fill="#13508C"/>
<rect x="110" y="58" width="2" height="16" rx="1" fill="#13508C"/>
<rect x="110" y="44" width="2" height="10" rx="1" fill="#13508C"/>
<rect x="110" y="33" width="2" height="10" rx="1" fill="#13508C"/>
<defs>
<linearGradient id="paint0_linear_373_4397" x1="63.4878" y1="58.9024" x2="84.7561" y2="92.0732" gradientUnits="userSpaceOnUse">
<stop stop-color="#497BBD"/>
<stop offset="1" stop-color="#13508C"/>
</linearGradient>
</defs>
</svg>
