<svg width="32" height="32" viewBox="0 0 32 32" fill="none" xmlns="http://www.w3.org/2000/svg">
<path d="M17.0518 7.28418C17.8006 6.64998 19 7.14672 19 8.09082V23.9102C18.9997 24.854 17.8005 25.35 17.0518 24.7158L12.0762 20.5H6.5C5.67157 20.5 5 19.8284 5 19V13C5.00005 12.1716 5.67161 11.5 6.5 11.5H12.0762L17.0518 7.28418Z" fill="#262626"/>
<path d="M21.5471 20.3034C21.3272 20.2137 21.1696 20.0605 21.0743 19.8438C20.979 19.627 20.9754 19.414 21.0633 19.2048C21.2832 18.6965 21.4481 18.1696 21.558 17.624C21.668 17.0784 21.723 16.5291 21.723 15.976C21.723 15.423 21.668 14.8774 21.558 14.3393C21.4481 13.8011 21.2832 13.278 21.0633 12.7697C20.9754 12.5605 20.9827 12.3549 21.0853 12.1531C21.1879 11.9513 21.3492 11.8056 21.569 11.7159C21.8182 11.6262 22.0564 11.6374 22.2836 11.7495C22.5108 11.8617 22.6758 12.0448 22.7784 12.2989C23.0276 12.8818 23.2071 13.4835 23.3171 14.1038C23.427 14.7242 23.482 15.3482 23.482 15.976C23.482 16.6188 23.4233 17.2503 23.3061 17.8707C23.1888 18.491 23.0056 19.1001 22.7564 19.698C22.6538 19.9521 22.4889 20.139 22.2617 20.2586C22.0344 20.3782 21.7962 20.3931 21.5471 20.3034ZM24.0976 22.9043C23.8924 22.7997 23.7458 22.639 23.6579 22.4223C23.5699 22.2055 23.5846 22 23.7018 21.8057C24.2149 20.9238 24.5997 19.997 24.8562 19.0254C25.1127 18.0538 25.241 17.0523 25.241 16.0209C25.241 14.9895 25.1091 13.9842 24.8452 13.0052C24.5814 12.0261 24.1929 11.0881 23.6799 10.1912C23.5626 9.99692 23.5516 9.79139 23.6469 9.57465C23.7422 9.3579 23.8924 9.19721 24.0976 9.09258C24.3468 8.973 24.5997 8.96926 24.8562 9.08137C25.1127 9.19348 25.3069 9.37659 25.4389 9.6307C25.9519 10.6173 26.3404 11.6412 26.6042 12.7025C26.8681 13.7638 27 14.855 27 15.976C27 17.0971 26.8644 18.1995 26.5932 19.2832C26.322 20.3669 25.9299 21.4021 25.4169 22.3886C25.285 22.6427 25.0944 22.8221 24.8452 22.9268C24.596 23.0314 24.3468 23.0239 24.0976 22.9043Z" fill="#262626"/>
</svg>
