<svg width="60" height="60" viewBox="0 0 60 60" fill="none" xmlns="http://www.w3.org/2000/svg">
<path d="M28.2568 12.7197C29.1531 11.8208 30.5927 11.7629 31.5576 12.5518L31.7432 12.7197L45.3008 26.3516L45.3018 26.3525C46.807 27.8681 45.7173 30.4201 43.5586 30.4219H38.1289V38.8057C38.1288 40.5696 36.6727 42 34.877 42H25.1221C23.3276 41.9993 21.8712 40.5698 21.8711 38.8057V30.4219H16.4424C14.2813 30.4218 13.192 27.8671 14.6992 26.3516L28.2568 12.7197Z" fill="#3D3D3D"/>
<path d="M43.4219 46C44.2937 46.0002 45 46.6716 45 47.5C45 48.3284 44.2937 48.9998 43.4219 49H16.5791C15.7072 48.9998 15.001 48.3284 15.001 47.5C15.001 46.6716 15.7072 46.0002 16.5791 46H43.4219Z" fill="#262626"/>
</svg>
