<svg width="440" height="60" viewBox="0 0 440 60" fill="none" xmlns="http://www.w3.org/2000/svg">
<rect x="1" y="1" width="438" height="58" rx="9" fill="black"/>
<rect x="1" y="1" width="438" height="58" rx="9" stroke="#B0B0B0" stroke-width="2"/>
<!-- <path d="M157.002 34.936V32.272H185.226V34.936H157.002ZM172.734 45.592H169.494V33.208H172.734V45.592ZM159.342 30.076L158.514 27.412C161.034 26.668 163.098 25.9 164.706 25.108C166.338 24.316 167.538 23.452 168.306 22.516C169.098 21.58 169.494 20.536 169.494 19.384V18.34H172.734V19.384C172.734 20.536 173.118 21.58 173.886 22.516C174.678 23.452 175.878 24.316 177.486 25.108C179.118 25.9 181.194 26.668 183.714 27.412L182.886 30.076C180.582 29.308 178.566 28.528 176.838 27.736C175.134 26.944 173.706 26.008 172.554 24.928C171.426 23.848 170.55 22.492 169.926 20.86H172.302C171.702 22.492 170.826 23.848 169.674 24.928C168.522 26.008 167.082 26.944 165.354 27.736C163.65 28.528 161.646 29.308 159.342 30.076ZM159.99 19.096V16.468H182.238V19.096H159.99ZM186.934 42.784V40.12H215.158V42.784H186.934ZM197.122 41.776H193.918V30.544H197.122V41.776ZM208.174 41.776H204.97V30.544H208.174V41.776ZM201.046 19.456C199.414 19.456 197.974 19.648 196.726 20.032C195.478 20.416 194.506 21.004 193.81 21.796C193.114 22.588 192.766 23.608 192.766 24.856C192.766 26.104 193.114 27.136 193.81 27.952C194.506 28.744 195.478 29.332 196.726 29.716C197.974 30.1 199.414 30.292 201.046 30.292C202.678 30.292 204.118 30.1 205.366 29.716C206.614 29.332 207.586 28.744 208.282 27.952C208.978 27.136 209.326 26.104 209.326 24.856C209.326 23.608 208.978 22.588 208.282 21.796C207.586 21.004 206.614 20.416 205.366 20.032C204.118 19.648 202.678 19.456 201.046 19.456ZM201.046 32.992C198.838 32.992 196.87 32.68 195.142 32.056C193.414 31.408 192.058 30.484 191.074 29.284C190.09 28.06 189.598 26.584 189.598 24.856C189.598 23.128 190.09 21.664 191.074 20.464C192.058 19.264 193.414 18.352 195.142 17.728C196.87 17.08 198.838 16.756 201.046 16.756C203.254 16.756 205.222 17.08 206.95 17.728C208.678 18.352 210.034 19.264 211.018 20.464C212.002 21.664 212.494 23.128 212.494 24.856C212.494 26.584 212.002 28.06 211.018 29.284C210.034 30.484 208.678 31.408 206.95 32.056C205.222 32.68 203.254 32.992 201.046 32.992ZM240.45 36.664C238.05 36.664 236.202 36.928 234.906 37.456C233.61 37.96 232.962 38.824 232.962 40.048C232.962 41.272 233.61 42.148 234.906 42.676C236.202 43.18 238.05 43.432 240.45 43.432C242.874 43.432 244.734 43.18 246.03 42.676C247.326 42.148 247.974 41.272 247.974 40.048C247.974 38.824 247.326 37.96 246.03 37.456C244.734 36.928 242.874 36.664 240.45 36.664ZM240.45 46.06C238.266 46.06 236.37 45.832 234.762 45.376C233.154 44.944 231.918 44.272 231.054 43.36C230.19 42.472 229.758 41.368 229.758 40.048C229.758 38.704 230.19 37.588 231.054 36.7C231.918 35.788 233.154 35.116 234.762 34.684C236.37 34.228 238.266 34 240.45 34C242.658 34 244.554 34.228 246.138 34.684C247.746 35.116 248.982 35.788 249.846 36.7C250.71 37.588 251.142 38.704 251.142 40.048C251.142 41.368 250.71 42.472 249.846 43.36C248.982 44.272 247.746 44.944 246.138 45.376C244.554 45.832 242.658 46.06 240.45 46.06ZM250.566 33.46H247.398V14.776H250.566V33.46ZM241.026 22.588H249.018V25.252H241.026V22.588ZM225.654 19.636V17.008H242.106V19.636H225.654ZM225.978 32.92L224.502 30.4C226.518 29.248 228.09 28.18 229.218 27.196C230.346 26.212 231.138 25.228 231.594 24.244C232.074 23.236 232.314 22.144 232.314 20.968V18.304H235.518V20.968C235.518 22.096 235.734 23.14 236.166 24.1C236.622 25.036 237.402 25.96 238.506 26.872C239.634 27.76 241.194 28.684 243.186 29.644L241.818 32.164C240.042 31.3 238.566 30.424 237.39 29.536C236.238 28.648 235.314 27.676 234.618 26.62C233.922 25.564 233.37 24.364 232.962 23.02H234.834C234.498 24.172 234.078 25.192 233.574 26.08C233.094 26.968 232.506 27.796 231.81 28.564C231.114 29.308 230.286 30.028 229.326 30.724C228.39 31.42 227.274 32.152 225.978 32.92ZM270.49 41.812H267.25V31.624H270.49V41.812ZM254.758 42.784V40.12H282.982V42.784H254.758ZM259.042 22.552H278.734V25.18H259.042V22.552ZM258.286 33.316V17.008H261.454V30.688H276.322V17.008H279.454V33.316H258.286Z" fill="white"/> -->
</svg>
