<svg width="290" height="60" viewBox="0 0 290 60" fill="none" xmlns="http://www.w3.org/2000/svg">
<rect x="1" y="1" width="288" height="58" rx="9" fill="black"/>
<rect x="1" y="1" width="288" height="58" rx="9" stroke="#B0B0B0" stroke-width="2"/>
<!-- <path d="M89.6179 27.196V16.18H110.606V27.196H89.6179ZM92.7859 24.604H107.402V18.772H92.7859V24.604ZM85.9819 33.352V30.688H114.206V33.352H85.9819ZM92.7139 42.424H111.146V45.088H89.5459V35.98H92.7139V42.424ZM101.714 39.364H98.4739V32.056H101.714V39.364ZM140.07 45.664H136.902V14.776H140.07V45.664ZM138.45 27.844H144.858V30.508H138.45V27.844ZM115.374 41.2V38.536H121.35C123.918 38.536 126.306 38.452 128.514 38.284C130.746 38.116 132.978 37.864 135.21 37.528L135.534 40.156C134.046 40.372 132.546 40.564 131.034 40.732C129.546 40.876 127.95 40.996 126.246 41.092C124.566 41.164 122.694 41.2 120.63 41.2H115.374ZM126.822 34.36V40.012H123.618V34.36H126.822ZM125.238 26.836C123.822 26.836 122.73 27.1 121.962 27.628C121.194 28.132 120.81 28.924 120.81 30.004C120.81 31.084 121.194 31.888 121.962 32.416C122.73 32.92 123.81 33.172 125.202 33.172C126.618 33.172 127.698 32.92 128.442 32.416C129.21 31.888 129.594 31.084 129.594 30.004C129.594 28.924 129.21 28.132 128.442 27.628C127.698 27.1 126.63 26.836 125.238 26.836ZM125.202 35.62C123.714 35.62 122.406 35.404 121.278 34.972C120.15 34.54 119.274 33.904 118.65 33.064C118.05 32.224 117.75 31.204 117.75 30.004C117.75 28.804 118.05 27.784 118.65 26.944C119.274 26.104 120.15 25.468 121.278 25.036C122.406 24.58 123.714 24.364 125.202 24.388C127.458 24.412 129.258 24.904 130.602 25.864C131.97 26.824 132.654 28.204 132.654 30.004C132.654 31.804 131.97 33.184 130.602 34.144C129.258 35.104 127.458 35.596 125.202 35.62ZM116.058 22.912V20.392H134.346V22.912H116.058ZM120.234 18.484V15.964H130.206V18.484H120.234ZM153.73 42.64H171.658V45.304H150.562V35.872H153.73V42.64ZM170.002 38.392H166.834V14.776H170.002V38.392ZM168.382 24.748H174.79V27.412H168.382V24.748ZM145.306 33.424V30.76H151.282C153.85 30.76 156.238 30.676 158.446 30.508C160.678 30.34 162.91 30.088 165.142 29.752L165.466 32.38C163.978 32.596 162.478 32.788 160.966 32.956C159.478 33.1 157.882 33.22 156.178 33.316C154.498 33.388 152.626 33.424 150.562 33.424H145.306ZM155.242 23.956V31.768H152.038V23.956H155.242ZM162.55 27.88L159.382 27.484C159.526 26.716 159.634 26.02 159.706 25.396C159.778 24.772 159.826 24.16 159.85 23.56C159.898 22.936 159.922 22.276 159.922 21.58V19.744H147.466V17.116H163.09V21.58C163.09 22.564 163.054 23.548 162.982 24.532C162.91 25.492 162.766 26.608 162.55 27.88ZM199.934 34.288H196.766V14.776H199.934V34.288ZM190.142 37.168C187.862 37.168 186.098 37.408 184.85 37.888C183.602 38.368 182.978 39.184 182.978 40.336C182.978 41.464 183.602 42.268 184.85 42.748C186.098 43.228 187.862 43.468 190.142 43.468C192.446 43.468 194.222 43.228 195.47 42.748C196.718 42.268 197.342 41.464 197.342 40.336C197.342 39.184 196.718 38.368 195.47 37.888C194.222 37.408 192.446 37.168 190.142 37.168ZM190.142 46.06C188.03 46.06 186.194 45.844 184.634 45.412C183.074 45.004 181.874 44.368 181.034 43.504C180.194 42.664 179.774 41.608 179.774 40.336C179.774 39.04 180.194 37.96 181.034 37.096C181.874 36.232 183.074 35.596 184.634 35.188C186.194 34.756 188.03 34.54 190.142 34.54C192.278 34.54 194.114 34.756 195.65 35.188C197.21 35.596 198.41 36.232 199.25 37.096C200.09 37.96 200.51 39.04 200.51 40.336C200.51 41.608 200.09 42.664 199.25 43.504C198.41 44.368 197.21 45.004 195.65 45.412C194.114 45.844 192.278 46.06 190.142 46.06ZM198.314 23.272H204.722V25.936H198.314V23.272ZM175.238 32.416V29.752H181.214C183.782 29.752 186.17 29.668 188.378 29.5C190.61 29.332 192.842 29.08 195.074 28.744L195.398 31.372C193.91 31.588 192.41 31.78 190.898 31.948C189.41 32.092 187.814 32.212 186.11 32.308C184.43 32.38 182.558 32.416 180.494 32.416H175.238ZM185.174 23.524V30.58H181.97V23.524H185.174ZM192.518 26.908L189.35 26.512C189.542 25.456 189.674 24.532 189.746 23.74C189.818 22.924 189.854 22.036 189.854 21.076V19.384H177.398V16.756H193.022V21.076C193.022 21.988 192.986 22.9 192.914 23.812C192.842 24.7 192.71 25.732 192.518 26.908Z" fill="white"/> -->
</svg>
