<svg width="440" height="80" viewBox="0 0 440 80" fill="none" xmlns="http://www.w3.org/2000/svg">
<rect x="1" y="1" width="438" height="78" rx="9" fill="black"/>
<rect x="1" y="1" width="438" height="78" rx="9" stroke="#B0B0B0" stroke-width="2"/>
<!-- <path d="M150.003 45.04V42.08H181.363V45.04H150.003ZM167.483 56.88H163.883V43.12H167.483V56.88ZM152.603 39.64L151.683 36.68C154.483 35.8533 156.776 35 158.562 34.12C160.376 33.24 161.709 32.28 162.563 31.24C163.443 30.2 163.883 29.04 163.883 27.76V26.6H167.483V27.76C167.483 29.04 167.909 30.2 168.762 31.24C169.643 32.28 170.976 33.24 172.763 34.12C174.576 35 176.883 35.8533 179.683 36.68L178.763 39.64C176.203 38.7867 173.963 37.92 172.043 37.04C170.149 36.16 168.563 35.12 167.283 33.92C166.029 32.72 165.056 31.2133 164.363 29.4H167.003C166.336 31.2133 165.363 32.72 164.083 33.92C162.803 35.12 161.203 36.16 159.283 37.04C157.389 37.92 155.163 38.7867 152.603 39.64ZM153.323 27.44V24.52H178.043V27.44H153.323ZM183.26 53.76V50.8H214.62V53.76H183.26ZM194.58 52.64H191.02V40.16H194.58V52.64ZM206.86 52.64H203.3V40.16H206.86V52.64ZM198.94 27.84C197.127 27.84 195.527 28.0533 194.14 28.48C192.754 28.9067 191.674 29.56 190.9 30.44C190.127 31.32 189.74 32.4533 189.74 33.84C189.74 35.2267 190.127 36.3733 190.9 37.28C191.674 38.16 192.754 38.8133 194.14 39.24C195.527 39.6667 197.127 39.88 198.94 39.88C200.754 39.88 202.354 39.6667 203.74 39.24C205.127 38.8133 206.207 38.16 206.98 37.28C207.754 36.3733 208.14 35.2267 208.14 33.84C208.14 32.4533 207.754 31.32 206.98 30.44C206.207 29.56 205.127 28.9067 203.74 28.48C202.354 28.0533 200.754 27.84 198.94 27.84ZM198.94 42.88C196.487 42.88 194.3 42.5333 192.38 41.84C190.46 41.12 188.954 40.0933 187.86 38.76C186.767 37.4 186.22 35.76 186.22 33.84C186.22 31.92 186.767 30.2933 187.86 28.96C188.954 27.6267 190.46 26.6133 192.38 25.92C194.3 25.2 196.487 24.84 198.94 24.84C201.394 24.84 203.58 25.2 205.5 25.92C207.42 26.6133 208.927 27.6267 210.02 28.96C211.114 30.2933 211.66 31.92 211.66 33.84C211.66 35.76 211.114 37.4 210.02 38.76C208.927 40.0933 207.42 41.12 205.5 41.84C203.58 42.5333 201.394 42.88 198.94 42.88ZM242.722 46.96C240.055 46.96 238.002 47.2533 236.562 47.84C235.122 48.4 234.402 49.36 234.402 50.72C234.402 52.08 235.122 53.0533 236.562 53.64C238.002 54.2 240.055 54.48 242.722 54.48C245.415 54.48 247.482 54.2 248.922 53.64C250.362 53.0533 251.082 52.08 251.082 50.72C251.082 49.36 250.362 48.4 248.922 47.84C247.482 47.2533 245.415 46.96 242.722 46.96ZM242.722 57.4C240.295 57.4 238.189 57.1467 236.402 56.64C234.615 56.16 233.242 55.4133 232.282 54.4C231.322 53.4133 230.842 52.1867 230.842 50.72C230.842 49.2267 231.322 47.9867 232.282 47C233.242 45.9867 234.615 45.24 236.402 44.76C238.189 44.2533 240.295 44 242.722 44C245.175 44 247.282 44.2533 249.042 44.76C250.829 45.24 252.202 45.9867 253.162 47C254.122 47.9867 254.602 49.2267 254.602 50.72C254.602 52.1867 254.122 53.4133 253.162 54.4C252.202 55.4133 250.829 56.16 249.042 56.64C247.282 57.1467 245.175 57.4 242.722 57.4ZM253.962 43.4H250.442V22.64H253.962V43.4ZM243.362 31.32H252.242V34.28H243.362V31.32ZM226.282 28.04V25.12H244.562V28.04H226.282ZM226.642 42.8L225.002 40C227.242 38.72 228.989 37.5333 230.242 36.44C231.495 35.3467 232.375 34.2533 232.882 33.16C233.415 32.04 233.682 30.8267 233.682 29.52V26.56H237.242V29.52C237.242 30.7733 237.482 31.9333 237.962 33C238.469 34.04 239.335 35.0667 240.562 36.08C241.815 37.0667 243.549 38.0933 245.762 39.16L244.242 41.96C242.269 41 240.629 40.0267 239.322 39.04C238.042 38.0533 237.015 36.9733 236.242 35.8C235.469 34.6267 234.855 33.2933 234.402 31.8H236.482C236.109 33.08 235.642 34.2133 235.082 35.2C234.549 36.1867 233.895 37.1067 233.122 37.96C232.349 38.7867 231.429 39.5867 230.362 40.36C229.322 41.1333 228.082 41.9467 226.642 42.8ZM276.1 52.68H272.5V41.36H276.1V52.68ZM258.62 53.76V50.8H289.98V53.76H258.62ZM263.38 31.28H285.26V34.2H263.38V31.28ZM262.54 43.24V25.12H266.06V40.32H282.58V25.12H286.06V43.24H262.54Z" fill="white"/> -->
</svg>
