<svg width="440" height="80" viewBox="0 0 440 80" fill="none" xmlns="http://www.w3.org/2000/svg">
<rect width="440" height="80" rx="10" fill="white"/>
<!-- <path d="M190.282 43L189.002 39.32C191.562 38.4133 193.749 37.4267 195.562 36.36C197.376 35.2933 198.749 34.08 199.682 32.72C200.642 31.36 201.122 29.8 201.122 28.04V24.84H205.602V28.04C205.602 29.8267 206.069 31.4 207.002 32.76C207.962 34.12 209.336 35.3333 211.122 36.4C212.936 37.44 215.136 38.4133 217.722 39.32L216.482 43C213.949 42.0133 211.709 40.9867 209.762 39.92C207.816 38.8267 206.189 37.5333 204.882 36.04C203.576 34.52 202.616 32.6533 202.002 30.44H204.722C204.136 32.6533 203.189 34.5067 201.882 36C200.576 37.4933 198.949 38.7867 197.002 39.88C195.082 40.9733 192.842 42.0133 190.282 43ZM205.602 52.52H201.122V41.4H205.602V52.52ZM187.442 53.84V50.12H219.282V53.84H187.442ZM243.26 55.56H239.02V23.08H243.26V55.56ZM251.02 56.92H246.7V22.72H251.02V56.92ZM240.78 35.96H248.62V39.64H240.78V35.96ZM222.66 49.88L220.38 46.4C222.62 45.1467 224.46 43.9467 225.9 42.8C227.367 41.6267 228.513 40.48 229.34 39.36C230.167 38.24 230.74 37.12 231.06 36C231.407 34.88 231.58 33.72 231.58 32.52V30.44H221.98V26.72H236.06V32.24C236.06 34.5867 235.62 36.72 234.74 38.64C233.887 40.56 232.473 42.4267 230.5 44.24C228.553 46.0267 225.94 47.9067 222.66 49.88Z" fill="black"/> -->
<path d="M408 6H430C432.209 6 434 7.79086 434 10V32L421.366 19L408 6Z" fill="black"/>
</svg>
