<svg width="290" height="80" viewBox="0 0 290 80" fill="none" xmlns="http://www.w3.org/2000/svg">
<rect width="290" height="80" rx="10" fill="white"/>
<!-- <path d="M123.162 53.16H142.642V56.84H118.682V45.28H123.162V53.16ZM141.762 47.84H137.282V22.52H141.762V47.84ZM130.682 32.12H139.562V35.8H130.682V32.12ZM113.562 29V25.36H131.922V29H113.562ZM114.122 44.16L112.042 40.68C114.256 39.3467 115.976 38.12 117.202 37C118.429 35.88 119.282 34.76 119.762 33.64C120.242 32.52 120.482 31.28 120.482 29.92V27.08H125.002V29.92C125.002 31.2 125.229 32.3733 125.682 33.44C126.136 34.5067 126.962 35.56 128.162 36.6C129.362 37.6133 131.069 38.6933 133.282 39.84L131.402 43.28C129.322 42.2667 127.642 41.2267 126.362 40.16C125.082 39.0933 124.056 37.9333 123.282 36.68C122.536 35.4267 121.922 33.9733 121.442 32.32H124.082C123.682 33.7067 123.202 34.9467 122.642 36.04C122.109 37.1067 121.456 38.0933 120.682 39C119.936 39.88 119.016 40.7333 117.922 41.56C116.856 42.3867 115.589 43.2533 114.122 44.16ZM168.66 55.56H164.42V23.08H168.66V55.56ZM176.02 56.92H171.7V22.76H176.02V56.92ZM159.98 37.64H167.06V41.32H159.98V37.64ZM146.34 34.76V31.12H162.02V34.76H146.34ZM147.66 50.44L145.02 47.4C146.86 45.72 148.273 44.1467 149.26 42.68C150.273 41.1867 150.967 39.68 151.34 38.16C151.74 36.64 151.94 35.0267 151.94 33.32V32.52H156.42V33.32C156.42 34.92 156.607 36.4533 156.98 37.92C157.38 39.36 158.087 40.8 159.1 42.24C160.113 43.68 161.527 45.2267 163.34 46.88L160.78 49.96C159.367 48.6267 158.167 47.3333 157.18 46.08C156.22 44.8267 155.42 43.4667 154.78 42C154.167 40.5333 153.647 38.84 153.22 36.92H155.14C154.713 39 154.18 40.8133 153.54 42.36C152.9 43.88 152.1 45.28 151.14 46.56C150.18 47.8133 149.02 49.1067 147.66 50.44ZM149.46 28.08V24.36H158.82V28.08H149.46Z" fill="black"/> -->
<path d="M258 6H280C282.209 6 284 7.79086 284 10V32L271.366 19L258 6Z" fill="black"/>
</svg>
