<?xml version="1.0" encoding="UTF-8"?>
<svg id="Layer_1" xmlns="http://www.w3.org/2000/svg" width="49.4mm" height="49.4mm" version="1.1" xmlns:xlink="http://www.w3.org/1999/xlink" viewBox="0 0 140 140">
  <!-- Generator: Adobe Illustrator 30.2.0, SVG Export Plug-In . SVG Version: 2.1.1 Build 105)  -->
  <defs>
    <style>
      .st0 {
        fill: url(#linear-gradient);
      }
    </style>
    <linearGradient id="linear-gradient" x1="69.9" y1="130" x2="69.9" y2="13" gradientTransform="translate(0 141.4) scale(1 -1)" gradientUnits="userSpaceOnUse">
      <stop offset="0" stop-color="#0277c7"/>
      <stop offset="1" stop-color="#215072"/>
    </linearGradient>
  </defs>
  <path class="st0" d="M105.9,8.8c5.3,0,9.6,4.3,9.6,9.6v103.2c0,4.3-3.5,7.9-7.9,7.9H32.4c-4.3,0-7.9-3.5-7.9-7.9V18.4c0-5.3,4.3-9.6,9.6-9.6,0,0,71.8,0,71.8,0ZM29.8,121.6c0,1.4,1.2,2.6,2.6,2.6h75.2c1.4,0,2.6-1.2,2.6-2.6V35H29.8v86.6ZM70,42c19.3,0,35,15.7,35,35s-15.7,35-35,35-35-15.7-35-35,15.7-35,35-35ZM46.7,58.5c-4,5.1-6.4,11.5-6.4,18.5,0,16.4,13.3,29.8,29.8,29.8s29.8-13.3,29.8-29.8-2.4-13.4-6.4-18.4c-4.9,4.1-10,6.4-15,7.6.4,0,.7.2,1.1.3.9.2,1.6.4,2.2.7l-1.2,4.4c-.4,1.6-.6,3.7-.7,5.7,0,1.9-.2,3.8-.6,5.1l-4,14.9s-4.5-1.2-3.7-4.2c.3-1,.5-2.2.6-3.5,1.4-1.1,2.6-2.8,3.2-5.1v-.4l-3.1,1.8c0-.6,0-1.1-.2-1.7l3.6-2.1v-1.7l-3.9,2.2c0-.3-.2-.6-.3-.9l-12.8,11.2c-.9.8-2,.9-3,.6l11.3-9.9c1.2-1,2.4-2.6,3.6-4.2-.2-.4-.4-.7-.7-1.1l2.9-1.7c.2-.2.3-.4.5-.5-.4-.2-.7-.4-1.1-.6h-.4c-.8.9-1.6,2-2.5,3-1.1,1.5-2.3,3-3.3,3.9l-11.6,10.2s-3.1-3.5-.7-5.5c.8-.7,1.6-1.5,2.5-2.5,1.8,0,3.8-.9,5.5-2.4l.3-.3-3.7-.3c.3-.5.6-1,.8-1.5l4.2.3c.4-.5.7-1,.9-1.5l-4.4-.3c.2-.5.3-1,.5-1.5l4.5.3c.1-.5.2-1.1.2-1.6l-4.4-.3v-1.5l4.1.3c-.2-.5-.4-.9-.7-1.3-.9-1-2.2-1.4-3.6-1.4v-.5l1-2.5c1.7.2,3.9-.5,6.1-1.9-.5,0-.9,0-1.4-.2-8.1-1.1-15.1-4.8-19.3-8.1h-.1ZM83.2,67.6c2.9,1.2,2.6,2.1,2.6,2.1l-6.8,25.4c-.3,1.1-1.1,1.9-2.2,2.2l3.9-14.5c.8-3,.5-7.9,1.3-10.8l1.1-4.3h.1ZM74,79.6l1.3-.7c0-.1,0-.2-.1-.3,0,0-1.2,1-1.2,1ZM70,47.3c-8,0-15.3,3.2-20.6,8.3,3.7,2.9,9.9,6.1,17.1,7.1,7.4,1,16-.3,24.2-7-5.4-5.2-12.6-8.3-20.7-8.3h0ZM34.1,14c-2.4,0-4.4,2-4.4,4.4v13.1h80.5v-13.1c0-2.4-2-4.4-4.4-4.4H34.1ZM57.1,18.4c2.3.1,4.2,2,4.2,4.4s-2,4.4-4.4,4.4h-19.2c-2.4,0-4.4-2-4.4-4.4s1.8-4.3,4.2-4.4h19.6ZM102.6,18.4c2.3.1,4.2,2,4.2,4.4s-2,4.4-4.4,4.4h-19.2c-2.4,0-4.4-2-4.4-4.4s1.8-4.3,4.2-4.4h19.6ZM70,19.3c1.9,0,3.5,1.6,3.5,3.5s-1.6,3.5-3.5,3.5-3.5-1.6-3.5-3.5,1.6-3.5,3.5-3.5ZM37.6,21c-1,0-1.8.8-1.8,1.8s.8,1.8,1.8,1.8h19.2c1,0,1.8-.8,1.8-1.8s-.8-1.8-1.8-1.8h-19.2ZM83.1,21c-1,0-1.8.8-1.8,1.8s.8,1.8,1.8,1.8h19.2c1,0,1.8-.8,1.8-1.8s-.8-1.8-1.8-1.8h-19.2Z"/>
  <metadata>
    <sfw xmlns="http://ns.adobe.com/SaveForWeb/1.0/">
      <slices/>
      <sliceSourceBounds x="24.51" y="10.5" width="91.02" height="120.73" bottomLeftOrigin="true"/>
    </sfw>
  </metadata>
</svg>