<svg width="60" height="60" viewBox="0 0 60 60" fill="none" xmlns="http://www.w3.org/2000/svg">
<path d="M54.1887 30.4548L53.7537 30.1755C52.2781 28.69 50.2263 28.0424 47.4809 28.2087C45.194 28.3513 43.3833 29.2664 41.9959 30.1161C41.9959 30.0923 41.9959 30.0745 41.9959 30.0507C41.9959 29.3258 42.0782 28.5415 42.1546 27.7809C42.231 27.0085 42.3192 26.2182 42.3192 25.4755C42.3192 24.7328 42.2369 23.9901 41.9724 23.3721C41.9077 23.2117 41.7607 23.1226 41.5785 23.1226C40.8377 23.1404 39.3974 23.6514 39.0447 23.9604L38.8566 24.3822C38.8448 25.2081 38.6625 27.5195 38.4803 27.7988C38.4862 27.7869 38.3862 28.078 38.3862 28.078C38.0747 31.3757 38.0688 34.2694 38.3568 36.759C38.3921 37.0086 38.8624 37.3829 39.2328 37.5196C39.6326 37.6681 40.8906 37.3294 41.6138 37.0561C41.602 37.0561 41.8842 37.0145 41.8842 37.0145C42.1135 36.9907 42.2487 36.7947 42.2369 36.5332L42.2546 35.8202C42.7778 33.6752 44.8942 31.1084 47.3927 30.7221C48.8095 30.4963 49.9265 30.8647 50.8083 31.8333C50.9259 32.0056 51.1846 33.5564 50.2557 35.327C49.562 36.6402 48.1746 37.7513 46.3463 38.4405C44.6179 39.106 42.7131 39.3734 40.3674 39.2902C40.2675 39.2249 38.1687 37.7869 38.1687 37.7869C36.3051 36.4619 33.9888 34.816 31.8901 34.0139C31.5197 33.8713 30.8613 33.3128 30.4615 32.986L30.244 32.8077C29.0329 31.8273 26.7284 30.2765 24.8824 29.0287C24.8824 29.0287 24.0476 28.4642 23.8889 28.3513C23.8889 28.28 23.8889 28.1374 23.8889 28.1374C23.9418 28.078 25.1058 27.3769 25.1058 27.3769C26.7343 26.4143 27.4868 25.9449 27.6455 25.7013C27.6102 25.7429 27.863 25.5706 27.863 25.5706C27.8807 25.5646 31.8959 23.2652 31.8959 23.2652C35.7701 21.1142 40.1558 18.6721 42.4603 16.2657L42.572 15.8973L42.6249 15.5705C42.7778 15.0536 42.7837 14.6614 42.6602 14.2039C42.6249 14.0732 42.5073 13.9187 42.3486 13.8949C40.5497 13.7107 38.2275 14.804 36.117 16.8064C35.6408 17.258 35.241 17.4778 34.8178 17.7096L34.4944 17.8938C32.1664 19.2307 26.9224 22.5224 24.1711 24.299C24.3533 21.3162 24.9001 17.0678 25.5702 13.5325L25.4938 13.1106L25.2116 12.5758L25 12.1956L24.9412 12.1777C24.3945 11.8985 23.9477 12.0114 23.6185 12.0946L23.0717 12.2966L22.3369 12.564C22.1899 12.5937 22.0899 12.6828 22.037 12.8254C20.726 16.028 19.6326 21.2984 19.3739 25.5112C16.7519 23.8296 14.3298 22.6175 13.1423 22.0293L13.107 22.0114L12.9659 21.9817C12.5367 21.9283 12.0194 21.6074 11.5197 21.2984C11.4668 21.2687 10.5203 20.6448 10.5203 20.6448L8.99765 19.6585L8.59788 19.5634C7.94533 19.6763 6.68724 20.5319 6.31687 21.1142C6.26984 21.1915 6.24633 21.2747 6.24633 21.3578C6.24633 21.4826 6.2816 21.6014 6.31687 21.7262L6.38154 22.0411L6.45209 22.2313C7.18107 22.9859 9.02704 24.2456 10.8319 25.226L12.9247 26.349L16.1287 28.1196L16.6755 28.5593L17.0517 28.7792C17.0517 28.7792 17.0929 28.8029 17.1223 28.8208C16.2698 29.3971 11.2904 32.7542 11.2904 32.7542L8.22751 34.8101C7.93945 35.0121 6.72839 35.5588 6.45797 35.6657C5.79365 35.939 5.28807 36.3609 5.0823 36.8125L5 36.9907L5.0823 37.1096L5.31746 37.2878L5.62904 37.4958L5.97002 37.7275L6.28748 37.781C6.82834 37.7988 7.62199 37.4899 9.11523 36.8303C10.485 36.2183 14.2063 33.9485 15.7995 32.98L16.4756 32.57C16.7578 32.5938 17.0635 32.3561 17.3398 32.1422C17.6573 31.8867 18.351 31.453 18.7743 31.2628C18.786 31.2628 19.027 31.1202 19.2563 30.9955C19.2563 31.0668 19.2563 31.1797 19.2563 31.1797C19.3269 36.0995 19.6032 39.6764 20.1382 42.4334V42.481L20.1969 42.5939C20.4556 42.9801 20.7554 44.1506 21.02 45.1786L21.6255 47.2344L21.796 47.4246C22.1429 47.6622 23.1952 48.0722 23.9006 47.989L24.077 47.9653L24.1887 47.7157C24.2475 47.4067 24.271 47.1037 24.271 46.771C24.271 46.3966 24.2416 45.9807 24.2122 45.4757L24.1652 44.7329C23.9418 41.2986 23.7184 36.3371 23.7184 33.0394V32.778C24.3004 33.1404 26.8225 34.7507 26.8225 34.7507C31.1199 37.5671 37.6161 41.8274 41.5373 42.9504C41.7431 43.0098 41.9547 42.9623 42.1076 42.8197C42.1076 42.8137 42.7131 42.4275 42.7131 42.4275L42.8248 42.38C43.0482 42.273 43.2011 41.8868 43.2246 41.4709C46.5344 41.3045 51.1434 40.0151 53.6126 36.8779C54.565 35.6598 55 34.1743 55 32.9028C55 31.857 54.7119 30.9539 54.1946 30.4607" fill="#F8B500"/>
</svg>
