<svg width="60" height="60" viewBox="0 0 60 60" fill="none" xmlns="http://www.w3.org/2000/svg">
<path d="M38.2722 54.0565L17.4063 40.4714C17.4063 40.4714 14.7888 38.9671 14.1903 36.1648C13.3485 32.2284 16.1231 28.855 16.1231 28.855L43.204 46.4919C45.2924 47.8531 45.8629 50.6382 44.5202 52.7393C43.1407 54.8983 40.306 55.3738 38.2722 54.0565Z" fill="#38D200"/>
<path d="M18.5076 25.9445C18.5076 25.9445 15.3115 24.0144 15.3115 19.5507C15.3115 15.102 18.5065 13.1961 18.5065 13.1961L29.9138 5.73031C32.0049 4.37072 34.801 4.96436 36.1601 7.05461C37.5195 9.14523 36.9264 11.9421 34.8351 13.3011L25.2209 19.5614L41.6025 30.2305C41.6025 30.2305 44.5511 31.9203 45.1319 34.7716C45.943 38.7501 43.2046 42.0285 43.2046 42.0285L18.5076 25.9445Z" fill="#0473EA"/>
<path d="M39.9794 14.8838C38.9085 14.8838 38.1455 15.2215 37.402 15.7057L31.834 19.3325L37.4021 22.9592C38.1532 23.4433 38.9411 23.7816 39.9796 23.7816C42.4365 23.7816 44.4283 21.7893 44.4283 19.3325C44.4283 16.8759 42.4364 14.8832 39.9794 14.8838Z" fill="#38D200"/>
<path d="M18.4487 54.7762C19.5196 54.7762 20.2825 54.4385 21.026 53.9544L26.5949 50.3275L21.026 46.7008C20.2749 46.2172 19.4872 45.8784 18.4487 45.8784C15.9918 45.8784 14 47.8706 14 50.3275C14 52.7839 15.9918 54.7768 18.4487 54.7762Z" fill="#0473EA"/>
</svg>
