<svg width="60" height="60" viewBox="0 0 60 60" fill="none" xmlns="http://www.w3.org/2000/svg">
<path d="M39.2611 7L29.9995 11.6614L20.748 7L29.9995 24.6199L39.2611 7Z" fill="#FABE00"/>
<path d="M42.4976 20.6187L42.3556 20.4969L48.9594 17.7142V8.42188L37.4864 13.3169C37.4864 13.3169 31.268 25.0973 31.126 25.3715C35.9952 25.9504 39.6471 30.0431 39.6471 34.9584C39.6471 40.2901 35.3257 44.6265 30 44.6265C24.6743 44.6265 20.3428 40.2901 20.3428 34.9584C20.3428 30.0329 23.9947 25.9504 28.8639 25.3715C28.7218 25.0973 22.5136 13.3169 22.5136 13.3169L11.0609 8.42188V17.7142L17.6647 20.4969L17.5227 20.6187C13.3737 24.2443 11 29.4744 11 34.9685C11 45.4694 19.5211 54.0001 30 54.0001C40.4789 54.0001 49 45.4593 49 34.9685C49 29.4845 46.6263 24.2443 42.4875 20.6289L42.4976 20.6187Z" fill="#FABE00"/>
</svg>
