<svg width="60" height="60" viewBox="0 0 60 60" fill="none" xmlns="http://www.w3.org/2000/svg">
<path d="M46.2429 49.9967H13.756C13.2627 49.9969 12.7743 49.8998 12.3185 49.7111C11.8627 49.5224 11.4486 49.2457 11.0998 48.8969C10.751 48.5481 10.4743 48.134 10.2856 47.6782C10.0969 47.2225 9.99986 46.734 10 46.2407V13.7549C9.99986 13.2616 10.097 12.7731 10.2857 12.3173C10.4745 11.8615 10.7513 11.4474 11.1002 11.0987C11.4492 10.75 11.8634 10.4734 12.3193 10.2849C12.7752 10.0964 13.2638 9.99957 13.7571 10H46.244C46.7372 9.99986 47.2256 10.0969 47.6813 10.2855C48.137 10.4742 48.551 10.7507 48.8998 11.0994C49.2486 11.4481 49.5253 11.8621 49.7141 12.3177C49.9028 12.7734 50 13.2617 50 13.7549V46.2418C49.9997 47.2378 49.6039 48.1928 48.8995 48.897C48.1951 49.6012 47.2389 49.9967 46.2429 49.9967Z" fill="#FFE300"/>
<path d="M31.2806 35.4984H29.2088V24.4982H31.2806V35.4984ZM36.6969 29.9983C37.8799 29.22 38.7804 28.081 39.2647 26.7503C39.7489 25.4196 39.7912 23.9682 39.385 22.6116C38.9789 21.255 38.1461 20.0655 37.0103 19.2198C35.8745 18.3741 34.4963 17.9172 33.0802 17.917H22.0451C21.995 17.9169 21.9454 17.9266 21.8991 17.9457C21.8528 17.9648 21.8108 17.9929 21.7753 18.0283C21.7399 18.0637 21.7119 18.1058 21.6928 18.152C21.6737 18.1983 21.6639 18.248 21.6641 18.298V41.6997C21.6639 41.7498 21.6737 41.7995 21.6928 41.8458C21.7118 41.8922 21.7399 41.9343 21.7753 41.9698C21.8107 42.0053 21.8527 42.0335 21.899 42.0527C21.9453 42.0719 21.995 42.0818 22.0451 42.0818H33.0802C34.4966 42.0818 35.8752 41.6249 37.0114 40.7791C38.1475 39.9333 38.9805 38.7436 39.3868 37.3867C39.793 36.0298 39.7508 34.578 39.2664 33.247C38.782 31.916 37.8813 30.7767 36.698 29.9983" fill="#1C1C1C"/>
</svg>
