<svg width="60" height="60" viewBox="0 0 60 60" fill="none" xmlns="http://www.w3.org/2000/svg">
<mask id="mask0_3840_2581" style="mask-type:luminance" maskUnits="userSpaceOnUse" x="7" y="7" width="46" height="46">
<path d="M24.8167 49.4945C22.2786 49.2452 19.2508 48.4437 16.6059 46.1552C14.1747 44.0625 12.6697 41.1773 11.9394 38.6305C11.1913 36.0302 10.8797 33.0025 12.1175 33.243C12.5004 33.3142 13.1595 34.9794 13.8719 36.1994C14.611 37.455 15.2077 38.1496 15.7687 38.577C16.027 38.764 16.8908 36.8406 18.1554 35.7453C18.8857 35.1308 19.6871 34.926 19.8207 36.7426C19.9721 38.96 19.5714 41.5869 20.2215 41.5869C20.8181 41.5869 22.1807 41.1328 25.1729 40.8745C26.3039 40.7766 26.9451 40.9903 25.8764 42.5041C25.3421 43.2611 24.6208 44.3297 22.9198 45.5496C25.4668 47.9362 28.5213 47.6423 28.5748 48.6575C28.6104 49.2452 27.4705 49.5658 25.9744 49.5658C25.6093 49.5658 25.2174 49.548 24.8167 49.5034M33.3837 28.0781C31.0505 27.5883 30.5785 25.4778 30.5785 25.4778C30.3826 24.7298 30.3381 23.7859 30.4984 22.5837C30.81 20.0725 31.4958 18.897 32.2616 16.9469C33.3036 14.3288 30.7833 12.806 31.193 11.8443C31.7629 10.5442 33.5618 12.2005 35.5834 12.3163C37.3199 12.4053 38.3619 12.3252 39.6977 12.5033C41.4877 12.7348 43.6339 13.3492 44.5868 14.4624C45.4595 15.4864 44.1237 16.7331 42.5207 15.9584C41.3452 15.3885 39.8669 15.7358 40.7307 16.9558C41.7726 18.1223 42.2714 18.149 43.34 18.4251C46.2699 19.1998 46.3322 22.0049 44.3374 23.4564C42.0843 25.1127 39.7956 24.427 38.8873 21.1856C38.4242 19.5649 37.2932 18.7457 36.1177 19.2087C34.96 19.6629 35.6457 21.7912 36.5362 23.7681C38.068 27.6773 34.9689 28.087 33.7845 28.087C33.5974 28.087 33.4639 28.0781 33.3926 28.0692M31.7006 50.2247C31.6828 49.7083 32.4397 49.5747 32.4397 49.5747C39.2435 48.23 37.2576 43.7686 34.8531 41.4979C33.8379 40.545 24.3714 32.3703 24.3714 32.3703C15.3413 24.5962 16.0626 18.5319 16.0626 18.5319C16.5079 11.0607 23.0356 9.20843 27.987 9.63587C28.5659 9.6893 28.8954 10.0277 28.7796 10.5175C28.6727 11.0429 27.9069 11.0785 27.9069 11.0785C26.3306 11.1675 24.9235 11.3278 23.8549 12.058C19.8742 14.7384 21.0408 19.2978 26.3573 24.3825C27.0252 25.0148 27.7377 25.6915 28.4768 26.3772C28.4768 26.3772 29.5366 27.3211 31.665 29.3337C35.7526 33.1005 37.9878 35.1308 37.9878 35.1308C45.1923 41.1328 42.7255 46.6182 39.9827 48.5239C37.881 49.9843 35.5566 50.6611 32.5021 50.8303H32.4219C32.1459 50.8303 31.7273 50.6611 31.7006 50.2247ZM28.9577 7.02671C16.2764 7.59663 6.45365 18.3538 7.0236 31.0434C7.59355 43.733 18.3513 53.5463 31.0416 52.9764C43.7229 52.4065 53.5546 41.6493 52.9757 28.9686C52.4236 16.6263 42.2446 7 30.0086 7C29.6612 7 29.305 7.0089 28.9577 7.02671Z" fill="white"/>
</mask>
<g mask="url(#mask0_3840_2581)">
<mask id="mask1_3840_2581" style="mask-type:luminance" maskUnits="userSpaceOnUse" x="6" y="7" width="48" height="47">
<path d="M6.45312 7H53.554V53.5463H6.45312V7Z" fill="white"/>
</mask>
<g mask="url(#mask1_3840_2581)">
<path d="M53.554 7H6.45312V53.5463H53.554V7Z" fill="#0046FF"/>
</g>
</g>
</svg>
