<svg width="60" height="60" viewBox="0 0 60 60" fill="none" xmlns="http://www.w3.org/2000/svg">
<path d="M26.4525 14.5C26.4525 16.4 28.0525 18 29.9525 18C31.8525 18 33.4525 16.4 33.4525 14.5C33.4525 12.6 33.4525 13.9 33.2525 13.7C32.9525 13.1 32.6525 12.7 32.6525 12C32.6525 11 31.3525 11 30.6525 11C29.9525 11 29.0525 11.1 28.3525 11.5C27.7525 11.8 27.3525 12.2 26.9525 12.7C26.5525 13.2 26.4525 13.9 26.3525 14.5" fill="#DC231E"/>
<path d="M47.8523 18.8999C47.5523 18.4999 47.0523 18.4999 46.1523 18.6999C44.7523 18.9999 40.6523 19.7999 34.0523 19.9999C31.0523 20.0999 27.7523 20.0999 24.3523 19.7999C21.6523 19.5999 16.4523 18.6999 15.3523 18.5999C14.7523 18.5999 13.3523 18.3999 12.6523 18.9999C11.6523 19.7999 11.9523 20.9999 12.5523 21.8999C12.5523 21.8999 13.7523 23.8999 16.6523 24.4999C20.8523 25.1999 27.3523 24.9999 29.4523 24.7999C34.2523 24.3999 37.8523 23.6999 40.7523 22.8999C40.7523 22.8999 44.6523 21.7999 46.5523 20.6999C47.2523 20.2999 48.2523 19.4999 47.8523 18.7999V18.8999ZM33.6523 27.4999C31.2523 26.1999 28.4523 26.1999 26.1523 27.4999C22.3523 29.5999 21.0523 34.3999 23.3523 38.1999C25.1523 41.0999 27.6523 40.3999 28.3523 39.6999C29.2523 38.6999 28.8523 37.6999 28.3523 37.0999C27.4523 35.8999 27.3523 35.0999 27.3523 34.5999C27.3523 33.0999 28.5523 31.7999 30.1523 31.7999C31.7523 31.7999 31.7523 32.1999 32.2523 32.7999C32.9523 33.6999 33.0523 34.8999 33.0523 35.8999C32.7523 41.7999 30.3523 46.8999 30.2523 47.1999C30.1523 47.4999 29.9523 48.0999 30.4523 48.3999C30.8523 48.5999 31.2523 48.3999 31.7523 47.9999C32.8523 47.0999 34.9523 44.3999 36.1523 41.7999C36.7523 40.3999 38.2523 36.5999 37.7523 32.8999C37.2523 29.9999 35.3523 28.2999 33.7523 27.3999L33.6523 27.4999Z" fill="#009178"/>
</svg>
