<svg width="60" height="60" viewBox="0 0 60 60" fill="none" xmlns="http://www.w3.org/2000/svg">
<path d="M18.7055 8.54649C17.5173 9.16003 16.6315 10.2086 16.2103 11.525L8.26013 36.2005C7.83886 37.4945 7.93608 38.889 8.53018 40.116C9.12428 41.3431 10.1504 42.2579 11.4035 42.6929L37.4898 51.7399C38.7537 52.1638 40.1039 52.0746 41.2921 51.4499C42.4803 50.8363 43.366 49.7766 43.7873 48.4714L51.7482 23.7958C52.6124 21.1074 51.1973 18.1958 48.5941 17.2923L22.4969 8.2676C21.2331 7.83255 19.8829 7.93295 18.6947 8.54649" fill="white"/>
<path d="M31.4493 32.2514C30.0342 33.8913 28.2628 35.2076 26.2212 36.0219L25.0438 36.4905V25.0451L26.1996 25.5136C28.2519 26.328 30.0234 27.6331 31.4493 29.2618C32.4647 27.5774 33.0912 25.6252 33.2208 23.5057C33.5448 18.0172 30.2179 12.9862 25.6487 11.2348L21.8897 9.9408C20.183 9.36072 18.3791 10.3201 17.8174 12.0715L9.83486 36.7917C9.26236 38.5542 10.2129 40.4506 11.9196 41.0307L30.0234 47.2777C31.8598 45.2474 33.0588 42.5701 33.2424 39.5693C33.4044 36.9032 32.7239 34.3821 31.4493 32.2626M20.9823 24.3758V37.1932H19.1892V24.3758H20.9823Z" fill="#00A5E3"/>
<path d="M48.0097 18.9545L31.3965 13.2207C33.6217 15.7418 34.9935 19.0884 35.0043 22.7585C35.0043 25.6589 34.1293 28.4366 32.6063 30.768C34.1401 33.0772 35.0151 35.8549 35.0259 38.7552C35.0259 42.2245 33.8161 45.4038 31.807 47.8803L38.0504 50.0333C39.7571 50.6245 41.561 49.654 42.1227 47.8914L50.1052 23.1936C50.6669 21.4422 49.7164 19.5346 48.0205 18.9545M43.6025 37.16H41.3558L36.7326 30.7569L41.4314 24.3426H43.6889L38.9902 30.768L43.5917 37.16H43.6025Z" fill="#004898"/>
<path d="M30.4019 30.7679C29.3974 29.5408 28.166 28.5145 26.7617 27.7671V33.791C28.166 33.0324 29.3974 31.995 30.4019 30.7679Z" fill="#E8380D"/>
</svg>
