<svg width="62" height="60" viewBox="0 0 62 60" fill="none" xmlns="http://www.w3.org/2000/svg">
<g clip-path="url(#clip0_3840_5923)">
<path d="M0.0849967 30.2991C-0.0229861 30.3558 -0.0291566 30.4596 0.0726558 30.5288L9.39466 36.8101L12.0665 23.9927L0.0849967 30.2991Z" fill="#E72410"/>
<path d="M55.2802 23.989H52.9231C52.8012 23.989 52.6115 24.0362 52.502 24.0928L40.6871 30.3017C40.5776 30.3584 40.573 30.4622 40.6748 30.5299L49.841 36.6837C49.9428 36.7514 50.1264 36.808 50.2498 36.808H52.6053C52.7272 36.808 52.7442 36.7514 52.6439 36.6837L43.288 30.404L55.3034 24.0897C55.4129 24.033 55.4005 23.9858 55.2787 23.9858L55.2802 23.989Z" fill="#F08300"/>
<path d="M50.2324 23.9893H33.8113L31.1426 36.8114H47.5621C47.684 36.8114 47.701 36.7548 47.5992 36.6871L38.2602 30.409L50.2586 24.0947C50.3681 24.038 50.3558 23.9908 50.2339 23.9908L50.2324 23.9893Z" fill="#E72410"/>
<path d="M60.322 23.9895H57.9649C57.8415 23.9895 57.6533 24.0367 57.5438 24.0933L45.7289 30.3022C45.6209 30.3589 45.6163 30.4627 45.7166 30.5304L54.8828 36.6842C54.9846 36.7518 55.1697 36.8085 55.2916 36.8085H57.6487C57.7706 36.8085 57.7875 36.7518 57.6857 36.6842L48.3298 30.4045L60.3452 24.0902C60.4547 24.0335 60.4439 23.9863 60.3205 23.9863L60.322 23.9895Z" fill="#FABE00"/>
<path d="M49.5041 15.5996H10.8432C8.68505 15.5996 7.17484 16.9843 6.81849 18.6962C6.62258 19.6355 6.97275 20.4711 7.68235 21.0438L21.5736 30.398L21.5844 30.3917V30.398L49.5303 15.7035C49.6383 15.6468 49.6291 15.5996 49.5056 15.5996H49.5041Z" fill="#E72410"/>
<path d="M43.3723 45.0736L21.586 30.3979L21.5829 30.4027L21.5737 30.3979L3.78274 39.7553C2.83557 40.3249 2.13831 41.162 1.9424 42.1029C1.58297 43.8117 2.51471 45.198 4.67437 45.198H43.3353C43.4587 45.198 43.4741 45.1413 43.3723 45.0736Z" fill="#E72410"/>
</g>
<defs>
<clipPath id="clip0_3840_5923">
<rect width="60.4226" height="29.6" fill="white" transform="translate(0 15.5996)"/>
</clipPath>
</defs>
</svg>
