<svg width="60" height="60" viewBox="0 0 60 60" fill="none" xmlns="http://www.w3.org/2000/svg">
<path d="M19.7552 26.7532C18.7679 26.7532 17.8488 27.1021 17.1765 27.7404L16.9467 27.9574V23H14.3126V31.4723C14.3126 34.634 16.202 36.5957 19.2445 36.5957C22.2871 36.5957 24.3764 34.5319 24.3764 31.6851C24.3764 28.8383 22.4318 26.7532 19.7552 26.7532ZM19.3339 34.1872C17.9509 34.1872 16.8233 33.0596 16.8233 31.6808C16.8233 30.3021 17.9509 29.1702 19.3339 29.1702C20.7169 29.1702 21.8445 30.2979 21.8445 31.6808C21.8445 33.0638 20.7169 34.1872 19.3339 34.1872ZM9.92541 23L4.71265 29.0468V23H2.04883V36.2851H4.71265V30.2893L10.0318 36.2851H13.4573L7.57222 29.6425L13.2999 23H9.92541ZM57.1764 27.0638H54.2445L50.87 31.0468V23H48.236V36.2893H50.87V32.3021L54.2445 36.2893H57.1764L53.2743 31.6723L57.1764 27.0638ZM43.0743 26.7532C41.4488 26.7532 40.4445 27.5149 39.9637 28.0468V27.0681H37.419V36.2893H40.053V31.2681C40.053 30.0128 40.9254 29.1362 42.019 29.1362C43.1126 29.1362 43.9892 30.0128 43.9892 31.2681V36.2893H46.6232V30.4766C46.6232 28.3191 45.0573 26.7532 43.07 26.7532H43.0743ZM30.6913 26.7532C27.7509 26.7532 25.6147 28.8255 25.6147 31.6851C25.6147 34.5447 27.585 36.6 30.2956 36.6C33.0062 36.6 33.253 35.2042 33.2615 35.1915L33.4105 34.983V36.2893H35.8062V31.6851C35.8062 28.8298 33.6573 26.7532 30.6913 26.7532ZM30.7722 34.1872C29.3892 34.1872 28.2615 33.0596 28.2615 31.6808C28.2615 30.3021 29.3892 29.1702 30.7722 29.1702C32.1552 29.1702 33.2828 30.2979 33.2828 31.6808C33.2828 33.0638 32.1552 34.1872 30.7722 34.1872Z" fill="#0114A7"/>
</svg>
