<svg width="60" height="60" viewBox="0 0 60 60" fill="none" xmlns="http://www.w3.org/2000/svg">
<path d="M49.9807 29.9996C49.9807 41.0448 41.0238 50.001 29.9885 50.001C18.9389 50.001 9.98633 41.0448 9.98633 29.9996C9.98633 18.9528 18.9389 10 29.9867 10C41.0238 10.0002 49.9807 18.9528 49.9807 29.9996Z" fill="white"/>
<path d="M16.3578 43.26C19.8188 46.7979 24.6457 48.9941 29.9868 48.9941C35.3251 48.9941 40.1494 46.7981 43.6091 43.2614C40.3382 42.056 35.4497 41.289 29.984 41.289C24.5229 41.2908 19.6326 42.0558 16.3578 43.26ZM30.0614 17.2715C38.7632 17.2709 46.1888 22.6524 49.0418 30.2052C49.043 30.1148 49.0452 30.0246 49.0452 29.9338C49.0452 19.4046 40.5132 10.8716 29.984 10.8716C19.4566 10.8716 10.9229 19.4046 10.9229 29.9328C10.9229 30.1592 10.9283 30.3846 10.9361 30.6092C13.6747 22.8458 21.2081 17.2715 30.0614 17.2715Z" fill="#007BC7"/>
<path d="M30.0573 17.4407C38.7883 17.4399 46.2299 22.8572 49.0385 30.425C49.0403 30.3519 49.0403 30.2785 49.0413 30.2051C46.1883 22.6524 38.7627 17.2709 30.0609 17.2715C21.2076 17.2715 13.6742 22.8456 10.9355 30.6094C10.9377 30.6735 10.9401 30.7376 10.9429 30.8016C13.6428 23.0384 21.1862 17.4407 30.0573 17.4407Z" fill="#007BC7"/>
<path d="M30.0577 17.4409C21.1866 17.4409 13.6432 23.0386 10.9434 30.8018C10.9463 30.8678 10.9495 30.9337 10.953 30.9994C13.6116 23.2332 21.1648 17.6089 30.0559 17.6089C38.8099 17.6089 46.2637 23.0566 49.0311 30.6312C49.0337 30.5624 49.0373 30.494 49.0389 30.4252C46.2303 22.8574 38.7887 17.4401 30.0577 17.4409Z" fill="#007DC8"/>
<path d="M30.0561 17.6089C21.1649 17.6089 13.612 23.2334 10.9531 30.9994C10.957 31.0623 10.961 31.1252 10.9651 31.188C13.585 23.4252 21.1455 17.7787 30.0535 17.7787C38.8313 17.7781 46.298 23.2554 49.0235 30.8374C49.0266 30.7686 49.0292 30.6998 49.0313 30.6311C46.2638 23.0566 38.8101 17.6089 30.0561 17.6089Z" fill="#007FCA"/>
<path d="M30.0502 17.9468C38.8482 17.9468 46.3278 23.4505 49.0124 31.0363C49.0163 30.97 49.0199 30.9038 49.023 30.8375C46.2976 23.2555 38.8308 17.778 30.053 17.7788C21.1452 17.7788 13.5845 23.4253 10.9648 31.1881C10.9688 31.2505 10.972 31.3131 10.9766 31.3753C13.5567 23.6149 21.125 17.9468 30.0502 17.9468Z" fill="#0080CB"/>
<path d="M30.0501 17.9468C21.125 17.9468 13.5566 23.6149 10.9766 31.375C10.981 31.4342 10.9868 31.493 10.9916 31.5521C13.5348 23.8019 21.1102 18.1166 30.0483 18.1166C38.8689 18.116 46.3575 23.6467 48.9995 31.235C49.0041 31.1689 49.0083 31.1026 49.0121 31.0362C46.3277 23.4505 38.8481 17.9468 30.0501 17.9468Z" fill="#0082CC"/>
<path d="M30.0462 18.287C38.8869 18.2864 46.3863 23.8439 48.9868 31.4331C48.992 31.3675 48.9958 31.3015 49.0002 31.2357C46.3581 23.6475 38.8693 18.1166 30.049 18.1172C21.1108 18.1172 13.5354 23.8023 10.9922 31.5527C10.9973 31.6127 11.0026 31.6724 11.0082 31.7319C13.5134 23.9901 21.0946 18.287 30.0462 18.287Z" fill="#0084CD"/>
<path d="M30.0458 18.2866C21.094 18.2866 13.5131 23.9899 11.0078 31.7315C11.0132 31.7903 11.018 31.8491 11.024 31.9077C13.4913 24.1763 21.078 18.4546 30.0432 18.4546C38.9014 18.4546 46.4095 24.0347 48.9698 31.6201C48.9752 31.5575 48.9816 31.4953 48.9864 31.4325C46.3861 23.8435 38.8866 18.2858 30.0458 18.2866Z" fill="#0086CF"/>
<path d="M30.0418 18.6246C38.9172 18.6238 46.4337 24.2247 48.954 31.8051C48.9597 31.7435 48.9652 31.6818 48.9704 31.6201C46.4099 24.0347 38.9018 18.4546 30.0436 18.4546C21.0784 18.4546 13.4917 24.1763 11.0244 31.9075C11.0304 31.9651 11.0376 32.0221 11.0442 32.0795C13.4743 24.3615 21.0646 18.6246 30.0418 18.6246Z" fill="#0088D0"/>
<path d="M30.0415 18.625C21.0643 18.625 13.474 24.3619 11.0439 32.0801C11.0501 32.1361 11.0565 32.1921 11.0631 32.2483C13.4564 24.5445 21.0507 18.793 30.0389 18.793C38.9307 18.793 46.4549 24.4163 48.9345 31.9899C48.9412 31.9285 48.9476 31.867 48.9537 31.8053C46.4333 24.2251 38.9169 18.6242 30.0415 18.625Z" fill="#008AD2"/>
<path d="M30.0365 18.9626C38.9432 18.962 46.4738 24.6043 48.9142 32.1696C48.9213 32.1096 48.9282 32.0497 48.9348 31.9898C46.4552 24.4161 38.931 18.793 30.0393 18.793C21.0513 18.793 13.4567 24.5445 11.0635 32.248C11.07 32.3031 11.0767 32.3581 11.0837 32.413C13.4407 24.7267 21.0389 18.9626 30.0365 18.9626Z" fill="#008CD3"/>
<path d="M30.036 18.9624C21.0384 18.9624 13.4401 24.7265 11.083 32.4127C11.09 32.4669 11.0982 32.5205 11.1056 32.5745C13.4273 24.9065 21.0276 19.1304 30.0332 19.1304C38.9558 19.1304 46.4931 24.7931 48.8934 32.3473C48.901 32.2883 48.9068 32.2287 48.9138 32.1693C46.4733 24.6043 38.9428 18.9618 30.036 18.9624Z" fill="#008FD4"/>
<path d="M30.0312 19.2989C38.9672 19.2989 46.5086 24.9782 48.8694 32.5201C48.8772 32.4627 48.886 32.4055 48.8932 32.3477C46.4932 24.7934 38.9556 19.1309 30.0331 19.1309C21.0277 19.1309 13.4271 24.907 11.1055 32.5749C11.1128 32.6292 11.1203 32.6832 11.1281 32.7369C13.4127 25.0872 21.0149 19.2989 30.0312 19.2989Z" fill="#0090D5"/>
<path d="M30.0321 19.2988C21.0157 19.2988 13.4138 25.0871 11.1289 32.7367C11.1365 32.7894 11.1444 32.8419 11.1525 32.8943C13.4026 25.2669 21.0059 19.4688 30.0285 19.4688C38.9769 19.4682 46.5242 25.1629 48.8465 32.6907C48.8547 32.6339 48.8627 32.577 48.8703 32.5201C46.5092 24.9781 38.9681 19.2988 30.0321 19.2988Z" fill="#0092D7"/>
<path d="M30.0257 19.6376C38.9885 19.637 46.5399 25.3501 48.8215 32.8628C48.8303 32.8056 48.8379 32.748 48.8463 32.6906C46.5241 25.1629 38.9767 19.4682 30.0283 19.4688C21.0057 19.4688 13.4024 25.2671 11.1523 32.8942C11.1606 32.9449 11.1689 32.9955 11.1773 33.046C13.3934 25.4429 20.9979 19.6376 30.0257 19.6376Z" fill="#0094D8"/>
<path d="M30.0249 19.6377C20.997 19.6377 13.3926 25.443 11.1768 33.0462C11.1849 33.0968 11.1933 33.1474 11.202 33.198C13.3832 25.6206 20.9886 19.8077 30.0231 19.8077C38.9947 19.8063 46.5489 25.5312 48.7941 33.024C48.8027 32.9702 48.8125 32.9168 48.8207 32.863C46.5393 25.3502 38.9877 19.6371 30.0249 19.6377Z" fill="#0096D9"/>
<path d="M30.0197 19.9768C39.0033 19.9768 46.5609 25.7155 48.7667 33.1899C48.776 33.1347 48.7852 33.0794 48.7943 33.0239C46.5491 25.5311 38.9949 19.8062 30.0233 19.8076C20.9887 19.8076 13.3834 25.6203 11.2021 33.1979C11.2104 33.2476 11.2189 33.2974 11.2277 33.3473C13.3754 25.7959 20.9805 19.9768 30.0197 19.9768Z" fill="#0099DB"/>
<path d="M30.0195 19.9766C20.9803 19.9766 13.3752 25.7957 11.2275 33.3472C11.237 33.3975 11.2467 33.4477 11.2565 33.4978C13.3686 25.9727 20.9727 20.1456 30.0187 20.1456C39.0113 20.1448 46.5707 25.8943 48.7397 33.3468C48.7489 33.2946 48.7579 33.2422 48.7667 33.1898C46.5607 25.7153 39.0031 19.9766 30.0195 19.9766Z" fill="#009BDC"/>
<path d="M30.0156 20.3143C39.0156 20.3135 46.5781 26.073 48.7104 33.5018C48.7202 33.45 48.7308 33.3986 48.74 33.3468C46.5709 25.8942 39.0116 20.1447 30.019 20.1455C20.973 20.1455 13.3689 25.9726 11.2568 33.4978C11.2659 33.5462 11.2752 33.5945 11.2846 33.6428C13.3633 26.1466 20.9658 20.3143 30.0156 20.3143Z" fill="#009DDE"/>
<path d="M30.0159 20.3145C20.9662 20.3145 13.3638 26.1468 11.2852 33.6427C11.2946 33.6907 11.3032 33.7389 11.3132 33.7867C13.358 26.321 20.9598 20.4837 30.0131 20.4837C39.0237 20.4837 46.5865 26.2546 48.6801 33.6605C48.6904 33.6077 48.7005 33.5549 48.7105 33.5019C46.5783 26.0734 39.0159 20.3137 30.0159 20.3145Z" fill="#00A0DF"/>
<path d="M30.0099 20.6509C39.0299 20.6509 46.5942 26.435 48.6484 33.8172C48.6591 33.7652 48.6695 33.713 48.6797 33.6608C46.586 26.2548 39.0231 20.4839 30.0127 20.4839C20.9591 20.4839 13.3575 26.3214 11.3125 33.787C11.3219 33.8332 11.3327 33.8788 11.3425 33.9248C13.3553 26.4906 20.9545 20.6509 30.0099 20.6509Z" fill="#00A2E0"/>
<path d="M30.0101 20.6509C20.955 20.6509 13.3556 26.4908 11.3428 33.9247L11.3728 34.0627C13.3536 26.663 20.9514 20.8215 30.0084 20.8215C39.0345 20.8207 46.5981 26.611 48.6167 33.9641C48.6273 33.9149 48.6385 33.8661 48.6487 33.8169C46.5945 26.4348 39.0301 20.6509 30.0101 20.6509Z" fill="#00A4E1"/>
<path d="M30.0058 20.9906C39.0376 20.9906 46.602 26.7873 48.585 34.1114C48.5959 34.0625 48.6066 34.0135 48.617 33.9644C46.5984 26.6111 39.0348 20.821 30.0086 20.8218C20.9516 20.8218 13.3539 26.6633 11.373 34.063C11.3829 34.1097 11.393 34.1563 11.4034 34.2028C13.3499 26.8357 20.9456 20.9906 30.0058 20.9906Z" fill="#00A6E3"/>
<path d="M30.0057 20.9902C20.9453 20.9902 13.3498 26.8354 11.4033 34.2023C11.4137 34.2467 11.4242 34.291 11.4347 34.3353C13.3496 27.004 20.9409 21.1584 30.0031 21.1584C39.0411 21.1584 46.6062 26.9616 48.5529 34.2561C48.5641 34.2079 48.5741 34.1595 48.5849 34.1111C46.6018 26.787 39.0375 20.9902 30.0057 20.9902Z" fill="#00A8E4"/>
<path d="M30.0011 21.3272C39.0451 21.3272 46.6075 27.1369 48.5175 34.4001C48.5291 34.3521 48.5415 34.3043 48.5527 34.2559C46.6061 26.9613 39.0409 21.1582 30.0029 21.1582C20.9408 21.1582 13.3494 27.0039 11.4346 34.3351C11.4455 34.3804 11.4565 34.4255 11.4676 34.4705C13.3498 27.1753 20.9386 21.3272 30.0011 21.3272Z" fill="#00ABE5"/>
<path d="M30.0013 21.3276C20.9388 21.3276 13.3502 27.1758 11.4678 34.4709C11.4783 34.5146 11.489 34.5583 11.4998 34.6019C13.3504 27.344 20.9344 21.4974 29.9987 21.4974C39.0471 21.4974 46.6091 27.3124 48.4827 34.5443C48.4946 34.4966 48.5062 34.4486 48.5177 34.4003C46.6077 27.1374 39.0453 21.3276 30.0013 21.3276Z" fill="#00ADE7"/>
<path d="M29.9954 21.6666C39.0498 21.6666 46.6107 27.4875 48.4476 34.6856C48.4596 34.6388 48.4704 34.5914 48.482 34.5444C46.6083 27.3125 39.0464 21.4976 29.998 21.4976C20.9338 21.4976 13.3499 27.3441 11.499 34.602C11.51 34.646 11.521 34.69 11.5322 34.7338C13.3501 27.5135 20.9308 21.6666 29.9954 21.6666Z" fill="#00B0E8"/>
<path d="M29.9962 21.6665C20.9316 21.6665 13.3508 27.5134 11.5332 34.7338C11.544 34.7758 11.556 34.8174 11.567 34.8592C13.3546 27.679 20.9306 21.8353 29.9944 21.8353C39.0506 21.8353 46.6093 27.6584 48.4122 34.8202C48.4244 34.7754 48.4365 34.7304 48.4483 34.6854C46.6115 27.4874 39.0504 21.6665 29.9962 21.6665Z" fill="#00B2E9"/>
<path d="M29.991 22.0045C39.0506 22.0045 46.6069 27.8294 48.3747 34.9559C48.3873 34.9108 48.3995 34.8656 48.4115 34.8203C46.6085 27.6584 39.05 21.8354 29.9938 21.8354C20.93 21.8354 13.354 27.679 11.5664 34.8593L11.5998 34.9827C13.3576 27.8446 20.9294 22.0045 29.991 22.0045Z" fill="#11B5EB"/>
<path d="M29.9918 22.0044C20.9302 22.0044 13.3584 27.8445 11.6006 34.9827C11.6122 35.0247 11.623 35.0671 11.6348 35.1091C13.36 28.0127 20.9274 22.1744 29.99 22.1744C39.0529 22.1744 46.6073 28.0025 48.3395 35.0903C48.3518 35.0456 48.3639 35.0009 48.3757 34.9561C46.6075 27.8293 39.0513 22.0044 29.9918 22.0044Z" fill="#20B7EC"/>
<path d="M29.9856 22.342C39.0523 22.342 46.6039 28.1733 48.3001 35.2243C48.3131 35.1795 48.3259 35.1346 48.3385 35.0897C46.6065 28.0019 39.0521 22.1738 29.989 22.1738C20.9264 22.1738 13.3592 28.0121 11.6338 35.1085C11.6458 35.1502 11.6578 35.1919 11.6698 35.2335C13.3636 28.1785 20.9248 22.342 29.9856 22.342Z" fill="#25B9EE"/>
<path d="M29.9855 22.3423C20.9247 22.3423 13.3636 28.1788 11.6699 35.2339C11.6817 35.2735 11.6935 35.3133 11.7053 35.3531C13.3694 28.3426 20.9249 22.5105 29.9827 22.5105C39.0525 22.5105 46.6006 28.3446 48.2607 35.3569C48.274 35.3129 48.2871 35.2688 48.3001 35.2245C46.6036 28.1736 39.0523 22.3423 29.9855 22.3423Z" fill="#2EBCEF"/>
<path d="M29.9834 22.6657C39.0412 22.6657 46.5804 28.4678 48.2378 35.4359L48.2614 35.3567C46.6014 28.3444 39.0532 22.5103 29.9834 22.5103C20.9256 22.5103 13.3701 28.3424 11.7061 35.3529L11.7297 35.4321C13.3909 28.4656 20.937 22.6657 29.9834 22.6657Z" fill="#36BEF0"/>
<path d="M29.9835 22.666C20.9371 22.666 13.3909 28.4659 11.7295 35.4323L11.7533 35.5125C13.4107 28.5897 20.9465 22.8224 29.9833 22.8224C39.0304 22.8224 46.5602 28.5921 48.2136 35.5165C48.2216 35.4898 48.2296 35.4631 48.2376 35.4363C46.5804 28.4681 39.0412 22.666 29.9835 22.666Z" fill="#46C0F0"/>
<path d="M29.9827 22.9777C39.0187 22.9777 46.5396 28.7156 48.1893 35.5969C48.1977 35.5701 48.2051 35.5429 48.2133 35.5163C46.5598 28.592 39.0301 22.8223 29.9829 22.8223C20.9461 22.8223 13.4102 28.5896 11.7529 35.5123C11.7613 35.5397 11.7689 35.5671 11.7775 35.5943C13.4296 28.7142 20.9565 22.9777 29.9827 22.9777Z" fill="#51C2F1"/>
<path d="M29.9829 22.978C20.9567 22.978 13.4298 28.7147 11.7773 35.5947C11.7851 35.6201 11.7937 35.6451 11.8015 35.6703C13.4532 28.8351 20.9695 23.1326 29.9829 23.1326C39.0061 23.1326 46.5168 28.8367 48.1647 35.6741C48.1731 35.6483 48.1813 35.6227 48.1895 35.5973C46.5398 28.7159 39.0189 22.978 29.9829 22.978Z" fill="#5AC4F1"/>
<path d="M29.9831 23.2879C38.9941 23.2879 46.4945 28.9582 48.1401 35.7502L48.1649 35.6738C46.5171 28.8364 39.0063 23.1323 29.9831 23.1323C20.9697 23.1323 13.4534 28.835 11.8018 35.67L11.8266 35.7464C13.4758 28.956 20.9817 23.2879 29.9831 23.2879Z" fill="#65C7F2"/>
<path d="M29.9827 23.2881C20.9814 23.2881 13.4754 28.9562 11.8262 35.7467L11.8512 35.8233C13.4984 29.0786 20.9936 23.4437 29.9827 23.4437C38.9807 23.4437 46.4711 29.0816 48.1143 35.8287L48.1397 35.7503C46.4941 28.9584 38.9937 23.2881 29.9827 23.2881Z" fill="#6DC9F3"/>
<path d="M29.9831 23.599C38.9681 23.599 46.4483 29.2007 48.0903 35.9034L48.1147 35.8284C46.4717 29.0813 38.9811 23.4434 29.9831 23.4434C20.9939 23.4434 13.4988 29.0783 11.8516 35.8228L11.8764 35.8994C13.5218 29.1991 21.0061 23.599 29.9831 23.599Z" fill="#74CBF3"/>
<path d="M29.9827 23.5986C21.0058 23.5986 13.5214 29.1987 11.876 35.8993L11.9008 35.9755C13.5438 29.3199 21.0178 23.7532 29.9827 23.7532C38.9559 23.7532 46.4255 29.3214 48.0653 35.9791L48.0901 35.9031C46.4479 29.2003 38.9677 23.5986 29.9827 23.5986Z" fill="#7DCDF4"/>
<path d="M29.9843 23.9098C38.9427 23.9098 46.4025 29.4435 48.0407 36.0559C48.0491 36.0305 48.0575 36.005 48.0659 35.9793C46.4261 29.3213 38.9565 23.7534 29.9833 23.7534C21.0183 23.7534 13.5444 29.3201 11.9014 35.9757C11.9096 36.0013 11.918 36.0269 11.9264 36.0525C13.568 29.4423 21.0312 23.9098 29.9843 23.9098Z" fill="#84D0F4"/>
<path d="M29.9837 23.9097C21.0304 23.9097 13.5672 29.4422 11.9258 36.0521C11.9343 36.0766 11.9429 36.1011 11.9516 36.1255C13.5932 29.562 21.0444 24.0659 29.9827 24.0659C38.9277 24.0659 46.3755 29.5634 48.0141 36.1291C48.0225 36.1045 48.0317 36.0803 48.0399 36.0555C46.4019 29.4436 38.9421 23.9097 29.9837 23.9097Z" fill="#8BD2F5"/>
<path d="M29.9841 24.22C38.9149 24.22 46.3516 29.6829 47.9887 36.2033L48.0147 36.1297C46.376 29.5639 38.9283 24.0664 29.9833 24.0664C21.0449 24.0664 13.594 29.5623 11.9521 36.126L11.9775 36.1985C13.6188 29.6813 21.0591 24.22 29.9841 24.22Z" fill="#93D4F5"/>
<path d="M29.9841 24.2202C21.0589 24.2202 13.6188 29.6817 11.9775 36.1987L12.0033 36.2719C13.6444 29.8013 21.0729 24.3766 29.9839 24.3766C38.8999 24.3766 46.3254 29.8037 47.9627 36.2769C47.9713 36.2525 47.9799 36.228 47.9885 36.2035C46.3516 29.6831 38.9149 24.2202 29.9841 24.2202Z" fill="#99D6F6"/>
<path d="M29.9835 24.5319C38.8841 24.5319 46.2986 29.9228 47.9369 36.3487L47.9623 36.2767C46.325 29.8034 38.8995 24.3765 29.9835 24.3765C21.0723 24.3765 13.644 29.8014 12.0029 36.2717C12.0115 36.2962 12.0201 36.3206 12.0287 36.3449C13.6698 29.9206 21.0857 24.5319 29.9835 24.5319Z" fill="#A0D9F7"/>
<path d="M29.9841 24.5317C21.0861 24.5317 13.6701 29.9204 12.0293 36.3448C12.0377 36.3692 12.0462 36.3935 12.0549 36.4178C13.6957 30.04 21.0999 24.6863 29.9833 24.6863C38.8708 24.6863 46.2742 30.0424 47.9112 36.423C47.92 36.3983 47.9287 36.3735 47.9374 36.3486C46.2992 29.9226 38.8846 24.5317 29.9841 24.5317Z" fill="#A6DBF7"/>
<path d="M29.983 24.8419C38.8558 24.8419 46.2478 30.1618 47.8852 36.4958C47.8937 36.4718 47.9023 36.4476 47.911 36.4232C46.2738 30.0426 38.8706 24.6865 29.983 24.6865C21.0997 24.6865 13.6955 30.0402 12.0547 36.418C12.0635 36.4422 12.0715 36.4668 12.0805 36.4908C13.7211 30.1594 21.1135 24.8419 29.983 24.8419Z" fill="#ABDDF8"/>
<path d="M29.9826 24.8423C21.1131 24.8423 13.7207 30.1598 12.0801 36.4911C12.0887 36.5142 12.0975 36.5373 12.1063 36.5603C13.7497 30.277 21.1301 24.9979 29.9834 24.9979C38.8398 24.9979 46.2188 30.2802 47.858 36.5667C47.8668 36.5433 47.8757 36.5197 47.8848 36.4961C46.2474 30.1622 38.8554 24.8423 29.9826 24.8423Z" fill="#B2E0F8"/>
<path d="M29.9836 25.1532C38.825 25.1532 46.1915 30.3975 47.8318 36.6356L47.8582 36.5664C46.2189 30.2797 38.84 24.9976 29.9836 24.9976C21.1302 24.9976 13.7499 30.2767 12.1064 36.56C12.1151 36.5831 12.1238 36.6062 12.1326 36.6294C13.7775 30.3943 21.1454 25.1532 29.9836 25.1532Z" fill="#B7E2F9"/>
<path d="M29.9836 25.1533C21.1454 25.1533 13.7774 30.3944 12.1328 36.6296L12.16 36.701C13.8054 30.5124 21.1602 25.3079 29.9836 25.3079C38.8079 25.3079 46.1629 30.5146 47.8051 36.706L47.8317 36.6358C46.1915 30.3974 38.8249 25.1533 29.9836 25.1533Z" fill="#BCE4F9"/>
<path d="M29.9837 25.4632C38.7923 25.4632 46.1342 30.6333 47.7785 36.7762L47.8053 36.7056C46.163 30.5143 38.8081 25.3076 29.9837 25.3076C21.1603 25.3076 13.8054 30.5121 12.1602 36.7006L12.1864 36.7694C13.8342 30.6305 21.1757 25.4632 29.9837 25.4632Z" fill="#C1E5FA"/>
<path d="M29.9839 25.4629C21.1757 25.4629 13.8342 30.6302 12.1865 36.7693C12.1952 36.7925 12.2041 36.8159 12.2131 36.8393C13.8626 30.7476 21.1921 25.6185 29.9841 25.6185C38.7777 25.6185 46.107 30.7506 47.7522 36.8457L47.7788 36.7759C46.1346 30.633 38.7927 25.4629 29.9839 25.4629Z" fill="#C7E8FA"/>
<path d="M29.9837 25.7743C38.76 25.7743 46.0776 30.869 47.7252 36.9165C47.7341 36.893 47.7431 36.8695 47.752 36.8459C46.1066 30.7508 38.7774 25.6187 29.9838 25.6187C21.1921 25.6187 13.8625 30.7478 12.2129 36.8395C12.2218 36.8633 12.2309 36.8872 12.2401 36.9111C13.8905 30.8666 21.2069 25.7743 29.9837 25.7743Z" fill="#CCEAFB"/>
<path d="M29.9838 25.7739C21.2068 25.7739 13.8907 30.8662 12.2402 36.911C12.249 36.933 12.2579 36.955 12.2668 36.9772C13.9209 30.9822 21.224 25.9295 29.9838 25.9295C38.7434 25.9295 46.0473 30.9836 47.6979 36.9836L47.7253 36.9163C46.0779 30.8686 38.7604 25.7739 29.9838 25.7739Z" fill="#D0ECFB"/>
<path d="M29.9836 26.0853C38.7253 26.0853 46.0159 31.1008 47.6701 37.0513C47.6793 37.0289 47.6885 37.0064 47.6977 36.9837C46.0471 30.9838 38.7431 25.9297 29.9836 25.9297C21.224 25.9297 13.9206 30.9826 12.2666 36.9773C12.2758 36.9997 12.285 37.0222 12.2942 37.0449C13.9518 31.098 21.241 26.0853 29.9836 26.0853Z" fill="#D6EEFB"/>
<path d="M29.9843 26.085C21.2417 26.085 13.9526 31.0977 12.2949 37.0448L12.3223 37.112C13.9834 31.2149 21.2587 26.2406 29.9843 26.2406C38.7083 26.2406 45.9858 31.2177 47.6432 37.1182L47.6708 37.051C46.0166 31.1005 38.7261 26.085 29.9843 26.085Z" fill="#DBF0FC"/>
<path d="M29.9842 26.3953C38.6904 26.3953 45.9547 31.3326 47.6158 37.1857L47.6432 37.1183C45.9857 31.2178 38.7082 26.2407 29.9842 26.2407C21.2588 26.2407 13.9835 31.215 12.3223 37.1121L12.3491 37.1777C14.0141 31.33 21.2762 26.3953 29.9842 26.3953Z" fill="#E0F2FC"/>
<path d="M29.9836 26.3955C21.2754 26.3955 14.0135 31.3302 12.3486 37.1779C12.3577 37.2006 12.3669 37.2232 12.3762 37.2457C14.0447 31.4466 21.2928 26.5509 29.9836 26.5509C38.6728 26.5509 45.9233 31.4492 47.5877 37.2531L47.6151 37.1859C45.9541 31.3326 38.6898 26.3955 29.9836 26.3955Z" fill="#E5F4FD"/>
<path d="M29.9843 26.7069C38.6555 26.7069 45.893 31.5656 47.5609 37.3201C47.5701 37.2976 47.5793 37.275 47.5885 37.2525C45.924 31.4486 38.6735 26.5503 29.9843 26.5503C21.2933 26.5503 14.0454 31.446 12.377 37.2451C12.3863 37.268 12.3956 37.2909 12.405 37.3137C14.076 31.5636 21.3101 26.7069 29.9843 26.7069Z" fill="#E9F6FD"/>
<path d="M29.9837 26.707C21.3095 26.707 14.0753 31.5637 12.4043 37.3138C12.4134 37.3357 12.4226 37.3576 12.4319 37.3794C14.1075 31.6791 21.3277 26.8616 29.9837 26.8616C38.6366 26.8616 45.8602 31.6819 47.5322 37.3864L47.5602 37.3204C45.8924 31.5657 38.655 26.707 29.9837 26.707Z" fill="#EEF8FE"/>
<path d="M29.9844 27.0174C38.6179 27.0174 45.8271 31.7965 47.5041 37.4524C47.5137 37.4304 47.5233 37.4085 47.5329 37.3866C45.8609 31.6823 38.6371 26.8618 29.9844 26.8618C21.3282 26.8618 14.1083 31.6793 12.4326 37.3796C12.4425 37.402 12.4522 37.4244 12.4618 37.4466C14.1417 31.7945 21.3462 27.0174 29.9844 27.0174Z" fill="#F2FAFE"/>
<path d="M29.9835 27.0176C21.3453 27.0176 14.1408 31.7947 12.4609 37.447L12.4897 37.5124C14.1742 31.9107 21.3643 27.173 29.9835 27.173C38.5973 27.173 45.7924 31.9115 47.4752 37.517L47.5034 37.4526C45.8262 31.7967 38.6171 27.0176 29.9835 27.0176Z" fill="#F7FBFE"/>
<path d="M29.9842 27.3275C38.581 27.3275 45.7605 32.0271 47.4461 37.5845L47.4757 37.5169C45.7929 31.9113 38.598 27.1729 29.984 27.1729C21.3648 27.1729 14.1747 31.9105 12.4902 37.5123L12.5184 37.5767C14.2087 32.0243 21.3842 27.3275 29.9842 27.3275Z" fill="#FCFEFF"/>
<path d="M29.984 41.2417C24.5101 41.2437 19.6084 42.0153 16.3291 43.2309L16.3577 43.2601C19.6326 42.0559 24.5229 41.2909 29.984 41.2891C35.4497 41.2891 40.3382 42.0561 43.6091 43.2615L43.6375 43.2325C40.362 42.0153 35.4623 41.2417 29.984 41.2417Z" fill="white"/>
<path d="M16.3008 43.2019L16.3292 43.2309C19.6084 42.0153 24.5101 41.2435 29.9841 41.2417C35.4624 41.2417 40.3621 42.0153 43.6375 43.2327L43.6659 43.2035C40.3855 41.9743 35.4742 41.1929 29.9841 41.1929C24.4967 41.1949 19.5846 41.9745 16.3008 43.2019Z" fill="white"/>
<path d="M29.9841 41.1436C24.4842 41.1464 19.5611 41.9338 16.2725 43.1728L16.3009 43.202C19.5845 41.9746 24.4968 41.195 29.9841 41.193C35.4742 41.193 40.3853 41.9744 43.666 43.2036C43.6755 43.1937 43.6851 43.1839 43.6948 43.1742C40.4099 41.9332 35.488 41.1436 29.9841 41.1436Z" fill="white"/>
<path d="M16.2441 43.1438C16.2535 43.1538 16.263 43.1636 16.2727 43.173C19.5614 41.934 24.4845 41.1464 29.9844 41.1438C35.4883 41.1438 40.41 41.9334 43.6949 43.1742L43.7235 43.145C40.4342 41.8922 35.5009 41.0962 29.9844 41.0962C24.4713 41.0982 19.5368 41.8924 16.2441 43.1438Z" fill="white"/>
<path d="M29.9839 41.0464C24.4584 41.0484 19.5125 41.851 16.2148 43.1142L16.2436 43.1434C19.5363 41.892 24.471 41.0978 29.9839 41.096C35.5004 41.096 40.4337 41.892 43.723 43.1448C43.7325 43.1348 43.742 43.1251 43.7516 43.1156C40.4575 41.8508 35.5128 41.0464 29.9839 41.0464Z" fill="white"/>
<path d="M16.1865 43.0856C16.1959 43.0952 16.2053 43.1048 16.2147 43.1146C19.5124 41.8516 24.4581 41.0487 29.9838 41.0467C35.5127 41.0467 40.4572 41.8512 43.7513 43.116L43.7799 43.0868C40.481 41.8102 35.5253 40.9985 29.9838 40.9985C24.4455 41.0001 19.4886 41.8104 16.1865 43.0856Z" fill="white"/>
<path d="M29.9837 40.9502C24.4327 40.9516 19.4656 41.7692 16.1592 43.0558L16.1866 43.085C19.4886 41.8098 24.4455 40.9996 29.9837 40.9976C35.5252 40.9976 40.4809 41.8094 43.7797 43.0858L43.8069 43.0566C40.5037 41.7694 35.5372 40.9502 29.9837 40.9502Z" fill="white"/>
<path d="M16.1318 43.0267C16.1409 43.0366 16.15 43.0464 16.159 43.0561C19.4655 41.7693 24.4326 40.9519 29.9835 40.9505C35.537 40.9505 40.5035 41.7697 43.807 43.0573L43.8342 43.0281C40.5265 41.7285 35.5498 40.9019 29.9837 40.9019C24.4204 40.9039 19.4427 41.7287 16.1318 43.0267Z" fill="white"/>
<path d="M29.9838 40.853C24.4089 40.855 19.4202 41.6874 16.1045 42.9973C16.1137 43.0073 16.1228 43.017 16.1319 43.0265C19.4428 41.7284 24.4205 40.9036 29.9836 40.9016C35.5499 40.9016 40.5264 41.7282 43.834 43.0279L43.8615 42.9985C40.5498 41.6872 35.5623 40.853 29.9838 40.853Z" fill="white"/>
<path d="M16.0781 42.9687L16.1047 42.9973C19.4204 41.6875 24.4091 40.8551 29.984 40.8531C35.5625 40.8531 40.5498 41.6873 43.8621 42.9985L43.8889 42.9697C40.5722 41.6467 35.5747 40.8047 29.984 40.8047C24.3965 40.8059 19.3978 41.6467 16.0781 42.9687Z" fill="white"/>
<path d="M29.9837 40.7563C24.3836 40.7577 19.3739 41.605 16.0498 42.9386L16.078 42.9688C19.3977 41.6468 24.3964 40.8061 29.9837 40.8047C35.5744 40.8047 40.5717 41.6468 43.8886 42.9698L43.9168 42.9394C40.5953 41.6054 35.586 40.7563 29.9837 40.7563Z" fill="white"/>
<path d="M16.0234 42.9097L16.05 42.9385C19.3741 41.6049 24.3838 40.7577 29.9839 40.7563C35.5862 40.7563 40.5953 41.6051 43.917 42.9393L43.9436 42.9107C40.6175 41.5647 35.5986 40.7085 29.9839 40.7085C24.3724 40.7099 19.3525 41.5643 16.0234 42.9097Z" fill="white"/>
<path d="M29.9842 40.6602C24.3601 40.6614 19.3296 41.5232 15.9961 42.8804C16.0052 42.8904 16.0144 42.9002 16.0237 42.9098C19.3528 41.5644 24.3727 40.71 29.9842 40.7086C35.5991 40.7086 40.6178 41.5646 43.9439 42.9108L43.9715 42.8812C40.641 41.5234 35.6107 40.6602 29.9842 40.6602Z" fill="white"/>
<path d="M15.9688 42.8514L15.9956 42.8804C19.329 41.5234 24.3595 40.6614 29.9836 40.6602C35.6101 40.6602 40.6402 41.5234 43.9709 42.881L43.9981 42.8518C40.663 41.482 35.6223 40.6104 29.9836 40.6104C24.3479 40.6122 19.3066 41.4822 15.9688 42.8514Z" fill="white"/>
<path d="M29.9835 40.563C24.3352 40.5638 19.2839 41.4418 15.9414 42.8224L15.9686 42.8516C19.3065 41.4824 24.3478 40.6124 29.9835 40.6108C35.6222 40.6108 40.6629 41.4824 43.998 42.8522L44.0248 42.8232C40.6851 41.4418 35.6338 40.563 29.9835 40.563Z" fill="white"/>
<path d="M15.9141 42.7926C15.9231 42.8025 15.9323 42.8123 15.9415 42.822C19.2839 41.4414 24.3352 40.5634 29.9835 40.5626C35.6337 40.5626 40.685 41.4416 44.0248 42.8228L44.052 42.7936C40.7084 41.4004 35.6465 40.5142 29.9827 40.5142C24.3226 40.5148 19.2607 41.4002 15.9141 42.7926Z" fill="white"/>
<path d="M29.9828 40.4668C24.3105 40.4674 19.239 41.3602 15.8877 42.7644C15.8965 42.7739 15.9053 42.7834 15.9141 42.7928C19.2608 41.4004 24.3227 40.515 29.9828 40.5144C35.6465 40.5144 40.7084 41.4008 44.0521 42.7938L44.0787 42.765C40.73 41.3604 35.6575 40.4668 29.9828 40.4668Z" fill="white"/>
<path d="M15.8613 42.735L15.8879 42.7642C19.2392 41.36 24.3107 40.4672 29.983 40.4666C35.6577 40.4666 40.7302 41.3602 44.0791 42.765L44.1059 42.7358C40.7532 41.3188 35.6705 40.417 29.984 40.417C24.2993 40.4186 19.2168 41.3188 15.8613 42.735Z" fill="white"/>
<path d="M29.9836 40.3696C24.2873 40.3704 19.195 41.2782 15.835 42.7057C15.8436 42.7155 15.8523 42.7253 15.861 42.7351C19.2164 41.3188 24.2987 40.4186 29.9834 40.417C35.67 40.417 40.7527 41.3188 44.1053 42.7359L44.1309 42.7069C40.7733 41.2784 35.6814 40.3696 29.9836 40.3696Z" fill="white"/>
<path d="M15.8096 42.6764L15.8358 42.7056C19.1958 41.2781 24.2879 40.3703 29.9845 40.3695C35.682 40.3695 40.7739 41.2783 44.1319 42.707C44.1406 42.697 44.1494 42.687 44.1583 42.6772C40.7965 41.2371 35.6946 40.3203 29.9845 40.3203C24.2763 40.3209 19.174 41.2369 15.8096 42.6764Z" fill="white"/>
<path d="M29.9827 40.2734C24.2636 40.2742 19.1517 41.1965 15.7832 42.6475L15.8088 42.6765C19.1733 41.2371 24.2756 40.321 29.9837 40.3204C35.6938 40.3204 40.7959 41.2373 44.1576 42.6773L44.1832 42.6485C40.8163 41.1967 35.7036 40.2734 29.9827 40.2734Z" fill="white"/>
<path d="M15.7578 42.6184L15.7838 42.6476C19.1523 41.1966 24.2642 40.2743 29.9833 40.2735C35.7042 40.2735 40.8169 41.1966 44.1836 42.6486L44.21 42.6188C40.8391 41.1554 35.717 40.2231 29.9841 40.2231C24.2532 40.2239 19.1313 41.1554 15.7578 42.6184Z" fill="white"/>
<path d="M29.9831 40.1748C24.2408 40.1754 19.1091 41.1134 15.7314 42.5889L15.7576 42.6183C19.1311 41.1552 24.253 40.2238 29.9839 40.223C35.7168 40.223 40.839 41.155 44.2098 42.6187L44.236 42.5893C40.8607 41.114 35.7284 40.1748 29.9831 40.1748Z" fill="white"/>
<path d="M15.7061 42.56L15.7315 42.5888C19.1093 41.1134 24.2408 40.1754 29.9831 40.1748C35.7285 40.1748 40.8608 41.1138 44.2362 42.5892L44.2612 42.561C40.8814 41.074 35.7389 40.127 29.9831 40.127C24.2292 40.127 19.0879 41.0736 15.7061 42.56Z" fill="white"/>
<path d="M29.983 40.0786C24.2173 40.0792 19.0662 41.0326 15.6797 42.5309L15.7057 42.5601C19.0876 41.0736 24.2291 40.127 29.9828 40.127C35.7383 40.127 40.8808 41.074 44.2609 42.5611L44.2873 42.5315C40.9026 41.0326 35.7501 40.0786 29.983 40.0786Z" fill="white"/>
<path d="M15.6533 42.5011L15.6795 42.5307C19.066 41.0325 24.2171 40.0791 29.9828 40.0785C35.7499 40.0785 40.9024 41.0327 44.2873 42.5313L44.3137 42.5015C40.9248 40.9915 35.7623 40.0303 29.983 40.0303C24.2059 40.0303 19.0444 40.9913 15.6533 42.5011Z" fill="white"/>
<path d="M29.9828 39.981C24.1947 39.981 19.0234 40.9502 15.6279 42.472L15.6533 42.5008C19.0444 40.991 24.2059 40.03 29.9828 40.03C35.7621 40.03 40.9246 40.9914 44.3135 42.5012L44.3389 42.4726C40.945 40.9504 35.7731 39.981 29.9828 39.981Z" fill="white"/>
<path d="M15.6025 42.443C15.6112 42.453 15.6199 42.4628 15.6285 42.4722C19.024 40.9504 24.1953 39.9812 29.9834 39.9812C35.7737 39.9812 40.9457 40.9506 44.3395 42.4728L44.3655 42.4436C40.9675 40.9098 35.7855 39.9336 29.9834 39.9336C24.1831 39.9336 19.002 40.9096 15.6025 42.443Z" fill="white"/>
<path d="M29.9834 39.8843C24.1713 39.8849 18.9808 40.8689 15.5771 42.4143L15.6023 42.4429C19.002 40.9095 24.1831 39.9335 29.9832 39.9335C35.7854 39.9335 40.9673 40.9097 44.3653 42.4435L44.3909 42.4145C40.9889 40.8689 35.7972 39.8843 29.9834 39.8843Z" fill="white"/>
<path d="M15.5518 42.3848C15.5602 42.3948 15.5686 42.4047 15.5772 42.4144C18.9808 40.8688 24.1713 39.8849 29.9834 39.8843C35.7972 39.8843 40.9889 40.869 44.3911 42.4146C44.3994 42.4049 44.4078 42.3951 44.4163 42.3854C41.0093 40.8284 35.8084 39.8359 29.9834 39.8359C24.1607 39.8359 18.9602 40.8282 15.5518 42.3848Z" fill="white"/>
<path d="M29.9829 39.7886C24.1487 39.7886 18.939 40.7874 15.5264 42.3558L15.5512 42.385C18.9596 40.8284 24.1601 39.8362 29.9829 39.8362C35.8078 39.8362 41.0087 40.8286 44.4157 42.3856L44.4408 42.356C41.0293 40.7876 35.8188 39.7886 29.9829 39.7886Z" fill="white"/>
<path d="M15.5205 42.3479L15.5271 42.3557C18.9398 40.7872 24.1495 39.7884 29.9836 39.7884C35.8195 39.7884 41.03 40.7874 44.4415 42.3559L44.4497 42.3461C41.0284 40.7698 35.8183 39.7666 29.9864 39.7666C24.1535 39.7666 18.943 40.7708 15.5205 42.3479Z" fill="white"/>
<path d="M29.9896 39.7461C24.1576 39.7461 18.9463 40.7547 15.5137 42.3401L15.5203 42.3479C18.9429 40.7707 24.1532 39.7667 29.986 39.7667C35.8179 39.7667 41.028 40.7701 44.4493 42.3461L44.4577 42.3363C41.0262 40.7531 35.8171 39.7461 29.9896 39.7461Z" fill="white"/>
<path d="M15.5068 42.3317L15.5138 42.3399C18.9465 40.7545 24.1578 39.7459 29.9897 39.7459C35.8172 39.7459 41.0264 40.7529 44.4578 42.3361L44.4658 42.3267C41.024 40.7359 35.8156 39.7251 29.9915 39.7251C24.1618 39.7253 18.9495 40.7381 15.5068 42.3317Z" fill="white"/>
<path d="M29.9935 39.7026C24.1648 39.7026 18.9517 40.7209 15.499 42.3235L15.506 42.3317C18.9487 40.7379 24.161 39.7252 29.9907 39.7252C35.815 39.7252 41.0231 40.7361 44.465 42.3269L44.4738 42.3165C41.0223 40.7179 35.8154 39.7026 29.9935 39.7026Z" fill="white"/>
<path d="M15.4922 42.3146L15.4998 42.3236C18.9523 40.721 24.1656 39.7028 29.9943 39.7028C35.8162 39.7028 41.0231 40.718 44.4746 42.3164L44.483 42.3062C41.0215 40.7004 35.8152 39.6812 29.9959 39.6812C24.168 39.6814 18.9543 40.7042 15.4922 42.3146Z" fill="white"/>
<path d="M29.9982 39.6606C24.1707 39.6606 18.9568 40.6879 15.4854 42.3071L15.4918 42.3145C18.954 40.7039 24.1675 39.6812 29.9954 39.6812C35.8148 39.6812 41.0211 40.7005 44.4825 42.3063L44.4901 42.2973C41.0197 40.6837 35.8146 39.6606 29.9982 39.6606Z" fill="white"/>
<path d="M15.4785 42.2984L15.4859 42.307C18.9574 40.6876 24.1713 39.6606 29.9988 39.6606C35.8151 39.6606 41.0202 40.6836 44.4907 42.2974L44.4997 42.2868C41.0196 40.666 35.8157 39.6392 30.0014 39.6392C24.1747 39.639 18.9596 40.671 15.4785 42.2984Z" fill="white"/>
<path d="M30.0026 39.6172C24.1771 39.6172 18.961 40.6542 15.4707 42.2894L15.4781 42.2982C18.9592 40.6706 24.1743 39.6388 30.0008 39.6388C35.8151 39.6388 41.019 40.6658 44.4991 42.2864L44.5075 42.2764C41.0178 40.6486 35.8147 39.6172 30.0026 39.6172Z" fill="white"/>
<path d="M15.4639 42.2817L15.4707 42.2897C18.9611 40.6543 24.177 39.6175 30.0026 39.6175C35.8147 39.6175 41.0178 40.6489 44.5073 42.2769L44.5157 42.2669C41.0164 40.6317 35.8143 39.5967 30.005 39.5967C24.1802 39.5969 18.9641 40.6381 15.4639 42.2817Z" fill="white"/>
<path d="M30.0081 39.5762C24.1836 39.5762 18.9661 40.622 15.457 42.2732L15.464 42.2816C18.9643 40.6378 24.1804 39.5966 30.0053 39.5966C35.8146 39.5966 41.0167 40.6316 44.516 42.2668L44.5244 42.2566C41.0165 40.6148 35.815 39.5762 30.0081 39.5762Z" fill="white"/>
<path d="M15.4482 42.2633L15.4568 42.2733C18.9657 40.6218 24.1834 39.5762 30.0079 39.5762C35.8149 39.5762 41.0166 40.6148 44.5244 42.2567L44.5338 42.2455C41.0164 40.5964 35.8143 39.5542 30.0097 39.5542C24.1858 39.5542 18.9667 40.6038 15.4482 42.2633Z" fill="white"/>
<path d="M30.0125 39.5337C24.189 39.5337 18.9691 40.5879 15.4414 42.2549L15.4482 42.2631C18.9667 40.6037 24.1858 39.5541 30.0097 39.5541C35.8142 39.5541 41.0163 40.5963 44.5338 42.2453L44.5424 42.2349C41.0165 40.5797 35.815 39.5337 30.0125 39.5337Z" fill="white"/>
<path d="M15.4346 42.2467L15.442 42.2553C18.9694 40.5882 24.1895 39.534 30.0131 39.534C35.8154 39.534 41.0171 40.5798 44.5432 42.2355L44.5522 42.2249C41.0165 40.5622 35.8158 39.5122 30.0157 39.5122C24.1923 39.5122 18.9712 40.5714 15.4346 42.2467Z" fill="white"/>
<path d="M30.0189 39.4907C24.1955 39.4907 18.9722 40.5543 15.4268 42.2376L15.4344 42.2466C18.971 40.5713 24.1921 39.5121 30.0153 39.5121C35.8154 39.5121 41.0161 40.5619 44.5517 42.2248C44.5549 42.221 44.5581 42.2172 44.5611 42.2134C41.0165 40.5441 35.8158 39.4907 30.0189 39.4907Z" fill="white"/>
<path d="M15.4189 42.2283L15.4271 42.2379C18.9726 40.5546 24.1959 39.491 30.0192 39.491C35.8162 39.491 41.0171 40.5444 44.5615 42.2137L44.5705 42.2031C41.0177 40.527 35.8166 39.4702 30.02 39.4702C24.1981 39.4702 18.9734 40.5378 15.4189 42.2283Z" fill="white"/>
<path d="M30.0231 39.4473C24.2001 39.4473 18.9736 40.5195 15.4102 42.2181L15.4184 42.2277C18.9726 40.5373 24.1975 39.4697 30.0195 39.4697C35.816 39.4697 41.0171 40.5265 44.5699 42.2025L44.5799 42.1905C41.0183 40.5077 35.8162 39.4473 30.0231 39.4473Z" fill="white"/>
<path d="M15.4023 42.2084L15.4107 42.2182C18.974 40.5196 24.2005 39.4474 30.0236 39.4474C35.8168 39.4474 41.0189 40.5078 44.5805 42.1908L44.5895 42.18C41.0193 40.4906 35.818 39.4268 30.0254 39.4268C24.2025 39.4268 18.9744 40.5024 15.4023 42.2084Z" fill="white"/>
<path d="M30.0282 39.4062C24.2055 39.4062 18.9752 40.4855 15.3945 42.1989L15.4027 42.2087C18.9748 40.5027 24.2029 39.4271 30.0258 39.4271C35.8183 39.4271 41.0196 40.4907 44.5899 42.1803L44.5991 42.1695C41.0198 40.4735 35.8189 39.4062 30.0282 39.4062Z" fill="white"/>
<path d="M15.3857 42.189L15.3941 42.1988C18.9748 40.4855 24.2051 39.4061 30.0278 39.4061C35.8188 39.4061 41.0197 40.4733 44.5985 42.1692L44.6085 42.1574C41.0211 40.4545 35.821 39.3833 30.0316 39.3833C24.2081 39.3835 18.9756 40.4677 15.3857 42.189Z" fill="white"/>
<path d="M30.0338 39.3638C24.2103 39.3638 18.9768 40.4516 15.3789 42.18L15.3863 42.189C18.9762 40.4678 24.2087 39.3836 30.0322 39.3836C35.8217 39.3836 41.0218 40.4548 44.6091 42.1576L44.6179 42.147C41.0214 40.4382 35.8211 39.3638 30.0338 39.3638Z" fill="white"/>
<path d="M15.3701 42.1709L15.3781 42.1801C18.9762 40.4517 24.2095 39.3639 30.033 39.3639C35.8201 39.3639 41.0206 40.4381 44.6171 42.1471L44.6263 42.1359C41.0218 40.4209 35.8215 39.3433 30.0356 39.3433C24.2119 39.3433 18.9772 40.4353 15.3701 42.1709Z" fill="white"/>
<path d="M30.039 39.3208C24.2137 39.3208 18.9776 40.4176 15.3623 42.1611L15.3707 42.1711C18.9776 40.4354 24.2125 39.3434 30.0364 39.3434C35.8221 39.3434 41.0226 40.421 44.6271 42.1361C44.6306 42.1321 44.6339 42.1281 44.6371 42.1241C41.0242 40.4022 35.8239 39.3208 30.039 39.3208Z" fill="white"/>
<path d="M15.3545 42.1518L15.3625 42.1612C18.9778 40.4177 24.2139 39.3209 30.0392 39.3209C35.8241 39.3209 41.0244 40.4023 44.6371 42.1244L44.6463 42.1134C41.0254 40.3849 35.8249 39.3003 30.0418 39.3003C24.2163 39.3001 18.9786 40.4009 15.3545 42.1518Z" fill="white"/>
<path d="M30.043 39.2788C24.2175 39.2788 18.978 40.384 15.3457 42.1423L15.3539 42.1519C18.978 40.401 24.2157 39.3002 30.0412 39.3002C35.8245 39.3002 41.025 40.385 44.6457 42.1133L44.6555 42.1017C41.0268 40.3672 35.8257 39.2788 30.043 39.2788Z" fill="white"/>
<path d="M15.3379 42.1327L15.3457 42.1421C18.978 40.3838 24.2173 39.2786 30.043 39.2786C35.8257 39.2786 41.0266 40.367 44.6555 42.1017L44.6651 42.0903C41.028 40.3492 35.8269 39.2578 30.0456 39.2578C24.2195 39.2578 18.9786 40.367 15.3379 42.1327Z" fill="white"/>
<path d="M30.0488 39.2363C24.2213 39.2363 18.9778 40.3492 15.3291 42.122L15.3383 42.1328C18.979 40.3672 24.2199 39.2579 30.046 39.2579C35.8273 39.2579 41.0284 40.3494 44.6655 42.0904L44.6763 42.0778C41.0312 40.3306 35.8295 39.2363 30.0488 39.2363Z" fill="white"/>
<path d="M15.3203 42.1123L15.3287 42.1223C18.9774 40.3496 24.2209 39.2366 30.0484 39.2366C35.8291 39.2366 41.0308 40.331 44.6759 42.0779C44.6792 42.074 44.6824 42.0701 44.6855 42.0663C41.0322 40.313 35.8297 39.2158 30.05 39.2158C24.2231 39.2158 18.978 40.3324 15.3203 42.1123Z" fill="white"/>
<path d="M30.0536 39.1943C24.2249 39.1943 18.978 40.3152 15.3125 42.102L15.3209 42.1122C18.9784 40.3326 24.2235 39.2159 30.0506 39.2159C35.8301 39.2159 41.0328 40.3132 44.6861 42.0664L44.6963 42.0542C41.0352 40.2952 35.8319 39.1943 30.0536 39.1943Z" fill="white"/>
<path d="M15.3027 42.0915L15.3117 42.1021C18.9772 40.3153 24.2241 39.1944 30.0528 39.1944C35.8313 39.1944 41.0347 40.2953 44.6957 42.0543L44.7059 42.0417C41.0369 40.2771 35.8329 39.1738 30.0556 39.1738C24.2259 39.1736 18.9766 40.2979 15.3027 42.0915Z" fill="white"/>
<path d="M30.0578 39.1519C24.2279 39.1519 18.9766 40.2807 15.2949 42.0813L15.3033 42.0913C18.9772 40.2977 24.2265 39.1735 30.056 39.1735C35.8333 39.1735 41.0372 40.2767 44.7063 42.0413L44.7157 42.0297C41.039 40.2587 35.8343 39.1519 30.0578 39.1519Z" fill="white"/>
<path d="M15.2861 42.071L15.2949 42.0814C18.9766 40.2806 24.2279 39.1519 30.0578 39.1519C35.8343 39.1519 41.0391 40.2588 44.7157 42.03L44.7261 42.017C41.0413 40.2406 35.8359 39.1313 30.0614 39.1313C24.2301 39.1309 18.9762 40.2632 15.2861 42.071Z" fill="white"/>
<path d="M29.9843 27.3271C21.3841 27.3271 14.2088 32.024 12.5186 37.5764C13.2282 39.1956 14.1597 40.7083 15.2862 42.0708C18.9763 40.263 24.2302 39.131 30.0615 39.131C35.8362 39.131 41.0413 40.2402 44.7262 42.0166C45.8311 40.6704 46.7462 39.1791 47.4461 37.5844C45.7606 32.0268 38.5811 27.3271 29.9843 27.3271Z" fill="white"/>
<path d="M29.9832 34.7427C23.5204 34.7427 17.5251 35.8377 12.5742 37.6919C15.5423 44.3549 22.219 48.9942 29.986 48.9942C37.7493 48.9942 44.4261 44.3523 47.3993 37.6919C42.4494 35.8377 36.4441 34.7427 29.9832 34.7427Z" fill="#007BC7"/>
</svg>
