<svg width="32" height="32" viewBox="0 0 32 32" fill="none" xmlns="http://www.w3.org/2000/svg">
<path d="M26.0007 7C27.1052 7.00012 28.0007 7.8955 28.0007 9V23C28.0007 24.1045 27.1052 24.9999 26.0007 25H12.3308C11.732 24.9999 11.1647 24.7314 10.7849 24.2686L5.04174 17.2686C4.43661 16.531 4.43661 15.469 5.04174 14.7314L10.7849 7.73145C11.1647 7.26855 11.732 7.00011 12.3308 7H26.0007ZM22.8835 12.1162C22.3954 11.6282 21.6041 11.6281 21.1159 12.1162L18.9997 14.2324L16.8835 12.1162C16.3954 11.6282 15.6041 11.6281 15.116 12.1162C14.628 12.6043 14.628 13.3957 15.116 13.8838L17.2322 16L15.116 18.1162C14.628 18.6043 14.628 19.3957 15.116 19.8838C15.6041 20.3719 16.3954 20.3718 16.8835 19.8838L18.9997 17.7676L21.1159 19.8838C21.6041 20.3719 22.3954 20.3718 22.8835 19.8838C23.3717 19.3956 23.3717 18.6044 22.8835 18.1162L20.7673 16L22.8835 13.8838C23.3717 13.3956 23.3717 12.6044 22.8835 12.1162Z" fill="#3D3D3D"/>
</svg>
