<?xml version="1.0" encoding="UTF-8"?>
<svg id="Layer_1" xmlns="http://www.w3.org/2000/svg" width="50" height="40" version="1.1" xmlns:xlink="http://www.w3.org/1999/xlink" viewBox="0 0 50 40">
  <!-- Generator: Adobe Illustrator 30.0.0, SVG Export Plug-In . SVG Version: 2.1.1 Build 123)  -->
  <defs>
    <style>
      .st0 {
        mask: url(#mask);
      }

      .st1 {
        opacity: .7;
      }

      .st2 {
        fill: #3d3d3d;
      }

      .st3 {
        fill: #f8da29;
      }
    </style>
    <mask id="mask" x="-20.6" y="-18" width="100.3" height="61.4" maskUnits="userSpaceOnUse">
      <g id="mask0_1535_3634">
        <rect class="st2" width="50" height="40" rx="4" ry="4"/>
      </g>
    </mask>
  </defs>
  <rect class="st3" width="50" height="40" rx="4" ry="4"/>
  <g class="st1">
    <g class="st0">
      <g>
        <path d="M-19.7,43.4l-.9-1.4L16.9-18l.9,1.4L-19.7,43.4Z"/>
        <path d="M-14.1,43.4l-.9-1.4L22.5-18l.9,1.4L-14.1,43.4Z"/>
        <path d="M-8.5,43.4l-.9-1.4L28.1-18l.9,1.4L-8.5,43.4Z"/>
        <path d="M-2.9,43.4l-.9-1.4L33.7-18l.9,1.4L-2.9,43.4Z"/>
        <path d="M2.8,43.4l-.9-1.4L39.4-18l.9,1.4L2.8,43.4Z"/>
        <path d="M8.4,43.4l-.9-1.4L45-18l.9,1.4L8.4,43.4Z"/>
        <path d="M14,43.4l-.9-1.4L50.6-18l.9,1.4L14,43.4Z"/>
        <path d="M19.6,43.4l-.9-1.4L56.2-18l.9,1.4L19.6,43.4Z"/>
        <path d="M25.3,43.4l-.9-1.4L61.9-18l.9,1.4L25.3,43.4Z"/>
        <path d="M30.9,43.4l-.9-1.4,37.5-60,.9,1.4L30.9,43.4Z"/>
        <path d="M36.5,43.4l-.9-1.4,37.5-60,.9,1.4-37.5,60Z"/>
        <path d="M42.1,43.4l-.9-1.4,37.5-60,.9,1.4-37.5,60Z"/>
      </g>
    </g>
  </g>
  <metadata>
    <sfw xmlns="http://ns.adobe.com/SaveForWeb/1.0/">
      <slices/>
      <sliceSourceBounds x="-20.63" y="-3.41" width="100.26" height="61.41" bottomLeftOrigin="true"/>
    </sfw>
  </metadata>
</svg>