<svg width="50" height="40" viewBox="0 0 50 40" fill="none" xmlns="http://www.w3.org/2000/svg">
<rect width="50" height="40" rx="4" fill="#3368DD"/>
<g opacity="0.7">
<mask id="mask0_1535_3634" style="mask-type:alpha" maskUnits="userSpaceOnUse" x="0" y="0" width="50" height="40">
<rect width="50" height="40" rx="4" fill="#3D3D3D"/>
</mask>
<g mask="url(#mask0_1535_3634)">
<path d="M-19.7421 43.4139L-20.6259 41.9997L16.8739 -18.0002L17.7578 -16.5859L-19.7421 43.4139Z" fill="white"/>
<path d="M-14.1171 43.4139L-15.0009 41.9997L22.4989 -18.0002L23.3828 -16.5859L-14.1171 43.4139Z" fill="white"/>
<path d="M-8.49206 43.4139L-9.37595 41.9997L28.1239 -18.0002L29.0078 -16.5859L-8.49206 43.4139Z" fill="white"/>
<path d="M-2.86706 43.4139L-3.75095 41.9997L33.7489 -18.0002L34.6328 -16.5859L-2.86706 43.4139Z" fill="white"/>
<path d="M2.75794 43.4139L1.87405 41.9997L39.3739 -18.0002L40.2578 -16.5859L2.75794 43.4139Z" fill="white"/>
<path d="M8.38294 43.4139L7.49905 41.9997L44.9989 -18.0002L45.8828 -16.5859L8.38294 43.4139Z" fill="white"/>
<path d="M14.0079 43.4139L13.1241 41.9997L50.6239 -18.0002L51.5078 -16.5859L14.0079 43.4139Z" fill="white"/>
<path d="M19.6329 43.4139L18.7491 41.9997L56.2489 -18.0002L57.1328 -16.5859L19.6329 43.4139Z" fill="white"/>
<path d="M25.2579 43.4139L24.3741 41.9997L61.8739 -18.0002L62.7578 -16.5859L25.2579 43.4139Z" fill="white"/>
<path d="M30.8829 43.4139L29.9991 41.9997L67.4989 -18.0002L68.3828 -16.5859L30.8829 43.4139Z" fill="white"/>
<path d="M36.5079 43.4139L35.6241 41.9997L73.1239 -18.0002L74.0078 -16.5859L36.5079 43.4139Z" fill="white"/>
<path d="M42.1329 43.4139L41.2491 41.9997L78.7489 -18.0002L79.6328 -16.5859L42.1329 43.4139Z" fill="white"/>
</g>
</g>
</svg>
