<svg width="60" height="60" viewBox="0 0 60 60" fill="none" xmlns="http://www.w3.org/2000/svg">
<path d="M47.0001 15C48.657 15 50.0001 16.3431 50.0001 18V42C50.0001 43.6569 48.657 45 47.0001 45H23.7267C22.8285 44.9999 21.9771 44.5977 21.4073 43.9033L11.5616 31.9033C10.6539 30.7971 10.6539 29.2029 11.5616 28.0967L21.4073 16.0967C21.9771 15.4023 22.8285 15.0001 23.7267 15H47.0001ZM41.0607 23.9395C40.4749 23.3537 39.5254 23.3537 38.9396 23.9395L35.0001 27.8789L31.0607 23.9395C30.4749 23.3537 29.5254 23.3537 28.9396 23.9395C28.3538 24.5252 28.3538 25.4748 28.9396 26.0605L32.879 30L28.9396 33.9395C28.3538 34.5252 28.3538 35.4748 28.9396 36.0605C29.5254 36.6463 30.4749 36.6463 31.0607 36.0605L35.0001 32.1211L38.9396 36.0605C39.5254 36.6463 40.4749 36.6463 41.0607 36.0605C41.6465 35.4748 41.6465 34.5252 41.0607 33.9395L37.1212 30L41.0607 26.0605C41.6465 25.4748 41.6465 24.5252 41.0607 23.9395Z" fill="#3D3D3D"/>
</svg>
