<svg width="60" height="60" viewBox="0 0 60 60" fill="none" xmlns="http://www.w3.org/2000/svg">
<path d="M43.998 46.9991C45.1025 46.9991 45.9979 47.8947 45.998 48.9991C45.998 50.1037 45.1026 50.9991 43.998 50.9991H15.998C14.8935 50.9991 13.998 50.1037 13.998 48.9991C13.9982 47.8947 14.8936 46.9991 15.998 46.9991H43.998ZM28.5703 11.5909C29.3575 10.803 30.6405 10.8031 31.4277 11.5909L45.4102 25.5919C46.6702 26.8536 45.7707 28.9991 43.9814 28.9991H37.999V40.9981C37.999 42.1027 37.1036 42.9981 35.999 42.9981H23.999C22.8945 42.9981 21.999 42.1027 21.999 40.9981V28.9991H16.0166C14.2273 28.9991 13.3278 26.8536 14.5879 25.5919L28.5703 11.5909Z" fill="#3D3D3D"/>
</svg>
