<svg width="360" height="36" viewBox="0 0 360 36" fill="none" xmlns="http://www.w3.org/2000/svg">
<path d="M92.2686 22.3628H88.3158V30.2972C88.3158 30.722 88.5102 30.9452 88.9638 30.9452H104.804V28.3892H92.5926C92.3982 28.3892 92.2686 28.2596 92.2686 28.0652V22.3628ZM97.971 10.7348V8.17158H82.6782V10.7348H97.971ZM104.163 5.38518H100.275V23.7524H104.163V5.38518ZM84.039 14.3636C84.039 17.9924 86.8254 20.354 90.3246 20.354C93.8238 20.354 96.6102 17.9852 96.6102 14.3636C96.6102 10.742 93.795 8.33718 90.3246 8.33718C86.8542 8.33718 84.039 10.7348 84.039 14.3636ZM88.287 8.50278H92.3694V4.64358H88.287V8.49558V8.50278ZM103.191 14.8172H107.921V12.1892H103.191V14.8172ZM87.927 14.2988C87.927 12.1316 88.9998 10.7348 90.3246 10.7348C91.6494 10.7348 92.6934 12.1244 92.6934 14.2988C92.6934 16.4732 91.6278 17.834 90.3246 17.834C89.0214 17.834 87.927 16.4372 87.927 14.2988ZM124.762 31.2764H128.679V22.5932C128.679 22.1396 128.449 21.9452 128.031 21.9452H111.543V24.5012H124.438C124.633 24.5012 124.762 24.6308 124.762 24.8252V31.2692V31.2764ZM124.733 15.6236H128.657V6.42198C128.657 5.96838 128.492 5.77398 128.009 5.77398H111.197V8.32998H124.417C124.611 8.32998 124.741 8.45958 124.741 8.65398V15.6164L124.733 15.6236ZM109.181 17.6972H130.789V15.0692H109.181V17.6972ZM121.911 17.0204H118.059V22.5932H121.911V17.0204ZM203.689 27.4172H224.972V24.7964H203.689V27.4172ZM216.289 18.446H212.365V25.4444H216.289V18.446ZM222.149 19.742C222.632 19.742 222.797 19.5476 222.797 19.094V6.00438H218.909V16.8548C218.909 17.0492 218.78 17.1788 218.585 17.1788H210.068C209.873 17.1788 209.744 17.0492 209.744 16.8548V6.00438H205.856V19.094C205.856 19.5476 206.021 19.742 206.504 19.742H222.149ZM208.743 12.938H219.982V10.346H208.743V12.938ZM197.237 5.38518H201.125V20.0948H197.237V5.38518ZM198.209 13.6148H192.766V11.0876H198.209V13.6148ZM273.313 5.38518H269.425V30.6212H273.313V5.38518ZM251.929 26.0924H270.461V23.4716H251.929V26.0924ZM293.429 23.7596H297.317V5.38518H293.429V23.7524V23.7596ZM290.384 8.56038V6.00438H276.97V8.56038H290.384ZM285.329 22.0388H281.377V30.2972C281.377 30.722 281.571 30.9452 282.025 30.9452H297.865V28.3892H285.653C285.459 28.3892 285.329 28.2596 285.329 28.0652V22.0388ZM319.731 9.43878V7.04118H302.3V9.43878H319.731ZM304.345 11.8652C304.345 14.6228 307.297 16.4372 310.983 16.4372C314.669 16.4372 317.621 14.6228 317.621 11.8652C317.621 9.10758 314.605 7.26438 310.983 7.26438C307.361 7.26438 304.345 9.07878 304.345 11.8652ZM308.945 7.19958H313.028V4.31958H308.945V7.19958ZM308.204 11.7068C308.204 10.346 309.435 9.43878 310.99 9.43878C312.545 9.43878 313.741 10.346 313.741 11.7068C313.741 13.0676 312.509 13.9388 310.99 13.9388C309.471 13.9388 308.204 13.0676 308.204 11.7068ZM340.697 25.1492H344.585V5.38518H340.697V25.1492ZM341.669 20.354H335.744V22.8812H341.669V20.354ZM323.295 18.8996H339.135V16.2788H323.295V18.8996ZM332.857 18.122H328.969V22.5932H332.857V18.122ZM325.181 9.89238C325.181 13.0964 327.867 15.1772 331.208 15.1772C334.549 15.1772 337.27 13.1036 337.27 9.89238C337.27 6.68118 334.549 4.57878 331.208 4.57878C327.867 4.57878 325.181 6.68838 325.181 9.89238ZM329.062 9.89238C329.062 8.17878 329.998 7.10598 331.201 7.10598C332.403 7.10598 333.339 8.17878 333.339 9.89238C333.339 11.606 332.403 12.6428 331.201 12.6428C329.998 12.6428 329.062 11.5772 329.062 9.89238ZM332.273 23.8244H328.321V30.3044C328.321 30.7292 328.515 30.9524 328.969 30.9524H345.133V28.3964H332.597C332.403 28.3964 332.273 28.2668 332.273 28.0724V23.8316V23.8244ZM156.68 19.2884H178.287V16.6604H156.68V19.2884ZM147.154 8.56038V6.00438H133.611V8.56038H147.154ZM153.958 5.38518H150.07V30.6212H153.958V5.38518ZM162.865 5.64438H158.948V13.5788C158.948 14.0324 159.113 14.2268 159.596 14.2268H176.638V11.6636H163.196C163.001 11.6636 162.872 11.534 162.872 11.3396V5.64438H162.865ZM246.838 5.38518H242.95V30.6212H246.838V5.38518ZM245.866 14.4932H250.597V11.8652H245.866V14.4932ZM300.262 20.1308H321.869V17.51H300.262V20.1308ZM194.775 16.5668C191.247 15.6596 189.332 13.1036 189.332 9.50358V7.53078H185.537V8.82678C185.537 14.3636 188.842 18.0572 194.768 19.1588V16.5668H194.775ZM180.065 19.4828C185.998 18.3812 189.267 14.6876 189.267 9.15078V8.17878H185.48V9.82758C185.48 13.4204 183.601 15.9836 180.065 16.8908V19.4828ZM194.033 8.56038V6.00438H180.944V8.56038H194.033ZM291.255 17.9564C287.626 17.1788 285.524 14.558 285.524 10.8284V7.68918H281.737V10.1516C281.737 15.818 285.236 19.5764 291.262 20.5484V17.9564H291.255ZM276.257 20.8076C282.183 19.706 285.459 16.0124 285.459 10.4756V8.33718H281.665V11.1524C281.665 14.7452 279.785 17.3084 276.257 18.2156V20.8076ZM148.061 20.2244C144.433 19.4468 142.229 15.8468 142.229 12.1244V7.68918H138.442V11.4476C138.442 17.114 142.035 21.8444 148.061 22.8164V20.2244ZM132.862 22.7516C138.788 21.65 142.157 17.3084 142.157 11.7716V8.33718H138.37V12.4484C138.37 16.0412 136.397 19.2524 132.862 20.1596V22.7516ZM240.941 20.2244C237.313 19.4468 235.109 15.53 235.109 11.8004V5.68038H231.322V11.1236C231.322 16.79 234.915 21.8444 240.941 22.8164V20.2244ZM225.749 22.7516C231.675 21.65 235.052 16.9844 235.052 11.4476V5.68038H231.257V12.1244C231.257 15.7172 229.285 19.2524 225.749 20.1596V22.7516ZM262.001 18.7052H258.113V24.278H262.001V18.7052ZM267.545 10.7348V8.17158H252.577V10.7348H267.545ZM253.808 14.0684C253.808 17.5316 256.558 19.7708 260.057 19.7708C263.557 19.7708 266.314 17.5388 266.314 14.0684C266.314 10.598 263.528 8.33718 260.057 8.33718C256.587 8.33718 253.808 10.6052 253.808 14.0684ZM258.02 8.50278H262.102V4.64358H258.02V8.49558V8.50278ZM257.696 14.0036C257.696 11.966 258.704 10.7348 260.065 10.7348C261.425 10.7348 262.397 11.966 262.397 14.0036C262.397 16.0412 261.397 17.2436 260.065 17.2436C258.733 17.2436 257.696 16.0124 257.696 14.0036ZM303.538 26.51C303.538 29.7212 306.843 31.8236 310.99 31.8236C315.137 31.8236 318.442 29.7212 318.442 26.51C318.442 23.2988 315.101 21.1676 310.99 21.1676C306.879 21.1676 303.538 23.27 303.538 26.51ZM307.426 26.51C307.426 24.8252 309.075 23.6876 310.99 23.6876C312.905 23.6876 314.518 24.8252 314.518 26.51C314.518 28.1948 312.869 29.2964 310.99 29.2964C309.111 29.2964 307.426 28.1948 307.426 26.51ZM159.949 26.3516C159.949 29.6564 163.217 31.8236 167.401 31.8236C171.584 31.8236 174.853 29.6564 174.853 26.3516C174.853 23.0468 171.548 20.8436 167.401 20.8436C163.253 20.8436 159.949 23.0108 159.949 26.3516ZM163.837 26.3516C163.837 24.566 165.421 23.3708 167.401 23.3708C169.381 23.3708 170.929 24.566 170.929 26.3516C170.929 28.1372 169.345 29.2964 167.401 29.2964C165.457 29.2964 163.837 28.13 163.837 26.3516ZM185.285 25.9628C185.285 29.5268 188.554 31.8308 192.543 31.8308C196.532 31.8308 199.865 29.5268 199.865 25.9628C199.865 22.3988 196.561 20.066 192.543 20.066C188.525 20.066 185.285 22.3988 185.285 25.9628ZM189.173 25.9628C189.173 23.8892 190.693 22.5932 192.543 22.5932C194.393 22.5932 195.941 23.8892 195.941 25.9628C195.941 28.0364 194.415 29.2964 192.543 29.2964C190.671 29.2964 189.173 28.0004 189.173 25.9628Z" fill="#0367B0"/>
<path d="M31.0479 22.6608V5.32391H36.3896V30.9557H30.6592L19.7725 13.6823V30.9557H14.3936V5.32391H20.0967L31.0479 22.6608ZM74.9238 30.9557H68.9619L67.5205 26.8337H56.7061L55.2246 30.9557H49.4287L59.3066 5.32391H65.1748L74.9238 30.9557ZM47.1572 30.9479H41.4551V5.32391H47.1572V30.9479ZM58.207 22.6579H66.0605L62.1875 11.5807L58.207 22.6579Z" fill="#243B7C"/>
</svg>
