<svg width="360" height="36" viewBox="0 0 360 36" fill="none" xmlns="http://www.w3.org/2000/svg">
<path d="M92.2686 22.3625H88.3158V30.2969C88.3158 30.7217 88.5102 30.9449 88.9638 30.9449H104.804V28.3889H92.5926C92.3982 28.3889 92.2686 28.2593 92.2686 28.0649V22.3625ZM97.971 10.7345V8.17134H82.6782V10.7345H97.971ZM104.163 5.38494H100.275V23.7521H104.163V5.38494ZM84.039 14.3633C84.039 17.9921 86.8254 20.3537 90.3246 20.3537C93.8238 20.3537 96.6102 17.9849 96.6102 14.3633C96.6102 10.7417 93.795 8.33694 90.3246 8.33694C86.8542 8.33694 84.039 10.7345 84.039 14.3633ZM88.287 8.50254H92.3694V4.64334H88.287V8.49534V8.50254ZM103.191 14.8169H107.921V12.1889H103.191V14.8169ZM87.927 14.2985C87.927 12.1313 88.9998 10.7345 90.3246 10.7345C91.6494 10.7345 92.6934 12.1241 92.6934 14.2985C92.6934 16.4729 91.6278 17.8337 90.3246 17.8337C89.0214 17.8337 87.927 16.4369 87.927 14.2985ZM124.762 31.2761H128.679V22.5929C128.679 22.1393 128.449 21.9449 128.031 21.9449H111.543V24.5009H124.438C124.633 24.5009 124.762 24.6305 124.762 24.8249V31.2689V31.2761ZM124.733 15.6233H128.657V6.42174C128.657 5.96814 128.492 5.77374 128.009 5.77374H111.197V8.32974H124.417C124.611 8.32974 124.741 8.45934 124.741 8.65374V15.6161L124.733 15.6233ZM109.181 17.6969H130.789V15.0689H109.181V17.6969ZM121.911 17.0201H118.059V22.5929H121.911V17.0201ZM203.689 27.4169H224.972V24.7961H203.689V27.4169ZM216.289 18.4457H212.365V25.4441H216.289V18.4457ZM222.149 19.7417C222.632 19.7417 222.797 19.5473 222.797 19.0937V6.00414H218.909V16.8545C218.909 17.0489 218.78 17.1785 218.585 17.1785H210.068C209.873 17.1785 209.744 17.0489 209.744 16.8545V6.00414H205.856V19.0937C205.856 19.5473 206.021 19.7417 206.504 19.7417H222.149ZM208.743 12.9377H219.982V10.3457H208.743V12.9377ZM197.237 5.38494H201.125V20.0945H197.237V5.38494ZM198.209 13.6145H192.766V11.0873H198.209V13.6145ZM273.313 5.38494H269.425V30.6209H273.313V5.38494ZM251.929 26.0921H270.461V23.4713H251.929V26.0921ZM293.429 23.7593H297.317V5.38494H293.429V23.7521V23.7593ZM290.384 8.56014V6.00414H276.97V8.56014H290.384ZM285.329 22.0385H281.377V30.2969C281.377 30.7217 281.571 30.9449 282.025 30.9449H297.865V28.3889H285.653C285.459 28.3889 285.329 28.2593 285.329 28.0649V22.0385ZM319.731 9.43854V7.04094H302.3V9.43854H319.731ZM304.345 11.8649C304.345 14.6225 307.297 16.4369 310.983 16.4369C314.669 16.4369 317.621 14.6225 317.621 11.8649C317.621 9.10734 314.605 7.26414 310.983 7.26414C307.361 7.26414 304.345 9.07854 304.345 11.8649ZM308.945 7.19934H313.028V4.31934H308.945V7.19934ZM308.204 11.7065C308.204 10.3457 309.435 9.43854 310.99 9.43854C312.545 9.43854 313.741 10.3457 313.741 11.7065C313.741 13.0673 312.509 13.9385 310.99 13.9385C309.471 13.9385 308.204 13.0673 308.204 11.7065ZM340.697 25.1489H344.585V5.38494H340.697V25.1489ZM341.669 20.3537H335.744V22.8809H341.669V20.3537ZM323.295 18.8993H339.135V16.2785H323.295V18.8993ZM332.857 18.1217H328.969V22.5929H332.857V18.1217ZM325.181 9.89214C325.181 13.0961 327.867 15.1769 331.208 15.1769C334.549 15.1769 337.27 13.1033 337.27 9.89214C337.27 6.68094 334.549 4.57854 331.208 4.57854C327.867 4.57854 325.181 6.68814 325.181 9.89214ZM329.062 9.89214C329.062 8.17854 329.998 7.10574 331.201 7.10574C332.403 7.10574 333.339 8.17854 333.339 9.89214C333.339 11.6057 332.403 12.6425 331.201 12.6425C329.998 12.6425 329.062 11.5769 329.062 9.89214ZM332.273 23.8241H328.321V30.3041C328.321 30.7289 328.515 30.9521 328.969 30.9521H345.133V28.3961H332.597C332.403 28.3961 332.273 28.2665 332.273 28.0721V23.8313V23.8241ZM156.68 19.2881H178.287V16.6601H156.68V19.2881ZM147.154 8.56014V6.00414H133.611V8.56014H147.154ZM153.958 5.38494H150.07V30.6209H153.958V5.38494ZM162.865 5.64414H158.948V13.5785C158.948 14.0321 159.113 14.2265 159.596 14.2265H176.638V11.6633H163.196C163.001 11.6633 162.872 11.5337 162.872 11.3393V5.64414H162.865ZM246.838 5.38494H242.95V30.6209H246.838V5.38494ZM245.866 14.4929H250.597V11.8649H245.866V14.4929ZM300.262 20.1305H321.869V17.5097H300.262V20.1305ZM194.775 16.5665C191.247 15.6593 189.332 13.1033 189.332 9.50334V7.53054H185.537V8.82654C185.537 14.3633 188.842 18.0569 194.768 19.1585V16.5665H194.775ZM180.065 19.4825C185.998 18.3809 189.267 14.6873 189.267 9.15054V8.17854H185.48V9.82734C185.48 13.4201 183.601 15.9833 180.065 16.8905V19.4825ZM194.033 8.56014V6.00414H180.944V8.56014H194.033ZM291.255 17.9561C287.626 17.1785 285.524 14.5577 285.524 10.8281V7.68894H281.737V10.1513C281.737 15.8177 285.236 19.5761 291.262 20.5481V17.9561H291.255ZM276.257 20.8073C282.183 19.7057 285.459 16.0121 285.459 10.4753V8.33694H281.665V11.1521C281.665 14.7449 279.785 17.3081 276.257 18.2153V20.8073ZM148.061 20.2241C144.433 19.4465 142.229 15.8465 142.229 12.1241V7.68894H138.442V11.4473C138.442 17.1137 142.035 21.8441 148.061 22.8161V20.2241ZM132.862 22.7513C138.788 21.6497 142.157 17.3081 142.157 11.7713V8.33694H138.37V12.4481C138.37 16.0409 136.397 19.2521 132.862 20.1593V22.7513ZM240.941 20.2241C237.313 19.4465 235.109 15.5297 235.109 11.8001V5.68014H231.322V11.1233C231.322 16.7897 234.915 21.8441 240.941 22.8161V20.2241ZM225.749 22.7513C231.675 21.6497 235.052 16.9841 235.052 11.4473V5.68014H231.257V12.1241C231.257 15.7169 229.285 19.2521 225.749 20.1593V22.7513ZM262.001 18.7049H258.113V24.2777H262.001V18.7049ZM267.545 10.7345V8.17134H252.577V10.7345H267.545ZM253.808 14.0681C253.808 17.5313 256.558 19.7705 260.057 19.7705C263.557 19.7705 266.314 17.5385 266.314 14.0681C266.314 10.5977 263.528 8.33694 260.057 8.33694C256.587 8.33694 253.808 10.6049 253.808 14.0681ZM258.02 8.50254H262.102V4.64334H258.02V8.49534V8.50254ZM257.696 14.0033C257.696 11.9657 258.704 10.7345 260.065 10.7345C261.425 10.7345 262.397 11.9657 262.397 14.0033C262.397 16.0409 261.397 17.2433 260.065 17.2433C258.733 17.2433 257.696 16.0121 257.696 14.0033ZM303.538 26.5097C303.538 29.7209 306.843 31.8233 310.99 31.8233C315.137 31.8233 318.442 29.7209 318.442 26.5097C318.442 23.2985 315.101 21.1673 310.99 21.1673C306.879 21.1673 303.538 23.2697 303.538 26.5097ZM307.426 26.5097C307.426 24.8249 309.075 23.6873 310.99 23.6873C312.905 23.6873 314.518 24.8249 314.518 26.5097C314.518 28.1945 312.869 29.2961 310.99 29.2961C309.111 29.2961 307.426 28.1945 307.426 26.5097ZM159.949 26.3513C159.949 29.6561 163.217 31.8233 167.401 31.8233C171.584 31.8233 174.853 29.6561 174.853 26.3513C174.853 23.0465 171.548 20.8433 167.401 20.8433C163.253 20.8433 159.949 23.0105 159.949 26.3513ZM163.837 26.3513C163.837 24.5657 165.421 23.3705 167.401 23.3705C169.381 23.3705 170.929 24.5657 170.929 26.3513C170.929 28.1369 169.345 29.2961 167.401 29.2961C165.457 29.2961 163.837 28.1297 163.837 26.3513ZM185.285 25.9625C185.285 29.5265 188.554 31.8305 192.543 31.8305C196.532 31.8305 199.865 29.5265 199.865 25.9625C199.865 22.3985 196.561 20.0657 192.543 20.0657C188.525 20.0657 185.285 22.3985 185.285 25.9625ZM189.173 25.9625C189.173 23.8889 190.693 22.5929 192.543 22.5929C194.393 22.5929 195.941 23.8889 195.941 25.9625C195.941 28.0361 194.415 29.2961 192.543 29.2961C190.671 29.2961 189.173 28.0001 189.173 25.9625Z" fill="white"/>
<path d="M31.0479 22.6611V5.32422H36.3896V30.9561H30.6592L19.7725 13.6826V30.9561H14.3936V5.32422H20.0967L31.0479 22.6611ZM74.9238 30.9561H68.9619L67.5205 26.834H56.7061L55.2246 30.9561H49.4287L59.3066 5.32422H65.1748L74.9238 30.9561ZM47.1572 30.9482H41.4551V5.32422H47.1572V30.9482ZM58.207 22.6582H66.0605L62.1875 11.5811L58.207 22.6582Z" fill="white"/>
</svg>
