<svg width="400" height="300" viewBox="0 0 400 300" fill="none" xmlns="http://www.w3.org/2000/svg">
<g clip-path="url(#clip0_2459_16475)">
<rect x="25.5" y="20.5" width="349" height="259" rx="9.5" fill="url(#paint0_linear_2459_16475)" stroke="white"/>
<rect x="95" y="126.363" width="210" height="94.5455" rx="20" fill="#302F2F"/>
<rect x="99" y="132.772" width="202" height="91.1818" rx="14.5" fill="url(#paint1_linear_2459_16475)" stroke="#222222"/>
<g filter="url(#filter0_d_2459_16475)">
<path d="M161.043 80.5977V82.6836H146.184V72.5117H160.879V74.6211H148.762V80.5977H161.043ZM163.199 86.9961V89.1523H143.84V86.9961H163.199Z" fill="white"/>
<path d="M128.418 72.7461C128.418 79.1445 126.66 84.6289 118.855 88.5195L117.426 86.5508C121.094 84.7344 123.273 82.625 124.504 80.1055L117.918 80.7383L117.59 78.4883L125.301 77.9961C125.57 77.0117 125.734 75.9688 125.816 74.8555H118.691V72.7461H128.418ZM133.996 70.6602V78.957H137.137V81.0898H133.996V91.8008H131.395V70.6602H133.996Z" fill="white"/>
<path d="M147.898 107.535H146.062V101.879H147.953C149.617 101.879 150.617 102.941 150.617 104.699C150.617 106.465 149.617 107.535 147.898 107.535ZM146.922 106.785H147.852C149.133 106.785 149.766 106.035 149.766 104.699C149.766 103.371 149.133 102.629 147.898 102.629H146.922V106.785Z" fill="white"/>
<path d="M141.133 107.535V101.879H143.148C144.461 101.879 145.109 102.613 145.109 103.652C145.109 104.414 144.766 104.992 144.078 105.246L145.328 107.535H144.352L143.203 105.402H143.148H141.992V107.535H141.133ZM141.992 104.66H143.062C143.898 104.66 144.242 104.293 144.242 103.652C144.242 103.012 143.898 102.613 143.062 102.613H141.992V104.66Z" fill="white"/>
<path d="M136.266 107.535H135.352L137.383 101.879H138.375L140.414 107.535H139.5L138.984 106.043H136.781L136.266 107.535ZM137.031 105.324H138.734L137.898 102.91H137.859L137.031 105.324Z" fill="white"/>
<path d="M134.023 103.723C133.883 102.996 133.281 102.59 132.562 102.59C131.586 102.59 130.859 103.34 130.859 104.707C130.859 106.082 131.594 106.824 132.562 106.824C133.273 106.824 133.875 106.426 134.023 105.707L134.891 105.715C134.711 106.832 133.797 107.613 132.555 107.613C131.078 107.613 130.008 106.512 130.008 104.707C130.008 102.895 131.086 101.801 132.555 101.801C133.75 101.801 134.695 102.504 134.891 103.723H134.023Z" fill="white"/>
</g>
<g filter="url(#filter1_d_2459_16475)">
<rect x="184.514" y="71.4092" width="1.16667" height="35.4545" fill="white"/>
</g>
<g filter="url(#filter2_d_2459_16475)">
<path d="M280.445 87.2764V89.3857H261.086V87.2764H266.102V82.917H262.75V80.8076H265.727V74.5264H262.68V72.4404H278.758V74.5264H275.664V80.8076H278.688V82.917H275.336V87.2764H280.445ZM268.328 80.8076H273.086V74.5264H268.328V80.8076ZM268.703 87.2764H272.734V82.917H268.703V87.2764Z" fill="white"/>
<path d="M241.258 76.1904C241.258 79.6123 242.453 83.1748 245.312 84.9795L243.883 86.9717C241.973 85.8232 240.73 83.8428 240.039 81.5107C239.266 84.0771 237.906 86.2451 235.914 87.4639L234.297 85.5186C237.367 83.6436 238.75 79.917 238.75 76.3076V72.5107H241.258V76.1904ZM252.93 70.6357V91.8232H250.422V70.6357H252.93ZM248.523 71.0107V90.792H246.062V80.0811H243.039V77.9248H246.062V71.0107H248.523Z" fill="white"/>
<path d="M225.953 70.6357V83.1045H223.352V80.1748H219.086V81.8154H209.125V72.2295H219.086V73.8701H223.352V70.6357H225.953ZM211.727 74.292V79.7295H216.508V74.292H211.727ZM218.781 83.667C223.281 83.667 226.023 85.167 226.023 87.7451C226.023 90.3232 223.281 91.7998 218.781 91.7998C214.305 91.7998 211.562 90.3232 211.586 87.7451C211.562 85.167 214.305 83.667 218.781 83.667ZM218.781 85.6592C215.828 85.6592 214.164 86.3857 214.164 87.7451C214.164 89.0576 215.828 89.7842 218.781 89.7842C221.734 89.7842 223.422 89.0576 223.422 87.7451C223.422 86.3857 221.734 85.6592 218.781 85.6592ZM219.086 78.0654H223.352V75.9326H219.086V78.0654Z" fill="white"/>
<path d="M255.777 102.644V101.901H260.16V102.644H258.402V107.558H257.543V102.644H255.777Z" fill="white"/>
<path d="M251.176 107.558V101.901H253.191C254.504 101.901 255.152 102.69 255.152 103.737C255.152 104.776 254.504 105.573 253.191 105.573H252.035V107.558H251.176ZM252.035 104.839H253.105C253.941 104.839 254.285 104.37 254.285 103.737C254.285 103.097 253.941 102.636 253.105 102.636H252.035V104.839Z" fill="white"/>
<path d="M250.027 101.901V107.558H249.168V101.901H250.027Z" fill="white"/>
<path d="M244.566 107.558V101.901H248.113V102.644H245.426V104.354H247.926V105.089H245.426V106.815H248.145V107.558H244.566Z" fill="white"/>
<path d="M242.77 103.745C242.629 103.019 242.027 102.612 241.309 102.612C240.332 102.612 239.605 103.362 239.605 104.729C239.605 106.104 240.34 106.847 241.309 106.847C242.02 106.847 242.621 106.448 242.77 105.729L243.637 105.737C243.457 106.854 242.543 107.636 241.301 107.636C239.824 107.636 238.754 106.534 238.754 104.729C238.754 102.917 239.832 101.823 241.301 101.823C242.496 101.823 243.441 102.526 243.637 103.745H242.77Z" fill="white"/>
<path d="M234.34 107.558V101.901H237.887V102.644H235.199V104.354H237.699V105.089H235.199V106.815H237.918V107.558H234.34Z" fill="white"/>
<path d="M229.41 107.558V101.901H231.426C232.738 101.901 233.387 102.636 233.387 103.675C233.387 104.437 233.043 105.015 232.355 105.269L233.605 107.558H232.629L231.48 105.425H231.426H230.27V107.558H229.41ZM230.27 104.683H231.34C232.176 104.683 232.52 104.315 232.52 103.675C232.52 103.034 232.176 102.636 231.34 102.636H230.27V104.683Z" fill="white"/>
</g>
<rect x="124.166" y="204.363" width="151.667" height="3.54545" rx="1.77273" fill="black"/>
<rect x="139.334" y="180.728" width="112" height="5.90909" rx="1" fill="black"/>
<rect x="117.166" y="192.545" width="165.667" height="5.90909" fill="#464646"/>
<path d="M117.166 198.455H282.833L275.833 204.364H124.166L117.166 198.455Z" fill="#1B1B1B"/>
<g filter="url(#filter3_d_2459_16475)">
<mask id="mask0_2459_16475" style="mask-type:alpha" maskUnits="userSpaceOnUse" x="117" y="169" width="166" height="24">
<path d="M117 178.069C117 176.412 118.343 175.069 120 175.069H199.292C199.65 175.069 200.005 175.005 200.341 174.879L215.59 169.189C215.926 169.064 216.281 169 216.639 169H279.667C281.324 169 282.667 170.343 282.667 172V189.636C282.667 191.293 281.324 192.636 279.667 192.636H120C118.343 192.636 117 191.293 117 189.636V178.069Z" fill="#D9D9D9"/>
</mask>
<g mask="url(#mask0_2459_16475)">
<path d="M139.333 186.637H250.749L282.833 192.546H117.166L139.333 186.637Z" fill="#5E5E5E"/>
<path d="M139.333 180.727H250.749L282.833 168.909H204.083L117.166 174.818L139.333 180.727Z" fill="url(#paint2_linear_2459_16475)"/>
<path d="M117.166 174.818L139.333 180.727V186.637L117.166 192.546V174.818Z" fill="url(#paint3_linear_2459_16475)"/>
<path d="M282.834 168.909L251.334 180.727V186.636L282.834 192.546V168.909Z" fill="url(#paint4_linear_2459_16475)"/>
</g>
</g>
<g clip-path="url(#clip1_2459_16475)">
<g filter="url(#filter4_dd_2459_16475)">
<path d="M150.754 163.085C151.097 162.419 151.784 162 152.533 162H236.694C237.478 162 238.189 162.458 238.514 163.171L246.712 181.171C247.315 182.495 246.347 184 244.892 184H143.277C141.781 184 140.814 182.416 141.499 181.085L150.754 163.085Z" fill="url(#paint5_linear_2459_16475)"/>
<path d="M150.754 163.085C151.097 162.419 151.784 162 152.533 162H236.694C237.478 162 238.189 162.458 238.514 163.171L246.712 181.171C247.315 182.495 246.347 184 244.892 184H143.277C141.781 184 140.814 182.416 141.499 181.085L150.754 163.085Z" fill="url(#paint6_linear_2459_16475)"/>
<path d="M150.754 163.085C151.097 162.419 151.784 162 152.533 162H236.694C237.478 162 238.189 162.458 238.514 163.171L246.712 181.171C247.315 182.495 246.347 184 244.892 184H143.277C141.781 184 140.814 182.416 141.499 181.085L150.754 163.085Z" fill="url(#paint7_linear_2459_16475)"/>
</g>
<path d="M140 180H249.856L251 183H140V180Z" fill="url(#paint8_linear_2459_16475)"/>
</g>
<g clip-path="url(#clip2_2459_16475)">
<path d="M138 204H234V207H138V204Z" fill="url(#paint9_linear_2459_16475)"/>
<path d="M128 205H260.619L262 208H128V205Z" fill="url(#paint10_linear_2459_16475)"/>
</g>
</g>
<defs>
<filter id="filter0_d_2459_16475" x="111.611" y="66.3008" width="57.4023" height="47.6719" filterUnits="userSpaceOnUse" color-interpolation-filters="sRGB">
<feFlood flood-opacity="0" result="BackgroundImageFix"/>
<feColorMatrix in="SourceAlpha" type="matrix" values="0 0 0 0 0 0 0 0 0 0 0 0 0 0 0 0 0 0 127 0" result="hardAlpha"/>
<feOffset dy="1"/>
<feGaussianBlur stdDeviation="1"/>
<feComposite in2="hardAlpha" operator="out"/>
<feColorMatrix type="matrix" values="0 0 0 0 0 0 0 0 0 0 0 0 0 0 0 0 0 0 1 0"/>
<feBlend mode="normal" in2="BackgroundImageFix" result="effect1_dropShadow_2459_16475"/>
<feBlend mode="normal" in="SourceGraphic" in2="effect1_dropShadow_2459_16475" result="shape"/>
</filter>
<filter id="filter1_d_2459_16475" x="182.514" y="70.4092" width="5.16602" height="39.4541" filterUnits="userSpaceOnUse" color-interpolation-filters="sRGB">
<feFlood flood-opacity="0" result="BackgroundImageFix"/>
<feColorMatrix in="SourceAlpha" type="matrix" values="0 0 0 0 0 0 0 0 0 0 0 0 0 0 0 0 0 0 127 0" result="hardAlpha"/>
<feOffset dy="1"/>
<feGaussianBlur stdDeviation="1"/>
<feComposite in2="hardAlpha" operator="out"/>
<feColorMatrix type="matrix" values="0 0 0 0 0 0 0 0 0 0 0 0 0 0 0 0 0 0 1 0"/>
<feBlend mode="normal" in2="BackgroundImageFix" result="effect1_dropShadow_2459_16475"/>
<feBlend mode="normal" in="SourceGraphic" in2="effect1_dropShadow_2459_16475" result="shape"/>
</filter>
<filter id="filter2_d_2459_16475" x="201.182" y="66.2725" width="87.207" height="47.7275" filterUnits="userSpaceOnUse" color-interpolation-filters="sRGB">
<feFlood flood-opacity="0" result="BackgroundImageFix"/>
<feColorMatrix in="SourceAlpha" type="matrix" values="0 0 0 0 0 0 0 0 0 0 0 0 0 0 0 0 0 0 127 0" result="hardAlpha"/>
<feOffset dy="1"/>
<feGaussianBlur stdDeviation="1"/>
<feComposite in2="hardAlpha" operator="out"/>
<feColorMatrix type="matrix" values="0 0 0 0 0 0 0 0 0 0 0 0 0 0 0 0 0 0 1 0"/>
<feBlend mode="normal" in2="BackgroundImageFix" result="effect1_dropShadow_2459_16475"/>
<feBlend mode="normal" in="SourceGraphic" in2="effect1_dropShadow_2459_16475" result="shape"/>
</filter>
<filter id="filter3_d_2459_16475" x="113.166" y="164" width="173.5" height="31.5459" filterUnits="userSpaceOnUse" color-interpolation-filters="sRGB">
<feFlood flood-opacity="0" result="BackgroundImageFix"/>
<feColorMatrix in="SourceAlpha" type="matrix" values="0 0 0 0 0 0 0 0 0 0 0 0 0 0 0 0 0 0 127 0" result="hardAlpha"/>
<feOffset dy="-1"/>
<feGaussianBlur stdDeviation="2"/>
<feComposite in2="hardAlpha" operator="out"/>
<feColorMatrix type="matrix" values="0 0 0 0 0 0 0 0 0 0 0 0 0 0 0 0 0 0 0.25 0"/>
<feBlend mode="normal" in2="BackgroundImageFix" result="effect1_dropShadow_2459_16475"/>
<feBlend mode="normal" in="SourceGraphic" in2="effect1_dropShadow_2459_16475" result="shape"/>
</filter>
<filter id="filter4_dd_2459_16475" x="137.275" y="162" width="113.619" height="30" filterUnits="userSpaceOnUse" color-interpolation-filters="sRGB">
<feFlood flood-opacity="0" result="BackgroundImageFix"/>
<feColorMatrix in="SourceAlpha" type="matrix" values="0 0 0 0 0 0 0 0 0 0 0 0 0 0 0 0 0 0 127 0" result="hardAlpha"/>
<feOffset dy="4"/>
<feGaussianBlur stdDeviation="2"/>
<feComposite in2="hardAlpha" operator="out"/>
<feColorMatrix type="matrix" values="0 0 0 0 0 0 0 0 0 0 0 0 0 0 0 0 0 0 0.25 0"/>
<feBlend mode="normal" in2="BackgroundImageFix" result="effect1_dropShadow_2459_16475"/>
<feColorMatrix in="SourceAlpha" type="matrix" values="0 0 0 0 0 0 0 0 0 0 0 0 0 0 0 0 0 0 127 0" result="hardAlpha"/>
<feOffset dy="1"/>
<feComposite in2="hardAlpha" operator="out"/>
<feColorMatrix type="matrix" values="0 0 0 0 1 0 0 0 0 1 0 0 0 0 1 0 0 0 1 0"/>
<feBlend mode="normal" in2="effect1_dropShadow_2459_16475" result="effect2_dropShadow_2459_16475"/>
<feBlend mode="normal" in="SourceGraphic" in2="effect2_dropShadow_2459_16475" result="shape"/>
</filter>
<linearGradient id="paint0_linear_2459_16475" x1="200" y1="20" x2="200" y2="280" gradientUnits="userSpaceOnUse">
<stop stop-color="#505151"/>
<stop offset="1" stop-color="#313336"/>
</linearGradient>
<linearGradient id="paint1_linear_2459_16475" x1="200" y1="132.272" x2="200" y2="224.454" gradientUnits="userSpaceOnUse">
<stop stop-color="#505151"/>
<stop offset="1" stop-color="#323436"/>
</linearGradient>
<linearGradient id="paint2_linear_2459_16475" x1="202.333" y1="168.909" x2="202.333" y2="180.727" gradientUnits="userSpaceOnUse">
<stop stop-color="#1F1F1F"/>
<stop offset="1" stop-color="#292929"/>
</linearGradient>
<linearGradient id="paint3_linear_2459_16475" x1="128.249" y1="168.909" x2="124.064" y2="187.796" gradientUnits="userSpaceOnUse">
<stop stop-color="#5F5F5F"/>
<stop offset="1" stop-color="#2E2E2E"/>
</linearGradient>
<linearGradient id="paint4_linear_2459_16475" x1="267.084" y1="168.909" x2="267.084" y2="192.546" gradientUnits="userSpaceOnUse">
<stop stop-color="#2F2F2F"/>
<stop offset="1" stop-color="#2E2E2E"/>
</linearGradient>
<linearGradient id="paint5_linear_2459_16475" x1="212.321" y1="163.8" x2="219.985" y2="191.647" gradientUnits="userSpaceOnUse">
<stop stop-color="#3A6CD9"/>
<stop offset="1" stop-color="#2C55CB"/>
</linearGradient>
<linearGradient id="paint6_linear_2459_16475" x1="155.569" y1="129.579" x2="197.863" y2="206.674" gradientUnits="userSpaceOnUse">
<stop stop-color="#2B54CA"/>
<stop offset="1" stop-color="#243B7C"/>
</linearGradient>
<linearGradient id="paint7_linear_2459_16475" x1="155.569" y1="162" x2="164.14" y2="200.645" gradientUnits="userSpaceOnUse">
<stop stop-color="#F6F6F6"/>
<stop offset="1" stop-color="#6F6F6F"/>
</linearGradient>
<linearGradient id="paint8_linear_2459_16475" x1="193.229" y1="180" x2="193.229" y2="183" gradientUnits="userSpaceOnUse">
<stop/>
<stop offset="1" stop-opacity="0"/>
</linearGradient>
<linearGradient id="paint9_linear_2459_16475" x1="184.515" y1="204" x2="184.515" y2="207" gradientUnits="userSpaceOnUse">
<stop/>
<stop offset="1" stop-opacity="0"/>
</linearGradient>
<linearGradient id="paint10_linear_2459_16475" x1="192.258" y1="205" x2="192.258" y2="208" gradientUnits="userSpaceOnUse">
<stop/>
<stop offset="1" stop-opacity="0"/>
</linearGradient>
<clipPath id="clip0_2459_16475">
<rect width="400" height="300" fill="white"/>
</clipPath>
<clipPath id="clip1_2459_16475">
<rect width="200" height="119" fill="white" transform="translate(99 181)"/>
</clipPath>
<clipPath id="clip2_2459_16475">
<rect width="201" height="106" fill="white" transform="translate(99 205)"/>
</clipPath>
</defs>
</svg>
