<svg width="224" height="64" viewBox="0 0 224 64" fill="none" xmlns="http://www.w3.org/2000/svg">
<g filter="url(#filter0_d_2943_58408)">
<rect x="2" y="1" width="220" height="60" rx="6" fill="#3D3D3D" shape-rendering="crispEdges"/>
<path d="M40 20C41.6569 20 43 21.3431 43 23V39C43 40.6569 41.6569 42 40 42H24C22.3431 42 21 40.6569 21 39V23C21 21.3431 22.3431 20 24 20H40ZM24 33C23.4477 33 23 33.4477 23 34V39C23 39.5523 23.4477 40 24 40H40C40.5523 40 41 39.5523 41 39V34C41 33.4477 40.5523 33 40 33H24ZM32 23.25C31.5858 23.25 31.25 23.5858 31.25 24V28.3047L29.5049 26.7178C29.1984 26.4392 28.7239 26.4621 28.4453 26.7686C28.1667 27.075 28.1887 27.5495 28.4951 27.8281L31.4951 30.5547C31.7812 30.8147 32.2188 30.8147 32.5049 30.5547L35.5049 27.8281C35.8114 27.5495 35.8333 27.075 35.5547 26.7686C35.2761 26.4621 34.8016 26.4392 34.4951 26.7178L32.75 28.3047V24C32.75 23.5858 32.4142 23.25 32 23.25Z" fill="white"/>
<!-- <path d="M88.9543 19.8066V29.2773H92.1789V31.6387H88.9543V42.7598H86.1105V19.8066H88.9543ZM70.5207 36.3867C72.26 36.3867 74.2785 36.3867 76.3859 36.3359V34.1777C73.885 33.7588 72.2473 32.1846 72.2727 30.0391C72.2473 27.4492 74.5324 25.7227 77.8332 25.7227C81.0832 25.7227 83.3937 27.4492 83.4191 30.0391C83.3937 32.1973 81.7307 33.7715 79.2297 34.1777V36.2344C81.1594 36.1328 83.0891 35.9805 84.8918 35.7266L85.0695 37.7832C80.1437 38.6719 74.8371 38.7227 70.927 38.7227L70.5207 36.3867ZM84.6379 22.4473V24.6816H70.9523V22.4473H76.3859V19.9082H79.2297V22.4473H84.6379ZM77.8332 27.8809C76.0812 27.9062 74.9387 28.6934 74.9387 30.0391C74.9387 31.3594 76.0812 32.1465 77.8332 32.1211C79.5598 32.1465 80.7023 31.3594 80.7023 30.0391C80.7023 28.6934 79.5598 27.9062 77.8332 27.8809ZM104.532 21.7363V23.5645H109.153V19.832H111.971V36.5391H109.153V30.75H104.532V32.7305H93.7409V21.7363H104.532ZM96.5593 23.9707V30.5215H101.739V23.9707H96.5593ZM112.479 40.0176V42.3027H96.8386V34.9902H99.7077V40.0176H112.479ZM104.532 28.4902H109.153V25.875H104.532V28.4902ZM140.054 19.8066V42.7598H137.338V31.1562H134.799V41.5918H132.158V20.2383H134.799V28.8457H137.338V19.8066H140.054ZM124.185 22.4473V34.5586C126.166 34.5205 128.337 34.3555 130.736 33.873L131.015 36.3359C127.918 36.8945 125.302 37.0469 122.865 37.0469H121.342V22.4473H124.185ZM161.421 19.8066V42.7852H158.628V19.8066H161.421ZM154.363 21.8125V30.4199H146.466V35.041C150.084 35.0156 153.207 34.8379 156.775 34.2285L157.029 36.5391C153.118 37.2246 149.691 37.3516 145.577 37.3516H143.572V28.1855H151.493V24.0977H143.546V21.8125H154.363ZM183.423 19.8066V42.7598H180.579V19.8066H183.423ZM176.567 22.2441C176.567 29.0742 173.927 34.8887 165.878 38.6973L164.405 36.4375C170.41 33.5811 173.203 29.6963 173.698 24.4785H165.573V22.2441H176.567Z" fill="white"/> -->
<path d="M199 4H216C217.657 4 219 5.34315 219 7V24L209 14L199 4Z" fill="white"/>
</g>
<defs>
<filter id="filter0_d_2943_58408" x="0" y="0" width="224" height="64" filterUnits="userSpaceOnUse" color-interpolation-filters="sRGB">
<feFlood flood-opacity="0" result="BackgroundImageFix"/>
<feColorMatrix in="SourceAlpha" type="matrix" values="0 0 0 0 0 0 0 0 0 0 0 0 0 0 0 0 0 0 127 0" result="hardAlpha"/>
<feOffset dy="1"/>
<feGaussianBlur stdDeviation="1"/>
<feComposite in2="hardAlpha" operator="out"/>
<feColorMatrix type="matrix" values="0 0 0 0 0 0 0 0 0 0 0 0 0 0 0 0 0 0 0.2 0"/>
<feBlend mode="normal" in2="BackgroundImageFix" result="effect1_dropShadow_2943_58408"/>
<feBlend mode="normal" in="SourceGraphic" in2="effect1_dropShadow_2943_58408" result="shape"/>
</filter>
</defs>
</svg>
