<svg width="224" height="64" viewBox="0 0 224 64" fill="none" xmlns="http://www.w3.org/2000/svg">
<g filter="url(#filter0_di_2943_58409)">
<rect x="2" y="1" width="220" height="60" rx="6" fill="#fff" shape-rendering="crispEdges"/>
<rect x="2.5" y="1.5" width="219" height="59" rx="5.5" stroke="#3D3D3D" shape-rendering="crispEdges"/>
<path d="M40 20C41.6569 20 43 21.3431 43 23V39C43 40.6569 41.6569 42 40 42H24C22.3431 42 21 40.6569 21 39V23C21 21.3431 22.3431 20 24 20H40ZM24 31C23.4477 31 23 31.4477 23 32V39C23 39.5523 23.4477 40 24 40H31C31.5523 40 32 39.5523 32 39V32C32 31.4477 31.5523 31 31 31H24ZM35.6211 22.4346C35.2072 22.4349 34.8711 22.7706 34.8711 23.1846C34.8711 23.5987 35.207 23.9354 35.6211 23.9355H38.1787L33.6445 28.4697C33.3518 28.7625 33.351 29.2373 33.6436 29.5303C33.9364 29.823 34.4122 29.8231 34.7051 29.5303L39.2402 24.9951V27.5547C39.2406 27.9685 39.5764 28.3035 39.9902 28.3037C40.4042 28.3037 40.7398 27.9686 40.7402 27.5547V23.1846C40.7402 22.7704 40.4044 22.4346 39.9902 22.4346H35.6211Z" fill="#3d3d3d"/>
<!-- <path d="M103.015 19.8066V29.2773H106.239V31.6387H103.015V42.7598H100.171V19.8066H103.015ZM84.581 36.3867C86.3203 36.3867 88.3388 36.3867 90.4463 36.3359V34.1777C87.9453 33.7588 86.3076 32.1846 86.333 30.0391C86.3076 27.4492 88.5927 25.7227 91.8935 25.7227C95.1435 25.7227 97.4541 27.4492 97.4795 30.0391C97.4541 32.1973 95.791 33.7715 93.29 34.1777V36.2344C95.2197 36.1328 97.1494 35.9805 98.9521 35.7266L99.1298 37.7832C94.2041 38.6719 88.8974 38.7227 84.9873 38.7227L84.581 36.3867ZM98.6982 22.4473V24.6816H85.0127V22.4473H90.4463V19.9082H93.29V22.4473H98.6982ZM91.8935 27.8809C90.1416 27.9062 88.999 28.6934 88.999 30.0391C88.999 31.3594 90.1416 32.1465 91.8935 32.1211C93.6201 32.1465 94.7627 31.3594 94.7627 30.0391C94.7627 28.6934 93.6201 27.9062 91.8935 27.8809ZM118.592 21.7363V23.5645H123.213V19.832H126.032V36.5391H123.213V30.75H118.592V32.7305H107.801V21.7363H118.592ZM110.62 23.9707V30.5215H115.799V23.9707H110.62ZM126.54 40.0176V42.3027H110.899V34.9902H113.768V40.0176H126.54ZM118.592 28.4902H123.213V25.875H118.592V28.4902ZM146.941 19.832V26.5098H150.039V28.8457H146.941V35.3457H144.123V19.832H146.941ZM128.559 32.6035C130.285 32.6035 132.278 32.5908 134.348 32.5273V31.1309C131.796 30.8135 130.184 29.582 130.184 27.7793C130.184 25.6719 132.393 24.3516 135.719 24.377C139.07 24.3516 141.254 25.6719 141.254 27.7793C141.254 29.5693 139.68 30.7881 137.166 31.1055V32.4258C139.121 32.3369 141.089 32.1846 142.93 31.9434L143.158 33.8984C138.258 34.7617 132.9 34.8125 128.863 34.8125L128.559 32.6035ZM146.941 36.3359V42.7598H144.123V38.5449H131.453V36.3359H146.941ZM142.32 21.6348V23.7168H129.143V21.6348H134.348V19.6289H137.166V21.6348H142.32ZM135.719 26.2812C133.941 26.2559 132.875 26.7891 132.9 27.7793C132.875 28.7188 133.941 29.3281 135.719 29.3027C137.496 29.3281 138.562 28.7188 138.562 27.7793C138.562 26.7891 137.496 26.2559 135.719 26.2812ZM170.466 19.8066V42.7598H167.775V31.0547H165.185V41.5918H162.595V20.2383H165.185V28.7949H167.775V19.8066H170.466ZM160.005 22.5234V24.8086H154.267V35.0156C156.768 34.9902 158.825 34.8633 161.148 34.4316L161.351 36.7422C158.584 37.3008 156.171 37.377 152.972 37.4023H151.423V22.5234H160.005Z" fill="#3D3D3D"/> -->
<path d="M199 4H216C217.657 4 219 5.34315 219 7V24L209 14L199 4Z" fill="#3f3f3f"/>
</g>
</svg>
