<svg width="220" height="60" viewBox="0 0 220 60" fill="none" xmlns="http://www.w3.org/2000/svg">
<rect width="220" height="60" rx="6" fill="#000"/>
<path d="M38 19C39.6569 19 41 20.3431 41 22V38C41 39.6569 39.6569 41 38 41H22C20.3431 41 19 39.6569 19 38V22C19 20.3431 20.3431 19 22 19H38ZM22 21C21.4477 21 21 21.4477 21 22V38C21 38.5523 21.4477 39 22 39H30V29.6094C30.6253 28.205 30.8769 26.6432 30.8828 24.9648H30V21H22ZM32.127 36.3262H34.3281V30.1602H35.9414V28.3691H34.3281V23.707H32.127V36.3262ZM30 29.6094C29.1684 31.477 27.6749 33.0658 25.209 34.2754L23.9648 32.6074C26.7812 31.1855 28.2715 29.415 28.6543 26.7422H24.7578V24.9648H30V29.6094Z" fill="#fff"/>
<!-- <path d="M112.314 20.9141V23.123C112.289 25.9668 112.289 29.166 111.4 33.9648L108.556 33.6602C109.445 29.1914 109.445 25.9287 109.47 23.1738H95.7593V20.9141H112.314ZM114.498 36.4785V38.7891H93.5757V36.4785H101.294V28.5059H104.087V36.4785H114.498ZM135.28 18.8066V41.7598H132.589V30.0547H129.999V40.5918H127.409V19.2383H129.999V27.7949H132.589V18.8066H135.28ZM124.819 21.5234V23.8086H119.081V34.0156C121.582 33.9902 123.639 33.8633 125.962 33.4316L126.165 35.7422C123.397 36.3008 120.985 36.377 117.786 36.4023H116.237V21.5234H124.819ZM156.571 18.8066V41.7852H153.727V18.8066H156.571ZM141.514 20.6855V26.4238H147.075V20.6855H149.868V36.377H138.696V20.6855H141.514ZM141.514 34.0664H147.075V28.6328H141.514V34.0664Z" fill="black"/> -->
<path d="M202 3H214C215.657 3 217 4.34315 217 6V18L209.5 10.5L202 3Z" fill="#fff"/>
</svg>
