<svg width="224" height="64" viewBox="0 0 224 64" fill="none" xmlns="http://www.w3.org/2000/svg">
<g filter="url(#filter0_di_2943_58355)">
<rect x="2" y="1" width="220" height="60" rx="6" fill="#000" shape-rendering="crispEdges"/>
<rect x="2.5" y="1.5" width="219" height="59" rx="5.5" stroke="#fff" shape-rendering="crispEdges"/>
<path d="M40 20C41.6569 20 43 21.3431 43 23V39C43 40.6569 41.6569 42 40 42H24C22.3431 42 21 40.6569 21 39V23C21 21.3431 22.3431 20 24 20H40ZM24 33C23.4477 33 23 33.4477 23 34V39C23 39.5523 23.4477 40 24 40H40C40.5523 40 41 39.5523 41 39V34C41 33.4477 40.5523 33 40 33H24ZM32 23.25C31.5858 23.25 31.25 23.5858 31.25 24V28.3047L29.5049 26.7178C29.1984 26.4392 28.7239 26.4621 28.4453 26.7686C28.1667 27.075 28.1887 27.5495 28.4951 27.8281L31.4951 30.5547C31.7812 30.8147 32.2188 30.8147 32.5049 30.5547L35.5049 27.8281C35.8114 27.5495 35.8333 27.075 35.5547 26.7686C35.2761 26.4621 34.8016 26.4392 34.4951 26.7178L32.75 28.3047V24C32.75 23.5858 32.4142 23.25 32 23.25Z" fill="#fff"/>
</g>
</svg>