<svg width="276" height="66" viewBox="0 0 276 66" fill="none" xmlns="http://www.w3.org/2000/svg">
<g filter="url(#filter0_d_3585_101336)">
<rect x="3" y="1" width="270" height="60" rx="10" fill="#fff" shape-rendering="crispEdges"/>
<!-- <path d="M137.207 37.4102V39.8711H114.621V37.4102H124.301V31.6953H127.309V37.4102H137.207ZM127.391 21.5234C127.391 25.2695 131.137 28.9609 136.332 29.7812L135.02 32.2969C130.836 31.5039 127.418 29.1113 125.777 25.8711C124.137 29.0977 120.746 31.5312 116.59 32.2969L115.277 29.7812C120.445 28.9609 124.137 25.2422 124.164 21.5234V19.7188H127.391V21.5234ZM160.039 18.2148V42.9336H157.113V30.2461H154.461V41.7852H151.617V18.8711H154.461V27.7852H157.113V18.2148H160.039ZM149.512 21.332C149.512 28.0039 147.406 33.7461 140.379 37.7656L138.629 35.6602C143.893 32.6113 146.121 28.7012 146.559 23.7656H139.777V21.332H149.512Z" fill="white"/> -->
<path d="M244.707 8.70711C244.077 8.07714 244.523 7 245.414 7H263C265.209 7 267 8.79086 267 11V28.5858C267 29.4767 265.923 29.9229 265.293 29.2929L255 19L244.707 8.70711Z" fill="#000"/>
</g>
<defs>
<filter id="filter0_d_3585_101336" x="0" y="0" width="276" height="66" filterUnits="userSpaceOnUse" color-interpolation-filters="sRGB">
<feFlood flood-opacity="0" result="BackgroundImageFix"/>
<feColorMatrix in="SourceAlpha" type="matrix" values="0 0 0 0 0 0 0 0 0 0 0 0 0 0 0 0 0 0 127 0" result="hardAlpha"/>
<feOffset dy="2"/>
<feGaussianBlur stdDeviation="1.5"/>
<feComposite in2="hardAlpha" operator="out"/>
<feColorMatrix type="matrix" values="0 0 0 0 0 0 0 0 0 0 0 0 0 0 0 0 0 0 0.4 0"/>
<feBlend mode="normal" in2="BackgroundImageFix" result="effect1_dropShadow_3585_101336"/>
<feBlend mode="normal" in="SourceGraphic" in2="effect1_dropShadow_3585_101336" result="shape"/>
</filter>
</defs>
</svg>
