<svg width="184" height="60" viewBox="0 0 184 60" fill="none" xmlns="http://www.w3.org/2000/svg">
<rect width="184" height="60" rx="10" fill="white"/>
<!-- <path d="M89.3203 17.2422V35.2891H86.2852V26.2383H81.9102V23.7773H86.2852V17.2422H89.3203ZM89.9492 38.9805V41.4414H73.1055V33.7031H76.1406V38.9805H89.9492ZM77.6992 22.1641C77.6992 25.1445 79.6953 28.207 83.5234 29.4648L81.9922 31.8984C79.2305 30.9551 77.2754 29.082 76.1953 26.7305C75.1016 29.3418 73.0371 31.4062 70.125 32.418L68.5664 29.957C72.5039 28.6719 74.6094 25.418 74.6094 22.1367V21.4805H69.4688V19.0195H82.8125V21.4805H77.6992V22.1641ZM100.367 24.7617C100.367 28.5898 101.953 32.4453 105.398 34.3047L103.703 36.5469C101.406 35.3301 99.8477 33.1562 98.9727 30.5586C98.0977 33.3613 96.5391 35.7539 94.2148 37.1211L92.4375 34.8242C95.9375 32.8008 97.4961 28.6719 97.4961 24.7617V23.9961H93.2852V21.5352H97.4961V18.0898H100.367V21.5352H104.496V23.9961H100.367V24.7617ZM114.094 17.2148V41.9336H111.195V17.2148H114.094ZM109.062 17.6797V40.7305H106.191V29.2188H102.965V26.7031H106.191V17.6797H109.062Z" fill="black"/> -->
<path d="M155.707 7.70711C155.077 7.07714 155.523 6 156.414 6H174C176.209 6 178 7.79086 178 10V27.5858C178 28.4767 176.923 28.9229 176.293 28.2929L166 18L155.707 7.70711Z" fill="black"/>
</svg>
