<svg width="32" height="32" viewBox="0 0 32 32" fill="none" xmlns="http://www.w3.org/2000/svg">
<path d="M22.7773 13.7773C23.3295 13.7773 23.7771 14.2253 23.7773 14.7773V25C23.7773 25.5523 23.3296 26 22.7773 26H19V21C19 19.3431 17.6569 18 16 18C14.3431 18 13 19.3431 13 21V26H9.22266C8.67037 26 8.22266 25.5523 8.22266 25V14.7773C8.22289 14.2253 8.67052 13.7773 9.22266 13.7773H22.7773Z" fill="#3D3D3D"/>
<path d="M15.3598 6.53349C15.7307 6.22445 16.2693 6.22445 16.6402 6.53349L25.8781 14.2318C26.5967 14.8305 26.1732 16 25.238 16H6.76205C5.82675 16 5.40335 14.8305 6.12187 14.2318L15.3598 6.53349Z" fill="#3D3D3D"/>
</svg>
