<svg width="36" height="36" viewBox="0 0 36 36" fill="none" xmlns="http://www.w3.org/2000/svg">
<path d="M5.40002 13.6001C5.40002 13.0478 5.84774 12.6001 6.40002 12.6001H10.8V23.4001H6.40003C5.84774 23.4001 5.40002 22.9524 5.40002 22.4001V13.6001Z" fill="#262626"/>
<path d="M10.8 12.6L18.2266 7.40147C18.8894 6.93753 19.8 7.41168 19.8 8.2207V27.7794C19.8 28.5884 18.8894 29.0626 18.2266 28.5986L10.8 23.4V12.6Z" fill="#262626"/>
<path d="M22.6111 23.079C22.3494 22.9744 22.1619 22.7956 22.0485 22.5427C21.9351 22.2897 21.9308 22.0412 22.0354 21.7969C22.2971 21.2039 22.4933 20.589 22.6242 19.9523C22.755 19.3156 22.8204 18.6746 22.8204 18.0292C22.8204 17.3838 22.755 16.7471 22.6242 16.1191C22.4933 15.4911 22.2971 14.8806 22.0354 14.2875C21.9308 14.0433 21.9395 13.8035 22.0616 13.568C22.1837 13.3325 22.3756 13.1624 22.6372 13.0578C22.9338 12.9531 23.2172 12.9662 23.4876 13.097C23.758 13.2279 23.9542 13.4415 24.0763 13.7381C24.3729 14.4184 24.5865 15.1205 24.7174 15.8444C24.8482 16.5683 24.9136 17.2965 24.9136 18.0292C24.9136 18.7792 24.8438 19.5162 24.7043 20.2401C24.5647 20.964 24.3467 21.6748 24.0502 22.3726C23.9281 22.6691 23.7318 22.8872 23.4614 23.0267C23.1911 23.1663 22.9076 23.1837 22.6111 23.079ZM25.6462 26.1142C25.402 25.9921 25.2276 25.8046 25.1229 25.5516C25.0183 25.2987 25.0357 25.0589 25.1753 24.8321C25.7858 23.8029 26.2437 22.7215 26.5489 21.5876C26.8542 20.4538 27.0068 19.2851 27.0068 18.0815C27.0068 16.8779 26.8498 15.7048 26.5358 14.5623C26.2219 13.4197 25.7596 12.3252 25.1491 11.2786C25.0095 11.0518 24.9965 10.8119 25.1098 10.559C25.2232 10.3061 25.402 10.1186 25.6462 9.99646C25.9428 9.85692 26.2437 9.85256 26.5489 9.98338C26.8542 10.1142 27.0853 10.3279 27.2423 10.6244C27.8528 11.7757 28.3151 12.9706 28.6291 14.2091C28.943 15.4475 29.1 16.7209 29.1 18.0292C29.1 19.3374 28.9387 20.6239 28.616 21.8885C28.2933 23.1532 27.8267 24.3611 27.2161 25.5124C27.0591 25.8089 26.8324 26.0183 26.5358 26.1404C26.2393 26.2625 25.9428 26.2537 25.6462 26.1142Z" fill="#262626"/>
</svg>
